M48
; DRILL file {KiCad 7.0.2} date Fri Apr 12 13:31:17 2024
; FORMAT={-:-/ absolute / metric / decimal}
; #@! TF.CreationDate,2024-04-12T13:31:17-03:00
; #@! TF.GenerationSoftware,Kicad,Pcbnew,7.0.2
; #@! TF.FileFunction,Plated,1,2,PTH
FMAT,2
METRIC
; #@! TA.AperFunction,Plated,PTH,ComponentDrill
T1C1.000
; #@! TA.AperFunction,Plated,PTH,ComponentDrill
T2C1.300
%
G90
G05
T1
X67.06Y-72.19
X67.06Y-79.81
X70.51Y-71.48
X72.08Y-76.65
X74.62Y-76.65
X76.8Y-101.64
X76.8Y-109.26
X76.94Y-147.66
X76.94Y-157.82
X77.13Y-83.07
X77.138Y-115.77
X77.138Y-139.17
X79.04Y-76.86
X79.67Y-87.62
X79.67Y-95.24
X79.677Y-115.77
X79.677Y-139.17
X80.67Y-71.48
X81.04Y-105.09
X81.58Y-76.86
X81.97Y-147.665
X81.97Y-164.665
X82.21Y-87.62
X82.21Y-95.24
X82.218Y-115.77
X82.218Y-139.17
X83.58Y-105.09
X84.12Y-76.86
X84.75Y-83.07
X84.75Y-87.62
X84.75Y-95.24
X84.757Y-115.77
X84.757Y-139.17
X86.12Y-105.09
X87.15Y-71.28
X87.297Y-115.77
X87.297Y-139.17
X88.53Y-75.3
X88.53Y-82.92
X88.66Y-105.09
X89.43Y-99.32
X89.545Y-93.83
X89.837Y-115.77
X89.837Y-139.17
X91.2Y-105.09
X92.085Y-93.83
X92.34Y-86.23
X92.377Y-115.77
X92.377Y-139.17
X92.87Y-75.425
X92.87Y-77.965
X93.74Y-105.09
X94.917Y-115.77
X94.917Y-139.17
X97.05Y-99.32
X97.31Y-71.28
X97.457Y-115.77
X97.457Y-139.17
X98.59Y-91.405
X98.59Y-93.945
X98.65Y-76.88
X98.65Y-79.42
X98.65Y-81.96
X99.96Y-86.23
X99.998Y-115.77
X99.998Y-139.17
X100.35Y-101.66
X100.35Y-109.28
X102.537Y-115.77
X102.537Y-139.17
X104.75Y-87.72
X104.75Y-95.34
X105.0Y-101.63
X105.0Y-109.25
X105.078Y-115.77
X105.078Y-139.17
X105.52Y-71.25
X105.52Y-75.0
X105.52Y-82.62
X107.29Y-87.72
X107.29Y-95.34
X107.617Y-115.77
X107.617Y-139.17
X109.03Y-101.55
X109.03Y-109.17
X109.83Y-87.72
X109.83Y-95.34
X110.157Y-115.77
X110.157Y-139.17
X110.57Y-75.535
X110.57Y-78.075
X112.697Y-115.77
X112.697Y-139.17
X113.99Y-106.65
X113.99Y-109.15
X114.095Y-100.57
X115.237Y-115.77
X115.237Y-139.17
X115.68Y-71.25
X116.05Y-75.6
X116.13Y-82.67
X116.635Y-100.57
X117.777Y-115.77
X117.777Y-139.17
X119.92Y-88.86
X119.92Y-96.48
X120.317Y-115.77
X120.317Y-139.17
X121.87Y-52.13
X121.97Y-147.665
X121.97Y-164.665
X122.74Y-102.32
X122.74Y-104.86
X122.74Y-107.4
X122.74Y-109.94
X122.857Y-115.77
X122.857Y-139.17
X123.65Y-58.88
X123.65Y-66.5
X123.67Y-75.6
X123.75Y-82.67
X126.19Y-58.88
X126.19Y-66.5
X126.46Y-89.49
X126.46Y-97.11
X127.88Y-126.22
X127.976Y-132.46
X127.98Y-120.4
X128.02Y-114.68
X128.73Y-58.88
X128.73Y-66.5
X129.49Y-52.13
X129.76Y-89.48
X129.76Y-97.1
X130.476Y-132.46
X134.6Y-100.75
X134.6Y-108.37
X135.5Y-126.22
X135.6Y-120.4
X135.64Y-114.68
X137.14Y-100.75
X137.14Y-108.37
X139.68Y-100.75
X139.68Y-108.37
X142.22Y-100.75
X142.22Y-108.37
T2
X68.67Y-52.01
X68.67Y-64.21
X69.374Y-87.96
X69.374Y-93.04
X69.374Y-98.12
X69.374Y-103.2
X69.374Y-108.28
X69.415Y-159.584
X69.415Y-164.664
X69.68Y-41.594
X74.67Y-66.21
X74.76Y-41.594
X79.84Y-41.594
X80.67Y-52.01
X80.67Y-64.21
X86.19Y-51.97
X86.19Y-64.17
X86.875Y-41.584
X91.955Y-41.584
X92.19Y-66.17
X97.035Y-41.584
X98.19Y-51.97
X98.19Y-64.17
X104.725Y-52.056
X104.725Y-64.256
X105.7Y-41.55
X110.725Y-66.256
X110.78Y-41.55
X115.86Y-41.55
X116.725Y-52.056
X116.725Y-64.256
X122.28Y-41.539
X127.36Y-41.539
X142.156Y-67.96
X142.156Y-73.04
X142.156Y-78.12
X142.156Y-83.2
X142.156Y-88.28
X142.156Y-93.36
T0
M30
