%TF.GenerationSoftware,KiCad,Pcbnew,7.0.2*%
%TF.CreationDate,2023-08-09T10:06:03-03:00*%
%TF.ProjectId,PCB_Incendio,5043425f-496e-4636-956e-64696f2e6b69,rev?*%
%TF.SameCoordinates,Original*%
%TF.FileFunction,Legend,Top*%
%TF.FilePolarity,Positive*%
%FSLAX46Y46*%
G04 Gerber Fmt 4.6, Leading zero omitted, Abs format (unit mm)*
G04 Created by KiCad (PCBNEW 7.0.2) date 2023-08-09 10:06:03*
%MOMM*%
%LPD*%
G01*
G04 APERTURE LIST*
%ADD10C,0.200000*%
%ADD11C,0.100000*%
%ADD12C,0.150000*%
%ADD13C,0.254000*%
%ADD14C,0.120000*%
G04 APERTURE END LIST*
D10*
X225860476Y-80940000D02*
X226003333Y-80987619D01*
X226003333Y-80987619D02*
X226241428Y-80987619D01*
X226241428Y-80987619D02*
X226336666Y-80940000D01*
X226336666Y-80940000D02*
X226384285Y-80892380D01*
X226384285Y-80892380D02*
X226431904Y-80797142D01*
X226431904Y-80797142D02*
X226431904Y-80701904D01*
X226431904Y-80701904D02*
X226384285Y-80606666D01*
X226384285Y-80606666D02*
X226336666Y-80559047D01*
X226336666Y-80559047D02*
X226241428Y-80511428D01*
X226241428Y-80511428D02*
X226050952Y-80463809D01*
X226050952Y-80463809D02*
X225955714Y-80416190D01*
X225955714Y-80416190D02*
X225908095Y-80368571D01*
X225908095Y-80368571D02*
X225860476Y-80273333D01*
X225860476Y-80273333D02*
X225860476Y-80178095D01*
X225860476Y-80178095D02*
X225908095Y-80082857D01*
X225908095Y-80082857D02*
X225955714Y-80035238D01*
X225955714Y-80035238D02*
X226050952Y-79987619D01*
X226050952Y-79987619D02*
X226289047Y-79987619D01*
X226289047Y-79987619D02*
X226431904Y-80035238D01*
X227050952Y-79987619D02*
X227241428Y-79987619D01*
X227241428Y-79987619D02*
X227336666Y-80035238D01*
X227336666Y-80035238D02*
X227431904Y-80130476D01*
X227431904Y-80130476D02*
X227479523Y-80320952D01*
X227479523Y-80320952D02*
X227479523Y-80654285D01*
X227479523Y-80654285D02*
X227431904Y-80844761D01*
X227431904Y-80844761D02*
X227336666Y-80940000D01*
X227336666Y-80940000D02*
X227241428Y-80987619D01*
X227241428Y-80987619D02*
X227050952Y-80987619D01*
X227050952Y-80987619D02*
X226955714Y-80940000D01*
X226955714Y-80940000D02*
X226860476Y-80844761D01*
X226860476Y-80844761D02*
X226812857Y-80654285D01*
X226812857Y-80654285D02*
X226812857Y-80320952D01*
X226812857Y-80320952D02*
X226860476Y-80130476D01*
X226860476Y-80130476D02*
X226955714Y-80035238D01*
X226955714Y-80035238D02*
X227050952Y-79987619D01*
X227908095Y-79987619D02*
X227908095Y-80797142D01*
X227908095Y-80797142D02*
X227955714Y-80892380D01*
X227955714Y-80892380D02*
X228003333Y-80940000D01*
X228003333Y-80940000D02*
X228098571Y-80987619D01*
X228098571Y-80987619D02*
X228289047Y-80987619D01*
X228289047Y-80987619D02*
X228384285Y-80940000D01*
X228384285Y-80940000D02*
X228431904Y-80892380D01*
X228431904Y-80892380D02*
X228479523Y-80797142D01*
X228479523Y-80797142D02*
X228479523Y-79987619D01*
X229527142Y-80987619D02*
X229193809Y-80511428D01*
X228955714Y-80987619D02*
X228955714Y-79987619D01*
X228955714Y-79987619D02*
X229336666Y-79987619D01*
X229336666Y-79987619D02*
X229431904Y-80035238D01*
X229431904Y-80035238D02*
X229479523Y-80082857D01*
X229479523Y-80082857D02*
X229527142Y-80178095D01*
X229527142Y-80178095D02*
X229527142Y-80320952D01*
X229527142Y-80320952D02*
X229479523Y-80416190D01*
X229479523Y-80416190D02*
X229431904Y-80463809D01*
X229431904Y-80463809D02*
X229336666Y-80511428D01*
X229336666Y-80511428D02*
X228955714Y-80511428D01*
X230527142Y-80892380D02*
X230479523Y-80940000D01*
X230479523Y-80940000D02*
X230336666Y-80987619D01*
X230336666Y-80987619D02*
X230241428Y-80987619D01*
X230241428Y-80987619D02*
X230098571Y-80940000D01*
X230098571Y-80940000D02*
X230003333Y-80844761D01*
X230003333Y-80844761D02*
X229955714Y-80749523D01*
X229955714Y-80749523D02*
X229908095Y-80559047D01*
X229908095Y-80559047D02*
X229908095Y-80416190D01*
X229908095Y-80416190D02*
X229955714Y-80225714D01*
X229955714Y-80225714D02*
X230003333Y-80130476D01*
X230003333Y-80130476D02*
X230098571Y-80035238D01*
X230098571Y-80035238D02*
X230241428Y-79987619D01*
X230241428Y-79987619D02*
X230336666Y-79987619D01*
X230336666Y-79987619D02*
X230479523Y-80035238D01*
X230479523Y-80035238D02*
X230527142Y-80082857D01*
X230955714Y-80463809D02*
X231289047Y-80463809D01*
X231431904Y-80987619D02*
X230955714Y-80987619D01*
X230955714Y-80987619D02*
X230955714Y-79987619D01*
X230955714Y-79987619D02*
X231431904Y-79987619D01*
X149168095Y-92397619D02*
X149168095Y-91397619D01*
X149168095Y-91397619D02*
X149739523Y-92397619D01*
X149739523Y-92397619D02*
X149739523Y-91397619D01*
X150406190Y-91397619D02*
X150596666Y-91397619D01*
X150596666Y-91397619D02*
X150691904Y-91445238D01*
X150691904Y-91445238D02*
X150787142Y-91540476D01*
X150787142Y-91540476D02*
X150834761Y-91730952D01*
X150834761Y-91730952D02*
X150834761Y-92064285D01*
X150834761Y-92064285D02*
X150787142Y-92254761D01*
X150787142Y-92254761D02*
X150691904Y-92350000D01*
X150691904Y-92350000D02*
X150596666Y-92397619D01*
X150596666Y-92397619D02*
X150406190Y-92397619D01*
X150406190Y-92397619D02*
X150310952Y-92350000D01*
X150310952Y-92350000D02*
X150215714Y-92254761D01*
X150215714Y-92254761D02*
X150168095Y-92064285D01*
X150168095Y-92064285D02*
X150168095Y-91730952D01*
X150168095Y-91730952D02*
X150215714Y-91540476D01*
X150215714Y-91540476D02*
X150310952Y-91445238D01*
X150310952Y-91445238D02*
X150406190Y-91397619D01*
X154120476Y-92302380D02*
X154072857Y-92350000D01*
X154072857Y-92350000D02*
X153930000Y-92397619D01*
X153930000Y-92397619D02*
X153834762Y-92397619D01*
X153834762Y-92397619D02*
X153691905Y-92350000D01*
X153691905Y-92350000D02*
X153596667Y-92254761D01*
X153596667Y-92254761D02*
X153549048Y-92159523D01*
X153549048Y-92159523D02*
X153501429Y-91969047D01*
X153501429Y-91969047D02*
X153501429Y-91826190D01*
X153501429Y-91826190D02*
X153549048Y-91635714D01*
X153549048Y-91635714D02*
X153596667Y-91540476D01*
X153596667Y-91540476D02*
X153691905Y-91445238D01*
X153691905Y-91445238D02*
X153834762Y-91397619D01*
X153834762Y-91397619D02*
X153930000Y-91397619D01*
X153930000Y-91397619D02*
X154072857Y-91445238D01*
X154072857Y-91445238D02*
X154120476Y-91492857D01*
X154739524Y-91397619D02*
X154930000Y-91397619D01*
X154930000Y-91397619D02*
X155025238Y-91445238D01*
X155025238Y-91445238D02*
X155120476Y-91540476D01*
X155120476Y-91540476D02*
X155168095Y-91730952D01*
X155168095Y-91730952D02*
X155168095Y-92064285D01*
X155168095Y-92064285D02*
X155120476Y-92254761D01*
X155120476Y-92254761D02*
X155025238Y-92350000D01*
X155025238Y-92350000D02*
X154930000Y-92397619D01*
X154930000Y-92397619D02*
X154739524Y-92397619D01*
X154739524Y-92397619D02*
X154644286Y-92350000D01*
X154644286Y-92350000D02*
X154549048Y-92254761D01*
X154549048Y-92254761D02*
X154501429Y-92064285D01*
X154501429Y-92064285D02*
X154501429Y-91730952D01*
X154501429Y-91730952D02*
X154549048Y-91540476D01*
X154549048Y-91540476D02*
X154644286Y-91445238D01*
X154644286Y-91445238D02*
X154739524Y-91397619D01*
X155596667Y-92397619D02*
X155596667Y-91397619D01*
X155596667Y-91397619D02*
X155930000Y-92111904D01*
X155930000Y-92111904D02*
X156263333Y-91397619D01*
X156263333Y-91397619D02*
X156263333Y-92397619D01*
X159025239Y-92397619D02*
X159025239Y-91397619D01*
X159025239Y-91397619D02*
X159596667Y-92397619D01*
X159596667Y-92397619D02*
X159596667Y-91397619D01*
X160644286Y-92302380D02*
X160596667Y-92350000D01*
X160596667Y-92350000D02*
X160453810Y-92397619D01*
X160453810Y-92397619D02*
X160358572Y-92397619D01*
X160358572Y-92397619D02*
X160215715Y-92350000D01*
X160215715Y-92350000D02*
X160120477Y-92254761D01*
X160120477Y-92254761D02*
X160072858Y-92159523D01*
X160072858Y-92159523D02*
X160025239Y-91969047D01*
X160025239Y-91969047D02*
X160025239Y-91826190D01*
X160025239Y-91826190D02*
X160072858Y-91635714D01*
X160072858Y-91635714D02*
X160120477Y-91540476D01*
X160120477Y-91540476D02*
X160215715Y-91445238D01*
X160215715Y-91445238D02*
X160358572Y-91397619D01*
X160358572Y-91397619D02*
X160453810Y-91397619D01*
X160453810Y-91397619D02*
X160596667Y-91445238D01*
X160596667Y-91445238D02*
X160644286Y-91492857D01*
X206518095Y-92016666D02*
X207280000Y-92016666D01*
X206899047Y-92397619D02*
X206899047Y-91635714D01*
X208279999Y-92397619D02*
X207708571Y-92397619D01*
X207994285Y-92397619D02*
X207994285Y-91397619D01*
X207994285Y-91397619D02*
X207899047Y-91540476D01*
X207899047Y-91540476D02*
X207803809Y-91635714D01*
X207803809Y-91635714D02*
X207708571Y-91683333D01*
X208660952Y-91492857D02*
X208708571Y-91445238D01*
X208708571Y-91445238D02*
X208803809Y-91397619D01*
X208803809Y-91397619D02*
X209041904Y-91397619D01*
X209041904Y-91397619D02*
X209137142Y-91445238D01*
X209137142Y-91445238D02*
X209184761Y-91492857D01*
X209184761Y-91492857D02*
X209232380Y-91588095D01*
X209232380Y-91588095D02*
X209232380Y-91683333D01*
X209232380Y-91683333D02*
X209184761Y-91826190D01*
X209184761Y-91826190D02*
X208613333Y-92397619D01*
X208613333Y-92397619D02*
X209232380Y-92397619D01*
X209518095Y-91397619D02*
X209851428Y-92397619D01*
X209851428Y-92397619D02*
X210184761Y-91397619D01*
X212994286Y-91397619D02*
X213184762Y-91397619D01*
X213184762Y-91397619D02*
X213280000Y-91445238D01*
X213280000Y-91445238D02*
X213375238Y-91540476D01*
X213375238Y-91540476D02*
X213422857Y-91730952D01*
X213422857Y-91730952D02*
X213422857Y-92064285D01*
X213422857Y-92064285D02*
X213375238Y-92254761D01*
X213375238Y-92254761D02*
X213280000Y-92350000D01*
X213280000Y-92350000D02*
X213184762Y-92397619D01*
X213184762Y-92397619D02*
X212994286Y-92397619D01*
X212994286Y-92397619D02*
X212899048Y-92350000D01*
X212899048Y-92350000D02*
X212803810Y-92254761D01*
X212803810Y-92254761D02*
X212756191Y-92064285D01*
X212756191Y-92064285D02*
X212756191Y-91730952D01*
X212756191Y-91730952D02*
X212803810Y-91540476D01*
X212803810Y-91540476D02*
X212899048Y-91445238D01*
X212899048Y-91445238D02*
X212994286Y-91397619D01*
X213851429Y-91397619D02*
X213851429Y-92207142D01*
X213851429Y-92207142D02*
X213899048Y-92302380D01*
X213899048Y-92302380D02*
X213946667Y-92350000D01*
X213946667Y-92350000D02*
X214041905Y-92397619D01*
X214041905Y-92397619D02*
X214232381Y-92397619D01*
X214232381Y-92397619D02*
X214327619Y-92350000D01*
X214327619Y-92350000D02*
X214375238Y-92302380D01*
X214375238Y-92302380D02*
X214422857Y-92207142D01*
X214422857Y-92207142D02*
X214422857Y-91397619D01*
X214756191Y-91397619D02*
X215327619Y-91397619D01*
X215041905Y-92397619D02*
X215041905Y-91397619D01*
X218470477Y-91445238D02*
X218375239Y-91397619D01*
X218375239Y-91397619D02*
X218232382Y-91397619D01*
X218232382Y-91397619D02*
X218089525Y-91445238D01*
X218089525Y-91445238D02*
X217994287Y-91540476D01*
X217994287Y-91540476D02*
X217946668Y-91635714D01*
X217946668Y-91635714D02*
X217899049Y-91826190D01*
X217899049Y-91826190D02*
X217899049Y-91969047D01*
X217899049Y-91969047D02*
X217946668Y-92159523D01*
X217946668Y-92159523D02*
X217994287Y-92254761D01*
X217994287Y-92254761D02*
X218089525Y-92350000D01*
X218089525Y-92350000D02*
X218232382Y-92397619D01*
X218232382Y-92397619D02*
X218327620Y-92397619D01*
X218327620Y-92397619D02*
X218470477Y-92350000D01*
X218470477Y-92350000D02*
X218518096Y-92302380D01*
X218518096Y-92302380D02*
X218518096Y-91969047D01*
X218518096Y-91969047D02*
X218327620Y-91969047D01*
X218946668Y-92397619D02*
X218946668Y-91397619D01*
X218946668Y-91397619D02*
X219518096Y-92397619D01*
X219518096Y-92397619D02*
X219518096Y-91397619D01*
X219994287Y-92397619D02*
X219994287Y-91397619D01*
X219994287Y-91397619D02*
X220232382Y-91397619D01*
X220232382Y-91397619D02*
X220375239Y-91445238D01*
X220375239Y-91445238D02*
X220470477Y-91540476D01*
X220470477Y-91540476D02*
X220518096Y-91635714D01*
X220518096Y-91635714D02*
X220565715Y-91826190D01*
X220565715Y-91826190D02*
X220565715Y-91969047D01*
X220565715Y-91969047D02*
X220518096Y-92159523D01*
X220518096Y-92159523D02*
X220470477Y-92254761D01*
X220470477Y-92254761D02*
X220375239Y-92350000D01*
X220375239Y-92350000D02*
X220232382Y-92397619D01*
X220232382Y-92397619D02*
X219994287Y-92397619D01*
X166108095Y-92397619D02*
X166108095Y-91397619D01*
X166108095Y-91397619D02*
X166679523Y-92397619D01*
X166679523Y-92397619D02*
X166679523Y-91397619D01*
X167346190Y-91397619D02*
X167536666Y-91397619D01*
X167536666Y-91397619D02*
X167631904Y-91445238D01*
X167631904Y-91445238D02*
X167727142Y-91540476D01*
X167727142Y-91540476D02*
X167774761Y-91730952D01*
X167774761Y-91730952D02*
X167774761Y-92064285D01*
X167774761Y-92064285D02*
X167727142Y-92254761D01*
X167727142Y-92254761D02*
X167631904Y-92350000D01*
X167631904Y-92350000D02*
X167536666Y-92397619D01*
X167536666Y-92397619D02*
X167346190Y-92397619D01*
X167346190Y-92397619D02*
X167250952Y-92350000D01*
X167250952Y-92350000D02*
X167155714Y-92254761D01*
X167155714Y-92254761D02*
X167108095Y-92064285D01*
X167108095Y-92064285D02*
X167108095Y-91730952D01*
X167108095Y-91730952D02*
X167155714Y-91540476D01*
X167155714Y-91540476D02*
X167250952Y-91445238D01*
X167250952Y-91445238D02*
X167346190Y-91397619D01*
X171060476Y-92302380D02*
X171012857Y-92350000D01*
X171012857Y-92350000D02*
X170870000Y-92397619D01*
X170870000Y-92397619D02*
X170774762Y-92397619D01*
X170774762Y-92397619D02*
X170631905Y-92350000D01*
X170631905Y-92350000D02*
X170536667Y-92254761D01*
X170536667Y-92254761D02*
X170489048Y-92159523D01*
X170489048Y-92159523D02*
X170441429Y-91969047D01*
X170441429Y-91969047D02*
X170441429Y-91826190D01*
X170441429Y-91826190D02*
X170489048Y-91635714D01*
X170489048Y-91635714D02*
X170536667Y-91540476D01*
X170536667Y-91540476D02*
X170631905Y-91445238D01*
X170631905Y-91445238D02*
X170774762Y-91397619D01*
X170774762Y-91397619D02*
X170870000Y-91397619D01*
X170870000Y-91397619D02*
X171012857Y-91445238D01*
X171012857Y-91445238D02*
X171060476Y-91492857D01*
X171679524Y-91397619D02*
X171870000Y-91397619D01*
X171870000Y-91397619D02*
X171965238Y-91445238D01*
X171965238Y-91445238D02*
X172060476Y-91540476D01*
X172060476Y-91540476D02*
X172108095Y-91730952D01*
X172108095Y-91730952D02*
X172108095Y-92064285D01*
X172108095Y-92064285D02*
X172060476Y-92254761D01*
X172060476Y-92254761D02*
X171965238Y-92350000D01*
X171965238Y-92350000D02*
X171870000Y-92397619D01*
X171870000Y-92397619D02*
X171679524Y-92397619D01*
X171679524Y-92397619D02*
X171584286Y-92350000D01*
X171584286Y-92350000D02*
X171489048Y-92254761D01*
X171489048Y-92254761D02*
X171441429Y-92064285D01*
X171441429Y-92064285D02*
X171441429Y-91730952D01*
X171441429Y-91730952D02*
X171489048Y-91540476D01*
X171489048Y-91540476D02*
X171584286Y-91445238D01*
X171584286Y-91445238D02*
X171679524Y-91397619D01*
X172536667Y-92397619D02*
X172536667Y-91397619D01*
X172536667Y-91397619D02*
X172870000Y-92111904D01*
X172870000Y-92111904D02*
X173203333Y-91397619D01*
X173203333Y-91397619D02*
X173203333Y-92397619D01*
X175965239Y-92397619D02*
X175965239Y-91397619D01*
X175965239Y-91397619D02*
X176536667Y-92397619D01*
X176536667Y-92397619D02*
X176536667Y-91397619D01*
X177584286Y-92302380D02*
X177536667Y-92350000D01*
X177536667Y-92350000D02*
X177393810Y-92397619D01*
X177393810Y-92397619D02*
X177298572Y-92397619D01*
X177298572Y-92397619D02*
X177155715Y-92350000D01*
X177155715Y-92350000D02*
X177060477Y-92254761D01*
X177060477Y-92254761D02*
X177012858Y-92159523D01*
X177012858Y-92159523D02*
X176965239Y-91969047D01*
X176965239Y-91969047D02*
X176965239Y-91826190D01*
X176965239Y-91826190D02*
X177012858Y-91635714D01*
X177012858Y-91635714D02*
X177060477Y-91540476D01*
X177060477Y-91540476D02*
X177155715Y-91445238D01*
X177155715Y-91445238D02*
X177298572Y-91397619D01*
X177298572Y-91397619D02*
X177393810Y-91397619D01*
X177393810Y-91397619D02*
X177536667Y-91445238D01*
X177536667Y-91445238D02*
X177584286Y-91492857D01*
X224751904Y-91445238D02*
X224656666Y-91397619D01*
X224656666Y-91397619D02*
X224513809Y-91397619D01*
X224513809Y-91397619D02*
X224370952Y-91445238D01*
X224370952Y-91445238D02*
X224275714Y-91540476D01*
X224275714Y-91540476D02*
X224228095Y-91635714D01*
X224228095Y-91635714D02*
X224180476Y-91826190D01*
X224180476Y-91826190D02*
X224180476Y-91969047D01*
X224180476Y-91969047D02*
X224228095Y-92159523D01*
X224228095Y-92159523D02*
X224275714Y-92254761D01*
X224275714Y-92254761D02*
X224370952Y-92350000D01*
X224370952Y-92350000D02*
X224513809Y-92397619D01*
X224513809Y-92397619D02*
X224609047Y-92397619D01*
X224609047Y-92397619D02*
X224751904Y-92350000D01*
X224751904Y-92350000D02*
X224799523Y-92302380D01*
X224799523Y-92302380D02*
X224799523Y-91969047D01*
X224799523Y-91969047D02*
X224609047Y-91969047D01*
X225228095Y-92397619D02*
X225228095Y-91397619D01*
X225228095Y-91397619D02*
X225799523Y-92397619D01*
X225799523Y-92397619D02*
X225799523Y-91397619D01*
X226275714Y-92397619D02*
X226275714Y-91397619D01*
X226275714Y-91397619D02*
X226513809Y-91397619D01*
X226513809Y-91397619D02*
X226656666Y-91445238D01*
X226656666Y-91445238D02*
X226751904Y-91540476D01*
X226751904Y-91540476D02*
X226799523Y-91635714D01*
X226799523Y-91635714D02*
X226847142Y-91826190D01*
X226847142Y-91826190D02*
X226847142Y-91969047D01*
X226847142Y-91969047D02*
X226799523Y-92159523D01*
X226799523Y-92159523D02*
X226751904Y-92254761D01*
X226751904Y-92254761D02*
X226656666Y-92350000D01*
X226656666Y-92350000D02*
X226513809Y-92397619D01*
X226513809Y-92397619D02*
X226275714Y-92397619D01*
X228799524Y-92016666D02*
X229561429Y-92016666D01*
X229180476Y-92397619D02*
X229180476Y-91635714D01*
X230561428Y-92397619D02*
X229990000Y-92397619D01*
X230275714Y-92397619D02*
X230275714Y-91397619D01*
X230275714Y-91397619D02*
X230180476Y-91540476D01*
X230180476Y-91540476D02*
X230085238Y-91635714D01*
X230085238Y-91635714D02*
X229990000Y-91683333D01*
X230942381Y-91492857D02*
X230990000Y-91445238D01*
X230990000Y-91445238D02*
X231085238Y-91397619D01*
X231085238Y-91397619D02*
X231323333Y-91397619D01*
X231323333Y-91397619D02*
X231418571Y-91445238D01*
X231418571Y-91445238D02*
X231466190Y-91492857D01*
X231466190Y-91492857D02*
X231513809Y-91588095D01*
X231513809Y-91588095D02*
X231513809Y-91683333D01*
X231513809Y-91683333D02*
X231466190Y-91826190D01*
X231466190Y-91826190D02*
X230894762Y-92397619D01*
X230894762Y-92397619D02*
X231513809Y-92397619D01*
X231799524Y-91397619D02*
X232132857Y-92397619D01*
X232132857Y-92397619D02*
X232466190Y-91397619D01*
X182698095Y-92397619D02*
X182698095Y-91397619D01*
X182698095Y-91397619D02*
X183079047Y-91397619D01*
X183079047Y-91397619D02*
X183174285Y-91445238D01*
X183174285Y-91445238D02*
X183221904Y-91492857D01*
X183221904Y-91492857D02*
X183269523Y-91588095D01*
X183269523Y-91588095D02*
X183269523Y-91730952D01*
X183269523Y-91730952D02*
X183221904Y-91826190D01*
X183221904Y-91826190D02*
X183174285Y-91873809D01*
X183174285Y-91873809D02*
X183079047Y-91921428D01*
X183079047Y-91921428D02*
X182698095Y-91921428D01*
X184174285Y-92397619D02*
X183698095Y-92397619D01*
X183698095Y-92397619D02*
X183698095Y-91397619D01*
X185031428Y-92397619D02*
X184460000Y-92397619D01*
X184745714Y-92397619D02*
X184745714Y-91397619D01*
X184745714Y-91397619D02*
X184650476Y-91540476D01*
X184650476Y-91540476D02*
X184555238Y-91635714D01*
X184555238Y-91635714D02*
X184460000Y-91683333D01*
X187745715Y-92397619D02*
X187745715Y-91397619D01*
X187745715Y-91397619D02*
X188126667Y-91397619D01*
X188126667Y-91397619D02*
X188221905Y-91445238D01*
X188221905Y-91445238D02*
X188269524Y-91492857D01*
X188269524Y-91492857D02*
X188317143Y-91588095D01*
X188317143Y-91588095D02*
X188317143Y-91730952D01*
X188317143Y-91730952D02*
X188269524Y-91826190D01*
X188269524Y-91826190D02*
X188221905Y-91873809D01*
X188221905Y-91873809D02*
X188126667Y-91921428D01*
X188126667Y-91921428D02*
X187745715Y-91921428D01*
X189221905Y-92397619D02*
X188745715Y-92397619D01*
X188745715Y-92397619D02*
X188745715Y-91397619D01*
X189507620Y-91492857D02*
X189555239Y-91445238D01*
X189555239Y-91445238D02*
X189650477Y-91397619D01*
X189650477Y-91397619D02*
X189888572Y-91397619D01*
X189888572Y-91397619D02*
X189983810Y-91445238D01*
X189983810Y-91445238D02*
X190031429Y-91492857D01*
X190031429Y-91492857D02*
X190079048Y-91588095D01*
X190079048Y-91588095D02*
X190079048Y-91683333D01*
X190079048Y-91683333D02*
X190031429Y-91826190D01*
X190031429Y-91826190D02*
X189460001Y-92397619D01*
X189460001Y-92397619D02*
X190079048Y-92397619D01*
X196230476Y-80711904D02*
X196706666Y-80711904D01*
X196135238Y-80997619D02*
X196468571Y-79997619D01*
X196468571Y-79997619D02*
X196801904Y-80997619D01*
X197611428Y-80997619D02*
X197135238Y-80997619D01*
X197135238Y-80997619D02*
X197135238Y-79997619D01*
X197897143Y-80711904D02*
X198373333Y-80711904D01*
X197801905Y-80997619D02*
X198135238Y-79997619D01*
X198135238Y-79997619D02*
X198468571Y-80997619D01*
X199373333Y-80997619D02*
X199040000Y-80521428D01*
X198801905Y-80997619D02*
X198801905Y-79997619D01*
X198801905Y-79997619D02*
X199182857Y-79997619D01*
X199182857Y-79997619D02*
X199278095Y-80045238D01*
X199278095Y-80045238D02*
X199325714Y-80092857D01*
X199325714Y-80092857D02*
X199373333Y-80188095D01*
X199373333Y-80188095D02*
X199373333Y-80330952D01*
X199373333Y-80330952D02*
X199325714Y-80426190D01*
X199325714Y-80426190D02*
X199278095Y-80473809D01*
X199278095Y-80473809D02*
X199182857Y-80521428D01*
X199182857Y-80521428D02*
X198801905Y-80521428D01*
X199801905Y-80997619D02*
X199801905Y-79997619D01*
X199801905Y-79997619D02*
X200135238Y-80711904D01*
X200135238Y-80711904D02*
X200468571Y-79997619D01*
X200468571Y-79997619D02*
X200468571Y-80997619D01*
X208681428Y-80563809D02*
X208348095Y-80563809D01*
X208348095Y-81087619D02*
X208348095Y-80087619D01*
X208348095Y-80087619D02*
X208824285Y-80087619D01*
X209205238Y-81087619D02*
X209205238Y-80087619D01*
X210252856Y-81087619D02*
X209919523Y-80611428D01*
X209681428Y-81087619D02*
X209681428Y-80087619D01*
X209681428Y-80087619D02*
X210062380Y-80087619D01*
X210062380Y-80087619D02*
X210157618Y-80135238D01*
X210157618Y-80135238D02*
X210205237Y-80182857D01*
X210205237Y-80182857D02*
X210252856Y-80278095D01*
X210252856Y-80278095D02*
X210252856Y-80420952D01*
X210252856Y-80420952D02*
X210205237Y-80516190D01*
X210205237Y-80516190D02*
X210157618Y-80563809D01*
X210157618Y-80563809D02*
X210062380Y-80611428D01*
X210062380Y-80611428D02*
X209681428Y-80611428D01*
X210681428Y-80563809D02*
X211014761Y-80563809D01*
X211157618Y-81087619D02*
X210681428Y-81087619D01*
X210681428Y-81087619D02*
X210681428Y-80087619D01*
X210681428Y-80087619D02*
X211157618Y-80087619D01*
X212348095Y-81087619D02*
X212348095Y-80087619D01*
X212348095Y-80087619D02*
X212586190Y-80087619D01*
X212586190Y-80087619D02*
X212729047Y-80135238D01*
X212729047Y-80135238D02*
X212824285Y-80230476D01*
X212824285Y-80230476D02*
X212871904Y-80325714D01*
X212871904Y-80325714D02*
X212919523Y-80516190D01*
X212919523Y-80516190D02*
X212919523Y-80659047D01*
X212919523Y-80659047D02*
X212871904Y-80849523D01*
X212871904Y-80849523D02*
X212824285Y-80944761D01*
X212824285Y-80944761D02*
X212729047Y-81040000D01*
X212729047Y-81040000D02*
X212586190Y-81087619D01*
X212586190Y-81087619D02*
X212348095Y-81087619D01*
X213348095Y-80563809D02*
X213681428Y-80563809D01*
X213824285Y-81087619D02*
X213348095Y-81087619D01*
X213348095Y-81087619D02*
X213348095Y-80087619D01*
X213348095Y-80087619D02*
X213824285Y-80087619D01*
X214110000Y-80087619D02*
X214681428Y-80087619D01*
X214395714Y-81087619D02*
X214395714Y-80087619D01*
X215014762Y-80563809D02*
X215348095Y-80563809D01*
X215490952Y-81087619D02*
X215014762Y-81087619D01*
X215014762Y-81087619D02*
X215014762Y-80087619D01*
X215014762Y-80087619D02*
X215490952Y-80087619D01*
X216490952Y-80992380D02*
X216443333Y-81040000D01*
X216443333Y-81040000D02*
X216300476Y-81087619D01*
X216300476Y-81087619D02*
X216205238Y-81087619D01*
X216205238Y-81087619D02*
X216062381Y-81040000D01*
X216062381Y-81040000D02*
X215967143Y-80944761D01*
X215967143Y-80944761D02*
X215919524Y-80849523D01*
X215919524Y-80849523D02*
X215871905Y-80659047D01*
X215871905Y-80659047D02*
X215871905Y-80516190D01*
X215871905Y-80516190D02*
X215919524Y-80325714D01*
X215919524Y-80325714D02*
X215967143Y-80230476D01*
X215967143Y-80230476D02*
X216062381Y-80135238D01*
X216062381Y-80135238D02*
X216205238Y-80087619D01*
X216205238Y-80087619D02*
X216300476Y-80087619D01*
X216300476Y-80087619D02*
X216443333Y-80135238D01*
X216443333Y-80135238D02*
X216490952Y-80182857D01*
X216776667Y-80087619D02*
X217348095Y-80087619D01*
X217062381Y-81087619D02*
X217062381Y-80087619D01*
X217871905Y-80087619D02*
X218062381Y-80087619D01*
X218062381Y-80087619D02*
X218157619Y-80135238D01*
X218157619Y-80135238D02*
X218252857Y-80230476D01*
X218252857Y-80230476D02*
X218300476Y-80420952D01*
X218300476Y-80420952D02*
X218300476Y-80754285D01*
X218300476Y-80754285D02*
X218252857Y-80944761D01*
X218252857Y-80944761D02*
X218157619Y-81040000D01*
X218157619Y-81040000D02*
X218062381Y-81087619D01*
X218062381Y-81087619D02*
X217871905Y-81087619D01*
X217871905Y-81087619D02*
X217776667Y-81040000D01*
X217776667Y-81040000D02*
X217681429Y-80944761D01*
X217681429Y-80944761D02*
X217633810Y-80754285D01*
X217633810Y-80754285D02*
X217633810Y-80420952D01*
X217633810Y-80420952D02*
X217681429Y-80230476D01*
X217681429Y-80230476D02*
X217776667Y-80135238D01*
X217776667Y-80135238D02*
X217871905Y-80087619D01*
X219300476Y-81087619D02*
X218967143Y-80611428D01*
X218729048Y-81087619D02*
X218729048Y-80087619D01*
X218729048Y-80087619D02*
X219110000Y-80087619D01*
X219110000Y-80087619D02*
X219205238Y-80135238D01*
X219205238Y-80135238D02*
X219252857Y-80182857D01*
X219252857Y-80182857D02*
X219300476Y-80278095D01*
X219300476Y-80278095D02*
X219300476Y-80420952D01*
X219300476Y-80420952D02*
X219252857Y-80516190D01*
X219252857Y-80516190D02*
X219205238Y-80563809D01*
X219205238Y-80563809D02*
X219110000Y-80611428D01*
X219110000Y-80611428D02*
X218729048Y-80611428D01*
X183659523Y-80902380D02*
X183611904Y-80950000D01*
X183611904Y-80950000D02*
X183469047Y-80997619D01*
X183469047Y-80997619D02*
X183373809Y-80997619D01*
X183373809Y-80997619D02*
X183230952Y-80950000D01*
X183230952Y-80950000D02*
X183135714Y-80854761D01*
X183135714Y-80854761D02*
X183088095Y-80759523D01*
X183088095Y-80759523D02*
X183040476Y-80569047D01*
X183040476Y-80569047D02*
X183040476Y-80426190D01*
X183040476Y-80426190D02*
X183088095Y-80235714D01*
X183088095Y-80235714D02*
X183135714Y-80140476D01*
X183135714Y-80140476D02*
X183230952Y-80045238D01*
X183230952Y-80045238D02*
X183373809Y-79997619D01*
X183373809Y-79997619D02*
X183469047Y-79997619D01*
X183469047Y-79997619D02*
X183611904Y-80045238D01*
X183611904Y-80045238D02*
X183659523Y-80092857D01*
X184278571Y-79997619D02*
X184469047Y-79997619D01*
X184469047Y-79997619D02*
X184564285Y-80045238D01*
X184564285Y-80045238D02*
X184659523Y-80140476D01*
X184659523Y-80140476D02*
X184707142Y-80330952D01*
X184707142Y-80330952D02*
X184707142Y-80664285D01*
X184707142Y-80664285D02*
X184659523Y-80854761D01*
X184659523Y-80854761D02*
X184564285Y-80950000D01*
X184564285Y-80950000D02*
X184469047Y-80997619D01*
X184469047Y-80997619D02*
X184278571Y-80997619D01*
X184278571Y-80997619D02*
X184183333Y-80950000D01*
X184183333Y-80950000D02*
X184088095Y-80854761D01*
X184088095Y-80854761D02*
X184040476Y-80664285D01*
X184040476Y-80664285D02*
X184040476Y-80330952D01*
X184040476Y-80330952D02*
X184088095Y-80140476D01*
X184088095Y-80140476D02*
X184183333Y-80045238D01*
X184183333Y-80045238D02*
X184278571Y-79997619D01*
X185135714Y-80997619D02*
X185135714Y-79997619D01*
X185135714Y-79997619D02*
X185707142Y-80997619D01*
X185707142Y-80997619D02*
X185707142Y-79997619D01*
X186040476Y-79997619D02*
X186611904Y-79997619D01*
X186326190Y-80997619D02*
X186326190Y-79997619D01*
X187516666Y-80997619D02*
X187183333Y-80521428D01*
X186945238Y-80997619D02*
X186945238Y-79997619D01*
X186945238Y-79997619D02*
X187326190Y-79997619D01*
X187326190Y-79997619D02*
X187421428Y-80045238D01*
X187421428Y-80045238D02*
X187469047Y-80092857D01*
X187469047Y-80092857D02*
X187516666Y-80188095D01*
X187516666Y-80188095D02*
X187516666Y-80330952D01*
X187516666Y-80330952D02*
X187469047Y-80426190D01*
X187469047Y-80426190D02*
X187421428Y-80473809D01*
X187421428Y-80473809D02*
X187326190Y-80521428D01*
X187326190Y-80521428D02*
X186945238Y-80521428D01*
X188135714Y-79997619D02*
X188326190Y-79997619D01*
X188326190Y-79997619D02*
X188421428Y-80045238D01*
X188421428Y-80045238D02*
X188516666Y-80140476D01*
X188516666Y-80140476D02*
X188564285Y-80330952D01*
X188564285Y-80330952D02*
X188564285Y-80664285D01*
X188564285Y-80664285D02*
X188516666Y-80854761D01*
X188516666Y-80854761D02*
X188421428Y-80950000D01*
X188421428Y-80950000D02*
X188326190Y-80997619D01*
X188326190Y-80997619D02*
X188135714Y-80997619D01*
X188135714Y-80997619D02*
X188040476Y-80950000D01*
X188040476Y-80950000D02*
X187945238Y-80854761D01*
X187945238Y-80854761D02*
X187897619Y-80664285D01*
X187897619Y-80664285D02*
X187897619Y-80330952D01*
X187897619Y-80330952D02*
X187945238Y-80140476D01*
X187945238Y-80140476D02*
X188040476Y-80045238D01*
X188040476Y-80045238D02*
X188135714Y-79997619D01*
X189469047Y-80997619D02*
X188992857Y-80997619D01*
X188992857Y-80997619D02*
X188992857Y-79997619D01*
X167700476Y-81000000D02*
X167843333Y-81047619D01*
X167843333Y-81047619D02*
X168081428Y-81047619D01*
X168081428Y-81047619D02*
X168176666Y-81000000D01*
X168176666Y-81000000D02*
X168224285Y-80952380D01*
X168224285Y-80952380D02*
X168271904Y-80857142D01*
X168271904Y-80857142D02*
X168271904Y-80761904D01*
X168271904Y-80761904D02*
X168224285Y-80666666D01*
X168224285Y-80666666D02*
X168176666Y-80619047D01*
X168176666Y-80619047D02*
X168081428Y-80571428D01*
X168081428Y-80571428D02*
X167890952Y-80523809D01*
X167890952Y-80523809D02*
X167795714Y-80476190D01*
X167795714Y-80476190D02*
X167748095Y-80428571D01*
X167748095Y-80428571D02*
X167700476Y-80333333D01*
X167700476Y-80333333D02*
X167700476Y-80238095D01*
X167700476Y-80238095D02*
X167748095Y-80142857D01*
X167748095Y-80142857D02*
X167795714Y-80095238D01*
X167795714Y-80095238D02*
X167890952Y-80047619D01*
X167890952Y-80047619D02*
X168129047Y-80047619D01*
X168129047Y-80047619D02*
X168271904Y-80095238D01*
X168557619Y-80047619D02*
X169129047Y-80047619D01*
X168843333Y-81047619D02*
X168843333Y-80047619D01*
X169414762Y-80761904D02*
X169890952Y-80761904D01*
X169319524Y-81047619D02*
X169652857Y-80047619D01*
X169652857Y-80047619D02*
X169986190Y-81047619D01*
X170176667Y-80047619D02*
X170748095Y-80047619D01*
X170462381Y-81047619D02*
X170462381Y-80047619D01*
X171081429Y-81047619D02*
X171081429Y-80047619D01*
X171748095Y-80047619D02*
X171938571Y-80047619D01*
X171938571Y-80047619D02*
X172033809Y-80095238D01*
X172033809Y-80095238D02*
X172129047Y-80190476D01*
X172129047Y-80190476D02*
X172176666Y-80380952D01*
X172176666Y-80380952D02*
X172176666Y-80714285D01*
X172176666Y-80714285D02*
X172129047Y-80904761D01*
X172129047Y-80904761D02*
X172033809Y-81000000D01*
X172033809Y-81000000D02*
X171938571Y-81047619D01*
X171938571Y-81047619D02*
X171748095Y-81047619D01*
X171748095Y-81047619D02*
X171652857Y-81000000D01*
X171652857Y-81000000D02*
X171557619Y-80904761D01*
X171557619Y-80904761D02*
X171510000Y-80714285D01*
X171510000Y-80714285D02*
X171510000Y-80380952D01*
X171510000Y-80380952D02*
X171557619Y-80190476D01*
X171557619Y-80190476D02*
X171652857Y-80095238D01*
X171652857Y-80095238D02*
X171748095Y-80047619D01*
X172605238Y-81047619D02*
X172605238Y-80047619D01*
X172605238Y-80047619D02*
X173176666Y-81047619D01*
X173176666Y-81047619D02*
X173176666Y-80047619D01*
X174414762Y-81047619D02*
X174414762Y-80047619D01*
X174414762Y-80047619D02*
X174795714Y-80047619D01*
X174795714Y-80047619D02*
X174890952Y-80095238D01*
X174890952Y-80095238D02*
X174938571Y-80142857D01*
X174938571Y-80142857D02*
X174986190Y-80238095D01*
X174986190Y-80238095D02*
X174986190Y-80380952D01*
X174986190Y-80380952D02*
X174938571Y-80476190D01*
X174938571Y-80476190D02*
X174890952Y-80523809D01*
X174890952Y-80523809D02*
X174795714Y-80571428D01*
X174795714Y-80571428D02*
X174414762Y-80571428D01*
X175890952Y-81047619D02*
X175414762Y-81047619D01*
X175414762Y-81047619D02*
X175414762Y-80047619D01*
X176748095Y-81047619D02*
X176176667Y-81047619D01*
X176462381Y-81047619D02*
X176462381Y-80047619D01*
X176462381Y-80047619D02*
X176367143Y-80190476D01*
X176367143Y-80190476D02*
X176271905Y-80285714D01*
X176271905Y-80285714D02*
X176176667Y-80333333D01*
X150280476Y-80970000D02*
X150423333Y-81017619D01*
X150423333Y-81017619D02*
X150661428Y-81017619D01*
X150661428Y-81017619D02*
X150756666Y-80970000D01*
X150756666Y-80970000D02*
X150804285Y-80922380D01*
X150804285Y-80922380D02*
X150851904Y-80827142D01*
X150851904Y-80827142D02*
X150851904Y-80731904D01*
X150851904Y-80731904D02*
X150804285Y-80636666D01*
X150804285Y-80636666D02*
X150756666Y-80589047D01*
X150756666Y-80589047D02*
X150661428Y-80541428D01*
X150661428Y-80541428D02*
X150470952Y-80493809D01*
X150470952Y-80493809D02*
X150375714Y-80446190D01*
X150375714Y-80446190D02*
X150328095Y-80398571D01*
X150328095Y-80398571D02*
X150280476Y-80303333D01*
X150280476Y-80303333D02*
X150280476Y-80208095D01*
X150280476Y-80208095D02*
X150328095Y-80112857D01*
X150328095Y-80112857D02*
X150375714Y-80065238D01*
X150375714Y-80065238D02*
X150470952Y-80017619D01*
X150470952Y-80017619D02*
X150709047Y-80017619D01*
X150709047Y-80017619D02*
X150851904Y-80065238D01*
X151137619Y-80017619D02*
X151709047Y-80017619D01*
X151423333Y-81017619D02*
X151423333Y-80017619D01*
X151994762Y-80731904D02*
X152470952Y-80731904D01*
X151899524Y-81017619D02*
X152232857Y-80017619D01*
X152232857Y-80017619D02*
X152566190Y-81017619D01*
X152756667Y-80017619D02*
X153328095Y-80017619D01*
X153042381Y-81017619D02*
X153042381Y-80017619D01*
X153661429Y-81017619D02*
X153661429Y-80017619D01*
X154328095Y-80017619D02*
X154518571Y-80017619D01*
X154518571Y-80017619D02*
X154613809Y-80065238D01*
X154613809Y-80065238D02*
X154709047Y-80160476D01*
X154709047Y-80160476D02*
X154756666Y-80350952D01*
X154756666Y-80350952D02*
X154756666Y-80684285D01*
X154756666Y-80684285D02*
X154709047Y-80874761D01*
X154709047Y-80874761D02*
X154613809Y-80970000D01*
X154613809Y-80970000D02*
X154518571Y-81017619D01*
X154518571Y-81017619D02*
X154328095Y-81017619D01*
X154328095Y-81017619D02*
X154232857Y-80970000D01*
X154232857Y-80970000D02*
X154137619Y-80874761D01*
X154137619Y-80874761D02*
X154090000Y-80684285D01*
X154090000Y-80684285D02*
X154090000Y-80350952D01*
X154090000Y-80350952D02*
X154137619Y-80160476D01*
X154137619Y-80160476D02*
X154232857Y-80065238D01*
X154232857Y-80065238D02*
X154328095Y-80017619D01*
X155185238Y-81017619D02*
X155185238Y-80017619D01*
X155185238Y-80017619D02*
X155756666Y-81017619D01*
X155756666Y-81017619D02*
X155756666Y-80017619D01*
X156994762Y-81017619D02*
X156994762Y-80017619D01*
X156994762Y-80017619D02*
X157375714Y-80017619D01*
X157375714Y-80017619D02*
X157470952Y-80065238D01*
X157470952Y-80065238D02*
X157518571Y-80112857D01*
X157518571Y-80112857D02*
X157566190Y-80208095D01*
X157566190Y-80208095D02*
X157566190Y-80350952D01*
X157566190Y-80350952D02*
X157518571Y-80446190D01*
X157518571Y-80446190D02*
X157470952Y-80493809D01*
X157470952Y-80493809D02*
X157375714Y-80541428D01*
X157375714Y-80541428D02*
X156994762Y-80541428D01*
X158470952Y-81017619D02*
X157994762Y-81017619D01*
X157994762Y-81017619D02*
X157994762Y-80017619D01*
X158756667Y-80112857D02*
X158804286Y-80065238D01*
X158804286Y-80065238D02*
X158899524Y-80017619D01*
X158899524Y-80017619D02*
X159137619Y-80017619D01*
X159137619Y-80017619D02*
X159232857Y-80065238D01*
X159232857Y-80065238D02*
X159280476Y-80112857D01*
X159280476Y-80112857D02*
X159328095Y-80208095D01*
X159328095Y-80208095D02*
X159328095Y-80303333D01*
X159328095Y-80303333D02*
X159280476Y-80446190D01*
X159280476Y-80446190D02*
X158709048Y-81017619D01*
X158709048Y-81017619D02*
X159328095Y-81017619D01*
X199328095Y-59957619D02*
X199328095Y-58957619D01*
X199899523Y-59957619D02*
X199470952Y-59386190D01*
X199899523Y-58957619D02*
X199328095Y-59529047D01*
X200280476Y-59052857D02*
X200328095Y-59005238D01*
X200328095Y-59005238D02*
X200423333Y-58957619D01*
X200423333Y-58957619D02*
X200661428Y-58957619D01*
X200661428Y-58957619D02*
X200756666Y-59005238D01*
X200756666Y-59005238D02*
X200804285Y-59052857D01*
X200804285Y-59052857D02*
X200851904Y-59148095D01*
X200851904Y-59148095D02*
X200851904Y-59243333D01*
X200851904Y-59243333D02*
X200804285Y-59386190D01*
X200804285Y-59386190D02*
X200232857Y-59957619D01*
X200232857Y-59957619D02*
X200851904Y-59957619D01*
X202232857Y-58957619D02*
X202423333Y-58957619D01*
X202423333Y-58957619D02*
X202518571Y-59005238D01*
X202518571Y-59005238D02*
X202613809Y-59100476D01*
X202613809Y-59100476D02*
X202661428Y-59290952D01*
X202661428Y-59290952D02*
X202661428Y-59624285D01*
X202661428Y-59624285D02*
X202613809Y-59814761D01*
X202613809Y-59814761D02*
X202518571Y-59910000D01*
X202518571Y-59910000D02*
X202423333Y-59957619D01*
X202423333Y-59957619D02*
X202232857Y-59957619D01*
X202232857Y-59957619D02*
X202137619Y-59910000D01*
X202137619Y-59910000D02*
X202042381Y-59814761D01*
X202042381Y-59814761D02*
X201994762Y-59624285D01*
X201994762Y-59624285D02*
X201994762Y-59290952D01*
X201994762Y-59290952D02*
X202042381Y-59100476D01*
X202042381Y-59100476D02*
X202137619Y-59005238D01*
X202137619Y-59005238D02*
X202232857Y-58957619D01*
X203090000Y-59957619D02*
X203090000Y-58957619D01*
X203090000Y-58957619D02*
X203661428Y-59957619D01*
X203661428Y-59957619D02*
X203661428Y-58957619D01*
X172278095Y-60087619D02*
X172278095Y-59087619D01*
X172849523Y-60087619D02*
X172420952Y-59516190D01*
X172849523Y-59087619D02*
X172278095Y-59659047D01*
X173182857Y-59087619D02*
X173801904Y-59087619D01*
X173801904Y-59087619D02*
X173468571Y-59468571D01*
X173468571Y-59468571D02*
X173611428Y-59468571D01*
X173611428Y-59468571D02*
X173706666Y-59516190D01*
X173706666Y-59516190D02*
X173754285Y-59563809D01*
X173754285Y-59563809D02*
X173801904Y-59659047D01*
X173801904Y-59659047D02*
X173801904Y-59897142D01*
X173801904Y-59897142D02*
X173754285Y-59992380D01*
X173754285Y-59992380D02*
X173706666Y-60040000D01*
X173706666Y-60040000D02*
X173611428Y-60087619D01*
X173611428Y-60087619D02*
X173325714Y-60087619D01*
X173325714Y-60087619D02*
X173230476Y-60040000D01*
X173230476Y-60040000D02*
X173182857Y-59992380D01*
X175182857Y-59087619D02*
X175373333Y-59087619D01*
X175373333Y-59087619D02*
X175468571Y-59135238D01*
X175468571Y-59135238D02*
X175563809Y-59230476D01*
X175563809Y-59230476D02*
X175611428Y-59420952D01*
X175611428Y-59420952D02*
X175611428Y-59754285D01*
X175611428Y-59754285D02*
X175563809Y-59944761D01*
X175563809Y-59944761D02*
X175468571Y-60040000D01*
X175468571Y-60040000D02*
X175373333Y-60087619D01*
X175373333Y-60087619D02*
X175182857Y-60087619D01*
X175182857Y-60087619D02*
X175087619Y-60040000D01*
X175087619Y-60040000D02*
X174992381Y-59944761D01*
X174992381Y-59944761D02*
X174944762Y-59754285D01*
X174944762Y-59754285D02*
X174944762Y-59420952D01*
X174944762Y-59420952D02*
X174992381Y-59230476D01*
X174992381Y-59230476D02*
X175087619Y-59135238D01*
X175087619Y-59135238D02*
X175182857Y-59087619D01*
X176040000Y-60087619D02*
X176040000Y-59087619D01*
X176040000Y-59087619D02*
X176611428Y-60087619D01*
X176611428Y-60087619D02*
X176611428Y-59087619D01*
X195211904Y-91445238D02*
X195116666Y-91397619D01*
X195116666Y-91397619D02*
X194973809Y-91397619D01*
X194973809Y-91397619D02*
X194830952Y-91445238D01*
X194830952Y-91445238D02*
X194735714Y-91540476D01*
X194735714Y-91540476D02*
X194688095Y-91635714D01*
X194688095Y-91635714D02*
X194640476Y-91826190D01*
X194640476Y-91826190D02*
X194640476Y-91969047D01*
X194640476Y-91969047D02*
X194688095Y-92159523D01*
X194688095Y-92159523D02*
X194735714Y-92254761D01*
X194735714Y-92254761D02*
X194830952Y-92350000D01*
X194830952Y-92350000D02*
X194973809Y-92397619D01*
X194973809Y-92397619D02*
X195069047Y-92397619D01*
X195069047Y-92397619D02*
X195211904Y-92350000D01*
X195211904Y-92350000D02*
X195259523Y-92302380D01*
X195259523Y-92302380D02*
X195259523Y-91969047D01*
X195259523Y-91969047D02*
X195069047Y-91969047D01*
X195688095Y-92397619D02*
X195688095Y-91397619D01*
X195688095Y-91397619D02*
X196259523Y-92397619D01*
X196259523Y-92397619D02*
X196259523Y-91397619D01*
X196735714Y-92397619D02*
X196735714Y-91397619D01*
X196735714Y-91397619D02*
X196973809Y-91397619D01*
X196973809Y-91397619D02*
X197116666Y-91445238D01*
X197116666Y-91445238D02*
X197211904Y-91540476D01*
X197211904Y-91540476D02*
X197259523Y-91635714D01*
X197259523Y-91635714D02*
X197307142Y-91826190D01*
X197307142Y-91826190D02*
X197307142Y-91969047D01*
X197307142Y-91969047D02*
X197259523Y-92159523D01*
X197259523Y-92159523D02*
X197211904Y-92254761D01*
X197211904Y-92254761D02*
X197116666Y-92350000D01*
X197116666Y-92350000D02*
X196973809Y-92397619D01*
X196973809Y-92397619D02*
X196735714Y-92397619D01*
X199259524Y-92016666D02*
X200021429Y-92016666D01*
X199640476Y-92397619D02*
X199640476Y-91635714D01*
X201021428Y-92397619D02*
X200450000Y-92397619D01*
X200735714Y-92397619D02*
X200735714Y-91397619D01*
X200735714Y-91397619D02*
X200640476Y-91540476D01*
X200640476Y-91540476D02*
X200545238Y-91635714D01*
X200545238Y-91635714D02*
X200450000Y-91683333D01*
X201402381Y-91492857D02*
X201450000Y-91445238D01*
X201450000Y-91445238D02*
X201545238Y-91397619D01*
X201545238Y-91397619D02*
X201783333Y-91397619D01*
X201783333Y-91397619D02*
X201878571Y-91445238D01*
X201878571Y-91445238D02*
X201926190Y-91492857D01*
X201926190Y-91492857D02*
X201973809Y-91588095D01*
X201973809Y-91588095D02*
X201973809Y-91683333D01*
X201973809Y-91683333D02*
X201926190Y-91826190D01*
X201926190Y-91826190D02*
X201354762Y-92397619D01*
X201354762Y-92397619D02*
X201973809Y-92397619D01*
X202259524Y-91397619D02*
X202592857Y-92397619D01*
X202592857Y-92397619D02*
X202926190Y-91397619D01*
D11*
%TO.C,J5*%
X212458095Y-90097619D02*
X212458095Y-89097619D01*
X212934285Y-90097619D02*
X212934285Y-89097619D01*
X212934285Y-89097619D02*
X213505713Y-90097619D01*
X213505713Y-90097619D02*
X213505713Y-89097619D01*
X213981904Y-90097619D02*
X213981904Y-89097619D01*
X213981904Y-89097619D02*
X214362856Y-89097619D01*
X214362856Y-89097619D02*
X214458094Y-89145238D01*
X214458094Y-89145238D02*
X214505713Y-89192857D01*
X214505713Y-89192857D02*
X214553332Y-89288095D01*
X214553332Y-89288095D02*
X214553332Y-89430952D01*
X214553332Y-89430952D02*
X214505713Y-89526190D01*
X214505713Y-89526190D02*
X214458094Y-89573809D01*
X214458094Y-89573809D02*
X214362856Y-89621428D01*
X214362856Y-89621428D02*
X213981904Y-89621428D01*
X214981904Y-89097619D02*
X214981904Y-89907142D01*
X214981904Y-89907142D02*
X215029523Y-90002380D01*
X215029523Y-90002380D02*
X215077142Y-90050000D01*
X215077142Y-90050000D02*
X215172380Y-90097619D01*
X215172380Y-90097619D02*
X215362856Y-90097619D01*
X215362856Y-90097619D02*
X215458094Y-90050000D01*
X215458094Y-90050000D02*
X215505713Y-90002380D01*
X215505713Y-90002380D02*
X215553332Y-89907142D01*
X215553332Y-89907142D02*
X215553332Y-89097619D01*
X215886666Y-89097619D02*
X216458094Y-89097619D01*
X216172380Y-90097619D02*
X216172380Y-89097619D01*
D12*
%TO.C,Q1*%
X199102261Y-74607857D02*
X199007023Y-74560238D01*
X199007023Y-74560238D02*
X198911785Y-74465000D01*
X198911785Y-74465000D02*
X198768928Y-74322142D01*
X198768928Y-74322142D02*
X198673690Y-74274523D01*
X198673690Y-74274523D02*
X198578452Y-74274523D01*
X198626071Y-74512619D02*
X198530833Y-74465000D01*
X198530833Y-74465000D02*
X198435595Y-74369761D01*
X198435595Y-74369761D02*
X198387976Y-74179285D01*
X198387976Y-74179285D02*
X198387976Y-73845952D01*
X198387976Y-73845952D02*
X198435595Y-73655476D01*
X198435595Y-73655476D02*
X198530833Y-73560238D01*
X198530833Y-73560238D02*
X198626071Y-73512619D01*
X198626071Y-73512619D02*
X198816547Y-73512619D01*
X198816547Y-73512619D02*
X198911785Y-73560238D01*
X198911785Y-73560238D02*
X199007023Y-73655476D01*
X199007023Y-73655476D02*
X199054642Y-73845952D01*
X199054642Y-73845952D02*
X199054642Y-74179285D01*
X199054642Y-74179285D02*
X199007023Y-74369761D01*
X199007023Y-74369761D02*
X198911785Y-74465000D01*
X198911785Y-74465000D02*
X198816547Y-74512619D01*
X198816547Y-74512619D02*
X198626071Y-74512619D01*
X200007023Y-74512619D02*
X199435595Y-74512619D01*
X199721309Y-74512619D02*
X199721309Y-73512619D01*
X199721309Y-73512619D02*
X199626071Y-73655476D01*
X199626071Y-73655476D02*
X199530833Y-73750714D01*
X199530833Y-73750714D02*
X199435595Y-73798333D01*
%TO.C,Q2*%
X173354761Y-75747857D02*
X173259523Y-75700238D01*
X173259523Y-75700238D02*
X173164285Y-75605000D01*
X173164285Y-75605000D02*
X173021428Y-75462142D01*
X173021428Y-75462142D02*
X172926190Y-75414523D01*
X172926190Y-75414523D02*
X172830952Y-75414523D01*
X172878571Y-75652619D02*
X172783333Y-75605000D01*
X172783333Y-75605000D02*
X172688095Y-75509761D01*
X172688095Y-75509761D02*
X172640476Y-75319285D01*
X172640476Y-75319285D02*
X172640476Y-74985952D01*
X172640476Y-74985952D02*
X172688095Y-74795476D01*
X172688095Y-74795476D02*
X172783333Y-74700238D01*
X172783333Y-74700238D02*
X172878571Y-74652619D01*
X172878571Y-74652619D02*
X173069047Y-74652619D01*
X173069047Y-74652619D02*
X173164285Y-74700238D01*
X173164285Y-74700238D02*
X173259523Y-74795476D01*
X173259523Y-74795476D02*
X173307142Y-74985952D01*
X173307142Y-74985952D02*
X173307142Y-75319285D01*
X173307142Y-75319285D02*
X173259523Y-75509761D01*
X173259523Y-75509761D02*
X173164285Y-75605000D01*
X173164285Y-75605000D02*
X173069047Y-75652619D01*
X173069047Y-75652619D02*
X172878571Y-75652619D01*
X173688095Y-74747857D02*
X173735714Y-74700238D01*
X173735714Y-74700238D02*
X173830952Y-74652619D01*
X173830952Y-74652619D02*
X174069047Y-74652619D01*
X174069047Y-74652619D02*
X174164285Y-74700238D01*
X174164285Y-74700238D02*
X174211904Y-74747857D01*
X174211904Y-74747857D02*
X174259523Y-74843095D01*
X174259523Y-74843095D02*
X174259523Y-74938333D01*
X174259523Y-74938333D02*
X174211904Y-75081190D01*
X174211904Y-75081190D02*
X173640476Y-75652619D01*
X173640476Y-75652619D02*
X174259523Y-75652619D01*
D13*
%TO.C,D2*%
X175702618Y-65417526D02*
X175702618Y-64147526D01*
X175702618Y-64147526D02*
X176004999Y-64147526D01*
X176004999Y-64147526D02*
X176186428Y-64208002D01*
X176186428Y-64208002D02*
X176307380Y-64328954D01*
X176307380Y-64328954D02*
X176367857Y-64449907D01*
X176367857Y-64449907D02*
X176428333Y-64691811D01*
X176428333Y-64691811D02*
X176428333Y-64873240D01*
X176428333Y-64873240D02*
X176367857Y-65115145D01*
X176367857Y-65115145D02*
X176307380Y-65236097D01*
X176307380Y-65236097D02*
X176186428Y-65357050D01*
X176186428Y-65357050D02*
X176004999Y-65417526D01*
X176004999Y-65417526D02*
X175702618Y-65417526D01*
X176912142Y-64268478D02*
X176972618Y-64208002D01*
X176972618Y-64208002D02*
X177093571Y-64147526D01*
X177093571Y-64147526D02*
X177395952Y-64147526D01*
X177395952Y-64147526D02*
X177516904Y-64208002D01*
X177516904Y-64208002D02*
X177577380Y-64268478D01*
X177577380Y-64268478D02*
X177637857Y-64389430D01*
X177637857Y-64389430D02*
X177637857Y-64510383D01*
X177637857Y-64510383D02*
X177577380Y-64691811D01*
X177577380Y-64691811D02*
X176851666Y-65417526D01*
X176851666Y-65417526D02*
X177637857Y-65417526D01*
D11*
X177685019Y-68595104D02*
X176685019Y-68595104D01*
X177685019Y-68023676D02*
X177113590Y-68452247D01*
X176685019Y-68023676D02*
X177256447Y-68595104D01*
%TO.C,J3*%
X169988095Y-90067619D02*
X169988095Y-89067619D01*
X170464285Y-90067619D02*
X170464285Y-89067619D01*
X170464285Y-89067619D02*
X171035713Y-90067619D01*
X171035713Y-90067619D02*
X171035713Y-89067619D01*
X171511904Y-90067619D02*
X171511904Y-89067619D01*
X171511904Y-89067619D02*
X171892856Y-89067619D01*
X171892856Y-89067619D02*
X171988094Y-89115238D01*
X171988094Y-89115238D02*
X172035713Y-89162857D01*
X172035713Y-89162857D02*
X172083332Y-89258095D01*
X172083332Y-89258095D02*
X172083332Y-89400952D01*
X172083332Y-89400952D02*
X172035713Y-89496190D01*
X172035713Y-89496190D02*
X171988094Y-89543809D01*
X171988094Y-89543809D02*
X171892856Y-89591428D01*
X171892856Y-89591428D02*
X171511904Y-89591428D01*
X172511904Y-89067619D02*
X172511904Y-89877142D01*
X172511904Y-89877142D02*
X172559523Y-89972380D01*
X172559523Y-89972380D02*
X172607142Y-90020000D01*
X172607142Y-90020000D02*
X172702380Y-90067619D01*
X172702380Y-90067619D02*
X172892856Y-90067619D01*
X172892856Y-90067619D02*
X172988094Y-90020000D01*
X172988094Y-90020000D02*
X173035713Y-89972380D01*
X173035713Y-89972380D02*
X173083332Y-89877142D01*
X173083332Y-89877142D02*
X173083332Y-89067619D01*
X173416666Y-89067619D02*
X173988094Y-89067619D01*
X173702380Y-90067619D02*
X173702380Y-89067619D01*
%TO.C,J1*%
X226588095Y-89987619D02*
X226588095Y-88987619D01*
X227064285Y-89987619D02*
X227064285Y-88987619D01*
X227064285Y-88987619D02*
X227635713Y-89987619D01*
X227635713Y-89987619D02*
X227635713Y-88987619D01*
X228111904Y-89987619D02*
X228111904Y-88987619D01*
X228111904Y-88987619D02*
X228492856Y-88987619D01*
X228492856Y-88987619D02*
X228588094Y-89035238D01*
X228588094Y-89035238D02*
X228635713Y-89082857D01*
X228635713Y-89082857D02*
X228683332Y-89178095D01*
X228683332Y-89178095D02*
X228683332Y-89320952D01*
X228683332Y-89320952D02*
X228635713Y-89416190D01*
X228635713Y-89416190D02*
X228588094Y-89463809D01*
X228588094Y-89463809D02*
X228492856Y-89511428D01*
X228492856Y-89511428D02*
X228111904Y-89511428D01*
X229111904Y-88987619D02*
X229111904Y-89797142D01*
X229111904Y-89797142D02*
X229159523Y-89892380D01*
X229159523Y-89892380D02*
X229207142Y-89940000D01*
X229207142Y-89940000D02*
X229302380Y-89987619D01*
X229302380Y-89987619D02*
X229492856Y-89987619D01*
X229492856Y-89987619D02*
X229588094Y-89940000D01*
X229588094Y-89940000D02*
X229635713Y-89892380D01*
X229635713Y-89892380D02*
X229683332Y-89797142D01*
X229683332Y-89797142D02*
X229683332Y-88987619D01*
X230016666Y-88987619D02*
X230588094Y-88987619D01*
X230302380Y-89987619D02*
X230302380Y-88987619D01*
%TO.C,J6*%
X184698095Y-89927619D02*
X184698095Y-88927619D01*
X185174285Y-89927619D02*
X185174285Y-88927619D01*
X185174285Y-88927619D02*
X185745713Y-89927619D01*
X185745713Y-89927619D02*
X185745713Y-88927619D01*
X186221904Y-89927619D02*
X186221904Y-88927619D01*
X186221904Y-88927619D02*
X186602856Y-88927619D01*
X186602856Y-88927619D02*
X186698094Y-88975238D01*
X186698094Y-88975238D02*
X186745713Y-89022857D01*
X186745713Y-89022857D02*
X186793332Y-89118095D01*
X186793332Y-89118095D02*
X186793332Y-89260952D01*
X186793332Y-89260952D02*
X186745713Y-89356190D01*
X186745713Y-89356190D02*
X186698094Y-89403809D01*
X186698094Y-89403809D02*
X186602856Y-89451428D01*
X186602856Y-89451428D02*
X186221904Y-89451428D01*
X187221904Y-88927619D02*
X187221904Y-89737142D01*
X187221904Y-89737142D02*
X187269523Y-89832380D01*
X187269523Y-89832380D02*
X187317142Y-89880000D01*
X187317142Y-89880000D02*
X187412380Y-89927619D01*
X187412380Y-89927619D02*
X187602856Y-89927619D01*
X187602856Y-89927619D02*
X187698094Y-89880000D01*
X187698094Y-89880000D02*
X187745713Y-89832380D01*
X187745713Y-89832380D02*
X187793332Y-89737142D01*
X187793332Y-89737142D02*
X187793332Y-88927619D01*
X188126666Y-88927619D02*
X188698094Y-88927619D01*
X188412380Y-89927619D02*
X188412380Y-88927619D01*
D12*
%TO.C,R4*%
X177663333Y-77012619D02*
X177330000Y-76536428D01*
X177091905Y-77012619D02*
X177091905Y-76012619D01*
X177091905Y-76012619D02*
X177472857Y-76012619D01*
X177472857Y-76012619D02*
X177568095Y-76060238D01*
X177568095Y-76060238D02*
X177615714Y-76107857D01*
X177615714Y-76107857D02*
X177663333Y-76203095D01*
X177663333Y-76203095D02*
X177663333Y-76345952D01*
X177663333Y-76345952D02*
X177615714Y-76441190D01*
X177615714Y-76441190D02*
X177568095Y-76488809D01*
X177568095Y-76488809D02*
X177472857Y-76536428D01*
X177472857Y-76536428D02*
X177091905Y-76536428D01*
X178520476Y-76345952D02*
X178520476Y-77012619D01*
X178282381Y-75965000D02*
X178044286Y-76679285D01*
X178044286Y-76679285D02*
X178663333Y-76679285D01*
D13*
%TO.C,D1*%
X202782618Y-64907526D02*
X202782618Y-63637526D01*
X202782618Y-63637526D02*
X203084999Y-63637526D01*
X203084999Y-63637526D02*
X203266428Y-63698002D01*
X203266428Y-63698002D02*
X203387380Y-63818954D01*
X203387380Y-63818954D02*
X203447857Y-63939907D01*
X203447857Y-63939907D02*
X203508333Y-64181811D01*
X203508333Y-64181811D02*
X203508333Y-64363240D01*
X203508333Y-64363240D02*
X203447857Y-64605145D01*
X203447857Y-64605145D02*
X203387380Y-64726097D01*
X203387380Y-64726097D02*
X203266428Y-64847050D01*
X203266428Y-64847050D02*
X203084999Y-64907526D01*
X203084999Y-64907526D02*
X202782618Y-64907526D01*
X204717857Y-64907526D02*
X203992142Y-64907526D01*
X204354999Y-64907526D02*
X204354999Y-63637526D01*
X204354999Y-63637526D02*
X204234047Y-63818954D01*
X204234047Y-63818954D02*
X204113095Y-63939907D01*
X204113095Y-63939907D02*
X203992142Y-64000383D01*
D11*
X204865019Y-67915104D02*
X203865019Y-67915104D01*
X204865019Y-67343676D02*
X204293590Y-67772247D01*
X203865019Y-67343676D02*
X204436447Y-67915104D01*
D12*
%TO.C,R3*%
X174223333Y-70432619D02*
X173890000Y-69956428D01*
X173651905Y-70432619D02*
X173651905Y-69432619D01*
X173651905Y-69432619D02*
X174032857Y-69432619D01*
X174032857Y-69432619D02*
X174128095Y-69480238D01*
X174128095Y-69480238D02*
X174175714Y-69527857D01*
X174175714Y-69527857D02*
X174223333Y-69623095D01*
X174223333Y-69623095D02*
X174223333Y-69765952D01*
X174223333Y-69765952D02*
X174175714Y-69861190D01*
X174175714Y-69861190D02*
X174128095Y-69908809D01*
X174128095Y-69908809D02*
X174032857Y-69956428D01*
X174032857Y-69956428D02*
X173651905Y-69956428D01*
X174556667Y-69432619D02*
X175175714Y-69432619D01*
X175175714Y-69432619D02*
X174842381Y-69813571D01*
X174842381Y-69813571D02*
X174985238Y-69813571D01*
X174985238Y-69813571D02*
X175080476Y-69861190D01*
X175080476Y-69861190D02*
X175128095Y-69908809D01*
X175128095Y-69908809D02*
X175175714Y-70004047D01*
X175175714Y-70004047D02*
X175175714Y-70242142D01*
X175175714Y-70242142D02*
X175128095Y-70337380D01*
X175128095Y-70337380D02*
X175080476Y-70385000D01*
X175080476Y-70385000D02*
X174985238Y-70432619D01*
X174985238Y-70432619D02*
X174699524Y-70432619D01*
X174699524Y-70432619D02*
X174604286Y-70385000D01*
X174604286Y-70385000D02*
X174556667Y-70337380D01*
%TO.C,R1*%
X204723333Y-77322619D02*
X204390000Y-76846428D01*
X204151905Y-77322619D02*
X204151905Y-76322619D01*
X204151905Y-76322619D02*
X204532857Y-76322619D01*
X204532857Y-76322619D02*
X204628095Y-76370238D01*
X204628095Y-76370238D02*
X204675714Y-76417857D01*
X204675714Y-76417857D02*
X204723333Y-76513095D01*
X204723333Y-76513095D02*
X204723333Y-76655952D01*
X204723333Y-76655952D02*
X204675714Y-76751190D01*
X204675714Y-76751190D02*
X204628095Y-76798809D01*
X204628095Y-76798809D02*
X204532857Y-76846428D01*
X204532857Y-76846428D02*
X204151905Y-76846428D01*
X205675714Y-77322619D02*
X205104286Y-77322619D01*
X205390000Y-77322619D02*
X205390000Y-76322619D01*
X205390000Y-76322619D02*
X205294762Y-76465476D01*
X205294762Y-76465476D02*
X205199524Y-76560714D01*
X205199524Y-76560714D02*
X205104286Y-76608333D01*
D11*
%TO.C,J2*%
X197248095Y-90017619D02*
X197248095Y-89017619D01*
X197724285Y-90017619D02*
X197724285Y-89017619D01*
X197724285Y-89017619D02*
X198295713Y-90017619D01*
X198295713Y-90017619D02*
X198295713Y-89017619D01*
X198771904Y-90017619D02*
X198771904Y-89017619D01*
X198771904Y-89017619D02*
X199152856Y-89017619D01*
X199152856Y-89017619D02*
X199248094Y-89065238D01*
X199248094Y-89065238D02*
X199295713Y-89112857D01*
X199295713Y-89112857D02*
X199343332Y-89208095D01*
X199343332Y-89208095D02*
X199343332Y-89350952D01*
X199343332Y-89350952D02*
X199295713Y-89446190D01*
X199295713Y-89446190D02*
X199248094Y-89493809D01*
X199248094Y-89493809D02*
X199152856Y-89541428D01*
X199152856Y-89541428D02*
X198771904Y-89541428D01*
X199771904Y-89017619D02*
X199771904Y-89827142D01*
X199771904Y-89827142D02*
X199819523Y-89922380D01*
X199819523Y-89922380D02*
X199867142Y-89970000D01*
X199867142Y-89970000D02*
X199962380Y-90017619D01*
X199962380Y-90017619D02*
X200152856Y-90017619D01*
X200152856Y-90017619D02*
X200248094Y-89970000D01*
X200248094Y-89970000D02*
X200295713Y-89922380D01*
X200295713Y-89922380D02*
X200343332Y-89827142D01*
X200343332Y-89827142D02*
X200343332Y-89017619D01*
X200676666Y-89017619D02*
X201248094Y-89017619D01*
X200962380Y-90017619D02*
X200962380Y-89017619D01*
D12*
%TO.C,R2*%
X201403333Y-69852619D02*
X201070000Y-69376428D01*
X200831905Y-69852619D02*
X200831905Y-68852619D01*
X200831905Y-68852619D02*
X201212857Y-68852619D01*
X201212857Y-68852619D02*
X201308095Y-68900238D01*
X201308095Y-68900238D02*
X201355714Y-68947857D01*
X201355714Y-68947857D02*
X201403333Y-69043095D01*
X201403333Y-69043095D02*
X201403333Y-69185952D01*
X201403333Y-69185952D02*
X201355714Y-69281190D01*
X201355714Y-69281190D02*
X201308095Y-69328809D01*
X201308095Y-69328809D02*
X201212857Y-69376428D01*
X201212857Y-69376428D02*
X200831905Y-69376428D01*
X201784286Y-68947857D02*
X201831905Y-68900238D01*
X201831905Y-68900238D02*
X201927143Y-68852619D01*
X201927143Y-68852619D02*
X202165238Y-68852619D01*
X202165238Y-68852619D02*
X202260476Y-68900238D01*
X202260476Y-68900238D02*
X202308095Y-68947857D01*
X202308095Y-68947857D02*
X202355714Y-69043095D01*
X202355714Y-69043095D02*
X202355714Y-69138333D01*
X202355714Y-69138333D02*
X202308095Y-69281190D01*
X202308095Y-69281190D02*
X201736667Y-69852619D01*
X201736667Y-69852619D02*
X202355714Y-69852619D01*
D11*
%TO.C,J4*%
X152728095Y-90157619D02*
X152728095Y-89157619D01*
X153204285Y-90157619D02*
X153204285Y-89157619D01*
X153204285Y-89157619D02*
X153775713Y-90157619D01*
X153775713Y-90157619D02*
X153775713Y-89157619D01*
X154251904Y-90157619D02*
X154251904Y-89157619D01*
X154251904Y-89157619D02*
X154632856Y-89157619D01*
X154632856Y-89157619D02*
X154728094Y-89205238D01*
X154728094Y-89205238D02*
X154775713Y-89252857D01*
X154775713Y-89252857D02*
X154823332Y-89348095D01*
X154823332Y-89348095D02*
X154823332Y-89490952D01*
X154823332Y-89490952D02*
X154775713Y-89586190D01*
X154775713Y-89586190D02*
X154728094Y-89633809D01*
X154728094Y-89633809D02*
X154632856Y-89681428D01*
X154632856Y-89681428D02*
X154251904Y-89681428D01*
X155251904Y-89157619D02*
X155251904Y-89967142D01*
X155251904Y-89967142D02*
X155299523Y-90062380D01*
X155299523Y-90062380D02*
X155347142Y-90110000D01*
X155347142Y-90110000D02*
X155442380Y-90157619D01*
X155442380Y-90157619D02*
X155632856Y-90157619D01*
X155632856Y-90157619D02*
X155728094Y-90110000D01*
X155728094Y-90110000D02*
X155775713Y-90062380D01*
X155775713Y-90062380D02*
X155823332Y-89967142D01*
X155823332Y-89967142D02*
X155823332Y-89157619D01*
X156156666Y-89157619D02*
X156728094Y-89157619D01*
X156442380Y-90157619D02*
X156442380Y-89157619D01*
%TO.C,K2*%
X180681905Y-59722619D02*
X180681905Y-58722619D01*
X181253333Y-59722619D02*
X180824762Y-59151190D01*
X181253333Y-58722619D02*
X180681905Y-59294047D01*
X181634286Y-58817857D02*
X181681905Y-58770238D01*
X181681905Y-58770238D02*
X181777143Y-58722619D01*
X181777143Y-58722619D02*
X182015238Y-58722619D01*
X182015238Y-58722619D02*
X182110476Y-58770238D01*
X182110476Y-58770238D02*
X182158095Y-58817857D01*
X182158095Y-58817857D02*
X182205714Y-58913095D01*
X182205714Y-58913095D02*
X182205714Y-59008333D01*
X182205714Y-59008333D02*
X182158095Y-59151190D01*
X182158095Y-59151190D02*
X181586667Y-59722619D01*
X181586667Y-59722619D02*
X182205714Y-59722619D01*
%TO.C,K3*%
X153671905Y-59772619D02*
X153671905Y-58772619D01*
X154243333Y-59772619D02*
X153814762Y-59201190D01*
X154243333Y-58772619D02*
X153671905Y-59344047D01*
X154576667Y-58772619D02*
X155195714Y-58772619D01*
X155195714Y-58772619D02*
X154862381Y-59153571D01*
X154862381Y-59153571D02*
X155005238Y-59153571D01*
X155005238Y-59153571D02*
X155100476Y-59201190D01*
X155100476Y-59201190D02*
X155148095Y-59248809D01*
X155148095Y-59248809D02*
X155195714Y-59344047D01*
X155195714Y-59344047D02*
X155195714Y-59582142D01*
X155195714Y-59582142D02*
X155148095Y-59677380D01*
X155148095Y-59677380D02*
X155100476Y-59725000D01*
X155100476Y-59725000D02*
X155005238Y-59772619D01*
X155005238Y-59772619D02*
X154719524Y-59772619D01*
X154719524Y-59772619D02*
X154624286Y-59725000D01*
X154624286Y-59725000D02*
X154576667Y-59677380D01*
X167247019Y-62897704D02*
X166247019Y-62897704D01*
X166247019Y-62897704D02*
X167247019Y-62326276D01*
X167247019Y-62326276D02*
X166247019Y-62326276D01*
X166723209Y-61516752D02*
X166723209Y-61850085D01*
X167247019Y-61850085D02*
X166247019Y-61850085D01*
X166247019Y-61850085D02*
X166247019Y-61373895D01*
X160185819Y-62872304D02*
X159185819Y-62872304D01*
X159185819Y-62872304D02*
X160185819Y-62300876D01*
X160185819Y-62300876D02*
X159185819Y-62300876D01*
X159900104Y-61872304D02*
X159900104Y-61396114D01*
X160185819Y-61967542D02*
X159185819Y-61634209D01*
X159185819Y-61634209D02*
X160185819Y-61300876D01*
%TO.C,K1*%
X207721905Y-59892619D02*
X207721905Y-58892619D01*
X208293333Y-59892619D02*
X207864762Y-59321190D01*
X208293333Y-58892619D02*
X207721905Y-59464047D01*
X209245714Y-59892619D02*
X208674286Y-59892619D01*
X208960000Y-59892619D02*
X208960000Y-58892619D01*
X208960000Y-58892619D02*
X208864762Y-59035476D01*
X208864762Y-59035476D02*
X208769524Y-59130714D01*
X208769524Y-59130714D02*
X208674286Y-59178333D01*
%TO.C,J5*%
X221280000Y-90340000D02*
X206312400Y-90340000D01*
X206312400Y-90340000D02*
X206312400Y-88833000D01*
X206312400Y-88833000D02*
X221280000Y-88833000D01*
X221280000Y-88833000D02*
X221280000Y-90340000D01*
X221280000Y-90340000D02*
X206280000Y-90340000D01*
X206280000Y-90340000D02*
X206280000Y-82102000D01*
X206280000Y-82102000D02*
X221280000Y-82102000D01*
X221280000Y-82102000D02*
X221280000Y-90340000D01*
D14*
%TO.C,Q1*%
X202527500Y-75520000D02*
X204202500Y-75520000D01*
X202527500Y-75520000D02*
X201877500Y-75520000D01*
X202527500Y-72400000D02*
X203177500Y-72400000D01*
X202527500Y-72400000D02*
X201877500Y-72400000D01*
%TO.C,Q2*%
X175600000Y-75010000D02*
X177275000Y-75010000D01*
X175600000Y-75010000D02*
X174950000Y-75010000D01*
X175600000Y-71890000D02*
X176250000Y-71890000D01*
X175600000Y-71890000D02*
X174950000Y-71890000D01*
D10*
%TO.C,D2*%
X180922000Y-68690000D02*
X180922000Y-63490000D01*
X178198000Y-63490000D02*
X178198000Y-68757000D01*
D11*
%TO.C,J3*%
X179280000Y-90340000D02*
X164312400Y-90340000D01*
X164312400Y-90340000D02*
X164312400Y-88833000D01*
X164312400Y-88833000D02*
X179280000Y-88833000D01*
X179280000Y-88833000D02*
X179280000Y-90340000D01*
X179280000Y-90340000D02*
X164280000Y-90340000D01*
X164280000Y-90340000D02*
X164280000Y-82102000D01*
X164280000Y-82102000D02*
X179280000Y-82102000D01*
X179280000Y-82102000D02*
X179280000Y-90340000D01*
%TO.C,J1*%
X233360000Y-90213000D02*
X223211400Y-90213000D01*
X223211400Y-90213000D02*
X223211400Y-81983000D01*
X223211400Y-81983000D02*
X233360000Y-81983000D01*
X233360000Y-81983000D02*
X233360000Y-90213000D01*
X233334600Y-90213000D02*
X223218400Y-90213000D01*
X223218400Y-90213000D02*
X223218400Y-88706000D01*
X223218400Y-88706000D02*
X233334600Y-88706000D01*
X233334600Y-88706000D02*
X233334600Y-90213000D01*
%TO.C,J6*%
X191334600Y-90213000D02*
X181218400Y-90213000D01*
X181218400Y-90213000D02*
X181218400Y-88706000D01*
X181218400Y-88706000D02*
X191334600Y-88706000D01*
X191334600Y-88706000D02*
X191334600Y-90213000D01*
X191360000Y-90213000D02*
X181211400Y-90213000D01*
X181211400Y-90213000D02*
X181211400Y-81983000D01*
X181211400Y-81983000D02*
X191360000Y-81983000D01*
X191360000Y-81983000D02*
X191360000Y-90213000D01*
D14*
%TO.C,R4*%
X179335000Y-75579564D02*
X179335000Y-75125436D01*
X180805000Y-75579564D02*
X180805000Y-75125436D01*
D10*
%TO.C,D1*%
X208102000Y-68010000D02*
X208102000Y-62810000D01*
X205378000Y-62810000D02*
X205378000Y-68077000D01*
D14*
%TO.C,R3*%
X173605000Y-67487064D02*
X173605000Y-67032936D01*
X175075000Y-67487064D02*
X175075000Y-67032936D01*
%TO.C,R1*%
X206495000Y-76037064D02*
X206495000Y-75582936D01*
X207965000Y-76037064D02*
X207965000Y-75582936D01*
%TO.C,LED1*%
X202265000Y-60745000D02*
X200795000Y-60745000D01*
X200795000Y-60745000D02*
X200795000Y-63030000D01*
X202265000Y-63030000D02*
X202265000Y-60745000D01*
D11*
%TO.C,J2*%
X203860000Y-90213000D02*
X193711400Y-90213000D01*
X193711400Y-90213000D02*
X193711400Y-81983000D01*
X193711400Y-81983000D02*
X203860000Y-81983000D01*
X203860000Y-81983000D02*
X203860000Y-90213000D01*
X203834600Y-90213000D02*
X193718400Y-90213000D01*
X193718400Y-90213000D02*
X193718400Y-88706000D01*
X193718400Y-88706000D02*
X203834600Y-88706000D01*
X203834600Y-88706000D02*
X203834600Y-90213000D01*
D14*
%TO.C,R2*%
X200795000Y-66897064D02*
X200795000Y-66442936D01*
X202265000Y-66897064D02*
X202265000Y-66442936D01*
D11*
%TO.C,J4*%
X162180000Y-90440000D02*
X147212400Y-90440000D01*
X147212400Y-90440000D02*
X147212400Y-88933000D01*
X147212400Y-88933000D02*
X162180000Y-88933000D01*
X162180000Y-88933000D02*
X162180000Y-90440000D01*
X162180000Y-90440000D02*
X147180000Y-90440000D01*
X147180000Y-90440000D02*
X147180000Y-82202000D01*
X147180000Y-82202000D02*
X162180000Y-82202000D01*
X162180000Y-82202000D02*
X162180000Y-90440000D01*
%TO.C,K2*%
X192489800Y-73067200D02*
X187867000Y-70451000D01*
X184158600Y-71771800D02*
X184158600Y-73143400D01*
X184158600Y-71771800D02*
X187841600Y-71771800D01*
X192566000Y-71695600D02*
X196249000Y-71695600D01*
X196249000Y-71695600D02*
X196249000Y-73067200D01*
X190280000Y-68165000D02*
X191397600Y-64837600D01*
X191778600Y-64837600D02*
X192693000Y-65345600D01*
X191778600Y-64837600D02*
X196325200Y-64837600D01*
X191778600Y-64837600D02*
X192642200Y-64304200D01*
X184285600Y-64761400D02*
X188832200Y-64761400D01*
X188832200Y-64761400D02*
X187968600Y-65294800D01*
X188832200Y-64761400D02*
X187917800Y-64253400D01*
X184285600Y-63593000D02*
X184285600Y-64761400D01*
X196325200Y-63542200D02*
X196325200Y-64837600D01*
X182761600Y-78096400D02*
X183861600Y-78096400D01*
X184261600Y-78096400D02*
X185361600Y-78096400D01*
X185761600Y-78096400D02*
X186861600Y-78096400D01*
X187261600Y-78096400D02*
X188361600Y-78096400D01*
X188761600Y-78096400D02*
X189861600Y-78096400D01*
X190261600Y-78096400D02*
X191361600Y-78096400D01*
X191761600Y-78096400D02*
X192861600Y-78096400D01*
X193261600Y-78096400D02*
X194361600Y-78096400D01*
X194761600Y-78096400D02*
X195861600Y-78096400D01*
X196261600Y-78096400D02*
X197361600Y-78096400D01*
X197761600Y-78096400D02*
X197849200Y-78096400D01*
X197849200Y-78096400D02*
X197849200Y-76996400D01*
X197849200Y-76596400D02*
X197849200Y-75496400D01*
X197849200Y-75096400D02*
X197849200Y-73996400D01*
X197849200Y-73596400D02*
X197849200Y-72496400D01*
X197849200Y-72096400D02*
X197849200Y-70996400D01*
X197849200Y-70596400D02*
X197849200Y-69496400D01*
X197849200Y-69096400D02*
X197849200Y-67996400D01*
X197849200Y-67596400D02*
X197849200Y-66496400D01*
X197849200Y-66096400D02*
X197849200Y-64996400D01*
X197849200Y-64596400D02*
X197849200Y-63496400D01*
X197849200Y-63096400D02*
X197849200Y-61996400D01*
X197849200Y-61596400D02*
X197849200Y-60496400D01*
X197849200Y-60096400D02*
X197849200Y-58996400D01*
X197849200Y-58690800D02*
X196749200Y-58690800D01*
X196349200Y-58690800D02*
X195249200Y-58690800D01*
X194849200Y-58690800D02*
X193749200Y-58690800D01*
X193349200Y-58690800D02*
X192249200Y-58690800D01*
X191849200Y-58690800D02*
X190749200Y-58690800D01*
X190349200Y-58690800D02*
X189249200Y-58690800D01*
X188849200Y-58690800D02*
X187749200Y-58690800D01*
X187349200Y-58690800D02*
X186249200Y-58690800D01*
X185849200Y-58690800D02*
X184749200Y-58690800D01*
X184349200Y-58690800D02*
X183249200Y-58690800D01*
X182849200Y-58690800D02*
X182761600Y-58690800D01*
X182761600Y-58690800D02*
X182761600Y-59790800D01*
X182761600Y-60190800D02*
X182761600Y-61290800D01*
X182761600Y-61690800D02*
X182761600Y-62790800D01*
X182761600Y-63190800D02*
X182761600Y-64290800D01*
X182761600Y-64690800D02*
X182761600Y-65790800D01*
X182761600Y-66190800D02*
X182761600Y-67290800D01*
X182761600Y-67690800D02*
X182761600Y-68790800D01*
X182761600Y-69190800D02*
X182761600Y-70290800D01*
X182761600Y-70690800D02*
X182761600Y-71790800D01*
X182761600Y-72190800D02*
X182761600Y-73290800D01*
X182761600Y-73690800D02*
X182761600Y-74790800D01*
X182761600Y-75190800D02*
X182761600Y-76290800D01*
X182761600Y-76690800D02*
X182761600Y-77790800D01*
X187867000Y-73067200D02*
X192489800Y-73067200D01*
X192489800Y-73067200D02*
X192489800Y-70451000D01*
X192489800Y-70451000D02*
X187867000Y-70451000D01*
X187867000Y-70451000D02*
X187867000Y-73067200D01*
X189746600Y-69282600D02*
X190813400Y-69282600D01*
X190813400Y-69282600D02*
X190813400Y-68165000D01*
X190813400Y-68165000D02*
X189746600Y-68165000D01*
X189746600Y-68165000D02*
X189746600Y-69282600D01*
%TO.C,K3*%
X165489800Y-73067200D02*
X160867000Y-70451000D01*
X157158600Y-71771800D02*
X157158600Y-73143400D01*
X157158600Y-71771800D02*
X160841600Y-71771800D01*
X165566000Y-71695600D02*
X169249000Y-71695600D01*
X169249000Y-71695600D02*
X169249000Y-73067200D01*
X163280000Y-68165000D02*
X164397600Y-64837600D01*
X164778600Y-64837600D02*
X165693000Y-65345600D01*
X164778600Y-64837600D02*
X169325200Y-64837600D01*
X164778600Y-64837600D02*
X165642200Y-64304200D01*
X157285600Y-64761400D02*
X161832200Y-64761400D01*
X161832200Y-64761400D02*
X160968600Y-65294800D01*
X161832200Y-64761400D02*
X160917800Y-64253400D01*
X157285600Y-63593000D02*
X157285600Y-64761400D01*
X169325200Y-63542200D02*
X169325200Y-64837600D01*
X155761600Y-78096400D02*
X156861600Y-78096400D01*
X157261600Y-78096400D02*
X158361600Y-78096400D01*
X158761600Y-78096400D02*
X159861600Y-78096400D01*
X160261600Y-78096400D02*
X161361600Y-78096400D01*
X161761600Y-78096400D02*
X162861600Y-78096400D01*
X163261600Y-78096400D02*
X164361600Y-78096400D01*
X164761600Y-78096400D02*
X165861600Y-78096400D01*
X166261600Y-78096400D02*
X167361600Y-78096400D01*
X167761600Y-78096400D02*
X168861600Y-78096400D01*
X169261600Y-78096400D02*
X170361600Y-78096400D01*
X170761600Y-78096400D02*
X170849200Y-78096400D01*
X170849200Y-78096400D02*
X170849200Y-76996400D01*
X170849200Y-76596400D02*
X170849200Y-75496400D01*
X170849200Y-75096400D02*
X170849200Y-73996400D01*
X170849200Y-73596400D02*
X170849200Y-72496400D01*
X170849200Y-72096400D02*
X170849200Y-70996400D01*
X170849200Y-70596400D02*
X170849200Y-69496400D01*
X170849200Y-69096400D02*
X170849200Y-67996400D01*
X170849200Y-67596400D02*
X170849200Y-66496400D01*
X170849200Y-66096400D02*
X170849200Y-64996400D01*
X170849200Y-64596400D02*
X170849200Y-63496400D01*
X170849200Y-63096400D02*
X170849200Y-61996400D01*
X170849200Y-61596400D02*
X170849200Y-60496400D01*
X170849200Y-60096400D02*
X170849200Y-58996400D01*
X170849200Y-58690800D02*
X169749200Y-58690800D01*
X169349200Y-58690800D02*
X168249200Y-58690800D01*
X167849200Y-58690800D02*
X166749200Y-58690800D01*
X166349200Y-58690800D02*
X165249200Y-58690800D01*
X164849200Y-58690800D02*
X163749200Y-58690800D01*
X163349200Y-58690800D02*
X162249200Y-58690800D01*
X161849200Y-58690800D02*
X160749200Y-58690800D01*
X160349200Y-58690800D02*
X159249200Y-58690800D01*
X158849200Y-58690800D02*
X157749200Y-58690800D01*
X157349200Y-58690800D02*
X156249200Y-58690800D01*
X155849200Y-58690800D02*
X155761600Y-58690800D01*
X155761600Y-58690800D02*
X155761600Y-59790800D01*
X155761600Y-60190800D02*
X155761600Y-61290800D01*
X155761600Y-61690800D02*
X155761600Y-62790800D01*
X155761600Y-63190800D02*
X155761600Y-64290800D01*
X155761600Y-64690800D02*
X155761600Y-65790800D01*
X155761600Y-66190800D02*
X155761600Y-67290800D01*
X155761600Y-67690800D02*
X155761600Y-68790800D01*
X155761600Y-69190800D02*
X155761600Y-70290800D01*
X155761600Y-70690800D02*
X155761600Y-71790800D01*
X155761600Y-72190800D02*
X155761600Y-73290800D01*
X155761600Y-73690800D02*
X155761600Y-74790800D01*
X155761600Y-75190800D02*
X155761600Y-76290800D01*
X155761600Y-76690800D02*
X155761600Y-77790800D01*
X160867000Y-73067200D02*
X165489800Y-73067200D01*
X165489800Y-73067200D02*
X165489800Y-70451000D01*
X165489800Y-70451000D02*
X160867000Y-70451000D01*
X160867000Y-70451000D02*
X160867000Y-73067200D01*
X162746600Y-69282600D02*
X163813400Y-69282600D01*
X163813400Y-69282600D02*
X163813400Y-68165000D01*
X163813400Y-68165000D02*
X162746600Y-68165000D01*
X162746600Y-68165000D02*
X162746600Y-69282600D01*
%TO.C,K1*%
X219489800Y-73067200D02*
X214867000Y-70451000D01*
X211158600Y-71771800D02*
X211158600Y-73143400D01*
X211158600Y-71771800D02*
X214841600Y-71771800D01*
X219566000Y-71695600D02*
X223249000Y-71695600D01*
X223249000Y-71695600D02*
X223249000Y-73067200D01*
X217280000Y-68165000D02*
X218397600Y-64837600D01*
X218778600Y-64837600D02*
X219693000Y-65345600D01*
X218778600Y-64837600D02*
X223325200Y-64837600D01*
X218778600Y-64837600D02*
X219642200Y-64304200D01*
X211285600Y-64761400D02*
X215832200Y-64761400D01*
X215832200Y-64761400D02*
X214968600Y-65294800D01*
X215832200Y-64761400D02*
X214917800Y-64253400D01*
X211285600Y-63593000D02*
X211285600Y-64761400D01*
X223325200Y-63542200D02*
X223325200Y-64837600D01*
X209761600Y-78096400D02*
X210861600Y-78096400D01*
X211261600Y-78096400D02*
X212361600Y-78096400D01*
X212761600Y-78096400D02*
X213861600Y-78096400D01*
X214261600Y-78096400D02*
X215361600Y-78096400D01*
X215761600Y-78096400D02*
X216861600Y-78096400D01*
X217261600Y-78096400D02*
X218361600Y-78096400D01*
X218761600Y-78096400D02*
X219861600Y-78096400D01*
X220261600Y-78096400D02*
X221361600Y-78096400D01*
X221761600Y-78096400D02*
X222861600Y-78096400D01*
X223261600Y-78096400D02*
X224361600Y-78096400D01*
X224761600Y-78096400D02*
X224849200Y-78096400D01*
X224849200Y-78096400D02*
X224849200Y-76996400D01*
X224849200Y-76596400D02*
X224849200Y-75496400D01*
X224849200Y-75096400D02*
X224849200Y-73996400D01*
X224849200Y-73596400D02*
X224849200Y-72496400D01*
X224849200Y-72096400D02*
X224849200Y-70996400D01*
X224849200Y-70596400D02*
X224849200Y-69496400D01*
X224849200Y-69096400D02*
X224849200Y-67996400D01*
X224849200Y-67596400D02*
X224849200Y-66496400D01*
X224849200Y-66096400D02*
X224849200Y-64996400D01*
X224849200Y-64596400D02*
X224849200Y-63496400D01*
X224849200Y-63096400D02*
X224849200Y-61996400D01*
X224849200Y-61596400D02*
X224849200Y-60496400D01*
X224849200Y-60096400D02*
X224849200Y-58996400D01*
X224849200Y-58690800D02*
X223749200Y-58690800D01*
X223349200Y-58690800D02*
X222249200Y-58690800D01*
X221849200Y-58690800D02*
X220749200Y-58690800D01*
X220349200Y-58690800D02*
X219249200Y-58690800D01*
X218849200Y-58690800D02*
X217749200Y-58690800D01*
X217349200Y-58690800D02*
X216249200Y-58690800D01*
X215849200Y-58690800D02*
X214749200Y-58690800D01*
X214349200Y-58690800D02*
X213249200Y-58690800D01*
X212849200Y-58690800D02*
X211749200Y-58690800D01*
X211349200Y-58690800D02*
X210249200Y-58690800D01*
X209849200Y-58690800D02*
X209761600Y-58690800D01*
X209761600Y-58690800D02*
X209761600Y-59790800D01*
X209761600Y-60190800D02*
X209761600Y-61290800D01*
X209761600Y-61690800D02*
X209761600Y-62790800D01*
X209761600Y-63190800D02*
X209761600Y-64290800D01*
X209761600Y-64690800D02*
X209761600Y-65790800D01*
X209761600Y-66190800D02*
X209761600Y-67290800D01*
X209761600Y-67690800D02*
X209761600Y-68790800D01*
X209761600Y-69190800D02*
X209761600Y-70290800D01*
X209761600Y-70690800D02*
X209761600Y-71790800D01*
X209761600Y-72190800D02*
X209761600Y-73290800D01*
X209761600Y-73690800D02*
X209761600Y-74790800D01*
X209761600Y-75190800D02*
X209761600Y-76290800D01*
X209761600Y-76690800D02*
X209761600Y-77790800D01*
X214867000Y-73067200D02*
X219489800Y-73067200D01*
X219489800Y-73067200D02*
X219489800Y-70451000D01*
X219489800Y-70451000D02*
X214867000Y-70451000D01*
X214867000Y-70451000D02*
X214867000Y-73067200D01*
X216746600Y-69282600D02*
X217813400Y-69282600D01*
X217813400Y-69282600D02*
X217813400Y-68165000D01*
X217813400Y-68165000D02*
X216746600Y-68165000D01*
X216746600Y-68165000D02*
X216746600Y-69282600D01*
D14*
%TO.C,LED2*%
X175065000Y-60995000D02*
X173595000Y-60995000D01*
X173595000Y-60995000D02*
X173595000Y-63280000D01*
X175065000Y-63280000D02*
X175065000Y-60995000D01*
%TD*%
M02*
