M48
; DRILL file {KiCad 7.0.2} date Wed Aug  9 10:06:08 2023
; FORMAT={-:-/ absolute / inch / decimal}
; #@! TF.CreationDate,2023-08-09T10:06:08-03:00
; #@! TF.GenerationSoftware,Kicad,Pcbnew,7.0.2
; #@! TF.FileFunction,Plated,1,2,PTH
FMAT,2
INCH
; #@! TA.AperFunction,Plated,PTH,ViaDrill
T1C0.0157
; #@! TA.AperFunction,Plated,PTH,ComponentDrill
T2C0.0197
; #@! TA.AperFunction,Plated,PTH,ComponentDrill
T3C0.0472
; #@! TA.AperFunction,Plated,PTH,ComponentDrill
T4C0.0551
; #@! TA.AperFunction,Plated,PTH,ComponentDrill
T5C0.1378
%
G90
G05
T1
X6.7866Y-2.772
X7.0917Y-3.1524
X7.1012Y-2.8543
X7.8614Y-2.7622
X8.1303Y-2.8744
T2
X5.8132Y-2.9528
X5.8435Y-2.8797
X5.8435Y-3.0258
X5.9165Y-2.8494
X5.9165Y-3.0561
X5.9896Y-2.8797
X5.9896Y-3.0258
X6.0199Y-2.9528
X8.9628Y-2.9528
X8.9931Y-2.8797
X8.9931Y-3.0258
X9.0661Y-2.8494
X9.0661Y-3.0561
X9.1392Y-2.8797
X9.1392Y-3.0258
X9.1695Y-2.9528
T3
X5.8898Y-3.4063
X6.0898Y-3.4063
X6.2898Y-3.4063
X6.563Y-3.4024
X6.763Y-3.4024
X6.963Y-3.4024
X7.2339Y-3.3974
X7.4339Y-3.3974
X7.726Y-3.3974
X7.926Y-3.3974
X8.2165Y-3.4024
X8.4165Y-3.4024
X8.6165Y-3.4024
X8.8874Y-3.3974
X9.0874Y-3.3974
T4
X6.1921Y-2.4496
X6.1921Y-2.9299
X6.4283Y-3.0087
X6.6646Y-2.4496
X6.6646Y-2.9299
X7.2551Y-2.4496
X7.2551Y-2.9299
X7.4913Y-3.0087
X7.7276Y-2.4496
X7.7276Y-2.9299
X8.3181Y-2.4496
X8.3181Y-2.9299
X8.5543Y-3.0087
X8.7906Y-2.4496
X8.7906Y-2.9299
T5
X5.9165Y-2.9528
X9.0661Y-2.9528
T0
M30
