%TF.GenerationSoftware,KiCad,Pcbnew,7.0.2*%
%TF.CreationDate,2023-08-09T10:06:03-03:00*%
%TF.ProjectId,PCB_Incendio,5043425f-496e-4636-956e-64696f2e6b69,rev?*%
%TF.SameCoordinates,Original*%
%TF.FileFunction,Copper,L1,Top*%
%TF.FilePolarity,Positive*%
%FSLAX46Y46*%
G04 Gerber Fmt 4.6, Leading zero omitted, Abs format (unit mm)*
G04 Created by KiCad (PCBNEW 7.0.2) date 2023-08-09 10:06:03*
%MOMM*%
%LPD*%
G01*
G04 APERTURE LIST*
G04 Aperture macros list*
%AMRoundRect*
0 Rectangle with rounded corners*
0 $1 Rounding radius*
0 $2 $3 $4 $5 $6 $7 $8 $9 X,Y pos of 4 corners*
0 Add a 4 corners polygon primitive as box body*
4,1,4,$2,$3,$4,$5,$6,$7,$8,$9,$2,$3,0*
0 Add four circle primitives for the rounded corners*
1,1,$1+$1,$2,$3*
1,1,$1+$1,$4,$5*
1,1,$1+$1,$6,$7*
1,1,$1+$1,$8,$9*
0 Add four rect primitives between the rounded corners*
20,1,$1+$1,$2,$3,$4,$5,0*
20,1,$1+$1,$4,$5,$6,$7,0*
20,1,$1+$1,$6,$7,$8,$9,0*
20,1,$1+$1,$8,$9,$2,$3,0*%
G04 Aperture macros list end*
%TA.AperFunction,ComponentPad*%
%ADD10C,2.200000*%
%TD*%
%TA.AperFunction,SMDPad,CuDef*%
%ADD11RoundRect,0.150000X0.587500X0.150000X-0.587500X0.150000X-0.587500X-0.150000X0.587500X-0.150000X0*%
%TD*%
%TA.AperFunction,SMDPad,CuDef*%
%ADD12R,1.550000X2.350000*%
%TD*%
%TA.AperFunction,ComponentPad*%
%ADD13C,0.800000*%
%TD*%
%TA.AperFunction,ComponentPad*%
%ADD14C,7.000000*%
%TD*%
%TA.AperFunction,ComponentPad*%
%ADD15C,2.100000*%
%TD*%
%TA.AperFunction,SMDPad,CuDef*%
%ADD16RoundRect,0.250000X0.450000X-0.262500X0.450000X0.262500X-0.450000X0.262500X-0.450000X-0.262500X0*%
%TD*%
%TA.AperFunction,SMDPad,CuDef*%
%ADD17RoundRect,0.218750X-0.256250X0.218750X-0.256250X-0.218750X0.256250X-0.218750X0.256250X0.218750X0*%
%TD*%
%TA.AperFunction,ComponentPad*%
%ADD18C,2.300000*%
%TD*%
%TA.AperFunction,ComponentPad*%
%ADD19R,2.300000X2.300000*%
%TD*%
%TA.AperFunction,ViaPad*%
%ADD20C,0.800000*%
%TD*%
%TA.AperFunction,Conductor*%
%ADD21C,0.508000*%
%TD*%
%TA.AperFunction,Conductor*%
%ADD22C,0.762000*%
%TD*%
%TA.AperFunction,Conductor*%
%ADD23C,0.609600*%
%TD*%
%TA.AperFunction,Conductor*%
%ADD24C,0.250000*%
%TD*%
G04 APERTURE END LIST*
D10*
%TO.P,J5,1,1*%
%TO.N,GND*%
X218860000Y-86420000D03*
%TO.P,J5,2,2*%
%TO.N,Net-(J5-Pad2)*%
X213780000Y-86420000D03*
%TO.P,J5,3,3*%
%TO.N,12V*%
X208700000Y-86420000D03*
%TD*%
D11*
%TO.P,Q1,1,B*%
%TO.N,Net-(Q1-B)*%
X203465000Y-74910000D03*
%TO.P,Q1,2,E*%
%TO.N,Net-(Q1-E)*%
X203465000Y-73010000D03*
%TO.P,Q1,3,C*%
%TO.N,Net-(D1-A)*%
X201590000Y-73960000D03*
%TD*%
%TO.P,Q2,1,B*%
%TO.N,Net-(Q2-B)*%
X176537500Y-74400000D03*
%TO.P,Q2,2,E*%
%TO.N,Net-(Q1-E)*%
X176537500Y-72500000D03*
%TO.P,Q2,3,C*%
%TO.N,Net-(D2-A)*%
X174662500Y-73450000D03*
%TD*%
D12*
%TO.P,D2,1,K*%
%TO.N,12V*%
X179560000Y-68240000D03*
%TO.P,D2,2,A*%
%TO.N,Net-(D2-A)*%
X179560000Y-63940000D03*
%TD*%
D13*
%TO.P,REF\u002A\u002A,1*%
%TO.N,N/C*%
X152905000Y-75000000D03*
X152136155Y-76856155D03*
X152136155Y-73143845D03*
X150280000Y-77625000D03*
D14*
X150280000Y-75000000D03*
D13*
X150280000Y-72375000D03*
X148423845Y-76856155D03*
X148423845Y-73143845D03*
X147655000Y-75000000D03*
%TD*%
D10*
%TO.P,J3,1,1*%
%TO.N,Net-(J3-Pad1)*%
X176860000Y-86420000D03*
%TO.P,J3,2,2*%
%TO.N,Net-(J3-Pad2)*%
X171780000Y-86420000D03*
%TO.P,J3,3,3*%
%TO.N,Net-(J3-Pad3)*%
X166700000Y-86420000D03*
%TD*%
D13*
%TO.P,REF\u002A\u002A,1*%
%TO.N,N/C*%
X232905000Y-75000000D03*
X232136155Y-76856155D03*
X232136155Y-73143845D03*
X230280000Y-77625000D03*
D14*
X230280000Y-75000000D03*
D13*
X230280000Y-72375000D03*
X228423845Y-76856155D03*
X228423845Y-73143845D03*
X227655000Y-75000000D03*
%TD*%
D10*
%TO.P,J1,1,1*%
%TO.N,12V*%
X230820000Y-86293000D03*
D15*
%TO.P,J1,2,2*%
%TO.N,GND*%
X225740000Y-86293000D03*
%TD*%
%TO.P,J6,2,2*%
%TO.N,PL1*%
X183740000Y-86293000D03*
D10*
%TO.P,J6,1,1*%
%TO.N,PL2*%
X188820000Y-86293000D03*
%TD*%
D16*
%TO.P,R4,1*%
%TO.N,PL2*%
X180070000Y-76265000D03*
%TO.P,R4,2*%
%TO.N,Net-(Q2-B)*%
X180070000Y-74440000D03*
%TD*%
D12*
%TO.P,D1,1,K*%
%TO.N,12V*%
X206740000Y-67560000D03*
%TO.P,D1,2,A*%
%TO.N,Net-(D1-A)*%
X206740000Y-63260000D03*
%TD*%
D16*
%TO.P,R3,1*%
%TO.N,12V*%
X174340000Y-68172500D03*
%TO.P,R3,2*%
%TO.N,Net-(LED2-A)*%
X174340000Y-66347500D03*
%TD*%
%TO.P,R1,1*%
%TO.N,PL1*%
X207230000Y-76722500D03*
%TO.P,R1,2*%
%TO.N,Net-(Q1-B)*%
X207230000Y-74897500D03*
%TD*%
D17*
%TO.P,LED1,1,K*%
%TO.N,Net-(D1-A)*%
X201530000Y-61442500D03*
%TO.P,LED1,2,A*%
%TO.N,Net-(LED1-A)*%
X201530000Y-63017500D03*
%TD*%
D10*
%TO.P,J2,1,1*%
%TO.N,Net-(J2-Pad1)*%
X201320000Y-86293000D03*
D15*
%TO.P,J2,2,2*%
%TO.N,12V*%
X196240000Y-86293000D03*
%TD*%
D16*
%TO.P,R2,1*%
%TO.N,12V*%
X201530000Y-67582500D03*
%TO.P,R2,2*%
%TO.N,Net-(LED1-A)*%
X201530000Y-65757500D03*
%TD*%
D10*
%TO.P,J4,1,1*%
%TO.N,Net-(J4-Pad1)*%
X159760000Y-86520000D03*
%TO.P,J4,2,2*%
%TO.N,Net-(J4-Pad2)*%
X154680000Y-86520000D03*
%TO.P,J4,3,3*%
%TO.N,Net-(J4-Pad3)*%
X149600000Y-86520000D03*
%TD*%
D18*
%TO.P,K2,1*%
%TO.N,Net-(D1-A)*%
X196280000Y-74420000D03*
D19*
%TO.P,K2,2*%
%TO.N,Net-(J3-Pad2)*%
X190280000Y-76420000D03*
D18*
%TO.P,K2,3*%
%TO.N,Net-(J3-Pad3)*%
X184280000Y-62220000D03*
%TO.P,K2,4*%
%TO.N,Net-(J3-Pad1)*%
X196280000Y-62220000D03*
%TO.P,K2,5*%
%TO.N,12V*%
X184280000Y-74420000D03*
%TD*%
%TO.P,K3,1*%
%TO.N,Net-(D2-A)*%
X169280000Y-74420000D03*
D19*
%TO.P,K3,2*%
%TO.N,Net-(J4-Pad2)*%
X163280000Y-76420000D03*
D18*
%TO.P,K3,3*%
%TO.N,Net-(J4-Pad3)*%
X157280000Y-62220000D03*
%TO.P,K3,4*%
%TO.N,Net-(J4-Pad1)*%
X169280000Y-62220000D03*
%TO.P,K3,5*%
%TO.N,12V*%
X157280000Y-74420000D03*
%TD*%
%TO.P,K1,1*%
%TO.N,Net-(J5-Pad2)*%
X223280000Y-74420000D03*
D19*
%TO.P,K1,2*%
%TO.N,GND*%
X217280000Y-76420000D03*
D18*
%TO.P,K1,3*%
%TO.N,Net-(J2-Pad1)*%
X211280000Y-62220000D03*
%TO.P,K1,4*%
%TO.N,Net-(Q1-E)*%
X223280000Y-62220000D03*
%TO.P,K1,5*%
%TO.N,12V*%
X211280000Y-74420000D03*
%TD*%
D17*
%TO.P,LED2,1,K*%
%TO.N,Net-(D2-A)*%
X174330000Y-61692500D03*
%TO.P,LED2,2,A*%
%TO.N,Net-(LED2-A)*%
X174330000Y-63267500D03*
%TD*%
D20*
%TO.N,12V*%
X172380000Y-70410000D03*
%TO.N,Net-(Q1-E)*%
X206510000Y-73010000D03*
X199680000Y-70160000D03*
X180370000Y-72500000D03*
%TO.N,PL2*%
X180130000Y-80070000D03*
%TD*%
D21*
%TO.N,PL2*%
X180060000Y-76275000D02*
X180070000Y-76265000D01*
X180060000Y-80000000D02*
X180060000Y-76275000D01*
X180130000Y-80070000D02*
X180060000Y-80000000D01*
D22*
%TO.N,12V*%
X208700000Y-84900000D02*
X211280000Y-82320000D01*
X211280000Y-82320000D02*
X211280000Y-74420000D01*
X208700000Y-86420000D02*
X208700000Y-84900000D01*
%TO.N,GND*%
X217280000Y-84840000D02*
X217280000Y-76420000D01*
X218987000Y-86293000D02*
X218733000Y-86293000D01*
X218733000Y-86293000D02*
X217280000Y-84840000D01*
X225613000Y-86420000D02*
X219114000Y-86420000D01*
X219114000Y-86420000D02*
X218987000Y-86293000D01*
X225740000Y-86293000D02*
X225613000Y-86420000D01*
%TO.N,Net-(J3-Pad1)*%
X176860000Y-85630000D02*
X176860000Y-86420000D01*
X196280000Y-66210000D02*
X176860000Y-85630000D01*
X196280000Y-62220000D02*
X196280000Y-66210000D01*
D23*
%TO.N,Net-(D1-A)*%
X196740000Y-73960000D02*
X196280000Y-74420000D01*
X201590000Y-73960000D02*
X196740000Y-73960000D01*
%TO.N,Net-(Q1-E)*%
X206510000Y-71660000D02*
X205010000Y-70160000D01*
X206510000Y-73010000D02*
X206510000Y-71660000D01*
X205010000Y-70160000D02*
X199680000Y-70160000D01*
X203465000Y-73010000D02*
X206510000Y-73010000D01*
D24*
%TO.N,Net-(Q1-B)*%
X203477500Y-74897500D02*
X203465000Y-74910000D01*
D23*
X207230000Y-74897500D02*
X203477500Y-74897500D01*
D21*
%TO.N,PL1*%
X183740000Y-81470000D02*
X183740000Y-86293000D01*
X205770000Y-80320000D02*
X184890000Y-80320000D01*
X207230000Y-78860000D02*
X205770000Y-80320000D01*
X184890000Y-80320000D02*
X183740000Y-81470000D01*
X207230000Y-76722500D02*
X207230000Y-78860000D01*
D23*
%TO.N,Net-(D2-A)*%
X170250000Y-73450000D02*
X169280000Y-74420000D01*
X174662500Y-73450000D02*
X170250000Y-73450000D01*
D24*
%TO.N,Net-(Q2-B)*%
X180030000Y-74400000D02*
X180070000Y-74440000D01*
D23*
X176537500Y-74400000D02*
X180030000Y-74400000D01*
%TO.N,Net-(Q1-E)*%
X180370000Y-72500000D02*
X176587500Y-72500000D01*
D22*
%TO.N,12V*%
X197110000Y-90120000D02*
X196240000Y-89250000D01*
X230820000Y-86293000D02*
X230820000Y-88720000D01*
X174407500Y-68240000D02*
X174340000Y-68172500D01*
X201552500Y-67560000D02*
X201530000Y-67582500D01*
X229400000Y-90140000D02*
X209820000Y-90140000D01*
X209820000Y-90140000D02*
X208700000Y-89020000D01*
X230820000Y-88720000D02*
X229400000Y-90140000D01*
X174340000Y-69730000D02*
X174340000Y-68172500D01*
X184280000Y-69420000D02*
X184280000Y-74420000D01*
X208700000Y-89070000D02*
X207650000Y-90120000D01*
X179560000Y-68240000D02*
X174407500Y-68240000D01*
X211280000Y-68920000D02*
X209920000Y-67560000D01*
X211280000Y-74420000D02*
X211280000Y-68920000D01*
X208700000Y-86420000D02*
X208700000Y-89070000D01*
X207650000Y-90120000D02*
X197110000Y-90120000D01*
X173660000Y-70410000D02*
X174340000Y-69730000D01*
X208700000Y-89020000D02*
X208700000Y-86420000D01*
X196240000Y-89250000D02*
X196240000Y-86293000D01*
X209920000Y-67560000D02*
X206740000Y-67560000D01*
X172380000Y-70410000D02*
X173660000Y-70410000D01*
X183100000Y-68240000D02*
X184280000Y-69420000D01*
X179560000Y-68240000D02*
X183100000Y-68240000D01*
X206740000Y-67560000D02*
X201552500Y-67560000D01*
%TO.N,Net-(D1-A)*%
X199130000Y-62360000D02*
X199130000Y-66900000D01*
X196280000Y-69750000D02*
X196280000Y-74420000D01*
X200047500Y-61442500D02*
X199130000Y-62360000D01*
X201530000Y-61442500D02*
X204922500Y-61442500D01*
X199130000Y-66900000D02*
X196280000Y-69750000D01*
X204922500Y-61442500D02*
X206740000Y-63260000D01*
X201530000Y-61442500D02*
X200047500Y-61442500D01*
%TO.N,Net-(D2-A)*%
X178802500Y-61692500D02*
X179560000Y-62450000D01*
X172497500Y-61692500D02*
X172150000Y-62040000D01*
X172150000Y-62040000D02*
X172150000Y-67070000D01*
X169280000Y-69940000D02*
X169280000Y-74420000D01*
X174330000Y-61692500D02*
X172497500Y-61692500D01*
X174330000Y-61692500D02*
X178802500Y-61692500D01*
X179560000Y-62450000D02*
X179560000Y-63940000D01*
X172150000Y-67070000D02*
X169280000Y-69940000D01*
D24*
%TO.N,GND*%
X218987000Y-86293000D02*
X218860000Y-86420000D01*
D22*
%TO.N,Net-(J4-Pad1)*%
X166470000Y-63710000D02*
X166470000Y-78320000D01*
X166470000Y-78320000D02*
X159760000Y-85030000D01*
X167960000Y-62220000D02*
X166470000Y-63710000D01*
X159760000Y-85030000D02*
X159760000Y-86520000D01*
X169280000Y-62220000D02*
X167960000Y-62220000D01*
%TO.N,Net-(J4-Pad2)*%
X160200000Y-76420000D02*
X154680000Y-81940000D01*
X154680000Y-81940000D02*
X154680000Y-86520000D01*
X163280000Y-76420000D02*
X160200000Y-76420000D01*
%TO.N,Net-(J5-Pad2)*%
X214690000Y-71970000D02*
X213780000Y-72880000D01*
X223280000Y-74420000D02*
X220830000Y-71970000D01*
X213780000Y-72880000D02*
X213780000Y-86420000D01*
X220830000Y-71970000D02*
X214690000Y-71970000D01*
%TO.N,Net-(LED1-A)*%
X201530000Y-63017500D02*
X201530000Y-65757500D01*
D24*
%TO.N,Net-(LED2-A)*%
X174340000Y-63277500D02*
X174330000Y-63267500D01*
D22*
X174340000Y-66347500D02*
X174340000Y-63277500D01*
%TD*%
M02*
