%TF.GenerationSoftware,KiCad,Pcbnew,7.0.2*%
%TF.CreationDate,2023-08-09T10:06:03-03:00*%
%TF.ProjectId,PCB_Incendio,5043425f-496e-4636-956e-64696f2e6b69,rev?*%
%TF.SameCoordinates,Original*%
%TF.FileFunction,Legend,Bot*%
%TF.FilePolarity,Positive*%
%FSLAX46Y46*%
G04 Gerber Fmt 4.6, Leading zero omitted, Abs format (unit mm)*
G04 Created by KiCad (PCBNEW 7.0.2) date 2023-08-09 10:06:03*
%MOMM*%
%LPD*%
G01*
G04 APERTURE LIST*
%ADD10C,0.010000*%
G04 APERTURE END LIST*
%TO.C,Ref\u002A\u002A*%
D10*
X222391887Y-66361196D02*
X222416347Y-66406413D01*
X222453846Y-66480155D01*
X222501774Y-66576931D01*
X222557517Y-66691248D01*
X222618464Y-66817615D01*
X222682004Y-66950541D01*
X222745523Y-67084534D01*
X222806410Y-67214102D01*
X222862053Y-67333755D01*
X222909841Y-67438000D01*
X222947161Y-67521346D01*
X222971401Y-67578302D01*
X222979949Y-67603375D01*
X222969342Y-67607236D01*
X222923087Y-67612017D01*
X222846510Y-67615824D01*
X222746597Y-67618340D01*
X222630333Y-67619250D01*
X222281083Y-67619250D01*
X222281403Y-67518708D01*
X222281828Y-67500682D01*
X222285258Y-67433824D01*
X222291676Y-67335856D01*
X222300538Y-67214382D01*
X222311299Y-67077007D01*
X222323417Y-66931333D01*
X222329798Y-66856307D01*
X222341152Y-66720073D01*
X222350916Y-66599346D01*
X222358566Y-66500794D01*
X222363579Y-66431081D01*
X222365430Y-66396875D01*
X222369504Y-66367221D01*
X222383448Y-66349250D01*
X222391887Y-66361196D01*
G36*
X222391887Y-66361196D02*
G01*
X222416347Y-66406413D01*
X222453846Y-66480155D01*
X222501774Y-66576931D01*
X222557517Y-66691248D01*
X222618464Y-66817615D01*
X222682004Y-66950541D01*
X222745523Y-67084534D01*
X222806410Y-67214102D01*
X222862053Y-67333755D01*
X222909841Y-67438000D01*
X222947161Y-67521346D01*
X222971401Y-67578302D01*
X222979949Y-67603375D01*
X222969342Y-67607236D01*
X222923087Y-67612017D01*
X222846510Y-67615824D01*
X222746597Y-67618340D01*
X222630333Y-67619250D01*
X222281083Y-67619250D01*
X222281403Y-67518708D01*
X222281828Y-67500682D01*
X222285258Y-67433824D01*
X222291676Y-67335856D01*
X222300538Y-67214382D01*
X222311299Y-67077007D01*
X222323417Y-66931333D01*
X222329798Y-66856307D01*
X222341152Y-66720073D01*
X222350916Y-66599346D01*
X222358566Y-66500794D01*
X222363579Y-66431081D01*
X222365430Y-66396875D01*
X222369504Y-66367221D01*
X222383448Y-66349250D01*
X222391887Y-66361196D01*
G37*
X233118417Y-67957917D02*
X232737417Y-67957917D01*
X232711946Y-67957927D01*
X232580727Y-67958539D01*
X232485521Y-67960420D01*
X232420908Y-67964022D01*
X232381466Y-67969796D01*
X232361776Y-67978193D01*
X232356417Y-67989667D01*
X232356542Y-67991789D01*
X232363891Y-68002724D01*
X232386464Y-68010658D01*
X232429684Y-68016042D01*
X232498968Y-68019329D01*
X232599739Y-68020970D01*
X232737417Y-68021417D01*
X233118417Y-68021417D01*
X233118417Y-68677583D01*
X232737417Y-68677583D01*
X232711946Y-68677594D01*
X232580727Y-68678206D01*
X232485521Y-68680087D01*
X232420908Y-68683689D01*
X232381466Y-68689462D01*
X232361776Y-68697860D01*
X232356417Y-68709333D01*
X232356542Y-68711456D01*
X232363891Y-68722391D01*
X232386464Y-68730324D01*
X232429684Y-68735709D01*
X232498968Y-68738996D01*
X232599739Y-68740637D01*
X232737417Y-68741083D01*
X233118417Y-68741083D01*
X233118417Y-69418417D01*
X218661583Y-69418417D01*
X218661583Y-68741083D01*
X219042583Y-68741083D01*
X219068054Y-68741073D01*
X219199273Y-68740460D01*
X219294479Y-68738579D01*
X219359093Y-68734978D01*
X219398535Y-68729204D01*
X219418225Y-68720806D01*
X219423583Y-68709333D01*
X219423458Y-68707211D01*
X219416110Y-68696276D01*
X219393536Y-68688342D01*
X219350317Y-68682957D01*
X219281032Y-68679671D01*
X219180261Y-68678030D01*
X219042583Y-68677583D01*
X218661583Y-68677583D01*
X218661583Y-68021417D01*
X219042583Y-68021417D01*
X219068054Y-68021406D01*
X219199273Y-68020794D01*
X219294479Y-68018913D01*
X219359093Y-68015311D01*
X219398535Y-68009537D01*
X219418225Y-68001140D01*
X219423583Y-67989667D01*
X219423458Y-67987544D01*
X219416110Y-67976609D01*
X219393536Y-67968675D01*
X219350317Y-67963291D01*
X219281032Y-67960004D01*
X219180261Y-67958363D01*
X219042583Y-67957917D01*
X218661583Y-67957917D01*
X218661583Y-67301750D01*
X219042583Y-67301750D01*
X219068054Y-67301739D01*
X219199273Y-67301127D01*
X219294479Y-67299246D01*
X219359093Y-67295644D01*
X219398535Y-67289871D01*
X219418225Y-67281473D01*
X219423583Y-67270000D01*
X219423458Y-67267877D01*
X219416110Y-67256942D01*
X219393536Y-67249009D01*
X219350317Y-67243624D01*
X219281032Y-67240337D01*
X219180261Y-67238696D01*
X219042583Y-67238250D01*
X218661583Y-67238250D01*
X218661583Y-66582083D01*
X219042583Y-66582083D01*
X219068054Y-66582073D01*
X219199273Y-66581460D01*
X219294479Y-66579579D01*
X219359093Y-66575978D01*
X219398535Y-66570204D01*
X219418225Y-66561806D01*
X219423583Y-66550333D01*
X219423458Y-66548211D01*
X219416110Y-66537276D01*
X219393536Y-66529342D01*
X219350317Y-66523957D01*
X219281032Y-66520671D01*
X219180261Y-66519030D01*
X219042583Y-66518583D01*
X218661583Y-66518583D01*
X218661583Y-65862417D01*
X219042583Y-65862417D01*
X219068054Y-65862406D01*
X219199273Y-65861794D01*
X219294479Y-65859913D01*
X219359093Y-65856311D01*
X219398535Y-65850537D01*
X219418225Y-65842140D01*
X219423583Y-65830667D01*
X219423458Y-65828544D01*
X219416110Y-65817609D01*
X219393536Y-65809675D01*
X219350317Y-65804291D01*
X219315221Y-65802626D01*
X219804583Y-65802626D01*
X219805992Y-65813956D01*
X219814005Y-65862984D01*
X219828310Y-65945390D01*
X219847994Y-66056054D01*
X219872142Y-66189859D01*
X219899841Y-66341686D01*
X219930179Y-66506418D01*
X219992610Y-66843962D01*
X220051235Y-67161124D01*
X220102939Y-67441092D01*
X220148132Y-67686138D01*
X220187230Y-67898533D01*
X220220644Y-68080550D01*
X220248787Y-68234459D01*
X220272073Y-68362534D01*
X220290914Y-68467044D01*
X220305723Y-68550263D01*
X220316914Y-68614462D01*
X220324899Y-68661912D01*
X220330092Y-68694885D01*
X220332904Y-68715654D01*
X220333750Y-68726489D01*
X220333983Y-68730618D01*
X220340231Y-68742792D01*
X220359407Y-68751403D01*
X220397391Y-68757051D01*
X220460065Y-68760341D01*
X220553308Y-68761873D01*
X220683000Y-68762250D01*
X220692625Y-68762247D01*
X220826819Y-68761340D01*
X220923456Y-68758579D01*
X220987010Y-68753627D01*
X221021953Y-68746143D01*
X221026405Y-68741878D01*
X221349750Y-68741878D01*
X221359314Y-68746966D01*
X221406108Y-68753319D01*
X221488058Y-68758132D01*
X221600901Y-68761183D01*
X221740374Y-68762250D01*
X222130999Y-68762250D01*
X222141713Y-68693458D01*
X222142281Y-68689734D01*
X222149392Y-68636490D01*
X222158725Y-68558864D01*
X222169071Y-68467926D01*
X222179222Y-68374744D01*
X222187969Y-68290389D01*
X222194103Y-68225929D01*
X222196417Y-68192434D01*
X222198802Y-68189300D01*
X222229558Y-68182040D01*
X222296926Y-68176499D01*
X222402331Y-68172617D01*
X222547195Y-68170331D01*
X222732944Y-68169583D01*
X223269470Y-68169583D01*
X223409787Y-68465917D01*
X223550104Y-68762250D01*
X223889260Y-68762250D01*
X223965275Y-68761866D01*
X224069781Y-68759922D01*
X224153193Y-68756617D01*
X224208431Y-68752265D01*
X224228417Y-68747180D01*
X224227493Y-68744686D01*
X224212118Y-68713090D01*
X224178963Y-68647779D01*
X224129517Y-68551613D01*
X224065268Y-68427456D01*
X223987704Y-68278167D01*
X223898315Y-68106610D01*
X223798589Y-67915646D01*
X223690013Y-67708137D01*
X223574077Y-67486944D01*
X223452269Y-67254930D01*
X222684166Y-65793059D01*
X223995581Y-65793059D01*
X223995706Y-65794532D01*
X224000696Y-65825792D01*
X224012254Y-65892278D01*
X224029411Y-65988576D01*
X224051195Y-66109267D01*
X224076636Y-66248936D01*
X224104762Y-66402167D01*
X224132838Y-66554643D01*
X224168008Y-66745771D01*
X224207518Y-66960580D01*
X224249680Y-67189901D01*
X224292811Y-67424566D01*
X224335223Y-67655405D01*
X224375231Y-67873250D01*
X224535694Y-68747180D01*
X224536517Y-68751667D01*
X225025659Y-68757342D01*
X225514801Y-68763018D01*
X225526216Y-68715009D01*
X225527436Y-68709491D01*
X225536254Y-68666859D01*
X225552205Y-68588162D01*
X225574471Y-68477488D01*
X225602234Y-68338923D01*
X225634675Y-68176554D01*
X225670977Y-67994470D01*
X225710321Y-67796756D01*
X225751890Y-67587500D01*
X225774401Y-67474097D01*
X225820049Y-67244359D01*
X225858464Y-67051581D01*
X225890331Y-66892587D01*
X225916334Y-66764204D01*
X225937157Y-66663257D01*
X225953486Y-66586571D01*
X225966004Y-66530972D01*
X225975397Y-66493285D01*
X225982348Y-66470337D01*
X225987542Y-66458952D01*
X225991664Y-66455957D01*
X225995398Y-66458176D01*
X225996889Y-66462862D01*
X226005416Y-66501775D01*
X226020461Y-66576769D01*
X226041285Y-66683962D01*
X226067151Y-66819477D01*
X226097321Y-66979433D01*
X226131058Y-67159953D01*
X226167623Y-67357156D01*
X226206279Y-67567164D01*
X226222161Y-67653710D01*
X226260270Y-67861024D01*
X226296038Y-68055115D01*
X226328711Y-68231923D01*
X226357536Y-68387388D01*
X226381760Y-68517451D01*
X226400628Y-68618052D01*
X226413387Y-68685130D01*
X226419283Y-68714625D01*
X226421660Y-68723850D01*
X226429467Y-68739744D01*
X226446295Y-68750508D01*
X226478808Y-68757143D01*
X226533666Y-68760646D01*
X226617533Y-68762015D01*
X226737070Y-68762250D01*
X226784233Y-68762061D01*
X226886627Y-68760222D01*
X226969116Y-68756737D01*
X227024225Y-68751993D01*
X227044478Y-68746375D01*
X227042346Y-68732081D01*
X227033257Y-68679213D01*
X227017587Y-68590666D01*
X226995942Y-68469796D01*
X226968930Y-68319960D01*
X226937158Y-68144515D01*
X226901232Y-67946818D01*
X226861760Y-67730225D01*
X226819348Y-67498092D01*
X226774603Y-67253778D01*
X226503882Y-65777324D01*
X226932734Y-65777324D01*
X226944411Y-65835745D01*
X226949105Y-65860387D01*
X226961016Y-65925953D01*
X226976545Y-66013553D01*
X226993540Y-66111125D01*
X227030992Y-66328083D01*
X227648529Y-66328083D01*
X227782332Y-66328290D01*
X227945424Y-66329411D01*
X228072178Y-66331638D01*
X228166153Y-66335116D01*
X228230910Y-66339995D01*
X228270008Y-66346421D01*
X228287008Y-66354542D01*
X228287776Y-66355641D01*
X228299729Y-66388975D01*
X228316143Y-66454375D01*
X228334958Y-66542893D01*
X228354108Y-66645583D01*
X228355466Y-66653355D01*
X228373872Y-66756594D01*
X228390492Y-66846235D01*
X228403550Y-66912898D01*
X228411269Y-66947208D01*
X228412495Y-66952944D01*
X228409788Y-66962668D01*
X228396391Y-66970147D01*
X228367782Y-66975674D01*
X228319441Y-66979541D01*
X228246848Y-66982039D01*
X228145484Y-66983462D01*
X228010826Y-66984102D01*
X227838357Y-66984250D01*
X227254444Y-66984250D01*
X227264756Y-67031875D01*
X227267400Y-67044777D01*
X227277911Y-67100106D01*
X227292374Y-67179375D01*
X227308478Y-67270000D01*
X227315489Y-67309441D01*
X227331212Y-67394208D01*
X227344454Y-67460842D01*
X227352912Y-67497542D01*
X227354119Y-67500981D01*
X227361967Y-67511286D01*
X227379087Y-67519252D01*
X227410200Y-67525176D01*
X227460031Y-67529356D01*
X227533303Y-67532089D01*
X227634737Y-67533673D01*
X227769059Y-67534405D01*
X227940990Y-67534583D01*
X228518043Y-67534583D01*
X228575486Y-67852612D01*
X228585773Y-67911108D01*
X228602789Y-68016408D01*
X228614876Y-68103365D01*
X228621011Y-68164236D01*
X228620173Y-68191278D01*
X228604842Y-68196067D01*
X228549841Y-68201492D01*
X228458150Y-68205895D01*
X228332959Y-68209170D01*
X228177457Y-68211212D01*
X227994834Y-68211917D01*
X227954374Y-68211951D01*
X227801558Y-68212732D01*
X227664816Y-68214438D01*
X227549399Y-68216933D01*
X227460560Y-68220082D01*
X227403550Y-68223747D01*
X227383621Y-68227792D01*
X227383642Y-68228019D01*
X227388083Y-68255058D01*
X227398741Y-68314777D01*
X227414053Y-68398529D01*
X227432455Y-68497667D01*
X227478930Y-68746375D01*
X227479918Y-68751667D01*
X228460063Y-68757171D01*
X229440208Y-68762676D01*
X229427899Y-68693671D01*
X229425436Y-68680060D01*
X229415392Y-68625057D01*
X229398699Y-68533918D01*
X229376007Y-68410182D01*
X229347968Y-68257390D01*
X229315230Y-68079080D01*
X229278445Y-67878793D01*
X229238263Y-67660068D01*
X229195333Y-67426445D01*
X229150306Y-67181463D01*
X229103833Y-66928664D01*
X229056563Y-66671585D01*
X229018291Y-66463484D01*
X229541291Y-66463484D01*
X229542757Y-66536404D01*
X229551868Y-66586852D01*
X229574396Y-66618932D01*
X229616115Y-66636744D01*
X229682796Y-66644389D01*
X229780212Y-66645968D01*
X229914136Y-66645583D01*
X230260917Y-66645583D01*
X230260917Y-66559865D01*
X230264058Y-66507136D01*
X230293774Y-66409963D01*
X230355047Y-66340815D01*
X230448116Y-66299481D01*
X230573222Y-66285750D01*
X230604255Y-66286795D01*
X230716608Y-66309306D01*
X230812016Y-66356717D01*
X230886472Y-66423111D01*
X230935970Y-66502573D01*
X230956502Y-66589189D01*
X230944061Y-66677043D01*
X230894640Y-66760220D01*
X230887941Y-66767657D01*
X230849391Y-66803296D01*
X230800292Y-66835600D01*
X230734521Y-66867215D01*
X230645956Y-66900787D01*
X230528476Y-66938961D01*
X230375957Y-66984384D01*
X230200434Y-67041594D01*
X230032399Y-67114730D01*
X229901270Y-67197456D01*
X229804243Y-67292622D01*
X229738514Y-67403074D01*
X229701277Y-67531660D01*
X229689730Y-67681229D01*
X229690042Y-67708048D01*
X229712610Y-67919560D01*
X229771715Y-68110874D01*
X229868622Y-68285059D01*
X230004598Y-68445185D01*
X230029875Y-68469595D01*
X230185818Y-68595231D01*
X230357929Y-68690550D01*
X230557401Y-68761967D01*
X230560058Y-68762676D01*
X230586440Y-68769718D01*
X230755784Y-68800257D01*
X230959417Y-68815925D01*
X231160836Y-68815151D01*
X231373126Y-68791198D01*
X231552915Y-68741707D01*
X231701185Y-68666284D01*
X231818914Y-68564537D01*
X231907085Y-68436072D01*
X231931384Y-68384931D01*
X231948549Y-68333625D01*
X231959626Y-68272968D01*
X231966599Y-68191966D01*
X231971455Y-68079625D01*
X231979876Y-67830917D01*
X231282839Y-67830917D01*
X231270406Y-67951380D01*
X231257100Y-68027414D01*
X231213077Y-68128326D01*
X231140441Y-68199002D01*
X231037807Y-68240585D01*
X230903793Y-68254217D01*
X230863922Y-68253139D01*
X230725494Y-68229910D01*
X230611252Y-68178695D01*
X230524973Y-68102555D01*
X230470436Y-68004549D01*
X230451417Y-67887739D01*
X230452894Y-67852377D01*
X230467904Y-67784779D01*
X230502700Y-67727411D01*
X230561704Y-67676998D01*
X230649334Y-67630269D01*
X230770010Y-67583951D01*
X230928154Y-67534772D01*
X231105002Y-67479214D01*
X231281964Y-67410696D01*
X231423380Y-67338159D01*
X231532958Y-67259300D01*
X231614403Y-67171821D01*
X231671423Y-67073420D01*
X231675389Y-67063753D01*
X231697083Y-66975287D01*
X231707425Y-66862294D01*
X231706436Y-66739017D01*
X231694138Y-66619699D01*
X231670555Y-66518583D01*
X231608282Y-66362811D01*
X231500368Y-66178959D01*
X231364939Y-66026477D01*
X231201348Y-65904910D01*
X231008950Y-65813806D01*
X230787099Y-65752711D01*
X230535151Y-65721172D01*
X230517493Y-65720135D01*
X230299204Y-65721592D01*
X230102304Y-65749806D01*
X229929939Y-65803496D01*
X229785252Y-65881387D01*
X229671389Y-65982200D01*
X229591493Y-66104656D01*
X229582089Y-66125667D01*
X229557572Y-66197533D01*
X229545157Y-66276909D01*
X229541746Y-66381000D01*
X229541291Y-66463484D01*
X229018291Y-66463484D01*
X229009147Y-66413767D01*
X228962236Y-66158750D01*
X228894087Y-65788333D01*
X227913410Y-65782828D01*
X226932734Y-65777324D01*
X226503882Y-65777324D01*
X226503833Y-65777056D01*
X226007560Y-65782694D01*
X225511287Y-65788333D01*
X225283714Y-66896707D01*
X225262427Y-67000216D01*
X225220114Y-67204973D01*
X225180542Y-67395151D01*
X225144529Y-67566906D01*
X225112888Y-67716397D01*
X225086438Y-67839779D01*
X225065992Y-67933210D01*
X225052367Y-67992846D01*
X225046378Y-68014844D01*
X225046296Y-68014925D01*
X225041625Y-68017008D01*
X225036498Y-68011445D01*
X225030127Y-67994458D01*
X225021725Y-67962269D01*
X225010504Y-67911098D01*
X224995678Y-67837166D01*
X224976459Y-67736694D01*
X224952059Y-67605904D01*
X224921691Y-67441015D01*
X224884567Y-67238250D01*
X224871827Y-67168600D01*
X224836614Y-66976401D01*
X224800938Y-66782090D01*
X224766412Y-66594417D01*
X224734647Y-66422134D01*
X224707253Y-66273995D01*
X224685842Y-66158750D01*
X224616755Y-65788333D01*
X224306169Y-65782476D01*
X224255237Y-65781738D01*
X224152727Y-65781743D01*
X224070353Y-65783799D01*
X224015506Y-65787655D01*
X223995581Y-65793059D01*
X222684166Y-65793059D01*
X222676122Y-65777750D01*
X221818780Y-65777750D01*
X221806657Y-65835958D01*
X221801453Y-65865538D01*
X221790389Y-65932613D01*
X221774216Y-66032571D01*
X221753585Y-66161261D01*
X221729150Y-66314534D01*
X221701563Y-66488240D01*
X221671477Y-66678230D01*
X221639543Y-66880355D01*
X221606414Y-67090464D01*
X221572743Y-67304409D01*
X221539183Y-67518039D01*
X221506385Y-67727205D01*
X221475002Y-67927757D01*
X221445687Y-68115546D01*
X221419091Y-68286423D01*
X221395868Y-68436237D01*
X221376670Y-68560839D01*
X221362150Y-68656080D01*
X221352959Y-68717809D01*
X221350561Y-68735792D01*
X221349750Y-68741878D01*
X221026405Y-68741878D01*
X221032758Y-68735792D01*
X221030812Y-68721627D01*
X221021939Y-68668629D01*
X221006448Y-68579887D01*
X220984950Y-68458800D01*
X220958057Y-68308772D01*
X220926383Y-68133202D01*
X220890540Y-67935493D01*
X220851140Y-67719046D01*
X220808795Y-67487261D01*
X220764117Y-67243542D01*
X220494968Y-65777750D01*
X220149776Y-65777750D01*
X220048458Y-65778215D01*
X219936496Y-65780632D01*
X219860871Y-65785337D01*
X219818070Y-65792584D01*
X219804583Y-65802626D01*
X219315221Y-65802626D01*
X219281032Y-65801004D01*
X219180261Y-65799363D01*
X219042583Y-65798917D01*
X218661583Y-65798917D01*
X218661583Y-65121583D01*
X233118417Y-65121583D01*
X233118417Y-65798917D01*
X232737417Y-65798917D01*
X232711946Y-65798927D01*
X232580727Y-65799539D01*
X232485521Y-65801420D01*
X232420908Y-65805022D01*
X232381466Y-65810796D01*
X232361776Y-65819193D01*
X232356417Y-65830667D01*
X232356542Y-65832789D01*
X232363891Y-65843724D01*
X232386464Y-65851658D01*
X232429684Y-65857042D01*
X232498968Y-65860329D01*
X232599739Y-65861970D01*
X232737417Y-65862417D01*
X233118417Y-65862417D01*
X233118417Y-66518583D01*
X232737417Y-66518583D01*
X232711946Y-66518594D01*
X232580727Y-66519206D01*
X232485521Y-66521087D01*
X232420908Y-66524689D01*
X232381466Y-66530462D01*
X232361776Y-66538860D01*
X232356417Y-66550333D01*
X232356542Y-66552456D01*
X232363891Y-66563391D01*
X232386464Y-66571324D01*
X232429684Y-66576709D01*
X232498968Y-66579996D01*
X232599739Y-66581637D01*
X232737417Y-66582083D01*
X233118417Y-66582083D01*
X233118417Y-67238250D01*
X232737417Y-67238250D01*
X232711946Y-67238260D01*
X232580727Y-67238873D01*
X232485521Y-67240754D01*
X232420908Y-67244355D01*
X232381466Y-67250129D01*
X232361776Y-67258527D01*
X232356417Y-67270000D01*
X232356542Y-67272122D01*
X232363891Y-67283057D01*
X232386464Y-67290991D01*
X232429684Y-67296376D01*
X232498968Y-67299662D01*
X232599739Y-67301303D01*
X232737417Y-67301750D01*
X233118417Y-67301750D01*
X233118417Y-67830917D01*
X233118417Y-67957917D01*
G36*
X233118417Y-67957917D02*
G01*
X232737417Y-67957917D01*
X232711946Y-67957927D01*
X232580727Y-67958539D01*
X232485521Y-67960420D01*
X232420908Y-67964022D01*
X232381466Y-67969796D01*
X232361776Y-67978193D01*
X232356417Y-67989667D01*
X232356542Y-67991789D01*
X232363891Y-68002724D01*
X232386464Y-68010658D01*
X232429684Y-68016042D01*
X232498968Y-68019329D01*
X232599739Y-68020970D01*
X232737417Y-68021417D01*
X233118417Y-68021417D01*
X233118417Y-68677583D01*
X232737417Y-68677583D01*
X232711946Y-68677594D01*
X232580727Y-68678206D01*
X232485521Y-68680087D01*
X232420908Y-68683689D01*
X232381466Y-68689462D01*
X232361776Y-68697860D01*
X232356417Y-68709333D01*
X232356542Y-68711456D01*
X232363891Y-68722391D01*
X232386464Y-68730324D01*
X232429684Y-68735709D01*
X232498968Y-68738996D01*
X232599739Y-68740637D01*
X232737417Y-68741083D01*
X233118417Y-68741083D01*
X233118417Y-69418417D01*
X218661583Y-69418417D01*
X218661583Y-68741083D01*
X219042583Y-68741083D01*
X219068054Y-68741073D01*
X219199273Y-68740460D01*
X219294479Y-68738579D01*
X219359093Y-68734978D01*
X219398535Y-68729204D01*
X219418225Y-68720806D01*
X219423583Y-68709333D01*
X219423458Y-68707211D01*
X219416110Y-68696276D01*
X219393536Y-68688342D01*
X219350317Y-68682957D01*
X219281032Y-68679671D01*
X219180261Y-68678030D01*
X219042583Y-68677583D01*
X218661583Y-68677583D01*
X218661583Y-68021417D01*
X219042583Y-68021417D01*
X219068054Y-68021406D01*
X219199273Y-68020794D01*
X219294479Y-68018913D01*
X219359093Y-68015311D01*
X219398535Y-68009537D01*
X219418225Y-68001140D01*
X219423583Y-67989667D01*
X219423458Y-67987544D01*
X219416110Y-67976609D01*
X219393536Y-67968675D01*
X219350317Y-67963291D01*
X219281032Y-67960004D01*
X219180261Y-67958363D01*
X219042583Y-67957917D01*
X218661583Y-67957917D01*
X218661583Y-67301750D01*
X219042583Y-67301750D01*
X219068054Y-67301739D01*
X219199273Y-67301127D01*
X219294479Y-67299246D01*
X219359093Y-67295644D01*
X219398535Y-67289871D01*
X219418225Y-67281473D01*
X219423583Y-67270000D01*
X219423458Y-67267877D01*
X219416110Y-67256942D01*
X219393536Y-67249009D01*
X219350317Y-67243624D01*
X219281032Y-67240337D01*
X219180261Y-67238696D01*
X219042583Y-67238250D01*
X218661583Y-67238250D01*
X218661583Y-66582083D01*
X219042583Y-66582083D01*
X219068054Y-66582073D01*
X219199273Y-66581460D01*
X219294479Y-66579579D01*
X219359093Y-66575978D01*
X219398535Y-66570204D01*
X219418225Y-66561806D01*
X219423583Y-66550333D01*
X219423458Y-66548211D01*
X219416110Y-66537276D01*
X219393536Y-66529342D01*
X219350317Y-66523957D01*
X219281032Y-66520671D01*
X219180261Y-66519030D01*
X219042583Y-66518583D01*
X218661583Y-66518583D01*
X218661583Y-65862417D01*
X219042583Y-65862417D01*
X219068054Y-65862406D01*
X219199273Y-65861794D01*
X219294479Y-65859913D01*
X219359093Y-65856311D01*
X219398535Y-65850537D01*
X219418225Y-65842140D01*
X219423583Y-65830667D01*
X219423458Y-65828544D01*
X219416110Y-65817609D01*
X219393536Y-65809675D01*
X219350317Y-65804291D01*
X219315221Y-65802626D01*
X219804583Y-65802626D01*
X219805992Y-65813956D01*
X219814005Y-65862984D01*
X219828310Y-65945390D01*
X219847994Y-66056054D01*
X219872142Y-66189859D01*
X219899841Y-66341686D01*
X219930179Y-66506418D01*
X219992610Y-66843962D01*
X220051235Y-67161124D01*
X220102939Y-67441092D01*
X220148132Y-67686138D01*
X220187230Y-67898533D01*
X220220644Y-68080550D01*
X220248787Y-68234459D01*
X220272073Y-68362534D01*
X220290914Y-68467044D01*
X220305723Y-68550263D01*
X220316914Y-68614462D01*
X220324899Y-68661912D01*
X220330092Y-68694885D01*
X220332904Y-68715654D01*
X220333750Y-68726489D01*
X220333983Y-68730618D01*
X220340231Y-68742792D01*
X220359407Y-68751403D01*
X220397391Y-68757051D01*
X220460065Y-68760341D01*
X220553308Y-68761873D01*
X220683000Y-68762250D01*
X220692625Y-68762247D01*
X220826819Y-68761340D01*
X220923456Y-68758579D01*
X220987010Y-68753627D01*
X221021953Y-68746143D01*
X221026405Y-68741878D01*
X221349750Y-68741878D01*
X221359314Y-68746966D01*
X221406108Y-68753319D01*
X221488058Y-68758132D01*
X221600901Y-68761183D01*
X221740374Y-68762250D01*
X222130999Y-68762250D01*
X222141713Y-68693458D01*
X222142281Y-68689734D01*
X222149392Y-68636490D01*
X222158725Y-68558864D01*
X222169071Y-68467926D01*
X222179222Y-68374744D01*
X222187969Y-68290389D01*
X222194103Y-68225929D01*
X222196417Y-68192434D01*
X222198802Y-68189300D01*
X222229558Y-68182040D01*
X222296926Y-68176499D01*
X222402331Y-68172617D01*
X222547195Y-68170331D01*
X222732944Y-68169583D01*
X223269470Y-68169583D01*
X223409787Y-68465917D01*
X223550104Y-68762250D01*
X223889260Y-68762250D01*
X223965275Y-68761866D01*
X224069781Y-68759922D01*
X224153193Y-68756617D01*
X224208431Y-68752265D01*
X224228417Y-68747180D01*
X224227493Y-68744686D01*
X224212118Y-68713090D01*
X224178963Y-68647779D01*
X224129517Y-68551613D01*
X224065268Y-68427456D01*
X223987704Y-68278167D01*
X223898315Y-68106610D01*
X223798589Y-67915646D01*
X223690013Y-67708137D01*
X223574077Y-67486944D01*
X223452269Y-67254930D01*
X222684166Y-65793059D01*
X223995581Y-65793059D01*
X223995706Y-65794532D01*
X224000696Y-65825792D01*
X224012254Y-65892278D01*
X224029411Y-65988576D01*
X224051195Y-66109267D01*
X224076636Y-66248936D01*
X224104762Y-66402167D01*
X224132838Y-66554643D01*
X224168008Y-66745771D01*
X224207518Y-66960580D01*
X224249680Y-67189901D01*
X224292811Y-67424566D01*
X224335223Y-67655405D01*
X224375231Y-67873250D01*
X224535694Y-68747180D01*
X224536517Y-68751667D01*
X225025659Y-68757342D01*
X225514801Y-68763018D01*
X225526216Y-68715009D01*
X225527436Y-68709491D01*
X225536254Y-68666859D01*
X225552205Y-68588162D01*
X225574471Y-68477488D01*
X225602234Y-68338923D01*
X225634675Y-68176554D01*
X225670977Y-67994470D01*
X225710321Y-67796756D01*
X225751890Y-67587500D01*
X225774401Y-67474097D01*
X225820049Y-67244359D01*
X225858464Y-67051581D01*
X225890331Y-66892587D01*
X225916334Y-66764204D01*
X225937157Y-66663257D01*
X225953486Y-66586571D01*
X225966004Y-66530972D01*
X225975397Y-66493285D01*
X225982348Y-66470337D01*
X225987542Y-66458952D01*
X225991664Y-66455957D01*
X225995398Y-66458176D01*
X225996889Y-66462862D01*
X226005416Y-66501775D01*
X226020461Y-66576769D01*
X226041285Y-66683962D01*
X226067151Y-66819477D01*
X226097321Y-66979433D01*
X226131058Y-67159953D01*
X226167623Y-67357156D01*
X226206279Y-67567164D01*
X226222161Y-67653710D01*
X226260270Y-67861024D01*
X226296038Y-68055115D01*
X226328711Y-68231923D01*
X226357536Y-68387388D01*
X226381760Y-68517451D01*
X226400628Y-68618052D01*
X226413387Y-68685130D01*
X226419283Y-68714625D01*
X226421660Y-68723850D01*
X226429467Y-68739744D01*
X226446295Y-68750508D01*
X226478808Y-68757143D01*
X226533666Y-68760646D01*
X226617533Y-68762015D01*
X226737070Y-68762250D01*
X226784233Y-68762061D01*
X226886627Y-68760222D01*
X226969116Y-68756737D01*
X227024225Y-68751993D01*
X227044478Y-68746375D01*
X227042346Y-68732081D01*
X227033257Y-68679213D01*
X227017587Y-68590666D01*
X226995942Y-68469796D01*
X226968930Y-68319960D01*
X226937158Y-68144515D01*
X226901232Y-67946818D01*
X226861760Y-67730225D01*
X226819348Y-67498092D01*
X226774603Y-67253778D01*
X226503882Y-65777324D01*
X226932734Y-65777324D01*
X226944411Y-65835745D01*
X226949105Y-65860387D01*
X226961016Y-65925953D01*
X226976545Y-66013553D01*
X226993540Y-66111125D01*
X227030992Y-66328083D01*
X227648529Y-66328083D01*
X227782332Y-66328290D01*
X227945424Y-66329411D01*
X228072178Y-66331638D01*
X228166153Y-66335116D01*
X228230910Y-66339995D01*
X228270008Y-66346421D01*
X228287008Y-66354542D01*
X228287776Y-66355641D01*
X228299729Y-66388975D01*
X228316143Y-66454375D01*
X228334958Y-66542893D01*
X228354108Y-66645583D01*
X228355466Y-66653355D01*
X228373872Y-66756594D01*
X228390492Y-66846235D01*
X228403550Y-66912898D01*
X228411269Y-66947208D01*
X228412495Y-66952944D01*
X228409788Y-66962668D01*
X228396391Y-66970147D01*
X228367782Y-66975674D01*
X228319441Y-66979541D01*
X228246848Y-66982039D01*
X228145484Y-66983462D01*
X228010826Y-66984102D01*
X227838357Y-66984250D01*
X227254444Y-66984250D01*
X227264756Y-67031875D01*
X227267400Y-67044777D01*
X227277911Y-67100106D01*
X227292374Y-67179375D01*
X227308478Y-67270000D01*
X227315489Y-67309441D01*
X227331212Y-67394208D01*
X227344454Y-67460842D01*
X227352912Y-67497542D01*
X227354119Y-67500981D01*
X227361967Y-67511286D01*
X227379087Y-67519252D01*
X227410200Y-67525176D01*
X227460031Y-67529356D01*
X227533303Y-67532089D01*
X227634737Y-67533673D01*
X227769059Y-67534405D01*
X227940990Y-67534583D01*
X228518043Y-67534583D01*
X228575486Y-67852612D01*
X228585773Y-67911108D01*
X228602789Y-68016408D01*
X228614876Y-68103365D01*
X228621011Y-68164236D01*
X228620173Y-68191278D01*
X228604842Y-68196067D01*
X228549841Y-68201492D01*
X228458150Y-68205895D01*
X228332959Y-68209170D01*
X228177457Y-68211212D01*
X227994834Y-68211917D01*
X227954374Y-68211951D01*
X227801558Y-68212732D01*
X227664816Y-68214438D01*
X227549399Y-68216933D01*
X227460560Y-68220082D01*
X227403550Y-68223747D01*
X227383621Y-68227792D01*
X227383642Y-68228019D01*
X227388083Y-68255058D01*
X227398741Y-68314777D01*
X227414053Y-68398529D01*
X227432455Y-68497667D01*
X227478930Y-68746375D01*
X227479918Y-68751667D01*
X228460063Y-68757171D01*
X229440208Y-68762676D01*
X229427899Y-68693671D01*
X229425436Y-68680060D01*
X229415392Y-68625057D01*
X229398699Y-68533918D01*
X229376007Y-68410182D01*
X229347968Y-68257390D01*
X229315230Y-68079080D01*
X229278445Y-67878793D01*
X229238263Y-67660068D01*
X229195333Y-67426445D01*
X229150306Y-67181463D01*
X229103833Y-66928664D01*
X229056563Y-66671585D01*
X229018291Y-66463484D01*
X229541291Y-66463484D01*
X229542757Y-66536404D01*
X229551868Y-66586852D01*
X229574396Y-66618932D01*
X229616115Y-66636744D01*
X229682796Y-66644389D01*
X229780212Y-66645968D01*
X229914136Y-66645583D01*
X230260917Y-66645583D01*
X230260917Y-66559865D01*
X230264058Y-66507136D01*
X230293774Y-66409963D01*
X230355047Y-66340815D01*
X230448116Y-66299481D01*
X230573222Y-66285750D01*
X230604255Y-66286795D01*
X230716608Y-66309306D01*
X230812016Y-66356717D01*
X230886472Y-66423111D01*
X230935970Y-66502573D01*
X230956502Y-66589189D01*
X230944061Y-66677043D01*
X230894640Y-66760220D01*
X230887941Y-66767657D01*
X230849391Y-66803296D01*
X230800292Y-66835600D01*
X230734521Y-66867215D01*
X230645956Y-66900787D01*
X230528476Y-66938961D01*
X230375957Y-66984384D01*
X230200434Y-67041594D01*
X230032399Y-67114730D01*
X229901270Y-67197456D01*
X229804243Y-67292622D01*
X229738514Y-67403074D01*
X229701277Y-67531660D01*
X229689730Y-67681229D01*
X229690042Y-67708048D01*
X229712610Y-67919560D01*
X229771715Y-68110874D01*
X229868622Y-68285059D01*
X230004598Y-68445185D01*
X230029875Y-68469595D01*
X230185818Y-68595231D01*
X230357929Y-68690550D01*
X230557401Y-68761967D01*
X230560058Y-68762676D01*
X230586440Y-68769718D01*
X230755784Y-68800257D01*
X230959417Y-68815925D01*
X231160836Y-68815151D01*
X231373126Y-68791198D01*
X231552915Y-68741707D01*
X231701185Y-68666284D01*
X231818914Y-68564537D01*
X231907085Y-68436072D01*
X231931384Y-68384931D01*
X231948549Y-68333625D01*
X231959626Y-68272968D01*
X231966599Y-68191966D01*
X231971455Y-68079625D01*
X231979876Y-67830917D01*
X231282839Y-67830917D01*
X231270406Y-67951380D01*
X231257100Y-68027414D01*
X231213077Y-68128326D01*
X231140441Y-68199002D01*
X231037807Y-68240585D01*
X230903793Y-68254217D01*
X230863922Y-68253139D01*
X230725494Y-68229910D01*
X230611252Y-68178695D01*
X230524973Y-68102555D01*
X230470436Y-68004549D01*
X230451417Y-67887739D01*
X230452894Y-67852377D01*
X230467904Y-67784779D01*
X230502700Y-67727411D01*
X230561704Y-67676998D01*
X230649334Y-67630269D01*
X230770010Y-67583951D01*
X230928154Y-67534772D01*
X231105002Y-67479214D01*
X231281964Y-67410696D01*
X231423380Y-67338159D01*
X231532958Y-67259300D01*
X231614403Y-67171821D01*
X231671423Y-67073420D01*
X231675389Y-67063753D01*
X231697083Y-66975287D01*
X231707425Y-66862294D01*
X231706436Y-66739017D01*
X231694138Y-66619699D01*
X231670555Y-66518583D01*
X231608282Y-66362811D01*
X231500368Y-66178959D01*
X231364939Y-66026477D01*
X231201348Y-65904910D01*
X231008950Y-65813806D01*
X230787099Y-65752711D01*
X230535151Y-65721172D01*
X230517493Y-65720135D01*
X230299204Y-65721592D01*
X230102304Y-65749806D01*
X229929939Y-65803496D01*
X229785252Y-65881387D01*
X229671389Y-65982200D01*
X229591493Y-66104656D01*
X229582089Y-66125667D01*
X229557572Y-66197533D01*
X229545157Y-66276909D01*
X229541746Y-66381000D01*
X229541291Y-66463484D01*
X229018291Y-66463484D01*
X229009147Y-66413767D01*
X228962236Y-66158750D01*
X228894087Y-65788333D01*
X227913410Y-65782828D01*
X226932734Y-65777324D01*
X226503882Y-65777324D01*
X226503833Y-65777056D01*
X226007560Y-65782694D01*
X225511287Y-65788333D01*
X225283714Y-66896707D01*
X225262427Y-67000216D01*
X225220114Y-67204973D01*
X225180542Y-67395151D01*
X225144529Y-67566906D01*
X225112888Y-67716397D01*
X225086438Y-67839779D01*
X225065992Y-67933210D01*
X225052367Y-67992846D01*
X225046378Y-68014844D01*
X225046296Y-68014925D01*
X225041625Y-68017008D01*
X225036498Y-68011445D01*
X225030127Y-67994458D01*
X225021725Y-67962269D01*
X225010504Y-67911098D01*
X224995678Y-67837166D01*
X224976459Y-67736694D01*
X224952059Y-67605904D01*
X224921691Y-67441015D01*
X224884567Y-67238250D01*
X224871827Y-67168600D01*
X224836614Y-66976401D01*
X224800938Y-66782090D01*
X224766412Y-66594417D01*
X224734647Y-66422134D01*
X224707253Y-66273995D01*
X224685842Y-66158750D01*
X224616755Y-65788333D01*
X224306169Y-65782476D01*
X224255237Y-65781738D01*
X224152727Y-65781743D01*
X224070353Y-65783799D01*
X224015506Y-65787655D01*
X223995581Y-65793059D01*
X222684166Y-65793059D01*
X222676122Y-65777750D01*
X221818780Y-65777750D01*
X221806657Y-65835958D01*
X221801453Y-65865538D01*
X221790389Y-65932613D01*
X221774216Y-66032571D01*
X221753585Y-66161261D01*
X221729150Y-66314534D01*
X221701563Y-66488240D01*
X221671477Y-66678230D01*
X221639543Y-66880355D01*
X221606414Y-67090464D01*
X221572743Y-67304409D01*
X221539183Y-67518039D01*
X221506385Y-67727205D01*
X221475002Y-67927757D01*
X221445687Y-68115546D01*
X221419091Y-68286423D01*
X221395868Y-68436237D01*
X221376670Y-68560839D01*
X221362150Y-68656080D01*
X221352959Y-68717809D01*
X221350561Y-68735792D01*
X221349750Y-68741878D01*
X221026405Y-68741878D01*
X221032758Y-68735792D01*
X221030812Y-68721627D01*
X221021939Y-68668629D01*
X221006448Y-68579887D01*
X220984950Y-68458800D01*
X220958057Y-68308772D01*
X220926383Y-68133202D01*
X220890540Y-67935493D01*
X220851140Y-67719046D01*
X220808795Y-67487261D01*
X220764117Y-67243542D01*
X220494968Y-65777750D01*
X220149776Y-65777750D01*
X220048458Y-65778215D01*
X219936496Y-65780632D01*
X219860871Y-65785337D01*
X219818070Y-65792584D01*
X219804583Y-65802626D01*
X219315221Y-65802626D01*
X219281032Y-65801004D01*
X219180261Y-65799363D01*
X219042583Y-65798917D01*
X218661583Y-65798917D01*
X218661583Y-65121583D01*
X233118417Y-65121583D01*
X233118417Y-65798917D01*
X232737417Y-65798917D01*
X232711946Y-65798927D01*
X232580727Y-65799539D01*
X232485521Y-65801420D01*
X232420908Y-65805022D01*
X232381466Y-65810796D01*
X232361776Y-65819193D01*
X232356417Y-65830667D01*
X232356542Y-65832789D01*
X232363891Y-65843724D01*
X232386464Y-65851658D01*
X232429684Y-65857042D01*
X232498968Y-65860329D01*
X232599739Y-65861970D01*
X232737417Y-65862417D01*
X233118417Y-65862417D01*
X233118417Y-66518583D01*
X232737417Y-66518583D01*
X232711946Y-66518594D01*
X232580727Y-66519206D01*
X232485521Y-66521087D01*
X232420908Y-66524689D01*
X232381466Y-66530462D01*
X232361776Y-66538860D01*
X232356417Y-66550333D01*
X232356542Y-66552456D01*
X232363891Y-66563391D01*
X232386464Y-66571324D01*
X232429684Y-66576709D01*
X232498968Y-66579996D01*
X232599739Y-66581637D01*
X232737417Y-66582083D01*
X233118417Y-66582083D01*
X233118417Y-67238250D01*
X232737417Y-67238250D01*
X232711946Y-67238260D01*
X232580727Y-67238873D01*
X232485521Y-67240754D01*
X232420908Y-67244355D01*
X232381466Y-67250129D01*
X232361776Y-67258527D01*
X232356417Y-67270000D01*
X232356542Y-67272122D01*
X232363891Y-67283057D01*
X232386464Y-67290991D01*
X232429684Y-67296376D01*
X232498968Y-67299662D01*
X232599739Y-67301303D01*
X232737417Y-67301750D01*
X233118417Y-67301750D01*
X233118417Y-67830917D01*
X233118417Y-67957917D01*
G37*
%TD*%
M02*
