M48
; DRILL file {KiCad 7.0.2} date Thu Jun 22 14:29:21 2023
; FORMAT={-:-/ absolute / inch / decimal}
; #@! TF.CreationDate,2023-06-22T14:29:21-03:00
; #@! TF.GenerationSoftware,Kicad,Pcbnew,7.0.2
; #@! TF.FileFunction,Plated,1,2,PTH
FMAT,2
INCH
; #@! TA.AperFunction,Plated,PTH,ViaDrill
T1C0.0118
; #@! TA.AperFunction,Plated,PTH,ComponentDrill
T2C0.0197
; #@! TA.AperFunction,Plated,PTH,ComponentDrill
T3C0.0300
; #@! TA.AperFunction,Plated,PTH,ComponentDrill
T4C0.0315
; #@! TA.AperFunction,Plated,PTH,ComponentDrill
T5C0.0354
; #@! TA.AperFunction,Plated,PTH,ComponentDrill
T6C0.0472
; #@! TA.AperFunction,Plated,PTH,ComponentDrill
T7C0.1378
%
G90
G05
T1
X2.7447Y-3.2659
X2.7961Y-3.4012
X2.8329Y-3.0955
X2.9083Y-2.8571
X2.9228Y-3.4429
X3.5925Y-3.9685
X3.7177Y-3.8429
X4.6268Y-3.6441
X4.6717Y-3.489
X4.6772Y-2.6331
X5.0055Y-2.7843
T2
X2.062Y-3.0512
X2.0923Y-2.9781
X2.0923Y-3.1243
X2.1654Y-2.9478
X2.1654Y-3.1545
X2.2384Y-2.9781
X2.2384Y-3.1243
X2.2687Y-3.0512
X5.2116Y-3.0512
X5.2419Y-2.9781
X5.2419Y-3.1243
X5.315Y-2.9478
X5.315Y-3.1545
X5.388Y-2.9781
X5.388Y-3.1243
X5.4183Y-3.0512
T3
X2.1228Y-3.7795
X2.3228Y-3.7795
X2.5228Y-3.7795
X2.7228Y-3.7795
X2.9228Y-3.7795
X4.3638Y-3.7795
X4.5638Y-3.7795
X4.7638Y-3.7795
X4.9638Y-3.7795
X5.1638Y-3.7795
X5.3638Y-3.7795
T4
X4.5957Y-3.0413
X4.5957Y-3.1413
X4.5957Y-3.2413
X4.5957Y-3.3413
X4.8957Y-3.0413
X4.8957Y-3.1413
X4.8957Y-3.2413
X4.8957Y-3.3413
T5
X3.185Y-2.137
X3.185Y-2.237
X3.185Y-2.337
X3.185Y-2.437
X3.185Y-2.537
X3.185Y-2.637
X3.185Y-2.737
X3.185Y-2.837
X3.185Y-2.937
X3.185Y-3.037
X3.185Y-3.137
X3.185Y-3.237
X3.185Y-3.337
X3.185Y-3.437
X3.185Y-3.537
X3.185Y-3.637
X3.185Y-3.737
X3.185Y-3.837
X3.185Y-3.937
X4.0906Y-2.137
X4.0906Y-2.237
X4.0906Y-2.337
X4.0906Y-2.437
X4.0906Y-2.537
X4.0906Y-2.637
X4.0906Y-2.737
X4.0906Y-2.837
X4.0906Y-2.937
X4.0906Y-3.037
X4.0906Y-3.137
X4.0906Y-3.237
X4.0906Y-3.337
X4.0906Y-3.437
X4.0906Y-3.537
X4.0906Y-3.637
X4.0906Y-3.737
X4.0906Y-3.837
X4.0906Y-3.937
T6
X2.239Y-2.2047
X2.339Y-2.2047
X2.5992Y-2.2047
X2.6992Y-2.2047
X2.7992Y-2.2047
X2.8992Y-2.2047
X4.3488Y-2.2047
X4.4488Y-2.2047
X4.7819Y-2.2047
X4.8819Y-2.2047
X5.215Y-2.2047
X5.315Y-2.2047
T7
X2.1654Y-3.0512
X5.315Y-3.0512
T0
M30
