%TF.GenerationSoftware,KiCad,Pcbnew,7.0.2*%
%TF.CreationDate,2023-06-22T14:29:26-03:00*%
%TF.ProjectId,Belliz_IOT,42656c6c-697a-45f4-994f-542e6b696361,rev?*%
%TF.SameCoordinates,Original*%
%TF.FileFunction,Soldermask,Bot*%
%TF.FilePolarity,Negative*%
%FSLAX46Y46*%
G04 Gerber Fmt 4.6, Leading zero omitted, Abs format (unit mm)*
G04 Created by KiCad (PCBNEW 7.0.2) date 2023-06-22 14:29:26*
%MOMM*%
%LPD*%
G01*
G04 APERTURE LIST*
%ADD10C,0.800000*%
%ADD11C,7.000000*%
%ADD12R,1.800000X1.800000*%
%ADD13C,1.800000*%
%ADD14C,1.500000*%
%ADD15R,1.600000X1.600000*%
%ADD16O,1.600000X1.600000*%
%ADD17C,1.524000*%
G04 APERTURE END LIST*
D10*
%TO.C,REF\u002A\u002A*%
X135000000Y-80125000D03*
X137625000Y-77500000D03*
D11*
X135000000Y-77500000D03*
D10*
X135000000Y-74875000D03*
X133143845Y-79356155D03*
X133143845Y-75643845D03*
X136856155Y-79356155D03*
X132375000Y-77500000D03*
X136856155Y-75643845D03*
%TD*%
%TO.C,REF\u002A\u002A*%
X56856155Y-75643845D03*
X52375000Y-77500000D03*
X56856155Y-79356155D03*
X53143845Y-75643845D03*
X53143845Y-79356155D03*
X55000000Y-74875000D03*
D11*
X55000000Y-77500000D03*
D10*
X57625000Y-77500000D03*
X55000000Y-80125000D03*
%TD*%
D12*
%TO.C,J3*%
X124000000Y-56000000D03*
D13*
X121460000Y-56000000D03*
%TD*%
D12*
%TO.C,J2*%
X113000000Y-56000000D03*
D13*
X110460000Y-56000000D03*
%TD*%
D14*
%TO.C,J9*%
X80900000Y-100000000D03*
X80900000Y-97460000D03*
X80900000Y-94920000D03*
X80900000Y-92380000D03*
X80900000Y-89840000D03*
X80900000Y-87300000D03*
X80900000Y-84760000D03*
X80900000Y-82220000D03*
X80900000Y-79680000D03*
X80900000Y-77140000D03*
X80900000Y-74600000D03*
X80900000Y-72060000D03*
X80900000Y-69520000D03*
X80900000Y-66980000D03*
X80900000Y-64440000D03*
X80900000Y-61900000D03*
X80900000Y-59360000D03*
X80900000Y-56820000D03*
X80900000Y-54280000D03*
%TD*%
%TO.C,J8*%
X103900000Y-100000000D03*
X103900000Y-97460000D03*
X103900000Y-94920000D03*
X103900000Y-92380000D03*
X103900000Y-89840000D03*
X103900000Y-87300000D03*
X103900000Y-84760000D03*
X103900000Y-82220000D03*
X103900000Y-79680000D03*
X103900000Y-77140000D03*
X103900000Y-74600000D03*
X103900000Y-72060000D03*
X103900000Y-69520000D03*
X103900000Y-66980000D03*
X103900000Y-64440000D03*
X103900000Y-61900000D03*
X103900000Y-59360000D03*
X103900000Y-56820000D03*
X103900000Y-54280000D03*
%TD*%
D15*
%TO.C,U1*%
X116730000Y-77250000D03*
D16*
X116730000Y-79790000D03*
X116730000Y-82330000D03*
X116730000Y-84870000D03*
X124350000Y-84870000D03*
X124350000Y-82330000D03*
X124350000Y-79790000D03*
X124350000Y-77250000D03*
%TD*%
D12*
%TO.C,J1*%
X59410000Y-56000000D03*
D13*
X56870000Y-56000000D03*
%TD*%
D12*
%TO.C,J6*%
X73640000Y-56000000D03*
D13*
X71100000Y-56000000D03*
X68560000Y-56000000D03*
X66020000Y-56000000D03*
%TD*%
D17*
%TO.C,J10*%
X136240000Y-96000000D03*
X131160000Y-96000000D03*
X126080000Y-96000000D03*
X121000000Y-96000000D03*
X115920000Y-96000000D03*
X110840000Y-96000000D03*
%TD*%
%TO.C,J5*%
X74240000Y-96000000D03*
X69160000Y-96000000D03*
X64080000Y-96000000D03*
X59000000Y-96000000D03*
X53920000Y-96000000D03*
%TD*%
D12*
%TO.C,J4*%
X135000000Y-56000000D03*
D13*
X132460000Y-56000000D03*
%TD*%
M02*
