%TF.GenerationSoftware,KiCad,Pcbnew,7.0.2*%
%TF.CreationDate,2023-07-26T08:06:31-03:00*%
%TF.ProjectId,Belliz_IOT,42656c6c-697a-45f4-994f-542e6b696361,rev?*%
%TF.SameCoordinates,Original*%
%TF.FileFunction,Legend,Top*%
%TF.FilePolarity,Positive*%
%FSLAX46Y46*%
G04 Gerber Fmt 4.6, Leading zero omitted, Abs format (unit mm)*
G04 Created by KiCad (PCBNEW 7.0.2) date 2023-07-26 08:06:31*
%MOMM*%
%LPD*%
G01*
G04 APERTURE LIST*
%ADD10C,0.100000*%
%ADD11C,0.150000*%
%ADD12C,0.200000*%
%ADD13C,0.120000*%
G04 APERTURE END LIST*
D10*
X125982500Y-91250000D02*
X125982500Y-90660000D01*
X108400000Y-91640000D02*
X138470000Y-91640000D01*
X138470000Y-94480000D01*
X108400000Y-94480000D01*
X108400000Y-91640000D01*
X74080000Y-91405000D02*
X74080000Y-90815000D01*
X67100000Y-90810000D02*
X74080000Y-90810000D01*
X134320000Y-90675000D02*
X136080000Y-90675000D01*
X120930000Y-91295000D02*
X120930000Y-90705000D01*
X136080000Y-91265000D02*
X136080000Y-90675000D01*
X51510000Y-91670000D02*
X76460000Y-91670000D01*
X76460000Y-94510000D01*
X51510000Y-94510000D01*
X51510000Y-91670000D01*
X111265000Y-90700000D02*
X114420000Y-90700000D01*
X111260000Y-91290000D02*
X111260000Y-90700000D01*
X125987500Y-90660000D02*
X127832500Y-90660000D01*
X117615000Y-90700000D02*
X120925000Y-90700000D01*
X54210000Y-91365000D02*
X54210000Y-90775000D01*
X54210000Y-90770000D02*
X61190000Y-90770000D01*
D11*
X120351428Y-59732095D02*
X119970476Y-59732095D01*
X119970476Y-59732095D02*
X119970476Y-58932095D01*
X120618095Y-59313047D02*
X120884761Y-59313047D01*
X120999047Y-59732095D02*
X120618095Y-59732095D01*
X120618095Y-59732095D02*
X120618095Y-58932095D01*
X120618095Y-58932095D02*
X120999047Y-58932095D01*
X121341905Y-59732095D02*
X121341905Y-58932095D01*
X121341905Y-58932095D02*
X121532381Y-58932095D01*
X121532381Y-58932095D02*
X121646667Y-58970190D01*
X121646667Y-58970190D02*
X121722857Y-59046380D01*
X121722857Y-59046380D02*
X121760952Y-59122571D01*
X121760952Y-59122571D02*
X121799048Y-59274952D01*
X121799048Y-59274952D02*
X121799048Y-59389238D01*
X121799048Y-59389238D02*
X121760952Y-59541619D01*
X121760952Y-59541619D02*
X121722857Y-59617809D01*
X121722857Y-59617809D02*
X121646667Y-59694000D01*
X121646667Y-59694000D02*
X121532381Y-59732095D01*
X121532381Y-59732095D02*
X121341905Y-59732095D01*
X121951429Y-59808285D02*
X122560952Y-59808285D01*
X122637143Y-58932095D02*
X122903810Y-59732095D01*
X122903810Y-59732095D02*
X123170476Y-58932095D01*
X123437143Y-59732095D02*
X123437143Y-58932095D01*
X123437143Y-58932095D02*
X123703809Y-59503523D01*
X123703809Y-59503523D02*
X123970476Y-58932095D01*
X123970476Y-58932095D02*
X123970476Y-59732095D01*
X120710476Y-58112095D02*
X120710476Y-57312095D01*
X121167619Y-58112095D02*
X120824761Y-57654952D01*
X121167619Y-57312095D02*
X120710476Y-57769238D01*
X122691428Y-57883523D02*
X123072381Y-57883523D01*
X122615238Y-58112095D02*
X122881905Y-57312095D01*
X122881905Y-57312095D02*
X123148571Y-58112095D01*
X133557142Y-57963047D02*
X133671428Y-58001142D01*
X133671428Y-58001142D02*
X133709523Y-58039238D01*
X133709523Y-58039238D02*
X133747619Y-58115428D01*
X133747619Y-58115428D02*
X133747619Y-58229714D01*
X133747619Y-58229714D02*
X133709523Y-58305904D01*
X133709523Y-58305904D02*
X133671428Y-58344000D01*
X133671428Y-58344000D02*
X133595238Y-58382095D01*
X133595238Y-58382095D02*
X133290476Y-58382095D01*
X133290476Y-58382095D02*
X133290476Y-57582095D01*
X133290476Y-57582095D02*
X133557142Y-57582095D01*
X133557142Y-57582095D02*
X133633333Y-57620190D01*
X133633333Y-57620190D02*
X133671428Y-57658285D01*
X133671428Y-57658285D02*
X133709523Y-57734476D01*
X133709523Y-57734476D02*
X133709523Y-57810666D01*
X133709523Y-57810666D02*
X133671428Y-57886857D01*
X133671428Y-57886857D02*
X133633333Y-57924952D01*
X133633333Y-57924952D02*
X133557142Y-57963047D01*
X133557142Y-57963047D02*
X133290476Y-57963047D01*
X134090476Y-57582095D02*
X134090476Y-58229714D01*
X134090476Y-58229714D02*
X134128571Y-58305904D01*
X134128571Y-58305904D02*
X134166666Y-58344000D01*
X134166666Y-58344000D02*
X134242857Y-58382095D01*
X134242857Y-58382095D02*
X134395238Y-58382095D01*
X134395238Y-58382095D02*
X134471428Y-58344000D01*
X134471428Y-58344000D02*
X134509523Y-58305904D01*
X134509523Y-58305904D02*
X134547619Y-58229714D01*
X134547619Y-58229714D02*
X134547619Y-57582095D01*
X134814285Y-57582095D02*
X135271428Y-57582095D01*
X135042856Y-58382095D02*
X135042856Y-57582095D01*
X135423809Y-57582095D02*
X135880952Y-57582095D01*
X135652380Y-58382095D02*
X135652380Y-57582095D01*
X136300000Y-57582095D02*
X136452381Y-57582095D01*
X136452381Y-57582095D02*
X136528571Y-57620190D01*
X136528571Y-57620190D02*
X136604762Y-57696380D01*
X136604762Y-57696380D02*
X136642857Y-57848761D01*
X136642857Y-57848761D02*
X136642857Y-58115428D01*
X136642857Y-58115428D02*
X136604762Y-58267809D01*
X136604762Y-58267809D02*
X136528571Y-58344000D01*
X136528571Y-58344000D02*
X136452381Y-58382095D01*
X136452381Y-58382095D02*
X136300000Y-58382095D01*
X136300000Y-58382095D02*
X136223809Y-58344000D01*
X136223809Y-58344000D02*
X136147619Y-58267809D01*
X136147619Y-58267809D02*
X136109523Y-58115428D01*
X136109523Y-58115428D02*
X136109523Y-57848761D01*
X136109523Y-57848761D02*
X136147619Y-57696380D01*
X136147619Y-57696380D02*
X136223809Y-57620190D01*
X136223809Y-57620190D02*
X136300000Y-57582095D01*
X136985714Y-58382095D02*
X136985714Y-57582095D01*
X136985714Y-57582095D02*
X137442857Y-58382095D01*
X137442857Y-58382095D02*
X137442857Y-57582095D01*
X70405485Y-80572095D02*
X70900723Y-80572095D01*
X70900723Y-80572095D02*
X70634057Y-80876857D01*
X70634057Y-80876857D02*
X70748342Y-80876857D01*
X70748342Y-80876857D02*
X70824533Y-80914952D01*
X70824533Y-80914952D02*
X70862628Y-80953047D01*
X70862628Y-80953047D02*
X70900723Y-81029238D01*
X70900723Y-81029238D02*
X70900723Y-81219714D01*
X70900723Y-81219714D02*
X70862628Y-81295904D01*
X70862628Y-81295904D02*
X70824533Y-81334000D01*
X70824533Y-81334000D02*
X70748342Y-81372095D01*
X70748342Y-81372095D02*
X70519771Y-81372095D01*
X70519771Y-81372095D02*
X70443580Y-81334000D01*
X70443580Y-81334000D02*
X70405485Y-81295904D01*
X71129295Y-80572095D02*
X71395962Y-81372095D01*
X71395962Y-81372095D02*
X71662628Y-80572095D01*
X71853104Y-80572095D02*
X72348342Y-80572095D01*
X72348342Y-80572095D02*
X72081676Y-80876857D01*
X72081676Y-80876857D02*
X72195961Y-80876857D01*
X72195961Y-80876857D02*
X72272152Y-80914952D01*
X72272152Y-80914952D02*
X72310247Y-80953047D01*
X72310247Y-80953047D02*
X72348342Y-81029238D01*
X72348342Y-81029238D02*
X72348342Y-81219714D01*
X72348342Y-81219714D02*
X72310247Y-81295904D01*
X72310247Y-81295904D02*
X72272152Y-81334000D01*
X72272152Y-81334000D02*
X72195961Y-81372095D01*
X72195961Y-81372095D02*
X71967390Y-81372095D01*
X71967390Y-81372095D02*
X71891199Y-81334000D01*
X71891199Y-81334000D02*
X71853104Y-81295904D01*
X67156735Y-60550845D02*
X67651973Y-60550845D01*
X67651973Y-60550845D02*
X67385307Y-60855607D01*
X67385307Y-60855607D02*
X67499592Y-60855607D01*
X67499592Y-60855607D02*
X67575783Y-60893702D01*
X67575783Y-60893702D02*
X67613878Y-60931797D01*
X67613878Y-60931797D02*
X67651973Y-61007988D01*
X67651973Y-61007988D02*
X67651973Y-61198464D01*
X67651973Y-61198464D02*
X67613878Y-61274654D01*
X67613878Y-61274654D02*
X67575783Y-61312750D01*
X67575783Y-61312750D02*
X67499592Y-61350845D01*
X67499592Y-61350845D02*
X67271021Y-61350845D01*
X67271021Y-61350845D02*
X67194830Y-61312750D01*
X67194830Y-61312750D02*
X67156735Y-61274654D01*
X67880545Y-60550845D02*
X68147212Y-61350845D01*
X68147212Y-61350845D02*
X68413878Y-60550845D01*
X68604354Y-60550845D02*
X69099592Y-60550845D01*
X69099592Y-60550845D02*
X68832926Y-60855607D01*
X68832926Y-60855607D02*
X68947211Y-60855607D01*
X68947211Y-60855607D02*
X69023402Y-60893702D01*
X69023402Y-60893702D02*
X69061497Y-60931797D01*
X69061497Y-60931797D02*
X69099592Y-61007988D01*
X69099592Y-61007988D02*
X69099592Y-61198464D01*
X69099592Y-61198464D02*
X69061497Y-61274654D01*
X69061497Y-61274654D02*
X69023402Y-61312750D01*
X69023402Y-61312750D02*
X68947211Y-61350845D01*
X68947211Y-61350845D02*
X68718640Y-61350845D01*
X68718640Y-61350845D02*
X68642449Y-61312750D01*
X68642449Y-61312750D02*
X68604354Y-61274654D01*
X70374285Y-71929595D02*
X70869523Y-71929595D01*
X70869523Y-71929595D02*
X70602857Y-72234357D01*
X70602857Y-72234357D02*
X70717142Y-72234357D01*
X70717142Y-72234357D02*
X70793333Y-72272452D01*
X70793333Y-72272452D02*
X70831428Y-72310547D01*
X70831428Y-72310547D02*
X70869523Y-72386738D01*
X70869523Y-72386738D02*
X70869523Y-72577214D01*
X70869523Y-72577214D02*
X70831428Y-72653404D01*
X70831428Y-72653404D02*
X70793333Y-72691500D01*
X70793333Y-72691500D02*
X70717142Y-72729595D01*
X70717142Y-72729595D02*
X70488571Y-72729595D01*
X70488571Y-72729595D02*
X70412380Y-72691500D01*
X70412380Y-72691500D02*
X70374285Y-72653404D01*
X71098095Y-71929595D02*
X71364762Y-72729595D01*
X71364762Y-72729595D02*
X71631428Y-71929595D01*
X71821904Y-71929595D02*
X72317142Y-71929595D01*
X72317142Y-71929595D02*
X72050476Y-72234357D01*
X72050476Y-72234357D02*
X72164761Y-72234357D01*
X72164761Y-72234357D02*
X72240952Y-72272452D01*
X72240952Y-72272452D02*
X72279047Y-72310547D01*
X72279047Y-72310547D02*
X72317142Y-72386738D01*
X72317142Y-72386738D02*
X72317142Y-72577214D01*
X72317142Y-72577214D02*
X72279047Y-72653404D01*
X72279047Y-72653404D02*
X72240952Y-72691500D01*
X72240952Y-72691500D02*
X72164761Y-72729595D01*
X72164761Y-72729595D02*
X71936190Y-72729595D01*
X71936190Y-72729595D02*
X71859999Y-72691500D01*
X71859999Y-72691500D02*
X71821904Y-72653404D01*
X52020773Y-58678940D02*
X51944583Y-58640845D01*
X51944583Y-58640845D02*
X51830297Y-58640845D01*
X51830297Y-58640845D02*
X51716011Y-58678940D01*
X51716011Y-58678940D02*
X51639821Y-58755130D01*
X51639821Y-58755130D02*
X51601726Y-58831321D01*
X51601726Y-58831321D02*
X51563630Y-58983702D01*
X51563630Y-58983702D02*
X51563630Y-59097988D01*
X51563630Y-59097988D02*
X51601726Y-59250369D01*
X51601726Y-59250369D02*
X51639821Y-59326559D01*
X51639821Y-59326559D02*
X51716011Y-59402750D01*
X51716011Y-59402750D02*
X51830297Y-59440845D01*
X51830297Y-59440845D02*
X51906488Y-59440845D01*
X51906488Y-59440845D02*
X52020773Y-59402750D01*
X52020773Y-59402750D02*
X52058869Y-59364654D01*
X52058869Y-59364654D02*
X52058869Y-59097988D01*
X52058869Y-59097988D02*
X51906488Y-59097988D01*
X52401726Y-59440845D02*
X52401726Y-58640845D01*
X52401726Y-58640845D02*
X52858869Y-59440845D01*
X52858869Y-59440845D02*
X52858869Y-58640845D01*
X53239821Y-59440845D02*
X53239821Y-58640845D01*
X53239821Y-58640845D02*
X53430297Y-58640845D01*
X53430297Y-58640845D02*
X53544583Y-58678940D01*
X53544583Y-58678940D02*
X53620773Y-58755130D01*
X53620773Y-58755130D02*
X53658868Y-58831321D01*
X53658868Y-58831321D02*
X53696964Y-58983702D01*
X53696964Y-58983702D02*
X53696964Y-59097988D01*
X53696964Y-59097988D02*
X53658868Y-59250369D01*
X53658868Y-59250369D02*
X53620773Y-59326559D01*
X53620773Y-59326559D02*
X53544583Y-59402750D01*
X53544583Y-59402750D02*
X53430297Y-59440845D01*
X53430297Y-59440845D02*
X53239821Y-59440845D01*
X55068392Y-58678940D02*
X54992202Y-58640845D01*
X54992202Y-58640845D02*
X54877916Y-58640845D01*
X54877916Y-58640845D02*
X54763630Y-58678940D01*
X54763630Y-58678940D02*
X54687440Y-58755130D01*
X54687440Y-58755130D02*
X54649345Y-58831321D01*
X54649345Y-58831321D02*
X54611249Y-58983702D01*
X54611249Y-58983702D02*
X54611249Y-59097988D01*
X54611249Y-59097988D02*
X54649345Y-59250369D01*
X54649345Y-59250369D02*
X54687440Y-59326559D01*
X54687440Y-59326559D02*
X54763630Y-59402750D01*
X54763630Y-59402750D02*
X54877916Y-59440845D01*
X54877916Y-59440845D02*
X54954107Y-59440845D01*
X54954107Y-59440845D02*
X55068392Y-59402750D01*
X55068392Y-59402750D02*
X55106488Y-59364654D01*
X55106488Y-59364654D02*
X55106488Y-59097988D01*
X55106488Y-59097988D02*
X54954107Y-59097988D01*
X55449345Y-59440845D02*
X55449345Y-58640845D01*
X55449345Y-58640845D02*
X55754107Y-58640845D01*
X55754107Y-58640845D02*
X55830297Y-58678940D01*
X55830297Y-58678940D02*
X55868392Y-58717035D01*
X55868392Y-58717035D02*
X55906488Y-58793226D01*
X55906488Y-58793226D02*
X55906488Y-58907511D01*
X55906488Y-58907511D02*
X55868392Y-58983702D01*
X55868392Y-58983702D02*
X55830297Y-59021797D01*
X55830297Y-59021797D02*
X55754107Y-59059892D01*
X55754107Y-59059892D02*
X55449345Y-59059892D01*
X56249345Y-59440845D02*
X56249345Y-58640845D01*
X56782678Y-58640845D02*
X56935059Y-58640845D01*
X56935059Y-58640845D02*
X57011249Y-58678940D01*
X57011249Y-58678940D02*
X57087440Y-58755130D01*
X57087440Y-58755130D02*
X57125535Y-58907511D01*
X57125535Y-58907511D02*
X57125535Y-59174178D01*
X57125535Y-59174178D02*
X57087440Y-59326559D01*
X57087440Y-59326559D02*
X57011249Y-59402750D01*
X57011249Y-59402750D02*
X56935059Y-59440845D01*
X56935059Y-59440845D02*
X56782678Y-59440845D01*
X56782678Y-59440845D02*
X56706487Y-59402750D01*
X56706487Y-59402750D02*
X56630297Y-59326559D01*
X56630297Y-59326559D02*
X56592201Y-59174178D01*
X56592201Y-59174178D02*
X56592201Y-58907511D01*
X56592201Y-58907511D02*
X56630297Y-58755130D01*
X56630297Y-58755130D02*
X56706487Y-58678940D01*
X56706487Y-58678940D02*
X56782678Y-58640845D01*
X57887439Y-59440845D02*
X57430296Y-59440845D01*
X57658868Y-59440845D02*
X57658868Y-58640845D01*
X57658868Y-58640845D02*
X57582677Y-58755130D01*
X57582677Y-58755130D02*
X57506487Y-58831321D01*
X57506487Y-58831321D02*
X57430296Y-58869416D01*
X58573154Y-58907511D02*
X58573154Y-59440845D01*
X58382678Y-58602750D02*
X58192201Y-59174178D01*
X58192201Y-59174178D02*
X58687440Y-59174178D01*
X59601726Y-59440845D02*
X59601726Y-58640845D01*
X59982678Y-59440845D02*
X59982678Y-58640845D01*
X59982678Y-58640845D02*
X60439821Y-59440845D01*
X60439821Y-59440845D02*
X60439821Y-58640845D01*
X53261904Y-92625238D02*
X53166666Y-92577619D01*
X53166666Y-92577619D02*
X53023809Y-92577619D01*
X53023809Y-92577619D02*
X52880952Y-92625238D01*
X52880952Y-92625238D02*
X52785714Y-92720476D01*
X52785714Y-92720476D02*
X52738095Y-92815714D01*
X52738095Y-92815714D02*
X52690476Y-93006190D01*
X52690476Y-93006190D02*
X52690476Y-93149047D01*
X52690476Y-93149047D02*
X52738095Y-93339523D01*
X52738095Y-93339523D02*
X52785714Y-93434761D01*
X52785714Y-93434761D02*
X52880952Y-93530000D01*
X52880952Y-93530000D02*
X53023809Y-93577619D01*
X53023809Y-93577619D02*
X53119047Y-93577619D01*
X53119047Y-93577619D02*
X53261904Y-93530000D01*
X53261904Y-93530000D02*
X53309523Y-93482380D01*
X53309523Y-93482380D02*
X53309523Y-93149047D01*
X53309523Y-93149047D02*
X53119047Y-93149047D01*
X53738095Y-93577619D02*
X53738095Y-92577619D01*
X53738095Y-92577619D02*
X54309523Y-93577619D01*
X54309523Y-93577619D02*
X54309523Y-92577619D01*
X54785714Y-93577619D02*
X54785714Y-92577619D01*
X54785714Y-92577619D02*
X55023809Y-92577619D01*
X55023809Y-92577619D02*
X55166666Y-92625238D01*
X55166666Y-92625238D02*
X55261904Y-92720476D01*
X55261904Y-92720476D02*
X55309523Y-92815714D01*
X55309523Y-92815714D02*
X55357142Y-93006190D01*
X55357142Y-93006190D02*
X55357142Y-93149047D01*
X55357142Y-93149047D02*
X55309523Y-93339523D01*
X55309523Y-93339523D02*
X55261904Y-93434761D01*
X55261904Y-93434761D02*
X55166666Y-93530000D01*
X55166666Y-93530000D02*
X55023809Y-93577619D01*
X55023809Y-93577619D02*
X54785714Y-93577619D01*
X109442857Y-92477619D02*
X110061904Y-92477619D01*
X110061904Y-92477619D02*
X109728571Y-92858571D01*
X109728571Y-92858571D02*
X109871428Y-92858571D01*
X109871428Y-92858571D02*
X109966666Y-92906190D01*
X109966666Y-92906190D02*
X110014285Y-92953809D01*
X110014285Y-92953809D02*
X110061904Y-93049047D01*
X110061904Y-93049047D02*
X110061904Y-93287142D01*
X110061904Y-93287142D02*
X110014285Y-93382380D01*
X110014285Y-93382380D02*
X109966666Y-93430000D01*
X109966666Y-93430000D02*
X109871428Y-93477619D01*
X109871428Y-93477619D02*
X109585714Y-93477619D01*
X109585714Y-93477619D02*
X109490476Y-93430000D01*
X109490476Y-93430000D02*
X109442857Y-93382380D01*
X110347619Y-92477619D02*
X110680952Y-93477619D01*
X110680952Y-93477619D02*
X111014285Y-92477619D01*
X111252381Y-92477619D02*
X111871428Y-92477619D01*
X111871428Y-92477619D02*
X111538095Y-92858571D01*
X111538095Y-92858571D02*
X111680952Y-92858571D01*
X111680952Y-92858571D02*
X111776190Y-92906190D01*
X111776190Y-92906190D02*
X111823809Y-92953809D01*
X111823809Y-92953809D02*
X111871428Y-93049047D01*
X111871428Y-93049047D02*
X111871428Y-93287142D01*
X111871428Y-93287142D02*
X111823809Y-93382380D01*
X111823809Y-93382380D02*
X111776190Y-93430000D01*
X111776190Y-93430000D02*
X111680952Y-93477619D01*
X111680952Y-93477619D02*
X111395238Y-93477619D01*
X111395238Y-93477619D02*
X111300000Y-93430000D01*
X111300000Y-93430000D02*
X111252381Y-93382380D01*
X69109523Y-93482380D02*
X69061904Y-93530000D01*
X69061904Y-93530000D02*
X68919047Y-93577619D01*
X68919047Y-93577619D02*
X68823809Y-93577619D01*
X68823809Y-93577619D02*
X68680952Y-93530000D01*
X68680952Y-93530000D02*
X68585714Y-93434761D01*
X68585714Y-93434761D02*
X68538095Y-93339523D01*
X68538095Y-93339523D02*
X68490476Y-93149047D01*
X68490476Y-93149047D02*
X68490476Y-93006190D01*
X68490476Y-93006190D02*
X68538095Y-92815714D01*
X68538095Y-92815714D02*
X68585714Y-92720476D01*
X68585714Y-92720476D02*
X68680952Y-92625238D01*
X68680952Y-92625238D02*
X68823809Y-92577619D01*
X68823809Y-92577619D02*
X68919047Y-92577619D01*
X68919047Y-92577619D02*
X69061904Y-92625238D01*
X69061904Y-92625238D02*
X69109523Y-92672857D01*
X69490476Y-93530000D02*
X69633333Y-93577619D01*
X69633333Y-93577619D02*
X69871428Y-93577619D01*
X69871428Y-93577619D02*
X69966666Y-93530000D01*
X69966666Y-93530000D02*
X70014285Y-93482380D01*
X70014285Y-93482380D02*
X70061904Y-93387142D01*
X70061904Y-93387142D02*
X70061904Y-93291904D01*
X70061904Y-93291904D02*
X70014285Y-93196666D01*
X70014285Y-93196666D02*
X69966666Y-93149047D01*
X69966666Y-93149047D02*
X69871428Y-93101428D01*
X69871428Y-93101428D02*
X69680952Y-93053809D01*
X69680952Y-93053809D02*
X69585714Y-93006190D01*
X69585714Y-93006190D02*
X69538095Y-92958571D01*
X69538095Y-92958571D02*
X69490476Y-92863333D01*
X69490476Y-92863333D02*
X69490476Y-92768095D01*
X69490476Y-92768095D02*
X69538095Y-92672857D01*
X69538095Y-92672857D02*
X69585714Y-92625238D01*
X69585714Y-92625238D02*
X69680952Y-92577619D01*
X69680952Y-92577619D02*
X69919047Y-92577619D01*
X69919047Y-92577619D02*
X70061904Y-92625238D01*
X60649276Y-74517095D02*
X60649276Y-73717095D01*
X61030228Y-74517095D02*
X61030228Y-73717095D01*
X61030228Y-73717095D02*
X61487371Y-74517095D01*
X61487371Y-74517095D02*
X61487371Y-73717095D01*
X62896894Y-73755190D02*
X62820704Y-73717095D01*
X62820704Y-73717095D02*
X62706418Y-73717095D01*
X62706418Y-73717095D02*
X62592132Y-73755190D01*
X62592132Y-73755190D02*
X62515942Y-73831380D01*
X62515942Y-73831380D02*
X62477847Y-73907571D01*
X62477847Y-73907571D02*
X62439751Y-74059952D01*
X62439751Y-74059952D02*
X62439751Y-74174238D01*
X62439751Y-74174238D02*
X62477847Y-74326619D01*
X62477847Y-74326619D02*
X62515942Y-74402809D01*
X62515942Y-74402809D02*
X62592132Y-74479000D01*
X62592132Y-74479000D02*
X62706418Y-74517095D01*
X62706418Y-74517095D02*
X62782609Y-74517095D01*
X62782609Y-74517095D02*
X62896894Y-74479000D01*
X62896894Y-74479000D02*
X62934990Y-74440904D01*
X62934990Y-74440904D02*
X62934990Y-74174238D01*
X62934990Y-74174238D02*
X62782609Y-74174238D01*
X63277847Y-74517095D02*
X63277847Y-73717095D01*
X63277847Y-73717095D02*
X63582609Y-73717095D01*
X63582609Y-73717095D02*
X63658799Y-73755190D01*
X63658799Y-73755190D02*
X63696894Y-73793285D01*
X63696894Y-73793285D02*
X63734990Y-73869476D01*
X63734990Y-73869476D02*
X63734990Y-73983761D01*
X63734990Y-73983761D02*
X63696894Y-74059952D01*
X63696894Y-74059952D02*
X63658799Y-74098047D01*
X63658799Y-74098047D02*
X63582609Y-74136142D01*
X63582609Y-74136142D02*
X63277847Y-74136142D01*
X64077847Y-74517095D02*
X64077847Y-73717095D01*
X64611180Y-73717095D02*
X64763561Y-73717095D01*
X64763561Y-73717095D02*
X64839751Y-73755190D01*
X64839751Y-73755190D02*
X64915942Y-73831380D01*
X64915942Y-73831380D02*
X64954037Y-73983761D01*
X64954037Y-73983761D02*
X64954037Y-74250428D01*
X64954037Y-74250428D02*
X64915942Y-74402809D01*
X64915942Y-74402809D02*
X64839751Y-74479000D01*
X64839751Y-74479000D02*
X64763561Y-74517095D01*
X64763561Y-74517095D02*
X64611180Y-74517095D01*
X64611180Y-74517095D02*
X64534989Y-74479000D01*
X64534989Y-74479000D02*
X64458799Y-74402809D01*
X64458799Y-74402809D02*
X64420703Y-74250428D01*
X64420703Y-74250428D02*
X64420703Y-73983761D01*
X64420703Y-73983761D02*
X64458799Y-73831380D01*
X64458799Y-73831380D02*
X64534989Y-73755190D01*
X64534989Y-73755190D02*
X64611180Y-73717095D01*
X65220703Y-73717095D02*
X65715941Y-73717095D01*
X65715941Y-73717095D02*
X65449275Y-74021857D01*
X65449275Y-74021857D02*
X65563560Y-74021857D01*
X65563560Y-74021857D02*
X65639751Y-74059952D01*
X65639751Y-74059952D02*
X65677846Y-74098047D01*
X65677846Y-74098047D02*
X65715941Y-74174238D01*
X65715941Y-74174238D02*
X65715941Y-74364714D01*
X65715941Y-74364714D02*
X65677846Y-74440904D01*
X65677846Y-74440904D02*
X65639751Y-74479000D01*
X65639751Y-74479000D02*
X65563560Y-74517095D01*
X65563560Y-74517095D02*
X65334989Y-74517095D01*
X65334989Y-74517095D02*
X65258798Y-74479000D01*
X65258798Y-74479000D02*
X65220703Y-74440904D01*
X66401656Y-73717095D02*
X66249275Y-73717095D01*
X66249275Y-73717095D02*
X66173084Y-73755190D01*
X66173084Y-73755190D02*
X66134989Y-73793285D01*
X66134989Y-73793285D02*
X66058799Y-73907571D01*
X66058799Y-73907571D02*
X66020703Y-74059952D01*
X66020703Y-74059952D02*
X66020703Y-74364714D01*
X66020703Y-74364714D02*
X66058799Y-74440904D01*
X66058799Y-74440904D02*
X66096894Y-74479000D01*
X66096894Y-74479000D02*
X66173084Y-74517095D01*
X66173084Y-74517095D02*
X66325465Y-74517095D01*
X66325465Y-74517095D02*
X66401656Y-74479000D01*
X66401656Y-74479000D02*
X66439751Y-74440904D01*
X66439751Y-74440904D02*
X66477846Y-74364714D01*
X66477846Y-74364714D02*
X66477846Y-74174238D01*
X66477846Y-74174238D02*
X66439751Y-74098047D01*
X66439751Y-74098047D02*
X66401656Y-74059952D01*
X66401656Y-74059952D02*
X66325465Y-74021857D01*
X66325465Y-74021857D02*
X66173084Y-74021857D01*
X66173084Y-74021857D02*
X66096894Y-74059952D01*
X66096894Y-74059952D02*
X66058799Y-74098047D01*
X66058799Y-74098047D02*
X66020703Y-74174238D01*
X67849275Y-73755190D02*
X67773085Y-73717095D01*
X67773085Y-73717095D02*
X67658799Y-73717095D01*
X67658799Y-73717095D02*
X67544513Y-73755190D01*
X67544513Y-73755190D02*
X67468323Y-73831380D01*
X67468323Y-73831380D02*
X67430228Y-73907571D01*
X67430228Y-73907571D02*
X67392132Y-74059952D01*
X67392132Y-74059952D02*
X67392132Y-74174238D01*
X67392132Y-74174238D02*
X67430228Y-74326619D01*
X67430228Y-74326619D02*
X67468323Y-74402809D01*
X67468323Y-74402809D02*
X67544513Y-74479000D01*
X67544513Y-74479000D02*
X67658799Y-74517095D01*
X67658799Y-74517095D02*
X67734990Y-74517095D01*
X67734990Y-74517095D02*
X67849275Y-74479000D01*
X67849275Y-74479000D02*
X67887371Y-74440904D01*
X67887371Y-74440904D02*
X67887371Y-74174238D01*
X67887371Y-74174238D02*
X67734990Y-74174238D01*
X68230228Y-74517095D02*
X68230228Y-73717095D01*
X68230228Y-73717095D02*
X68687371Y-74517095D01*
X68687371Y-74517095D02*
X68687371Y-73717095D01*
X69068323Y-74517095D02*
X69068323Y-73717095D01*
X69068323Y-73717095D02*
X69258799Y-73717095D01*
X69258799Y-73717095D02*
X69373085Y-73755190D01*
X69373085Y-73755190D02*
X69449275Y-73831380D01*
X69449275Y-73831380D02*
X69487370Y-73907571D01*
X69487370Y-73907571D02*
X69525466Y-74059952D01*
X69525466Y-74059952D02*
X69525466Y-74174238D01*
X69525466Y-74174238D02*
X69487370Y-74326619D01*
X69487370Y-74326619D02*
X69449275Y-74402809D01*
X69449275Y-74402809D02*
X69373085Y-74479000D01*
X69373085Y-74479000D02*
X69258799Y-74517095D01*
X69258799Y-74517095D02*
X69068323Y-74517095D01*
X127131428Y-59762095D02*
X126750476Y-59762095D01*
X126750476Y-59762095D02*
X126750476Y-58962095D01*
X127398095Y-59343047D02*
X127664761Y-59343047D01*
X127779047Y-59762095D02*
X127398095Y-59762095D01*
X127398095Y-59762095D02*
X127398095Y-58962095D01*
X127398095Y-58962095D02*
X127779047Y-58962095D01*
X128121905Y-59762095D02*
X128121905Y-58962095D01*
X128121905Y-58962095D02*
X128312381Y-58962095D01*
X128312381Y-58962095D02*
X128426667Y-59000190D01*
X128426667Y-59000190D02*
X128502857Y-59076380D01*
X128502857Y-59076380D02*
X128540952Y-59152571D01*
X128540952Y-59152571D02*
X128579048Y-59304952D01*
X128579048Y-59304952D02*
X128579048Y-59419238D01*
X128579048Y-59419238D02*
X128540952Y-59571619D01*
X128540952Y-59571619D02*
X128502857Y-59647809D01*
X128502857Y-59647809D02*
X128426667Y-59724000D01*
X128426667Y-59724000D02*
X128312381Y-59762095D01*
X128312381Y-59762095D02*
X128121905Y-59762095D01*
X128731429Y-59838285D02*
X129340952Y-59838285D01*
X129417143Y-58962095D02*
X129683810Y-59762095D01*
X129683810Y-59762095D02*
X129950476Y-58962095D01*
X130217143Y-59762095D02*
X130217143Y-58962095D01*
X130217143Y-58962095D02*
X130407619Y-58962095D01*
X130407619Y-58962095D02*
X130521905Y-59000190D01*
X130521905Y-59000190D02*
X130598095Y-59076380D01*
X130598095Y-59076380D02*
X130636190Y-59152571D01*
X130636190Y-59152571D02*
X130674286Y-59304952D01*
X130674286Y-59304952D02*
X130674286Y-59419238D01*
X130674286Y-59419238D02*
X130636190Y-59571619D01*
X130636190Y-59571619D02*
X130598095Y-59647809D01*
X130598095Y-59647809D02*
X130521905Y-59724000D01*
X130521905Y-59724000D02*
X130407619Y-59762095D01*
X130407619Y-59762095D02*
X130217143Y-59762095D01*
X130128571Y-92477619D02*
X130319047Y-92477619D01*
X130319047Y-92477619D02*
X130414285Y-92525238D01*
X130414285Y-92525238D02*
X130509523Y-92620476D01*
X130509523Y-92620476D02*
X130557142Y-92810952D01*
X130557142Y-92810952D02*
X130557142Y-93144285D01*
X130557142Y-93144285D02*
X130509523Y-93334761D01*
X130509523Y-93334761D02*
X130414285Y-93430000D01*
X130414285Y-93430000D02*
X130319047Y-93477619D01*
X130319047Y-93477619D02*
X130128571Y-93477619D01*
X130128571Y-93477619D02*
X130033333Y-93430000D01*
X130033333Y-93430000D02*
X129938095Y-93334761D01*
X129938095Y-93334761D02*
X129890476Y-93144285D01*
X129890476Y-93144285D02*
X129890476Y-92810952D01*
X129890476Y-92810952D02*
X129938095Y-92620476D01*
X129938095Y-92620476D02*
X130033333Y-92525238D01*
X130033333Y-92525238D02*
X130128571Y-92477619D01*
X130985714Y-92477619D02*
X130985714Y-93287142D01*
X130985714Y-93287142D02*
X131033333Y-93382380D01*
X131033333Y-93382380D02*
X131080952Y-93430000D01*
X131080952Y-93430000D02*
X131176190Y-93477619D01*
X131176190Y-93477619D02*
X131366666Y-93477619D01*
X131366666Y-93477619D02*
X131461904Y-93430000D01*
X131461904Y-93430000D02*
X131509523Y-93382380D01*
X131509523Y-93382380D02*
X131557142Y-93287142D01*
X131557142Y-93287142D02*
X131557142Y-92477619D01*
X131890476Y-92477619D02*
X132461904Y-92477619D01*
X132176190Y-93477619D02*
X132176190Y-92477619D01*
X115397619Y-91102095D02*
X115130952Y-90721142D01*
X114940476Y-91102095D02*
X114940476Y-90302095D01*
X114940476Y-90302095D02*
X115245238Y-90302095D01*
X115245238Y-90302095D02*
X115321428Y-90340190D01*
X115321428Y-90340190D02*
X115359523Y-90378285D01*
X115359523Y-90378285D02*
X115397619Y-90454476D01*
X115397619Y-90454476D02*
X115397619Y-90568761D01*
X115397619Y-90568761D02*
X115359523Y-90644952D01*
X115359523Y-90644952D02*
X115321428Y-90683047D01*
X115321428Y-90683047D02*
X115245238Y-90721142D01*
X115245238Y-90721142D02*
X114940476Y-90721142D01*
X115740476Y-91102095D02*
X115740476Y-90302095D01*
X115740476Y-90302095D02*
X116045238Y-90302095D01*
X116045238Y-90302095D02*
X116121428Y-90340190D01*
X116121428Y-90340190D02*
X116159523Y-90378285D01*
X116159523Y-90378285D02*
X116197619Y-90454476D01*
X116197619Y-90454476D02*
X116197619Y-90568761D01*
X116197619Y-90568761D02*
X116159523Y-90644952D01*
X116159523Y-90644952D02*
X116121428Y-90683047D01*
X116121428Y-90683047D02*
X116045238Y-90721142D01*
X116045238Y-90721142D02*
X115740476Y-90721142D01*
X116540476Y-91102095D02*
X116540476Y-90302095D01*
X116540476Y-90302095D02*
X116807142Y-90873523D01*
X116807142Y-90873523D02*
X117073809Y-90302095D01*
X117073809Y-90302095D02*
X117073809Y-91102095D01*
X108619523Y-57510190D02*
X108543333Y-57472095D01*
X108543333Y-57472095D02*
X108429047Y-57472095D01*
X108429047Y-57472095D02*
X108314761Y-57510190D01*
X108314761Y-57510190D02*
X108238571Y-57586380D01*
X108238571Y-57586380D02*
X108200476Y-57662571D01*
X108200476Y-57662571D02*
X108162380Y-57814952D01*
X108162380Y-57814952D02*
X108162380Y-57929238D01*
X108162380Y-57929238D02*
X108200476Y-58081619D01*
X108200476Y-58081619D02*
X108238571Y-58157809D01*
X108238571Y-58157809D02*
X108314761Y-58234000D01*
X108314761Y-58234000D02*
X108429047Y-58272095D01*
X108429047Y-58272095D02*
X108505238Y-58272095D01*
X108505238Y-58272095D02*
X108619523Y-58234000D01*
X108619523Y-58234000D02*
X108657619Y-58195904D01*
X108657619Y-58195904D02*
X108657619Y-57929238D01*
X108657619Y-57929238D02*
X108505238Y-57929238D01*
X109000476Y-58272095D02*
X109000476Y-57472095D01*
X109000476Y-57472095D02*
X109457619Y-58272095D01*
X109457619Y-58272095D02*
X109457619Y-57472095D01*
X109838571Y-58272095D02*
X109838571Y-57472095D01*
X109838571Y-57472095D02*
X110029047Y-57472095D01*
X110029047Y-57472095D02*
X110143333Y-57510190D01*
X110143333Y-57510190D02*
X110219523Y-57586380D01*
X110219523Y-57586380D02*
X110257618Y-57662571D01*
X110257618Y-57662571D02*
X110295714Y-57814952D01*
X110295714Y-57814952D02*
X110295714Y-57929238D01*
X110295714Y-57929238D02*
X110257618Y-58081619D01*
X110257618Y-58081619D02*
X110219523Y-58157809D01*
X110219523Y-58157809D02*
X110143333Y-58234000D01*
X110143333Y-58234000D02*
X110029047Y-58272095D01*
X110029047Y-58272095D02*
X109838571Y-58272095D01*
X111248095Y-58272095D02*
X111248095Y-57472095D01*
X111629047Y-58272095D02*
X111629047Y-57472095D01*
X111629047Y-57472095D02*
X112086190Y-58272095D01*
X112086190Y-58272095D02*
X112086190Y-57472095D01*
X112429046Y-57548285D02*
X112467142Y-57510190D01*
X112467142Y-57510190D02*
X112543332Y-57472095D01*
X112543332Y-57472095D02*
X112733808Y-57472095D01*
X112733808Y-57472095D02*
X112809999Y-57510190D01*
X112809999Y-57510190D02*
X112848094Y-57548285D01*
X112848094Y-57548285D02*
X112886189Y-57624476D01*
X112886189Y-57624476D02*
X112886189Y-57700666D01*
X112886189Y-57700666D02*
X112848094Y-57814952D01*
X112848094Y-57814952D02*
X112390951Y-58272095D01*
X112390951Y-58272095D02*
X112886189Y-58272095D01*
X113838571Y-58272095D02*
X113838571Y-57472095D01*
X114219523Y-58272095D02*
X114219523Y-57472095D01*
X114219523Y-57472095D02*
X114676666Y-58272095D01*
X114676666Y-58272095D02*
X114676666Y-57472095D01*
X115476665Y-58272095D02*
X115019522Y-58272095D01*
X115248094Y-58272095D02*
X115248094Y-57472095D01*
X115248094Y-57472095D02*
X115171903Y-57586380D01*
X115171903Y-57586380D02*
X115095713Y-57662571D01*
X115095713Y-57662571D02*
X115019522Y-57700666D01*
X116809999Y-57472095D02*
X116429047Y-57472095D01*
X116429047Y-57472095D02*
X116390951Y-57853047D01*
X116390951Y-57853047D02*
X116429047Y-57814952D01*
X116429047Y-57814952D02*
X116505237Y-57776857D01*
X116505237Y-57776857D02*
X116695713Y-57776857D01*
X116695713Y-57776857D02*
X116771904Y-57814952D01*
X116771904Y-57814952D02*
X116809999Y-57853047D01*
X116809999Y-57853047D02*
X116848094Y-57929238D01*
X116848094Y-57929238D02*
X116848094Y-58119714D01*
X116848094Y-58119714D02*
X116809999Y-58195904D01*
X116809999Y-58195904D02*
X116771904Y-58234000D01*
X116771904Y-58234000D02*
X116695713Y-58272095D01*
X116695713Y-58272095D02*
X116505237Y-58272095D01*
X116505237Y-58272095D02*
X116429047Y-58234000D01*
X116429047Y-58234000D02*
X116390951Y-58195904D01*
X117076666Y-57472095D02*
X117343333Y-58272095D01*
X117343333Y-58272095D02*
X117609999Y-57472095D01*
X64013878Y-60490845D02*
X63632926Y-60490845D01*
X63632926Y-60490845D02*
X63594830Y-60871797D01*
X63594830Y-60871797D02*
X63632926Y-60833702D01*
X63632926Y-60833702D02*
X63709116Y-60795607D01*
X63709116Y-60795607D02*
X63899592Y-60795607D01*
X63899592Y-60795607D02*
X63975783Y-60833702D01*
X63975783Y-60833702D02*
X64013878Y-60871797D01*
X64013878Y-60871797D02*
X64051973Y-60947988D01*
X64051973Y-60947988D02*
X64051973Y-61138464D01*
X64051973Y-61138464D02*
X64013878Y-61214654D01*
X64013878Y-61214654D02*
X63975783Y-61252750D01*
X63975783Y-61252750D02*
X63899592Y-61290845D01*
X63899592Y-61290845D02*
X63709116Y-61290845D01*
X63709116Y-61290845D02*
X63632926Y-61252750D01*
X63632926Y-61252750D02*
X63594830Y-61214654D01*
X64280545Y-60490845D02*
X64547212Y-61290845D01*
X64547212Y-61290845D02*
X64813878Y-60490845D01*
X120061904Y-92525238D02*
X119966666Y-92477619D01*
X119966666Y-92477619D02*
X119823809Y-92477619D01*
X119823809Y-92477619D02*
X119680952Y-92525238D01*
X119680952Y-92525238D02*
X119585714Y-92620476D01*
X119585714Y-92620476D02*
X119538095Y-92715714D01*
X119538095Y-92715714D02*
X119490476Y-92906190D01*
X119490476Y-92906190D02*
X119490476Y-93049047D01*
X119490476Y-93049047D02*
X119538095Y-93239523D01*
X119538095Y-93239523D02*
X119585714Y-93334761D01*
X119585714Y-93334761D02*
X119680952Y-93430000D01*
X119680952Y-93430000D02*
X119823809Y-93477619D01*
X119823809Y-93477619D02*
X119919047Y-93477619D01*
X119919047Y-93477619D02*
X120061904Y-93430000D01*
X120061904Y-93430000D02*
X120109523Y-93382380D01*
X120109523Y-93382380D02*
X120109523Y-93049047D01*
X120109523Y-93049047D02*
X119919047Y-93049047D01*
X120538095Y-93477619D02*
X120538095Y-92477619D01*
X120538095Y-92477619D02*
X121109523Y-93477619D01*
X121109523Y-93477619D02*
X121109523Y-92477619D01*
X121585714Y-93477619D02*
X121585714Y-92477619D01*
X121585714Y-92477619D02*
X121823809Y-92477619D01*
X121823809Y-92477619D02*
X121966666Y-92525238D01*
X121966666Y-92525238D02*
X122061904Y-92620476D01*
X122061904Y-92620476D02*
X122109523Y-92715714D01*
X122109523Y-92715714D02*
X122157142Y-92906190D01*
X122157142Y-92906190D02*
X122157142Y-93049047D01*
X122157142Y-93049047D02*
X122109523Y-93239523D01*
X122109523Y-93239523D02*
X122061904Y-93334761D01*
X122061904Y-93334761D02*
X121966666Y-93430000D01*
X121966666Y-93430000D02*
X121823809Y-93477619D01*
X121823809Y-93477619D02*
X121585714Y-93477619D01*
X127500476Y-58112095D02*
X127500476Y-57312095D01*
X127957619Y-58112095D02*
X127614761Y-57654952D01*
X127957619Y-57312095D02*
X127500476Y-57769238D01*
X129481428Y-57883523D02*
X129862381Y-57883523D01*
X129405238Y-58112095D02*
X129671905Y-57312095D01*
X129671905Y-57312095D02*
X129938571Y-58112095D01*
X61620476Y-91162095D02*
X61620476Y-90362095D01*
X61620476Y-90362095D02*
X61887142Y-90933523D01*
X61887142Y-90933523D02*
X62153809Y-90362095D01*
X62153809Y-90362095D02*
X62153809Y-91162095D01*
X62496666Y-90933523D02*
X62877619Y-90933523D01*
X62420476Y-91162095D02*
X62687143Y-90362095D01*
X62687143Y-90362095D02*
X62953809Y-91162095D01*
X63144285Y-90362095D02*
X63677619Y-91162095D01*
X63677619Y-90362095D02*
X63144285Y-91162095D01*
X64325238Y-90362095D02*
X64172857Y-90362095D01*
X64172857Y-90362095D02*
X64096666Y-90400190D01*
X64096666Y-90400190D02*
X64058571Y-90438285D01*
X64058571Y-90438285D02*
X63982381Y-90552571D01*
X63982381Y-90552571D02*
X63944285Y-90704952D01*
X63944285Y-90704952D02*
X63944285Y-91009714D01*
X63944285Y-91009714D02*
X63982381Y-91085904D01*
X63982381Y-91085904D02*
X64020476Y-91124000D01*
X64020476Y-91124000D02*
X64096666Y-91162095D01*
X64096666Y-91162095D02*
X64249047Y-91162095D01*
X64249047Y-91162095D02*
X64325238Y-91124000D01*
X64325238Y-91124000D02*
X64363333Y-91085904D01*
X64363333Y-91085904D02*
X64401428Y-91009714D01*
X64401428Y-91009714D02*
X64401428Y-90819238D01*
X64401428Y-90819238D02*
X64363333Y-90743047D01*
X64363333Y-90743047D02*
X64325238Y-90704952D01*
X64325238Y-90704952D02*
X64249047Y-90666857D01*
X64249047Y-90666857D02*
X64096666Y-90666857D01*
X64096666Y-90666857D02*
X64020476Y-90704952D01*
X64020476Y-90704952D02*
X63982381Y-90743047D01*
X63982381Y-90743047D02*
X63944285Y-90819238D01*
X65087143Y-90362095D02*
X64934762Y-90362095D01*
X64934762Y-90362095D02*
X64858571Y-90400190D01*
X64858571Y-90400190D02*
X64820476Y-90438285D01*
X64820476Y-90438285D02*
X64744286Y-90552571D01*
X64744286Y-90552571D02*
X64706190Y-90704952D01*
X64706190Y-90704952D02*
X64706190Y-91009714D01*
X64706190Y-91009714D02*
X64744286Y-91085904D01*
X64744286Y-91085904D02*
X64782381Y-91124000D01*
X64782381Y-91124000D02*
X64858571Y-91162095D01*
X64858571Y-91162095D02*
X65010952Y-91162095D01*
X65010952Y-91162095D02*
X65087143Y-91124000D01*
X65087143Y-91124000D02*
X65125238Y-91085904D01*
X65125238Y-91085904D02*
X65163333Y-91009714D01*
X65163333Y-91009714D02*
X65163333Y-90819238D01*
X65163333Y-90819238D02*
X65125238Y-90743047D01*
X65125238Y-90743047D02*
X65087143Y-90704952D01*
X65087143Y-90704952D02*
X65010952Y-90666857D01*
X65010952Y-90666857D02*
X64858571Y-90666857D01*
X64858571Y-90666857D02*
X64782381Y-90704952D01*
X64782381Y-90704952D02*
X64744286Y-90743047D01*
X64744286Y-90743047D02*
X64706190Y-90819238D01*
X65430000Y-90362095D02*
X65963334Y-90362095D01*
X65963334Y-90362095D02*
X65620476Y-91162095D01*
X66649048Y-90362095D02*
X66268096Y-90362095D01*
X66268096Y-90362095D02*
X66230000Y-90743047D01*
X66230000Y-90743047D02*
X66268096Y-90704952D01*
X66268096Y-90704952D02*
X66344286Y-90666857D01*
X66344286Y-90666857D02*
X66534762Y-90666857D01*
X66534762Y-90666857D02*
X66610953Y-90704952D01*
X66610953Y-90704952D02*
X66649048Y-90743047D01*
X66649048Y-90743047D02*
X66687143Y-90819238D01*
X66687143Y-90819238D02*
X66687143Y-91009714D01*
X66687143Y-91009714D02*
X66649048Y-91085904D01*
X66649048Y-91085904D02*
X66610953Y-91124000D01*
X66610953Y-91124000D02*
X66534762Y-91162095D01*
X66534762Y-91162095D02*
X66344286Y-91162095D01*
X66344286Y-91162095D02*
X66268096Y-91124000D01*
X66268096Y-91124000D02*
X66230000Y-91085904D01*
X114898571Y-92477619D02*
X115089047Y-92477619D01*
X115089047Y-92477619D02*
X115184285Y-92525238D01*
X115184285Y-92525238D02*
X115279523Y-92620476D01*
X115279523Y-92620476D02*
X115327142Y-92810952D01*
X115327142Y-92810952D02*
X115327142Y-93144285D01*
X115327142Y-93144285D02*
X115279523Y-93334761D01*
X115279523Y-93334761D02*
X115184285Y-93430000D01*
X115184285Y-93430000D02*
X115089047Y-93477619D01*
X115089047Y-93477619D02*
X114898571Y-93477619D01*
X114898571Y-93477619D02*
X114803333Y-93430000D01*
X114803333Y-93430000D02*
X114708095Y-93334761D01*
X114708095Y-93334761D02*
X114660476Y-93144285D01*
X114660476Y-93144285D02*
X114660476Y-92810952D01*
X114660476Y-92810952D02*
X114708095Y-92620476D01*
X114708095Y-92620476D02*
X114803333Y-92525238D01*
X114803333Y-92525238D02*
X114898571Y-92477619D01*
X115755714Y-92477619D02*
X115755714Y-93287142D01*
X115755714Y-93287142D02*
X115803333Y-93382380D01*
X115803333Y-93382380D02*
X115850952Y-93430000D01*
X115850952Y-93430000D02*
X115946190Y-93477619D01*
X115946190Y-93477619D02*
X116136666Y-93477619D01*
X116136666Y-93477619D02*
X116231904Y-93430000D01*
X116231904Y-93430000D02*
X116279523Y-93382380D01*
X116279523Y-93382380D02*
X116327142Y-93287142D01*
X116327142Y-93287142D02*
X116327142Y-92477619D01*
X116660476Y-92477619D02*
X117231904Y-92477619D01*
X116946190Y-93477619D02*
X116946190Y-92477619D01*
X72191726Y-59076083D02*
X72801250Y-59076083D01*
X72496488Y-59380845D02*
X72496488Y-58771321D01*
X73563154Y-58580845D02*
X73182202Y-58580845D01*
X73182202Y-58580845D02*
X73144106Y-58961797D01*
X73144106Y-58961797D02*
X73182202Y-58923702D01*
X73182202Y-58923702D02*
X73258392Y-58885607D01*
X73258392Y-58885607D02*
X73448868Y-58885607D01*
X73448868Y-58885607D02*
X73525059Y-58923702D01*
X73525059Y-58923702D02*
X73563154Y-58961797D01*
X73563154Y-58961797D02*
X73601249Y-59037988D01*
X73601249Y-59037988D02*
X73601249Y-59228464D01*
X73601249Y-59228464D02*
X73563154Y-59304654D01*
X73563154Y-59304654D02*
X73525059Y-59342750D01*
X73525059Y-59342750D02*
X73448868Y-59380845D01*
X73448868Y-59380845D02*
X73258392Y-59380845D01*
X73258392Y-59380845D02*
X73182202Y-59342750D01*
X73182202Y-59342750D02*
X73144106Y-59304654D01*
X73829821Y-58580845D02*
X74096488Y-59380845D01*
X74096488Y-59380845D02*
X74363154Y-58580845D01*
X75658392Y-58618940D02*
X75582202Y-58580845D01*
X75582202Y-58580845D02*
X75467916Y-58580845D01*
X75467916Y-58580845D02*
X75353630Y-58618940D01*
X75353630Y-58618940D02*
X75277440Y-58695130D01*
X75277440Y-58695130D02*
X75239345Y-58771321D01*
X75239345Y-58771321D02*
X75201249Y-58923702D01*
X75201249Y-58923702D02*
X75201249Y-59037988D01*
X75201249Y-59037988D02*
X75239345Y-59190369D01*
X75239345Y-59190369D02*
X75277440Y-59266559D01*
X75277440Y-59266559D02*
X75353630Y-59342750D01*
X75353630Y-59342750D02*
X75467916Y-59380845D01*
X75467916Y-59380845D02*
X75544107Y-59380845D01*
X75544107Y-59380845D02*
X75658392Y-59342750D01*
X75658392Y-59342750D02*
X75696488Y-59304654D01*
X75696488Y-59304654D02*
X75696488Y-59037988D01*
X75696488Y-59037988D02*
X75544107Y-59037988D01*
X76039345Y-59380845D02*
X76039345Y-58580845D01*
X76039345Y-58580845D02*
X76496488Y-59380845D01*
X76496488Y-59380845D02*
X76496488Y-58580845D01*
X76877440Y-59380845D02*
X76877440Y-58580845D01*
X76877440Y-58580845D02*
X77067916Y-58580845D01*
X77067916Y-58580845D02*
X77182202Y-58618940D01*
X77182202Y-58618940D02*
X77258392Y-58695130D01*
X77258392Y-58695130D02*
X77296487Y-58771321D01*
X77296487Y-58771321D02*
X77334583Y-58923702D01*
X77334583Y-58923702D02*
X77334583Y-59037988D01*
X77334583Y-59037988D02*
X77296487Y-59190369D01*
X77296487Y-59190369D02*
X77258392Y-59266559D01*
X77258392Y-59266559D02*
X77182202Y-59342750D01*
X77182202Y-59342750D02*
X77067916Y-59380845D01*
X77067916Y-59380845D02*
X76877440Y-59380845D01*
X135814285Y-92477619D02*
X135338095Y-92477619D01*
X135338095Y-92477619D02*
X135290476Y-92953809D01*
X135290476Y-92953809D02*
X135338095Y-92906190D01*
X135338095Y-92906190D02*
X135433333Y-92858571D01*
X135433333Y-92858571D02*
X135671428Y-92858571D01*
X135671428Y-92858571D02*
X135766666Y-92906190D01*
X135766666Y-92906190D02*
X135814285Y-92953809D01*
X135814285Y-92953809D02*
X135861904Y-93049047D01*
X135861904Y-93049047D02*
X135861904Y-93287142D01*
X135861904Y-93287142D02*
X135814285Y-93382380D01*
X135814285Y-93382380D02*
X135766666Y-93430000D01*
X135766666Y-93430000D02*
X135671428Y-93477619D01*
X135671428Y-93477619D02*
X135433333Y-93477619D01*
X135433333Y-93477619D02*
X135338095Y-93430000D01*
X135338095Y-93430000D02*
X135290476Y-93382380D01*
X136147619Y-92477619D02*
X136480952Y-93477619D01*
X136480952Y-93477619D02*
X136814285Y-92477619D01*
X73490476Y-93530000D02*
X73633333Y-93577619D01*
X73633333Y-93577619D02*
X73871428Y-93577619D01*
X73871428Y-93577619D02*
X73966666Y-93530000D01*
X73966666Y-93530000D02*
X74014285Y-93482380D01*
X74014285Y-93482380D02*
X74061904Y-93387142D01*
X74061904Y-93387142D02*
X74061904Y-93291904D01*
X74061904Y-93291904D02*
X74014285Y-93196666D01*
X74014285Y-93196666D02*
X73966666Y-93149047D01*
X73966666Y-93149047D02*
X73871428Y-93101428D01*
X73871428Y-93101428D02*
X73680952Y-93053809D01*
X73680952Y-93053809D02*
X73585714Y-93006190D01*
X73585714Y-93006190D02*
X73538095Y-92958571D01*
X73538095Y-92958571D02*
X73490476Y-92863333D01*
X73490476Y-92863333D02*
X73490476Y-92768095D01*
X73490476Y-92768095D02*
X73538095Y-92672857D01*
X73538095Y-92672857D02*
X73585714Y-92625238D01*
X73585714Y-92625238D02*
X73680952Y-92577619D01*
X73680952Y-92577619D02*
X73919047Y-92577619D01*
X73919047Y-92577619D02*
X74061904Y-92625238D01*
X74680952Y-92577619D02*
X74776190Y-92577619D01*
X74776190Y-92577619D02*
X74871428Y-92625238D01*
X74871428Y-92625238D02*
X74919047Y-92672857D01*
X74919047Y-92672857D02*
X74966666Y-92768095D01*
X74966666Y-92768095D02*
X75014285Y-92958571D01*
X75014285Y-92958571D02*
X75014285Y-93196666D01*
X75014285Y-93196666D02*
X74966666Y-93387142D01*
X74966666Y-93387142D02*
X74919047Y-93482380D01*
X74919047Y-93482380D02*
X74871428Y-93530000D01*
X74871428Y-93530000D02*
X74776190Y-93577619D01*
X74776190Y-93577619D02*
X74680952Y-93577619D01*
X74680952Y-93577619D02*
X74585714Y-93530000D01*
X74585714Y-93530000D02*
X74538095Y-93482380D01*
X74538095Y-93482380D02*
X74490476Y-93387142D01*
X74490476Y-93387142D02*
X74442857Y-93196666D01*
X74442857Y-93196666D02*
X74442857Y-92958571D01*
X74442857Y-92958571D02*
X74490476Y-92768095D01*
X74490476Y-92768095D02*
X74538095Y-92672857D01*
X74538095Y-92672857D02*
X74585714Y-92625238D01*
X74585714Y-92625238D02*
X74680952Y-92577619D01*
X71532628Y-76852095D02*
X71151676Y-76852095D01*
X71151676Y-76852095D02*
X71113580Y-77233047D01*
X71113580Y-77233047D02*
X71151676Y-77194952D01*
X71151676Y-77194952D02*
X71227866Y-77156857D01*
X71227866Y-77156857D02*
X71418342Y-77156857D01*
X71418342Y-77156857D02*
X71494533Y-77194952D01*
X71494533Y-77194952D02*
X71532628Y-77233047D01*
X71532628Y-77233047D02*
X71570723Y-77309238D01*
X71570723Y-77309238D02*
X71570723Y-77499714D01*
X71570723Y-77499714D02*
X71532628Y-77575904D01*
X71532628Y-77575904D02*
X71494533Y-77614000D01*
X71494533Y-77614000D02*
X71418342Y-77652095D01*
X71418342Y-77652095D02*
X71227866Y-77652095D01*
X71227866Y-77652095D02*
X71151676Y-77614000D01*
X71151676Y-77614000D02*
X71113580Y-77575904D01*
X71799295Y-76852095D02*
X72065962Y-77652095D01*
X72065962Y-77652095D02*
X72332628Y-76852095D01*
X57742857Y-92577619D02*
X58361904Y-92577619D01*
X58361904Y-92577619D02*
X58028571Y-92958571D01*
X58028571Y-92958571D02*
X58171428Y-92958571D01*
X58171428Y-92958571D02*
X58266666Y-93006190D01*
X58266666Y-93006190D02*
X58314285Y-93053809D01*
X58314285Y-93053809D02*
X58361904Y-93149047D01*
X58361904Y-93149047D02*
X58361904Y-93387142D01*
X58361904Y-93387142D02*
X58314285Y-93482380D01*
X58314285Y-93482380D02*
X58266666Y-93530000D01*
X58266666Y-93530000D02*
X58171428Y-93577619D01*
X58171428Y-93577619D02*
X57885714Y-93577619D01*
X57885714Y-93577619D02*
X57790476Y-93530000D01*
X57790476Y-93530000D02*
X57742857Y-93482380D01*
X58647619Y-92577619D02*
X58980952Y-93577619D01*
X58980952Y-93577619D02*
X59314285Y-92577619D01*
X59552381Y-92577619D02*
X60171428Y-92577619D01*
X60171428Y-92577619D02*
X59838095Y-92958571D01*
X59838095Y-92958571D02*
X59980952Y-92958571D01*
X59980952Y-92958571D02*
X60076190Y-93006190D01*
X60076190Y-93006190D02*
X60123809Y-93053809D01*
X60123809Y-93053809D02*
X60171428Y-93149047D01*
X60171428Y-93149047D02*
X60171428Y-93387142D01*
X60171428Y-93387142D02*
X60123809Y-93482380D01*
X60123809Y-93482380D02*
X60076190Y-93530000D01*
X60076190Y-93530000D02*
X59980952Y-93577619D01*
X59980952Y-93577619D02*
X59695238Y-93577619D01*
X59695238Y-93577619D02*
X59600000Y-93530000D01*
X59600000Y-93530000D02*
X59552381Y-93482380D01*
D12*
X60126668Y-86433809D02*
X60269525Y-86481428D01*
X60269525Y-86481428D02*
X60317144Y-86529047D01*
X60317144Y-86529047D02*
X60364763Y-86624285D01*
X60364763Y-86624285D02*
X60364763Y-86767142D01*
X60364763Y-86767142D02*
X60317144Y-86862380D01*
X60317144Y-86862380D02*
X60269525Y-86910000D01*
X60269525Y-86910000D02*
X60174287Y-86957619D01*
X60174287Y-86957619D02*
X59793335Y-86957619D01*
X59793335Y-86957619D02*
X59793335Y-85957619D01*
X59793335Y-85957619D02*
X60126668Y-85957619D01*
X60126668Y-85957619D02*
X60221906Y-86005238D01*
X60221906Y-86005238D02*
X60269525Y-86052857D01*
X60269525Y-86052857D02*
X60317144Y-86148095D01*
X60317144Y-86148095D02*
X60317144Y-86243333D01*
X60317144Y-86243333D02*
X60269525Y-86338571D01*
X60269525Y-86338571D02*
X60221906Y-86386190D01*
X60221906Y-86386190D02*
X60126668Y-86433809D01*
X60126668Y-86433809D02*
X59793335Y-86433809D01*
X61174287Y-86910000D02*
X61079049Y-86957619D01*
X61079049Y-86957619D02*
X60888573Y-86957619D01*
X60888573Y-86957619D02*
X60793335Y-86910000D01*
X60793335Y-86910000D02*
X60745716Y-86814761D01*
X60745716Y-86814761D02*
X60745716Y-86433809D01*
X60745716Y-86433809D02*
X60793335Y-86338571D01*
X60793335Y-86338571D02*
X60888573Y-86290952D01*
X60888573Y-86290952D02*
X61079049Y-86290952D01*
X61079049Y-86290952D02*
X61174287Y-86338571D01*
X61174287Y-86338571D02*
X61221906Y-86433809D01*
X61221906Y-86433809D02*
X61221906Y-86529047D01*
X61221906Y-86529047D02*
X60745716Y-86624285D01*
X61793335Y-86957619D02*
X61698097Y-86910000D01*
X61698097Y-86910000D02*
X61650478Y-86814761D01*
X61650478Y-86814761D02*
X61650478Y-85957619D01*
X62317145Y-86957619D02*
X62221907Y-86910000D01*
X62221907Y-86910000D02*
X62174288Y-86814761D01*
X62174288Y-86814761D02*
X62174288Y-85957619D01*
X62698098Y-86957619D02*
X62698098Y-86290952D01*
X62698098Y-85957619D02*
X62650479Y-86005238D01*
X62650479Y-86005238D02*
X62698098Y-86052857D01*
X62698098Y-86052857D02*
X62745717Y-86005238D01*
X62745717Y-86005238D02*
X62698098Y-85957619D01*
X62698098Y-85957619D02*
X62698098Y-86052857D01*
X63079050Y-86290952D02*
X63602859Y-86290952D01*
X63602859Y-86290952D02*
X63079050Y-86957619D01*
X63079050Y-86957619D02*
X63602859Y-86957619D01*
X64745717Y-86957619D02*
X64745717Y-85957619D01*
X65412383Y-85957619D02*
X65602859Y-85957619D01*
X65602859Y-85957619D02*
X65698097Y-86005238D01*
X65698097Y-86005238D02*
X65793335Y-86100476D01*
X65793335Y-86100476D02*
X65840954Y-86290952D01*
X65840954Y-86290952D02*
X65840954Y-86624285D01*
X65840954Y-86624285D02*
X65793335Y-86814761D01*
X65793335Y-86814761D02*
X65698097Y-86910000D01*
X65698097Y-86910000D02*
X65602859Y-86957619D01*
X65602859Y-86957619D02*
X65412383Y-86957619D01*
X65412383Y-86957619D02*
X65317145Y-86910000D01*
X65317145Y-86910000D02*
X65221907Y-86814761D01*
X65221907Y-86814761D02*
X65174288Y-86624285D01*
X65174288Y-86624285D02*
X65174288Y-86290952D01*
X65174288Y-86290952D02*
X65221907Y-86100476D01*
X65221907Y-86100476D02*
X65317145Y-86005238D01*
X65317145Y-86005238D02*
X65412383Y-85957619D01*
X66126669Y-85957619D02*
X66698097Y-85957619D01*
X66412383Y-86957619D02*
X66412383Y-85957619D01*
X67650479Y-85957619D02*
X67983812Y-86957619D01*
X67983812Y-86957619D02*
X68317145Y-85957619D01*
X69174288Y-86957619D02*
X68602860Y-86957619D01*
X68888574Y-86957619D02*
X68888574Y-85957619D01*
X68888574Y-85957619D02*
X68793336Y-86100476D01*
X68793336Y-86100476D02*
X68698098Y-86195714D01*
X68698098Y-86195714D02*
X68602860Y-86243333D01*
X53698095Y-88577619D02*
X53698095Y-87577619D01*
X54174285Y-87910952D02*
X54174285Y-88577619D01*
X54174285Y-88006190D02*
X54221904Y-87958571D01*
X54221904Y-87958571D02*
X54317142Y-87910952D01*
X54317142Y-87910952D02*
X54459999Y-87910952D01*
X54459999Y-87910952D02*
X54555237Y-87958571D01*
X54555237Y-87958571D02*
X54602856Y-88053809D01*
X54602856Y-88053809D02*
X54602856Y-88577619D01*
X55031428Y-88530000D02*
X55126666Y-88577619D01*
X55126666Y-88577619D02*
X55317142Y-88577619D01*
X55317142Y-88577619D02*
X55412380Y-88530000D01*
X55412380Y-88530000D02*
X55459999Y-88434761D01*
X55459999Y-88434761D02*
X55459999Y-88387142D01*
X55459999Y-88387142D02*
X55412380Y-88291904D01*
X55412380Y-88291904D02*
X55317142Y-88244285D01*
X55317142Y-88244285D02*
X55174285Y-88244285D01*
X55174285Y-88244285D02*
X55079047Y-88196666D01*
X55079047Y-88196666D02*
X55031428Y-88101428D01*
X55031428Y-88101428D02*
X55031428Y-88053809D01*
X55031428Y-88053809D02*
X55079047Y-87958571D01*
X55079047Y-87958571D02*
X55174285Y-87910952D01*
X55174285Y-87910952D02*
X55317142Y-87910952D01*
X55317142Y-87910952D02*
X55412380Y-87958571D01*
X55745714Y-87910952D02*
X56126666Y-87910952D01*
X55888571Y-87577619D02*
X55888571Y-88434761D01*
X55888571Y-88434761D02*
X55936190Y-88530000D01*
X55936190Y-88530000D02*
X56031428Y-88577619D01*
X56031428Y-88577619D02*
X56126666Y-88577619D01*
X56460000Y-88577619D02*
X56460000Y-87910952D01*
X56460000Y-87577619D02*
X56412381Y-87625238D01*
X56412381Y-87625238D02*
X56460000Y-87672857D01*
X56460000Y-87672857D02*
X56507619Y-87625238D01*
X56507619Y-87625238D02*
X56460000Y-87577619D01*
X56460000Y-87577619D02*
X56460000Y-87672857D01*
X56793333Y-87910952D02*
X57174285Y-87910952D01*
X56936190Y-87577619D02*
X56936190Y-88434761D01*
X56936190Y-88434761D02*
X56983809Y-88530000D01*
X56983809Y-88530000D02*
X57079047Y-88577619D01*
X57079047Y-88577619D02*
X57174285Y-88577619D01*
X57936190Y-87910952D02*
X57936190Y-88577619D01*
X57507619Y-87910952D02*
X57507619Y-88434761D01*
X57507619Y-88434761D02*
X57555238Y-88530000D01*
X57555238Y-88530000D02*
X57650476Y-88577619D01*
X57650476Y-88577619D02*
X57793333Y-88577619D01*
X57793333Y-88577619D02*
X57888571Y-88530000D01*
X57888571Y-88530000D02*
X57936190Y-88482380D01*
X58269524Y-87910952D02*
X58650476Y-87910952D01*
X58412381Y-87577619D02*
X58412381Y-88434761D01*
X58412381Y-88434761D02*
X58460000Y-88530000D01*
X58460000Y-88530000D02*
X58555238Y-88577619D01*
X58555238Y-88577619D02*
X58650476Y-88577619D01*
X59126667Y-88577619D02*
X59031429Y-88530000D01*
X59031429Y-88530000D02*
X58983810Y-88482380D01*
X58983810Y-88482380D02*
X58936191Y-88387142D01*
X58936191Y-88387142D02*
X58936191Y-88101428D01*
X58936191Y-88101428D02*
X58983810Y-88006190D01*
X58983810Y-88006190D02*
X59031429Y-87958571D01*
X59031429Y-87958571D02*
X59126667Y-87910952D01*
X59126667Y-87910952D02*
X59269524Y-87910952D01*
X59269524Y-87910952D02*
X59364762Y-87958571D01*
X59364762Y-87958571D02*
X59412381Y-88006190D01*
X59412381Y-88006190D02*
X59460000Y-88101428D01*
X59460000Y-88101428D02*
X59460000Y-88387142D01*
X59460000Y-88387142D02*
X59412381Y-88482380D01*
X59412381Y-88482380D02*
X59364762Y-88530000D01*
X59364762Y-88530000D02*
X59269524Y-88577619D01*
X59269524Y-88577619D02*
X59126667Y-88577619D01*
X60602858Y-88530000D02*
X60745715Y-88577619D01*
X60745715Y-88577619D02*
X60983810Y-88577619D01*
X60983810Y-88577619D02*
X61079048Y-88530000D01*
X61079048Y-88530000D02*
X61126667Y-88482380D01*
X61126667Y-88482380D02*
X61174286Y-88387142D01*
X61174286Y-88387142D02*
X61174286Y-88291904D01*
X61174286Y-88291904D02*
X61126667Y-88196666D01*
X61126667Y-88196666D02*
X61079048Y-88149047D01*
X61079048Y-88149047D02*
X60983810Y-88101428D01*
X60983810Y-88101428D02*
X60793334Y-88053809D01*
X60793334Y-88053809D02*
X60698096Y-88006190D01*
X60698096Y-88006190D02*
X60650477Y-87958571D01*
X60650477Y-87958571D02*
X60602858Y-87863333D01*
X60602858Y-87863333D02*
X60602858Y-87768095D01*
X60602858Y-87768095D02*
X60650477Y-87672857D01*
X60650477Y-87672857D02*
X60698096Y-87625238D01*
X60698096Y-87625238D02*
X60793334Y-87577619D01*
X60793334Y-87577619D02*
X61031429Y-87577619D01*
X61031429Y-87577619D02*
X61174286Y-87625238D01*
X61602858Y-88053809D02*
X61936191Y-88053809D01*
X62079048Y-88577619D02*
X61602858Y-88577619D01*
X61602858Y-88577619D02*
X61602858Y-87577619D01*
X61602858Y-87577619D02*
X62079048Y-87577619D01*
X62507620Y-88577619D02*
X62507620Y-87577619D01*
X62507620Y-87577619D02*
X63079048Y-88577619D01*
X63079048Y-88577619D02*
X63079048Y-87577619D01*
X63507620Y-88291904D02*
X63983810Y-88291904D01*
X63412382Y-88577619D02*
X63745715Y-87577619D01*
X63745715Y-87577619D02*
X64079048Y-88577619D01*
X64412382Y-88577619D02*
X64412382Y-87577619D01*
X66079048Y-88577619D02*
X66079048Y-87577619D01*
X66079048Y-88530000D02*
X65983810Y-88577619D01*
X65983810Y-88577619D02*
X65793334Y-88577619D01*
X65793334Y-88577619D02*
X65698096Y-88530000D01*
X65698096Y-88530000D02*
X65650477Y-88482380D01*
X65650477Y-88482380D02*
X65602858Y-88387142D01*
X65602858Y-88387142D02*
X65602858Y-88101428D01*
X65602858Y-88101428D02*
X65650477Y-88006190D01*
X65650477Y-88006190D02*
X65698096Y-87958571D01*
X65698096Y-87958571D02*
X65793334Y-87910952D01*
X65793334Y-87910952D02*
X65983810Y-87910952D01*
X65983810Y-87910952D02*
X66079048Y-87958571D01*
X66936191Y-88530000D02*
X66840953Y-88577619D01*
X66840953Y-88577619D02*
X66650477Y-88577619D01*
X66650477Y-88577619D02*
X66555239Y-88530000D01*
X66555239Y-88530000D02*
X66507620Y-88434761D01*
X66507620Y-88434761D02*
X66507620Y-88053809D01*
X66507620Y-88053809D02*
X66555239Y-87958571D01*
X66555239Y-87958571D02*
X66650477Y-87910952D01*
X66650477Y-87910952D02*
X66840953Y-87910952D01*
X66840953Y-87910952D02*
X66936191Y-87958571D01*
X66936191Y-87958571D02*
X66983810Y-88053809D01*
X66983810Y-88053809D02*
X66983810Y-88149047D01*
X66983810Y-88149047D02*
X66507620Y-88244285D01*
X68031430Y-87910952D02*
X68412382Y-87910952D01*
X68174287Y-87577619D02*
X68174287Y-88434761D01*
X68174287Y-88434761D02*
X68221906Y-88530000D01*
X68221906Y-88530000D02*
X68317144Y-88577619D01*
X68317144Y-88577619D02*
X68412382Y-88577619D01*
X69126668Y-88530000D02*
X69031430Y-88577619D01*
X69031430Y-88577619D02*
X68840954Y-88577619D01*
X68840954Y-88577619D02*
X68745716Y-88530000D01*
X68745716Y-88530000D02*
X68698097Y-88434761D01*
X68698097Y-88434761D02*
X68698097Y-88053809D01*
X68698097Y-88053809D02*
X68745716Y-87958571D01*
X68745716Y-87958571D02*
X68840954Y-87910952D01*
X68840954Y-87910952D02*
X69031430Y-87910952D01*
X69031430Y-87910952D02*
X69126668Y-87958571D01*
X69126668Y-87958571D02*
X69174287Y-88053809D01*
X69174287Y-88053809D02*
X69174287Y-88149047D01*
X69174287Y-88149047D02*
X68698097Y-88244285D01*
X70031430Y-88530000D02*
X69936192Y-88577619D01*
X69936192Y-88577619D02*
X69745716Y-88577619D01*
X69745716Y-88577619D02*
X69650478Y-88530000D01*
X69650478Y-88530000D02*
X69602859Y-88482380D01*
X69602859Y-88482380D02*
X69555240Y-88387142D01*
X69555240Y-88387142D02*
X69555240Y-88101428D01*
X69555240Y-88101428D02*
X69602859Y-88006190D01*
X69602859Y-88006190D02*
X69650478Y-87958571D01*
X69650478Y-87958571D02*
X69745716Y-87910952D01*
X69745716Y-87910952D02*
X69936192Y-87910952D01*
X69936192Y-87910952D02*
X70031430Y-87958571D01*
X70460002Y-87910952D02*
X70460002Y-88577619D01*
X70460002Y-88006190D02*
X70507621Y-87958571D01*
X70507621Y-87958571D02*
X70602859Y-87910952D01*
X70602859Y-87910952D02*
X70745716Y-87910952D01*
X70745716Y-87910952D02*
X70840954Y-87958571D01*
X70840954Y-87958571D02*
X70888573Y-88053809D01*
X70888573Y-88053809D02*
X70888573Y-88577619D01*
X71507621Y-88577619D02*
X71412383Y-88530000D01*
X71412383Y-88530000D02*
X71364764Y-88482380D01*
X71364764Y-88482380D02*
X71317145Y-88387142D01*
X71317145Y-88387142D02*
X71317145Y-88101428D01*
X71317145Y-88101428D02*
X71364764Y-88006190D01*
X71364764Y-88006190D02*
X71412383Y-87958571D01*
X71412383Y-87958571D02*
X71507621Y-87910952D01*
X71507621Y-87910952D02*
X71650478Y-87910952D01*
X71650478Y-87910952D02*
X71745716Y-87958571D01*
X71745716Y-87958571D02*
X71793335Y-88006190D01*
X71793335Y-88006190D02*
X71840954Y-88101428D01*
X71840954Y-88101428D02*
X71840954Y-88387142D01*
X71840954Y-88387142D02*
X71793335Y-88482380D01*
X71793335Y-88482380D02*
X71745716Y-88530000D01*
X71745716Y-88530000D02*
X71650478Y-88577619D01*
X71650478Y-88577619D02*
X71507621Y-88577619D01*
X72412383Y-88577619D02*
X72317145Y-88530000D01*
X72317145Y-88530000D02*
X72269526Y-88434761D01*
X72269526Y-88434761D02*
X72269526Y-87577619D01*
X72936193Y-88577619D02*
X72840955Y-88530000D01*
X72840955Y-88530000D02*
X72793336Y-88482380D01*
X72793336Y-88482380D02*
X72745717Y-88387142D01*
X72745717Y-88387142D02*
X72745717Y-88101428D01*
X72745717Y-88101428D02*
X72793336Y-88006190D01*
X72793336Y-88006190D02*
X72840955Y-87958571D01*
X72840955Y-87958571D02*
X72936193Y-87910952D01*
X72936193Y-87910952D02*
X73079050Y-87910952D01*
X73079050Y-87910952D02*
X73174288Y-87958571D01*
X73174288Y-87958571D02*
X73221907Y-88006190D01*
X73221907Y-88006190D02*
X73269526Y-88101428D01*
X73269526Y-88101428D02*
X73269526Y-88387142D01*
X73269526Y-88387142D02*
X73221907Y-88482380D01*
X73221907Y-88482380D02*
X73174288Y-88530000D01*
X73174288Y-88530000D02*
X73079050Y-88577619D01*
X73079050Y-88577619D02*
X72936193Y-88577619D01*
X74126669Y-87910952D02*
X74126669Y-88720476D01*
X74126669Y-88720476D02*
X74079050Y-88815714D01*
X74079050Y-88815714D02*
X74031431Y-88863333D01*
X74031431Y-88863333D02*
X73936193Y-88910952D01*
X73936193Y-88910952D02*
X73793336Y-88910952D01*
X73793336Y-88910952D02*
X73698098Y-88863333D01*
X74126669Y-88530000D02*
X74031431Y-88577619D01*
X74031431Y-88577619D02*
X73840955Y-88577619D01*
X73840955Y-88577619D02*
X73745717Y-88530000D01*
X73745717Y-88530000D02*
X73698098Y-88482380D01*
X73698098Y-88482380D02*
X73650479Y-88387142D01*
X73650479Y-88387142D02*
X73650479Y-88101428D01*
X73650479Y-88101428D02*
X73698098Y-88006190D01*
X73698098Y-88006190D02*
X73745717Y-87958571D01*
X73745717Y-87958571D02*
X73840955Y-87910952D01*
X73840955Y-87910952D02*
X74031431Y-87910952D01*
X74031431Y-87910952D02*
X74126669Y-87958571D01*
X74602860Y-88577619D02*
X74602860Y-87910952D01*
X74602860Y-87577619D02*
X74555241Y-87625238D01*
X74555241Y-87625238D02*
X74602860Y-87672857D01*
X74602860Y-87672857D02*
X74650479Y-87625238D01*
X74650479Y-87625238D02*
X74602860Y-87577619D01*
X74602860Y-87577619D02*
X74602860Y-87672857D01*
X75507621Y-88577619D02*
X75507621Y-88053809D01*
X75507621Y-88053809D02*
X75460002Y-87958571D01*
X75460002Y-87958571D02*
X75364764Y-87910952D01*
X75364764Y-87910952D02*
X75174288Y-87910952D01*
X75174288Y-87910952D02*
X75079050Y-87958571D01*
X75507621Y-88530000D02*
X75412383Y-88577619D01*
X75412383Y-88577619D02*
X75174288Y-88577619D01*
X75174288Y-88577619D02*
X75079050Y-88530000D01*
X75079050Y-88530000D02*
X75031431Y-88434761D01*
X75031431Y-88434761D02*
X75031431Y-88339523D01*
X75031431Y-88339523D02*
X75079050Y-88244285D01*
X75079050Y-88244285D02*
X75174288Y-88196666D01*
X75174288Y-88196666D02*
X75412383Y-88196666D01*
X75412383Y-88196666D02*
X75507621Y-88149047D01*
D11*
X62990476Y-93530000D02*
X63133333Y-93577619D01*
X63133333Y-93577619D02*
X63371428Y-93577619D01*
X63371428Y-93577619D02*
X63466666Y-93530000D01*
X63466666Y-93530000D02*
X63514285Y-93482380D01*
X63514285Y-93482380D02*
X63561904Y-93387142D01*
X63561904Y-93387142D02*
X63561904Y-93291904D01*
X63561904Y-93291904D02*
X63514285Y-93196666D01*
X63514285Y-93196666D02*
X63466666Y-93149047D01*
X63466666Y-93149047D02*
X63371428Y-93101428D01*
X63371428Y-93101428D02*
X63180952Y-93053809D01*
X63180952Y-93053809D02*
X63085714Y-93006190D01*
X63085714Y-93006190D02*
X63038095Y-92958571D01*
X63038095Y-92958571D02*
X62990476Y-92863333D01*
X62990476Y-92863333D02*
X62990476Y-92768095D01*
X62990476Y-92768095D02*
X63038095Y-92672857D01*
X63038095Y-92672857D02*
X63085714Y-92625238D01*
X63085714Y-92625238D02*
X63180952Y-92577619D01*
X63180952Y-92577619D02*
X63419047Y-92577619D01*
X63419047Y-92577619D02*
X63561904Y-92625238D01*
X64561904Y-93482380D02*
X64514285Y-93530000D01*
X64514285Y-93530000D02*
X64371428Y-93577619D01*
X64371428Y-93577619D02*
X64276190Y-93577619D01*
X64276190Y-93577619D02*
X64133333Y-93530000D01*
X64133333Y-93530000D02*
X64038095Y-93434761D01*
X64038095Y-93434761D02*
X63990476Y-93339523D01*
X63990476Y-93339523D02*
X63942857Y-93149047D01*
X63942857Y-93149047D02*
X63942857Y-93006190D01*
X63942857Y-93006190D02*
X63990476Y-92815714D01*
X63990476Y-92815714D02*
X64038095Y-92720476D01*
X64038095Y-92720476D02*
X64133333Y-92625238D01*
X64133333Y-92625238D02*
X64276190Y-92577619D01*
X64276190Y-92577619D02*
X64371428Y-92577619D01*
X64371428Y-92577619D02*
X64514285Y-92625238D01*
X64514285Y-92625238D02*
X64561904Y-92672857D01*
X64990476Y-93577619D02*
X64990476Y-92577619D01*
X65561904Y-93577619D02*
X65133333Y-93006190D01*
X65561904Y-92577619D02*
X64990476Y-93149047D01*
X57058035Y-60510845D02*
X57553273Y-60510845D01*
X57553273Y-60510845D02*
X57286607Y-60815607D01*
X57286607Y-60815607D02*
X57400892Y-60815607D01*
X57400892Y-60815607D02*
X57477083Y-60853702D01*
X57477083Y-60853702D02*
X57515178Y-60891797D01*
X57515178Y-60891797D02*
X57553273Y-60967988D01*
X57553273Y-60967988D02*
X57553273Y-61158464D01*
X57553273Y-61158464D02*
X57515178Y-61234654D01*
X57515178Y-61234654D02*
X57477083Y-61272750D01*
X57477083Y-61272750D02*
X57400892Y-61310845D01*
X57400892Y-61310845D02*
X57172321Y-61310845D01*
X57172321Y-61310845D02*
X57096130Y-61272750D01*
X57096130Y-61272750D02*
X57058035Y-61234654D01*
X57781845Y-60510845D02*
X58048512Y-61310845D01*
X58048512Y-61310845D02*
X58315178Y-60510845D01*
X58505654Y-60510845D02*
X59000892Y-60510845D01*
X59000892Y-60510845D02*
X58734226Y-60815607D01*
X58734226Y-60815607D02*
X58848511Y-60815607D01*
X58848511Y-60815607D02*
X58924702Y-60853702D01*
X58924702Y-60853702D02*
X58962797Y-60891797D01*
X58962797Y-60891797D02*
X59000892Y-60967988D01*
X59000892Y-60967988D02*
X59000892Y-61158464D01*
X59000892Y-61158464D02*
X58962797Y-61234654D01*
X58962797Y-61234654D02*
X58924702Y-61272750D01*
X58924702Y-61272750D02*
X58848511Y-61310845D01*
X58848511Y-61310845D02*
X58619940Y-61310845D01*
X58619940Y-61310845D02*
X58543749Y-61272750D01*
X58543749Y-61272750D02*
X58505654Y-61234654D01*
X130724285Y-67822095D02*
X131219523Y-67822095D01*
X131219523Y-67822095D02*
X130952857Y-68126857D01*
X130952857Y-68126857D02*
X131067142Y-68126857D01*
X131067142Y-68126857D02*
X131143333Y-68164952D01*
X131143333Y-68164952D02*
X131181428Y-68203047D01*
X131181428Y-68203047D02*
X131219523Y-68279238D01*
X131219523Y-68279238D02*
X131219523Y-68469714D01*
X131219523Y-68469714D02*
X131181428Y-68545904D01*
X131181428Y-68545904D02*
X131143333Y-68584000D01*
X131143333Y-68584000D02*
X131067142Y-68622095D01*
X131067142Y-68622095D02*
X130838571Y-68622095D01*
X130838571Y-68622095D02*
X130762380Y-68584000D01*
X130762380Y-68584000D02*
X130724285Y-68545904D01*
X131448095Y-67822095D02*
X131714762Y-68622095D01*
X131714762Y-68622095D02*
X131981428Y-67822095D01*
X132171904Y-67822095D02*
X132667142Y-67822095D01*
X132667142Y-67822095D02*
X132400476Y-68126857D01*
X132400476Y-68126857D02*
X132514761Y-68126857D01*
X132514761Y-68126857D02*
X132590952Y-68164952D01*
X132590952Y-68164952D02*
X132629047Y-68203047D01*
X132629047Y-68203047D02*
X132667142Y-68279238D01*
X132667142Y-68279238D02*
X132667142Y-68469714D01*
X132667142Y-68469714D02*
X132629047Y-68545904D01*
X132629047Y-68545904D02*
X132590952Y-68584000D01*
X132590952Y-68584000D02*
X132514761Y-68622095D01*
X132514761Y-68622095D02*
X132286190Y-68622095D01*
X132286190Y-68622095D02*
X132209999Y-68584000D01*
X132209999Y-68584000D02*
X132171904Y-68545904D01*
X133619524Y-68622095D02*
X133619524Y-67822095D01*
X133619524Y-67822095D02*
X133810000Y-67822095D01*
X133810000Y-67822095D02*
X133924286Y-67860190D01*
X133924286Y-67860190D02*
X134000476Y-67936380D01*
X134000476Y-67936380D02*
X134038571Y-68012571D01*
X134038571Y-68012571D02*
X134076667Y-68164952D01*
X134076667Y-68164952D02*
X134076667Y-68279238D01*
X134076667Y-68279238D02*
X134038571Y-68431619D01*
X134038571Y-68431619D02*
X134000476Y-68507809D01*
X134000476Y-68507809D02*
X133924286Y-68584000D01*
X133924286Y-68584000D02*
X133810000Y-68622095D01*
X133810000Y-68622095D02*
X133619524Y-68622095D01*
X134419524Y-68622095D02*
X134419524Y-67822095D01*
X134419524Y-68203047D02*
X134876667Y-68203047D01*
X134876667Y-68622095D02*
X134876667Y-67822095D01*
X135143333Y-67822095D02*
X135600476Y-67822095D01*
X135371904Y-68622095D02*
X135371904Y-67822095D01*
X136895714Y-67860190D02*
X136819524Y-67822095D01*
X136819524Y-67822095D02*
X136705238Y-67822095D01*
X136705238Y-67822095D02*
X136590952Y-67860190D01*
X136590952Y-67860190D02*
X136514762Y-67936380D01*
X136514762Y-67936380D02*
X136476667Y-68012571D01*
X136476667Y-68012571D02*
X136438571Y-68164952D01*
X136438571Y-68164952D02*
X136438571Y-68279238D01*
X136438571Y-68279238D02*
X136476667Y-68431619D01*
X136476667Y-68431619D02*
X136514762Y-68507809D01*
X136514762Y-68507809D02*
X136590952Y-68584000D01*
X136590952Y-68584000D02*
X136705238Y-68622095D01*
X136705238Y-68622095D02*
X136781429Y-68622095D01*
X136781429Y-68622095D02*
X136895714Y-68584000D01*
X136895714Y-68584000D02*
X136933810Y-68545904D01*
X136933810Y-68545904D02*
X136933810Y-68279238D01*
X136933810Y-68279238D02*
X136781429Y-68279238D01*
X137276667Y-68622095D02*
X137276667Y-67822095D01*
X137276667Y-67822095D02*
X137733810Y-68622095D01*
X137733810Y-68622095D02*
X137733810Y-67822095D01*
X138114762Y-68622095D02*
X138114762Y-67822095D01*
X138114762Y-67822095D02*
X138305238Y-67822095D01*
X138305238Y-67822095D02*
X138419524Y-67860190D01*
X138419524Y-67860190D02*
X138495714Y-67936380D01*
X138495714Y-67936380D02*
X138533809Y-68012571D01*
X138533809Y-68012571D02*
X138571905Y-68164952D01*
X138571905Y-68164952D02*
X138571905Y-68279238D01*
X138571905Y-68279238D02*
X138533809Y-68431619D01*
X138533809Y-68431619D02*
X138495714Y-68507809D01*
X138495714Y-68507809D02*
X138419524Y-68584000D01*
X138419524Y-68584000D02*
X138305238Y-68622095D01*
X138305238Y-68622095D02*
X138114762Y-68622095D01*
X125261904Y-92525238D02*
X125166666Y-92477619D01*
X125166666Y-92477619D02*
X125023809Y-92477619D01*
X125023809Y-92477619D02*
X124880952Y-92525238D01*
X124880952Y-92525238D02*
X124785714Y-92620476D01*
X124785714Y-92620476D02*
X124738095Y-92715714D01*
X124738095Y-92715714D02*
X124690476Y-92906190D01*
X124690476Y-92906190D02*
X124690476Y-93049047D01*
X124690476Y-93049047D02*
X124738095Y-93239523D01*
X124738095Y-93239523D02*
X124785714Y-93334761D01*
X124785714Y-93334761D02*
X124880952Y-93430000D01*
X124880952Y-93430000D02*
X125023809Y-93477619D01*
X125023809Y-93477619D02*
X125119047Y-93477619D01*
X125119047Y-93477619D02*
X125261904Y-93430000D01*
X125261904Y-93430000D02*
X125309523Y-93382380D01*
X125309523Y-93382380D02*
X125309523Y-93049047D01*
X125309523Y-93049047D02*
X125119047Y-93049047D01*
X125738095Y-93477619D02*
X125738095Y-92477619D01*
X125738095Y-92477619D02*
X126309523Y-93477619D01*
X126309523Y-93477619D02*
X126309523Y-92477619D01*
X126785714Y-93477619D02*
X126785714Y-92477619D01*
X126785714Y-92477619D02*
X127023809Y-92477619D01*
X127023809Y-92477619D02*
X127166666Y-92525238D01*
X127166666Y-92525238D02*
X127261904Y-92620476D01*
X127261904Y-92620476D02*
X127309523Y-92715714D01*
X127309523Y-92715714D02*
X127357142Y-92906190D01*
X127357142Y-92906190D02*
X127357142Y-93049047D01*
X127357142Y-93049047D02*
X127309523Y-93239523D01*
X127309523Y-93239523D02*
X127261904Y-93334761D01*
X127261904Y-93334761D02*
X127166666Y-93430000D01*
X127166666Y-93430000D02*
X127023809Y-93477619D01*
X127023809Y-93477619D02*
X126785714Y-93477619D01*
X62160773Y-58648940D02*
X62084583Y-58610845D01*
X62084583Y-58610845D02*
X61970297Y-58610845D01*
X61970297Y-58610845D02*
X61856011Y-58648940D01*
X61856011Y-58648940D02*
X61779821Y-58725130D01*
X61779821Y-58725130D02*
X61741726Y-58801321D01*
X61741726Y-58801321D02*
X61703630Y-58953702D01*
X61703630Y-58953702D02*
X61703630Y-59067988D01*
X61703630Y-59067988D02*
X61741726Y-59220369D01*
X61741726Y-59220369D02*
X61779821Y-59296559D01*
X61779821Y-59296559D02*
X61856011Y-59372750D01*
X61856011Y-59372750D02*
X61970297Y-59410845D01*
X61970297Y-59410845D02*
X62046488Y-59410845D01*
X62046488Y-59410845D02*
X62160773Y-59372750D01*
X62160773Y-59372750D02*
X62198869Y-59334654D01*
X62198869Y-59334654D02*
X62198869Y-59067988D01*
X62198869Y-59067988D02*
X62046488Y-59067988D01*
X62541726Y-59410845D02*
X62541726Y-58610845D01*
X62541726Y-58610845D02*
X62998869Y-59410845D01*
X62998869Y-59410845D02*
X62998869Y-58610845D01*
X63379821Y-59410845D02*
X63379821Y-58610845D01*
X63379821Y-58610845D02*
X63570297Y-58610845D01*
X63570297Y-58610845D02*
X63684583Y-58648940D01*
X63684583Y-58648940D02*
X63760773Y-58725130D01*
X63760773Y-58725130D02*
X63798868Y-58801321D01*
X63798868Y-58801321D02*
X63836964Y-58953702D01*
X63836964Y-58953702D02*
X63836964Y-59067988D01*
X63836964Y-59067988D02*
X63798868Y-59220369D01*
X63798868Y-59220369D02*
X63760773Y-59296559D01*
X63760773Y-59296559D02*
X63684583Y-59372750D01*
X63684583Y-59372750D02*
X63570297Y-59410845D01*
X63570297Y-59410845D02*
X63379821Y-59410845D01*
X65208392Y-58648940D02*
X65132202Y-58610845D01*
X65132202Y-58610845D02*
X65017916Y-58610845D01*
X65017916Y-58610845D02*
X64903630Y-58648940D01*
X64903630Y-58648940D02*
X64827440Y-58725130D01*
X64827440Y-58725130D02*
X64789345Y-58801321D01*
X64789345Y-58801321D02*
X64751249Y-58953702D01*
X64751249Y-58953702D02*
X64751249Y-59067988D01*
X64751249Y-59067988D02*
X64789345Y-59220369D01*
X64789345Y-59220369D02*
X64827440Y-59296559D01*
X64827440Y-59296559D02*
X64903630Y-59372750D01*
X64903630Y-59372750D02*
X65017916Y-59410845D01*
X65017916Y-59410845D02*
X65094107Y-59410845D01*
X65094107Y-59410845D02*
X65208392Y-59372750D01*
X65208392Y-59372750D02*
X65246488Y-59334654D01*
X65246488Y-59334654D02*
X65246488Y-59067988D01*
X65246488Y-59067988D02*
X65094107Y-59067988D01*
X65589345Y-59410845D02*
X65589345Y-58610845D01*
X65589345Y-58610845D02*
X65894107Y-58610845D01*
X65894107Y-58610845D02*
X65970297Y-58648940D01*
X65970297Y-58648940D02*
X66008392Y-58687035D01*
X66008392Y-58687035D02*
X66046488Y-58763226D01*
X66046488Y-58763226D02*
X66046488Y-58877511D01*
X66046488Y-58877511D02*
X66008392Y-58953702D01*
X66008392Y-58953702D02*
X65970297Y-58991797D01*
X65970297Y-58991797D02*
X65894107Y-59029892D01*
X65894107Y-59029892D02*
X65589345Y-59029892D01*
X66389345Y-59410845D02*
X66389345Y-58610845D01*
X66922678Y-58610845D02*
X67075059Y-58610845D01*
X67075059Y-58610845D02*
X67151249Y-58648940D01*
X67151249Y-58648940D02*
X67227440Y-58725130D01*
X67227440Y-58725130D02*
X67265535Y-58877511D01*
X67265535Y-58877511D02*
X67265535Y-59144178D01*
X67265535Y-59144178D02*
X67227440Y-59296559D01*
X67227440Y-59296559D02*
X67151249Y-59372750D01*
X67151249Y-59372750D02*
X67075059Y-59410845D01*
X67075059Y-59410845D02*
X66922678Y-59410845D01*
X66922678Y-59410845D02*
X66846487Y-59372750D01*
X66846487Y-59372750D02*
X66770297Y-59296559D01*
X66770297Y-59296559D02*
X66732201Y-59144178D01*
X66732201Y-59144178D02*
X66732201Y-58877511D01*
X66732201Y-58877511D02*
X66770297Y-58725130D01*
X66770297Y-58725130D02*
X66846487Y-58648940D01*
X66846487Y-58648940D02*
X66922678Y-58610845D01*
X67532201Y-58610845D02*
X68027439Y-58610845D01*
X68027439Y-58610845D02*
X67760773Y-58915607D01*
X67760773Y-58915607D02*
X67875058Y-58915607D01*
X67875058Y-58915607D02*
X67951249Y-58953702D01*
X67951249Y-58953702D02*
X67989344Y-58991797D01*
X67989344Y-58991797D02*
X68027439Y-59067988D01*
X68027439Y-59067988D02*
X68027439Y-59258464D01*
X68027439Y-59258464D02*
X67989344Y-59334654D01*
X67989344Y-59334654D02*
X67951249Y-59372750D01*
X67951249Y-59372750D02*
X67875058Y-59410845D01*
X67875058Y-59410845D02*
X67646487Y-59410845D01*
X67646487Y-59410845D02*
X67570296Y-59372750D01*
X67570296Y-59372750D02*
X67532201Y-59334654D01*
X68751249Y-58610845D02*
X68370297Y-58610845D01*
X68370297Y-58610845D02*
X68332201Y-58991797D01*
X68332201Y-58991797D02*
X68370297Y-58953702D01*
X68370297Y-58953702D02*
X68446487Y-58915607D01*
X68446487Y-58915607D02*
X68636963Y-58915607D01*
X68636963Y-58915607D02*
X68713154Y-58953702D01*
X68713154Y-58953702D02*
X68751249Y-58991797D01*
X68751249Y-58991797D02*
X68789344Y-59067988D01*
X68789344Y-59067988D02*
X68789344Y-59258464D01*
X68789344Y-59258464D02*
X68751249Y-59334654D01*
X68751249Y-59334654D02*
X68713154Y-59372750D01*
X68713154Y-59372750D02*
X68636963Y-59410845D01*
X68636963Y-59410845D02*
X68446487Y-59410845D01*
X68446487Y-59410845D02*
X68370297Y-59372750D01*
X68370297Y-59372750D02*
X68332201Y-59334654D01*
X69741726Y-59410845D02*
X69741726Y-58610845D01*
X70122678Y-59410845D02*
X70122678Y-58610845D01*
X70122678Y-58610845D02*
X70579821Y-59410845D01*
X70579821Y-59410845D02*
X70579821Y-58610845D01*
X53915178Y-60450845D02*
X53534226Y-60450845D01*
X53534226Y-60450845D02*
X53496130Y-60831797D01*
X53496130Y-60831797D02*
X53534226Y-60793702D01*
X53534226Y-60793702D02*
X53610416Y-60755607D01*
X53610416Y-60755607D02*
X53800892Y-60755607D01*
X53800892Y-60755607D02*
X53877083Y-60793702D01*
X53877083Y-60793702D02*
X53915178Y-60831797D01*
X53915178Y-60831797D02*
X53953273Y-60907988D01*
X53953273Y-60907988D02*
X53953273Y-61098464D01*
X53953273Y-61098464D02*
X53915178Y-61174654D01*
X53915178Y-61174654D02*
X53877083Y-61212750D01*
X53877083Y-61212750D02*
X53800892Y-61250845D01*
X53800892Y-61250845D02*
X53610416Y-61250845D01*
X53610416Y-61250845D02*
X53534226Y-61212750D01*
X53534226Y-61212750D02*
X53496130Y-61174654D01*
X54181845Y-60450845D02*
X54448512Y-61250845D01*
X54448512Y-61250845D02*
X54715178Y-60450845D01*
X60610476Y-83677095D02*
X60610476Y-82877095D01*
X60991428Y-83677095D02*
X60991428Y-82877095D01*
X60991428Y-82877095D02*
X61448571Y-83677095D01*
X61448571Y-83677095D02*
X61448571Y-82877095D01*
X62858094Y-82915190D02*
X62781904Y-82877095D01*
X62781904Y-82877095D02*
X62667618Y-82877095D01*
X62667618Y-82877095D02*
X62553332Y-82915190D01*
X62553332Y-82915190D02*
X62477142Y-82991380D01*
X62477142Y-82991380D02*
X62439047Y-83067571D01*
X62439047Y-83067571D02*
X62400951Y-83219952D01*
X62400951Y-83219952D02*
X62400951Y-83334238D01*
X62400951Y-83334238D02*
X62439047Y-83486619D01*
X62439047Y-83486619D02*
X62477142Y-83562809D01*
X62477142Y-83562809D02*
X62553332Y-83639000D01*
X62553332Y-83639000D02*
X62667618Y-83677095D01*
X62667618Y-83677095D02*
X62743809Y-83677095D01*
X62743809Y-83677095D02*
X62858094Y-83639000D01*
X62858094Y-83639000D02*
X62896190Y-83600904D01*
X62896190Y-83600904D02*
X62896190Y-83334238D01*
X62896190Y-83334238D02*
X62743809Y-83334238D01*
X63239047Y-83677095D02*
X63239047Y-82877095D01*
X63239047Y-82877095D02*
X63543809Y-82877095D01*
X63543809Y-82877095D02*
X63619999Y-82915190D01*
X63619999Y-82915190D02*
X63658094Y-82953285D01*
X63658094Y-82953285D02*
X63696190Y-83029476D01*
X63696190Y-83029476D02*
X63696190Y-83143761D01*
X63696190Y-83143761D02*
X63658094Y-83219952D01*
X63658094Y-83219952D02*
X63619999Y-83258047D01*
X63619999Y-83258047D02*
X63543809Y-83296142D01*
X63543809Y-83296142D02*
X63239047Y-83296142D01*
X64039047Y-83677095D02*
X64039047Y-82877095D01*
X64572380Y-82877095D02*
X64724761Y-82877095D01*
X64724761Y-82877095D02*
X64800951Y-82915190D01*
X64800951Y-82915190D02*
X64877142Y-82991380D01*
X64877142Y-82991380D02*
X64915237Y-83143761D01*
X64915237Y-83143761D02*
X64915237Y-83410428D01*
X64915237Y-83410428D02*
X64877142Y-83562809D01*
X64877142Y-83562809D02*
X64800951Y-83639000D01*
X64800951Y-83639000D02*
X64724761Y-83677095D01*
X64724761Y-83677095D02*
X64572380Y-83677095D01*
X64572380Y-83677095D02*
X64496189Y-83639000D01*
X64496189Y-83639000D02*
X64419999Y-83562809D01*
X64419999Y-83562809D02*
X64381903Y-83410428D01*
X64381903Y-83410428D02*
X64381903Y-83143761D01*
X64381903Y-83143761D02*
X64419999Y-82991380D01*
X64419999Y-82991380D02*
X64496189Y-82915190D01*
X64496189Y-82915190D02*
X64572380Y-82877095D01*
X65181903Y-82877095D02*
X65677141Y-82877095D01*
X65677141Y-82877095D02*
X65410475Y-83181857D01*
X65410475Y-83181857D02*
X65524760Y-83181857D01*
X65524760Y-83181857D02*
X65600951Y-83219952D01*
X65600951Y-83219952D02*
X65639046Y-83258047D01*
X65639046Y-83258047D02*
X65677141Y-83334238D01*
X65677141Y-83334238D02*
X65677141Y-83524714D01*
X65677141Y-83524714D02*
X65639046Y-83600904D01*
X65639046Y-83600904D02*
X65600951Y-83639000D01*
X65600951Y-83639000D02*
X65524760Y-83677095D01*
X65524760Y-83677095D02*
X65296189Y-83677095D01*
X65296189Y-83677095D02*
X65219998Y-83639000D01*
X65219998Y-83639000D02*
X65181903Y-83600904D01*
X66058094Y-83677095D02*
X66210475Y-83677095D01*
X66210475Y-83677095D02*
X66286665Y-83639000D01*
X66286665Y-83639000D02*
X66324761Y-83600904D01*
X66324761Y-83600904D02*
X66400951Y-83486619D01*
X66400951Y-83486619D02*
X66439046Y-83334238D01*
X66439046Y-83334238D02*
X66439046Y-83029476D01*
X66439046Y-83029476D02*
X66400951Y-82953285D01*
X66400951Y-82953285D02*
X66362856Y-82915190D01*
X66362856Y-82915190D02*
X66286665Y-82877095D01*
X66286665Y-82877095D02*
X66134284Y-82877095D01*
X66134284Y-82877095D02*
X66058094Y-82915190D01*
X66058094Y-82915190D02*
X66019999Y-82953285D01*
X66019999Y-82953285D02*
X65981903Y-83029476D01*
X65981903Y-83029476D02*
X65981903Y-83219952D01*
X65981903Y-83219952D02*
X66019999Y-83296142D01*
X66019999Y-83296142D02*
X66058094Y-83334238D01*
X66058094Y-83334238D02*
X66134284Y-83372333D01*
X66134284Y-83372333D02*
X66286665Y-83372333D01*
X66286665Y-83372333D02*
X66362856Y-83334238D01*
X66362856Y-83334238D02*
X66400951Y-83296142D01*
X66400951Y-83296142D02*
X66439046Y-83219952D01*
X67810475Y-82915190D02*
X67734285Y-82877095D01*
X67734285Y-82877095D02*
X67619999Y-82877095D01*
X67619999Y-82877095D02*
X67505713Y-82915190D01*
X67505713Y-82915190D02*
X67429523Y-82991380D01*
X67429523Y-82991380D02*
X67391428Y-83067571D01*
X67391428Y-83067571D02*
X67353332Y-83219952D01*
X67353332Y-83219952D02*
X67353332Y-83334238D01*
X67353332Y-83334238D02*
X67391428Y-83486619D01*
X67391428Y-83486619D02*
X67429523Y-83562809D01*
X67429523Y-83562809D02*
X67505713Y-83639000D01*
X67505713Y-83639000D02*
X67619999Y-83677095D01*
X67619999Y-83677095D02*
X67696190Y-83677095D01*
X67696190Y-83677095D02*
X67810475Y-83639000D01*
X67810475Y-83639000D02*
X67848571Y-83600904D01*
X67848571Y-83600904D02*
X67848571Y-83334238D01*
X67848571Y-83334238D02*
X67696190Y-83334238D01*
X68191428Y-83677095D02*
X68191428Y-82877095D01*
X68191428Y-82877095D02*
X68648571Y-83677095D01*
X68648571Y-83677095D02*
X68648571Y-82877095D01*
X69029523Y-83677095D02*
X69029523Y-82877095D01*
X69029523Y-82877095D02*
X69219999Y-82877095D01*
X69219999Y-82877095D02*
X69334285Y-82915190D01*
X69334285Y-82915190D02*
X69410475Y-82991380D01*
X69410475Y-82991380D02*
X69448570Y-83067571D01*
X69448570Y-83067571D02*
X69486666Y-83219952D01*
X69486666Y-83219952D02*
X69486666Y-83334238D01*
X69486666Y-83334238D02*
X69448570Y-83486619D01*
X69448570Y-83486619D02*
X69410475Y-83562809D01*
X69410475Y-83562809D02*
X69334285Y-83639000D01*
X69334285Y-83639000D02*
X69219999Y-83677095D01*
X69219999Y-83677095D02*
X69029523Y-83677095D01*
X128667619Y-91025904D02*
X128629523Y-91064000D01*
X128629523Y-91064000D02*
X128515238Y-91102095D01*
X128515238Y-91102095D02*
X128439047Y-91102095D01*
X128439047Y-91102095D02*
X128324761Y-91064000D01*
X128324761Y-91064000D02*
X128248571Y-90987809D01*
X128248571Y-90987809D02*
X128210476Y-90911619D01*
X128210476Y-90911619D02*
X128172380Y-90759238D01*
X128172380Y-90759238D02*
X128172380Y-90644952D01*
X128172380Y-90644952D02*
X128210476Y-90492571D01*
X128210476Y-90492571D02*
X128248571Y-90416380D01*
X128248571Y-90416380D02*
X128324761Y-90340190D01*
X128324761Y-90340190D02*
X128439047Y-90302095D01*
X128439047Y-90302095D02*
X128515238Y-90302095D01*
X128515238Y-90302095D02*
X128629523Y-90340190D01*
X128629523Y-90340190D02*
X128667619Y-90378285D01*
X129162857Y-90302095D02*
X129315238Y-90302095D01*
X129315238Y-90302095D02*
X129391428Y-90340190D01*
X129391428Y-90340190D02*
X129467619Y-90416380D01*
X129467619Y-90416380D02*
X129505714Y-90568761D01*
X129505714Y-90568761D02*
X129505714Y-90835428D01*
X129505714Y-90835428D02*
X129467619Y-90987809D01*
X129467619Y-90987809D02*
X129391428Y-91064000D01*
X129391428Y-91064000D02*
X129315238Y-91102095D01*
X129315238Y-91102095D02*
X129162857Y-91102095D01*
X129162857Y-91102095D02*
X129086666Y-91064000D01*
X129086666Y-91064000D02*
X129010476Y-90987809D01*
X129010476Y-90987809D02*
X128972380Y-90835428D01*
X128972380Y-90835428D02*
X128972380Y-90568761D01*
X128972380Y-90568761D02*
X129010476Y-90416380D01*
X129010476Y-90416380D02*
X129086666Y-90340190D01*
X129086666Y-90340190D02*
X129162857Y-90302095D01*
X130305714Y-91102095D02*
X130039047Y-90721142D01*
X129848571Y-91102095D02*
X129848571Y-90302095D01*
X129848571Y-90302095D02*
X130153333Y-90302095D01*
X130153333Y-90302095D02*
X130229523Y-90340190D01*
X130229523Y-90340190D02*
X130267618Y-90378285D01*
X130267618Y-90378285D02*
X130305714Y-90454476D01*
X130305714Y-90454476D02*
X130305714Y-90568761D01*
X130305714Y-90568761D02*
X130267618Y-90644952D01*
X130267618Y-90644952D02*
X130229523Y-90683047D01*
X130229523Y-90683047D02*
X130153333Y-90721142D01*
X130153333Y-90721142D02*
X129848571Y-90721142D01*
X131105714Y-91102095D02*
X130839047Y-90721142D01*
X130648571Y-91102095D02*
X130648571Y-90302095D01*
X130648571Y-90302095D02*
X130953333Y-90302095D01*
X130953333Y-90302095D02*
X131029523Y-90340190D01*
X131029523Y-90340190D02*
X131067618Y-90378285D01*
X131067618Y-90378285D02*
X131105714Y-90454476D01*
X131105714Y-90454476D02*
X131105714Y-90568761D01*
X131105714Y-90568761D02*
X131067618Y-90644952D01*
X131067618Y-90644952D02*
X131029523Y-90683047D01*
X131029523Y-90683047D02*
X130953333Y-90721142D01*
X130953333Y-90721142D02*
X130648571Y-90721142D01*
X131448571Y-90683047D02*
X131715237Y-90683047D01*
X131829523Y-91102095D02*
X131448571Y-91102095D01*
X131448571Y-91102095D02*
X131448571Y-90302095D01*
X131448571Y-90302095D02*
X131829523Y-90302095D01*
X132172381Y-91102095D02*
X132172381Y-90302095D01*
X132172381Y-90302095D02*
X132629524Y-91102095D01*
X132629524Y-91102095D02*
X132629524Y-90302095D01*
X132896190Y-90302095D02*
X133353333Y-90302095D01*
X133124761Y-91102095D02*
X133124761Y-90302095D01*
X133620000Y-90683047D02*
X133886666Y-90683047D01*
X134000952Y-91102095D02*
X133620000Y-91102095D01*
X133620000Y-91102095D02*
X133620000Y-90302095D01*
X133620000Y-90302095D02*
X134000952Y-90302095D01*
X71441428Y-67949595D02*
X71060476Y-67949595D01*
X71060476Y-67949595D02*
X71022380Y-68330547D01*
X71022380Y-68330547D02*
X71060476Y-68292452D01*
X71060476Y-68292452D02*
X71136666Y-68254357D01*
X71136666Y-68254357D02*
X71327142Y-68254357D01*
X71327142Y-68254357D02*
X71403333Y-68292452D01*
X71403333Y-68292452D02*
X71441428Y-68330547D01*
X71441428Y-68330547D02*
X71479523Y-68406738D01*
X71479523Y-68406738D02*
X71479523Y-68597214D01*
X71479523Y-68597214D02*
X71441428Y-68673404D01*
X71441428Y-68673404D02*
X71403333Y-68711500D01*
X71403333Y-68711500D02*
X71327142Y-68749595D01*
X71327142Y-68749595D02*
X71136666Y-68749595D01*
X71136666Y-68749595D02*
X71060476Y-68711500D01*
X71060476Y-68711500D02*
X71022380Y-68673404D01*
X71708095Y-67949595D02*
X71974762Y-68749595D01*
X71974762Y-68749595D02*
X72241428Y-67949595D01*
%TO.C,R11*%
X53310892Y-64991369D02*
X52977559Y-64515178D01*
X52739464Y-64991369D02*
X52739464Y-63991369D01*
X52739464Y-63991369D02*
X53120416Y-63991369D01*
X53120416Y-63991369D02*
X53215654Y-64038988D01*
X53215654Y-64038988D02*
X53263273Y-64086607D01*
X53263273Y-64086607D02*
X53310892Y-64181845D01*
X53310892Y-64181845D02*
X53310892Y-64324702D01*
X53310892Y-64324702D02*
X53263273Y-64419940D01*
X53263273Y-64419940D02*
X53215654Y-64467559D01*
X53215654Y-64467559D02*
X53120416Y-64515178D01*
X53120416Y-64515178D02*
X52739464Y-64515178D01*
X54263273Y-64991369D02*
X53691845Y-64991369D01*
X53977559Y-64991369D02*
X53977559Y-63991369D01*
X53977559Y-63991369D02*
X53882321Y-64134226D01*
X53882321Y-64134226D02*
X53787083Y-64229464D01*
X53787083Y-64229464D02*
X53691845Y-64277083D01*
X55215654Y-64991369D02*
X54644226Y-64991369D01*
X54929940Y-64991369D02*
X54929940Y-63991369D01*
X54929940Y-63991369D02*
X54834702Y-64134226D01*
X54834702Y-64134226D02*
X54739464Y-64229464D01*
X54739464Y-64229464D02*
X54644226Y-64277083D01*
%TO.C,R8*%
X109603333Y-64412619D02*
X109270000Y-63936428D01*
X109031905Y-64412619D02*
X109031905Y-63412619D01*
X109031905Y-63412619D02*
X109412857Y-63412619D01*
X109412857Y-63412619D02*
X109508095Y-63460238D01*
X109508095Y-63460238D02*
X109555714Y-63507857D01*
X109555714Y-63507857D02*
X109603333Y-63603095D01*
X109603333Y-63603095D02*
X109603333Y-63745952D01*
X109603333Y-63745952D02*
X109555714Y-63841190D01*
X109555714Y-63841190D02*
X109508095Y-63888809D01*
X109508095Y-63888809D02*
X109412857Y-63936428D01*
X109412857Y-63936428D02*
X109031905Y-63936428D01*
X110174762Y-63841190D02*
X110079524Y-63793571D01*
X110079524Y-63793571D02*
X110031905Y-63745952D01*
X110031905Y-63745952D02*
X109984286Y-63650714D01*
X109984286Y-63650714D02*
X109984286Y-63603095D01*
X109984286Y-63603095D02*
X110031905Y-63507857D01*
X110031905Y-63507857D02*
X110079524Y-63460238D01*
X110079524Y-63460238D02*
X110174762Y-63412619D01*
X110174762Y-63412619D02*
X110365238Y-63412619D01*
X110365238Y-63412619D02*
X110460476Y-63460238D01*
X110460476Y-63460238D02*
X110508095Y-63507857D01*
X110508095Y-63507857D02*
X110555714Y-63603095D01*
X110555714Y-63603095D02*
X110555714Y-63650714D01*
X110555714Y-63650714D02*
X110508095Y-63745952D01*
X110508095Y-63745952D02*
X110460476Y-63793571D01*
X110460476Y-63793571D02*
X110365238Y-63841190D01*
X110365238Y-63841190D02*
X110174762Y-63841190D01*
X110174762Y-63841190D02*
X110079524Y-63888809D01*
X110079524Y-63888809D02*
X110031905Y-63936428D01*
X110031905Y-63936428D02*
X109984286Y-64031666D01*
X109984286Y-64031666D02*
X109984286Y-64222142D01*
X109984286Y-64222142D02*
X110031905Y-64317380D01*
X110031905Y-64317380D02*
X110079524Y-64365000D01*
X110079524Y-64365000D02*
X110174762Y-64412619D01*
X110174762Y-64412619D02*
X110365238Y-64412619D01*
X110365238Y-64412619D02*
X110460476Y-64365000D01*
X110460476Y-64365000D02*
X110508095Y-64317380D01*
X110508095Y-64317380D02*
X110555714Y-64222142D01*
X110555714Y-64222142D02*
X110555714Y-64031666D01*
X110555714Y-64031666D02*
X110508095Y-63936428D01*
X110508095Y-63936428D02*
X110460476Y-63888809D01*
X110460476Y-63888809D02*
X110365238Y-63841190D01*
%TO.C,R9*%
X113503333Y-64322619D02*
X113170000Y-63846428D01*
X112931905Y-64322619D02*
X112931905Y-63322619D01*
X112931905Y-63322619D02*
X113312857Y-63322619D01*
X113312857Y-63322619D02*
X113408095Y-63370238D01*
X113408095Y-63370238D02*
X113455714Y-63417857D01*
X113455714Y-63417857D02*
X113503333Y-63513095D01*
X113503333Y-63513095D02*
X113503333Y-63655952D01*
X113503333Y-63655952D02*
X113455714Y-63751190D01*
X113455714Y-63751190D02*
X113408095Y-63798809D01*
X113408095Y-63798809D02*
X113312857Y-63846428D01*
X113312857Y-63846428D02*
X112931905Y-63846428D01*
X113979524Y-64322619D02*
X114170000Y-64322619D01*
X114170000Y-64322619D02*
X114265238Y-64275000D01*
X114265238Y-64275000D02*
X114312857Y-64227380D01*
X114312857Y-64227380D02*
X114408095Y-64084523D01*
X114408095Y-64084523D02*
X114455714Y-63894047D01*
X114455714Y-63894047D02*
X114455714Y-63513095D01*
X114455714Y-63513095D02*
X114408095Y-63417857D01*
X114408095Y-63417857D02*
X114360476Y-63370238D01*
X114360476Y-63370238D02*
X114265238Y-63322619D01*
X114265238Y-63322619D02*
X114074762Y-63322619D01*
X114074762Y-63322619D02*
X113979524Y-63370238D01*
X113979524Y-63370238D02*
X113931905Y-63417857D01*
X113931905Y-63417857D02*
X113884286Y-63513095D01*
X113884286Y-63513095D02*
X113884286Y-63751190D01*
X113884286Y-63751190D02*
X113931905Y-63846428D01*
X113931905Y-63846428D02*
X113979524Y-63894047D01*
X113979524Y-63894047D02*
X114074762Y-63941666D01*
X114074762Y-63941666D02*
X114265238Y-63941666D01*
X114265238Y-63941666D02*
X114360476Y-63894047D01*
X114360476Y-63894047D02*
X114408095Y-63846428D01*
X114408095Y-63846428D02*
X114455714Y-63751190D01*
%TO.C,R1*%
X133683333Y-73082619D02*
X133350000Y-72606428D01*
X133111905Y-73082619D02*
X133111905Y-72082619D01*
X133111905Y-72082619D02*
X133492857Y-72082619D01*
X133492857Y-72082619D02*
X133588095Y-72130238D01*
X133588095Y-72130238D02*
X133635714Y-72177857D01*
X133635714Y-72177857D02*
X133683333Y-72273095D01*
X133683333Y-72273095D02*
X133683333Y-72415952D01*
X133683333Y-72415952D02*
X133635714Y-72511190D01*
X133635714Y-72511190D02*
X133588095Y-72558809D01*
X133588095Y-72558809D02*
X133492857Y-72606428D01*
X133492857Y-72606428D02*
X133111905Y-72606428D01*
X134635714Y-73082619D02*
X134064286Y-73082619D01*
X134350000Y-73082619D02*
X134350000Y-72082619D01*
X134350000Y-72082619D02*
X134254762Y-72225476D01*
X134254762Y-72225476D02*
X134159524Y-72320714D01*
X134159524Y-72320714D02*
X134064286Y-72368333D01*
%TO.C,R17*%
X75878342Y-77725119D02*
X75545009Y-77248928D01*
X75306914Y-77725119D02*
X75306914Y-76725119D01*
X75306914Y-76725119D02*
X75687866Y-76725119D01*
X75687866Y-76725119D02*
X75783104Y-76772738D01*
X75783104Y-76772738D02*
X75830723Y-76820357D01*
X75830723Y-76820357D02*
X75878342Y-76915595D01*
X75878342Y-76915595D02*
X75878342Y-77058452D01*
X75878342Y-77058452D02*
X75830723Y-77153690D01*
X75830723Y-77153690D02*
X75783104Y-77201309D01*
X75783104Y-77201309D02*
X75687866Y-77248928D01*
X75687866Y-77248928D02*
X75306914Y-77248928D01*
X76830723Y-77725119D02*
X76259295Y-77725119D01*
X76545009Y-77725119D02*
X76545009Y-76725119D01*
X76545009Y-76725119D02*
X76449771Y-76867976D01*
X76449771Y-76867976D02*
X76354533Y-76963214D01*
X76354533Y-76963214D02*
X76259295Y-77010833D01*
X77164057Y-76725119D02*
X77830723Y-76725119D01*
X77830723Y-76725119D02*
X77402152Y-77725119D01*
%TO.C,U1*%
X119778095Y-74382619D02*
X119778095Y-75192142D01*
X119778095Y-75192142D02*
X119825714Y-75287380D01*
X119825714Y-75287380D02*
X119873333Y-75335000D01*
X119873333Y-75335000D02*
X119968571Y-75382619D01*
X119968571Y-75382619D02*
X120159047Y-75382619D01*
X120159047Y-75382619D02*
X120254285Y-75335000D01*
X120254285Y-75335000D02*
X120301904Y-75287380D01*
X120301904Y-75287380D02*
X120349523Y-75192142D01*
X120349523Y-75192142D02*
X120349523Y-74382619D01*
X121349523Y-75382619D02*
X120778095Y-75382619D01*
X121063809Y-75382619D02*
X121063809Y-74382619D01*
X121063809Y-74382619D02*
X120968571Y-74525476D01*
X120968571Y-74525476D02*
X120873333Y-74620714D01*
X120873333Y-74620714D02*
X120778095Y-74668333D01*
%TO.C,R4*%
X128453333Y-81352619D02*
X128120000Y-80876428D01*
X127881905Y-81352619D02*
X127881905Y-80352619D01*
X127881905Y-80352619D02*
X128262857Y-80352619D01*
X128262857Y-80352619D02*
X128358095Y-80400238D01*
X128358095Y-80400238D02*
X128405714Y-80447857D01*
X128405714Y-80447857D02*
X128453333Y-80543095D01*
X128453333Y-80543095D02*
X128453333Y-80685952D01*
X128453333Y-80685952D02*
X128405714Y-80781190D01*
X128405714Y-80781190D02*
X128358095Y-80828809D01*
X128358095Y-80828809D02*
X128262857Y-80876428D01*
X128262857Y-80876428D02*
X127881905Y-80876428D01*
X129310476Y-80685952D02*
X129310476Y-81352619D01*
X129072381Y-80305000D02*
X128834286Y-81019285D01*
X128834286Y-81019285D02*
X129453333Y-81019285D01*
%TO.C,R16*%
X75878342Y-81425119D02*
X75545009Y-80948928D01*
X75306914Y-81425119D02*
X75306914Y-80425119D01*
X75306914Y-80425119D02*
X75687866Y-80425119D01*
X75687866Y-80425119D02*
X75783104Y-80472738D01*
X75783104Y-80472738D02*
X75830723Y-80520357D01*
X75830723Y-80520357D02*
X75878342Y-80615595D01*
X75878342Y-80615595D02*
X75878342Y-80758452D01*
X75878342Y-80758452D02*
X75830723Y-80853690D01*
X75830723Y-80853690D02*
X75783104Y-80901309D01*
X75783104Y-80901309D02*
X75687866Y-80948928D01*
X75687866Y-80948928D02*
X75306914Y-80948928D01*
X76830723Y-81425119D02*
X76259295Y-81425119D01*
X76545009Y-81425119D02*
X76545009Y-80425119D01*
X76545009Y-80425119D02*
X76449771Y-80567976D01*
X76449771Y-80567976D02*
X76354533Y-80663214D01*
X76354533Y-80663214D02*
X76259295Y-80710833D01*
X77687866Y-80425119D02*
X77497390Y-80425119D01*
X77497390Y-80425119D02*
X77402152Y-80472738D01*
X77402152Y-80472738D02*
X77354533Y-80520357D01*
X77354533Y-80520357D02*
X77259295Y-80663214D01*
X77259295Y-80663214D02*
X77211676Y-80853690D01*
X77211676Y-80853690D02*
X77211676Y-81234642D01*
X77211676Y-81234642D02*
X77259295Y-81329880D01*
X77259295Y-81329880D02*
X77306914Y-81377500D01*
X77306914Y-81377500D02*
X77402152Y-81425119D01*
X77402152Y-81425119D02*
X77592628Y-81425119D01*
X77592628Y-81425119D02*
X77687866Y-81377500D01*
X77687866Y-81377500D02*
X77735485Y-81329880D01*
X77735485Y-81329880D02*
X77783104Y-81234642D01*
X77783104Y-81234642D02*
X77783104Y-80996547D01*
X77783104Y-80996547D02*
X77735485Y-80901309D01*
X77735485Y-80901309D02*
X77687866Y-80853690D01*
X77687866Y-80853690D02*
X77592628Y-80806071D01*
X77592628Y-80806071D02*
X77402152Y-80806071D01*
X77402152Y-80806071D02*
X77306914Y-80853690D01*
X77306914Y-80853690D02*
X77259295Y-80901309D01*
X77259295Y-80901309D02*
X77211676Y-80996547D01*
%TO.C,J15*%
X62018095Y-103637619D02*
X62018095Y-102637619D01*
X62494285Y-103637619D02*
X62494285Y-102637619D01*
X62494285Y-102637619D02*
X63065713Y-103637619D01*
X63065713Y-103637619D02*
X63065713Y-102637619D01*
X63541904Y-103637619D02*
X63541904Y-102637619D01*
X63541904Y-102637619D02*
X63922856Y-102637619D01*
X63922856Y-102637619D02*
X64018094Y-102685238D01*
X64018094Y-102685238D02*
X64065713Y-102732857D01*
X64065713Y-102732857D02*
X64113332Y-102828095D01*
X64113332Y-102828095D02*
X64113332Y-102970952D01*
X64113332Y-102970952D02*
X64065713Y-103066190D01*
X64065713Y-103066190D02*
X64018094Y-103113809D01*
X64018094Y-103113809D02*
X63922856Y-103161428D01*
X63922856Y-103161428D02*
X63541904Y-103161428D01*
X64541904Y-102637619D02*
X64541904Y-103447142D01*
X64541904Y-103447142D02*
X64589523Y-103542380D01*
X64589523Y-103542380D02*
X64637142Y-103590000D01*
X64637142Y-103590000D02*
X64732380Y-103637619D01*
X64732380Y-103637619D02*
X64922856Y-103637619D01*
X64922856Y-103637619D02*
X65018094Y-103590000D01*
X65018094Y-103590000D02*
X65065713Y-103542380D01*
X65065713Y-103542380D02*
X65113332Y-103447142D01*
X65113332Y-103447142D02*
X65113332Y-102637619D01*
X65446666Y-102637619D02*
X66018094Y-102637619D01*
X65732380Y-103637619D02*
X65732380Y-102637619D01*
%TO.C,R3*%
X133803333Y-87262619D02*
X133470000Y-86786428D01*
X133231905Y-87262619D02*
X133231905Y-86262619D01*
X133231905Y-86262619D02*
X133612857Y-86262619D01*
X133612857Y-86262619D02*
X133708095Y-86310238D01*
X133708095Y-86310238D02*
X133755714Y-86357857D01*
X133755714Y-86357857D02*
X133803333Y-86453095D01*
X133803333Y-86453095D02*
X133803333Y-86595952D01*
X133803333Y-86595952D02*
X133755714Y-86691190D01*
X133755714Y-86691190D02*
X133708095Y-86738809D01*
X133708095Y-86738809D02*
X133612857Y-86786428D01*
X133612857Y-86786428D02*
X133231905Y-86786428D01*
X134136667Y-86262619D02*
X134755714Y-86262619D01*
X134755714Y-86262619D02*
X134422381Y-86643571D01*
X134422381Y-86643571D02*
X134565238Y-86643571D01*
X134565238Y-86643571D02*
X134660476Y-86691190D01*
X134660476Y-86691190D02*
X134708095Y-86738809D01*
X134708095Y-86738809D02*
X134755714Y-86834047D01*
X134755714Y-86834047D02*
X134755714Y-87072142D01*
X134755714Y-87072142D02*
X134708095Y-87167380D01*
X134708095Y-87167380D02*
X134660476Y-87215000D01*
X134660476Y-87215000D02*
X134565238Y-87262619D01*
X134565238Y-87262619D02*
X134279524Y-87262619D01*
X134279524Y-87262619D02*
X134184286Y-87215000D01*
X134184286Y-87215000D02*
X134136667Y-87167380D01*
%TO.C,R13*%
X63388392Y-65081369D02*
X63055059Y-64605178D01*
X62816964Y-65081369D02*
X62816964Y-64081369D01*
X62816964Y-64081369D02*
X63197916Y-64081369D01*
X63197916Y-64081369D02*
X63293154Y-64128988D01*
X63293154Y-64128988D02*
X63340773Y-64176607D01*
X63340773Y-64176607D02*
X63388392Y-64271845D01*
X63388392Y-64271845D02*
X63388392Y-64414702D01*
X63388392Y-64414702D02*
X63340773Y-64509940D01*
X63340773Y-64509940D02*
X63293154Y-64557559D01*
X63293154Y-64557559D02*
X63197916Y-64605178D01*
X63197916Y-64605178D02*
X62816964Y-64605178D01*
X64340773Y-65081369D02*
X63769345Y-65081369D01*
X64055059Y-65081369D02*
X64055059Y-64081369D01*
X64055059Y-64081369D02*
X63959821Y-64224226D01*
X63959821Y-64224226D02*
X63864583Y-64319464D01*
X63864583Y-64319464D02*
X63769345Y-64367083D01*
X64674107Y-64081369D02*
X65293154Y-64081369D01*
X65293154Y-64081369D02*
X64959821Y-64462321D01*
X64959821Y-64462321D02*
X65102678Y-64462321D01*
X65102678Y-64462321D02*
X65197916Y-64509940D01*
X65197916Y-64509940D02*
X65245535Y-64557559D01*
X65245535Y-64557559D02*
X65293154Y-64652797D01*
X65293154Y-64652797D02*
X65293154Y-64890892D01*
X65293154Y-64890892D02*
X65245535Y-64986130D01*
X65245535Y-64986130D02*
X65197916Y-65033750D01*
X65197916Y-65033750D02*
X65102678Y-65081369D01*
X65102678Y-65081369D02*
X64816964Y-65081369D01*
X64816964Y-65081369D02*
X64721726Y-65033750D01*
X64721726Y-65033750D02*
X64674107Y-64986130D01*
%TO.C,R2*%
X67984583Y-65111369D02*
X67651250Y-64635178D01*
X67413155Y-65111369D02*
X67413155Y-64111369D01*
X67413155Y-64111369D02*
X67794107Y-64111369D01*
X67794107Y-64111369D02*
X67889345Y-64158988D01*
X67889345Y-64158988D02*
X67936964Y-64206607D01*
X67936964Y-64206607D02*
X67984583Y-64301845D01*
X67984583Y-64301845D02*
X67984583Y-64444702D01*
X67984583Y-64444702D02*
X67936964Y-64539940D01*
X67936964Y-64539940D02*
X67889345Y-64587559D01*
X67889345Y-64587559D02*
X67794107Y-64635178D01*
X67794107Y-64635178D02*
X67413155Y-64635178D01*
X68365536Y-64206607D02*
X68413155Y-64158988D01*
X68413155Y-64158988D02*
X68508393Y-64111369D01*
X68508393Y-64111369D02*
X68746488Y-64111369D01*
X68746488Y-64111369D02*
X68841726Y-64158988D01*
X68841726Y-64158988D02*
X68889345Y-64206607D01*
X68889345Y-64206607D02*
X68936964Y-64301845D01*
X68936964Y-64301845D02*
X68936964Y-64397083D01*
X68936964Y-64397083D02*
X68889345Y-64539940D01*
X68889345Y-64539940D02*
X68317917Y-65111369D01*
X68317917Y-65111369D02*
X68936964Y-65111369D01*
%TO.C,R5*%
X110633333Y-85772619D02*
X110300000Y-85296428D01*
X110061905Y-85772619D02*
X110061905Y-84772619D01*
X110061905Y-84772619D02*
X110442857Y-84772619D01*
X110442857Y-84772619D02*
X110538095Y-84820238D01*
X110538095Y-84820238D02*
X110585714Y-84867857D01*
X110585714Y-84867857D02*
X110633333Y-84963095D01*
X110633333Y-84963095D02*
X110633333Y-85105952D01*
X110633333Y-85105952D02*
X110585714Y-85201190D01*
X110585714Y-85201190D02*
X110538095Y-85248809D01*
X110538095Y-85248809D02*
X110442857Y-85296428D01*
X110442857Y-85296428D02*
X110061905Y-85296428D01*
X111538095Y-84772619D02*
X111061905Y-84772619D01*
X111061905Y-84772619D02*
X111014286Y-85248809D01*
X111014286Y-85248809D02*
X111061905Y-85201190D01*
X111061905Y-85201190D02*
X111157143Y-85153571D01*
X111157143Y-85153571D02*
X111395238Y-85153571D01*
X111395238Y-85153571D02*
X111490476Y-85201190D01*
X111490476Y-85201190D02*
X111538095Y-85248809D01*
X111538095Y-85248809D02*
X111585714Y-85344047D01*
X111585714Y-85344047D02*
X111585714Y-85582142D01*
X111585714Y-85582142D02*
X111538095Y-85677380D01*
X111538095Y-85677380D02*
X111490476Y-85725000D01*
X111490476Y-85725000D02*
X111395238Y-85772619D01*
X111395238Y-85772619D02*
X111157143Y-85772619D01*
X111157143Y-85772619D02*
X111061905Y-85725000D01*
X111061905Y-85725000D02*
X111014286Y-85677380D01*
%TO.C,J10*%
X121668095Y-103587619D02*
X121668095Y-102587619D01*
X122144285Y-103587619D02*
X122144285Y-102587619D01*
X122144285Y-102587619D02*
X122715713Y-103587619D01*
X122715713Y-103587619D02*
X122715713Y-102587619D01*
X123191904Y-103587619D02*
X123191904Y-102587619D01*
X123191904Y-102587619D02*
X123572856Y-102587619D01*
X123572856Y-102587619D02*
X123668094Y-102635238D01*
X123668094Y-102635238D02*
X123715713Y-102682857D01*
X123715713Y-102682857D02*
X123763332Y-102778095D01*
X123763332Y-102778095D02*
X123763332Y-102920952D01*
X123763332Y-102920952D02*
X123715713Y-103016190D01*
X123715713Y-103016190D02*
X123668094Y-103063809D01*
X123668094Y-103063809D02*
X123572856Y-103111428D01*
X123572856Y-103111428D02*
X123191904Y-103111428D01*
X124191904Y-102587619D02*
X124191904Y-103397142D01*
X124191904Y-103397142D02*
X124239523Y-103492380D01*
X124239523Y-103492380D02*
X124287142Y-103540000D01*
X124287142Y-103540000D02*
X124382380Y-103587619D01*
X124382380Y-103587619D02*
X124572856Y-103587619D01*
X124572856Y-103587619D02*
X124668094Y-103540000D01*
X124668094Y-103540000D02*
X124715713Y-103492380D01*
X124715713Y-103492380D02*
X124763332Y-103397142D01*
X124763332Y-103397142D02*
X124763332Y-102587619D01*
X125096666Y-102587619D02*
X125668094Y-102587619D01*
X125382380Y-103587619D02*
X125382380Y-102587619D01*
%TO.C,R12*%
X57230892Y-64991369D02*
X56897559Y-64515178D01*
X56659464Y-64991369D02*
X56659464Y-63991369D01*
X56659464Y-63991369D02*
X57040416Y-63991369D01*
X57040416Y-63991369D02*
X57135654Y-64038988D01*
X57135654Y-64038988D02*
X57183273Y-64086607D01*
X57183273Y-64086607D02*
X57230892Y-64181845D01*
X57230892Y-64181845D02*
X57230892Y-64324702D01*
X57230892Y-64324702D02*
X57183273Y-64419940D01*
X57183273Y-64419940D02*
X57135654Y-64467559D01*
X57135654Y-64467559D02*
X57040416Y-64515178D01*
X57040416Y-64515178D02*
X56659464Y-64515178D01*
X58183273Y-64991369D02*
X57611845Y-64991369D01*
X57897559Y-64991369D02*
X57897559Y-63991369D01*
X57897559Y-63991369D02*
X57802321Y-64134226D01*
X57802321Y-64134226D02*
X57707083Y-64229464D01*
X57707083Y-64229464D02*
X57611845Y-64277083D01*
X58564226Y-64086607D02*
X58611845Y-64038988D01*
X58611845Y-64038988D02*
X58707083Y-63991369D01*
X58707083Y-63991369D02*
X58945178Y-63991369D01*
X58945178Y-63991369D02*
X59040416Y-64038988D01*
X59040416Y-64038988D02*
X59088035Y-64086607D01*
X59088035Y-64086607D02*
X59135654Y-64181845D01*
X59135654Y-64181845D02*
X59135654Y-64277083D01*
X59135654Y-64277083D02*
X59088035Y-64419940D01*
X59088035Y-64419940D02*
X58516607Y-64991369D01*
X58516607Y-64991369D02*
X59135654Y-64991369D01*
%TO.C,R14*%
X75847142Y-72697619D02*
X75513809Y-72221428D01*
X75275714Y-72697619D02*
X75275714Y-71697619D01*
X75275714Y-71697619D02*
X75656666Y-71697619D01*
X75656666Y-71697619D02*
X75751904Y-71745238D01*
X75751904Y-71745238D02*
X75799523Y-71792857D01*
X75799523Y-71792857D02*
X75847142Y-71888095D01*
X75847142Y-71888095D02*
X75847142Y-72030952D01*
X75847142Y-72030952D02*
X75799523Y-72126190D01*
X75799523Y-72126190D02*
X75751904Y-72173809D01*
X75751904Y-72173809D02*
X75656666Y-72221428D01*
X75656666Y-72221428D02*
X75275714Y-72221428D01*
X76799523Y-72697619D02*
X76228095Y-72697619D01*
X76513809Y-72697619D02*
X76513809Y-71697619D01*
X76513809Y-71697619D02*
X76418571Y-71840476D01*
X76418571Y-71840476D02*
X76323333Y-71935714D01*
X76323333Y-71935714D02*
X76228095Y-71983333D01*
X77656666Y-72030952D02*
X77656666Y-72697619D01*
X77418571Y-71650000D02*
X77180476Y-72364285D01*
X77180476Y-72364285D02*
X77799523Y-72364285D01*
%TO.C,R7*%
X113383333Y-72792619D02*
X113050000Y-72316428D01*
X112811905Y-72792619D02*
X112811905Y-71792619D01*
X112811905Y-71792619D02*
X113192857Y-71792619D01*
X113192857Y-71792619D02*
X113288095Y-71840238D01*
X113288095Y-71840238D02*
X113335714Y-71887857D01*
X113335714Y-71887857D02*
X113383333Y-71983095D01*
X113383333Y-71983095D02*
X113383333Y-72125952D01*
X113383333Y-72125952D02*
X113335714Y-72221190D01*
X113335714Y-72221190D02*
X113288095Y-72268809D01*
X113288095Y-72268809D02*
X113192857Y-72316428D01*
X113192857Y-72316428D02*
X112811905Y-72316428D01*
X113716667Y-71792619D02*
X114383333Y-71792619D01*
X114383333Y-71792619D02*
X113954762Y-72792619D01*
%TO.C,C1*%
X123403333Y-71287380D02*
X123355714Y-71335000D01*
X123355714Y-71335000D02*
X123212857Y-71382619D01*
X123212857Y-71382619D02*
X123117619Y-71382619D01*
X123117619Y-71382619D02*
X122974762Y-71335000D01*
X122974762Y-71335000D02*
X122879524Y-71239761D01*
X122879524Y-71239761D02*
X122831905Y-71144523D01*
X122831905Y-71144523D02*
X122784286Y-70954047D01*
X122784286Y-70954047D02*
X122784286Y-70811190D01*
X122784286Y-70811190D02*
X122831905Y-70620714D01*
X122831905Y-70620714D02*
X122879524Y-70525476D01*
X122879524Y-70525476D02*
X122974762Y-70430238D01*
X122974762Y-70430238D02*
X123117619Y-70382619D01*
X123117619Y-70382619D02*
X123212857Y-70382619D01*
X123212857Y-70382619D02*
X123355714Y-70430238D01*
X123355714Y-70430238D02*
X123403333Y-70477857D01*
X124355714Y-71382619D02*
X123784286Y-71382619D01*
X124070000Y-71382619D02*
X124070000Y-70382619D01*
X124070000Y-70382619D02*
X123974762Y-70525476D01*
X123974762Y-70525476D02*
X123879524Y-70620714D01*
X123879524Y-70620714D02*
X123784286Y-70668333D01*
%TO.C,R10*%
X127067142Y-64632619D02*
X126733809Y-64156428D01*
X126495714Y-64632619D02*
X126495714Y-63632619D01*
X126495714Y-63632619D02*
X126876666Y-63632619D01*
X126876666Y-63632619D02*
X126971904Y-63680238D01*
X126971904Y-63680238D02*
X127019523Y-63727857D01*
X127019523Y-63727857D02*
X127067142Y-63823095D01*
X127067142Y-63823095D02*
X127067142Y-63965952D01*
X127067142Y-63965952D02*
X127019523Y-64061190D01*
X127019523Y-64061190D02*
X126971904Y-64108809D01*
X126971904Y-64108809D02*
X126876666Y-64156428D01*
X126876666Y-64156428D02*
X126495714Y-64156428D01*
X128019523Y-64632619D02*
X127448095Y-64632619D01*
X127733809Y-64632619D02*
X127733809Y-63632619D01*
X127733809Y-63632619D02*
X127638571Y-63775476D01*
X127638571Y-63775476D02*
X127543333Y-63870714D01*
X127543333Y-63870714D02*
X127448095Y-63918333D01*
X128638571Y-63632619D02*
X128733809Y-63632619D01*
X128733809Y-63632619D02*
X128829047Y-63680238D01*
X128829047Y-63680238D02*
X128876666Y-63727857D01*
X128876666Y-63727857D02*
X128924285Y-63823095D01*
X128924285Y-63823095D02*
X128971904Y-64013571D01*
X128971904Y-64013571D02*
X128971904Y-64251666D01*
X128971904Y-64251666D02*
X128924285Y-64442142D01*
X128924285Y-64442142D02*
X128876666Y-64537380D01*
X128876666Y-64537380D02*
X128829047Y-64585000D01*
X128829047Y-64585000D02*
X128733809Y-64632619D01*
X128733809Y-64632619D02*
X128638571Y-64632619D01*
X128638571Y-64632619D02*
X128543333Y-64585000D01*
X128543333Y-64585000D02*
X128495714Y-64537380D01*
X128495714Y-64537380D02*
X128448095Y-64442142D01*
X128448095Y-64442142D02*
X128400476Y-64251666D01*
X128400476Y-64251666D02*
X128400476Y-64013571D01*
X128400476Y-64013571D02*
X128448095Y-63823095D01*
X128448095Y-63823095D02*
X128495714Y-63727857D01*
X128495714Y-63727857D02*
X128543333Y-63680238D01*
X128543333Y-63680238D02*
X128638571Y-63632619D01*
%TO.C,R6*%
X110743333Y-81142619D02*
X110410000Y-80666428D01*
X110171905Y-81142619D02*
X110171905Y-80142619D01*
X110171905Y-80142619D02*
X110552857Y-80142619D01*
X110552857Y-80142619D02*
X110648095Y-80190238D01*
X110648095Y-80190238D02*
X110695714Y-80237857D01*
X110695714Y-80237857D02*
X110743333Y-80333095D01*
X110743333Y-80333095D02*
X110743333Y-80475952D01*
X110743333Y-80475952D02*
X110695714Y-80571190D01*
X110695714Y-80571190D02*
X110648095Y-80618809D01*
X110648095Y-80618809D02*
X110552857Y-80666428D01*
X110552857Y-80666428D02*
X110171905Y-80666428D01*
X111600476Y-80142619D02*
X111410000Y-80142619D01*
X111410000Y-80142619D02*
X111314762Y-80190238D01*
X111314762Y-80190238D02*
X111267143Y-80237857D01*
X111267143Y-80237857D02*
X111171905Y-80380714D01*
X111171905Y-80380714D02*
X111124286Y-80571190D01*
X111124286Y-80571190D02*
X111124286Y-80952142D01*
X111124286Y-80952142D02*
X111171905Y-81047380D01*
X111171905Y-81047380D02*
X111219524Y-81095000D01*
X111219524Y-81095000D02*
X111314762Y-81142619D01*
X111314762Y-81142619D02*
X111505238Y-81142619D01*
X111505238Y-81142619D02*
X111600476Y-81095000D01*
X111600476Y-81095000D02*
X111648095Y-81047380D01*
X111648095Y-81047380D02*
X111695714Y-80952142D01*
X111695714Y-80952142D02*
X111695714Y-80714047D01*
X111695714Y-80714047D02*
X111648095Y-80618809D01*
X111648095Y-80618809D02*
X111600476Y-80571190D01*
X111600476Y-80571190D02*
X111505238Y-80523571D01*
X111505238Y-80523571D02*
X111314762Y-80523571D01*
X111314762Y-80523571D02*
X111219524Y-80571190D01*
X111219524Y-80571190D02*
X111171905Y-80618809D01*
X111171905Y-80618809D02*
X111124286Y-80714047D01*
%TO.C,C2*%
X121163333Y-64537380D02*
X121115714Y-64585000D01*
X121115714Y-64585000D02*
X120972857Y-64632619D01*
X120972857Y-64632619D02*
X120877619Y-64632619D01*
X120877619Y-64632619D02*
X120734762Y-64585000D01*
X120734762Y-64585000D02*
X120639524Y-64489761D01*
X120639524Y-64489761D02*
X120591905Y-64394523D01*
X120591905Y-64394523D02*
X120544286Y-64204047D01*
X120544286Y-64204047D02*
X120544286Y-64061190D01*
X120544286Y-64061190D02*
X120591905Y-63870714D01*
X120591905Y-63870714D02*
X120639524Y-63775476D01*
X120639524Y-63775476D02*
X120734762Y-63680238D01*
X120734762Y-63680238D02*
X120877619Y-63632619D01*
X120877619Y-63632619D02*
X120972857Y-63632619D01*
X120972857Y-63632619D02*
X121115714Y-63680238D01*
X121115714Y-63680238D02*
X121163333Y-63727857D01*
X121544286Y-63727857D02*
X121591905Y-63680238D01*
X121591905Y-63680238D02*
X121687143Y-63632619D01*
X121687143Y-63632619D02*
X121925238Y-63632619D01*
X121925238Y-63632619D02*
X122020476Y-63680238D01*
X122020476Y-63680238D02*
X122068095Y-63727857D01*
X122068095Y-63727857D02*
X122115714Y-63823095D01*
X122115714Y-63823095D02*
X122115714Y-63918333D01*
X122115714Y-63918333D02*
X122068095Y-64061190D01*
X122068095Y-64061190D02*
X121496667Y-64632619D01*
X121496667Y-64632619D02*
X122115714Y-64632619D01*
%TO.C,R15*%
X75947142Y-68680119D02*
X75613809Y-68203928D01*
X75375714Y-68680119D02*
X75375714Y-67680119D01*
X75375714Y-67680119D02*
X75756666Y-67680119D01*
X75756666Y-67680119D02*
X75851904Y-67727738D01*
X75851904Y-67727738D02*
X75899523Y-67775357D01*
X75899523Y-67775357D02*
X75947142Y-67870595D01*
X75947142Y-67870595D02*
X75947142Y-68013452D01*
X75947142Y-68013452D02*
X75899523Y-68108690D01*
X75899523Y-68108690D02*
X75851904Y-68156309D01*
X75851904Y-68156309D02*
X75756666Y-68203928D01*
X75756666Y-68203928D02*
X75375714Y-68203928D01*
X76899523Y-68680119D02*
X76328095Y-68680119D01*
X76613809Y-68680119D02*
X76613809Y-67680119D01*
X76613809Y-67680119D02*
X76518571Y-67822976D01*
X76518571Y-67822976D02*
X76423333Y-67918214D01*
X76423333Y-67918214D02*
X76328095Y-67965833D01*
X77804285Y-67680119D02*
X77328095Y-67680119D01*
X77328095Y-67680119D02*
X77280476Y-68156309D01*
X77280476Y-68156309D02*
X77328095Y-68108690D01*
X77328095Y-68108690D02*
X77423333Y-68061071D01*
X77423333Y-68061071D02*
X77661428Y-68061071D01*
X77661428Y-68061071D02*
X77756666Y-68108690D01*
X77756666Y-68108690D02*
X77804285Y-68156309D01*
X77804285Y-68156309D02*
X77851904Y-68251547D01*
X77851904Y-68251547D02*
X77851904Y-68489642D01*
X77851904Y-68489642D02*
X77804285Y-68584880D01*
X77804285Y-68584880D02*
X77756666Y-68632500D01*
X77756666Y-68632500D02*
X77661428Y-68680119D01*
X77661428Y-68680119D02*
X77423333Y-68680119D01*
X77423333Y-68680119D02*
X77328095Y-68632500D01*
X77328095Y-68632500D02*
X77280476Y-68584880D01*
D12*
%TO.C,J3*%
X126026400Y-56655400D02*
X126030000Y-51040000D01*
X126030000Y-51040000D02*
X131330000Y-51040000D01*
X131330000Y-51040000D02*
X131335000Y-56655400D01*
X131335000Y-56655400D02*
X126026400Y-56655400D01*
%TO.C,J2*%
X119285700Y-56627700D02*
X119289300Y-51012300D01*
X119289300Y-51012300D02*
X124589300Y-51012300D01*
X124589300Y-51012300D02*
X124594300Y-56627700D01*
X124594300Y-56627700D02*
X119285700Y-56627700D01*
D13*
%TO.C,R11*%
X53756686Y-61973750D02*
X54210814Y-61973750D01*
X53756686Y-63443750D02*
X54210814Y-63443750D01*
%TO.C,R8*%
X109085000Y-66827064D02*
X109085000Y-66372936D01*
X110555000Y-66827064D02*
X110555000Y-66372936D01*
D12*
%TO.C,J14*%
X69033600Y-76380000D02*
X69033600Y-81990000D01*
X69030000Y-81990000D02*
X61113800Y-81990000D01*
X61110000Y-81990000D02*
X61110000Y-76400000D01*
X61108800Y-76380000D02*
X69033600Y-76380000D01*
D13*
%TO.C,R9*%
X112945000Y-66767064D02*
X112945000Y-66312936D01*
X114415000Y-66767064D02*
X114415000Y-66312936D01*
%TO.C,R1*%
X133502936Y-69885000D02*
X133957064Y-69885000D01*
X133502936Y-71355000D02*
X133957064Y-71355000D01*
%TO.C,R17*%
X74476200Y-76945436D02*
X74476200Y-77399564D01*
X73006200Y-76945436D02*
X73006200Y-77399564D01*
D12*
%TO.C,J7*%
X52327650Y-57778750D02*
X52327650Y-52168750D01*
X52331250Y-52168750D02*
X60247450Y-52168750D01*
X60251250Y-52168750D02*
X60251250Y-57758750D01*
X60252450Y-57778750D02*
X52327650Y-57778750D01*
D13*
%TO.C,U1*%
X117890000Y-75920000D02*
X117890000Y-86200000D01*
X117890000Y-86200000D02*
X123190000Y-86200000D01*
X119540000Y-75920000D02*
X117890000Y-75920000D01*
X123190000Y-75920000D02*
X121540000Y-75920000D01*
X123190000Y-86200000D02*
X123190000Y-75920000D01*
X119540000Y-75920000D02*
G75*
G03*
X121540000Y-75920000I1000000J0D01*
G01*
%TO.C,R4*%
X128392936Y-81805000D02*
X128847064Y-81805000D01*
X128392936Y-83275000D02*
X128847064Y-83275000D01*
%TO.C,R16*%
X73006200Y-81309564D02*
X73006200Y-80855436D01*
X74476200Y-81309564D02*
X74476200Y-80855436D01*
D10*
%TO.C,J15*%
X76500300Y-103880000D02*
X51499700Y-103880000D01*
X51499700Y-103880000D02*
X51499700Y-102373000D01*
X51499700Y-102373000D02*
X76500300Y-102373000D01*
X76500300Y-102373000D02*
X76500300Y-103880000D01*
X76499700Y-103880000D02*
X51499700Y-103880000D01*
X51499700Y-103880000D02*
X51499700Y-94880000D01*
X51499700Y-94880000D02*
X76499700Y-94880000D01*
X76499700Y-94880000D02*
X76499700Y-103880000D01*
D12*
%TO.C,J6*%
X107746400Y-56610000D02*
X107750000Y-51044600D01*
X107750000Y-51020000D02*
X118100000Y-51020000D01*
X118084200Y-56610000D02*
X107746400Y-56610000D01*
X118100000Y-51020000D02*
X118100000Y-56584600D01*
D13*
%TO.C,R3*%
X131005000Y-87047064D02*
X131005000Y-86592936D01*
X132475000Y-87047064D02*
X132475000Y-86592936D01*
D12*
%TO.C,J1*%
X72137650Y-57894150D02*
X72141250Y-52278750D01*
X72141250Y-52278750D02*
X77441250Y-52278750D01*
X77441250Y-52278750D02*
X77446250Y-57894150D01*
X77446250Y-57894150D02*
X72137650Y-57894150D01*
%TO.C,J12*%
X62237650Y-57838750D02*
X62237650Y-52228750D01*
X62241250Y-52228750D02*
X70157450Y-52228750D01*
X70161250Y-52228750D02*
X70161250Y-57818750D01*
X70162450Y-57838750D02*
X62237650Y-57838750D01*
D13*
%TO.C,R13*%
X63864186Y-61973750D02*
X64318314Y-61973750D01*
X63864186Y-63443750D02*
X64318314Y-63443750D01*
%TO.C,R2*%
X68318314Y-63443750D02*
X67864186Y-63443750D01*
X68318314Y-61973750D02*
X67864186Y-61973750D01*
%TO.C,R5*%
X110572936Y-86225000D02*
X111027064Y-86225000D01*
X110572936Y-87695000D02*
X111027064Y-87695000D01*
D10*
%TO.C,J10*%
X138500600Y-103920000D02*
X108420000Y-103920000D01*
X108420000Y-103920000D02*
X108420000Y-102413000D01*
X108420000Y-102413000D02*
X138500600Y-102413000D01*
X138500600Y-102413000D02*
X138500600Y-103920000D01*
X138500000Y-103920000D02*
X108420000Y-103920000D01*
X108420000Y-103920000D02*
X108420000Y-94920000D01*
X108420000Y-94920000D02*
X138500000Y-94920000D01*
X138500000Y-94920000D02*
X138500000Y-103920000D01*
D13*
%TO.C,R12*%
X58138314Y-63443750D02*
X57684186Y-63443750D01*
X58138314Y-61973750D02*
X57684186Y-61973750D01*
%TO.C,R14*%
X73035000Y-72394564D02*
X73035000Y-71940436D01*
X74505000Y-72394564D02*
X74505000Y-71940436D01*
D12*
%TO.C,J11*%
X138523600Y-61410000D02*
X138523600Y-67020000D01*
X138520000Y-67020000D02*
X130603800Y-67020000D01*
X130600000Y-67020000D02*
X130600000Y-61430000D01*
X130598800Y-61410000D02*
X138523600Y-61410000D01*
%TO.C,J4*%
X132815700Y-56657700D02*
X132819300Y-51042300D01*
X132819300Y-51042300D02*
X138119300Y-51042300D01*
X138119300Y-51042300D02*
X138124300Y-56657700D01*
X138124300Y-56657700D02*
X132815700Y-56657700D01*
D13*
%TO.C,R7*%
X114935000Y-72547064D02*
X114935000Y-72092936D01*
X116405000Y-72547064D02*
X116405000Y-72092936D01*
%TO.C,C1*%
X122185000Y-70628748D02*
X122185000Y-71151252D01*
X120715000Y-70628748D02*
X120715000Y-71151252D01*
D12*
%TO.C,J13*%
X69012400Y-67305000D02*
X69012400Y-72915000D01*
X69008800Y-72915000D02*
X61092600Y-72915000D01*
X61088800Y-72915000D02*
X61088800Y-67325000D01*
X61087600Y-67305000D02*
X69012400Y-67305000D01*
D13*
%TO.C,R10*%
X124235000Y-64327064D02*
X124235000Y-63872936D01*
X125705000Y-64327064D02*
X125705000Y-63872936D01*
%TO.C,R6*%
X111087064Y-83175000D02*
X110632936Y-83175000D01*
X111087064Y-81705000D02*
X110632936Y-81705000D01*
%TO.C,C2*%
X119845000Y-63868748D02*
X119845000Y-64391252D01*
X118375000Y-63868748D02*
X118375000Y-64391252D01*
%TO.C,R15*%
X74505000Y-68040436D02*
X74505000Y-68494564D01*
X73035000Y-68040436D02*
X73035000Y-68494564D01*
%TD*%
M02*
