%TF.GenerationSoftware,KiCad,Pcbnew,7.0.2*%
%TF.CreationDate,2023-07-26T08:06:31-03:00*%
%TF.ProjectId,Belliz_IOT,42656c6c-697a-45f4-994f-542e6b696361,rev?*%
%TF.SameCoordinates,Original*%
%TF.FileFunction,Soldermask,Bot*%
%TF.FilePolarity,Negative*%
%FSLAX46Y46*%
G04 Gerber Fmt 4.6, Leading zero omitted, Abs format (unit mm)*
G04 Created by KiCad (PCBNEW 7.0.2) date 2023-07-26 08:06:31*
%MOMM*%
%LPD*%
G01*
G04 APERTURE LIST*
%ADD10C,1.800000*%
%ADD11C,1.000000*%
%ADD12C,7.000000*%
%ADD13C,1.700000*%
%ADD14R,1.600000X1.600000*%
%ADD15O,1.600000X1.600000*%
%ADD16C,2.200000*%
G04 APERTURE END LIST*
D10*
%TO.C,J3*%
X127430000Y-54090000D03*
X129970000Y-54090000D03*
%TD*%
%TO.C,J2*%
X120689300Y-54062300D03*
X123229300Y-54062300D03*
%TD*%
D11*
%TO.C,REF\u002A\u002A*%
X52375000Y-77500000D03*
X53143845Y-75643845D03*
X53143845Y-79356155D03*
X55000000Y-74875000D03*
D12*
X55000000Y-77500000D03*
D11*
X55000000Y-80125000D03*
X56856155Y-75643845D03*
X56856155Y-79356155D03*
X57625000Y-77500000D03*
%TD*%
D10*
%TO.C,J14*%
X67630000Y-78940000D03*
X65090000Y-78940000D03*
X62550000Y-78940000D03*
%TD*%
D13*
%TO.C,J9*%
X80900000Y-100000000D03*
X80900000Y-97460000D03*
X80900000Y-94920000D03*
X80900000Y-92380000D03*
X80900000Y-89840000D03*
X80900000Y-87300000D03*
X80900000Y-84760000D03*
X80900000Y-82220000D03*
X80900000Y-79680000D03*
X80900000Y-77140000D03*
X80900000Y-74600000D03*
X80900000Y-72060000D03*
X80900000Y-69520000D03*
X80900000Y-66980000D03*
X80900000Y-64440000D03*
X80900000Y-61900000D03*
X80900000Y-59360000D03*
X80900000Y-56820000D03*
X80900000Y-54280000D03*
%TD*%
%TO.C,J8*%
X103900000Y-100000000D03*
X103900000Y-97460000D03*
X103900000Y-94920000D03*
X103900000Y-92380000D03*
X103900000Y-89840000D03*
X103900000Y-87300000D03*
X103900000Y-84760000D03*
X103900000Y-82220000D03*
X103900000Y-79680000D03*
X103900000Y-77140000D03*
X103900000Y-74600000D03*
X103900000Y-72060000D03*
X103900000Y-69520000D03*
X103900000Y-66980000D03*
X103900000Y-64440000D03*
X103900000Y-61900000D03*
X103900000Y-59360000D03*
X103900000Y-56820000D03*
X103900000Y-54280000D03*
%TD*%
D10*
%TO.C,J7*%
X53731250Y-55218750D03*
X56271250Y-55218750D03*
X58811250Y-55218750D03*
%TD*%
D14*
%TO.C,U1*%
X116730000Y-77250000D03*
D15*
X116730000Y-79790000D03*
X116730000Y-82330000D03*
X116730000Y-84870000D03*
X124350000Y-84870000D03*
X124350000Y-82330000D03*
X124350000Y-79790000D03*
X124350000Y-77250000D03*
%TD*%
D16*
%TO.C,J15*%
X74239700Y-99960000D03*
X69159700Y-99960000D03*
X64079700Y-99960000D03*
X58999700Y-99960000D03*
X53919700Y-99960000D03*
%TD*%
D10*
%TO.C,J6*%
X109150000Y-54070000D03*
X111690000Y-54070000D03*
X114230000Y-54070000D03*
X116670000Y-54070000D03*
%TD*%
%TO.C,J1*%
X73541250Y-55328750D03*
X76081250Y-55328750D03*
%TD*%
%TO.C,J12*%
X63641250Y-55278750D03*
X66181250Y-55278750D03*
X68721250Y-55278750D03*
%TD*%
D11*
%TO.C,REF\u002A\u002A*%
X132375000Y-77500000D03*
X133143845Y-75643845D03*
X133143845Y-79356155D03*
X135000000Y-74875000D03*
D12*
X135000000Y-77500000D03*
D11*
X135000000Y-80125000D03*
X136856155Y-75643845D03*
X136856155Y-79356155D03*
X137625000Y-77500000D03*
%TD*%
D16*
%TO.C,J10*%
X136240000Y-100000000D03*
X131160000Y-100000000D03*
X126080000Y-100000000D03*
X121000000Y-100000000D03*
X115920000Y-100000000D03*
X110840000Y-100000000D03*
%TD*%
D10*
%TO.C,J11*%
X137120000Y-63970000D03*
X134580000Y-63970000D03*
X132040000Y-63970000D03*
%TD*%
%TO.C,J4*%
X134219300Y-54092300D03*
X136759300Y-54092300D03*
%TD*%
%TO.C,J13*%
X67608800Y-69865000D03*
X65068800Y-69865000D03*
X62528800Y-69865000D03*
%TD*%
M02*
