%TF.GenerationSoftware,KiCad,Pcbnew,7.0.2*%
%TF.CreationDate,2023-07-26T08:06:31-03:00*%
%TF.ProjectId,Belliz_IOT,42656c6c-697a-45f4-994f-542e6b696361,rev?*%
%TF.SameCoordinates,Original*%
%TF.FileFunction,Copper,L2,Bot*%
%TF.FilePolarity,Positive*%
%FSLAX46Y46*%
G04 Gerber Fmt 4.6, Leading zero omitted, Abs format (unit mm)*
G04 Created by KiCad (PCBNEW 7.0.2) date 2023-07-26 08:06:31*
%MOMM*%
%LPD*%
G01*
G04 APERTURE LIST*
%TA.AperFunction,ComponentPad*%
%ADD10C,1.800000*%
%TD*%
%TA.AperFunction,ComponentPad*%
%ADD11C,1.000000*%
%TD*%
%TA.AperFunction,ComponentPad*%
%ADD12C,7.000000*%
%TD*%
%TA.AperFunction,ComponentPad*%
%ADD13C,1.700000*%
%TD*%
%TA.AperFunction,ComponentPad*%
%ADD14R,1.600000X1.600000*%
%TD*%
%TA.AperFunction,ComponentPad*%
%ADD15O,1.600000X1.600000*%
%TD*%
%TA.AperFunction,ComponentPad*%
%ADD16C,2.200000*%
%TD*%
%TA.AperFunction,ViaPad*%
%ADD17C,0.800000*%
%TD*%
%TA.AperFunction,Conductor*%
%ADD18C,0.254000*%
%TD*%
%TA.AperFunction,Conductor*%
%ADD19C,0.762000*%
%TD*%
G04 APERTURE END LIST*
D10*
%TO.P,J3,1,1*%
%TO.N,Net-(J3-Pad1)*%
X127430000Y-54090000D03*
%TO.P,J3,2,2*%
%TO.N,Earth*%
X129970000Y-54090000D03*
%TD*%
%TO.P,J2,1,1*%
%TO.N,Net-(J2-Pad1)*%
X120689300Y-54062300D03*
%TO.P,J2,2,2*%
%TO.N,Earth*%
X123229300Y-54062300D03*
%TD*%
D11*
%TO.P,REF\u002A\u002A,1*%
%TO.N,N/C*%
X52375000Y-77500000D03*
X53143845Y-75643845D03*
X53143845Y-79356155D03*
X55000000Y-74875000D03*
D12*
X55000000Y-77500000D03*
D11*
X55000000Y-80125000D03*
X56856155Y-75643845D03*
X56856155Y-79356155D03*
X57625000Y-77500000D03*
%TD*%
D10*
%TO.P,J14,1,Pin_1*%
%TO.N,Earth*%
X67630000Y-78940000D03*
%TO.P,J14,2,Pin_2*%
%TO.N,GPIO39*%
X65090000Y-78940000D03*
%TO.P,J14,3,Pin_3*%
%TO.N,Net-(J14-Pin_3)*%
X62550000Y-78940000D03*
%TD*%
D13*
%TO.P,J9,1,Pin_1*%
%TO.N,5V*%
X80900000Y-100000000D03*
%TO.P,J9,2,Pin_2*%
%TO.N,unconnected-(J9-Pin_2-Pad2)*%
X80900000Y-97460000D03*
%TO.P,J9,3,Pin_3*%
%TO.N,unconnected-(J9-Pin_3-Pad3)*%
X80900000Y-94920000D03*
%TO.P,J9,4,Pin_4*%
%TO.N,unconnected-(J9-Pin_4-Pad4)*%
X80900000Y-92380000D03*
%TO.P,J9,5,Pin_5*%
%TO.N,unconnected-(J9-Pin_5-Pad5)*%
X80900000Y-89840000D03*
%TO.P,J9,6,Pin_6*%
%TO.N,Earth*%
X80900000Y-87300000D03*
%TO.P,J9,7,Pin_7*%
%TO.N,unconnected-(J9-Pin_7-Pad7)*%
X80900000Y-84760000D03*
%TO.P,J9,8,Pin_8*%
%TO.N,GPIO14*%
X80900000Y-82220000D03*
%TO.P,J9,9,Pin_9*%
%TO.N,unconnected-(J9-Pin_9-Pad9)*%
X80900000Y-79680000D03*
%TO.P,J9,10,Pin_10*%
%TO.N,OUT_RPM*%
X80900000Y-77140000D03*
%TO.P,J9,11,Pin_11*%
%TO.N,SCK_MAX6675*%
X80900000Y-74600000D03*
%TO.P,J9,12,Pin_12*%
%TO.N,CS_MAX6675*%
X80900000Y-72060000D03*
%TO.P,J9,13,Pin_13*%
%TO.N,SO_MAX6675*%
X80900000Y-69520000D03*
%TO.P,J9,14,Pin_14*%
%TO.N,GPIO35*%
X80900000Y-66980000D03*
%TO.P,J9,15,Pin_15*%
%TO.N,BUFFER_ACS712*%
X80900000Y-64440000D03*
%TO.P,J9,16,Pin_16*%
%TO.N,GPIO39*%
X80900000Y-61900000D03*
%TO.P,J9,17,Pin_17*%
%TO.N,GPIO36*%
X80900000Y-59360000D03*
%TO.P,J9,18,Pin_18*%
%TO.N,unconnected-(J9-Pin_18-Pad18)*%
X80900000Y-56820000D03*
%TO.P,J9,19,Pin_19*%
%TO.N,3V3*%
X80900000Y-54280000D03*
%TD*%
%TO.P,J8,1,Pin_1*%
%TO.N,unconnected-(J8-Pin_1-Pad1)*%
X103900000Y-100000000D03*
%TO.P,J8,2,Pin_2*%
%TO.N,unconnected-(J8-Pin_2-Pad2)*%
X103900000Y-97460000D03*
%TO.P,J8,3,Pin_3*%
%TO.N,unconnected-(J8-Pin_3-Pad3)*%
X103900000Y-94920000D03*
%TO.P,J8,4,Pin_4*%
%TO.N,unconnected-(J8-Pin_4-Pad4)*%
X103900000Y-92380000D03*
%TO.P,J8,5,Pin_5*%
%TO.N,unconnected-(J8-Pin_5-Pad5)*%
X103900000Y-89840000D03*
%TO.P,J8,6,Pin_6*%
%TO.N,unconnected-(J8-Pin_6-Pad6)*%
X103900000Y-87300000D03*
%TO.P,J8,7,Pin_7*%
%TO.N,OUT_DHT*%
X103900000Y-84760000D03*
%TO.P,J8,8,Pin_8*%
%TO.N,BT_CONFIG*%
X103900000Y-82220000D03*
%TO.P,J8,9,Pin_9*%
%TO.N,unconnected-(J8-Pin_9-Pad9)*%
X103900000Y-79680000D03*
%TO.P,J8,10,Pin_10*%
%TO.N,unconnected-(J8-Pin_10-Pad10)*%
X103900000Y-77140000D03*
%TO.P,J8,11,Pin_11*%
%TO.N,LED_VD*%
X103900000Y-74600000D03*
%TO.P,J8,12,Pin_12*%
%TO.N,LED_VM*%
X103900000Y-72060000D03*
%TO.P,J8,13,Pin_13*%
%TO.N,Earth*%
X103900000Y-69520000D03*
%TO.P,J8,14,Pin_14*%
%TO.N,Rele_2*%
X103900000Y-66980000D03*
%TO.P,J8,15,Pin_15*%
%TO.N,unconnected-(J8-Pin_15-Pad15)*%
X103900000Y-64440000D03*
%TO.P,J8,16,Pin_16*%
%TO.N,unconnected-(J8-Pin_16-Pad16)*%
X103900000Y-61900000D03*
%TO.P,J8,17,Pin_17*%
%TO.N,Rele_1*%
X103900000Y-59360000D03*
%TO.P,J8,18,Pin_18*%
%TO.N,unconnected-(J8-Pin_18-Pad18)*%
X103900000Y-56820000D03*
%TO.P,J8,19,Pin_19*%
%TO.N,Earth*%
X103900000Y-54280000D03*
%TD*%
D10*
%TO.P,J7,1,Pin_1*%
%TO.N,Earth*%
X53731250Y-55218750D03*
%TO.P,J7,2,Pin_2*%
%TO.N,GPIO14*%
X56271250Y-55218750D03*
%TO.P,J7,3,Pin_3*%
%TO.N,Net-(J7-Pin_3)*%
X58811250Y-55218750D03*
%TD*%
D14*
%TO.P,U1,1*%
%TO.N,Net-(U1A--)*%
X116730000Y-77250000D03*
D15*
%TO.P,U1,2,-*%
X116730000Y-79790000D03*
%TO.P,U1,3,+*%
%TO.N,Net-(U1A-+)*%
X116730000Y-82330000D03*
%TO.P,U1,4,V-*%
%TO.N,Earth*%
X116730000Y-84870000D03*
%TO.P,U1,5,+*%
%TO.N,OUT_TCRT5000*%
X124350000Y-84870000D03*
%TO.P,U1,6,-*%
%TO.N,Net-(U1B--)*%
X124350000Y-82330000D03*
%TO.P,U1,7*%
%TO.N,OUT_RPM*%
X124350000Y-79790000D03*
%TO.P,U1,8,V+*%
%TO.N,5V*%
X124350000Y-77250000D03*
%TD*%
D16*
%TO.P,J15,1,Pin_1*%
%TO.N,SO_MAX6675*%
X74239700Y-99960000D03*
%TO.P,J15,2,Pin_2*%
%TO.N,CS_MAX6675*%
X69159700Y-99960000D03*
%TO.P,J15,3,Pin_3*%
%TO.N,SCK_MAX6675*%
X64079700Y-99960000D03*
%TO.P,J15,4,Pin_4*%
%TO.N,3V3*%
X58999700Y-99960000D03*
%TO.P,J15,5,Pin_5*%
%TO.N,Earth*%
X53919700Y-99960000D03*
%TD*%
D10*
%TO.P,J6,1,Pin_1*%
%TO.N,5V*%
X109150000Y-54070000D03*
%TO.P,J6,2,Pin_2*%
%TO.N,Rele_1*%
X111690000Y-54070000D03*
%TO.P,J6,3,Pin_3*%
%TO.N,Rele_2*%
X114230000Y-54070000D03*
%TO.P,J6,4,Pin_4*%
%TO.N,Earth*%
X116670000Y-54070000D03*
%TD*%
%TO.P,J1,1,1*%
%TO.N,Earth*%
X73541250Y-55328750D03*
%TO.P,J1,2,2*%
%TO.N,5V*%
X76081250Y-55328750D03*
%TD*%
%TO.P,J12,1,Pin_1*%
%TO.N,Earth*%
X63641250Y-55278750D03*
%TO.P,J12,2,Pin_2*%
%TO.N,GPIO35*%
X66181250Y-55278750D03*
%TO.P,J12,3,Pin_3*%
%TO.N,Net-(J12-Pin_3)*%
X68721250Y-55278750D03*
%TD*%
D11*
%TO.P,REF\u002A\u002A,1*%
%TO.N,N/C*%
X132375000Y-77500000D03*
X133143845Y-75643845D03*
X133143845Y-79356155D03*
X135000000Y-74875000D03*
D12*
X135000000Y-77500000D03*
D11*
X135000000Y-80125000D03*
X136856155Y-75643845D03*
X136856155Y-79356155D03*
X137625000Y-77500000D03*
%TD*%
D16*
%TO.P,J10,1,Pin_1*%
%TO.N,5V*%
X136240000Y-100000000D03*
%TO.P,J10,2,Pin_2*%
%TO.N,OUT_ACS712*%
X131160000Y-100000000D03*
%TO.P,J10,3,Pin_3*%
%TO.N,Earth*%
X126080000Y-100000000D03*
%TO.P,J10,4,Pin_4*%
X121000000Y-100000000D03*
%TO.P,J10,5,Pin_5*%
%TO.N,OUT_TCRT5000*%
X115920000Y-100000000D03*
%TO.P,J10,6,Pin_6*%
%TO.N,3V3*%
X110840000Y-100000000D03*
%TD*%
D10*
%TO.P,J11,1,Pin_1*%
%TO.N,Earth*%
X137120000Y-63970000D03*
%TO.P,J11,2,Pin_2*%
%TO.N,OUT_DHT*%
X134580000Y-63970000D03*
%TO.P,J11,3,Pin_3*%
%TO.N,3V3*%
X132040000Y-63970000D03*
%TD*%
%TO.P,J4,1,1*%
%TO.N,BT_CONFIG*%
X134219300Y-54092300D03*
%TO.P,J4,2,2*%
%TO.N,Earth*%
X136759300Y-54092300D03*
%TD*%
%TO.P,J13,1,Pin_1*%
%TO.N,Earth*%
X67608800Y-69865000D03*
%TO.P,J13,2,Pin_2*%
%TO.N,GPIO36*%
X65068800Y-69865000D03*
%TO.P,J13,3,Pin_3*%
%TO.N,Net-(J13-Pin_3)*%
X62528800Y-69865000D03*
%TD*%
D17*
%TO.N,BUFFER_ACS712*%
X118800000Y-66880000D03*
%TO.N,Earth*%
X98010000Y-89190000D03*
X96180000Y-70710000D03*
X58420000Y-82670000D03*
X127420000Y-87670000D03*
X54940000Y-96420000D03*
X57260000Y-86200000D03*
X109830000Y-76600000D03*
X87118005Y-71913798D03*
X113860000Y-60670000D03*
X113628398Y-79411687D03*
X100110000Y-53040000D03*
X97560000Y-84860000D03*
X107080000Y-93770000D03*
X98630000Y-94010000D03*
X72030000Y-64860000D03*
X100240000Y-59950000D03*
X53240000Y-71330000D03*
X55120000Y-53120000D03*
X84570000Y-74320000D03*
X54360000Y-83790000D03*
X136620000Y-60060000D03*
X85020000Y-90480000D03*
X107290000Y-85120000D03*
X90550000Y-62010000D03*
X107070000Y-90180000D03*
X96790000Y-79080000D03*
X58110000Y-65710000D03*
X136750000Y-82980000D03*
X130060000Y-70440000D03*
X118480000Y-71650000D03*
X88500000Y-66200000D03*
X88640000Y-79050000D03*
X109830000Y-96190000D03*
X90420000Y-69500000D03*
X96620000Y-56290000D03*
X84400000Y-81820000D03*
X99210000Y-68340000D03*
X112320000Y-74460000D03*
X56060000Y-72000000D03*
X90510000Y-89940000D03*
X52080000Y-67670000D03*
X137460000Y-85260000D03*
X100280000Y-81690000D03*
X85020000Y-86240000D03*
X92030000Y-52680000D03*
X98100000Y-74900000D03*
X137370000Y-92890000D03*
X90820000Y-84770000D03*
X96530000Y-63920000D03*
X123560000Y-97350000D03*
X60300000Y-96420000D03*
X85150000Y-94850000D03*
X67210000Y-96400000D03*
X53330000Y-89990000D03*
X89260000Y-75040000D03*
X122630000Y-66290000D03*
X84530000Y-69680000D03*
X106530000Y-97840000D03*
X109500000Y-60530000D03*
X114610000Y-88110000D03*
X64310000Y-59690000D03*
X127000000Y-76770000D03*
%TO.N,BT_CONFIG*%
X127270000Y-63187500D03*
%TO.N,CS_MAX6675*%
X77530000Y-68650000D03*
%TO.N,OUT_ACS712*%
X125330000Y-92320000D03*
%TO.N,OUT_TCRT5000*%
X118660000Y-88620000D03*
%TO.N,3V3*%
X73830000Y-86190000D03*
X91250000Y-100800000D03*
X94430000Y-97610000D03*
%TO.N,OUT_DHT*%
X121540000Y-74120000D03*
X137330000Y-70610000D03*
X128330000Y-72660000D03*
%TO.N,GPIO14*%
X62910000Y-84880000D03*
X70230000Y-84880000D03*
%TO.N,GPIO35*%
X86400000Y-56740000D03*
%TD*%
D18*
%TO.N,CS_MAX6675*%
X77530000Y-68690000D02*
X80900000Y-72060000D01*
X77530000Y-68650000D02*
X77530000Y-68690000D01*
%TO.N,BUFFER_ACS712*%
X106640000Y-61100000D02*
X106640000Y-52760000D01*
X84400000Y-64440000D02*
X80900000Y-64440000D01*
X117020000Y-63440000D02*
X108980000Y-63440000D01*
X118800000Y-65220000D02*
X117020000Y-63440000D01*
X118800000Y-66880000D02*
X118800000Y-65220000D01*
X97190000Y-51650000D02*
X84400000Y-64440000D01*
X105530000Y-51650000D02*
X97190000Y-51650000D01*
X106640000Y-52760000D02*
X105530000Y-51650000D01*
X108980000Y-63440000D02*
X106640000Y-61100000D01*
%TO.N,BT_CONFIG*%
X125110000Y-68400000D02*
X115800000Y-68400000D01*
X107560000Y-76640000D02*
X107560000Y-78560000D01*
X127270000Y-66240000D02*
X125110000Y-68400000D01*
X115800000Y-68400000D02*
X107560000Y-76640000D01*
X107560000Y-78560000D02*
X103900000Y-82220000D01*
X127270000Y-63187500D02*
X127270000Y-66240000D01*
D19*
%TO.N,5V*%
X120090000Y-78180000D02*
X120090000Y-85810000D01*
X120090000Y-85810000D02*
X122560000Y-88280000D01*
X136240000Y-94790000D02*
X136240000Y-100000000D01*
X129260000Y-67440000D02*
X129260000Y-62154077D01*
X121020000Y-77250000D02*
X120090000Y-78180000D01*
X122560000Y-88280000D02*
X124320000Y-88280000D01*
X124350000Y-72350000D02*
X129260000Y-67440000D01*
X124350000Y-77250000D02*
X124350000Y-72350000D01*
X124350000Y-77250000D02*
X121020000Y-77250000D01*
X129260000Y-62154077D02*
X124865923Y-57760000D01*
X124865923Y-57760000D02*
X112840000Y-57760000D01*
X134020000Y-92570000D02*
X136240000Y-94790000D01*
X124320000Y-88280000D02*
X128610000Y-92570000D01*
X112840000Y-57760000D02*
X109150000Y-54070000D01*
X128610000Y-92570000D02*
X134020000Y-92570000D01*
D18*
%TO.N,SCK_MAX6675*%
X77940000Y-74600000D02*
X80900000Y-74600000D01*
X64079700Y-88460300D02*
X77940000Y-74600000D01*
X64079700Y-99960000D02*
X64079700Y-88460300D01*
%TO.N,OUT_ACS712*%
X125330000Y-92320000D02*
X131160000Y-98150000D01*
X131160000Y-98150000D02*
X131160000Y-100000000D01*
%TO.N,OUT_TCRT5000*%
X115920000Y-100000000D02*
X115920000Y-96580000D01*
X118630000Y-93870000D02*
X118630000Y-88600000D01*
X115920000Y-96580000D02*
X118630000Y-93870000D01*
D19*
%TO.N,3V3*%
X107740000Y-102610000D02*
X110820000Y-99530000D01*
X77770000Y-102610000D02*
X61649700Y-102610000D01*
X77050000Y-99540000D02*
X77050000Y-89410000D01*
X61649700Y-102610000D02*
X58999700Y-99960000D01*
X91250000Y-100800000D02*
X89440000Y-102610000D01*
X77050000Y-89410000D02*
X73830000Y-86190000D01*
X94430000Y-97610000D02*
X96280000Y-97610000D01*
X101280000Y-102610000D02*
X107740000Y-102610000D01*
X89440000Y-102610000D02*
X77770000Y-102610000D01*
X96280000Y-97610000D02*
X101280000Y-102610000D01*
X80120000Y-102610000D02*
X77050000Y-99540000D01*
D18*
%TO.N,OUT_DHT*%
X135240000Y-72700000D02*
X128290000Y-72700000D01*
X137330000Y-70610000D02*
X135240000Y-72700000D01*
X121540000Y-74120000D02*
X120740000Y-74920000D01*
X104760000Y-84760000D02*
X103900000Y-84760000D01*
X120740000Y-74920000D02*
X114600000Y-74920000D01*
X114600000Y-74920000D02*
X104760000Y-84760000D01*
%TO.N,GPIO14*%
X55830000Y-55320000D02*
X55830000Y-69360000D01*
X76000000Y-84880000D02*
X78660000Y-82220000D01*
X61440000Y-84860000D02*
X62940000Y-84860000D01*
X55830000Y-69360000D02*
X60180000Y-73710000D01*
X70230000Y-84880000D02*
X76000000Y-84880000D01*
X78660000Y-82220000D02*
X80900000Y-82220000D01*
X60180000Y-73710000D02*
X60180000Y-83600000D01*
X60180000Y-83600000D02*
X61440000Y-84860000D01*
%TO.N,OUT_RPM*%
X98110000Y-104130000D02*
X135960000Y-104130000D01*
X83550000Y-77140000D02*
X88840000Y-82430000D01*
X138620000Y-89670000D02*
X128740000Y-79790000D01*
X88840000Y-82430000D02*
X88840000Y-94860000D01*
X135960000Y-104130000D02*
X138620000Y-101470000D01*
X88840000Y-94860000D02*
X98110000Y-104130000D01*
X138620000Y-101470000D02*
X138620000Y-89670000D01*
X80900000Y-77140000D02*
X83550000Y-77140000D01*
X128740000Y-79790000D02*
X124350000Y-79790000D01*
%TO.N,GPIO35*%
X83440000Y-51930000D02*
X86400000Y-54890000D01*
X69190000Y-51930000D02*
X83440000Y-51930000D01*
X66181250Y-55278750D02*
X69631250Y-51828750D01*
X86400000Y-54890000D02*
X86400000Y-56710000D01*
%TO.N,GPIO39*%
X65090000Y-75820000D02*
X79010000Y-61900000D01*
X65090000Y-78940000D02*
X65090000Y-75820000D01*
X79010000Y-61900000D02*
X80900000Y-61900000D01*
%TO.N,GPIO36*%
X65068800Y-69865000D02*
X65068800Y-67231200D01*
X65068800Y-67231200D02*
X72940000Y-59360000D01*
X72940000Y-59360000D02*
X80900000Y-59360000D01*
%TD*%
%TA.AperFunction,Conductor*%
%TO.N,Earth*%
G36*
X139008315Y-50501436D02*
G01*
X139094465Y-50511144D01*
X139126993Y-50518568D01*
X139200878Y-50544421D01*
X139230939Y-50558898D01*
X139297217Y-50600543D01*
X139323304Y-50621346D01*
X139378653Y-50676695D01*
X139399456Y-50702781D01*
X139441102Y-50769060D01*
X139455579Y-50799123D01*
X139471561Y-50844799D01*
X139479922Y-50894037D01*
X139470055Y-104134215D01*
X139461696Y-104183392D01*
X139455580Y-104200873D01*
X139441101Y-104230941D01*
X139399456Y-104297218D01*
X139378653Y-104323304D01*
X139323303Y-104378654D01*
X139297215Y-104399458D01*
X139269239Y-104417036D01*
X139195537Y-104439769D01*
X139189901Y-104439873D01*
X136544828Y-104438686D01*
X136470337Y-104418690D01*
X136415824Y-104364128D01*
X136395895Y-104289619D01*
X136415891Y-104215128D01*
X136439532Y-104184331D01*
X138848326Y-101775538D01*
X138872186Y-101756163D01*
X138879209Y-101751576D01*
X138897821Y-101727661D01*
X138908555Y-101715507D01*
X138909044Y-101714821D01*
X138909052Y-101714814D01*
X138920930Y-101698176D01*
X138924571Y-101693294D01*
X138956592Y-101652155D01*
X138956592Y-101652153D01*
X138961534Y-101645805D01*
X138963830Y-101638091D01*
X138963832Y-101638089D01*
X138978709Y-101588113D01*
X138980576Y-101582288D01*
X138997500Y-101532994D01*
X138997500Y-101532992D01*
X139000113Y-101525381D01*
X138999780Y-101517341D01*
X138999781Y-101517340D01*
X138997627Y-101465265D01*
X138997500Y-101459108D01*
X138997500Y-89724605D01*
X139000671Y-89694029D01*
X139000782Y-89693496D01*
X139002393Y-89685816D01*
X138998644Y-89655738D01*
X138997639Y-89639553D01*
X138997199Y-89636919D01*
X138994143Y-89618601D01*
X138993255Y-89612506D01*
X138993027Y-89610681D01*
X138986810Y-89560797D01*
X138986809Y-89560795D01*
X138985814Y-89552811D01*
X138981983Y-89545732D01*
X138981983Y-89545731D01*
X138957170Y-89499881D01*
X138954384Y-89494470D01*
X138931476Y-89447611D01*
X138931473Y-89447608D01*
X138927937Y-89440374D01*
X138883674Y-89399628D01*
X138879229Y-89395364D01*
X129045541Y-79561675D01*
X129026165Y-79537814D01*
X129021576Y-79530791D01*
X129021574Y-79530789D01*
X128997658Y-79512174D01*
X128985504Y-79501441D01*
X128984814Y-79500948D01*
X128968181Y-79489072D01*
X128963300Y-79485432D01*
X128922155Y-79453408D01*
X128922153Y-79453407D01*
X128915801Y-79448463D01*
X128858134Y-79431294D01*
X128852272Y-79429416D01*
X128795383Y-79409886D01*
X128735266Y-79412373D01*
X128729109Y-79412500D01*
X125428679Y-79412500D01*
X125354179Y-79392538D01*
X125299641Y-79338000D01*
X125297273Y-79333739D01*
X125275793Y-79293553D01*
X125227685Y-79203550D01*
X125141210Y-79098179D01*
X125096410Y-79043589D01*
X124936451Y-78912316D01*
X124936450Y-78912315D01*
X124753954Y-78814768D01*
X124753953Y-78814767D01*
X124753952Y-78814767D01*
X124555932Y-78754699D01*
X124349999Y-78734416D01*
X124144067Y-78754699D01*
X123946047Y-78814767D01*
X123763548Y-78912316D01*
X123603589Y-79043589D01*
X123472316Y-79203548D01*
X123374767Y-79386047D01*
X123314699Y-79584067D01*
X123294416Y-79790000D01*
X123314699Y-79995932D01*
X123374767Y-80193952D01*
X123472316Y-80376451D01*
X123603589Y-80536410D01*
X123714901Y-80627760D01*
X123763550Y-80667685D01*
X123946046Y-80765232D01*
X124144066Y-80825300D01*
X124247033Y-80835441D01*
X124349999Y-80845583D01*
X124349999Y-80845582D01*
X124350000Y-80845583D01*
X124555934Y-80825300D01*
X124753954Y-80765232D01*
X124936450Y-80667685D01*
X125096410Y-80536410D01*
X125227685Y-80376450D01*
X125297273Y-80246260D01*
X125349997Y-80189968D01*
X125423805Y-80167580D01*
X125428679Y-80167500D01*
X128521917Y-80167500D01*
X128596417Y-80187462D01*
X128627276Y-80211141D01*
X138198859Y-89782724D01*
X138237423Y-89849519D01*
X138242500Y-89888083D01*
X138242500Y-101251916D01*
X138222538Y-101326416D01*
X138198859Y-101357275D01*
X135847275Y-103708859D01*
X135780480Y-103747423D01*
X135741916Y-103752500D01*
X98328083Y-103752500D01*
X98253583Y-103732538D01*
X98222724Y-103708859D01*
X92123865Y-97609999D01*
X93774722Y-97609999D01*
X93793763Y-97766821D01*
X93849778Y-97914521D01*
X93893031Y-97977183D01*
X93939517Y-98044530D01*
X94057760Y-98149283D01*
X94057762Y-98149284D01*
X94197632Y-98222695D01*
X94197634Y-98222695D01*
X94197635Y-98222696D01*
X94351015Y-98260500D01*
X94351016Y-98260500D01*
X94508984Y-98260500D01*
X94508985Y-98260500D01*
X94540442Y-98252746D01*
X94568510Y-98245829D01*
X94604166Y-98241500D01*
X95956706Y-98241500D01*
X96031206Y-98261462D01*
X96062065Y-98285141D01*
X100772533Y-102995608D01*
X100785928Y-103012327D01*
X100838772Y-103061951D01*
X100842118Y-103065193D01*
X100861556Y-103084631D01*
X100865250Y-103087497D01*
X100868768Y-103090598D01*
X100868300Y-103090211D01*
X100874531Y-103095531D01*
X100893078Y-103112948D01*
X100905864Y-103124955D01*
X100921939Y-103133792D01*
X100941484Y-103146631D01*
X100955982Y-103157877D01*
X100955985Y-103157879D01*
X100995431Y-103174948D01*
X101008031Y-103181122D01*
X101045679Y-103201819D01*
X101045681Y-103201819D01*
X101045682Y-103201820D01*
X101063455Y-103206383D01*
X101085571Y-103213954D01*
X101099004Y-103219768D01*
X101102419Y-103221246D01*
X101144858Y-103227968D01*
X101158603Y-103230813D01*
X101200223Y-103241500D01*
X101218572Y-103241500D01*
X101241879Y-103243334D01*
X101244153Y-103243694D01*
X101260007Y-103246205D01*
X101299921Y-103242432D01*
X101302790Y-103242161D01*
X101316811Y-103241500D01*
X107653833Y-103241500D01*
X107675128Y-103243850D01*
X107680097Y-103243693D01*
X107680098Y-103243694D01*
X107747555Y-103241573D01*
X107752235Y-103241500D01*
X107775038Y-103241500D01*
X107779730Y-103241500D01*
X107784388Y-103240911D01*
X107789048Y-103240618D01*
X107788391Y-103240680D01*
X107796623Y-103240032D01*
X107834553Y-103238839D01*
X107839574Y-103238682D01*
X107857194Y-103233562D01*
X107880089Y-103228822D01*
X107886849Y-103227968D01*
X107898296Y-103226522D01*
X107938261Y-103210697D01*
X107951524Y-103206156D01*
X107992792Y-103194168D01*
X108008583Y-103184828D01*
X108029585Y-103174540D01*
X108030178Y-103174305D01*
X108046645Y-103167786D01*
X108081407Y-103142528D01*
X108093127Y-103134829D01*
X108130127Y-103112949D01*
X108143108Y-103099966D01*
X108160881Y-103084787D01*
X108175727Y-103074002D01*
X108203121Y-103040887D01*
X108212546Y-103030528D01*
X110024885Y-101218188D01*
X110091678Y-101179626D01*
X110168806Y-101179626D01*
X110193206Y-101188507D01*
X110289543Y-101233430D01*
X110376334Y-101273902D01*
X110376336Y-101273902D01*
X110376337Y-101273903D01*
X110604592Y-101335063D01*
X110840000Y-101355659D01*
X111075408Y-101335063D01*
X111303663Y-101273903D01*
X111517830Y-101174035D01*
X111711401Y-101038495D01*
X111878495Y-100871401D01*
X112014035Y-100677830D01*
X112113903Y-100463663D01*
X112175063Y-100235408D01*
X112195659Y-100000000D01*
X114564341Y-100000000D01*
X114584936Y-100235407D01*
X114646097Y-100463663D01*
X114727196Y-100637581D01*
X114745965Y-100677830D01*
X114881505Y-100871401D01*
X115048599Y-101038495D01*
X115242170Y-101174035D01*
X115456337Y-101273903D01*
X115684592Y-101335063D01*
X115920000Y-101355659D01*
X116155408Y-101335063D01*
X116383663Y-101273903D01*
X116597830Y-101174035D01*
X116791401Y-101038495D01*
X116958495Y-100871401D01*
X117094035Y-100677830D01*
X117193903Y-100463663D01*
X117255063Y-100235408D01*
X117275659Y-100000000D01*
X119644843Y-100000000D01*
X119665430Y-100235320D01*
X119726569Y-100463491D01*
X119826399Y-100677577D01*
X119885073Y-100761372D01*
X120437226Y-100209218D01*
X120475901Y-100302588D01*
X120572075Y-100427925D01*
X120697412Y-100524099D01*
X120790779Y-100562772D01*
X120238625Y-101114926D01*
X120322421Y-101173600D01*
X120536508Y-101273430D01*
X120764679Y-101334569D01*
X121000000Y-101355156D01*
X121235320Y-101334569D01*
X121463490Y-101273431D01*
X121677581Y-101173598D01*
X121761373Y-101114926D01*
X121209220Y-100562773D01*
X121302588Y-100524099D01*
X121427925Y-100427925D01*
X121524099Y-100302589D01*
X121562773Y-100209219D01*
X122114926Y-100761372D01*
X122173598Y-100677581D01*
X122273431Y-100463490D01*
X122334569Y-100235320D01*
X122355156Y-100000000D01*
X124724843Y-100000000D01*
X124745430Y-100235320D01*
X124806569Y-100463491D01*
X124906399Y-100677577D01*
X124965073Y-100761372D01*
X125517226Y-100209219D01*
X125555901Y-100302588D01*
X125652075Y-100427925D01*
X125777412Y-100524099D01*
X125870779Y-100562772D01*
X125318625Y-101114926D01*
X125402421Y-101173600D01*
X125616508Y-101273430D01*
X125844679Y-101334569D01*
X126080000Y-101355156D01*
X126315320Y-101334569D01*
X126543490Y-101273431D01*
X126757581Y-101173598D01*
X126841373Y-101114926D01*
X126289220Y-100562773D01*
X126382588Y-100524099D01*
X126507925Y-100427925D01*
X126604099Y-100302589D01*
X126642773Y-100209219D01*
X127194926Y-100761372D01*
X127253598Y-100677581D01*
X127353431Y-100463490D01*
X127414569Y-100235320D01*
X127435156Y-100000000D01*
X127414569Y-99764679D01*
X127353431Y-99536509D01*
X127253600Y-99322423D01*
X127194925Y-99238626D01*
X126642772Y-99790779D01*
X126604099Y-99697412D01*
X126507925Y-99572075D01*
X126382588Y-99475901D01*
X126289218Y-99437226D01*
X126841372Y-98885073D01*
X126757577Y-98826399D01*
X126543491Y-98726569D01*
X126315320Y-98665430D01*
X126080000Y-98644843D01*
X125844679Y-98665430D01*
X125616509Y-98726568D01*
X125402421Y-98826400D01*
X125318626Y-98885073D01*
X125870779Y-99437226D01*
X125777412Y-99475901D01*
X125652075Y-99572075D01*
X125555901Y-99697411D01*
X125517227Y-99790779D01*
X124965073Y-99238626D01*
X124906400Y-99322421D01*
X124806568Y-99536509D01*
X124745430Y-99764679D01*
X124724843Y-100000000D01*
X122355156Y-100000000D01*
X122334569Y-99764679D01*
X122273431Y-99536509D01*
X122173600Y-99322423D01*
X122114925Y-99238626D01*
X121562772Y-99790779D01*
X121524099Y-99697412D01*
X121427925Y-99572075D01*
X121302588Y-99475901D01*
X121209218Y-99437226D01*
X121761372Y-98885073D01*
X121677577Y-98826399D01*
X121463491Y-98726569D01*
X121235320Y-98665430D01*
X120999999Y-98644843D01*
X120764679Y-98665430D01*
X120536509Y-98726568D01*
X120322421Y-98826400D01*
X120238626Y-98885073D01*
X120790779Y-99437226D01*
X120697412Y-99475901D01*
X120572075Y-99572075D01*
X120475901Y-99697411D01*
X120437226Y-99790779D01*
X119885073Y-99238626D01*
X119826400Y-99322421D01*
X119726568Y-99536509D01*
X119665430Y-99764679D01*
X119644843Y-100000000D01*
X117275659Y-100000000D01*
X117255063Y-99764592D01*
X117193903Y-99536337D01*
X117094035Y-99322171D01*
X116958495Y-99128599D01*
X116791401Y-98961505D01*
X116682245Y-98885073D01*
X116597828Y-98825963D01*
X116383529Y-98726034D01*
X116324445Y-98676457D01*
X116298066Y-98603980D01*
X116297499Y-98590994D01*
X116297499Y-97766818D01*
X116297499Y-96798079D01*
X116317461Y-96723583D01*
X116341136Y-96692728D01*
X118858326Y-94175538D01*
X118882186Y-94156163D01*
X118889209Y-94151576D01*
X118907821Y-94127661D01*
X118918555Y-94115507D01*
X118919044Y-94114821D01*
X118919052Y-94114814D01*
X118930930Y-94098176D01*
X118934571Y-94093294D01*
X118966592Y-94052155D01*
X118966592Y-94052153D01*
X118971534Y-94045805D01*
X118973830Y-94038091D01*
X118973832Y-94038089D01*
X118988709Y-93988113D01*
X118990576Y-93982288D01*
X119007500Y-93932994D01*
X119007500Y-93932991D01*
X119010113Y-93925380D01*
X119009780Y-93917341D01*
X119009781Y-93917340D01*
X119007626Y-93865264D01*
X119007499Y-93859104D01*
X119007499Y-92319999D01*
X124674722Y-92319999D01*
X124693763Y-92476821D01*
X124749778Y-92624521D01*
X124830318Y-92741202D01*
X124839517Y-92754530D01*
X124957760Y-92859283D01*
X124957762Y-92859284D01*
X125097632Y-92932695D01*
X125097634Y-92932695D01*
X125097635Y-92932696D01*
X125251015Y-92970500D01*
X125251016Y-92970500D01*
X125384917Y-92970500D01*
X125459417Y-92990462D01*
X125490276Y-93014141D01*
X130738859Y-98262724D01*
X130777423Y-98329519D01*
X130782500Y-98368084D01*
X130782499Y-98590995D01*
X130762536Y-98665495D01*
X130707998Y-98720032D01*
X130696470Y-98726033D01*
X130482174Y-98825962D01*
X130288598Y-98961505D01*
X130121505Y-99128598D01*
X129985964Y-99322172D01*
X129886097Y-99536336D01*
X129824936Y-99764592D01*
X129804341Y-100000000D01*
X129824936Y-100235407D01*
X129886097Y-100463663D01*
X129967196Y-100637581D01*
X129985965Y-100677830D01*
X130121505Y-100871401D01*
X130288599Y-101038495D01*
X130482170Y-101174035D01*
X130696337Y-101273903D01*
X130924592Y-101335063D01*
X131160000Y-101355659D01*
X131395408Y-101335063D01*
X131623663Y-101273903D01*
X131837830Y-101174035D01*
X132031401Y-101038495D01*
X132198495Y-100871401D01*
X132334035Y-100677830D01*
X132433903Y-100463663D01*
X132495063Y-100235408D01*
X132515659Y-100000000D01*
X132495063Y-99764592D01*
X132433903Y-99536337D01*
X132334035Y-99322171D01*
X132198495Y-99128599D01*
X132031401Y-98961505D01*
X131922245Y-98885073D01*
X131837828Y-98825963D01*
X131623529Y-98726034D01*
X131564445Y-98676457D01*
X131538066Y-98603980D01*
X131537499Y-98590994D01*
X131537499Y-98449345D01*
X131537499Y-98204595D01*
X131540670Y-98174032D01*
X131542393Y-98165816D01*
X131538644Y-98135739D01*
X131537639Y-98119552D01*
X131534142Y-98098598D01*
X131533258Y-98092538D01*
X131526809Y-98040797D01*
X131526808Y-98040795D01*
X131525812Y-98032804D01*
X131497189Y-97979916D01*
X131494369Y-97974440D01*
X131471476Y-97927611D01*
X131471473Y-97927608D01*
X131467937Y-97920375D01*
X131423674Y-97879628D01*
X131419229Y-97875364D01*
X126023431Y-92479565D01*
X125984867Y-92412770D01*
X125980876Y-92356250D01*
X125985278Y-92320000D01*
X125966237Y-92163182D01*
X125966236Y-92163180D01*
X125966236Y-92163178D01*
X125910221Y-92015478D01*
X125857087Y-91938500D01*
X125820483Y-91885470D01*
X125702240Y-91780717D01*
X125702238Y-91780716D01*
X125702237Y-91780715D01*
X125562367Y-91707304D01*
X125460111Y-91682101D01*
X125408985Y-91669500D01*
X125251015Y-91669500D01*
X125212669Y-91678951D01*
X125097632Y-91707304D01*
X124957762Y-91780715D01*
X124839515Y-91885472D01*
X124749778Y-92015478D01*
X124693763Y-92163178D01*
X124674722Y-92319999D01*
X119007499Y-92319999D01*
X119007499Y-91635420D01*
X119007499Y-89248256D01*
X119027461Y-89173760D01*
X119057691Y-89136734D01*
X119150483Y-89054530D01*
X119240220Y-88924523D01*
X119243376Y-88916203D01*
X119296236Y-88776821D01*
X119296236Y-88776820D01*
X119296237Y-88776818D01*
X119315278Y-88620000D01*
X119296237Y-88463182D01*
X119296236Y-88463180D01*
X119296236Y-88463178D01*
X119240221Y-88315478D01*
X119167371Y-88209937D01*
X119150483Y-88185470D01*
X119032240Y-88080717D01*
X119032238Y-88080716D01*
X119032237Y-88080715D01*
X118892367Y-88007304D01*
X118790111Y-87982101D01*
X118738985Y-87969500D01*
X118581015Y-87969500D01*
X118542670Y-87978951D01*
X118427632Y-88007304D01*
X118287762Y-88080715D01*
X118287759Y-88080717D01*
X118287760Y-88080717D01*
X118173456Y-88181981D01*
X118169515Y-88185472D01*
X118079778Y-88315478D01*
X118023763Y-88463178D01*
X118004722Y-88620000D01*
X118023763Y-88776821D01*
X118076625Y-88916204D01*
X118079780Y-88924523D01*
X118095215Y-88946885D01*
X118169516Y-89054530D01*
X118202303Y-89083575D01*
X118244831Y-89147918D01*
X118252500Y-89195105D01*
X118252500Y-93651915D01*
X118232538Y-93726415D01*
X118208859Y-93757274D01*
X115691674Y-96274458D01*
X115667818Y-96293832D01*
X115660790Y-96298424D01*
X115642170Y-96322346D01*
X115631438Y-96334500D01*
X115619091Y-96351792D01*
X115615414Y-96356722D01*
X115578464Y-96404196D01*
X115561302Y-96461842D01*
X115559424Y-96467704D01*
X115539886Y-96524616D01*
X115542373Y-96584733D01*
X115542500Y-96590890D01*
X115542500Y-98590994D01*
X115522538Y-98665494D01*
X115468000Y-98720032D01*
X115456471Y-98726034D01*
X115242170Y-98825965D01*
X115048598Y-98961505D01*
X114881505Y-99128598D01*
X114745964Y-99322172D01*
X114646097Y-99536336D01*
X114584936Y-99764592D01*
X114564341Y-100000000D01*
X112195659Y-100000000D01*
X112175063Y-99764592D01*
X112113903Y-99536337D01*
X112014035Y-99322171D01*
X111878495Y-99128599D01*
X111711401Y-98961505D01*
X111517830Y-98825965D01*
X111303663Y-98726097D01*
X111265827Y-98715959D01*
X111075407Y-98664936D01*
X110840000Y-98644341D01*
X110604592Y-98664936D01*
X110376336Y-98726097D01*
X110162172Y-98825964D01*
X109968598Y-98961505D01*
X109801505Y-99128598D01*
X109665964Y-99322172D01*
X109566097Y-99536336D01*
X109504936Y-99764591D01*
X109491695Y-99915930D01*
X109465315Y-99988406D01*
X109448621Y-100008301D01*
X107522065Y-101934859D01*
X107455270Y-101973423D01*
X107416706Y-101978500D01*
X101603294Y-101978500D01*
X101528794Y-101958538D01*
X101497935Y-101934859D01*
X99563076Y-100000000D01*
X102794784Y-100000000D01*
X102813602Y-100203080D01*
X102869418Y-100399252D01*
X102931585Y-100524099D01*
X102960327Y-100581821D01*
X102974055Y-100600000D01*
X103083235Y-100744579D01*
X103144030Y-100800000D01*
X103233959Y-100881981D01*
X103407363Y-100989348D01*
X103597544Y-101063024D01*
X103798024Y-101100500D01*
X104001976Y-101100500D01*
X104202456Y-101063024D01*
X104392637Y-100989348D01*
X104566041Y-100881981D01*
X104716764Y-100744579D01*
X104839673Y-100581821D01*
X104930582Y-100399250D01*
X104986397Y-100203083D01*
X105005215Y-100000000D01*
X104986397Y-99796917D01*
X104930582Y-99600750D01*
X104924752Y-99589042D01*
X104839673Y-99418180D01*
X104839673Y-99418179D01*
X104737155Y-99282423D01*
X104716764Y-99255420D01*
X104629883Y-99176218D01*
X104566041Y-99118019D01*
X104518526Y-99088599D01*
X104392641Y-99010654D01*
X104392638Y-99010653D01*
X104392637Y-99010652D01*
X104202456Y-98936976D01*
X104202453Y-98936975D01*
X104202452Y-98936975D01*
X104001976Y-98899500D01*
X103798024Y-98899500D01*
X103597547Y-98936975D01*
X103407358Y-99010654D01*
X103233961Y-99118017D01*
X103083235Y-99255420D01*
X102960326Y-99418180D01*
X102869418Y-99600747D01*
X102813602Y-99796919D01*
X102794784Y-100000000D01*
X99563076Y-100000000D01*
X97023075Y-97459999D01*
X102794784Y-97459999D01*
X102813602Y-97663080D01*
X102869418Y-97859252D01*
X102926775Y-97974440D01*
X102960327Y-98041821D01*
X102962373Y-98044530D01*
X103083235Y-98204579D01*
X103103108Y-98222695D01*
X103233959Y-98341981D01*
X103407363Y-98449348D01*
X103597544Y-98523024D01*
X103798024Y-98560500D01*
X104001976Y-98560500D01*
X104202456Y-98523024D01*
X104392637Y-98449348D01*
X104566041Y-98341981D01*
X104716764Y-98204579D01*
X104839673Y-98041821D01*
X104930582Y-97859250D01*
X104986397Y-97663083D01*
X105005215Y-97460000D01*
X104986397Y-97256917D01*
X104930582Y-97060750D01*
X104921376Y-97042262D01*
X104839673Y-96878180D01*
X104839673Y-96878179D01*
X104778218Y-96796800D01*
X104716764Y-96715420D01*
X104629883Y-96636218D01*
X104566041Y-96578019D01*
X104480409Y-96524998D01*
X104392641Y-96470654D01*
X104392638Y-96470653D01*
X104392637Y-96470652D01*
X104202456Y-96396976D01*
X104202453Y-96396975D01*
X104202452Y-96396975D01*
X104001976Y-96359500D01*
X103798024Y-96359500D01*
X103597547Y-96396975D01*
X103597544Y-96396975D01*
X103597544Y-96396976D01*
X103414973Y-96467704D01*
X103407358Y-96470654D01*
X103233961Y-96578017D01*
X103083235Y-96715420D01*
X102960326Y-96878180D01*
X102869418Y-97060747D01*
X102813602Y-97256919D01*
X102794784Y-97459999D01*
X97023075Y-97459999D01*
X96787465Y-97224389D01*
X96774077Y-97207678D01*
X96721242Y-97158062D01*
X96717881Y-97154805D01*
X96701762Y-97138686D01*
X96698445Y-97135369D01*
X96694735Y-97132491D01*
X96691237Y-97129407D01*
X96691688Y-97129780D01*
X96685464Y-97124463D01*
X96654136Y-97095045D01*
X96638059Y-97086207D01*
X96618514Y-97073368D01*
X96604012Y-97062118D01*
X96564571Y-97045051D01*
X96551966Y-97038877D01*
X96514316Y-97018179D01*
X96496546Y-97013617D01*
X96474424Y-97006042D01*
X96457583Y-96998754D01*
X96415138Y-96992031D01*
X96401394Y-96989185D01*
X96359778Y-96978500D01*
X96359777Y-96978500D01*
X96341422Y-96978500D01*
X96318115Y-96976666D01*
X96299993Y-96973796D01*
X96257218Y-96977839D01*
X96243198Y-96978500D01*
X94604166Y-96978500D01*
X94568510Y-96974171D01*
X94540442Y-96967253D01*
X94508985Y-96959500D01*
X94351015Y-96959500D01*
X94312669Y-96968951D01*
X94197632Y-96997304D01*
X94057762Y-97070715D01*
X93939515Y-97175472D01*
X93849778Y-97305478D01*
X93793763Y-97453178D01*
X93774722Y-97609999D01*
X92123865Y-97609999D01*
X89433866Y-94920000D01*
X102794784Y-94920000D01*
X102813602Y-95123080D01*
X102869418Y-95319252D01*
X102960326Y-95501819D01*
X102960327Y-95501821D01*
X103001856Y-95556814D01*
X103083235Y-95664579D01*
X103162437Y-95736780D01*
X103233959Y-95801981D01*
X103407363Y-95909348D01*
X103597544Y-95983024D01*
X103798024Y-96020500D01*
X104001976Y-96020500D01*
X104202456Y-95983024D01*
X104392637Y-95909348D01*
X104566041Y-95801981D01*
X104716764Y-95664579D01*
X104839673Y-95501821D01*
X104930582Y-95319250D01*
X104986397Y-95123083D01*
X105005215Y-94920000D01*
X104986397Y-94716917D01*
X104930582Y-94520750D01*
X104920455Y-94500413D01*
X104855077Y-94369115D01*
X104839673Y-94338179D01*
X104778218Y-94256800D01*
X104716764Y-94175420D01*
X104581547Y-94052155D01*
X104566041Y-94038019D01*
X104566038Y-94038017D01*
X104392641Y-93930654D01*
X104392638Y-93930653D01*
X104392637Y-93930652D01*
X104202456Y-93856976D01*
X104202453Y-93856975D01*
X104202452Y-93856975D01*
X104001976Y-93819500D01*
X103798024Y-93819500D01*
X103597547Y-93856975D01*
X103597544Y-93856975D01*
X103597544Y-93856976D01*
X103421950Y-93925001D01*
X103407358Y-93930654D01*
X103233961Y-94038017D01*
X103083235Y-94175420D01*
X102960326Y-94338180D01*
X102869418Y-94520747D01*
X102813602Y-94716919D01*
X102794784Y-94920000D01*
X89433866Y-94920000D01*
X89261141Y-94747275D01*
X89222577Y-94680480D01*
X89217500Y-94641916D01*
X89217500Y-92380000D01*
X102794784Y-92380000D01*
X102813602Y-92583080D01*
X102869418Y-92779252D01*
X102957235Y-92955611D01*
X102960327Y-92961821D01*
X102961259Y-92963055D01*
X103083235Y-93124579D01*
X103132290Y-93169298D01*
X103233959Y-93261981D01*
X103407363Y-93369348D01*
X103597544Y-93443024D01*
X103798024Y-93480500D01*
X104001976Y-93480500D01*
X104202456Y-93443024D01*
X104392637Y-93369348D01*
X104566041Y-93261981D01*
X104716764Y-93124579D01*
X104839673Y-92961821D01*
X104930582Y-92779250D01*
X104986397Y-92583083D01*
X105005215Y-92380000D01*
X104986397Y-92176917D01*
X104930582Y-91980750D01*
X104929302Y-91978180D01*
X104839673Y-91798180D01*
X104839673Y-91798179D01*
X104778218Y-91716800D01*
X104716764Y-91635420D01*
X104629883Y-91556218D01*
X104566041Y-91498019D01*
X104566038Y-91498017D01*
X104392641Y-91390654D01*
X104392638Y-91390653D01*
X104392637Y-91390652D01*
X104202456Y-91316976D01*
X104202453Y-91316975D01*
X104202452Y-91316975D01*
X104001976Y-91279500D01*
X103798024Y-91279500D01*
X103597547Y-91316975D01*
X103407358Y-91390654D01*
X103233961Y-91498017D01*
X103083235Y-91635420D01*
X102960326Y-91798180D01*
X102869418Y-91980747D01*
X102813602Y-92176919D01*
X102794784Y-92380000D01*
X89217500Y-92380000D01*
X89217500Y-89840000D01*
X102794784Y-89840000D01*
X102813602Y-90043080D01*
X102869418Y-90239252D01*
X102960326Y-90421819D01*
X102960327Y-90421821D01*
X103001856Y-90476814D01*
X103083235Y-90584579D01*
X103162437Y-90656780D01*
X103233959Y-90721981D01*
X103407363Y-90829348D01*
X103597544Y-90903024D01*
X103798024Y-90940500D01*
X104001976Y-90940500D01*
X104202456Y-90903024D01*
X104392637Y-90829348D01*
X104566041Y-90721981D01*
X104716764Y-90584579D01*
X104839673Y-90421821D01*
X104930582Y-90239250D01*
X104986397Y-90043083D01*
X105005215Y-89840000D01*
X104986397Y-89636917D01*
X104930582Y-89440750D01*
X104910329Y-89400077D01*
X104839673Y-89258180D01*
X104839673Y-89258179D01*
X104764990Y-89159283D01*
X104716764Y-89095420D01*
X104610558Y-88998602D01*
X104566041Y-88958019D01*
X104540827Y-88942407D01*
X104392641Y-88850654D01*
X104392638Y-88850653D01*
X104392637Y-88850652D01*
X104202456Y-88776976D01*
X104202453Y-88776975D01*
X104202452Y-88776975D01*
X104001976Y-88739500D01*
X103798024Y-88739500D01*
X103597547Y-88776975D01*
X103597544Y-88776975D01*
X103597544Y-88776976D01*
X103422097Y-88844944D01*
X103407358Y-88850654D01*
X103233961Y-88958017D01*
X103083235Y-89095420D01*
X102960326Y-89258180D01*
X102869418Y-89440747D01*
X102813602Y-89636919D01*
X102794784Y-89840000D01*
X89217500Y-89840000D01*
X89217500Y-87300000D01*
X102794784Y-87300000D01*
X102813602Y-87503080D01*
X102869418Y-87699252D01*
X102933558Y-87828062D01*
X102960327Y-87881821D01*
X102969818Y-87894389D01*
X103083235Y-88044579D01*
X103162437Y-88116780D01*
X103233959Y-88181981D01*
X103357621Y-88258549D01*
X103406634Y-88288897D01*
X103407363Y-88289348D01*
X103597544Y-88363024D01*
X103798024Y-88400500D01*
X104001976Y-88400500D01*
X104202456Y-88363024D01*
X104392637Y-88289348D01*
X104566041Y-88181981D01*
X104716764Y-88044579D01*
X104839673Y-87881821D01*
X104930582Y-87699250D01*
X104986397Y-87503083D01*
X105005215Y-87300000D01*
X104986397Y-87096917D01*
X104930582Y-86900750D01*
X104839673Y-86718179D01*
X104768950Y-86624527D01*
X104716764Y-86555420D01*
X104629883Y-86476218D01*
X104566041Y-86418019D01*
X104566038Y-86418017D01*
X104392641Y-86310654D01*
X104392638Y-86310653D01*
X104392637Y-86310652D01*
X104202456Y-86236976D01*
X104202453Y-86236975D01*
X104202452Y-86236975D01*
X104001976Y-86199500D01*
X103798024Y-86199500D01*
X103597547Y-86236975D01*
X103597544Y-86236975D01*
X103597544Y-86236976D01*
X103479890Y-86282555D01*
X103407358Y-86310654D01*
X103233961Y-86418017D01*
X103083235Y-86555420D01*
X102960326Y-86718180D01*
X102869418Y-86900747D01*
X102813602Y-87096919D01*
X102794784Y-87300000D01*
X89217500Y-87300000D01*
X89217500Y-84760000D01*
X102794784Y-84760000D01*
X102813602Y-84963080D01*
X102869418Y-85159252D01*
X102941138Y-85303285D01*
X102960327Y-85341821D01*
X103001856Y-85396814D01*
X103083235Y-85504579D01*
X103134345Y-85551171D01*
X103233959Y-85641981D01*
X103407363Y-85749348D01*
X103597544Y-85823024D01*
X103798024Y-85860500D01*
X104001976Y-85860500D01*
X104202456Y-85823024D01*
X104392637Y-85749348D01*
X104566041Y-85641981D01*
X104716764Y-85504579D01*
X104839673Y-85341821D01*
X104930582Y-85159250D01*
X104934293Y-85146205D01*
X104949672Y-85120000D01*
X115708589Y-85120000D01*
X115755232Y-85273762D01*
X115852730Y-85456168D01*
X115983945Y-85616054D01*
X116143831Y-85747269D01*
X116326237Y-85844767D01*
X116480000Y-85891410D01*
X116480000Y-85185686D01*
X116491955Y-85197641D01*
X116604852Y-85255165D01*
X116698519Y-85270000D01*
X116761481Y-85270000D01*
X116855148Y-85255165D01*
X116968045Y-85197641D01*
X116979999Y-85185686D01*
X116979999Y-85891409D01*
X117133762Y-85844767D01*
X117316168Y-85747269D01*
X117476054Y-85616054D01*
X117607269Y-85456168D01*
X117704767Y-85273762D01*
X117751411Y-85120000D01*
X117045686Y-85120000D01*
X117057641Y-85108045D01*
X117115165Y-84995148D01*
X117134986Y-84870000D01*
X117115165Y-84744852D01*
X117057641Y-84631955D01*
X117045686Y-84620000D01*
X117751410Y-84620000D01*
X117704767Y-84466237D01*
X117607269Y-84283831D01*
X117476054Y-84123945D01*
X117316168Y-83992730D01*
X117133763Y-83895232D01*
X116979999Y-83848587D01*
X116979999Y-84554313D01*
X116968045Y-84542359D01*
X116855148Y-84484835D01*
X116761481Y-84470000D01*
X116698519Y-84470000D01*
X116604852Y-84484835D01*
X116491955Y-84542359D01*
X116480000Y-84554314D01*
X116480000Y-83848587D01*
X116326236Y-83895232D01*
X116143831Y-83992730D01*
X115983945Y-84123945D01*
X115852730Y-84283831D01*
X115755232Y-84466237D01*
X115708589Y-84620000D01*
X116414314Y-84620000D01*
X116402359Y-84631955D01*
X116344835Y-84744852D01*
X116325014Y-84870000D01*
X116344835Y-84995148D01*
X116402359Y-85108045D01*
X116414314Y-85120000D01*
X115708589Y-85120000D01*
X104949672Y-85120000D01*
X104972128Y-85081738D01*
X104972571Y-85081294D01*
X104987771Y-85069948D01*
X104995067Y-85062021D01*
X104995071Y-85062020D01*
X105030394Y-85023647D01*
X105034611Y-85019252D01*
X107723864Y-82330000D01*
X115674416Y-82330000D01*
X115694699Y-82535932D01*
X115754767Y-82733952D01*
X115852316Y-82916451D01*
X115983589Y-83076410D01*
X116094901Y-83167760D01*
X116143550Y-83207685D01*
X116326046Y-83305232D01*
X116524066Y-83365300D01*
X116730000Y-83385583D01*
X116935934Y-83365300D01*
X117133954Y-83305232D01*
X117316450Y-83207685D01*
X117476410Y-83076410D01*
X117607685Y-82916450D01*
X117705232Y-82733954D01*
X117765300Y-82535934D01*
X117785583Y-82330000D01*
X117765300Y-82124066D01*
X117705232Y-81926046D01*
X117607685Y-81743550D01*
X117521210Y-81638179D01*
X117476410Y-81583589D01*
X117316451Y-81452316D01*
X117316450Y-81452315D01*
X117133954Y-81354768D01*
X117133953Y-81354767D01*
X117133952Y-81354767D01*
X116935932Y-81294699D01*
X116730000Y-81274416D01*
X116524067Y-81294699D01*
X116326047Y-81354767D01*
X116143548Y-81452316D01*
X115983589Y-81583589D01*
X115852316Y-81743548D01*
X115754767Y-81926047D01*
X115694699Y-82124067D01*
X115674416Y-82330000D01*
X107723864Y-82330000D01*
X110263864Y-79790000D01*
X115674416Y-79790000D01*
X115694699Y-79995932D01*
X115754767Y-80193952D01*
X115852316Y-80376451D01*
X115983589Y-80536410D01*
X116094901Y-80627760D01*
X116143550Y-80667685D01*
X116326046Y-80765232D01*
X116524066Y-80825300D01*
X116730000Y-80845583D01*
X116935934Y-80825300D01*
X117133954Y-80765232D01*
X117316450Y-80667685D01*
X117476410Y-80536410D01*
X117607685Y-80376450D01*
X117705232Y-80193954D01*
X117765300Y-79995934D01*
X117785583Y-79790000D01*
X117765300Y-79584066D01*
X117705232Y-79386046D01*
X117607685Y-79203550D01*
X117521210Y-79098179D01*
X117476410Y-79043589D01*
X117316451Y-78912316D01*
X117316450Y-78912315D01*
X117133954Y-78814768D01*
X117133953Y-78814767D01*
X117133952Y-78814767D01*
X116935932Y-78754699D01*
X116730000Y-78734416D01*
X116524067Y-78754699D01*
X116326047Y-78814767D01*
X116143548Y-78912316D01*
X115983589Y-79043589D01*
X115852316Y-79203548D01*
X115754767Y-79386047D01*
X115694699Y-79584067D01*
X115674416Y-79790000D01*
X110263864Y-79790000D01*
X111979191Y-78074673D01*
X115679500Y-78074673D01*
X115694034Y-78147741D01*
X115749398Y-78230601D01*
X115832258Y-78285965D01*
X115832260Y-78285966D01*
X115905326Y-78300500D01*
X115905327Y-78300500D01*
X117554673Y-78300500D01*
X117554674Y-78300500D01*
X117627740Y-78285966D01*
X117710601Y-78230601D01*
X117765966Y-78147740D01*
X117780500Y-78074674D01*
X117780500Y-76425326D01*
X117765966Y-76352260D01*
X117756982Y-76338814D01*
X117710601Y-76269398D01*
X117627741Y-76214034D01*
X117591207Y-76206767D01*
X117554674Y-76199500D01*
X115905326Y-76199500D01*
X115880970Y-76204344D01*
X115832258Y-76214034D01*
X115749398Y-76269398D01*
X115694034Y-76352258D01*
X115679500Y-76425326D01*
X115679500Y-78074673D01*
X111979191Y-78074673D01*
X114712723Y-75341141D01*
X114779519Y-75302577D01*
X114818083Y-75297500D01*
X120685395Y-75297500D01*
X120715971Y-75300671D01*
X120724184Y-75302393D01*
X120751390Y-75299001D01*
X120754262Y-75298644D01*
X120770445Y-75297639D01*
X120771278Y-75297500D01*
X120771281Y-75297500D01*
X120791413Y-75294140D01*
X120797451Y-75293260D01*
X120849203Y-75286810D01*
X120849202Y-75286810D01*
X120857187Y-75285815D01*
X120864266Y-75281983D01*
X120864269Y-75281983D01*
X120910150Y-75257152D01*
X120915517Y-75254389D01*
X120962389Y-75231476D01*
X120962390Y-75231474D01*
X120969619Y-75227941D01*
X120975068Y-75222021D01*
X120975071Y-75222020D01*
X121010394Y-75183647D01*
X121014611Y-75179252D01*
X121379723Y-74814141D01*
X121446519Y-74775577D01*
X121485083Y-74770500D01*
X121618984Y-74770500D01*
X121618985Y-74770500D01*
X121772365Y-74732696D01*
X121912240Y-74659283D01*
X122030483Y-74554530D01*
X122120220Y-74424523D01*
X122151985Y-74340767D01*
X122176236Y-74276821D01*
X122176236Y-74276820D01*
X122176237Y-74276818D01*
X122195278Y-74120000D01*
X122176237Y-73963182D01*
X122176236Y-73963180D01*
X122176236Y-73963178D01*
X122120221Y-73815478D01*
X122079951Y-73757137D01*
X122030483Y-73685470D01*
X121912240Y-73580717D01*
X121912238Y-73580716D01*
X121912237Y-73580715D01*
X121772367Y-73507304D01*
X121663103Y-73480374D01*
X121618985Y-73469500D01*
X121461015Y-73469500D01*
X121422670Y-73478951D01*
X121307632Y-73507304D01*
X121167762Y-73580715D01*
X121153202Y-73593614D01*
X121057138Y-73678719D01*
X121049515Y-73685472D01*
X120959778Y-73815478D01*
X120903763Y-73963178D01*
X120884722Y-74120000D01*
X120889123Y-74156247D01*
X120878285Y-74232610D01*
X120846568Y-74279563D01*
X120627275Y-74498858D01*
X120560481Y-74537423D01*
X120521916Y-74542500D01*
X114654600Y-74542500D01*
X114624024Y-74539329D01*
X114615816Y-74537608D01*
X114615815Y-74537608D01*
X114585746Y-74541356D01*
X114569554Y-74542361D01*
X114568721Y-74542500D01*
X114568719Y-74542500D01*
X114548583Y-74545859D01*
X114542506Y-74546745D01*
X114482809Y-74554186D01*
X114429886Y-74582826D01*
X114424428Y-74585634D01*
X114404775Y-74595242D01*
X114370378Y-74612059D01*
X114329638Y-74656314D01*
X114325377Y-74660755D01*
X104947101Y-84039031D01*
X104880306Y-84077595D01*
X104803178Y-84077595D01*
X104736383Y-84039031D01*
X104722839Y-84023465D01*
X104716764Y-84015421D01*
X104566041Y-83878019D01*
X104566038Y-83878017D01*
X104392641Y-83770654D01*
X104392638Y-83770653D01*
X104392637Y-83770652D01*
X104202456Y-83696976D01*
X104202453Y-83696975D01*
X104202452Y-83696975D01*
X104001976Y-83659500D01*
X103798024Y-83659500D01*
X103597547Y-83696975D01*
X103597544Y-83696975D01*
X103597544Y-83696976D01*
X103545368Y-83717189D01*
X103407358Y-83770654D01*
X103233961Y-83878017D01*
X103083235Y-84015420D01*
X102960326Y-84178180D01*
X102869418Y-84360747D01*
X102813602Y-84556919D01*
X102794784Y-84760000D01*
X89217500Y-84760000D01*
X89217500Y-82484605D01*
X89220671Y-82454029D01*
X89220782Y-82453496D01*
X89222393Y-82445816D01*
X89218644Y-82415738D01*
X89217639Y-82399553D01*
X89214143Y-82378601D01*
X89213255Y-82372506D01*
X89207957Y-82330000D01*
X89206810Y-82320797D01*
X89206809Y-82320795D01*
X89205814Y-82312811D01*
X89201983Y-82305732D01*
X89201983Y-82305731D01*
X89177170Y-82259881D01*
X89174384Y-82254470D01*
X89157533Y-82220000D01*
X102794784Y-82220000D01*
X102813602Y-82423080D01*
X102869418Y-82619252D01*
X102926532Y-82733952D01*
X102960327Y-82801821D01*
X103001856Y-82856814D01*
X103083235Y-82964579D01*
X103162437Y-83036780D01*
X103233959Y-83101981D01*
X103407363Y-83209348D01*
X103597544Y-83283024D01*
X103798024Y-83320500D01*
X104001976Y-83320500D01*
X104202456Y-83283024D01*
X104392637Y-83209348D01*
X104566041Y-83101981D01*
X104716764Y-82964579D01*
X104839673Y-82801821D01*
X104930582Y-82619250D01*
X104986397Y-82423083D01*
X105005215Y-82220000D01*
X104986397Y-82016917D01*
X104932953Y-81829086D01*
X104931766Y-81751973D01*
X104969296Y-81684592D01*
X104970840Y-81683023D01*
X107788326Y-78865538D01*
X107812186Y-78846163D01*
X107819209Y-78841576D01*
X107837821Y-78817661D01*
X107848555Y-78805507D01*
X107849044Y-78804821D01*
X107849052Y-78804814D01*
X107860930Y-78788176D01*
X107864571Y-78783294D01*
X107896592Y-78742155D01*
X107896592Y-78742153D01*
X107901534Y-78735805D01*
X107903830Y-78728091D01*
X107903832Y-78728089D01*
X107918709Y-78678113D01*
X107920576Y-78672288D01*
X107937500Y-78622994D01*
X107937500Y-78622990D01*
X107940112Y-78615382D01*
X107939779Y-78607344D01*
X107939781Y-78607340D01*
X107937624Y-78555206D01*
X107937500Y-78549147D01*
X107937500Y-76858083D01*
X107957462Y-76783583D01*
X107981141Y-76752724D01*
X115912725Y-68821141D01*
X115979520Y-68782577D01*
X116018084Y-68777500D01*
X125055395Y-68777500D01*
X125085971Y-68780671D01*
X125094184Y-68782393D01*
X125121390Y-68779001D01*
X125124262Y-68778644D01*
X125140445Y-68777639D01*
X125141278Y-68777500D01*
X125141281Y-68777500D01*
X125161413Y-68774140D01*
X125167451Y-68773260D01*
X125219203Y-68766810D01*
X125219202Y-68766810D01*
X125227187Y-68765815D01*
X125234266Y-68761983D01*
X125234269Y-68761983D01*
X125280150Y-68737152D01*
X125285517Y-68734389D01*
X125332389Y-68711476D01*
X125332390Y-68711474D01*
X125339619Y-68707941D01*
X125345068Y-68702021D01*
X125345071Y-68702020D01*
X125380394Y-68663647D01*
X125384611Y-68659252D01*
X127498327Y-66545537D01*
X127522185Y-66526164D01*
X127529209Y-66521576D01*
X127547815Y-66497668D01*
X127558553Y-66485510D01*
X127559044Y-66484821D01*
X127559052Y-66484814D01*
X127570925Y-66468183D01*
X127574571Y-66463294D01*
X127606592Y-66422155D01*
X127606592Y-66422153D01*
X127611534Y-66415805D01*
X127613830Y-66408091D01*
X127613832Y-66408089D01*
X127628713Y-66358098D01*
X127630555Y-66352350D01*
X127647500Y-66302994D01*
X127647500Y-66302991D01*
X127650112Y-66295383D01*
X127649779Y-66287341D01*
X127649780Y-66287340D01*
X127647627Y-66235280D01*
X127647500Y-66229124D01*
X127647500Y-63789183D01*
X127667462Y-63714683D01*
X127697695Y-63677655D01*
X127715651Y-63661746D01*
X127760483Y-63622030D01*
X127850220Y-63492023D01*
X127893852Y-63376976D01*
X127906236Y-63344321D01*
X127906236Y-63344320D01*
X127906237Y-63344318D01*
X127925278Y-63187500D01*
X127906237Y-63030682D01*
X127906236Y-63030680D01*
X127906236Y-63030678D01*
X127850221Y-62882978D01*
X127760484Y-62752972D01*
X127760483Y-62752970D01*
X127642240Y-62648217D01*
X127642238Y-62648216D01*
X127642237Y-62648215D01*
X127502367Y-62574804D01*
X127400111Y-62549601D01*
X127348985Y-62537000D01*
X127191015Y-62537000D01*
X127152670Y-62546450D01*
X127037632Y-62574804D01*
X126897762Y-62648215D01*
X126779515Y-62752972D01*
X126689778Y-62882978D01*
X126633763Y-63030678D01*
X126614722Y-63187500D01*
X126633763Y-63344321D01*
X126689778Y-63492021D01*
X126779515Y-63622028D01*
X126779516Y-63622029D01*
X126779517Y-63622030D01*
X126842305Y-63677655D01*
X126884831Y-63741998D01*
X126892499Y-63789182D01*
X126892499Y-66021916D01*
X126872537Y-66096416D01*
X126848858Y-66127275D01*
X124997275Y-67978859D01*
X124930480Y-68017423D01*
X124891916Y-68022500D01*
X115854605Y-68022500D01*
X115824029Y-68019329D01*
X115815816Y-68017607D01*
X115785738Y-68021356D01*
X115769546Y-68022361D01*
X115748600Y-68025855D01*
X115742518Y-68026741D01*
X115682813Y-68034184D01*
X115629894Y-68062822D01*
X115624432Y-68065633D01*
X115594024Y-68080500D01*
X115570378Y-68092060D01*
X115529627Y-68136326D01*
X115525366Y-68140767D01*
X107331674Y-76334458D01*
X107307818Y-76353832D01*
X107300790Y-76358424D01*
X107282170Y-76382346D01*
X107271438Y-76394500D01*
X107259091Y-76411792D01*
X107255414Y-76416722D01*
X107218464Y-76464196D01*
X107201302Y-76521842D01*
X107199424Y-76527704D01*
X107179886Y-76584616D01*
X107182373Y-76644733D01*
X107182500Y-76650890D01*
X107182500Y-78341915D01*
X107162538Y-78416415D01*
X107138859Y-78447274D01*
X104434507Y-81151625D01*
X104367712Y-81190189D01*
X104290584Y-81190189D01*
X104275324Y-81185205D01*
X104202455Y-81156975D01*
X104001976Y-81119500D01*
X103798024Y-81119500D01*
X103597547Y-81156975D01*
X103407358Y-81230654D01*
X103233961Y-81338017D01*
X103083235Y-81475420D01*
X102960326Y-81638180D01*
X102869418Y-81820747D01*
X102813602Y-82016919D01*
X102794784Y-82220000D01*
X89157533Y-82220000D01*
X89151476Y-82207611D01*
X89151473Y-82207608D01*
X89147937Y-82200374D01*
X89103674Y-82159628D01*
X89099229Y-82155364D01*
X86623865Y-79680000D01*
X102794784Y-79680000D01*
X102813602Y-79883080D01*
X102869418Y-80079252D01*
X102939047Y-80219085D01*
X102960327Y-80261821D01*
X103001856Y-80316814D01*
X103083235Y-80424579D01*
X103129947Y-80467162D01*
X103233959Y-80561981D01*
X103407363Y-80669348D01*
X103597544Y-80743024D01*
X103798024Y-80780500D01*
X104001976Y-80780500D01*
X104202456Y-80743024D01*
X104392637Y-80669348D01*
X104566041Y-80561981D01*
X104716764Y-80424579D01*
X104839673Y-80261821D01*
X104930582Y-80079250D01*
X104986397Y-79883083D01*
X105005215Y-79680000D01*
X104986397Y-79476917D01*
X104930582Y-79280750D01*
X104839673Y-79098179D01*
X104753698Y-78984329D01*
X104716764Y-78935420D01*
X104613820Y-78841575D01*
X104566041Y-78798019D01*
X104507891Y-78762014D01*
X104392641Y-78690654D01*
X104392638Y-78690653D01*
X104392637Y-78690652D01*
X104202456Y-78616976D01*
X104202453Y-78616975D01*
X104202452Y-78616975D01*
X104001976Y-78579500D01*
X103798024Y-78579500D01*
X103597547Y-78616975D01*
X103597544Y-78616975D01*
X103597544Y-78616976D01*
X103407363Y-78690652D01*
X103407358Y-78690654D01*
X103233961Y-78798017D01*
X103083235Y-78935420D01*
X102960326Y-79098180D01*
X102869418Y-79280747D01*
X102813602Y-79476919D01*
X102794784Y-79680000D01*
X86623865Y-79680000D01*
X84083865Y-77139999D01*
X102794784Y-77139999D01*
X102813602Y-77343080D01*
X102869418Y-77539252D01*
X102926532Y-77653952D01*
X102960327Y-77721821D01*
X102981878Y-77750359D01*
X103083235Y-77884579D01*
X103127730Y-77925141D01*
X103233959Y-78021981D01*
X103407363Y-78129348D01*
X103597544Y-78203024D01*
X103798024Y-78240500D01*
X104001976Y-78240500D01*
X104202456Y-78203024D01*
X104392637Y-78129348D01*
X104566041Y-78021981D01*
X104716764Y-77884579D01*
X104839673Y-77721821D01*
X104930582Y-77539250D01*
X104986397Y-77343083D01*
X105005215Y-77140000D01*
X104986397Y-76936917D01*
X104930582Y-76740750D01*
X104930416Y-76740417D01*
X104884300Y-76647803D01*
X104839673Y-76558179D01*
X104769614Y-76465406D01*
X104716764Y-76395420D01*
X104578523Y-76269398D01*
X104566041Y-76258019D01*
X104495003Y-76214034D01*
X104392641Y-76150654D01*
X104392638Y-76150653D01*
X104392637Y-76150652D01*
X104202456Y-76076976D01*
X104202453Y-76076975D01*
X104202452Y-76076975D01*
X104001976Y-76039500D01*
X103798024Y-76039500D01*
X103597547Y-76076975D01*
X103407358Y-76150654D01*
X103233961Y-76258017D01*
X103083235Y-76395420D01*
X102960326Y-76558180D01*
X102869418Y-76740747D01*
X102813602Y-76936919D01*
X102794784Y-77139999D01*
X84083865Y-77139999D01*
X83855541Y-76911675D01*
X83836165Y-76887814D01*
X83831576Y-76880791D01*
X83831574Y-76880789D01*
X83807658Y-76862174D01*
X83795504Y-76851441D01*
X83794814Y-76850948D01*
X83778181Y-76839072D01*
X83773300Y-76835432D01*
X83732155Y-76803408D01*
X83732153Y-76803407D01*
X83725801Y-76798463D01*
X83668134Y-76781294D01*
X83662272Y-76779416D01*
X83605383Y-76759886D01*
X83545266Y-76762373D01*
X83539109Y-76762500D01*
X82033669Y-76762500D01*
X81959169Y-76742538D01*
X81904631Y-76688000D01*
X81900290Y-76679915D01*
X81884300Y-76647803D01*
X81839673Y-76558179D01*
X81769614Y-76465406D01*
X81716764Y-76395420D01*
X81578523Y-76269398D01*
X81566041Y-76258019D01*
X81495003Y-76214034D01*
X81392641Y-76150654D01*
X81392638Y-76150653D01*
X81392637Y-76150652D01*
X81202456Y-76076976D01*
X81202453Y-76076975D01*
X81202452Y-76076975D01*
X81001976Y-76039500D01*
X80798024Y-76039500D01*
X80597547Y-76076975D01*
X80407358Y-76150654D01*
X80233961Y-76258017D01*
X80083235Y-76395420D01*
X79960326Y-76558180D01*
X79869418Y-76740747D01*
X79813602Y-76936919D01*
X79794784Y-77140000D01*
X79813602Y-77343080D01*
X79869418Y-77539252D01*
X79926532Y-77653952D01*
X79960327Y-77721821D01*
X79981878Y-77750359D01*
X80083235Y-77884579D01*
X80127730Y-77925141D01*
X80233959Y-78021981D01*
X80407363Y-78129348D01*
X80597544Y-78203024D01*
X80798024Y-78240500D01*
X81001976Y-78240500D01*
X81202456Y-78203024D01*
X81392637Y-78129348D01*
X81566041Y-78021981D01*
X81716764Y-77884579D01*
X81839673Y-77721821D01*
X81900289Y-77600085D01*
X81951366Y-77542293D01*
X82024496Y-77517783D01*
X82033669Y-77517500D01*
X83331917Y-77517500D01*
X83406417Y-77537462D01*
X83437276Y-77561141D01*
X88418859Y-82542724D01*
X88457423Y-82609519D01*
X88462500Y-82648083D01*
X88462500Y-94805395D01*
X88459329Y-94835970D01*
X88457606Y-94844183D01*
X88461356Y-94874261D01*
X88462360Y-94890441D01*
X88465853Y-94911375D01*
X88466739Y-94917463D01*
X88474185Y-94977189D01*
X88502821Y-95030105D01*
X88505638Y-95035578D01*
X88532058Y-95089619D01*
X88537979Y-95095070D01*
X88537980Y-95095071D01*
X88568406Y-95123080D01*
X88576324Y-95130369D01*
X88580767Y-95134632D01*
X97612937Y-104166803D01*
X97651500Y-104233596D01*
X97651500Y-104310724D01*
X97612936Y-104377519D01*
X97546141Y-104416083D01*
X97507510Y-104421160D01*
X50771929Y-104400179D01*
X50697438Y-104380183D01*
X50664553Y-104354412D01*
X50623749Y-104311944D01*
X50603036Y-104284717D01*
X50562004Y-104215532D01*
X50548046Y-104184298D01*
X50523877Y-104107582D01*
X50517411Y-104073990D01*
X50511844Y-104000000D01*
X50510926Y-103987793D01*
X50510507Y-103976703D01*
X50510505Y-103969512D01*
X50510624Y-103963522D01*
X50511311Y-103946344D01*
X50512734Y-103910772D01*
X50512733Y-103910769D01*
X50512919Y-103906131D01*
X50510472Y-103884213D01*
X50508990Y-99960000D01*
X52564543Y-99960000D01*
X52585130Y-100195320D01*
X52646269Y-100423491D01*
X52746099Y-100637577D01*
X52804773Y-100721372D01*
X53356926Y-100169218D01*
X53395601Y-100262588D01*
X53491775Y-100387925D01*
X53617112Y-100484099D01*
X53710479Y-100522772D01*
X53158325Y-101074926D01*
X53242121Y-101133600D01*
X53456208Y-101233430D01*
X53684379Y-101294569D01*
X53919699Y-101315156D01*
X54155020Y-101294569D01*
X54383190Y-101233431D01*
X54597281Y-101133598D01*
X54681073Y-101074926D01*
X54128920Y-100522773D01*
X54222288Y-100484099D01*
X54347625Y-100387925D01*
X54443799Y-100262589D01*
X54482473Y-100169219D01*
X55034626Y-100721372D01*
X55093298Y-100637581D01*
X55193131Y-100423490D01*
X55254269Y-100195320D01*
X55274856Y-99960000D01*
X57644041Y-99960000D01*
X57664636Y-100195407D01*
X57725797Y-100423663D01*
X57808024Y-100600000D01*
X57825665Y-100637830D01*
X57961205Y-100831401D01*
X58128299Y-100998495D01*
X58321870Y-101134035D01*
X58536037Y-101233903D01*
X58764292Y-101295063D01*
X58999700Y-101315659D01*
X59235108Y-101295063D01*
X59314941Y-101273672D01*
X59392064Y-101273672D01*
X59458859Y-101312235D01*
X61142235Y-102995611D01*
X61155623Y-103012322D01*
X61159253Y-103015731D01*
X61159254Y-103015732D01*
X61180287Y-103035483D01*
X61208456Y-103061936D01*
X61211817Y-103065193D01*
X61231255Y-103084631D01*
X61234960Y-103087505D01*
X61238466Y-103090596D01*
X61237999Y-103090210D01*
X61244241Y-103095541D01*
X61275565Y-103124956D01*
X61291636Y-103133791D01*
X61311183Y-103146630D01*
X61325685Y-103157879D01*
X61365125Y-103174946D01*
X61377731Y-103181122D01*
X61415379Y-103201819D01*
X61415381Y-103201819D01*
X61415382Y-103201820D01*
X61433155Y-103206383D01*
X61455271Y-103213954D01*
X61468704Y-103219768D01*
X61472119Y-103221246D01*
X61514558Y-103227968D01*
X61528303Y-103230813D01*
X61569923Y-103241500D01*
X61588272Y-103241500D01*
X61611579Y-103243334D01*
X61613853Y-103243694D01*
X61629707Y-103246205D01*
X61669621Y-103242432D01*
X61672490Y-103242161D01*
X61686511Y-103241500D01*
X77690223Y-103241500D01*
X80058572Y-103241500D01*
X80081879Y-103243334D01*
X80084153Y-103243694D01*
X80100007Y-103246205D01*
X80139921Y-103242432D01*
X80142790Y-103242161D01*
X80156811Y-103241500D01*
X89353833Y-103241500D01*
X89375128Y-103243850D01*
X89380097Y-103243693D01*
X89380098Y-103243694D01*
X89447555Y-103241573D01*
X89452235Y-103241500D01*
X89475038Y-103241500D01*
X89479730Y-103241500D01*
X89484388Y-103240911D01*
X89489048Y-103240618D01*
X89488391Y-103240680D01*
X89496623Y-103240032D01*
X89534553Y-103238839D01*
X89539574Y-103238682D01*
X89557194Y-103233562D01*
X89580089Y-103228822D01*
X89586849Y-103227968D01*
X89598296Y-103226522D01*
X89638261Y-103210697D01*
X89651524Y-103206156D01*
X89692792Y-103194168D01*
X89708583Y-103184828D01*
X89729585Y-103174540D01*
X89730178Y-103174305D01*
X89746645Y-103167786D01*
X89781407Y-103142528D01*
X89793127Y-103134829D01*
X89830127Y-103112949D01*
X89843108Y-103099966D01*
X89860881Y-103084787D01*
X89875727Y-103074002D01*
X89903121Y-103040887D01*
X89912546Y-103030528D01*
X91567382Y-101375692D01*
X91603494Y-101349121D01*
X91622240Y-101339283D01*
X91740483Y-101234530D01*
X91830220Y-101104523D01*
X91845959Y-101063024D01*
X91886236Y-100956821D01*
X91886236Y-100956820D01*
X91886237Y-100956818D01*
X91905278Y-100800000D01*
X91886237Y-100643182D01*
X91886236Y-100643180D01*
X91886236Y-100643178D01*
X91830221Y-100495478D01*
X91783592Y-100427925D01*
X91740483Y-100365470D01*
X91622240Y-100260717D01*
X91622238Y-100260716D01*
X91622237Y-100260715D01*
X91482367Y-100187304D01*
X91357917Y-100156631D01*
X91328985Y-100149500D01*
X91171015Y-100149500D01*
X91142083Y-100156631D01*
X91017632Y-100187304D01*
X90877762Y-100260715D01*
X90759516Y-100365471D01*
X90696041Y-100457430D01*
X90678776Y-100478146D01*
X89222065Y-101934859D01*
X89155270Y-101973423D01*
X89116706Y-101978500D01*
X80443294Y-101978500D01*
X80368794Y-101958538D01*
X80337935Y-101934859D01*
X78403076Y-100000000D01*
X79794784Y-100000000D01*
X79813602Y-100203080D01*
X79869418Y-100399252D01*
X79931585Y-100524099D01*
X79960327Y-100581821D01*
X79974055Y-100600000D01*
X80083235Y-100744579D01*
X80144030Y-100800000D01*
X80233959Y-100881981D01*
X80407363Y-100989348D01*
X80597544Y-101063024D01*
X80798024Y-101100500D01*
X81001976Y-101100500D01*
X81202456Y-101063024D01*
X81392637Y-100989348D01*
X81566041Y-100881981D01*
X81716764Y-100744579D01*
X81839673Y-100581821D01*
X81930582Y-100399250D01*
X81986397Y-100203083D01*
X82005215Y-100000000D01*
X81986397Y-99796917D01*
X81930582Y-99600750D01*
X81924752Y-99589042D01*
X81839673Y-99418180D01*
X81839673Y-99418179D01*
X81737155Y-99282423D01*
X81716764Y-99255420D01*
X81629883Y-99176218D01*
X81566041Y-99118019D01*
X81518526Y-99088599D01*
X81392641Y-99010654D01*
X81392638Y-99010653D01*
X81392637Y-99010652D01*
X81202456Y-98936976D01*
X81202453Y-98936975D01*
X81202452Y-98936975D01*
X81001976Y-98899500D01*
X80798024Y-98899500D01*
X80597547Y-98936975D01*
X80407358Y-99010654D01*
X80233961Y-99118017D01*
X80083235Y-99255420D01*
X79960326Y-99418180D01*
X79869418Y-99600747D01*
X79813602Y-99796919D01*
X79794784Y-100000000D01*
X78403076Y-100000000D01*
X77725141Y-99322065D01*
X77686577Y-99255270D01*
X77681500Y-99216706D01*
X77681500Y-97459999D01*
X79794784Y-97459999D01*
X79813602Y-97663080D01*
X79869418Y-97859252D01*
X79926775Y-97974440D01*
X79960327Y-98041821D01*
X79962373Y-98044530D01*
X80083235Y-98204579D01*
X80103108Y-98222695D01*
X80233959Y-98341981D01*
X80407363Y-98449348D01*
X80597544Y-98523024D01*
X80798024Y-98560500D01*
X81001976Y-98560500D01*
X81202456Y-98523024D01*
X81392637Y-98449348D01*
X81566041Y-98341981D01*
X81716764Y-98204579D01*
X81839673Y-98041821D01*
X81930582Y-97859250D01*
X81986397Y-97663083D01*
X82005215Y-97460000D01*
X81986397Y-97256917D01*
X81930582Y-97060750D01*
X81921376Y-97042262D01*
X81839673Y-96878180D01*
X81839673Y-96878179D01*
X81778218Y-96796800D01*
X81716764Y-96715420D01*
X81629883Y-96636218D01*
X81566041Y-96578019D01*
X81480409Y-96524998D01*
X81392641Y-96470654D01*
X81392638Y-96470653D01*
X81392637Y-96470652D01*
X81202456Y-96396976D01*
X81202453Y-96396975D01*
X81202452Y-96396975D01*
X81001976Y-96359500D01*
X80798024Y-96359500D01*
X80597547Y-96396975D01*
X80597544Y-96396975D01*
X80597544Y-96396976D01*
X80414973Y-96467704D01*
X80407358Y-96470654D01*
X80233961Y-96578017D01*
X80083235Y-96715420D01*
X79960326Y-96878180D01*
X79869418Y-97060747D01*
X79813602Y-97256919D01*
X79794784Y-97459999D01*
X77681500Y-97459999D01*
X77681500Y-94919999D01*
X79794784Y-94919999D01*
X79813602Y-95123080D01*
X79869418Y-95319252D01*
X79960326Y-95501819D01*
X79960327Y-95501821D01*
X80001856Y-95556814D01*
X80083235Y-95664579D01*
X80162437Y-95736780D01*
X80233959Y-95801981D01*
X80407363Y-95909348D01*
X80597544Y-95983024D01*
X80798024Y-96020500D01*
X81001976Y-96020500D01*
X81202456Y-95983024D01*
X81392637Y-95909348D01*
X81566041Y-95801981D01*
X81716764Y-95664579D01*
X81839673Y-95501821D01*
X81930582Y-95319250D01*
X81986397Y-95123083D01*
X82005215Y-94920000D01*
X81986397Y-94716917D01*
X81930582Y-94520750D01*
X81920455Y-94500413D01*
X81855077Y-94369115D01*
X81839673Y-94338179D01*
X81778218Y-94256800D01*
X81716764Y-94175420D01*
X81581547Y-94052155D01*
X81566041Y-94038019D01*
X81566038Y-94038017D01*
X81392641Y-93930654D01*
X81392638Y-93930653D01*
X81392637Y-93930652D01*
X81202456Y-93856976D01*
X81202453Y-93856975D01*
X81202452Y-93856975D01*
X81001976Y-93819500D01*
X80798024Y-93819500D01*
X80597547Y-93856975D01*
X80597544Y-93856975D01*
X80597544Y-93856976D01*
X80421950Y-93925001D01*
X80407358Y-93930654D01*
X80233961Y-94038017D01*
X80083235Y-94175420D01*
X79960326Y-94338180D01*
X79869418Y-94520747D01*
X79813602Y-94716919D01*
X79794784Y-94919999D01*
X77681500Y-94919999D01*
X77681500Y-92379999D01*
X79794784Y-92379999D01*
X79813602Y-92583080D01*
X79869418Y-92779252D01*
X79957235Y-92955611D01*
X79960327Y-92961821D01*
X79961259Y-92963055D01*
X80083235Y-93124579D01*
X80132290Y-93169298D01*
X80233959Y-93261981D01*
X80407363Y-93369348D01*
X80597544Y-93443024D01*
X80798024Y-93480500D01*
X81001976Y-93480500D01*
X81202456Y-93443024D01*
X81392637Y-93369348D01*
X81566041Y-93261981D01*
X81716764Y-93124579D01*
X81839673Y-92961821D01*
X81930582Y-92779250D01*
X81986397Y-92583083D01*
X82005215Y-92380000D01*
X81986397Y-92176917D01*
X81930582Y-91980750D01*
X81929302Y-91978180D01*
X81839673Y-91798180D01*
X81839673Y-91798179D01*
X81778218Y-91716800D01*
X81716764Y-91635420D01*
X81629883Y-91556218D01*
X81566041Y-91498019D01*
X81566038Y-91498017D01*
X81392641Y-91390654D01*
X81392638Y-91390653D01*
X81392637Y-91390652D01*
X81202456Y-91316976D01*
X81202453Y-91316975D01*
X81202452Y-91316975D01*
X81001976Y-91279500D01*
X80798024Y-91279500D01*
X80597547Y-91316975D01*
X80407358Y-91390654D01*
X80233961Y-91498017D01*
X80083235Y-91635420D01*
X79960326Y-91798180D01*
X79869418Y-91980747D01*
X79813602Y-92176919D01*
X79794784Y-92379999D01*
X77681500Y-92379999D01*
X77681500Y-89840000D01*
X79794784Y-89840000D01*
X79813602Y-90043080D01*
X79869418Y-90239252D01*
X79960326Y-90421819D01*
X79960327Y-90421821D01*
X80001856Y-90476814D01*
X80083235Y-90584579D01*
X80162437Y-90656780D01*
X80233959Y-90721981D01*
X80407363Y-90829348D01*
X80597544Y-90903024D01*
X80798024Y-90940500D01*
X81001976Y-90940500D01*
X81202456Y-90903024D01*
X81392637Y-90829348D01*
X81566041Y-90721981D01*
X81716764Y-90584579D01*
X81839673Y-90421821D01*
X81930582Y-90239250D01*
X81986397Y-90043083D01*
X82005215Y-89840000D01*
X81986397Y-89636917D01*
X81930582Y-89440750D01*
X81910329Y-89400077D01*
X81839673Y-89258180D01*
X81839673Y-89258179D01*
X81764990Y-89159283D01*
X81716764Y-89095420D01*
X81610558Y-88998602D01*
X81566041Y-88958019D01*
X81540827Y-88942407D01*
X81392641Y-88850654D01*
X81392638Y-88850653D01*
X81392637Y-88850652D01*
X81202456Y-88776976D01*
X81202453Y-88776975D01*
X81202452Y-88776975D01*
X81001976Y-88739500D01*
X80798024Y-88739500D01*
X80597547Y-88776975D01*
X80597544Y-88776975D01*
X80597544Y-88776976D01*
X80422097Y-88844944D01*
X80407358Y-88850654D01*
X80233961Y-88958017D01*
X80083235Y-89095420D01*
X79960326Y-89258180D01*
X79869418Y-89440747D01*
X79813602Y-89636919D01*
X79794784Y-89840000D01*
X77681500Y-89840000D01*
X77681500Y-89496168D01*
X77683850Y-89474879D01*
X77682993Y-89447611D01*
X77681573Y-89402400D01*
X77681500Y-89397721D01*
X77681500Y-89374951D01*
X77681500Y-89374950D01*
X77681500Y-89370270D01*
X77680913Y-89365628D01*
X77680619Y-89360947D01*
X77680678Y-89361578D01*
X77680033Y-89353377D01*
X77678683Y-89310429D01*
X77678683Y-89310426D01*
X77673560Y-89292796D01*
X77668821Y-89269904D01*
X77666522Y-89251706D01*
X77666522Y-89251704D01*
X77650696Y-89211734D01*
X77646154Y-89198466D01*
X77645178Y-89195105D01*
X77634168Y-89157208D01*
X77624828Y-89141415D01*
X77614539Y-89120413D01*
X77607786Y-89103355D01*
X77582522Y-89068582D01*
X77574826Y-89056866D01*
X77552949Y-89019873D01*
X77539970Y-89006894D01*
X77524785Y-88989115D01*
X77514001Y-88974272D01*
X77480896Y-88946885D01*
X77470514Y-88937438D01*
X75833076Y-87300000D01*
X79795286Y-87300000D01*
X79814096Y-87502989D01*
X79869885Y-87699068D01*
X79960753Y-87881554D01*
X79962533Y-87883912D01*
X80416922Y-87429522D01*
X80440507Y-87509844D01*
X80518239Y-87630798D01*
X80626900Y-87724952D01*
X80757685Y-87784680D01*
X80767466Y-87786086D01*
X80319311Y-88234241D01*
X80407583Y-88288897D01*
X80597682Y-88362541D01*
X80798070Y-88400000D01*
X81001930Y-88400000D01*
X81202318Y-88362541D01*
X81392414Y-88288898D01*
X81480687Y-88234240D01*
X81032533Y-87786086D01*
X81042315Y-87784680D01*
X81173100Y-87724952D01*
X81281761Y-87630798D01*
X81359493Y-87509844D01*
X81383077Y-87429523D01*
X81837465Y-87883912D01*
X81839247Y-87881553D01*
X81930114Y-87699068D01*
X81985903Y-87502989D01*
X82004713Y-87300000D01*
X81985903Y-87097010D01*
X81930114Y-86900931D01*
X81839245Y-86718442D01*
X81837466Y-86716085D01*
X81383076Y-87170475D01*
X81359493Y-87090156D01*
X81281761Y-86969202D01*
X81173100Y-86875048D01*
X81042315Y-86815320D01*
X81032531Y-86813913D01*
X81480687Y-86365758D01*
X81392412Y-86311100D01*
X81202317Y-86237458D01*
X81001930Y-86200000D01*
X80798070Y-86200000D01*
X80597682Y-86237458D01*
X80407584Y-86311102D01*
X80319310Y-86365757D01*
X80767466Y-86813913D01*
X80757685Y-86815320D01*
X80626900Y-86875048D01*
X80518239Y-86969202D01*
X80440507Y-87090156D01*
X80416923Y-87170476D01*
X79962532Y-86716085D01*
X79960754Y-86718442D01*
X79869885Y-86900931D01*
X79814096Y-87097010D01*
X79795286Y-87300000D01*
X75833076Y-87300000D01*
X74401223Y-85868147D01*
X74383957Y-85847429D01*
X74366566Y-85822234D01*
X74357479Y-85809069D01*
X74320484Y-85755471D01*
X74314419Y-85750098D01*
X74202240Y-85650717D01*
X74202238Y-85650716D01*
X74202237Y-85650715D01*
X74062367Y-85577304D01*
X73993484Y-85560326D01*
X73956335Y-85551170D01*
X73888778Y-85513960D01*
X73848876Y-85447955D01*
X73847322Y-85370843D01*
X73884533Y-85303285D01*
X73950538Y-85263383D01*
X73991993Y-85257500D01*
X75945395Y-85257500D01*
X75975971Y-85260671D01*
X75984184Y-85262393D01*
X76011390Y-85259001D01*
X76014262Y-85258644D01*
X76030445Y-85257639D01*
X76031278Y-85257500D01*
X76031281Y-85257500D01*
X76051413Y-85254140D01*
X76057451Y-85253260D01*
X76109203Y-85246810D01*
X76109202Y-85246810D01*
X76117187Y-85245815D01*
X76124266Y-85241983D01*
X76124269Y-85241983D01*
X76170150Y-85217152D01*
X76175517Y-85214389D01*
X76222389Y-85191476D01*
X76222390Y-85191474D01*
X76229619Y-85187941D01*
X76235068Y-85182021D01*
X76235071Y-85182020D01*
X76270394Y-85143647D01*
X76274611Y-85139252D01*
X76653864Y-84759999D01*
X79794784Y-84759999D01*
X79813602Y-84963080D01*
X79869418Y-85159252D01*
X79941138Y-85303285D01*
X79960327Y-85341821D01*
X80001856Y-85396814D01*
X80083235Y-85504579D01*
X80134345Y-85551171D01*
X80233959Y-85641981D01*
X80407363Y-85749348D01*
X80597544Y-85823024D01*
X80798024Y-85860500D01*
X81001976Y-85860500D01*
X81202456Y-85823024D01*
X81392637Y-85749348D01*
X81566041Y-85641981D01*
X81716764Y-85504579D01*
X81839673Y-85341821D01*
X81930582Y-85159250D01*
X81986397Y-84963083D01*
X82005215Y-84760000D01*
X81986397Y-84556917D01*
X81930582Y-84360750D01*
X81839673Y-84178179D01*
X81763716Y-84077595D01*
X81716764Y-84015420D01*
X81629883Y-83936218D01*
X81566041Y-83878019D01*
X81566038Y-83878017D01*
X81392641Y-83770654D01*
X81392638Y-83770653D01*
X81392637Y-83770652D01*
X81202456Y-83696976D01*
X81202453Y-83696975D01*
X81202452Y-83696975D01*
X81001976Y-83659500D01*
X80798024Y-83659500D01*
X80597547Y-83696975D01*
X80597544Y-83696975D01*
X80597544Y-83696976D01*
X80545368Y-83717189D01*
X80407358Y-83770654D01*
X80233961Y-83878017D01*
X80083235Y-84015420D01*
X79960326Y-84178180D01*
X79869418Y-84360747D01*
X79813602Y-84556919D01*
X79794784Y-84759999D01*
X76653864Y-84759999D01*
X78772724Y-82641141D01*
X78839520Y-82602577D01*
X78878084Y-82597500D01*
X79766331Y-82597500D01*
X79840831Y-82617462D01*
X79895369Y-82672000D01*
X79899710Y-82680085D01*
X79960327Y-82801821D01*
X80001856Y-82856814D01*
X80083235Y-82964579D01*
X80162437Y-83036780D01*
X80233959Y-83101981D01*
X80407363Y-83209348D01*
X80597544Y-83283024D01*
X80798024Y-83320500D01*
X81001976Y-83320500D01*
X81202456Y-83283024D01*
X81392637Y-83209348D01*
X81566041Y-83101981D01*
X81716764Y-82964579D01*
X81839673Y-82801821D01*
X81930582Y-82619250D01*
X81986397Y-82423083D01*
X82005215Y-82220000D01*
X81986397Y-82016917D01*
X81930582Y-81820750D01*
X81839673Y-81638179D01*
X81778218Y-81556800D01*
X81716764Y-81475420D01*
X81629883Y-81396218D01*
X81566041Y-81338019D01*
X81566038Y-81338017D01*
X81392641Y-81230654D01*
X81392638Y-81230653D01*
X81392637Y-81230652D01*
X81202456Y-81156976D01*
X81202453Y-81156975D01*
X81202452Y-81156975D01*
X81001976Y-81119500D01*
X80798024Y-81119500D01*
X80597547Y-81156975D01*
X80407358Y-81230654D01*
X80233961Y-81338017D01*
X80083235Y-81475420D01*
X79960326Y-81638180D01*
X79899710Y-81759915D01*
X79848634Y-81817707D01*
X79775504Y-81842217D01*
X79766331Y-81842500D01*
X78714605Y-81842500D01*
X78684030Y-81839329D01*
X78675816Y-81837606D01*
X78645739Y-81841356D01*
X78629551Y-81842360D01*
X78608616Y-81845854D01*
X78602526Y-81846741D01*
X78542810Y-81854185D01*
X78489890Y-81882824D01*
X78484428Y-81885635D01*
X78445867Y-81904487D01*
X78430378Y-81912060D01*
X78389627Y-81956326D01*
X78385366Y-81960767D01*
X75887275Y-84458859D01*
X75820480Y-84497423D01*
X75781916Y-84502500D01*
X70838049Y-84502500D01*
X70763549Y-84482538D01*
X70735081Y-84456275D01*
X70734025Y-84457468D01*
X70720484Y-84445472D01*
X70720483Y-84445470D01*
X70602240Y-84340717D01*
X70602238Y-84340716D01*
X70602237Y-84340715D01*
X70462367Y-84267304D01*
X70360111Y-84242101D01*
X70308985Y-84229500D01*
X70151015Y-84229500D01*
X70112670Y-84238951D01*
X69997632Y-84267304D01*
X69857762Y-84340715D01*
X69835147Y-84360750D01*
X69746980Y-84438859D01*
X69739515Y-84445472D01*
X69649778Y-84575478D01*
X69593763Y-84723178D01*
X69574722Y-84880000D01*
X69593763Y-85036821D01*
X69649778Y-85184521D01*
X69713931Y-85277462D01*
X69739517Y-85314530D01*
X69857760Y-85419283D01*
X69857762Y-85419284D01*
X69997632Y-85492695D01*
X69997634Y-85492695D01*
X69997635Y-85492696D01*
X70151015Y-85530500D01*
X70151016Y-85530500D01*
X70308984Y-85530500D01*
X70308985Y-85530500D01*
X70462365Y-85492696D01*
X70602240Y-85419283D01*
X70720483Y-85314530D01*
X70720484Y-85314527D01*
X70734025Y-85302532D01*
X70735795Y-85304530D01*
X70774174Y-85271886D01*
X70838049Y-85257500D01*
X73668007Y-85257500D01*
X73742507Y-85277462D01*
X73797045Y-85332000D01*
X73817007Y-85406500D01*
X73797045Y-85481000D01*
X73742507Y-85535538D01*
X73703665Y-85551170D01*
X73675623Y-85558082D01*
X73597632Y-85577304D01*
X73457762Y-85650715D01*
X73457759Y-85650717D01*
X73457760Y-85650717D01*
X73346428Y-85749348D01*
X73339515Y-85755472D01*
X73249778Y-85885478D01*
X73193763Y-86033178D01*
X73174722Y-86190000D01*
X73193763Y-86346821D01*
X73249778Y-86494521D01*
X73330318Y-86611202D01*
X73339517Y-86624530D01*
X73457760Y-86729283D01*
X73476504Y-86739121D01*
X73512617Y-86765693D01*
X76374859Y-89627935D01*
X76413423Y-89694730D01*
X76418500Y-89733294D01*
X76418500Y-99453833D01*
X76416149Y-99475128D01*
X76418426Y-99547552D01*
X76418500Y-99552234D01*
X76418500Y-99579730D01*
X76419086Y-99584374D01*
X76419380Y-99589042D01*
X76419329Y-99588508D01*
X76419967Y-99596623D01*
X76421317Y-99639574D01*
X76426436Y-99657195D01*
X76431175Y-99680077D01*
X76433477Y-99698293D01*
X76449298Y-99738254D01*
X76453843Y-99751529D01*
X76465832Y-99792792D01*
X76475168Y-99808578D01*
X76485455Y-99829574D01*
X76492214Y-99846645D01*
X76517469Y-99881406D01*
X76525176Y-99893138D01*
X76547051Y-99930127D01*
X76560029Y-99943105D01*
X76575211Y-99960881D01*
X76585997Y-99975726D01*
X76619096Y-100003108D01*
X76629479Y-100012555D01*
X78341065Y-101724141D01*
X78379629Y-101790936D01*
X78379629Y-101868064D01*
X78341065Y-101934859D01*
X78274270Y-101973423D01*
X78235706Y-101978500D01*
X61972994Y-101978500D01*
X61898494Y-101958538D01*
X61867635Y-101934859D01*
X60351936Y-100419160D01*
X60313372Y-100352365D01*
X60313372Y-100275240D01*
X60334763Y-100195408D01*
X60355359Y-99960000D01*
X60355359Y-99959999D01*
X62724041Y-99959999D01*
X62744636Y-100195407D01*
X62805797Y-100423663D01*
X62888024Y-100600000D01*
X62905665Y-100637830D01*
X63041205Y-100831401D01*
X63208299Y-100998495D01*
X63401870Y-101134035D01*
X63616037Y-101233903D01*
X63844292Y-101295063D01*
X64079700Y-101315659D01*
X64315108Y-101295063D01*
X64543363Y-101233903D01*
X64757530Y-101134035D01*
X64951101Y-100998495D01*
X65118195Y-100831401D01*
X65253735Y-100637830D01*
X65353603Y-100423663D01*
X65414763Y-100195408D01*
X65435359Y-99960000D01*
X65435359Y-99959999D01*
X67804041Y-99959999D01*
X67824636Y-100195407D01*
X67885797Y-100423663D01*
X67968024Y-100600000D01*
X67985665Y-100637830D01*
X68121205Y-100831401D01*
X68288299Y-100998495D01*
X68481870Y-101134035D01*
X68696037Y-101233903D01*
X68924292Y-101295063D01*
X69159700Y-101315659D01*
X69395108Y-101295063D01*
X69623363Y-101233903D01*
X69837530Y-101134035D01*
X70031101Y-100998495D01*
X70198195Y-100831401D01*
X70333735Y-100637830D01*
X70433603Y-100423663D01*
X70494763Y-100195408D01*
X70515359Y-99960000D01*
X70515359Y-99959999D01*
X72884041Y-99959999D01*
X72904636Y-100195407D01*
X72965797Y-100423663D01*
X73048024Y-100600000D01*
X73065665Y-100637830D01*
X73201205Y-100831401D01*
X73368299Y-100998495D01*
X73561870Y-101134035D01*
X73776037Y-101233903D01*
X74004292Y-101295063D01*
X74239700Y-101315659D01*
X74475108Y-101295063D01*
X74703363Y-101233903D01*
X74917530Y-101134035D01*
X75111101Y-100998495D01*
X75278195Y-100831401D01*
X75413735Y-100637830D01*
X75513603Y-100423663D01*
X75574763Y-100195408D01*
X75595359Y-99960000D01*
X75574763Y-99724592D01*
X75513603Y-99496337D01*
X75413735Y-99282171D01*
X75278195Y-99088599D01*
X75111101Y-98921505D01*
X74917530Y-98785965D01*
X74703363Y-98686097D01*
X74667386Y-98676457D01*
X74475107Y-98624936D01*
X74260294Y-98606142D01*
X74239700Y-98604341D01*
X74239699Y-98604341D01*
X74004292Y-98624936D01*
X73776036Y-98686097D01*
X73561872Y-98785964D01*
X73368298Y-98921505D01*
X73201205Y-99088598D01*
X73065664Y-99282172D01*
X72965797Y-99496336D01*
X72904636Y-99724592D01*
X72884041Y-99959999D01*
X70515359Y-99959999D01*
X70494763Y-99724592D01*
X70433603Y-99496337D01*
X70333735Y-99282171D01*
X70198195Y-99088599D01*
X70031101Y-98921505D01*
X69837530Y-98785965D01*
X69623363Y-98686097D01*
X69587386Y-98676457D01*
X69395107Y-98624936D01*
X69180294Y-98606142D01*
X69159700Y-98604341D01*
X69159699Y-98604341D01*
X68924292Y-98624936D01*
X68696036Y-98686097D01*
X68481872Y-98785964D01*
X68288298Y-98921505D01*
X68121205Y-99088598D01*
X67985664Y-99282172D01*
X67885797Y-99496336D01*
X67824636Y-99724592D01*
X67804041Y-99959999D01*
X65435359Y-99959999D01*
X65414763Y-99724592D01*
X65353603Y-99496337D01*
X65253735Y-99282171D01*
X65118195Y-99088599D01*
X64951101Y-98921505D01*
X64831861Y-98838012D01*
X64757528Y-98785963D01*
X64543229Y-98686034D01*
X64484145Y-98636457D01*
X64457766Y-98563980D01*
X64457199Y-98550994D01*
X64457199Y-93651915D01*
X64457199Y-88678379D01*
X64477161Y-88603883D01*
X64500836Y-88573028D01*
X73393866Y-79679999D01*
X79794784Y-79679999D01*
X79813602Y-79883080D01*
X79869418Y-80079252D01*
X79939047Y-80219085D01*
X79960327Y-80261821D01*
X80001856Y-80316814D01*
X80083235Y-80424579D01*
X80129947Y-80467162D01*
X80233959Y-80561981D01*
X80407363Y-80669348D01*
X80597544Y-80743024D01*
X80798024Y-80780500D01*
X81001976Y-80780500D01*
X81202456Y-80743024D01*
X81392637Y-80669348D01*
X81566041Y-80561981D01*
X81716764Y-80424579D01*
X81839673Y-80261821D01*
X81930582Y-80079250D01*
X81986397Y-79883083D01*
X82005215Y-79680000D01*
X81986397Y-79476917D01*
X81930582Y-79280750D01*
X81839673Y-79098179D01*
X81753698Y-78984329D01*
X81716764Y-78935420D01*
X81613820Y-78841575D01*
X81566041Y-78798019D01*
X81507891Y-78762014D01*
X81392641Y-78690654D01*
X81392638Y-78690653D01*
X81392637Y-78690652D01*
X81202456Y-78616976D01*
X81202453Y-78616975D01*
X81202452Y-78616975D01*
X81001976Y-78579500D01*
X80798024Y-78579500D01*
X80597547Y-78616975D01*
X80597544Y-78616975D01*
X80597544Y-78616976D01*
X80407363Y-78690652D01*
X80407358Y-78690654D01*
X80233961Y-78798017D01*
X80083235Y-78935420D01*
X79960326Y-79098180D01*
X79869418Y-79280747D01*
X79813602Y-79476919D01*
X79794784Y-79679999D01*
X73393866Y-79679999D01*
X78052724Y-75021141D01*
X78119520Y-74982577D01*
X78158084Y-74977500D01*
X79766331Y-74977500D01*
X79840831Y-74997462D01*
X79895369Y-75052000D01*
X79899710Y-75060085D01*
X79960327Y-75181821D01*
X79995155Y-75227941D01*
X80083235Y-75344579D01*
X80162437Y-75416780D01*
X80233959Y-75481981D01*
X80325118Y-75538424D01*
X80384490Y-75575186D01*
X80407363Y-75589348D01*
X80597544Y-75663024D01*
X80798024Y-75700500D01*
X81001976Y-75700500D01*
X81202456Y-75663024D01*
X81392637Y-75589348D01*
X81566041Y-75481981D01*
X81716764Y-75344579D01*
X81839673Y-75181821D01*
X81930582Y-74999250D01*
X81986397Y-74803083D01*
X82005215Y-74600000D01*
X82005215Y-74599999D01*
X102794784Y-74599999D01*
X102813602Y-74803080D01*
X102869418Y-74999252D01*
X102959036Y-75179228D01*
X102960327Y-75181821D01*
X102995155Y-75227941D01*
X103083235Y-75344579D01*
X103162437Y-75416780D01*
X103233959Y-75481981D01*
X103325118Y-75538424D01*
X103384490Y-75575186D01*
X103407363Y-75589348D01*
X103597544Y-75663024D01*
X103798024Y-75700500D01*
X104001976Y-75700500D01*
X104202456Y-75663024D01*
X104392637Y-75589348D01*
X104566041Y-75481981D01*
X104716764Y-75344579D01*
X104839673Y-75181821D01*
X104930582Y-74999250D01*
X104986397Y-74803083D01*
X105005215Y-74600000D01*
X104986397Y-74396917D01*
X104930582Y-74200750D01*
X104908422Y-74156247D01*
X104839673Y-74018180D01*
X104839673Y-74018179D01*
X104725029Y-73866365D01*
X104716764Y-73855420D01*
X104583603Y-73734029D01*
X104566041Y-73718019D01*
X104513476Y-73685472D01*
X104392641Y-73610654D01*
X104392638Y-73610653D01*
X104392637Y-73610652D01*
X104202456Y-73536976D01*
X104202453Y-73536975D01*
X104202452Y-73536975D01*
X104001976Y-73499500D01*
X103798024Y-73499500D01*
X103597547Y-73536975D01*
X103597544Y-73536975D01*
X103597544Y-73536976D01*
X103432802Y-73600797D01*
X103407358Y-73610654D01*
X103233961Y-73718017D01*
X103083235Y-73855420D01*
X102960326Y-74018180D01*
X102869418Y-74200747D01*
X102813602Y-74396919D01*
X102794784Y-74599999D01*
X82005215Y-74599999D01*
X81986397Y-74396917D01*
X81930582Y-74200750D01*
X81908422Y-74156247D01*
X81839673Y-74018180D01*
X81839673Y-74018179D01*
X81725029Y-73866365D01*
X81716764Y-73855420D01*
X81583603Y-73734029D01*
X81566041Y-73718019D01*
X81513476Y-73685472D01*
X81392641Y-73610654D01*
X81392638Y-73610653D01*
X81392637Y-73610652D01*
X81202456Y-73536976D01*
X81202453Y-73536975D01*
X81202452Y-73536975D01*
X81001976Y-73499500D01*
X80798024Y-73499500D01*
X80597547Y-73536975D01*
X80597544Y-73536975D01*
X80597544Y-73536976D01*
X80432802Y-73600797D01*
X80407358Y-73610654D01*
X80233961Y-73718017D01*
X80083235Y-73855420D01*
X79960326Y-74018180D01*
X79899710Y-74139915D01*
X79848634Y-74197707D01*
X79775504Y-74222217D01*
X79766331Y-74222500D01*
X77994605Y-74222500D01*
X77964030Y-74219329D01*
X77955816Y-74217606D01*
X77925739Y-74221356D01*
X77909551Y-74222360D01*
X77888616Y-74225854D01*
X77882526Y-74226741D01*
X77822810Y-74234185D01*
X77769890Y-74262824D01*
X77764428Y-74265635D01*
X77725867Y-74284487D01*
X77710378Y-74292060D01*
X77669627Y-74336326D01*
X77665366Y-74340767D01*
X63851374Y-88154758D01*
X63827518Y-88174132D01*
X63820490Y-88178724D01*
X63801870Y-88202646D01*
X63791138Y-88214800D01*
X63778791Y-88232092D01*
X63775114Y-88237022D01*
X63738164Y-88284496D01*
X63721002Y-88342142D01*
X63719124Y-88348004D01*
X63699586Y-88404917D01*
X63702072Y-88465035D01*
X63702199Y-88471190D01*
X63702199Y-98550994D01*
X63682237Y-98625494D01*
X63627699Y-98680032D01*
X63616170Y-98686033D01*
X63401874Y-98785962D01*
X63208298Y-98921505D01*
X63041205Y-99088598D01*
X62905664Y-99282172D01*
X62805797Y-99496336D01*
X62744636Y-99724592D01*
X62724041Y-99959999D01*
X60355359Y-99959999D01*
X60334763Y-99724592D01*
X60273603Y-99496337D01*
X60173735Y-99282171D01*
X60038195Y-99088599D01*
X59871101Y-98921505D01*
X59677530Y-98785965D01*
X59463363Y-98686097D01*
X59427386Y-98676457D01*
X59235107Y-98624936D01*
X59020294Y-98606142D01*
X58999700Y-98604341D01*
X58999699Y-98604341D01*
X58764292Y-98624936D01*
X58536036Y-98686097D01*
X58321872Y-98785964D01*
X58128298Y-98921505D01*
X57961205Y-99088598D01*
X57825664Y-99282172D01*
X57725797Y-99496336D01*
X57664636Y-99724592D01*
X57644041Y-99960000D01*
X55274856Y-99960000D01*
X55254269Y-99724679D01*
X55193131Y-99496509D01*
X55093300Y-99282423D01*
X55034625Y-99198626D01*
X54482472Y-99750779D01*
X54443799Y-99657412D01*
X54347625Y-99532075D01*
X54222288Y-99435901D01*
X54128918Y-99397226D01*
X54681072Y-98845073D01*
X54597277Y-98786399D01*
X54383191Y-98686569D01*
X54155020Y-98625430D01*
X53919699Y-98604843D01*
X53684379Y-98625430D01*
X53456209Y-98686568D01*
X53242121Y-98786400D01*
X53158326Y-98845073D01*
X53710479Y-99397226D01*
X53617112Y-99435901D01*
X53491775Y-99532075D01*
X53395601Y-99657411D01*
X53356926Y-99750779D01*
X52804773Y-99198626D01*
X52746100Y-99282421D01*
X52646268Y-99496509D01*
X52585130Y-99724679D01*
X52564543Y-99960000D01*
X50508990Y-99960000D01*
X50500511Y-77500000D01*
X51244680Y-77500000D01*
X51244871Y-77503766D01*
X51263755Y-77876144D01*
X51263756Y-77876154D01*
X51263947Y-77879919D01*
X51264518Y-77883648D01*
X51264519Y-77883655D01*
X51320981Y-78252218D01*
X51320984Y-78252233D01*
X51321552Y-78255940D01*
X51322495Y-78259582D01*
X51415030Y-78616976D01*
X51416902Y-78624204D01*
X51418213Y-78627743D01*
X51418214Y-78627747D01*
X51547703Y-78977379D01*
X51549019Y-78980932D01*
X51550682Y-78984323D01*
X51550685Y-78984329D01*
X51714888Y-79319079D01*
X51714892Y-79319087D01*
X51716549Y-79322464D01*
X51917771Y-79645295D01*
X51920074Y-79648271D01*
X51920076Y-79648273D01*
X52123101Y-79910561D01*
X52150620Y-79946112D01*
X52412709Y-80221829D01*
X52701346Y-80469616D01*
X53013571Y-80686931D01*
X53346179Y-80871543D01*
X53695758Y-81021559D01*
X54058720Y-81135439D01*
X54431340Y-81212015D01*
X54809796Y-81250500D01*
X54813570Y-81250500D01*
X55186430Y-81250500D01*
X55190204Y-81250500D01*
X55568660Y-81212015D01*
X55941280Y-81135439D01*
X56304242Y-81021559D01*
X56653821Y-80871543D01*
X56986429Y-80686931D01*
X57298654Y-80469616D01*
X57587291Y-80221829D01*
X57849380Y-79946112D01*
X58082229Y-79645295D01*
X58283451Y-79322464D01*
X58450981Y-78980932D01*
X58583098Y-78624204D01*
X58678448Y-78255940D01*
X58736053Y-77879919D01*
X58755320Y-77500000D01*
X58736053Y-77120081D01*
X58678448Y-76744060D01*
X58583098Y-76375796D01*
X58450981Y-76019068D01*
X58283451Y-75677536D01*
X58082229Y-75354705D01*
X57849380Y-75053888D01*
X57587291Y-74778171D01*
X57298654Y-74530384D01*
X57295561Y-74528231D01*
X56989527Y-74315225D01*
X56989523Y-74315222D01*
X56986429Y-74313069D01*
X56983134Y-74311240D01*
X56983129Y-74311237D01*
X56657113Y-74130284D01*
X56657109Y-74130282D01*
X56653821Y-74128457D01*
X56650364Y-74126973D01*
X56650359Y-74126971D01*
X56307703Y-73979926D01*
X56307699Y-73979924D01*
X56304242Y-73978441D01*
X56255608Y-73963182D01*
X55944887Y-73865692D01*
X55944874Y-73865688D01*
X55941280Y-73864561D01*
X55937591Y-73863802D01*
X55937576Y-73863799D01*
X55572349Y-73788743D01*
X55572346Y-73788742D01*
X55568660Y-73787985D01*
X55564921Y-73787604D01*
X55564916Y-73787604D01*
X55193953Y-73749881D01*
X55193948Y-73749880D01*
X55190204Y-73749500D01*
X54809796Y-73749500D01*
X54806052Y-73749880D01*
X54806046Y-73749881D01*
X54435083Y-73787604D01*
X54435075Y-73787605D01*
X54431340Y-73787985D01*
X54427656Y-73788742D01*
X54427650Y-73788743D01*
X54062423Y-73863799D01*
X54062404Y-73863803D01*
X54058720Y-73864561D01*
X54055130Y-73865687D01*
X54055112Y-73865692D01*
X53699352Y-73977313D01*
X53699345Y-73977315D01*
X53695758Y-73978441D01*
X53692307Y-73979921D01*
X53692296Y-73979926D01*
X53349640Y-74126971D01*
X53349627Y-74126977D01*
X53346179Y-74128457D01*
X53342897Y-74130278D01*
X53342886Y-74130284D01*
X53016870Y-74311237D01*
X53016856Y-74311245D01*
X53013571Y-74313069D01*
X53010485Y-74315216D01*
X53010472Y-74315225D01*
X52704438Y-74528231D01*
X52704426Y-74528239D01*
X52701346Y-74530384D01*
X52698494Y-74532832D01*
X52698488Y-74532837D01*
X52415576Y-74775709D01*
X52415567Y-74775716D01*
X52412709Y-74778171D01*
X52410107Y-74780908D01*
X52410101Y-74780914D01*
X52153220Y-75051152D01*
X52153212Y-75051160D01*
X52150620Y-75053888D01*
X52148324Y-75056854D01*
X52148313Y-75056867D01*
X51920076Y-75351726D01*
X51920067Y-75351737D01*
X51917771Y-75354705D01*
X51915783Y-75357893D01*
X51915777Y-75357903D01*
X51718543Y-75674336D01*
X51718538Y-75674344D01*
X51716549Y-75677536D01*
X51714897Y-75680903D01*
X51714888Y-75680920D01*
X51550685Y-76015670D01*
X51550679Y-76015683D01*
X51549019Y-76019068D01*
X51547706Y-76022611D01*
X51547703Y-76022620D01*
X51418214Y-76372252D01*
X51418210Y-76372261D01*
X51416902Y-76375796D01*
X51415958Y-76379440D01*
X51415956Y-76379448D01*
X51326441Y-76725177D01*
X51321552Y-76744060D01*
X51320984Y-76747762D01*
X51320981Y-76747781D01*
X51264519Y-77116344D01*
X51263947Y-77120081D01*
X51263756Y-77123843D01*
X51263755Y-77123855D01*
X51257358Y-77249999D01*
X51244680Y-77500000D01*
X50500511Y-77500000D01*
X50492099Y-55218750D01*
X52576322Y-55218750D01*
X52595987Y-55430966D01*
X52654311Y-55635953D01*
X52749312Y-55826742D01*
X52758085Y-55838359D01*
X53248172Y-55348272D01*
X53271757Y-55428594D01*
X53349489Y-55549548D01*
X53458150Y-55643702D01*
X53588935Y-55703430D01*
X53598716Y-55704836D01*
X53114242Y-56189310D01*
X53216458Y-56252599D01*
X53415187Y-56329587D01*
X53624687Y-56368750D01*
X53837813Y-56368750D01*
X54047312Y-56329587D01*
X54246043Y-56252599D01*
X54348256Y-56189311D01*
X53863783Y-55704836D01*
X53873565Y-55703430D01*
X54004350Y-55643702D01*
X54113011Y-55549548D01*
X54190743Y-55428594D01*
X54214327Y-55348273D01*
X54704413Y-55838359D01*
X54713188Y-55826741D01*
X54808188Y-55635953D01*
X54857677Y-55462015D01*
X54897264Y-55395822D01*
X54964645Y-55358291D01*
X55041764Y-55359478D01*
X55107957Y-55399065D01*
X55144301Y-55462014D01*
X55193845Y-55636140D01*
X55288883Y-55827004D01*
X55422404Y-56003813D01*
X55451371Y-56075295D01*
X55452500Y-56093606D01*
X55452500Y-69305395D01*
X55449329Y-69335970D01*
X55447606Y-69344183D01*
X55451356Y-69374261D01*
X55452360Y-69390441D01*
X55455853Y-69411375D01*
X55456739Y-69417463D01*
X55464185Y-69477189D01*
X55492821Y-69530105D01*
X55495638Y-69535578D01*
X55522058Y-69589619D01*
X55566324Y-69630369D01*
X55570768Y-69634633D01*
X59758859Y-73822724D01*
X59797423Y-73889519D01*
X59802500Y-73928083D01*
X59802499Y-83545394D01*
X59799329Y-83575966D01*
X59797606Y-83584182D01*
X59801356Y-83614269D01*
X59802362Y-83630451D01*
X59805853Y-83651376D01*
X59806739Y-83657462D01*
X59814185Y-83717189D01*
X59842821Y-83770105D01*
X59845638Y-83775578D01*
X59872058Y-83829619D01*
X59877979Y-83835070D01*
X59877980Y-83835071D01*
X59916324Y-83870369D01*
X59920768Y-83874633D01*
X61134458Y-85088324D01*
X61153836Y-85112187D01*
X61158424Y-85119209D01*
X61182338Y-85137822D01*
X61194501Y-85148564D01*
X61211780Y-85160900D01*
X61216718Y-85164582D01*
X61264194Y-85201534D01*
X61271909Y-85203831D01*
X61271911Y-85203832D01*
X61321861Y-85218702D01*
X61327703Y-85220573D01*
X61377006Y-85237500D01*
X61377007Y-85237500D01*
X61384618Y-85240113D01*
X61392658Y-85239780D01*
X61392660Y-85239781D01*
X61444733Y-85237627D01*
X61450891Y-85237500D01*
X62288146Y-85237500D01*
X62362646Y-85257462D01*
X62410768Y-85301855D01*
X62419517Y-85314530D01*
X62537760Y-85419283D01*
X62537762Y-85419284D01*
X62677632Y-85492695D01*
X62677634Y-85492695D01*
X62677635Y-85492696D01*
X62831015Y-85530500D01*
X62831016Y-85530500D01*
X62988984Y-85530500D01*
X62988985Y-85530500D01*
X63142365Y-85492696D01*
X63282240Y-85419283D01*
X63400483Y-85314530D01*
X63490220Y-85184523D01*
X63491170Y-85182020D01*
X63546236Y-85036821D01*
X63546236Y-85036820D01*
X63546237Y-85036818D01*
X63565278Y-84880000D01*
X63546237Y-84723182D01*
X63546236Y-84723180D01*
X63546236Y-84723178D01*
X63490221Y-84575478D01*
X63436343Y-84497423D01*
X63400483Y-84445470D01*
X63282240Y-84340717D01*
X63282238Y-84340716D01*
X63282237Y-84340715D01*
X63142367Y-84267304D01*
X63040111Y-84242101D01*
X62988985Y-84229500D01*
X62831015Y-84229500D01*
X62792670Y-84238951D01*
X62677632Y-84267304D01*
X62537762Y-84340715D01*
X62537759Y-84340717D01*
X62537760Y-84340717D01*
X62420013Y-84445030D01*
X62351014Y-84479489D01*
X62321211Y-84482500D01*
X61658083Y-84482500D01*
X61583583Y-84462538D01*
X61552724Y-84438859D01*
X60601141Y-83487275D01*
X60562577Y-83420480D01*
X60557500Y-83381916D01*
X60557500Y-78939999D01*
X61394570Y-78939999D01*
X61414243Y-79152307D01*
X61472595Y-79357391D01*
X61567633Y-79548254D01*
X61696127Y-79718406D01*
X61853699Y-79862053D01*
X62034975Y-79974295D01*
X62034978Y-79974296D01*
X62034981Y-79974298D01*
X62233802Y-80051321D01*
X62443390Y-80090500D01*
X62656610Y-80090500D01*
X62866198Y-80051321D01*
X63065019Y-79974298D01*
X63246302Y-79862052D01*
X63403872Y-79718407D01*
X63532366Y-79548255D01*
X63627405Y-79357389D01*
X63676689Y-79184176D01*
X63716276Y-79117985D01*
X63783657Y-79080454D01*
X63860776Y-79081642D01*
X63926969Y-79121230D01*
X63963310Y-79184175D01*
X63987957Y-79270798D01*
X64012595Y-79357391D01*
X64107633Y-79548254D01*
X64236127Y-79718406D01*
X64393699Y-79862053D01*
X64574975Y-79974295D01*
X64574978Y-79974296D01*
X64574981Y-79974298D01*
X64773802Y-80051321D01*
X64983390Y-80090500D01*
X65196610Y-80090500D01*
X65406198Y-80051321D01*
X65605019Y-79974298D01*
X65786302Y-79862052D01*
X65943872Y-79718407D01*
X66072366Y-79548255D01*
X66167405Y-79357389D01*
X66216949Y-79183261D01*
X66256536Y-79117071D01*
X66323917Y-79079540D01*
X66401036Y-79080728D01*
X66467229Y-79120316D01*
X66503572Y-79183265D01*
X66553061Y-79357203D01*
X66648062Y-79547992D01*
X66656835Y-79559609D01*
X67146922Y-79069521D01*
X67170507Y-79149844D01*
X67248239Y-79270798D01*
X67356900Y-79364952D01*
X67487685Y-79424680D01*
X67497466Y-79426086D01*
X67012992Y-79910560D01*
X67115208Y-79973849D01*
X67313937Y-80050837D01*
X67523437Y-80090000D01*
X67736563Y-80090000D01*
X67946062Y-80050837D01*
X68144793Y-79973849D01*
X68247006Y-79910561D01*
X67762533Y-79426086D01*
X67772315Y-79424680D01*
X67903100Y-79364952D01*
X68011761Y-79270798D01*
X68089493Y-79149844D01*
X68113077Y-79069523D01*
X68603163Y-79559609D01*
X68611938Y-79547991D01*
X68706938Y-79357203D01*
X68765262Y-79152216D01*
X68784927Y-78940000D01*
X68765262Y-78727783D01*
X68706937Y-78522791D01*
X68611938Y-78332007D01*
X68603164Y-78320388D01*
X68113076Y-78810475D01*
X68089493Y-78730156D01*
X68011761Y-78609202D01*
X67903100Y-78515048D01*
X67772315Y-78455320D01*
X67762530Y-78453913D01*
X68247007Y-77969437D01*
X68144794Y-77906151D01*
X67946062Y-77829162D01*
X67736563Y-77790000D01*
X67523437Y-77790000D01*
X67313937Y-77829162D01*
X67115205Y-77906151D01*
X67012991Y-77969437D01*
X67497467Y-78453913D01*
X67487685Y-78455320D01*
X67356900Y-78515048D01*
X67248239Y-78609202D01*
X67170507Y-78730156D01*
X67146922Y-78810476D01*
X66656835Y-78320389D01*
X66648062Y-78332007D01*
X66553061Y-78522795D01*
X66503572Y-78696735D01*
X66463984Y-78762928D01*
X66396603Y-78800459D01*
X66319484Y-78799271D01*
X66253291Y-78759683D01*
X66216948Y-78696735D01*
X66215217Y-78690652D01*
X66167405Y-78522611D01*
X66163639Y-78515048D01*
X66072366Y-78331745D01*
X65943872Y-78161593D01*
X65786302Y-78017947D01*
X65605020Y-77905702D01*
X65562675Y-77889298D01*
X65500416Y-77843771D01*
X65469262Y-77773215D01*
X65467499Y-77750371D01*
X65467499Y-76038081D01*
X65487461Y-75963582D01*
X65511136Y-75932727D01*
X72793864Y-68650000D01*
X76874722Y-68650000D01*
X76893763Y-68806821D01*
X76949778Y-68954521D01*
X76994975Y-69020000D01*
X77039517Y-69084530D01*
X77157760Y-69189283D01*
X77157762Y-69189284D01*
X77297632Y-69262695D01*
X77297634Y-69262695D01*
X77297635Y-69262696D01*
X77451015Y-69300500D01*
X77544917Y-69300500D01*
X77619417Y-69320462D01*
X77650276Y-69344141D01*
X79829091Y-71522957D01*
X79867655Y-71589752D01*
X79867655Y-71666880D01*
X79867044Y-71669092D01*
X79813602Y-71856919D01*
X79794784Y-72059999D01*
X79813602Y-72263080D01*
X79869418Y-72459252D01*
X79945267Y-72611576D01*
X79960327Y-72641821D01*
X79974055Y-72660000D01*
X80083235Y-72804579D01*
X80162437Y-72876780D01*
X80233959Y-72941981D01*
X80357621Y-73018549D01*
X80383164Y-73034365D01*
X80407363Y-73049348D01*
X80597544Y-73123024D01*
X80798024Y-73160500D01*
X81001976Y-73160500D01*
X81202456Y-73123024D01*
X81392637Y-73049348D01*
X81566041Y-72941981D01*
X81716764Y-72804579D01*
X81839673Y-72641821D01*
X81930582Y-72459250D01*
X81986397Y-72263083D01*
X82005215Y-72060000D01*
X82005215Y-72059999D01*
X102794784Y-72059999D01*
X102813602Y-72263080D01*
X102869418Y-72459252D01*
X102945267Y-72611576D01*
X102960327Y-72641821D01*
X102974055Y-72660000D01*
X103083235Y-72804579D01*
X103162437Y-72876780D01*
X103233959Y-72941981D01*
X103357621Y-73018549D01*
X103383164Y-73034365D01*
X103407363Y-73049348D01*
X103597544Y-73123024D01*
X103798024Y-73160500D01*
X104001976Y-73160500D01*
X104202456Y-73123024D01*
X104392637Y-73049348D01*
X104566041Y-72941981D01*
X104716764Y-72804579D01*
X104839673Y-72641821D01*
X104930582Y-72459250D01*
X104986397Y-72263083D01*
X105005215Y-72060000D01*
X104986397Y-71856917D01*
X104930582Y-71660750D01*
X104895229Y-71589752D01*
X104885316Y-71569843D01*
X104839673Y-71478179D01*
X104778218Y-71396800D01*
X104716764Y-71315420D01*
X104615048Y-71222695D01*
X104566041Y-71178019D01*
X104566038Y-71178017D01*
X104392641Y-71070654D01*
X104392638Y-71070653D01*
X104392637Y-71070652D01*
X104202456Y-70996976D01*
X104202453Y-70996975D01*
X104202452Y-70996975D01*
X104001976Y-70959500D01*
X103798024Y-70959500D01*
X103597547Y-70996975D01*
X103597544Y-70996975D01*
X103597544Y-70996976D01*
X103549728Y-71015500D01*
X103407358Y-71070654D01*
X103233961Y-71178017D01*
X103083235Y-71315420D01*
X102960326Y-71478180D01*
X102869418Y-71660747D01*
X102813602Y-71856919D01*
X102794784Y-72059999D01*
X82005215Y-72059999D01*
X81986397Y-71856917D01*
X81930582Y-71660750D01*
X81895229Y-71589752D01*
X81885316Y-71569843D01*
X81839673Y-71478179D01*
X81778218Y-71396800D01*
X81716764Y-71315420D01*
X81615048Y-71222695D01*
X81566041Y-71178019D01*
X81566038Y-71178017D01*
X81392641Y-71070654D01*
X81392638Y-71070653D01*
X81392637Y-71070652D01*
X81202456Y-70996976D01*
X81202453Y-70996975D01*
X81202452Y-70996975D01*
X81001976Y-70959500D01*
X80798024Y-70959500D01*
X80597542Y-70996976D01*
X80524673Y-71025205D01*
X80447993Y-71033502D01*
X80377437Y-71002348D01*
X80365491Y-70991625D01*
X78893866Y-69520000D01*
X79794784Y-69520000D01*
X79813602Y-69723080D01*
X79869418Y-69919252D01*
X79948122Y-70077310D01*
X79960327Y-70101821D01*
X80001856Y-70156814D01*
X80083235Y-70264579D01*
X80128099Y-70305477D01*
X80233959Y-70401981D01*
X80233961Y-70401982D01*
X80406634Y-70508897D01*
X80407363Y-70509348D01*
X80597544Y-70583024D01*
X80798024Y-70620500D01*
X81001976Y-70620500D01*
X81202456Y-70583024D01*
X81392637Y-70509348D01*
X81566041Y-70401981D01*
X81716764Y-70264579D01*
X81839673Y-70101821D01*
X81930582Y-69919250D01*
X81986397Y-69723083D01*
X82005215Y-69520000D01*
X102795286Y-69520000D01*
X102814096Y-69722989D01*
X102869885Y-69919068D01*
X102960753Y-70101554D01*
X102962533Y-70103912D01*
X103416922Y-69649522D01*
X103440507Y-69729844D01*
X103518239Y-69850798D01*
X103626900Y-69944952D01*
X103757685Y-70004680D01*
X103767466Y-70006086D01*
X103319311Y-70454241D01*
X103407583Y-70508897D01*
X103597682Y-70582541D01*
X103798070Y-70620000D01*
X104001930Y-70620000D01*
X104202318Y-70582541D01*
X104392414Y-70508898D01*
X104480687Y-70454240D01*
X104032533Y-70006086D01*
X104042315Y-70004680D01*
X104173100Y-69944952D01*
X104281761Y-69850798D01*
X104359493Y-69729844D01*
X104383077Y-69649523D01*
X104837466Y-70103912D01*
X104839247Y-70101553D01*
X104930114Y-69919068D01*
X104985903Y-69722989D01*
X105004713Y-69520000D01*
X104985903Y-69317010D01*
X104930114Y-69120931D01*
X104839245Y-68938442D01*
X104837466Y-68936085D01*
X104383076Y-69390475D01*
X104359493Y-69310156D01*
X104281761Y-69189202D01*
X104173100Y-69095048D01*
X104042315Y-69035320D01*
X104032531Y-69033913D01*
X104480687Y-68585758D01*
X104392412Y-68531100D01*
X104202317Y-68457458D01*
X104001930Y-68420000D01*
X103798070Y-68420000D01*
X103597682Y-68457458D01*
X103407584Y-68531102D01*
X103319310Y-68585757D01*
X103767466Y-69033913D01*
X103757685Y-69035320D01*
X103626900Y-69095048D01*
X103518239Y-69189202D01*
X103440507Y-69310156D01*
X103416923Y-69390476D01*
X102962532Y-68936085D01*
X102960754Y-68938442D01*
X102869885Y-69120931D01*
X102814096Y-69317010D01*
X102795286Y-69520000D01*
X82005215Y-69520000D01*
X81986397Y-69316917D01*
X81930582Y-69120750D01*
X81839673Y-68938179D01*
X81769484Y-68845234D01*
X81716764Y-68775420D01*
X81594182Y-68663673D01*
X81566041Y-68638019D01*
X81566038Y-68638017D01*
X81392641Y-68530654D01*
X81392638Y-68530653D01*
X81392637Y-68530652D01*
X81202456Y-68456976D01*
X81202453Y-68456975D01*
X81202452Y-68456975D01*
X81001976Y-68419500D01*
X80798024Y-68419500D01*
X80597547Y-68456975D01*
X80597544Y-68456975D01*
X80597544Y-68456976D01*
X80504085Y-68493182D01*
X80407358Y-68530654D01*
X80233961Y-68638017D01*
X80083235Y-68775420D01*
X79960326Y-68938180D01*
X79869418Y-69120747D01*
X79813602Y-69316919D01*
X79794784Y-69520000D01*
X78893866Y-69520000D01*
X78219100Y-68845234D01*
X78180536Y-68778439D01*
X78176545Y-68721919D01*
X78185278Y-68650000D01*
X78166237Y-68493182D01*
X78166236Y-68493180D01*
X78166236Y-68493178D01*
X78110221Y-68345478D01*
X78020484Y-68215472D01*
X78020483Y-68215470D01*
X77902240Y-68110717D01*
X77902238Y-68110716D01*
X77902237Y-68110715D01*
X77762367Y-68037304D01*
X77660111Y-68012101D01*
X77608985Y-67999500D01*
X77451015Y-67999500D01*
X77412670Y-68008950D01*
X77297632Y-68037304D01*
X77157762Y-68110715D01*
X77039515Y-68215472D01*
X76949778Y-68345478D01*
X76893763Y-68493178D01*
X76874722Y-68650000D01*
X72793864Y-68650000D01*
X74463864Y-66980000D01*
X79794784Y-66980000D01*
X79813602Y-67183080D01*
X79869418Y-67379252D01*
X79944731Y-67530500D01*
X79960327Y-67561821D01*
X79970388Y-67575144D01*
X80083235Y-67724579D01*
X80126493Y-67764013D01*
X80233959Y-67861981D01*
X80407363Y-67969348D01*
X80597544Y-68043024D01*
X80798024Y-68080500D01*
X81001976Y-68080500D01*
X81202456Y-68043024D01*
X81392637Y-67969348D01*
X81566041Y-67861981D01*
X81716764Y-67724579D01*
X81839673Y-67561821D01*
X81930582Y-67379250D01*
X81986397Y-67183083D01*
X82005215Y-66980000D01*
X82005215Y-66979999D01*
X102794784Y-66979999D01*
X102813602Y-67183080D01*
X102869418Y-67379252D01*
X102944731Y-67530500D01*
X102960327Y-67561821D01*
X102970388Y-67575144D01*
X103083235Y-67724579D01*
X103126493Y-67764013D01*
X103233959Y-67861981D01*
X103407363Y-67969348D01*
X103597544Y-68043024D01*
X103798024Y-68080500D01*
X104001976Y-68080500D01*
X104202456Y-68043024D01*
X104392637Y-67969348D01*
X104566041Y-67861981D01*
X104716764Y-67724579D01*
X104839673Y-67561821D01*
X104930582Y-67379250D01*
X104986397Y-67183083D01*
X105005215Y-66980000D01*
X104986397Y-66776917D01*
X104930582Y-66580750D01*
X104927956Y-66575477D01*
X104882812Y-66484814D01*
X104839673Y-66398179D01*
X104762045Y-66295383D01*
X104716764Y-66235420D01*
X104598133Y-66127275D01*
X104566041Y-66098019D01*
X104563452Y-66096416D01*
X104392641Y-65990654D01*
X104392638Y-65990653D01*
X104392637Y-65990652D01*
X104202456Y-65916976D01*
X104202453Y-65916975D01*
X104202452Y-65916975D01*
X104001976Y-65879500D01*
X103798024Y-65879500D01*
X103597547Y-65916975D01*
X103407358Y-65990654D01*
X103233961Y-66098017D01*
X103083235Y-66235420D01*
X102960326Y-66398180D01*
X102869418Y-66580747D01*
X102813602Y-66776919D01*
X102794784Y-66979999D01*
X82005215Y-66979999D01*
X81986397Y-66776917D01*
X81930582Y-66580750D01*
X81927956Y-66575477D01*
X81882812Y-66484814D01*
X81839673Y-66398179D01*
X81762045Y-66295383D01*
X81716764Y-66235420D01*
X81598133Y-66127275D01*
X81566041Y-66098019D01*
X81563452Y-66096416D01*
X81392641Y-65990654D01*
X81392638Y-65990653D01*
X81392637Y-65990652D01*
X81202456Y-65916976D01*
X81202453Y-65916975D01*
X81202452Y-65916975D01*
X81001976Y-65879500D01*
X80798024Y-65879500D01*
X80597547Y-65916975D01*
X80407358Y-65990654D01*
X80233961Y-66098017D01*
X80083235Y-66235420D01*
X79960326Y-66398180D01*
X79869418Y-66580747D01*
X79813602Y-66776919D01*
X79794784Y-66980000D01*
X74463864Y-66980000D01*
X77003865Y-64440000D01*
X79794784Y-64440000D01*
X79813602Y-64643080D01*
X79869418Y-64839252D01*
X79948272Y-64997611D01*
X79960327Y-65021821D01*
X79981538Y-65049909D01*
X80083235Y-65184579D01*
X80162437Y-65256780D01*
X80233959Y-65321981D01*
X80407363Y-65429348D01*
X80597544Y-65503024D01*
X80798024Y-65540500D01*
X81001976Y-65540500D01*
X81202456Y-65503024D01*
X81392637Y-65429348D01*
X81566041Y-65321981D01*
X81716764Y-65184579D01*
X81839673Y-65021821D01*
X81900289Y-64900085D01*
X81951366Y-64842293D01*
X82024496Y-64817783D01*
X82033669Y-64817500D01*
X84345395Y-64817500D01*
X84375971Y-64820671D01*
X84384184Y-64822393D01*
X84411390Y-64819001D01*
X84414262Y-64818644D01*
X84430445Y-64817639D01*
X84431278Y-64817500D01*
X84431281Y-64817500D01*
X84451413Y-64814140D01*
X84457451Y-64813260D01*
X84509203Y-64806810D01*
X84509202Y-64806810D01*
X84517187Y-64805815D01*
X84524266Y-64801983D01*
X84524269Y-64801983D01*
X84570150Y-64777152D01*
X84575517Y-64774389D01*
X84622389Y-64751476D01*
X84622390Y-64751474D01*
X84629619Y-64747941D01*
X84635068Y-64742021D01*
X84635071Y-64742020D01*
X84670394Y-64703647D01*
X84674611Y-64699252D01*
X84933864Y-64439999D01*
X102794784Y-64439999D01*
X102813602Y-64643080D01*
X102869418Y-64839252D01*
X102948272Y-64997611D01*
X102960327Y-65021821D01*
X102981538Y-65049909D01*
X103083235Y-65184579D01*
X103162437Y-65256780D01*
X103233959Y-65321981D01*
X103407363Y-65429348D01*
X103597544Y-65503024D01*
X103798024Y-65540500D01*
X104001976Y-65540500D01*
X104202456Y-65503024D01*
X104392637Y-65429348D01*
X104566041Y-65321981D01*
X104716764Y-65184579D01*
X104839673Y-65021821D01*
X104930582Y-64839250D01*
X104986397Y-64643083D01*
X105005215Y-64440000D01*
X104986397Y-64236917D01*
X104930582Y-64040750D01*
X104895352Y-63969999D01*
X104885316Y-63949843D01*
X104839673Y-63858179D01*
X104752464Y-63742695D01*
X104716764Y-63695420D01*
X104629883Y-63616218D01*
X104566041Y-63558019D01*
X104557604Y-63552795D01*
X104392641Y-63450654D01*
X104392638Y-63450653D01*
X104392637Y-63450652D01*
X104202456Y-63376976D01*
X104202453Y-63376975D01*
X104202452Y-63376975D01*
X104001976Y-63339500D01*
X103798024Y-63339500D01*
X103597547Y-63376975D01*
X103407358Y-63450654D01*
X103233961Y-63558017D01*
X103083235Y-63695420D01*
X102960326Y-63858180D01*
X102869418Y-64040747D01*
X102813602Y-64236919D01*
X102794784Y-64439999D01*
X84933864Y-64439999D01*
X87473864Y-61900000D01*
X102794784Y-61900000D01*
X102813602Y-62103080D01*
X102869418Y-62299252D01*
X102905648Y-62372011D01*
X102960327Y-62481821D01*
X103001856Y-62536814D01*
X103083235Y-62644579D01*
X103162437Y-62716780D01*
X103233959Y-62781981D01*
X103407363Y-62889348D01*
X103597544Y-62963024D01*
X103798024Y-63000500D01*
X104001976Y-63000500D01*
X104202456Y-62963024D01*
X104392637Y-62889348D01*
X104566041Y-62781981D01*
X104716764Y-62644579D01*
X104839673Y-62481821D01*
X104930582Y-62299250D01*
X104986397Y-62103083D01*
X105005215Y-61900000D01*
X104986397Y-61696917D01*
X104930582Y-61500750D01*
X104839673Y-61318179D01*
X104757378Y-61209203D01*
X104716764Y-61155420D01*
X104596071Y-61045395D01*
X104566041Y-61018019D01*
X104445905Y-60943634D01*
X104392641Y-60910654D01*
X104392638Y-60910653D01*
X104392637Y-60910652D01*
X104202456Y-60836976D01*
X104202453Y-60836975D01*
X104202452Y-60836975D01*
X104001976Y-60799500D01*
X103798024Y-60799500D01*
X103597547Y-60836975D01*
X103407358Y-60910654D01*
X103233961Y-61018017D01*
X103083235Y-61155420D01*
X102960326Y-61318180D01*
X102869418Y-61500747D01*
X102813602Y-61696919D01*
X102794784Y-61900000D01*
X87473864Y-61900000D01*
X90013864Y-59360000D01*
X102794784Y-59360000D01*
X102813602Y-59563080D01*
X102869418Y-59759252D01*
X102960326Y-59941819D01*
X102960327Y-59941821D01*
X103001856Y-59996814D01*
X103083235Y-60104579D01*
X103162437Y-60176780D01*
X103233959Y-60241981D01*
X103407363Y-60349348D01*
X103597544Y-60423024D01*
X103798024Y-60460500D01*
X104001976Y-60460500D01*
X104202456Y-60423024D01*
X104392637Y-60349348D01*
X104566041Y-60241981D01*
X104716764Y-60104579D01*
X104839673Y-59941821D01*
X104930582Y-59759250D01*
X104986397Y-59563083D01*
X105005215Y-59360000D01*
X104986397Y-59156917D01*
X104930582Y-58960750D01*
X104839673Y-58778179D01*
X104778218Y-58696800D01*
X104716764Y-58615420D01*
X104629883Y-58536218D01*
X104566041Y-58478019D01*
X104458548Y-58411462D01*
X104392641Y-58370654D01*
X104392638Y-58370653D01*
X104392637Y-58370652D01*
X104202456Y-58296976D01*
X104202453Y-58296975D01*
X104202452Y-58296975D01*
X104001976Y-58259500D01*
X103798024Y-58259500D01*
X103597547Y-58296975D01*
X103597544Y-58296975D01*
X103597544Y-58296976D01*
X103444201Y-58356381D01*
X103407358Y-58370654D01*
X103233961Y-58478017D01*
X103083235Y-58615420D01*
X102960326Y-58778180D01*
X102869418Y-58960747D01*
X102813602Y-59156919D01*
X102794784Y-59360000D01*
X90013864Y-59360000D01*
X92553865Y-56819999D01*
X102794784Y-56819999D01*
X102813602Y-57023080D01*
X102869418Y-57219252D01*
X102954690Y-57390500D01*
X102960327Y-57401821D01*
X103001856Y-57456814D01*
X103083235Y-57564579D01*
X103162437Y-57636780D01*
X103233959Y-57701981D01*
X103407363Y-57809348D01*
X103597544Y-57883024D01*
X103798024Y-57920500D01*
X104001976Y-57920500D01*
X104202456Y-57883024D01*
X104392637Y-57809348D01*
X104566041Y-57701981D01*
X104716764Y-57564579D01*
X104839673Y-57401821D01*
X104930582Y-57219250D01*
X104986397Y-57023083D01*
X105005215Y-56820000D01*
X104986397Y-56616917D01*
X104930582Y-56420750D01*
X104901848Y-56363045D01*
X104876952Y-56313045D01*
X104839673Y-56238179D01*
X104766138Y-56140803D01*
X104716764Y-56075420D01*
X104577383Y-55948359D01*
X104566041Y-55938019D01*
X104566038Y-55938017D01*
X104392641Y-55830654D01*
X104392638Y-55830653D01*
X104392637Y-55830652D01*
X104202456Y-55756976D01*
X104202453Y-55756975D01*
X104202452Y-55756975D01*
X104001976Y-55719500D01*
X103798024Y-55719500D01*
X103597547Y-55756975D01*
X103597544Y-55756975D01*
X103597544Y-55756976D01*
X103417459Y-55826741D01*
X103407358Y-55830654D01*
X103233961Y-55938017D01*
X103083235Y-56075420D01*
X102960326Y-56238180D01*
X102869418Y-56420747D01*
X102813602Y-56616919D01*
X102794784Y-56819999D01*
X92553865Y-56819999D01*
X95093864Y-54280000D01*
X102795286Y-54280000D01*
X102814096Y-54482989D01*
X102869885Y-54679068D01*
X102960753Y-54861554D01*
X102962533Y-54863912D01*
X103416922Y-54409523D01*
X103440507Y-54489844D01*
X103518239Y-54610798D01*
X103626900Y-54704952D01*
X103757685Y-54764680D01*
X103767466Y-54766086D01*
X103319311Y-55214241D01*
X103407583Y-55268897D01*
X103597682Y-55342541D01*
X103798070Y-55380000D01*
X104001930Y-55380000D01*
X104202318Y-55342541D01*
X104392414Y-55268898D01*
X104480687Y-55214240D01*
X104032533Y-54766086D01*
X104042315Y-54764680D01*
X104173100Y-54704952D01*
X104281761Y-54610798D01*
X104359493Y-54489844D01*
X104383077Y-54409523D01*
X104837466Y-54863912D01*
X104839247Y-54861553D01*
X104930114Y-54679068D01*
X104985903Y-54482989D01*
X105004713Y-54280000D01*
X104985903Y-54077010D01*
X104930114Y-53880931D01*
X104839245Y-53698442D01*
X104837466Y-53696085D01*
X104383076Y-54150475D01*
X104359493Y-54070156D01*
X104281761Y-53949202D01*
X104173100Y-53855048D01*
X104042315Y-53795320D01*
X104032531Y-53793913D01*
X104480687Y-53345758D01*
X104392412Y-53291100D01*
X104202317Y-53217458D01*
X104001930Y-53180000D01*
X103798070Y-53180000D01*
X103597682Y-53217458D01*
X103407584Y-53291102D01*
X103319310Y-53345757D01*
X103767466Y-53793913D01*
X103757685Y-53795320D01*
X103626900Y-53855048D01*
X103518239Y-53949202D01*
X103440507Y-54070156D01*
X103416923Y-54150475D01*
X102962533Y-53696086D01*
X102962532Y-53696086D01*
X102960754Y-53698442D01*
X102869885Y-53880931D01*
X102814096Y-54077010D01*
X102795286Y-54280000D01*
X95093864Y-54280000D01*
X97302723Y-52071141D01*
X97369519Y-52032577D01*
X97408083Y-52027500D01*
X105311917Y-52027500D01*
X105386417Y-52047462D01*
X105417276Y-52071141D01*
X106218859Y-52872724D01*
X106257423Y-52939519D01*
X106262500Y-52978083D01*
X106262500Y-61045395D01*
X106259329Y-61075970D01*
X106257606Y-61084183D01*
X106261356Y-61114261D01*
X106262360Y-61130441D01*
X106265853Y-61151375D01*
X106266739Y-61157463D01*
X106274185Y-61217189D01*
X106302821Y-61270105D01*
X106305638Y-61275578D01*
X106332058Y-61329619D01*
X106376324Y-61370369D01*
X106380768Y-61374633D01*
X108674458Y-63668324D01*
X108693836Y-63692187D01*
X108698423Y-63699208D01*
X108722337Y-63717821D01*
X108734502Y-63728564D01*
X108751780Y-63740900D01*
X108756718Y-63744582D01*
X108804194Y-63781534D01*
X108811909Y-63783831D01*
X108811911Y-63783832D01*
X108861861Y-63798702D01*
X108867703Y-63800573D01*
X108917006Y-63817500D01*
X108917007Y-63817500D01*
X108924618Y-63820113D01*
X108932658Y-63819780D01*
X108932660Y-63819781D01*
X108984733Y-63817627D01*
X108990891Y-63817500D01*
X116801917Y-63817500D01*
X116876417Y-63837462D01*
X116907276Y-63861141D01*
X118378858Y-65332724D01*
X118417422Y-65399519D01*
X118422499Y-65438083D01*
X118422499Y-66278316D01*
X118402537Y-66352816D01*
X118372305Y-66389843D01*
X118309518Y-66445468D01*
X118219778Y-66575478D01*
X118163763Y-66723178D01*
X118144722Y-66879999D01*
X118163763Y-67036821D01*
X118219778Y-67184521D01*
X118259515Y-67242090D01*
X118309517Y-67314530D01*
X118427760Y-67419283D01*
X118427762Y-67419284D01*
X118567632Y-67492695D01*
X118567634Y-67492695D01*
X118567635Y-67492696D01*
X118721015Y-67530500D01*
X118721016Y-67530500D01*
X118878984Y-67530500D01*
X118878985Y-67530500D01*
X119032365Y-67492696D01*
X119172240Y-67419283D01*
X119290483Y-67314530D01*
X119380220Y-67184523D01*
X119380472Y-67183860D01*
X119436236Y-67036821D01*
X119436236Y-67036820D01*
X119436237Y-67036818D01*
X119455278Y-66880000D01*
X119436237Y-66723182D01*
X119436236Y-66723180D01*
X119436236Y-66723178D01*
X119380221Y-66575478D01*
X119343015Y-66521576D01*
X119290483Y-66445470D01*
X119227693Y-66389843D01*
X119185168Y-66325499D01*
X119177500Y-66278316D01*
X119177500Y-65274604D01*
X119180671Y-65244028D01*
X119182393Y-65235816D01*
X119178644Y-65205739D01*
X119177639Y-65189553D01*
X119174144Y-65168612D01*
X119173255Y-65162512D01*
X119166809Y-65110796D01*
X119166808Y-65110795D01*
X119165813Y-65102808D01*
X119137185Y-65049909D01*
X119134366Y-65044433D01*
X119114745Y-65004298D01*
X119111476Y-64997611D01*
X119111475Y-64997610D01*
X119107938Y-64990375D01*
X119063674Y-64949628D01*
X119059229Y-64945364D01*
X117325541Y-63211675D01*
X117306162Y-63187811D01*
X117301575Y-63180790D01*
X117277665Y-63162181D01*
X117265502Y-63151439D01*
X117248206Y-63139089D01*
X117243274Y-63135412D01*
X117202155Y-63103408D01*
X117202154Y-63103407D01*
X117195801Y-63098463D01*
X117138134Y-63081294D01*
X117132272Y-63079416D01*
X117075383Y-63059886D01*
X117015266Y-63062373D01*
X117009109Y-63062500D01*
X109198083Y-63062500D01*
X109123583Y-63042538D01*
X109092724Y-63018859D01*
X107061141Y-60987275D01*
X107022577Y-60920480D01*
X107017500Y-60881916D01*
X107017500Y-54070000D01*
X107994570Y-54070000D01*
X108014243Y-54282307D01*
X108072595Y-54487391D01*
X108167633Y-54678254D01*
X108284125Y-54832512D01*
X108296128Y-54848407D01*
X108365183Y-54911359D01*
X108453699Y-54992053D01*
X108634975Y-55104295D01*
X108634978Y-55104296D01*
X108634981Y-55104298D01*
X108833802Y-55181321D01*
X109043390Y-55220500D01*
X109256608Y-55220500D01*
X109256610Y-55220500D01*
X109306469Y-55211179D01*
X109383367Y-55217111D01*
X109439207Y-55252283D01*
X112332535Y-58145611D01*
X112345923Y-58162322D01*
X112398756Y-58211936D01*
X112402117Y-58215193D01*
X112421555Y-58234631D01*
X112425260Y-58237505D01*
X112428766Y-58240596D01*
X112428299Y-58240210D01*
X112434542Y-58245541D01*
X112465864Y-58274955D01*
X112481936Y-58283790D01*
X112501480Y-58296627D01*
X112515985Y-58307879D01*
X112555442Y-58324953D01*
X112568026Y-58331118D01*
X112605682Y-58351820D01*
X112615439Y-58354324D01*
X112623447Y-58356381D01*
X112645570Y-58363954D01*
X112662416Y-58371245D01*
X112704864Y-58377967D01*
X112718587Y-58380809D01*
X112760223Y-58391500D01*
X112778578Y-58391500D01*
X112801885Y-58393334D01*
X112804394Y-58393731D01*
X112820007Y-58396204D01*
X112858782Y-58392538D01*
X112862782Y-58392161D01*
X112876802Y-58391500D01*
X124542629Y-58391500D01*
X124617129Y-58411462D01*
X124647988Y-58435141D01*
X128584858Y-62372011D01*
X128623422Y-62438806D01*
X128628499Y-62477370D01*
X128628499Y-67116705D01*
X128608537Y-67191205D01*
X128584858Y-67222064D01*
X123964384Y-71842538D01*
X123947675Y-71855925D01*
X123898045Y-71908774D01*
X123894795Y-71912127D01*
X123878682Y-71928241D01*
X123878675Y-71928248D01*
X123875369Y-71931555D01*
X123872502Y-71935249D01*
X123869404Y-71938764D01*
X123869727Y-71938373D01*
X123864465Y-71944533D01*
X123835044Y-71975864D01*
X123826205Y-71991943D01*
X123813372Y-72011478D01*
X123802122Y-72025981D01*
X123785050Y-72065432D01*
X123778876Y-72078034D01*
X123758179Y-72115681D01*
X123753615Y-72133458D01*
X123746044Y-72155569D01*
X123738754Y-72172415D01*
X123732033Y-72214852D01*
X123729187Y-72228596D01*
X123718500Y-72270221D01*
X123718500Y-72288578D01*
X123716666Y-72311884D01*
X123713795Y-72330008D01*
X123717838Y-72372782D01*
X123718499Y-72386801D01*
X123718499Y-76338814D01*
X123698537Y-76413314D01*
X123664025Y-76453992D01*
X123603587Y-76503592D01*
X123553992Y-76564025D01*
X123491299Y-76608950D01*
X123438814Y-76618500D01*
X121106168Y-76618500D01*
X121084871Y-76616149D01*
X121012433Y-76618426D01*
X121007752Y-76618500D01*
X120980270Y-76618500D01*
X120975623Y-76619086D01*
X120970960Y-76619380D01*
X120971508Y-76619328D01*
X120963384Y-76619966D01*
X120920426Y-76621316D01*
X120902796Y-76626438D01*
X120879911Y-76631177D01*
X120861707Y-76633477D01*
X120821744Y-76649299D01*
X120808468Y-76653844D01*
X120767208Y-76665831D01*
X120751410Y-76675174D01*
X120730425Y-76685454D01*
X120713354Y-76692213D01*
X120678584Y-76717474D01*
X120666858Y-76725177D01*
X120629872Y-76747051D01*
X120616891Y-76760032D01*
X120599122Y-76775208D01*
X120584273Y-76785997D01*
X120556884Y-76819103D01*
X120547440Y-76829482D01*
X119704384Y-77672538D01*
X119687675Y-77685925D01*
X119638045Y-77738774D01*
X119634795Y-77742127D01*
X119618682Y-77758241D01*
X119618675Y-77758248D01*
X119615369Y-77761555D01*
X119612502Y-77765249D01*
X119609404Y-77768764D01*
X119609727Y-77768373D01*
X119604465Y-77774533D01*
X119575044Y-77805864D01*
X119566205Y-77821943D01*
X119553372Y-77841478D01*
X119542122Y-77855981D01*
X119525050Y-77895432D01*
X119518876Y-77908034D01*
X119498179Y-77945681D01*
X119493615Y-77963458D01*
X119486044Y-77985569D01*
X119478754Y-78002415D01*
X119472033Y-78044852D01*
X119469187Y-78058596D01*
X119458500Y-78100221D01*
X119458500Y-78118578D01*
X119456666Y-78141884D01*
X119453796Y-78160006D01*
X119457839Y-78202780D01*
X119458500Y-78216801D01*
X119458500Y-85723833D01*
X119456149Y-85745128D01*
X119458426Y-85817552D01*
X119458500Y-85822234D01*
X119458500Y-85849730D01*
X119459086Y-85854374D01*
X119459380Y-85859042D01*
X119459329Y-85858508D01*
X119459967Y-85866623D01*
X119461317Y-85909574D01*
X119466436Y-85927195D01*
X119471175Y-85950077D01*
X119473477Y-85968293D01*
X119489298Y-86008254D01*
X119493843Y-86021529D01*
X119505832Y-86062792D01*
X119515168Y-86078578D01*
X119525455Y-86099574D01*
X119532214Y-86116645D01*
X119557469Y-86151406D01*
X119565176Y-86163138D01*
X119587051Y-86200127D01*
X119600029Y-86213105D01*
X119615211Y-86230881D01*
X119625997Y-86245726D01*
X119659096Y-86273108D01*
X119669479Y-86282555D01*
X122052535Y-88665611D01*
X122065923Y-88682322D01*
X122118756Y-88731936D01*
X122122117Y-88735193D01*
X122141555Y-88754631D01*
X122145260Y-88757505D01*
X122148766Y-88760596D01*
X122148299Y-88760210D01*
X122154542Y-88765541D01*
X122185864Y-88794955D01*
X122201936Y-88803790D01*
X122221480Y-88816627D01*
X122235985Y-88827879D01*
X122275442Y-88844953D01*
X122288026Y-88851118D01*
X122325682Y-88871820D01*
X122335439Y-88874324D01*
X122343447Y-88876381D01*
X122365570Y-88883954D01*
X122382416Y-88891245D01*
X122424865Y-88897967D01*
X122438575Y-88900806D01*
X122480223Y-88911500D01*
X122498577Y-88911500D01*
X122521883Y-88913334D01*
X122526570Y-88914076D01*
X122540006Y-88916204D01*
X122580101Y-88912413D01*
X122582778Y-88912161D01*
X122596799Y-88911500D01*
X123996706Y-88911500D01*
X124071206Y-88931462D01*
X124102065Y-88955141D01*
X128102535Y-92955611D01*
X128115923Y-92972322D01*
X128168756Y-93021936D01*
X128172117Y-93025193D01*
X128191555Y-93044631D01*
X128195260Y-93047505D01*
X128198766Y-93050596D01*
X128198299Y-93050210D01*
X128204542Y-93055541D01*
X128235864Y-93084955D01*
X128251936Y-93093790D01*
X128271480Y-93106627D01*
X128285985Y-93117879D01*
X128325442Y-93134953D01*
X128338026Y-93141118D01*
X128375682Y-93161820D01*
X128385439Y-93164324D01*
X128393447Y-93166381D01*
X128415570Y-93173954D01*
X128432416Y-93181245D01*
X128474865Y-93187967D01*
X128488575Y-93190806D01*
X128530223Y-93201500D01*
X128548577Y-93201500D01*
X128571884Y-93203334D01*
X128574393Y-93203731D01*
X128590006Y-93206204D01*
X128632780Y-93202161D01*
X128646801Y-93201500D01*
X133696706Y-93201500D01*
X133771206Y-93221462D01*
X133802065Y-93245141D01*
X135564859Y-95007935D01*
X135603423Y-95074730D01*
X135608500Y-95113294D01*
X135608500Y-98715960D01*
X135588538Y-98790460D01*
X135544963Y-98838014D01*
X135368598Y-98961505D01*
X135201505Y-99128598D01*
X135065964Y-99322172D01*
X134966097Y-99536336D01*
X134904936Y-99764592D01*
X134884341Y-100000000D01*
X134904936Y-100235407D01*
X134966097Y-100463663D01*
X135047196Y-100637581D01*
X135065965Y-100677830D01*
X135201505Y-100871401D01*
X135368599Y-101038495D01*
X135562170Y-101174035D01*
X135776337Y-101273903D01*
X136004592Y-101335063D01*
X136240000Y-101355659D01*
X136475408Y-101335063D01*
X136703663Y-101273903D01*
X136917830Y-101174035D01*
X137111401Y-101038495D01*
X137278495Y-100871401D01*
X137414035Y-100677830D01*
X137513903Y-100463663D01*
X137575063Y-100235408D01*
X137595659Y-100000000D01*
X137575063Y-99764592D01*
X137513903Y-99536337D01*
X137414035Y-99322171D01*
X137278495Y-99128599D01*
X137111401Y-98961505D01*
X137111398Y-98961502D01*
X136935037Y-98838012D01*
X136885460Y-98778929D01*
X136871500Y-98715959D01*
X136871500Y-94876164D01*
X136873850Y-94854880D01*
X136871574Y-94782465D01*
X136871500Y-94777784D01*
X136871500Y-94754952D01*
X136871500Y-94750270D01*
X136870912Y-94745620D01*
X136870618Y-94740949D01*
X136870675Y-94741557D01*
X136870030Y-94733367D01*
X136868682Y-94690426D01*
X136863562Y-94672803D01*
X136858822Y-94649910D01*
X136856522Y-94631704D01*
X136840701Y-94591747D01*
X136836160Y-94578487D01*
X136824168Y-94537208D01*
X136814828Y-94521415D01*
X136804539Y-94500413D01*
X136797786Y-94483355D01*
X136772522Y-94448582D01*
X136764826Y-94436866D01*
X136742949Y-94399873D01*
X136729970Y-94386894D01*
X136714785Y-94369115D01*
X136704001Y-94354272D01*
X136670896Y-94326885D01*
X136660514Y-94317438D01*
X134527465Y-92184389D01*
X134514077Y-92167678D01*
X134509289Y-92163182D01*
X134461242Y-92118062D01*
X134457881Y-92114805D01*
X134441762Y-92098686D01*
X134438445Y-92095369D01*
X134434735Y-92092491D01*
X134431237Y-92089407D01*
X134431688Y-92089780D01*
X134425464Y-92084463D01*
X134394136Y-92055045D01*
X134378059Y-92046207D01*
X134358514Y-92033368D01*
X134344012Y-92022118D01*
X134304571Y-92005051D01*
X134291966Y-91998877D01*
X134254316Y-91978179D01*
X134236546Y-91973617D01*
X134214424Y-91966042D01*
X134197583Y-91958754D01*
X134155138Y-91952031D01*
X134141394Y-91949185D01*
X134099778Y-91938500D01*
X134099777Y-91938500D01*
X134081422Y-91938500D01*
X134058115Y-91936666D01*
X134039993Y-91933796D01*
X133997218Y-91937839D01*
X133983198Y-91938500D01*
X128933294Y-91938500D01*
X128858794Y-91918538D01*
X128827935Y-91894859D01*
X124827465Y-87894389D01*
X124814077Y-87877678D01*
X124761242Y-87828062D01*
X124757881Y-87824805D01*
X124741762Y-87808686D01*
X124738445Y-87805369D01*
X124734735Y-87802491D01*
X124731237Y-87799407D01*
X124731688Y-87799780D01*
X124725464Y-87794463D01*
X124694136Y-87765045D01*
X124678059Y-87756207D01*
X124658514Y-87743368D01*
X124644012Y-87732118D01*
X124604571Y-87715051D01*
X124591966Y-87708877D01*
X124554316Y-87688179D01*
X124536546Y-87683617D01*
X124514424Y-87676042D01*
X124497583Y-87668754D01*
X124455138Y-87662031D01*
X124441394Y-87659185D01*
X124399778Y-87648500D01*
X124399777Y-87648500D01*
X124381422Y-87648500D01*
X124358115Y-87646666D01*
X124339993Y-87643796D01*
X124297218Y-87647839D01*
X124283198Y-87648500D01*
X122883293Y-87648500D01*
X122808793Y-87628538D01*
X122777934Y-87604859D01*
X120765141Y-85592065D01*
X120726577Y-85525270D01*
X120721500Y-85486706D01*
X120721500Y-84870000D01*
X123294416Y-84870000D01*
X123314699Y-85075932D01*
X123374710Y-85273762D01*
X123374768Y-85273954D01*
X123472164Y-85456168D01*
X123472316Y-85456451D01*
X123603589Y-85616410D01*
X123645393Y-85650717D01*
X123763550Y-85747685D01*
X123946046Y-85845232D01*
X124144066Y-85905300D01*
X124350000Y-85925583D01*
X124555934Y-85905300D01*
X124753954Y-85845232D01*
X124936450Y-85747685D01*
X125096410Y-85616410D01*
X125227685Y-85456450D01*
X125325232Y-85273954D01*
X125385300Y-85075934D01*
X125405583Y-84870000D01*
X125385300Y-84664066D01*
X125325232Y-84466046D01*
X125227685Y-84283550D01*
X125126379Y-84160107D01*
X125096410Y-84123589D01*
X124960774Y-84012277D01*
X124936450Y-83992315D01*
X124753954Y-83894768D01*
X124753953Y-83894767D01*
X124753952Y-83894767D01*
X124555932Y-83834699D01*
X124350000Y-83814416D01*
X124144067Y-83834699D01*
X123946047Y-83894767D01*
X123763548Y-83992316D01*
X123603589Y-84123589D01*
X123472316Y-84283548D01*
X123374767Y-84466047D01*
X123314699Y-84664067D01*
X123294416Y-84870000D01*
X120721500Y-84870000D01*
X120721500Y-82329999D01*
X123294416Y-82329999D01*
X123314699Y-82535932D01*
X123374767Y-82733952D01*
X123472316Y-82916451D01*
X123603589Y-83076410D01*
X123714901Y-83167760D01*
X123763550Y-83207685D01*
X123946046Y-83305232D01*
X124144066Y-83365300D01*
X124247032Y-83375441D01*
X124349999Y-83385583D01*
X124349999Y-83385582D01*
X124350000Y-83385583D01*
X124555934Y-83365300D01*
X124753954Y-83305232D01*
X124936450Y-83207685D01*
X125096410Y-83076410D01*
X125227685Y-82916450D01*
X125325232Y-82733954D01*
X125385300Y-82535934D01*
X125405583Y-82330000D01*
X125385300Y-82124066D01*
X125325232Y-81926046D01*
X125227685Y-81743550D01*
X125141210Y-81638179D01*
X125096410Y-81583589D01*
X124936451Y-81452316D01*
X124936450Y-81452315D01*
X124753954Y-81354768D01*
X124753953Y-81354767D01*
X124753952Y-81354767D01*
X124555932Y-81294699D01*
X124349999Y-81274416D01*
X124144067Y-81294699D01*
X123946047Y-81354767D01*
X123763548Y-81452316D01*
X123603589Y-81583589D01*
X123472316Y-81743548D01*
X123374767Y-81926047D01*
X123314699Y-82124067D01*
X123294416Y-82329999D01*
X120721500Y-82329999D01*
X120721500Y-78503294D01*
X120741462Y-78428794D01*
X120765141Y-78397935D01*
X121237935Y-77925141D01*
X121304730Y-77886577D01*
X121343294Y-77881500D01*
X123438814Y-77881500D01*
X123513314Y-77901462D01*
X123553993Y-77935976D01*
X123603589Y-77996410D01*
X123714901Y-78087760D01*
X123763550Y-78127685D01*
X123946046Y-78225232D01*
X124144066Y-78285300D01*
X124247032Y-78295441D01*
X124349999Y-78305583D01*
X124349999Y-78305582D01*
X124350000Y-78305583D01*
X124555934Y-78285300D01*
X124753954Y-78225232D01*
X124936450Y-78127685D01*
X125096410Y-77996410D01*
X125227685Y-77836450D01*
X125325232Y-77653954D01*
X125371933Y-77500000D01*
X131244680Y-77500000D01*
X131244871Y-77503766D01*
X131263755Y-77876144D01*
X131263756Y-77876154D01*
X131263947Y-77879919D01*
X131264518Y-77883648D01*
X131264519Y-77883655D01*
X131320981Y-78252218D01*
X131320984Y-78252233D01*
X131321552Y-78255940D01*
X131322495Y-78259582D01*
X131415030Y-78616976D01*
X131416902Y-78624204D01*
X131418213Y-78627743D01*
X131418214Y-78627747D01*
X131547703Y-78977379D01*
X131549019Y-78980932D01*
X131550682Y-78984323D01*
X131550685Y-78984329D01*
X131714888Y-79319079D01*
X131714892Y-79319087D01*
X131716549Y-79322464D01*
X131917771Y-79645295D01*
X131920074Y-79648271D01*
X131920076Y-79648273D01*
X132123101Y-79910561D01*
X132150620Y-79946112D01*
X132412709Y-80221829D01*
X132701346Y-80469616D01*
X133013571Y-80686931D01*
X133346179Y-80871543D01*
X133695758Y-81021559D01*
X134058720Y-81135439D01*
X134431340Y-81212015D01*
X134809796Y-81250500D01*
X134813570Y-81250500D01*
X135186430Y-81250500D01*
X135190204Y-81250500D01*
X135568660Y-81212015D01*
X135941280Y-81135439D01*
X136304242Y-81021559D01*
X136653821Y-80871543D01*
X136986429Y-80686931D01*
X137298654Y-80469616D01*
X137587291Y-80221829D01*
X137849380Y-79946112D01*
X138082229Y-79645295D01*
X138283451Y-79322464D01*
X138450981Y-78980932D01*
X138583098Y-78624204D01*
X138678448Y-78255940D01*
X138736053Y-77879919D01*
X138755320Y-77500000D01*
X138736053Y-77120081D01*
X138678448Y-76744060D01*
X138583098Y-76375796D01*
X138450981Y-76019068D01*
X138283451Y-75677536D01*
X138082229Y-75354705D01*
X137849380Y-75053888D01*
X137587291Y-74778171D01*
X137298654Y-74530384D01*
X137295561Y-74528231D01*
X136989527Y-74315225D01*
X136989523Y-74315222D01*
X136986429Y-74313069D01*
X136983134Y-74311240D01*
X136983129Y-74311237D01*
X136657113Y-74130284D01*
X136657109Y-74130282D01*
X136653821Y-74128457D01*
X136650364Y-74126973D01*
X136650359Y-74126971D01*
X136307703Y-73979926D01*
X136307699Y-73979924D01*
X136304242Y-73978441D01*
X136255608Y-73963182D01*
X135944887Y-73865692D01*
X135944874Y-73865688D01*
X135941280Y-73864561D01*
X135937591Y-73863802D01*
X135937576Y-73863799D01*
X135572349Y-73788743D01*
X135572346Y-73788742D01*
X135568660Y-73787985D01*
X135564921Y-73787604D01*
X135564916Y-73787604D01*
X135193953Y-73749881D01*
X135193948Y-73749880D01*
X135190204Y-73749500D01*
X134809796Y-73749500D01*
X134806052Y-73749880D01*
X134806046Y-73749881D01*
X134435083Y-73787604D01*
X134435075Y-73787605D01*
X134431340Y-73787985D01*
X134427656Y-73788742D01*
X134427650Y-73788743D01*
X134062423Y-73863799D01*
X134062404Y-73863803D01*
X134058720Y-73864561D01*
X134055130Y-73865687D01*
X134055112Y-73865692D01*
X133699352Y-73977313D01*
X133699345Y-73977315D01*
X133695758Y-73978441D01*
X133692307Y-73979921D01*
X133692296Y-73979926D01*
X133349640Y-74126971D01*
X133349627Y-74126977D01*
X133346179Y-74128457D01*
X133342897Y-74130278D01*
X133342886Y-74130284D01*
X133016870Y-74311237D01*
X133016856Y-74311245D01*
X133013571Y-74313069D01*
X133010485Y-74315216D01*
X133010472Y-74315225D01*
X132704438Y-74528231D01*
X132704426Y-74528239D01*
X132701346Y-74530384D01*
X132698494Y-74532832D01*
X132698488Y-74532837D01*
X132415576Y-74775709D01*
X132415567Y-74775716D01*
X132412709Y-74778171D01*
X132410107Y-74780908D01*
X132410101Y-74780914D01*
X132153220Y-75051152D01*
X132153212Y-75051160D01*
X132150620Y-75053888D01*
X132148324Y-75056854D01*
X132148313Y-75056867D01*
X131920076Y-75351726D01*
X131920067Y-75351737D01*
X131917771Y-75354705D01*
X131915783Y-75357893D01*
X131915777Y-75357903D01*
X131718543Y-75674336D01*
X131718538Y-75674344D01*
X131716549Y-75677536D01*
X131714897Y-75680903D01*
X131714888Y-75680920D01*
X131550685Y-76015670D01*
X131550679Y-76015683D01*
X131549019Y-76019068D01*
X131547706Y-76022611D01*
X131547703Y-76022620D01*
X131418214Y-76372252D01*
X131418210Y-76372261D01*
X131416902Y-76375796D01*
X131415958Y-76379440D01*
X131415956Y-76379448D01*
X131326441Y-76725177D01*
X131321552Y-76744060D01*
X131320984Y-76747762D01*
X131320981Y-76747781D01*
X131264519Y-77116344D01*
X131263947Y-77120081D01*
X131263756Y-77123843D01*
X131263755Y-77123855D01*
X131257358Y-77249999D01*
X131244680Y-77500000D01*
X125371933Y-77500000D01*
X125385300Y-77455934D01*
X125405583Y-77250000D01*
X125385300Y-77044066D01*
X125325232Y-76846046D01*
X125227685Y-76663550D01*
X125180601Y-76606177D01*
X125096409Y-76503588D01*
X125035975Y-76453991D01*
X124991050Y-76391298D01*
X124981500Y-76338813D01*
X124981500Y-72673293D01*
X124985062Y-72660000D01*
X127674722Y-72660000D01*
X127693763Y-72816821D01*
X127749778Y-72964521D01*
X127820383Y-73066810D01*
X127839517Y-73094530D01*
X127957760Y-73199283D01*
X127957762Y-73199284D01*
X128097632Y-73272695D01*
X128097634Y-73272695D01*
X128097635Y-73272696D01*
X128251015Y-73310500D01*
X128251016Y-73310500D01*
X128408984Y-73310500D01*
X128408985Y-73310500D01*
X128562365Y-73272696D01*
X128702240Y-73199283D01*
X128797409Y-73114971D01*
X128866411Y-73080511D01*
X128896214Y-73077500D01*
X135185395Y-73077500D01*
X135215971Y-73080671D01*
X135224184Y-73082393D01*
X135251390Y-73079001D01*
X135254262Y-73078644D01*
X135270445Y-73077639D01*
X135271278Y-73077500D01*
X135271281Y-73077500D01*
X135291413Y-73074140D01*
X135297451Y-73073260D01*
X135349203Y-73066810D01*
X135349202Y-73066810D01*
X135357187Y-73065815D01*
X135364266Y-73061983D01*
X135364269Y-73061983D01*
X135410150Y-73037152D01*
X135415517Y-73034389D01*
X135462389Y-73011476D01*
X135462390Y-73011474D01*
X135469619Y-73007941D01*
X135475068Y-73002021D01*
X135475071Y-73002020D01*
X135510394Y-72963647D01*
X135514611Y-72959252D01*
X137169723Y-71304141D01*
X137236519Y-71265577D01*
X137275083Y-71260500D01*
X137408984Y-71260500D01*
X137408985Y-71260500D01*
X137562365Y-71222696D01*
X137702240Y-71149283D01*
X137820483Y-71044530D01*
X137910220Y-70914523D01*
X137916165Y-70898849D01*
X137966236Y-70766821D01*
X137966236Y-70766820D01*
X137966237Y-70766818D01*
X137985278Y-70610000D01*
X137966237Y-70453182D01*
X137966236Y-70453180D01*
X137966236Y-70453178D01*
X137910221Y-70305478D01*
X137820484Y-70175472D01*
X137820483Y-70175470D01*
X137702240Y-70070717D01*
X137702238Y-70070716D01*
X137702237Y-70070715D01*
X137562367Y-69997304D01*
X137460111Y-69972101D01*
X137408985Y-69959500D01*
X137251015Y-69959500D01*
X137212670Y-69968951D01*
X137097632Y-69997304D01*
X136957762Y-70070715D01*
X136839515Y-70175472D01*
X136749778Y-70305478D01*
X136693763Y-70453178D01*
X136674722Y-70610000D01*
X136679123Y-70646247D01*
X136668285Y-70722610D01*
X136636568Y-70769564D01*
X135127275Y-72278859D01*
X135060480Y-72317423D01*
X135021916Y-72322500D01*
X128965659Y-72322500D01*
X128891159Y-72302538D01*
X128843036Y-72258144D01*
X128820483Y-72225470D01*
X128702240Y-72120717D01*
X128702238Y-72120716D01*
X128702237Y-72120715D01*
X128562367Y-72047304D01*
X128460111Y-72022101D01*
X128408985Y-72009500D01*
X128251015Y-72009500D01*
X128212669Y-72018951D01*
X128097632Y-72047304D01*
X127957762Y-72120715D01*
X127957759Y-72120717D01*
X127957760Y-72120717D01*
X127843667Y-72221794D01*
X127839515Y-72225472D01*
X127749778Y-72355478D01*
X127693763Y-72503178D01*
X127674722Y-72660000D01*
X124985062Y-72660000D01*
X125001462Y-72598793D01*
X125025137Y-72567938D01*
X129645612Y-67947462D01*
X129662322Y-67934077D01*
X129711950Y-67881228D01*
X129715180Y-67877894D01*
X129734632Y-67858444D01*
X129737499Y-67854746D01*
X129740608Y-67851222D01*
X129740238Y-67851668D01*
X129745535Y-67845463D01*
X129774955Y-67814136D01*
X129783792Y-67798059D01*
X129796631Y-67778515D01*
X129799381Y-67774968D01*
X129807879Y-67764014D01*
X129824944Y-67724576D01*
X129831116Y-67711976D01*
X129851820Y-67674318D01*
X129856384Y-67656537D01*
X129863954Y-67634430D01*
X129871245Y-67617583D01*
X129877968Y-67575130D01*
X129880814Y-67561394D01*
X129891500Y-67519777D01*
X129891500Y-67501423D01*
X129893335Y-67478113D01*
X129893471Y-67477250D01*
X129896205Y-67459993D01*
X129892161Y-67417210D01*
X129891500Y-67403189D01*
X129891500Y-63969999D01*
X130884570Y-63969999D01*
X130904243Y-64182307D01*
X130962595Y-64387391D01*
X131057633Y-64578254D01*
X131186127Y-64748406D01*
X131343699Y-64892053D01*
X131524975Y-65004295D01*
X131524978Y-65004296D01*
X131524981Y-65004298D01*
X131723802Y-65081321D01*
X131933390Y-65120500D01*
X132146610Y-65120500D01*
X132356198Y-65081321D01*
X132555019Y-65004298D01*
X132736302Y-64892052D01*
X132893872Y-64748407D01*
X133022366Y-64578255D01*
X133117405Y-64387389D01*
X133166689Y-64214176D01*
X133206276Y-64147985D01*
X133273657Y-64110454D01*
X133350776Y-64111642D01*
X133416969Y-64151230D01*
X133453310Y-64214175D01*
X133459782Y-64236919D01*
X133502595Y-64387391D01*
X133597633Y-64578254D01*
X133726127Y-64748406D01*
X133883699Y-64892053D01*
X134064975Y-65004295D01*
X134064978Y-65004296D01*
X134064981Y-65004298D01*
X134263802Y-65081321D01*
X134473390Y-65120500D01*
X134686610Y-65120500D01*
X134896198Y-65081321D01*
X135095019Y-65004298D01*
X135276302Y-64892052D01*
X135433872Y-64748407D01*
X135562366Y-64578255D01*
X135657405Y-64387389D01*
X135706949Y-64213261D01*
X135746536Y-64147071D01*
X135813917Y-64109540D01*
X135891036Y-64110728D01*
X135957229Y-64150316D01*
X135993572Y-64213265D01*
X136043061Y-64387203D01*
X136138062Y-64577992D01*
X136146835Y-64589609D01*
X136636922Y-64099521D01*
X136660507Y-64179844D01*
X136738239Y-64300798D01*
X136846900Y-64394952D01*
X136977685Y-64454680D01*
X136987466Y-64456086D01*
X136502992Y-64940560D01*
X136605208Y-65003849D01*
X136803937Y-65080837D01*
X137013437Y-65120000D01*
X137226563Y-65120000D01*
X137436062Y-65080837D01*
X137634793Y-65003849D01*
X137737006Y-64940561D01*
X137252533Y-64456086D01*
X137262315Y-64454680D01*
X137393100Y-64394952D01*
X137501761Y-64300798D01*
X137579493Y-64179844D01*
X137603077Y-64099523D01*
X138093163Y-64589609D01*
X138101938Y-64577991D01*
X138196938Y-64387203D01*
X138255262Y-64182216D01*
X138274927Y-63970000D01*
X138255262Y-63757783D01*
X138196937Y-63552791D01*
X138101938Y-63362007D01*
X138093164Y-63350388D01*
X137603076Y-63840475D01*
X137579493Y-63760156D01*
X137501761Y-63639202D01*
X137393100Y-63545048D01*
X137262315Y-63485320D01*
X137252530Y-63483913D01*
X137737007Y-62999437D01*
X137634794Y-62936151D01*
X137436062Y-62859162D01*
X137226563Y-62820000D01*
X137013437Y-62820000D01*
X136803937Y-62859162D01*
X136605205Y-62936151D01*
X136502991Y-62999437D01*
X136987467Y-63483913D01*
X136977685Y-63485320D01*
X136846900Y-63545048D01*
X136738239Y-63639202D01*
X136660507Y-63760156D01*
X136636922Y-63840476D01*
X136146835Y-63350389D01*
X136138062Y-63362007D01*
X136043061Y-63552795D01*
X135993572Y-63726735D01*
X135953984Y-63792928D01*
X135886603Y-63830459D01*
X135809484Y-63829271D01*
X135743291Y-63789683D01*
X135706948Y-63726735D01*
X135706028Y-63723503D01*
X135657405Y-63552611D01*
X135653639Y-63545048D01*
X135562366Y-63361745D01*
X135433872Y-63191593D01*
X135276300Y-63047946D01*
X135095024Y-62935704D01*
X134975364Y-62889348D01*
X134896198Y-62858679D01*
X134896195Y-62858678D01*
X134896194Y-62858678D01*
X134686610Y-62819500D01*
X134473390Y-62819500D01*
X134263805Y-62858678D01*
X134263802Y-62858678D01*
X134263802Y-62858679D01*
X134201081Y-62882977D01*
X134064975Y-62935704D01*
X133883699Y-63047946D01*
X133726127Y-63191593D01*
X133597633Y-63361745D01*
X133502595Y-63552608D01*
X133482843Y-63622030D01*
X133453972Y-63723503D01*
X133453312Y-63725821D01*
X133413724Y-63792014D01*
X133346343Y-63829545D01*
X133269224Y-63828357D01*
X133203031Y-63788769D01*
X133166688Y-63725821D01*
X133166028Y-63723503D01*
X133117405Y-63552611D01*
X133113639Y-63545048D01*
X133022366Y-63361745D01*
X132893872Y-63191593D01*
X132736300Y-63047946D01*
X132555024Y-62935704D01*
X132435364Y-62889348D01*
X132356198Y-62858679D01*
X132356195Y-62858678D01*
X132356194Y-62858678D01*
X132146610Y-62819500D01*
X131933390Y-62819500D01*
X131723805Y-62858678D01*
X131723802Y-62858678D01*
X131723802Y-62858679D01*
X131661081Y-62882977D01*
X131524975Y-62935704D01*
X131343699Y-63047946D01*
X131186127Y-63191593D01*
X131057633Y-63361745D01*
X130962595Y-63552608D01*
X130904243Y-63757692D01*
X130884570Y-63969999D01*
X129891500Y-63969999D01*
X129891500Y-62240241D01*
X129893850Y-62218957D01*
X129891574Y-62146542D01*
X129891500Y-62141861D01*
X129891500Y-62119029D01*
X129891500Y-62114347D01*
X129890912Y-62109697D01*
X129890618Y-62105026D01*
X129890675Y-62105634D01*
X129890030Y-62097444D01*
X129888682Y-62054503D01*
X129883562Y-62036880D01*
X129878822Y-62013987D01*
X129876522Y-61995781D01*
X129860701Y-61955824D01*
X129856160Y-61942564D01*
X129844168Y-61901285D01*
X129834828Y-61885492D01*
X129824539Y-61864490D01*
X129817786Y-61847432D01*
X129792522Y-61812659D01*
X129784826Y-61800943D01*
X129762949Y-61763950D01*
X129749970Y-61750970D01*
X129734785Y-61733192D01*
X129724001Y-61718349D01*
X129690896Y-61690962D01*
X129680514Y-61681515D01*
X125373388Y-57374389D01*
X125360000Y-57357678D01*
X125307165Y-57308062D01*
X125303804Y-57304805D01*
X125287685Y-57288686D01*
X125287684Y-57288686D01*
X125284368Y-57285369D01*
X125280658Y-57282491D01*
X125277160Y-57279407D01*
X125277611Y-57279780D01*
X125271387Y-57274463D01*
X125240059Y-57245045D01*
X125223982Y-57236207D01*
X125204437Y-57223368D01*
X125189935Y-57212118D01*
X125150494Y-57195051D01*
X125137889Y-57188877D01*
X125100239Y-57168179D01*
X125082469Y-57163617D01*
X125060347Y-57156042D01*
X125043506Y-57148754D01*
X125001061Y-57142031D01*
X124987317Y-57139185D01*
X124945701Y-57128500D01*
X124945700Y-57128500D01*
X124927345Y-57128500D01*
X124904038Y-57126666D01*
X124885916Y-57123796D01*
X124843141Y-57127839D01*
X124829121Y-57128500D01*
X113163294Y-57128500D01*
X113088794Y-57108538D01*
X113057935Y-57084859D01*
X111444189Y-55471113D01*
X111405625Y-55404318D01*
X111405625Y-55327190D01*
X111444189Y-55260395D01*
X111510984Y-55221831D01*
X111576928Y-55219292D01*
X111583390Y-55220500D01*
X111583393Y-55220500D01*
X111796610Y-55220500D01*
X112006198Y-55181321D01*
X112205019Y-55104298D01*
X112209251Y-55101678D01*
X112306153Y-55041678D01*
X112386302Y-54992052D01*
X112543872Y-54848407D01*
X112672366Y-54678255D01*
X112767405Y-54487389D01*
X112816689Y-54314176D01*
X112856276Y-54247985D01*
X112923657Y-54210454D01*
X113000776Y-54211642D01*
X113066969Y-54251230D01*
X113103310Y-54314175D01*
X113127957Y-54400798D01*
X113152595Y-54487391D01*
X113247633Y-54678254D01*
X113364125Y-54832512D01*
X113376128Y-54848407D01*
X113445183Y-54911359D01*
X113533699Y-54992053D01*
X113714975Y-55104295D01*
X113714978Y-55104296D01*
X113714981Y-55104298D01*
X113913802Y-55181321D01*
X114123390Y-55220500D01*
X114336610Y-55220500D01*
X114546198Y-55181321D01*
X114745019Y-55104298D01*
X114749251Y-55101678D01*
X114846153Y-55041678D01*
X114926302Y-54992052D01*
X115083872Y-54848407D01*
X115212366Y-54678255D01*
X115256311Y-54590000D01*
X115313560Y-54475030D01*
X115314902Y-54475698D01*
X115346527Y-54422812D01*
X115413905Y-54385276D01*
X115491024Y-54386458D01*
X115557220Y-54426041D01*
X115585739Y-54475430D01*
X115586909Y-54474848D01*
X115688062Y-54677992D01*
X115696835Y-54689609D01*
X116186922Y-54199521D01*
X116210507Y-54279844D01*
X116288239Y-54400798D01*
X116396900Y-54494952D01*
X116527685Y-54554680D01*
X116537466Y-54556086D01*
X116052992Y-55040560D01*
X116155208Y-55103849D01*
X116353937Y-55180837D01*
X116563437Y-55220000D01*
X116776563Y-55220000D01*
X116986062Y-55180837D01*
X117184793Y-55103849D01*
X117287006Y-55040561D01*
X116802533Y-54556086D01*
X116812315Y-54554680D01*
X116943100Y-54494952D01*
X117051761Y-54400798D01*
X117129493Y-54279844D01*
X117153077Y-54199523D01*
X117643163Y-54689609D01*
X117651938Y-54677991D01*
X117746938Y-54487203D01*
X117805262Y-54282216D01*
X117824927Y-54069999D01*
X117824214Y-54062300D01*
X119533870Y-54062300D01*
X119553543Y-54274607D01*
X119611895Y-54479691D01*
X119706933Y-54670554D01*
X119805855Y-54801546D01*
X119835428Y-54840707D01*
X119849788Y-54853798D01*
X119992999Y-54984353D01*
X120174275Y-55096595D01*
X120174278Y-55096596D01*
X120174281Y-55096598D01*
X120373102Y-55173621D01*
X120582690Y-55212800D01*
X120795910Y-55212800D01*
X121005498Y-55173621D01*
X121204319Y-55096598D01*
X121385602Y-54984352D01*
X121543172Y-54840707D01*
X121671666Y-54670555D01*
X121766705Y-54479689D01*
X121816249Y-54305561D01*
X121855836Y-54239371D01*
X121923217Y-54201840D01*
X122000336Y-54203028D01*
X122066529Y-54242616D01*
X122102872Y-54305565D01*
X122152361Y-54479503D01*
X122247362Y-54670292D01*
X122256135Y-54681909D01*
X122746222Y-54191822D01*
X122769807Y-54272144D01*
X122847539Y-54393098D01*
X122956200Y-54487252D01*
X123086985Y-54546980D01*
X123096766Y-54548386D01*
X122612292Y-55032860D01*
X122714508Y-55096149D01*
X122913237Y-55173137D01*
X123122737Y-55212300D01*
X123335863Y-55212300D01*
X123545362Y-55173137D01*
X123744093Y-55096149D01*
X123846306Y-55032861D01*
X123361833Y-54548386D01*
X123371615Y-54546980D01*
X123502400Y-54487252D01*
X123611061Y-54393098D01*
X123688793Y-54272144D01*
X123712377Y-54191823D01*
X124202463Y-54681909D01*
X124211238Y-54670291D01*
X124306238Y-54479503D01*
X124364562Y-54274516D01*
X124381660Y-54090000D01*
X126274570Y-54090000D01*
X126294243Y-54302307D01*
X126352595Y-54507391D01*
X126447633Y-54698254D01*
X126576127Y-54868406D01*
X126733699Y-55012053D01*
X126914975Y-55124295D01*
X126914978Y-55124296D01*
X126914981Y-55124298D01*
X127113802Y-55201321D01*
X127323390Y-55240500D01*
X127536610Y-55240500D01*
X127746198Y-55201321D01*
X127945019Y-55124298D01*
X128126302Y-55012052D01*
X128283872Y-54868407D01*
X128412366Y-54698255D01*
X128507405Y-54507389D01*
X128556949Y-54333261D01*
X128596536Y-54267071D01*
X128663917Y-54229540D01*
X128741036Y-54230728D01*
X128807229Y-54270316D01*
X128843572Y-54333265D01*
X128893061Y-54507203D01*
X128988062Y-54697992D01*
X128996835Y-54709609D01*
X129486922Y-54219521D01*
X129510507Y-54299844D01*
X129588239Y-54420798D01*
X129696900Y-54514952D01*
X129827685Y-54574680D01*
X129837466Y-54576086D01*
X129352992Y-55060560D01*
X129455208Y-55123849D01*
X129653937Y-55200837D01*
X129863437Y-55240000D01*
X130076563Y-55240000D01*
X130286062Y-55200837D01*
X130484793Y-55123849D01*
X130587006Y-55060561D01*
X130102533Y-54576086D01*
X130112315Y-54574680D01*
X130243100Y-54514952D01*
X130351761Y-54420798D01*
X130429493Y-54299844D01*
X130453077Y-54219523D01*
X130943163Y-54709609D01*
X130951938Y-54697991D01*
X131046938Y-54507203D01*
X131105262Y-54302216D01*
X131124714Y-54092300D01*
X133063870Y-54092300D01*
X133083543Y-54304607D01*
X133141895Y-54509691D01*
X133236933Y-54700554D01*
X133360297Y-54863912D01*
X133365428Y-54870707D01*
X133410226Y-54911546D01*
X133522999Y-55014353D01*
X133704275Y-55126595D01*
X133704278Y-55126596D01*
X133704281Y-55126598D01*
X133903102Y-55203621D01*
X134112690Y-55242800D01*
X134325910Y-55242800D01*
X134535498Y-55203621D01*
X134734319Y-55126598D01*
X134738039Y-55124295D01*
X134826504Y-55069519D01*
X134915602Y-55014352D01*
X135073172Y-54870707D01*
X135201666Y-54700555D01*
X135296705Y-54509689D01*
X135346249Y-54335561D01*
X135385836Y-54269371D01*
X135453217Y-54231840D01*
X135530336Y-54233028D01*
X135596529Y-54272616D01*
X135632872Y-54335565D01*
X135682361Y-54509503D01*
X135777362Y-54700292D01*
X135786135Y-54711909D01*
X136276222Y-54221821D01*
X136299807Y-54302144D01*
X136377539Y-54423098D01*
X136486200Y-54517252D01*
X136616985Y-54576980D01*
X136626766Y-54578386D01*
X136142292Y-55062860D01*
X136244508Y-55126149D01*
X136443237Y-55203137D01*
X136652737Y-55242300D01*
X136865863Y-55242300D01*
X137075362Y-55203137D01*
X137274093Y-55126149D01*
X137376306Y-55062861D01*
X136891833Y-54578386D01*
X136901615Y-54576980D01*
X137032400Y-54517252D01*
X137141061Y-54423098D01*
X137218793Y-54302144D01*
X137242377Y-54221823D01*
X137732463Y-54711909D01*
X137741238Y-54700291D01*
X137836238Y-54509503D01*
X137894562Y-54304516D01*
X137914227Y-54092300D01*
X137894562Y-53880083D01*
X137836237Y-53675091D01*
X137741238Y-53484307D01*
X137732464Y-53472688D01*
X137242376Y-53962775D01*
X137218793Y-53882456D01*
X137141061Y-53761502D01*
X137032400Y-53667348D01*
X136901615Y-53607620D01*
X136891830Y-53606213D01*
X137376307Y-53121737D01*
X137274094Y-53058451D01*
X137075362Y-52981462D01*
X136865863Y-52942300D01*
X136652737Y-52942300D01*
X136443237Y-52981462D01*
X136244505Y-53058451D01*
X136142291Y-53121737D01*
X136626767Y-53606213D01*
X136616985Y-53607620D01*
X136486200Y-53667348D01*
X136377539Y-53761502D01*
X136299807Y-53882456D01*
X136276222Y-53962776D01*
X135786135Y-53472689D01*
X135777362Y-53484307D01*
X135682361Y-53675095D01*
X135632872Y-53849035D01*
X135593284Y-53915228D01*
X135525903Y-53952759D01*
X135448784Y-53951571D01*
X135382591Y-53911983D01*
X135346248Y-53849035D01*
X135339643Y-53825822D01*
X135296705Y-53674911D01*
X135295651Y-53672795D01*
X135201666Y-53484045D01*
X135073172Y-53313893D01*
X134915600Y-53170246D01*
X134734324Y-53058004D01*
X134728382Y-53055702D01*
X134535498Y-52980979D01*
X134535495Y-52980978D01*
X134535494Y-52980978D01*
X134325910Y-52941800D01*
X134112690Y-52941800D01*
X133903105Y-52980978D01*
X133903102Y-52980978D01*
X133903102Y-52980979D01*
X133836828Y-53006653D01*
X133704275Y-53058004D01*
X133522999Y-53170246D01*
X133365427Y-53313893D01*
X133236933Y-53484045D01*
X133141895Y-53674908D01*
X133083543Y-53879992D01*
X133063870Y-54092300D01*
X131124714Y-54092300D01*
X131124927Y-54089999D01*
X131105262Y-53877783D01*
X131046937Y-53672791D01*
X130951938Y-53482007D01*
X130943164Y-53470388D01*
X130453076Y-53960475D01*
X130429493Y-53880156D01*
X130351761Y-53759202D01*
X130243100Y-53665048D01*
X130112315Y-53605320D01*
X130102530Y-53603913D01*
X130587007Y-53119437D01*
X130484794Y-53056151D01*
X130286062Y-52979162D01*
X130076563Y-52940000D01*
X129863437Y-52940000D01*
X129653937Y-52979162D01*
X129455205Y-53056151D01*
X129352991Y-53119437D01*
X129837467Y-53603913D01*
X129827685Y-53605320D01*
X129696900Y-53665048D01*
X129588239Y-53759202D01*
X129510507Y-53880156D01*
X129486922Y-53960476D01*
X128996835Y-53470389D01*
X128988062Y-53482007D01*
X128893061Y-53672795D01*
X128843572Y-53846735D01*
X128803984Y-53912928D01*
X128736603Y-53950459D01*
X128659484Y-53949271D01*
X128593291Y-53909683D01*
X128556948Y-53846735D01*
X128550997Y-53825821D01*
X128507405Y-53672611D01*
X128504784Y-53667348D01*
X128412366Y-53481745D01*
X128283872Y-53311593D01*
X128126300Y-53167946D01*
X127945024Y-53055704D01*
X127945019Y-53055702D01*
X127746198Y-52978679D01*
X127746195Y-52978678D01*
X127746194Y-52978678D01*
X127536610Y-52939500D01*
X127323390Y-52939500D01*
X127113805Y-52978678D01*
X127113802Y-52978678D01*
X127113802Y-52978679D01*
X127047528Y-53004353D01*
X126914975Y-53055704D01*
X126733699Y-53167946D01*
X126576127Y-53311593D01*
X126447633Y-53481745D01*
X126352595Y-53672608D01*
X126294243Y-53877692D01*
X126274570Y-54090000D01*
X124381660Y-54090000D01*
X124384227Y-54062300D01*
X124364562Y-53850083D01*
X124306237Y-53645091D01*
X124211238Y-53454307D01*
X124202464Y-53442688D01*
X123712376Y-53932775D01*
X123688793Y-53852456D01*
X123611061Y-53731502D01*
X123502400Y-53637348D01*
X123371615Y-53577620D01*
X123361830Y-53576213D01*
X123846307Y-53091737D01*
X123744094Y-53028451D01*
X123545362Y-52951462D01*
X123335863Y-52912300D01*
X123122737Y-52912300D01*
X122913237Y-52951462D01*
X122714505Y-53028451D01*
X122612291Y-53091737D01*
X123096767Y-53576213D01*
X123086985Y-53577620D01*
X122956200Y-53637348D01*
X122847539Y-53731502D01*
X122769807Y-53852456D01*
X122746223Y-53932776D01*
X122256135Y-53442689D01*
X122247362Y-53454307D01*
X122152361Y-53645095D01*
X122102872Y-53819035D01*
X122063284Y-53885228D01*
X121995903Y-53922759D01*
X121918784Y-53921571D01*
X121852591Y-53881983D01*
X121816248Y-53819035D01*
X121809500Y-53795320D01*
X121766705Y-53644911D01*
X121762939Y-53637348D01*
X121671666Y-53454045D01*
X121543172Y-53283893D01*
X121385600Y-53140246D01*
X121204324Y-53028004D01*
X121204319Y-53028002D01*
X121005498Y-52950979D01*
X121005495Y-52950978D01*
X121005494Y-52950978D01*
X120795910Y-52911800D01*
X120582690Y-52911800D01*
X120373105Y-52950978D01*
X120373102Y-52950978D01*
X120373102Y-52950979D01*
X120353226Y-52958679D01*
X120174275Y-53028004D01*
X119992999Y-53140246D01*
X119835427Y-53283893D01*
X119706933Y-53454045D01*
X119611895Y-53644908D01*
X119553543Y-53849992D01*
X119533870Y-54062300D01*
X117824214Y-54062300D01*
X117805262Y-53857783D01*
X117746937Y-53652791D01*
X117651938Y-53462007D01*
X117643164Y-53450388D01*
X117153076Y-53940475D01*
X117129493Y-53860156D01*
X117051761Y-53739202D01*
X116943100Y-53645048D01*
X116812315Y-53585320D01*
X116802530Y-53583913D01*
X117287007Y-53099437D01*
X117184794Y-53036151D01*
X116986062Y-52959162D01*
X116776563Y-52920000D01*
X116563437Y-52920000D01*
X116353937Y-52959162D01*
X116155205Y-53036151D01*
X116052991Y-53099437D01*
X116537467Y-53583913D01*
X116527685Y-53585320D01*
X116396900Y-53645048D01*
X116288239Y-53739202D01*
X116210507Y-53860156D01*
X116186922Y-53940476D01*
X115696835Y-53450389D01*
X115688062Y-53462007D01*
X115586909Y-53665152D01*
X115585522Y-53664461D01*
X115553974Y-53717204D01*
X115486589Y-53754729D01*
X115409471Y-53753534D01*
X115343281Y-53713941D01*
X115314688Y-53664408D01*
X115313560Y-53664970D01*
X115212366Y-53461745D01*
X115083872Y-53291593D01*
X114926300Y-53147946D01*
X114745024Y-53035704D01*
X114725143Y-53028002D01*
X114546198Y-52958679D01*
X114546195Y-52958678D01*
X114546194Y-52958678D01*
X114336610Y-52919500D01*
X114123390Y-52919500D01*
X113913805Y-52958678D01*
X113913802Y-52958678D01*
X113913802Y-52958679D01*
X113863714Y-52978083D01*
X113714975Y-53035704D01*
X113533699Y-53147946D01*
X113376127Y-53291593D01*
X113247633Y-53461745D01*
X113152595Y-53652608D01*
X113128087Y-53738745D01*
X113105243Y-53819035D01*
X113103312Y-53825821D01*
X113063724Y-53892014D01*
X112996343Y-53929545D01*
X112919224Y-53928357D01*
X112853031Y-53888769D01*
X112816688Y-53825821D01*
X112814757Y-53819035D01*
X112767405Y-53652611D01*
X112767403Y-53652607D01*
X112672366Y-53461745D01*
X112543872Y-53291593D01*
X112386300Y-53147946D01*
X112205024Y-53035704D01*
X112185143Y-53028002D01*
X112006198Y-52958679D01*
X112006195Y-52958678D01*
X112006194Y-52958678D01*
X111796610Y-52919500D01*
X111583390Y-52919500D01*
X111373805Y-52958678D01*
X111373802Y-52958678D01*
X111373802Y-52958679D01*
X111323714Y-52978083D01*
X111174975Y-53035704D01*
X110993699Y-53147946D01*
X110836127Y-53291593D01*
X110707633Y-53461745D01*
X110612595Y-53652607D01*
X110563311Y-53825822D01*
X110523722Y-53892014D01*
X110456341Y-53929545D01*
X110379222Y-53928357D01*
X110313030Y-53888768D01*
X110276689Y-53825823D01*
X110240371Y-53698180D01*
X110227405Y-53652609D01*
X110132366Y-53461745D01*
X110003872Y-53291593D01*
X109846300Y-53147946D01*
X109665024Y-53035704D01*
X109645143Y-53028002D01*
X109466198Y-52958679D01*
X109466195Y-52958678D01*
X109466194Y-52958678D01*
X109256610Y-52919500D01*
X109043390Y-52919500D01*
X108833805Y-52958678D01*
X108833802Y-52958678D01*
X108833802Y-52958679D01*
X108783714Y-52978083D01*
X108634975Y-53035704D01*
X108453699Y-53147946D01*
X108296127Y-53291593D01*
X108167633Y-53461745D01*
X108072595Y-53652608D01*
X108014243Y-53857692D01*
X107994570Y-54070000D01*
X107017500Y-54070000D01*
X107017500Y-52814604D01*
X107020671Y-52784028D01*
X107022393Y-52775816D01*
X107018644Y-52745739D01*
X107017639Y-52729552D01*
X107014142Y-52708598D01*
X107013258Y-52702538D01*
X107006809Y-52650797D01*
X107006808Y-52650795D01*
X107005812Y-52642804D01*
X106977189Y-52589916D01*
X106974369Y-52584440D01*
X106951476Y-52537611D01*
X106951473Y-52537608D01*
X106947937Y-52530375D01*
X106903674Y-52489628D01*
X106899229Y-52485364D01*
X105835541Y-51421675D01*
X105816165Y-51397814D01*
X105811576Y-51390791D01*
X105811574Y-51390789D01*
X105787658Y-51372174D01*
X105775504Y-51361441D01*
X105774814Y-51360948D01*
X105758181Y-51349072D01*
X105753300Y-51345432D01*
X105712155Y-51313408D01*
X105712153Y-51313407D01*
X105705801Y-51308463D01*
X105648134Y-51291294D01*
X105642272Y-51289416D01*
X105585383Y-51269886D01*
X105525266Y-51272373D01*
X105519109Y-51272500D01*
X97244600Y-51272500D01*
X97214024Y-51269329D01*
X97205816Y-51267608D01*
X97205815Y-51267608D01*
X97175746Y-51271356D01*
X97159554Y-51272361D01*
X97158721Y-51272500D01*
X97158719Y-51272500D01*
X97138583Y-51275859D01*
X97132506Y-51276745D01*
X97072809Y-51284186D01*
X97019886Y-51312826D01*
X97014428Y-51315634D01*
X96994775Y-51325242D01*
X96960378Y-51342059D01*
X96919638Y-51386314D01*
X96915377Y-51390755D01*
X84287275Y-64018859D01*
X84220480Y-64057423D01*
X84181916Y-64062500D01*
X82033669Y-64062500D01*
X81959169Y-64042538D01*
X81904631Y-63988000D01*
X81900290Y-63979915D01*
X81895228Y-63969749D01*
X81839673Y-63858179D01*
X81752464Y-63742695D01*
X81716764Y-63695420D01*
X81629883Y-63616218D01*
X81566041Y-63558019D01*
X81557604Y-63552795D01*
X81392641Y-63450654D01*
X81392638Y-63450653D01*
X81392637Y-63450652D01*
X81202456Y-63376976D01*
X81202453Y-63376975D01*
X81202452Y-63376975D01*
X81001976Y-63339500D01*
X80798024Y-63339500D01*
X80597547Y-63376975D01*
X80407358Y-63450654D01*
X80233961Y-63558017D01*
X80083235Y-63695420D01*
X79960326Y-63858180D01*
X79869418Y-64040747D01*
X79813602Y-64236919D01*
X79794784Y-64440000D01*
X77003865Y-64440000D01*
X79122724Y-62321141D01*
X79189520Y-62282577D01*
X79228084Y-62277500D01*
X79766331Y-62277500D01*
X79840831Y-62297462D01*
X79895369Y-62352000D01*
X79899710Y-62360085D01*
X79960327Y-62481821D01*
X80001856Y-62536814D01*
X80083235Y-62644579D01*
X80162437Y-62716780D01*
X80233959Y-62781981D01*
X80407363Y-62889348D01*
X80597544Y-62963024D01*
X80798024Y-63000500D01*
X81001976Y-63000500D01*
X81202456Y-62963024D01*
X81392637Y-62889348D01*
X81566041Y-62781981D01*
X81716764Y-62644579D01*
X81839673Y-62481821D01*
X81930582Y-62299250D01*
X81986397Y-62103083D01*
X82005215Y-61900000D01*
X81986397Y-61696917D01*
X81930582Y-61500750D01*
X81839673Y-61318179D01*
X81757378Y-61209203D01*
X81716764Y-61155420D01*
X81596071Y-61045395D01*
X81566041Y-61018019D01*
X81445905Y-60943634D01*
X81392641Y-60910654D01*
X81392638Y-60910653D01*
X81392637Y-60910652D01*
X81202456Y-60836976D01*
X81202453Y-60836975D01*
X81202452Y-60836975D01*
X81001976Y-60799500D01*
X80798024Y-60799500D01*
X80597547Y-60836975D01*
X80407358Y-60910654D01*
X80233961Y-61018017D01*
X80083235Y-61155420D01*
X79960326Y-61318180D01*
X79899710Y-61439915D01*
X79848634Y-61497707D01*
X79775504Y-61522217D01*
X79766331Y-61522500D01*
X79064605Y-61522500D01*
X79034029Y-61519329D01*
X79025816Y-61517607D01*
X78995738Y-61521356D01*
X78979546Y-61522361D01*
X78958600Y-61525855D01*
X78952518Y-61526741D01*
X78892813Y-61534184D01*
X78839894Y-61562822D01*
X78834432Y-61565633D01*
X78796608Y-61584125D01*
X78780378Y-61592060D01*
X78739627Y-61636326D01*
X78735366Y-61640767D01*
X64861674Y-75514458D01*
X64837818Y-75533832D01*
X64830790Y-75538424D01*
X64812170Y-75562346D01*
X64801438Y-75574500D01*
X64789091Y-75591792D01*
X64785414Y-75596722D01*
X64748464Y-75644196D01*
X64731302Y-75701842D01*
X64729424Y-75707704D01*
X64709886Y-75764616D01*
X64712373Y-75824733D01*
X64712500Y-75830890D01*
X64712500Y-77750359D01*
X64692538Y-77824859D01*
X64638000Y-77879397D01*
X64617325Y-77889297D01*
X64574982Y-77905700D01*
X64393697Y-78017947D01*
X64236127Y-78161593D01*
X64107633Y-78331745D01*
X64012595Y-78522608D01*
X63985745Y-78616976D01*
X63964783Y-78690652D01*
X63963312Y-78695821D01*
X63923724Y-78762014D01*
X63856343Y-78799545D01*
X63779224Y-78798357D01*
X63713031Y-78758769D01*
X63676688Y-78695821D01*
X63675217Y-78690652D01*
X63627405Y-78522611D01*
X63623639Y-78515048D01*
X63532366Y-78331745D01*
X63403872Y-78161593D01*
X63246300Y-78017946D01*
X63065024Y-77905704D01*
X63015651Y-77886577D01*
X62866198Y-77828679D01*
X62866195Y-77828678D01*
X62866194Y-77828678D01*
X62656610Y-77789500D01*
X62443390Y-77789500D01*
X62233805Y-77828678D01*
X62233802Y-77828678D01*
X62233802Y-77828679D01*
X62213743Y-77836450D01*
X62034975Y-77905704D01*
X61853699Y-78017946D01*
X61696127Y-78161593D01*
X61567633Y-78331745D01*
X61472595Y-78522608D01*
X61414243Y-78727692D01*
X61394570Y-78939999D01*
X60557500Y-78939999D01*
X60557500Y-73764604D01*
X60560671Y-73734029D01*
X60560782Y-73733496D01*
X60562393Y-73725816D01*
X60558644Y-73695748D01*
X60557640Y-73679560D01*
X60554143Y-73658606D01*
X60553259Y-73652538D01*
X60546810Y-73600797D01*
X60546809Y-73600795D01*
X60545814Y-73592811D01*
X60541983Y-73585732D01*
X60541983Y-73585731D01*
X60517170Y-73539881D01*
X60514384Y-73534470D01*
X60491476Y-73487611D01*
X60491473Y-73487608D01*
X60487937Y-73480374D01*
X60443674Y-73439628D01*
X60439229Y-73435364D01*
X58482044Y-71478179D01*
X56868866Y-69865000D01*
X61373370Y-69865000D01*
X61393043Y-70077307D01*
X61451395Y-70282391D01*
X61546433Y-70473254D01*
X61674927Y-70643406D01*
X61832499Y-70787053D01*
X62013775Y-70899295D01*
X62013778Y-70899296D01*
X62013781Y-70899298D01*
X62212602Y-70976321D01*
X62422190Y-71015500D01*
X62635410Y-71015500D01*
X62844998Y-70976321D01*
X63043819Y-70899298D01*
X63225102Y-70787052D01*
X63382672Y-70643407D01*
X63511166Y-70473255D01*
X63565070Y-70365000D01*
X63606205Y-70282390D01*
X63624368Y-70218553D01*
X63655489Y-70109174D01*
X63695074Y-70042986D01*
X63762455Y-70005454D01*
X63839574Y-70006642D01*
X63905767Y-70046229D01*
X63942111Y-70109178D01*
X63991395Y-70282390D01*
X64086433Y-70473254D01*
X64214927Y-70643406D01*
X64372499Y-70787053D01*
X64553775Y-70899295D01*
X64553778Y-70899296D01*
X64553781Y-70899298D01*
X64752602Y-70976321D01*
X64962190Y-71015500D01*
X65175410Y-71015500D01*
X65384998Y-70976321D01*
X65583819Y-70899298D01*
X65765102Y-70787052D01*
X65922672Y-70643407D01*
X66051166Y-70473255D01*
X66146205Y-70282389D01*
X66195749Y-70108261D01*
X66235336Y-70042071D01*
X66302717Y-70004540D01*
X66379836Y-70005728D01*
X66446029Y-70045316D01*
X66482372Y-70108265D01*
X66531861Y-70282203D01*
X66626862Y-70472992D01*
X66635635Y-70484609D01*
X67125722Y-69994521D01*
X67149307Y-70074844D01*
X67227039Y-70195798D01*
X67335700Y-70289952D01*
X67466485Y-70349680D01*
X67476266Y-70351086D01*
X66991792Y-70835560D01*
X67094008Y-70898849D01*
X67292737Y-70975837D01*
X67502237Y-71015000D01*
X67715363Y-71015000D01*
X67924862Y-70975837D01*
X68123593Y-70898849D01*
X68225806Y-70835561D01*
X67741333Y-70351086D01*
X67751115Y-70349680D01*
X67881900Y-70289952D01*
X67990561Y-70195798D01*
X68068293Y-70074844D01*
X68091877Y-69994523D01*
X68581963Y-70484609D01*
X68590738Y-70472991D01*
X68685738Y-70282203D01*
X68744062Y-70077216D01*
X68763727Y-69864999D01*
X68744062Y-69652783D01*
X68685737Y-69447791D01*
X68590738Y-69257007D01*
X68581964Y-69245388D01*
X68091876Y-69735475D01*
X68068293Y-69655156D01*
X67990561Y-69534202D01*
X67881900Y-69440048D01*
X67751115Y-69380320D01*
X67741330Y-69378913D01*
X68225807Y-68894437D01*
X68123594Y-68831151D01*
X67924862Y-68754162D01*
X67715363Y-68715000D01*
X67502237Y-68715000D01*
X67292737Y-68754162D01*
X67094005Y-68831151D01*
X66991791Y-68894437D01*
X67476267Y-69378913D01*
X67466485Y-69380320D01*
X67335700Y-69440048D01*
X67227039Y-69534202D01*
X67149307Y-69655156D01*
X67125722Y-69735476D01*
X66635635Y-69245389D01*
X66626862Y-69257007D01*
X66531861Y-69447795D01*
X66482372Y-69621735D01*
X66442784Y-69687928D01*
X66375403Y-69725459D01*
X66298284Y-69724271D01*
X66232091Y-69684683D01*
X66195748Y-69621735D01*
X66188161Y-69595071D01*
X66146205Y-69447611D01*
X66142439Y-69440048D01*
X66051166Y-69256745D01*
X65922672Y-69086593D01*
X65765102Y-68942947D01*
X65583820Y-68830702D01*
X65541475Y-68814298D01*
X65479216Y-68768771D01*
X65448062Y-68698215D01*
X65446299Y-68675371D01*
X65446299Y-67449281D01*
X65466261Y-67374782D01*
X65489936Y-67343927D01*
X73052724Y-59781141D01*
X73119520Y-59742577D01*
X73158084Y-59737500D01*
X79766331Y-59737500D01*
X79840831Y-59757462D01*
X79895369Y-59812000D01*
X79899710Y-59820085D01*
X79960327Y-59941821D01*
X80001856Y-59996814D01*
X80083235Y-60104579D01*
X80162437Y-60176780D01*
X80233959Y-60241981D01*
X80407363Y-60349348D01*
X80597544Y-60423024D01*
X80798024Y-60460500D01*
X81001976Y-60460500D01*
X81202456Y-60423024D01*
X81392637Y-60349348D01*
X81566041Y-60241981D01*
X81716764Y-60104579D01*
X81839673Y-59941821D01*
X81930582Y-59759250D01*
X81986397Y-59563083D01*
X82005215Y-59360000D01*
X81986397Y-59156917D01*
X81930582Y-58960750D01*
X81839673Y-58778179D01*
X81778218Y-58696800D01*
X81716764Y-58615420D01*
X81629883Y-58536218D01*
X81566041Y-58478019D01*
X81458548Y-58411462D01*
X81392641Y-58370654D01*
X81392638Y-58370653D01*
X81392637Y-58370652D01*
X81202456Y-58296976D01*
X81202453Y-58296975D01*
X81202452Y-58296975D01*
X81001976Y-58259500D01*
X80798024Y-58259500D01*
X80597547Y-58296975D01*
X80597544Y-58296975D01*
X80597544Y-58296976D01*
X80444201Y-58356381D01*
X80407358Y-58370654D01*
X80233961Y-58478017D01*
X80083235Y-58615420D01*
X79960326Y-58778180D01*
X79899710Y-58899915D01*
X79848634Y-58957707D01*
X79775504Y-58982217D01*
X79766331Y-58982500D01*
X72994605Y-58982500D01*
X72964029Y-58979329D01*
X72955816Y-58977607D01*
X72925738Y-58981356D01*
X72909546Y-58982361D01*
X72888600Y-58985855D01*
X72882518Y-58986741D01*
X72822813Y-58994184D01*
X72769894Y-59022822D01*
X72764432Y-59025633D01*
X72726608Y-59044125D01*
X72710378Y-59052060D01*
X72669627Y-59096326D01*
X72665366Y-59100767D01*
X64840474Y-66925658D01*
X64816618Y-66945032D01*
X64809590Y-66949624D01*
X64790970Y-66973546D01*
X64780238Y-66985700D01*
X64767891Y-67002992D01*
X64764214Y-67007922D01*
X64727264Y-67055396D01*
X64710102Y-67113042D01*
X64708224Y-67118904D01*
X64688686Y-67175816D01*
X64691173Y-67235933D01*
X64691300Y-67242090D01*
X64691300Y-68675359D01*
X64671338Y-68749859D01*
X64616800Y-68804397D01*
X64596125Y-68814297D01*
X64553782Y-68830700D01*
X64372497Y-68942947D01*
X64214927Y-69086593D01*
X64086433Y-69256745D01*
X63991395Y-69447608D01*
X63942112Y-69620821D01*
X63902524Y-69687014D01*
X63835143Y-69724545D01*
X63758024Y-69723357D01*
X63691831Y-69683769D01*
X63655488Y-69620821D01*
X63648161Y-69595071D01*
X63606205Y-69447611D01*
X63602439Y-69440048D01*
X63511166Y-69256745D01*
X63382672Y-69086593D01*
X63225100Y-68942946D01*
X63043824Y-68830704D01*
X63001472Y-68814297D01*
X62844998Y-68753679D01*
X62844995Y-68753678D01*
X62844994Y-68753678D01*
X62635410Y-68714500D01*
X62422190Y-68714500D01*
X62212605Y-68753678D01*
X62212602Y-68753678D01*
X62212602Y-68753679D01*
X62181275Y-68765815D01*
X62013775Y-68830704D01*
X61832499Y-68942946D01*
X61674927Y-69086593D01*
X61546433Y-69256745D01*
X61451395Y-69447608D01*
X61393043Y-69652692D01*
X61373370Y-69865000D01*
X56868866Y-69865000D01*
X56251138Y-69247272D01*
X56212576Y-69180480D01*
X56207500Y-69141923D01*
X56207500Y-56819999D01*
X79794784Y-56819999D01*
X79813602Y-57023080D01*
X79869418Y-57219252D01*
X79954690Y-57390500D01*
X79960327Y-57401821D01*
X80001856Y-57456814D01*
X80083235Y-57564579D01*
X80162437Y-57636780D01*
X80233959Y-57701981D01*
X80407363Y-57809348D01*
X80597544Y-57883024D01*
X80798024Y-57920500D01*
X81001976Y-57920500D01*
X81202456Y-57883024D01*
X81392637Y-57809348D01*
X81566041Y-57701981D01*
X81716764Y-57564579D01*
X81839673Y-57401821D01*
X81930582Y-57219250D01*
X81986397Y-57023083D01*
X82005215Y-56820000D01*
X81986397Y-56616917D01*
X81930582Y-56420750D01*
X81901848Y-56363045D01*
X81876952Y-56313045D01*
X81839673Y-56238179D01*
X81766138Y-56140803D01*
X81716764Y-56075420D01*
X81577383Y-55948359D01*
X81566041Y-55938019D01*
X81566038Y-55938017D01*
X81392641Y-55830654D01*
X81392638Y-55830653D01*
X81392637Y-55830652D01*
X81202456Y-55756976D01*
X81202453Y-55756975D01*
X81202452Y-55756975D01*
X81001976Y-55719500D01*
X80798024Y-55719500D01*
X80597547Y-55756975D01*
X80597544Y-55756975D01*
X80597544Y-55756976D01*
X80417459Y-55826741D01*
X80407358Y-55830654D01*
X80233961Y-55938017D01*
X80083235Y-56075420D01*
X79960326Y-56238180D01*
X79869418Y-56420747D01*
X79813602Y-56616919D01*
X79794784Y-56819999D01*
X56207500Y-56819999D01*
X56207500Y-56518250D01*
X56227462Y-56443750D01*
X56282000Y-56389212D01*
X56356500Y-56369250D01*
X56377860Y-56369250D01*
X56587448Y-56330071D01*
X56786269Y-56253048D01*
X56789897Y-56250802D01*
X56967550Y-56140803D01*
X56967549Y-56140803D01*
X56967552Y-56140802D01*
X57125122Y-55997157D01*
X57253616Y-55827005D01*
X57348655Y-55636139D01*
X57397939Y-55462926D01*
X57437526Y-55396735D01*
X57504907Y-55359204D01*
X57582026Y-55360392D01*
X57648219Y-55399980D01*
X57684560Y-55462925D01*
X57706791Y-55541057D01*
X57733845Y-55636141D01*
X57828883Y-55827004D01*
X57957377Y-55997156D01*
X58114949Y-56140803D01*
X58296225Y-56253045D01*
X58296228Y-56253046D01*
X58296231Y-56253048D01*
X58495052Y-56330071D01*
X58704640Y-56369250D01*
X58917860Y-56369250D01*
X59127448Y-56330071D01*
X59326269Y-56253048D01*
X59329897Y-56250802D01*
X59507550Y-56140803D01*
X59507549Y-56140803D01*
X59507552Y-56140802D01*
X59665122Y-55997157D01*
X59793616Y-55827005D01*
X59888655Y-55636139D01*
X59947006Y-55431060D01*
X59961119Y-55278750D01*
X62486322Y-55278750D01*
X62505987Y-55490966D01*
X62564311Y-55695953D01*
X62659312Y-55886742D01*
X62668085Y-55898359D01*
X63158172Y-55408271D01*
X63181757Y-55488594D01*
X63259489Y-55609548D01*
X63368150Y-55703702D01*
X63498935Y-55763430D01*
X63508716Y-55764836D01*
X63024242Y-56249310D01*
X63126458Y-56312599D01*
X63325187Y-56389587D01*
X63534687Y-56428750D01*
X63747813Y-56428750D01*
X63957312Y-56389587D01*
X64156043Y-56312599D01*
X64258256Y-56249311D01*
X63773783Y-55764836D01*
X63783565Y-55763430D01*
X63914350Y-55703702D01*
X64023011Y-55609548D01*
X64100743Y-55488594D01*
X64124326Y-55408273D01*
X64614413Y-55898359D01*
X64623188Y-55886741D01*
X64718188Y-55695953D01*
X64767677Y-55522015D01*
X64807264Y-55455822D01*
X64874645Y-55418291D01*
X64951764Y-55419478D01*
X65017957Y-55459065D01*
X65054301Y-55522014D01*
X65103845Y-55696140D01*
X65198883Y-55887004D01*
X65327377Y-56057156D01*
X65484949Y-56200803D01*
X65666225Y-56313045D01*
X65666228Y-56313046D01*
X65666231Y-56313048D01*
X65865052Y-56390071D01*
X66074640Y-56429250D01*
X66287860Y-56429250D01*
X66497448Y-56390071D01*
X66696269Y-56313048D01*
X66877552Y-56200802D01*
X67035122Y-56057157D01*
X67163616Y-55887005D01*
X67258655Y-55696139D01*
X67307939Y-55522926D01*
X67347526Y-55456735D01*
X67414907Y-55419204D01*
X67492026Y-55420392D01*
X67558219Y-55459980D01*
X67594560Y-55522925D01*
X67602136Y-55549548D01*
X67643845Y-55696141D01*
X67738883Y-55887004D01*
X67867377Y-56057156D01*
X68024949Y-56200803D01*
X68206225Y-56313045D01*
X68206228Y-56313046D01*
X68206231Y-56313048D01*
X68405052Y-56390071D01*
X68614640Y-56429250D01*
X68827860Y-56429250D01*
X69037448Y-56390071D01*
X69236269Y-56313048D01*
X69417552Y-56200802D01*
X69575122Y-56057157D01*
X69703616Y-55887005D01*
X69798655Y-55696139D01*
X69857006Y-55491060D01*
X69872046Y-55328749D01*
X72386322Y-55328749D01*
X72405987Y-55540966D01*
X72464311Y-55745953D01*
X72559312Y-55936742D01*
X72568085Y-55948359D01*
X73058172Y-55458272D01*
X73081757Y-55538594D01*
X73159489Y-55659548D01*
X73268150Y-55753702D01*
X73398935Y-55813430D01*
X73408716Y-55814836D01*
X72924242Y-56299310D01*
X73026458Y-56362599D01*
X73225187Y-56439587D01*
X73434687Y-56478750D01*
X73647813Y-56478750D01*
X73857312Y-56439587D01*
X74056043Y-56362599D01*
X74158256Y-56299311D01*
X73673783Y-55814836D01*
X73683565Y-55813430D01*
X73814350Y-55753702D01*
X73923011Y-55659548D01*
X74000743Y-55538594D01*
X74024327Y-55458273D01*
X74514413Y-55948359D01*
X74523188Y-55936741D01*
X74618188Y-55745953D01*
X74667677Y-55572015D01*
X74707264Y-55505822D01*
X74774645Y-55468291D01*
X74851764Y-55469478D01*
X74917957Y-55509065D01*
X74954301Y-55572014D01*
X75003845Y-55746140D01*
X75098883Y-55937004D01*
X75227377Y-56107156D01*
X75384949Y-56250803D01*
X75566225Y-56363045D01*
X75566228Y-56363046D01*
X75566231Y-56363048D01*
X75765052Y-56440071D01*
X75974640Y-56479250D01*
X76187860Y-56479250D01*
X76397448Y-56440071D01*
X76596269Y-56363048D01*
X76777552Y-56250802D01*
X76935122Y-56107157D01*
X77063616Y-55937005D01*
X77158655Y-55746139D01*
X77217006Y-55541060D01*
X77236679Y-55328750D01*
X77236534Y-55327190D01*
X77225935Y-55212800D01*
X77217006Y-55116440D01*
X77158655Y-54911361D01*
X77155893Y-54905815D01*
X77063616Y-54720495D01*
X76935122Y-54550343D01*
X76777550Y-54406696D01*
X76596274Y-54294454D01*
X76596269Y-54294452D01*
X76558961Y-54279999D01*
X79794784Y-54279999D01*
X79813602Y-54483080D01*
X79869418Y-54679252D01*
X79951488Y-54844070D01*
X79960327Y-54861821D01*
X79997736Y-54911358D01*
X80083235Y-55024579D01*
X80143162Y-55079209D01*
X80233959Y-55161981D01*
X80301210Y-55203621D01*
X80406634Y-55268897D01*
X80407363Y-55269348D01*
X80597544Y-55343024D01*
X80798024Y-55380500D01*
X81001976Y-55380500D01*
X81202456Y-55343024D01*
X81392637Y-55269348D01*
X81566041Y-55161981D01*
X81716764Y-55024579D01*
X81839673Y-54861821D01*
X81930582Y-54679250D01*
X81986397Y-54483083D01*
X82005215Y-54280000D01*
X82003624Y-54262835D01*
X81991200Y-54128750D01*
X81986397Y-54076917D01*
X81930582Y-53880750D01*
X81930286Y-53880156D01*
X81871204Y-53761502D01*
X81839673Y-53698179D01*
X81754446Y-53585320D01*
X81716764Y-53535420D01*
X81615042Y-53442689D01*
X81566041Y-53398019D01*
X81566038Y-53398017D01*
X81392641Y-53290654D01*
X81392638Y-53290653D01*
X81392637Y-53290652D01*
X81202456Y-53216976D01*
X81202453Y-53216975D01*
X81202452Y-53216975D01*
X81001976Y-53179500D01*
X80798024Y-53179500D01*
X80597547Y-53216975D01*
X80407358Y-53290654D01*
X80233961Y-53398017D01*
X80083235Y-53535420D01*
X79960326Y-53698180D01*
X79869418Y-53880747D01*
X79813602Y-54076919D01*
X79794784Y-54279999D01*
X76558961Y-54279999D01*
X76397448Y-54217429D01*
X76397445Y-54217428D01*
X76397444Y-54217428D01*
X76187860Y-54178250D01*
X75974640Y-54178250D01*
X75765055Y-54217428D01*
X75765052Y-54217428D01*
X75765052Y-54217429D01*
X75733790Y-54229540D01*
X75566225Y-54294454D01*
X75384949Y-54406696D01*
X75227377Y-54550343D01*
X75098883Y-54720495D01*
X75003844Y-54911359D01*
X74954301Y-55085485D01*
X74914712Y-55151678D01*
X74847331Y-55189209D01*
X74770213Y-55188021D01*
X74704020Y-55148432D01*
X74667677Y-55085484D01*
X74618187Y-54911541D01*
X74523188Y-54720757D01*
X74514414Y-54709138D01*
X74024326Y-55199225D01*
X74000743Y-55118906D01*
X73923011Y-54997952D01*
X73814350Y-54903798D01*
X73683565Y-54844070D01*
X73673780Y-54842663D01*
X74158257Y-54358187D01*
X74056044Y-54294901D01*
X73857312Y-54217912D01*
X73647813Y-54178750D01*
X73434687Y-54178750D01*
X73225187Y-54217912D01*
X73026455Y-54294901D01*
X72924241Y-54358187D01*
X73408717Y-54842663D01*
X73398935Y-54844070D01*
X73268150Y-54903798D01*
X73159489Y-54997952D01*
X73081757Y-55118906D01*
X73058173Y-55199226D01*
X72568085Y-54709139D01*
X72559312Y-54720757D01*
X72464311Y-54911546D01*
X72405987Y-55116533D01*
X72386322Y-55328749D01*
X69872046Y-55328749D01*
X69876679Y-55278750D01*
X69873301Y-55242300D01*
X69864904Y-55151678D01*
X69857006Y-55066440D01*
X69798655Y-54861361D01*
X69797339Y-54858719D01*
X69703616Y-54670495D01*
X69575122Y-54500343D01*
X69417550Y-54356696D01*
X69236274Y-54244454D01*
X69231530Y-54242616D01*
X69037448Y-54167429D01*
X69037445Y-54167428D01*
X69037444Y-54167428D01*
X68827860Y-54128250D01*
X68614640Y-54128250D01*
X68405055Y-54167428D01*
X68405052Y-54167428D01*
X68405052Y-54167429D01*
X68393960Y-54171726D01*
X68206230Y-54244452D01*
X68098623Y-54311080D01*
X68024773Y-54333326D01*
X67949694Y-54315668D01*
X67893502Y-54262835D01*
X67871256Y-54188985D01*
X67888914Y-54113906D01*
X67914824Y-54079040D01*
X69642724Y-52351141D01*
X69709520Y-52312577D01*
X69748084Y-52307500D01*
X83221917Y-52307500D01*
X83296417Y-52327462D01*
X83327276Y-52351141D01*
X85978859Y-55002724D01*
X86017423Y-55069519D01*
X86022500Y-55108083D01*
X86022500Y-56138316D01*
X86002538Y-56212816D01*
X85972306Y-56249843D01*
X85971224Y-56250803D01*
X85909516Y-56305471D01*
X85819778Y-56435478D01*
X85763763Y-56583178D01*
X85744722Y-56739999D01*
X85763763Y-56896821D01*
X85819778Y-57044521D01*
X85877745Y-57128500D01*
X85909517Y-57174530D01*
X86027760Y-57279283D01*
X86027762Y-57279284D01*
X86167632Y-57352695D01*
X86167634Y-57352695D01*
X86167635Y-57352696D01*
X86321015Y-57390500D01*
X86321016Y-57390500D01*
X86478984Y-57390500D01*
X86478985Y-57390500D01*
X86632365Y-57352696D01*
X86772240Y-57279283D01*
X86890483Y-57174530D01*
X86980220Y-57044523D01*
X87036237Y-56896818D01*
X87055278Y-56740000D01*
X87036237Y-56583182D01*
X87036236Y-56583180D01*
X87036236Y-56583178D01*
X86980221Y-56435478D01*
X86929916Y-56362599D01*
X86890483Y-56305470D01*
X86827693Y-56249843D01*
X86785168Y-56185499D01*
X86777500Y-56138316D01*
X86777500Y-54944604D01*
X86780671Y-54914028D01*
X86782393Y-54905816D01*
X86778644Y-54875739D01*
X86777639Y-54859553D01*
X86775779Y-54848406D01*
X86774141Y-54838595D01*
X86773255Y-54832512D01*
X86768888Y-54797475D01*
X86766809Y-54780796D01*
X86766808Y-54780795D01*
X86765813Y-54772808D01*
X86737185Y-54719909D01*
X86734366Y-54714433D01*
X86712915Y-54670555D01*
X86711476Y-54667611D01*
X86711475Y-54667610D01*
X86707938Y-54660375D01*
X86663674Y-54619628D01*
X86659229Y-54615364D01*
X83745541Y-51701675D01*
X83726165Y-51677814D01*
X83721576Y-51670791D01*
X83721574Y-51670789D01*
X83697658Y-51652174D01*
X83685504Y-51641441D01*
X83684814Y-51640948D01*
X83668181Y-51629072D01*
X83663300Y-51625432D01*
X83622155Y-51593408D01*
X83622153Y-51593407D01*
X83615801Y-51588463D01*
X83558134Y-51571294D01*
X83552272Y-51569416D01*
X83495383Y-51549886D01*
X83435266Y-51552373D01*
X83429109Y-51552500D01*
X69946141Y-51552500D01*
X69871641Y-51532538D01*
X69869870Y-51531499D01*
X69770371Y-51472210D01*
X69647067Y-51446357D01*
X69647066Y-51446357D01*
X69584556Y-51454148D01*
X69522046Y-51461940D01*
X69386524Y-51528194D01*
X69385921Y-51526961D01*
X69350481Y-51547423D01*
X69311917Y-51552500D01*
X69158719Y-51552500D01*
X69065730Y-51568017D01*
X69065731Y-51568017D01*
X68954928Y-51627980D01*
X68869600Y-51720672D01*
X68818990Y-51836048D01*
X68808587Y-51961604D01*
X68819314Y-52003966D01*
X68818251Y-52081087D01*
X68780232Y-52145901D01*
X66754406Y-54171726D01*
X66687611Y-54210290D01*
X66610483Y-54210290D01*
X66595224Y-54205306D01*
X66497449Y-54167429D01*
X66287860Y-54128250D01*
X66074640Y-54128250D01*
X65865055Y-54167428D01*
X65865052Y-54167428D01*
X65865052Y-54167429D01*
X65853960Y-54171726D01*
X65666225Y-54244454D01*
X65484949Y-54356696D01*
X65327377Y-54500343D01*
X65198883Y-54670495D01*
X65103844Y-54861359D01*
X65054301Y-55035485D01*
X65014712Y-55101678D01*
X64947331Y-55139209D01*
X64870213Y-55138021D01*
X64804020Y-55098432D01*
X64767677Y-55035484D01*
X64718187Y-54861541D01*
X64623188Y-54670757D01*
X64614414Y-54659138D01*
X64124326Y-55149225D01*
X64100743Y-55068906D01*
X64023011Y-54947952D01*
X63914350Y-54853798D01*
X63783565Y-54794070D01*
X63773780Y-54792663D01*
X64258257Y-54308187D01*
X64156044Y-54244901D01*
X63957312Y-54167912D01*
X63747813Y-54128750D01*
X63534687Y-54128750D01*
X63325187Y-54167912D01*
X63126455Y-54244901D01*
X63024241Y-54308187D01*
X63508717Y-54792663D01*
X63498935Y-54794070D01*
X63368150Y-54853798D01*
X63259489Y-54947952D01*
X63181757Y-55068906D01*
X63158172Y-55149226D01*
X62668085Y-54659139D01*
X62659312Y-54670757D01*
X62564311Y-54861546D01*
X62505987Y-55066533D01*
X62486322Y-55278750D01*
X59961119Y-55278750D01*
X59966679Y-55218750D01*
X59965977Y-55211179D01*
X59952021Y-55060560D01*
X59947006Y-55006440D01*
X59888655Y-54801361D01*
X59886720Y-54797475D01*
X59793616Y-54610495D01*
X59665122Y-54440343D01*
X59507550Y-54296696D01*
X59326274Y-54184454D01*
X59311550Y-54178750D01*
X59127448Y-54107429D01*
X59127445Y-54107428D01*
X59127444Y-54107428D01*
X58917860Y-54068250D01*
X58704640Y-54068250D01*
X58495055Y-54107428D01*
X58495052Y-54107428D01*
X58495052Y-54107429D01*
X58478333Y-54113906D01*
X58296225Y-54184454D01*
X58114949Y-54296696D01*
X57957377Y-54440343D01*
X57828883Y-54610495D01*
X57733845Y-54801358D01*
X57684562Y-54974571D01*
X57644974Y-55040764D01*
X57577593Y-55078295D01*
X57500474Y-55077107D01*
X57434281Y-55037519D01*
X57397938Y-54974571D01*
X57379952Y-54911359D01*
X57348655Y-54801361D01*
X57346720Y-54797475D01*
X57253616Y-54610495D01*
X57125122Y-54440343D01*
X56967550Y-54296696D01*
X56786274Y-54184454D01*
X56771550Y-54178750D01*
X56587448Y-54107429D01*
X56587445Y-54107428D01*
X56587444Y-54107428D01*
X56377860Y-54068250D01*
X56164640Y-54068250D01*
X55955055Y-54107428D01*
X55955052Y-54107428D01*
X55955052Y-54107429D01*
X55938333Y-54113906D01*
X55756225Y-54184454D01*
X55574949Y-54296696D01*
X55417377Y-54440343D01*
X55288883Y-54610495D01*
X55193844Y-54801359D01*
X55144301Y-54975485D01*
X55104712Y-55041678D01*
X55037331Y-55079209D01*
X54960213Y-55078021D01*
X54894020Y-55038432D01*
X54857677Y-54975484D01*
X54808187Y-54801541D01*
X54713188Y-54610757D01*
X54704414Y-54599138D01*
X54214326Y-55089225D01*
X54190743Y-55008906D01*
X54113011Y-54887952D01*
X54004350Y-54793798D01*
X53873565Y-54734070D01*
X53863780Y-54732663D01*
X54348257Y-54248187D01*
X54246044Y-54184901D01*
X54047312Y-54107912D01*
X53837813Y-54068750D01*
X53624687Y-54068750D01*
X53415187Y-54107912D01*
X53216455Y-54184901D01*
X53114241Y-54248187D01*
X53598717Y-54732663D01*
X53588935Y-54734070D01*
X53458150Y-54793798D01*
X53349489Y-54887952D01*
X53271757Y-55008906D01*
X53248173Y-55089226D01*
X52758085Y-54599139D01*
X52749312Y-54610757D01*
X52654311Y-54801546D01*
X52595987Y-55006533D01*
X52576322Y-55218750D01*
X50492099Y-55218750D01*
X50490505Y-50995414D01*
X50491966Y-50974563D01*
X50505498Y-50878685D01*
X50515810Y-50841460D01*
X50550110Y-50760403D01*
X50569658Y-50727070D01*
X50623643Y-50657571D01*
X50651104Y-50630387D01*
X50721155Y-50577104D01*
X50754676Y-50557902D01*
X50836078Y-50524426D01*
X50873410Y-50514490D01*
X50970765Y-50501757D01*
X50990084Y-50500500D01*
X51045892Y-50500500D01*
X138934108Y-50500500D01*
X138991633Y-50500500D01*
X139008315Y-50501436D01*
G37*
%TD.AperFunction*%
%TD*%
M02*
