M48
; DRILL file {KiCad 7.0.2} date Wed Jul 26 08:06:38 2023
; FORMAT={-:-/ absolute / inch / decimal}
; #@! TF.CreationDate,2023-07-26T08:06:38-03:00
; #@! TF.GenerationSoftware,Kicad,Pcbnew,7.0.2
; #@! TF.FileFunction,Plated,1,2,PTH
FMAT,2
INCH
; #@! TA.AperFunction,Plated,PTH,ViaDrill
T1C0.0118
; #@! TA.AperFunction,Plated,PTH,ComponentDrill
T2C0.0197
; #@! TA.AperFunction,Plated,PTH,ComponentDrill
T3C0.0315
; #@! TA.AperFunction,Plated,PTH,ComponentDrill
T4C0.0394
; #@! TA.AperFunction,Plated,PTH,ComponentDrill
T5C0.0472
; #@! TA.AperFunction,Plated,PTH,ComponentDrill
T6C0.1378
%
G90
G05
T1
X2.0504Y-2.6642
X2.0961Y-2.8083
X2.0996Y-3.5429
X2.1402Y-3.2988
X2.163Y-3.7961
X2.1701Y-2.0913
X2.2071Y-2.8346
X2.2543Y-3.3937
X2.2878Y-2.587
X2.3Y-3.2547
X2.374Y-3.7961
X2.4768Y-3.3417
X2.5319Y-2.35
X2.6461Y-3.7953
X2.765Y-3.3417
X2.8358Y-2.5535
X2.9067Y-3.3933
X3.0524Y-2.7028
X3.3228Y-3.2213
X3.328Y-2.7433
X3.3295Y-2.926
X3.3472Y-3.3953
X3.3472Y-3.5622
X3.3524Y-3.7343
X3.4016Y-2.2339
X3.4298Y-2.8313
X3.4843Y-2.6063
X3.4898Y-3.1122
X3.5142Y-2.9543
X3.5598Y-2.7362
X3.5634Y-3.5409
X3.565Y-2.4413
X3.5756Y-3.3374
X3.5925Y-3.9685
X3.6232Y-2.074
X3.7177Y-3.8429
X3.7866Y-2.7839
X3.8004Y-2.5165
X3.8039Y-2.2161
X3.8106Y-3.1134
X3.8409Y-3.3409
X3.8587Y-3.5114
X3.8622Y-2.9488
X3.8831Y-3.7012
X3.9059Y-2.6906
X3.9413Y-2.0882
X3.9465Y-2.3602
X3.948Y-3.2161
X4.1941Y-3.852
X4.2154Y-3.5504
X4.2157Y-3.6917
X4.224Y-3.3512
X4.311Y-2.3831
X4.324Y-3.0157
X4.324Y-3.787
X4.422Y-2.9315
X4.4736Y-3.1264
X4.4827Y-2.3886
X4.5122Y-3.4689
X4.6646Y-2.8209
X4.6717Y-3.489
X4.6772Y-2.6331
X4.785Y-2.9181
X4.828Y-2.6098
X4.8646Y-3.8327
X4.9343Y-3.6346
X5.0Y-3.0224
X5.0106Y-2.4877
X5.0165Y-3.4516
X5.0524Y-2.8606
X5.1205Y-2.7732
X5.3787Y-2.3646
X5.3839Y-3.2669
X5.4067Y-2.7799
X5.4083Y-3.6571
X5.4118Y-3.3567
T2
X2.062Y-3.0512
X2.0923Y-2.9781
X2.0923Y-3.1243
X2.1654Y-2.9478
X2.1654Y-3.1545
X2.2384Y-2.9781
X2.2384Y-3.1243
X2.2687Y-3.0512
X5.2116Y-3.0512
X5.2419Y-2.9781
X5.2419Y-3.1243
X5.315Y-2.9478
X5.315Y-3.1545
X5.388Y-2.9781
X5.388Y-3.1243
X5.4183Y-3.0512
T3
X4.5957Y-3.0413
X4.5957Y-3.1413
X4.5957Y-3.2413
X4.5957Y-3.3413
X4.8957Y-3.0413
X4.8957Y-3.1413
X4.8957Y-3.2413
X4.8957Y-3.3413
T4
X2.1154Y-2.174
X2.2154Y-2.174
X2.3154Y-2.174
X2.4618Y-2.7506
X2.4626Y-3.1079
X2.5056Y-2.1763
X2.5618Y-2.7506
X2.5626Y-3.1079
X2.6056Y-2.1763
X2.6618Y-2.7506
X2.6626Y-3.1079
X2.7056Y-2.1763
X2.8953Y-2.1783
X2.9953Y-2.1783
X3.185Y-2.137
X3.185Y-2.237
X3.185Y-2.337
X3.185Y-2.437
X3.185Y-2.537
X3.185Y-2.637
X3.185Y-2.737
X3.185Y-2.837
X3.185Y-2.937
X3.185Y-3.037
X3.185Y-3.137
X3.185Y-3.237
X3.185Y-3.337
X3.185Y-3.437
X3.185Y-3.537
X3.185Y-3.637
X3.185Y-3.737
X3.185Y-3.837
X3.185Y-3.937
X4.0906Y-2.137
X4.0906Y-2.237
X4.0906Y-2.337
X4.0906Y-2.437
X4.0906Y-2.537
X4.0906Y-2.637
X4.0906Y-2.737
X4.0906Y-2.837
X4.0906Y-2.937
X4.0906Y-3.037
X4.0906Y-3.137
X4.0906Y-3.237
X4.0906Y-3.337
X4.0906Y-3.437
X4.0906Y-3.537
X4.0906Y-3.637
X4.0906Y-3.737
X4.0906Y-3.837
X4.0906Y-3.937
X4.2972Y-2.1287
X4.3972Y-2.1287
X4.4972Y-2.1287
X4.5933Y-2.1287
X4.7515Y-2.1284
X4.8515Y-2.1284
X5.0169Y-2.1295
X5.1169Y-2.1295
X5.1984Y-2.5185
X5.2842Y-2.1296
X5.2984Y-2.5185
X5.3842Y-2.1296
X5.3984Y-2.5185
T5
X2.1228Y-3.9354
X2.3228Y-3.9354
X2.5228Y-3.9354
X2.7228Y-3.9354
X2.9228Y-3.9354
X4.3638Y-3.937
X4.5638Y-3.937
X4.7638Y-3.937
X4.9638Y-3.937
X5.1638Y-3.937
X5.3638Y-3.937
T6
X2.1654Y-3.0512
X5.315Y-3.0512
T0
M30
