%TF.GenerationSoftware,KiCad,Pcbnew,7.0.2*%
%TF.CreationDate,2023-06-22T14:29:26-03:00*%
%TF.ProjectId,Belliz_IOT,42656c6c-697a-45f4-994f-542e6b696361,rev?*%
%TF.SameCoordinates,Original*%
%TF.FileFunction,Copper,L2,Bot*%
%TF.FilePolarity,Positive*%
%FSLAX46Y46*%
G04 Gerber Fmt 4.6, Leading zero omitted, Abs format (unit mm)*
G04 Created by KiCad (PCBNEW 7.0.2) date 2023-06-22 14:29:26*
%MOMM*%
%LPD*%
G01*
G04 APERTURE LIST*
%TA.AperFunction,ComponentPad*%
%ADD10C,0.800000*%
%TD*%
%TA.AperFunction,ComponentPad*%
%ADD11C,7.000000*%
%TD*%
%TA.AperFunction,ComponentPad*%
%ADD12R,1.800000X1.800000*%
%TD*%
%TA.AperFunction,ComponentPad*%
%ADD13C,1.800000*%
%TD*%
%TA.AperFunction,ComponentPad*%
%ADD14C,1.500000*%
%TD*%
%TA.AperFunction,ComponentPad*%
%ADD15R,1.600000X1.600000*%
%TD*%
%TA.AperFunction,ComponentPad*%
%ADD16O,1.600000X1.600000*%
%TD*%
%TA.AperFunction,ComponentPad*%
%ADD17C,1.524000*%
%TD*%
%TA.AperFunction,ViaPad*%
%ADD18C,0.600000*%
%TD*%
%TA.AperFunction,ViaPad*%
%ADD19C,0.762000*%
%TD*%
%TA.AperFunction,Conductor*%
%ADD20C,0.762000*%
%TD*%
%TA.AperFunction,Conductor*%
%ADD21C,0.254000*%
%TD*%
G04 APERTURE END LIST*
D10*
%TO.P,REF\u002A\u002A,1*%
%TO.N,N/C*%
X135000000Y-80125000D03*
X137625000Y-77500000D03*
D11*
X135000000Y-77500000D03*
D10*
X135000000Y-74875000D03*
X133143845Y-79356155D03*
X133143845Y-75643845D03*
X136856155Y-79356155D03*
X132375000Y-77500000D03*
X136856155Y-75643845D03*
%TD*%
%TO.P,REF\u002A\u002A,1*%
%TO.N,N/C*%
X56856155Y-75643845D03*
X52375000Y-77500000D03*
X56856155Y-79356155D03*
X53143845Y-75643845D03*
X53143845Y-79356155D03*
X55000000Y-74875000D03*
D11*
X55000000Y-77500000D03*
D10*
X57625000Y-77500000D03*
X55000000Y-80125000D03*
%TD*%
D12*
%TO.P,J3,1,1*%
%TO.N,Net-(J3-Pad1)*%
X124000000Y-56000000D03*
D13*
%TO.P,J3,2,2*%
%TO.N,Earth*%
X121460000Y-56000000D03*
%TD*%
D12*
%TO.P,J2,1,1*%
%TO.N,Net-(J2-Pad1)*%
X113000000Y-56000000D03*
D13*
%TO.P,J2,2,2*%
%TO.N,Earth*%
X110460000Y-56000000D03*
%TD*%
D14*
%TO.P,J9,1,Pin_1*%
%TO.N,5V*%
X80900000Y-100000000D03*
%TO.P,J9,2,Pin_2*%
%TO.N,unconnected-(J9-Pin_2-Pad2)*%
X80900000Y-97460000D03*
%TO.P,J9,3,Pin_3*%
%TO.N,unconnected-(J9-Pin_3-Pad3)*%
X80900000Y-94920000D03*
%TO.P,J9,4,Pin_4*%
%TO.N,unconnected-(J9-Pin_4-Pad4)*%
X80900000Y-92380000D03*
%TO.P,J9,5,Pin_5*%
%TO.N,Rele_2*%
X80900000Y-89840000D03*
%TO.P,J9,6,Pin_6*%
%TO.N,Earth*%
X80900000Y-87300000D03*
%TO.P,J9,7,Pin_7*%
%TO.N,unconnected-(J9-Pin_7-Pad7)*%
X80900000Y-84760000D03*
%TO.P,J9,8,Pin_8*%
%TO.N,unconnected-(J9-Pin_8-Pad8)*%
X80900000Y-82220000D03*
%TO.P,J9,9,Pin_9*%
%TO.N,Rele_1*%
X80900000Y-79680000D03*
%TO.P,J9,10,Pin_10*%
%TO.N,OUT_RPM*%
X80900000Y-77140000D03*
%TO.P,J9,11,Pin_11*%
%TO.N,SCK_MAX6675*%
X80900000Y-74600000D03*
%TO.P,J9,12,Pin_12*%
%TO.N,CS_MAX6675*%
X80900000Y-72060000D03*
%TO.P,J9,13,Pin_13*%
%TO.N,SO_MAX6675*%
X80900000Y-69520000D03*
%TO.P,J9,14,Pin_14*%
%TO.N,unconnected-(J9-Pin_14-Pad14)*%
X80900000Y-66980000D03*
%TO.P,J9,15,Pin_15*%
%TO.N,BUFFER_ACS712*%
X80900000Y-64440000D03*
%TO.P,J9,16,Pin_16*%
%TO.N,unconnected-(J9-Pin_16-Pad16)*%
X80900000Y-61900000D03*
%TO.P,J9,17,Pin_17*%
%TO.N,unconnected-(J9-Pin_17-Pad17)*%
X80900000Y-59360000D03*
%TO.P,J9,18,Pin_18*%
%TO.N,unconnected-(J9-Pin_18-Pad18)*%
X80900000Y-56820000D03*
%TO.P,J9,19,Pin_19*%
%TO.N,3V3*%
X80900000Y-54280000D03*
%TD*%
%TO.P,J8,1,Pin_1*%
%TO.N,unconnected-(J8-Pin_1-Pad1)*%
X103900000Y-100000000D03*
%TO.P,J8,2,Pin_2*%
%TO.N,unconnected-(J8-Pin_2-Pad2)*%
X103900000Y-97460000D03*
%TO.P,J8,3,Pin_3*%
%TO.N,unconnected-(J8-Pin_3-Pad3)*%
X103900000Y-94920000D03*
%TO.P,J8,4,Pin_4*%
%TO.N,unconnected-(J8-Pin_4-Pad4)*%
X103900000Y-92380000D03*
%TO.P,J8,5,Pin_5*%
%TO.N,unconnected-(J8-Pin_5-Pad5)*%
X103900000Y-89840000D03*
%TO.P,J8,6,Pin_6*%
%TO.N,unconnected-(J8-Pin_6-Pad6)*%
X103900000Y-87300000D03*
%TO.P,J8,7,Pin_7*%
%TO.N,unconnected-(J8-Pin_7-Pad7)*%
X103900000Y-84760000D03*
%TO.P,J8,8,Pin_8*%
%TO.N,BT_CONFIG*%
X103900000Y-82220000D03*
%TO.P,J8,9,Pin_9*%
%TO.N,unconnected-(J8-Pin_9-Pad9)*%
X103900000Y-79680000D03*
%TO.P,J8,10,Pin_10*%
%TO.N,unconnected-(J8-Pin_10-Pad10)*%
X103900000Y-77140000D03*
%TO.P,J8,11,Pin_11*%
%TO.N,LED_VD*%
X103900000Y-74600000D03*
%TO.P,J8,12,Pin_12*%
%TO.N,LED_VM*%
X103900000Y-72060000D03*
%TO.P,J8,13,Pin_13*%
%TO.N,Earth*%
X103900000Y-69520000D03*
%TO.P,J8,14,Pin_14*%
%TO.N,unconnected-(J8-Pin_14-Pad14)*%
X103900000Y-66980000D03*
%TO.P,J8,15,Pin_15*%
%TO.N,unconnected-(J8-Pin_15-Pad15)*%
X103900000Y-64440000D03*
%TO.P,J8,16,Pin_16*%
%TO.N,unconnected-(J8-Pin_16-Pad16)*%
X103900000Y-61900000D03*
%TO.P,J8,17,Pin_17*%
%TO.N,unconnected-(J8-Pin_17-Pad17)*%
X103900000Y-59360000D03*
%TO.P,J8,18,Pin_18*%
%TO.N,unconnected-(J8-Pin_18-Pad18)*%
X103900000Y-56820000D03*
%TO.P,J8,19,Pin_19*%
%TO.N,Earth*%
X103900000Y-54280000D03*
%TD*%
D15*
%TO.P,U1,1*%
%TO.N,Net-(U1A--)*%
X116730000Y-77250000D03*
D16*
%TO.P,U1,2,-*%
X116730000Y-79790000D03*
%TO.P,U1,3,+*%
%TO.N,Net-(U1A-+)*%
X116730000Y-82330000D03*
%TO.P,U1,4*%
%TO.N,Earth*%
X116730000Y-84870000D03*
%TO.P,U1,5,+*%
%TO.N,OUT_TCRT5000*%
X124350000Y-84870000D03*
%TO.P,U1,6,-*%
%TO.N,Net-(U1B--)*%
X124350000Y-82330000D03*
%TO.P,U1,7*%
%TO.N,OUT_RPM*%
X124350000Y-79790000D03*
%TO.P,U1,8*%
%TO.N,5V*%
X124350000Y-77250000D03*
%TD*%
D12*
%TO.P,J1,1,1*%
%TO.N,Earth*%
X59410000Y-56000000D03*
D13*
%TO.P,J1,2,2*%
%TO.N,5V*%
X56870000Y-56000000D03*
%TD*%
D12*
%TO.P,J6,1,Pin_1*%
%TO.N,5V*%
X73640000Y-56000000D03*
D13*
%TO.P,J6,2,Pin_2*%
%TO.N,Rele_1*%
X71100000Y-56000000D03*
%TO.P,J6,3,Pin_3*%
%TO.N,Rele_2*%
X68560000Y-56000000D03*
%TO.P,J6,4,Pin_4*%
%TO.N,Earth*%
X66020000Y-56000000D03*
%TD*%
D17*
%TO.P,J10,1,Pin_1*%
%TO.N,5V*%
X136240000Y-96000000D03*
%TO.P,J10,2,Pin_2*%
%TO.N,OUT_ACS712*%
X131160000Y-96000000D03*
%TO.P,J10,3,Pin_3*%
%TO.N,Earth*%
X126080000Y-96000000D03*
%TO.P,J10,4,Pin_4*%
X121000000Y-96000000D03*
%TO.P,J10,5,Pin_5*%
%TO.N,OUT_TCRT5000*%
X115920000Y-96000000D03*
%TO.P,J10,6,Pin_6*%
%TO.N,3V3*%
X110840000Y-96000000D03*
%TD*%
%TO.P,J5,1,Pin_1*%
%TO.N,SO_MAX6675*%
X74240000Y-96000000D03*
%TO.P,J5,2,Pin_2*%
%TO.N,CS_MAX6675*%
X69160000Y-96000000D03*
%TO.P,J5,3,Pin_3*%
%TO.N,SCK_MAX6675*%
X64080000Y-96000000D03*
%TO.P,J5,4,Pin_4*%
%TO.N,3V3*%
X59000000Y-96000000D03*
%TO.P,J5,5,Pin_5*%
%TO.N,Earth*%
X53920000Y-96000000D03*
%TD*%
D12*
%TO.P,J4,1,1*%
%TO.N,BT_CONFIG*%
X135000000Y-56000000D03*
D13*
%TO.P,J4,2,2*%
%TO.N,Earth*%
X132460000Y-56000000D03*
%TD*%
D18*
%TO.N,OUT_TCRT5000*%
X118660000Y-88620000D03*
%TO.N,BUFFER_ACS712*%
X118800000Y-66880000D03*
%TO.N,BT_CONFIG*%
X127140000Y-70720000D03*
%TO.N,Rele_2*%
X69715000Y-82955000D03*
%TO.N,SO_MAX6675*%
X74240000Y-87450000D03*
%TO.N,CS_MAX6675*%
X71020000Y-86390000D03*
X73870000Y-72570000D03*
%TO.N,OUT_TCRT5000*%
X117520000Y-92560000D03*
D19*
%TO.N,3V3*%
X91250000Y-100800000D03*
X94430000Y-97610000D03*
D18*
%TO.N,Rele_1*%
X71955000Y-78625000D03*
%TD*%
D20*
%TO.N,3V3*%
X91250000Y-100800000D02*
X89440000Y-102610000D01*
X64280000Y-102610000D02*
X59000000Y-97330000D01*
X59000000Y-97330000D02*
X59000000Y-96000000D01*
X89440000Y-102610000D02*
X64280000Y-102610000D01*
D21*
%TO.N,BT_CONFIG*%
X106360000Y-82220000D02*
X103900000Y-82220000D01*
X115030000Y-73550000D02*
X106360000Y-82220000D01*
X127140000Y-70730000D02*
X124320000Y-73550000D01*
X124320000Y-73550000D02*
X115030000Y-73550000D01*
X127140000Y-70720000D02*
X127140000Y-70730000D01*
D20*
%TO.N,5V*%
X124320000Y-88280000D02*
X128610000Y-92570000D01*
X128610000Y-92570000D02*
X134020000Y-92570000D01*
X134020000Y-92570000D02*
X136240000Y-94790000D01*
X136240000Y-94790000D02*
X136240000Y-96000000D01*
X122560000Y-88280000D02*
X124320000Y-88280000D01*
X121020000Y-77250000D02*
X124350000Y-77250000D01*
X120090000Y-85810000D02*
X120090000Y-78180000D01*
X120090000Y-78180000D02*
X121020000Y-77250000D01*
X122560000Y-88280000D02*
X120090000Y-85810000D01*
%TO.N,3V3*%
X110820000Y-99530000D02*
X110820000Y-96020000D01*
X107740000Y-102610000D02*
X110820000Y-99530000D01*
X110820000Y-96020000D02*
X110840000Y-96000000D01*
X101280000Y-102610000D02*
X107740000Y-102610000D01*
X96280000Y-97610000D02*
X101280000Y-102610000D01*
X94430000Y-97610000D02*
X96280000Y-97610000D01*
D21*
%TO.N,OUT_TCRT5000*%
X118630000Y-91450000D02*
X118630000Y-88600000D01*
X117520000Y-92560000D02*
X118630000Y-91450000D01*
%TO.N,OUT_RPM*%
X130210000Y-79790000D02*
X124350000Y-79790000D01*
X138620000Y-88200000D02*
X130210000Y-79790000D01*
X88840000Y-94860000D02*
X97690000Y-103710000D01*
X97690000Y-103710000D02*
X134920000Y-103710000D01*
X134920000Y-103710000D02*
X138620000Y-100010000D01*
X88840000Y-82430000D02*
X88840000Y-94860000D01*
X83550000Y-77140000D02*
X88840000Y-82430000D01*
X80900000Y-77140000D02*
X83550000Y-77140000D01*
X138620000Y-100010000D02*
X138620000Y-88200000D01*
%TO.N,BUFFER_ACS712*%
X106640000Y-61100000D02*
X106640000Y-52760000D01*
X84400000Y-64440000D02*
X80900000Y-64440000D01*
X117020000Y-63440000D02*
X108980000Y-63440000D01*
X118800000Y-65220000D02*
X117020000Y-63440000D01*
X118800000Y-66880000D02*
X118800000Y-65220000D01*
X97190000Y-51650000D02*
X84400000Y-64440000D01*
X105530000Y-51650000D02*
X97190000Y-51650000D01*
X106640000Y-52760000D02*
X105530000Y-51650000D01*
X108980000Y-63440000D02*
X106640000Y-61100000D01*
%TO.N,Rele_2*%
X69715000Y-82955000D02*
X68560000Y-81800000D01*
X68560000Y-81800000D02*
X68560000Y-56000000D01*
%TO.N,SO_MAX6675*%
X74220000Y-87430000D02*
X74220000Y-74510000D01*
X74240000Y-87450000D02*
X74220000Y-87430000D01*
X74220000Y-74510000D02*
X79210000Y-69520000D01*
X79210000Y-69520000D02*
X80900000Y-69520000D01*
%TO.N,CS_MAX6675*%
X73230000Y-73210000D02*
X73230000Y-84170000D01*
X73870000Y-72570000D02*
X73230000Y-73210000D01*
X71020000Y-86380000D02*
X71020000Y-86390000D01*
X73230000Y-84170000D02*
X71020000Y-86380000D01*
%TO.N,Rele_1*%
X71955000Y-78625000D02*
X71100000Y-77770000D01*
X71100000Y-77770000D02*
X71100000Y-56000000D01*
%TD*%
%TA.AperFunction,Conductor*%
%TO.N,Earth*%
G36*
X139005512Y-50501121D02*
G01*
X139100073Y-50511775D01*
X139121669Y-50516705D01*
X139206202Y-50546283D01*
X139226168Y-50555899D01*
X139264079Y-50579720D01*
X139301987Y-50603540D01*
X139319319Y-50617361D01*
X139382638Y-50680680D01*
X139396459Y-50698012D01*
X139444098Y-50773828D01*
X139453718Y-50793803D01*
X139483293Y-50878326D01*
X139488225Y-50899938D01*
X139498877Y-50994469D01*
X139499500Y-51005554D01*
X139499500Y-103994444D01*
X139498877Y-104005529D01*
X139488225Y-104100061D01*
X139483293Y-104121673D01*
X139453718Y-104206196D01*
X139444098Y-104226171D01*
X139396459Y-104301987D01*
X139382638Y-104319319D01*
X139319319Y-104382638D01*
X139301987Y-104396459D01*
X139226171Y-104444098D01*
X139206196Y-104453718D01*
X139121673Y-104483293D01*
X139100061Y-104488225D01*
X139005529Y-104498877D01*
X138994444Y-104499500D01*
X51005556Y-104499500D01*
X50994471Y-104498877D01*
X50899938Y-104488225D01*
X50878326Y-104483293D01*
X50793803Y-104453718D01*
X50773828Y-104444098D01*
X50698012Y-104396459D01*
X50680680Y-104382638D01*
X50617361Y-104319319D01*
X50603540Y-104301987D01*
X50555901Y-104226171D01*
X50546283Y-104206202D01*
X50516705Y-104121669D01*
X50511775Y-104100073D01*
X50501121Y-104005512D01*
X50500500Y-103994444D01*
X50500500Y-95999999D01*
X52953344Y-95999999D01*
X52971918Y-96188583D01*
X53026926Y-96369921D01*
X53086001Y-96480443D01*
X53535096Y-96031347D01*
X53535051Y-96031898D01*
X53566266Y-96155162D01*
X53635813Y-96261612D01*
X53736157Y-96339713D01*
X53856422Y-96381000D01*
X53892552Y-96381000D01*
X53439555Y-96833997D01*
X53550078Y-96893074D01*
X53731416Y-96948081D01*
X53920000Y-96966655D01*
X54108583Y-96948081D01*
X54289921Y-96893074D01*
X54400443Y-96833997D01*
X53947446Y-96381000D01*
X53951569Y-96381000D01*
X54045421Y-96365339D01*
X54157251Y-96304820D01*
X54243371Y-96211269D01*
X54294448Y-96094823D01*
X54300105Y-96026551D01*
X54753997Y-96480443D01*
X54813074Y-96369921D01*
X54868081Y-96188583D01*
X54886655Y-96000000D01*
X58032842Y-96000000D01*
X58051426Y-96188682D01*
X58106462Y-96370116D01*
X58195835Y-96537319D01*
X58195838Y-96537324D01*
X58316117Y-96683883D01*
X58382305Y-96738202D01*
X58415292Y-96789734D01*
X58418500Y-96814730D01*
X58418500Y-97285395D01*
X58417653Y-97298316D01*
X58413482Y-97329999D01*
X58433466Y-97481801D01*
X58486568Y-97610000D01*
X58492060Y-97623259D01*
X58561865Y-97714231D01*
X58561868Y-97714234D01*
X58585269Y-97744731D01*
X58607515Y-97761801D01*
X58610611Y-97764176D01*
X58620349Y-97772715D01*
X63837280Y-102989645D01*
X63845812Y-102999374D01*
X63865269Y-103024731D01*
X63895770Y-103048135D01*
X63986741Y-103117940D01*
X64086766Y-103159371D01*
X64128198Y-103176533D01*
X64241884Y-103191500D01*
X64241885Y-103191500D01*
X64280000Y-103196518D01*
X64311682Y-103192346D01*
X64324604Y-103191500D01*
X89395396Y-103191500D01*
X89408317Y-103192346D01*
X89440000Y-103196518D01*
X89591802Y-103176533D01*
X89733259Y-103117940D01*
X89824231Y-103048135D01*
X89824231Y-103048134D01*
X89835011Y-103039863D01*
X89835013Y-103039859D01*
X89854731Y-103024731D01*
X89874182Y-102999381D01*
X89882709Y-102989655D01*
X91629651Y-101242712D01*
X91639371Y-101234189D01*
X91664731Y-101214731D01*
X91691690Y-101179595D01*
X91757940Y-101093259D01*
X91816533Y-100951801D01*
X91836519Y-100800000D01*
X91816533Y-100648198D01*
X91757940Y-100506741D01*
X91691654Y-100420355D01*
X91664731Y-100385268D01*
X91543259Y-100292060D01*
X91401801Y-100233466D01*
X91269984Y-100216112D01*
X91250000Y-100213481D01*
X91249999Y-100213481D01*
X91115858Y-100231141D01*
X91098198Y-100233466D01*
X91057741Y-100250225D01*
X90956739Y-100292060D01*
X90897522Y-100337500D01*
X90835267Y-100385270D01*
X90815814Y-100410621D01*
X90807278Y-100420355D01*
X89228130Y-101999504D01*
X89173613Y-102027281D01*
X89158126Y-102028500D01*
X64561873Y-102028500D01*
X64503682Y-102009593D01*
X64491869Y-101999504D01*
X62492365Y-100000000D01*
X79944900Y-100000000D01*
X79963252Y-100186329D01*
X80017603Y-100365501D01*
X80105862Y-100530623D01*
X80105864Y-100530625D01*
X80224643Y-100675357D01*
X80347369Y-100776076D01*
X80369376Y-100794137D01*
X80534498Y-100882396D01*
X80624083Y-100909571D01*
X80713669Y-100936747D01*
X80806834Y-100945923D01*
X80899999Y-100955099D01*
X80899999Y-100955098D01*
X80900000Y-100955099D01*
X81086331Y-100936747D01*
X81265501Y-100882396D01*
X81430625Y-100794136D01*
X81575357Y-100675357D01*
X81694136Y-100530625D01*
X81782396Y-100365501D01*
X81836747Y-100186331D01*
X81855099Y-100000000D01*
X81836747Y-99813669D01*
X81782396Y-99634499D01*
X81782396Y-99634498D01*
X81694137Y-99469376D01*
X81676076Y-99447369D01*
X81575357Y-99324643D01*
X81430625Y-99205864D01*
X81430626Y-99205864D01*
X81430623Y-99205862D01*
X81265501Y-99117603D01*
X81086329Y-99063252D01*
X80899999Y-99044900D01*
X80713670Y-99063252D01*
X80534498Y-99117603D01*
X80369376Y-99205862D01*
X80224643Y-99324643D01*
X80105862Y-99469376D01*
X80017603Y-99634498D01*
X79963252Y-99813670D01*
X79944900Y-100000000D01*
X62492365Y-100000000D01*
X62126863Y-99634498D01*
X59952366Y-97460000D01*
X79944900Y-97460000D01*
X79963252Y-97646329D01*
X80017603Y-97825501D01*
X80105862Y-97990623D01*
X80105864Y-97990625D01*
X80224643Y-98135357D01*
X80328385Y-98220496D01*
X80369376Y-98254137D01*
X80534498Y-98342396D01*
X80624084Y-98369571D01*
X80713669Y-98396747D01*
X80900000Y-98415099D01*
X81086331Y-98396747D01*
X81265501Y-98342396D01*
X81430625Y-98254136D01*
X81575357Y-98135357D01*
X81694136Y-97990625D01*
X81782396Y-97825501D01*
X81836747Y-97646331D01*
X81855099Y-97460000D01*
X81836747Y-97273669D01*
X81805864Y-97171861D01*
X81782396Y-97094498D01*
X81694137Y-96929376D01*
X81664344Y-96893074D01*
X81575357Y-96784643D01*
X81452584Y-96683885D01*
X81430623Y-96665862D01*
X81265501Y-96577603D01*
X81086329Y-96523252D01*
X80900000Y-96504900D01*
X80713670Y-96523252D01*
X80534498Y-96577603D01*
X80369376Y-96665862D01*
X80224643Y-96784643D01*
X80105862Y-96929376D01*
X80017603Y-97094498D01*
X79963252Y-97273670D01*
X79944900Y-97460000D01*
X59952366Y-97460000D01*
X59610493Y-97118127D01*
X59582718Y-97063613D01*
X59581500Y-97048138D01*
X59581500Y-96814730D01*
X59600408Y-96756539D01*
X59617695Y-96738202D01*
X59683883Y-96683883D01*
X59804162Y-96537324D01*
X59887719Y-96381000D01*
X59893537Y-96370116D01*
X59921054Y-96279398D01*
X59948573Y-96188683D01*
X59967157Y-96000000D01*
X63112842Y-96000000D01*
X63131426Y-96188682D01*
X63186462Y-96370116D01*
X63275835Y-96537319D01*
X63275838Y-96537324D01*
X63396117Y-96683883D01*
X63542676Y-96804162D01*
X63542680Y-96804164D01*
X63709883Y-96893537D01*
X63889695Y-96948081D01*
X63891317Y-96948573D01*
X64080000Y-96967157D01*
X64268683Y-96948573D01*
X64359398Y-96921054D01*
X64450116Y-96893537D01*
X64524156Y-96853960D01*
X64617324Y-96804162D01*
X64763883Y-96683883D01*
X64884162Y-96537324D01*
X64967719Y-96381000D01*
X64973537Y-96370116D01*
X65001054Y-96279398D01*
X65028573Y-96188683D01*
X65047157Y-96000000D01*
X68192842Y-96000000D01*
X68211426Y-96188682D01*
X68266462Y-96370116D01*
X68355835Y-96537319D01*
X68355838Y-96537324D01*
X68476117Y-96683883D01*
X68622676Y-96804162D01*
X68622680Y-96804164D01*
X68789883Y-96893537D01*
X68971317Y-96948573D01*
X69159999Y-96967157D01*
X69159999Y-96967156D01*
X69160000Y-96967157D01*
X69348683Y-96948573D01*
X69439398Y-96921054D01*
X69530116Y-96893537D01*
X69604156Y-96853960D01*
X69697324Y-96804162D01*
X69843883Y-96683883D01*
X69964162Y-96537324D01*
X70047719Y-96381000D01*
X70053537Y-96370116D01*
X70081054Y-96279398D01*
X70108573Y-96188683D01*
X70127157Y-96000000D01*
X73272842Y-96000000D01*
X73291426Y-96188682D01*
X73346462Y-96370116D01*
X73435835Y-96537319D01*
X73435838Y-96537324D01*
X73556117Y-96683883D01*
X73702676Y-96804162D01*
X73702680Y-96804164D01*
X73869883Y-96893537D01*
X74049695Y-96948081D01*
X74051317Y-96948573D01*
X74240000Y-96967157D01*
X74428683Y-96948573D01*
X74519398Y-96921054D01*
X74610116Y-96893537D01*
X74684156Y-96853960D01*
X74777324Y-96804162D01*
X74923883Y-96683883D01*
X75044162Y-96537324D01*
X75127719Y-96381000D01*
X75133537Y-96370116D01*
X75161054Y-96279398D01*
X75188573Y-96188683D01*
X75207157Y-96000000D01*
X75188573Y-95811317D01*
X75166451Y-95738388D01*
X75133537Y-95629883D01*
X75044164Y-95462680D01*
X75044162Y-95462676D01*
X74923883Y-95316117D01*
X74777324Y-95195838D01*
X74777320Y-95195835D01*
X74777319Y-95195835D01*
X74610116Y-95106462D01*
X74428682Y-95051426D01*
X74240000Y-95032842D01*
X74051317Y-95051426D01*
X73869883Y-95106462D01*
X73702680Y-95195835D01*
X73702676Y-95195837D01*
X73702676Y-95195838D01*
X73658501Y-95232092D01*
X73556117Y-95316117D01*
X73435835Y-95462680D01*
X73346462Y-95629883D01*
X73291426Y-95811317D01*
X73272842Y-96000000D01*
X70127157Y-96000000D01*
X70108573Y-95811317D01*
X70086451Y-95738388D01*
X70053537Y-95629883D01*
X69964164Y-95462680D01*
X69964162Y-95462676D01*
X69843883Y-95316117D01*
X69697324Y-95195838D01*
X69697320Y-95195835D01*
X69697319Y-95195835D01*
X69530116Y-95106462D01*
X69348682Y-95051426D01*
X69159999Y-95032842D01*
X68971317Y-95051426D01*
X68789883Y-95106462D01*
X68622680Y-95195835D01*
X68622676Y-95195837D01*
X68622676Y-95195838D01*
X68578501Y-95232092D01*
X68476117Y-95316117D01*
X68355835Y-95462680D01*
X68266462Y-95629883D01*
X68211426Y-95811317D01*
X68192842Y-96000000D01*
X65047157Y-96000000D01*
X65028573Y-95811317D01*
X65006451Y-95738388D01*
X64973537Y-95629883D01*
X64884164Y-95462680D01*
X64884162Y-95462676D01*
X64763883Y-95316117D01*
X64617324Y-95195838D01*
X64617320Y-95195835D01*
X64617319Y-95195835D01*
X64450116Y-95106462D01*
X64268682Y-95051426D01*
X64080000Y-95032842D01*
X63891317Y-95051426D01*
X63709883Y-95106462D01*
X63542680Y-95195835D01*
X63542676Y-95195837D01*
X63542676Y-95195838D01*
X63498501Y-95232092D01*
X63396117Y-95316117D01*
X63275835Y-95462680D01*
X63186462Y-95629883D01*
X63131426Y-95811317D01*
X63112842Y-96000000D01*
X59967157Y-96000000D01*
X59948573Y-95811317D01*
X59926451Y-95738388D01*
X59893537Y-95629883D01*
X59804164Y-95462680D01*
X59804162Y-95462676D01*
X59683883Y-95316117D01*
X59537324Y-95195838D01*
X59537320Y-95195835D01*
X59537319Y-95195835D01*
X59370116Y-95106462D01*
X59188682Y-95051426D01*
X59000000Y-95032842D01*
X58811317Y-95051426D01*
X58629883Y-95106462D01*
X58462680Y-95195835D01*
X58462676Y-95195837D01*
X58462676Y-95195838D01*
X58418501Y-95232092D01*
X58316117Y-95316117D01*
X58195835Y-95462680D01*
X58106462Y-95629883D01*
X58051426Y-95811317D01*
X58032842Y-96000000D01*
X54886655Y-96000000D01*
X54868081Y-95811416D01*
X54813074Y-95630078D01*
X54753997Y-95519555D01*
X54304903Y-95968648D01*
X54304949Y-95968102D01*
X54273734Y-95844838D01*
X54204187Y-95738388D01*
X54103843Y-95660287D01*
X53983578Y-95619000D01*
X53947444Y-95619000D01*
X54400443Y-95166001D01*
X54289921Y-95106926D01*
X54108583Y-95051918D01*
X53920000Y-95033344D01*
X53731416Y-95051918D01*
X53550078Y-95106926D01*
X53439556Y-95166002D01*
X53892554Y-95619000D01*
X53888431Y-95619000D01*
X53794579Y-95634661D01*
X53682749Y-95695180D01*
X53596629Y-95788731D01*
X53545552Y-95905177D01*
X53539894Y-95973448D01*
X53086001Y-95519555D01*
X53026926Y-95630076D01*
X52971918Y-95811416D01*
X52953344Y-95999999D01*
X50500500Y-95999999D01*
X50500500Y-94920000D01*
X79944900Y-94920000D01*
X79963252Y-95106329D01*
X80017603Y-95285501D01*
X80105862Y-95450623D01*
X80105864Y-95450625D01*
X80224643Y-95595357D01*
X80346277Y-95695180D01*
X80369376Y-95714137D01*
X80534498Y-95802396D01*
X80624084Y-95829571D01*
X80713669Y-95856747D01*
X80900000Y-95875099D01*
X81086331Y-95856747D01*
X81265501Y-95802396D01*
X81430625Y-95714136D01*
X81575357Y-95595357D01*
X81694136Y-95450625D01*
X81782396Y-95285501D01*
X81836747Y-95106331D01*
X81855099Y-94920000D01*
X81836747Y-94733669D01*
X81782396Y-94554499D01*
X81782396Y-94554498D01*
X81694137Y-94389376D01*
X81659592Y-94347283D01*
X81575357Y-94244643D01*
X81430625Y-94125864D01*
X81430626Y-94125864D01*
X81430623Y-94125862D01*
X81265501Y-94037603D01*
X81086329Y-93983252D01*
X80900000Y-93964900D01*
X80713670Y-93983252D01*
X80534498Y-94037603D01*
X80369376Y-94125862D01*
X80224643Y-94244643D01*
X80105862Y-94389376D01*
X80017603Y-94554498D01*
X79963252Y-94733670D01*
X79944900Y-94920000D01*
X50500500Y-94920000D01*
X50500500Y-92379999D01*
X79944900Y-92379999D01*
X79963252Y-92566329D01*
X80017603Y-92745501D01*
X80105862Y-92910623D01*
X80105864Y-92910625D01*
X80224643Y-93055357D01*
X80323556Y-93136533D01*
X80369376Y-93174137D01*
X80534498Y-93262396D01*
X80624084Y-93289571D01*
X80713669Y-93316747D01*
X80900000Y-93335099D01*
X81086331Y-93316747D01*
X81265501Y-93262396D01*
X81430625Y-93174136D01*
X81575357Y-93055357D01*
X81694136Y-92910625D01*
X81782396Y-92745501D01*
X81836747Y-92566331D01*
X81855099Y-92380000D01*
X81836747Y-92193669D01*
X81782396Y-92014499D01*
X81782396Y-92014498D01*
X81694137Y-91849376D01*
X81676076Y-91827369D01*
X81575357Y-91704643D01*
X81436328Y-91590544D01*
X81430623Y-91585862D01*
X81265501Y-91497603D01*
X81086329Y-91443252D01*
X80900000Y-91424900D01*
X80713670Y-91443252D01*
X80534498Y-91497603D01*
X80369376Y-91585862D01*
X80224643Y-91704643D01*
X80105862Y-91849376D01*
X80017603Y-92014498D01*
X79963252Y-92193670D01*
X79944900Y-92379999D01*
X50500500Y-92379999D01*
X50500500Y-89840000D01*
X79944900Y-89840000D01*
X79963252Y-90026329D01*
X80017603Y-90205501D01*
X80105862Y-90370623D01*
X80105864Y-90370625D01*
X80224643Y-90515357D01*
X80347369Y-90616076D01*
X80369376Y-90634137D01*
X80534498Y-90722396D01*
X80624084Y-90749571D01*
X80713669Y-90776747D01*
X80806834Y-90785923D01*
X80899999Y-90795099D01*
X80899999Y-90795098D01*
X80900000Y-90795099D01*
X81086331Y-90776747D01*
X81265501Y-90722396D01*
X81430625Y-90634136D01*
X81575357Y-90515357D01*
X81694136Y-90370625D01*
X81782396Y-90205501D01*
X81836747Y-90026331D01*
X81855099Y-89840000D01*
X81836747Y-89653669D01*
X81782396Y-89474499D01*
X81782396Y-89474498D01*
X81694137Y-89309376D01*
X81676076Y-89287369D01*
X81575357Y-89164643D01*
X81430625Y-89045864D01*
X81430626Y-89045864D01*
X81430623Y-89045862D01*
X81265501Y-88957603D01*
X81086329Y-88903252D01*
X80899999Y-88884900D01*
X80713670Y-88903252D01*
X80534498Y-88957603D01*
X80369376Y-89045862D01*
X80224643Y-89164643D01*
X80105862Y-89309376D01*
X80017603Y-89474498D01*
X79963252Y-89653670D01*
X79944900Y-89840000D01*
X50500500Y-89840000D01*
X50500500Y-87450000D01*
X73734352Y-87450000D01*
X73754834Y-87592455D01*
X73810099Y-87713466D01*
X73814623Y-87723373D01*
X73907555Y-87830623D01*
X73908874Y-87832145D01*
X74029945Y-87909952D01*
X74029947Y-87909953D01*
X74168039Y-87950500D01*
X74311961Y-87950500D01*
X74450053Y-87909953D01*
X74571128Y-87832143D01*
X74665377Y-87723373D01*
X74725165Y-87592457D01*
X74745647Y-87450000D01*
X74725165Y-87307543D01*
X74721720Y-87300000D01*
X79945402Y-87300000D01*
X79963744Y-87486231D01*
X80018065Y-87665306D01*
X80074868Y-87771576D01*
X80455549Y-87390894D01*
X80456327Y-87401265D01*
X80505887Y-87527541D01*
X80590465Y-87633599D01*
X80702547Y-87710016D01*
X80810299Y-87743252D01*
X80428422Y-88125130D01*
X80534693Y-88181934D01*
X80713768Y-88236255D01*
X80900000Y-88254597D01*
X81086230Y-88236256D01*
X81265307Y-88181932D01*
X81371576Y-88125130D01*
X80988230Y-87741784D01*
X81034138Y-87734865D01*
X81156357Y-87676007D01*
X81255798Y-87583740D01*
X81323625Y-87466260D01*
X81341499Y-87387945D01*
X81725130Y-87771576D01*
X81781932Y-87665307D01*
X81836256Y-87486230D01*
X81854597Y-87300000D01*
X81836255Y-87113768D01*
X81781934Y-86934693D01*
X81725130Y-86828422D01*
X81344449Y-87209102D01*
X81343673Y-87198735D01*
X81294113Y-87072459D01*
X81209535Y-86966401D01*
X81097453Y-86889984D01*
X80989697Y-86856746D01*
X81371576Y-86474868D01*
X81265306Y-86418065D01*
X81086231Y-86363744D01*
X80900000Y-86345402D01*
X80713768Y-86363744D01*
X80534691Y-86418066D01*
X80428422Y-86474868D01*
X80811769Y-86858215D01*
X80765862Y-86865135D01*
X80643643Y-86923993D01*
X80544202Y-87016260D01*
X80476375Y-87133740D01*
X80458500Y-87212054D01*
X80074868Y-86828422D01*
X80018066Y-86934691D01*
X79963744Y-87113768D01*
X79945402Y-87300000D01*
X74721720Y-87300000D01*
X74665377Y-87176627D01*
X74571681Y-87068495D01*
X74547863Y-87012135D01*
X74547500Y-87003664D01*
X74547500Y-84759999D01*
X79944900Y-84759999D01*
X79963252Y-84946329D01*
X80017603Y-85125501D01*
X80105862Y-85290623D01*
X80105864Y-85290625D01*
X80224643Y-85435357D01*
X80337682Y-85528126D01*
X80369376Y-85554137D01*
X80534498Y-85642396D01*
X80624084Y-85669571D01*
X80713669Y-85696747D01*
X80900000Y-85715099D01*
X81086331Y-85696747D01*
X81265501Y-85642396D01*
X81430625Y-85554136D01*
X81575357Y-85435357D01*
X81694136Y-85290625D01*
X81782396Y-85125501D01*
X81836747Y-84946331D01*
X81855099Y-84760000D01*
X81836747Y-84573669D01*
X81805299Y-84470000D01*
X81782396Y-84394498D01*
X81694137Y-84229376D01*
X81637211Y-84160012D01*
X81575357Y-84084643D01*
X81430625Y-83965864D01*
X81430626Y-83965864D01*
X81430623Y-83965862D01*
X81265501Y-83877603D01*
X81086329Y-83823252D01*
X80900000Y-83804900D01*
X80713670Y-83823252D01*
X80534498Y-83877603D01*
X80369376Y-83965862D01*
X80224643Y-84084643D01*
X80105862Y-84229376D01*
X80017603Y-84394498D01*
X79963252Y-84573670D01*
X79944900Y-84759999D01*
X74547500Y-84759999D01*
X74547500Y-82219999D01*
X79944900Y-82219999D01*
X79963252Y-82406329D01*
X80017603Y-82585501D01*
X80105862Y-82750623D01*
X80141983Y-82794636D01*
X80224643Y-82895357D01*
X80297318Y-82955000D01*
X80369376Y-83014137D01*
X80534498Y-83102396D01*
X80624084Y-83129571D01*
X80713669Y-83156747D01*
X80900000Y-83175099D01*
X81086331Y-83156747D01*
X81265501Y-83102396D01*
X81430625Y-83014136D01*
X81575357Y-82895357D01*
X81694136Y-82750625D01*
X81782396Y-82585501D01*
X81836747Y-82406331D01*
X81855099Y-82220000D01*
X81836747Y-82033669D01*
X81782396Y-81854499D01*
X81782396Y-81854498D01*
X81694137Y-81689376D01*
X81673594Y-81664345D01*
X81575357Y-81544643D01*
X81430625Y-81425864D01*
X81430626Y-81425864D01*
X81430623Y-81425862D01*
X81265501Y-81337603D01*
X81086329Y-81283252D01*
X80900000Y-81264900D01*
X80713670Y-81283252D01*
X80534498Y-81337603D01*
X80369376Y-81425862D01*
X80224643Y-81544643D01*
X80105862Y-81689376D01*
X80017603Y-81854498D01*
X79963252Y-82033670D01*
X79944900Y-82219999D01*
X74547500Y-82219999D01*
X74547500Y-79680000D01*
X79944900Y-79680000D01*
X79963252Y-79866329D01*
X80017603Y-80045501D01*
X80105862Y-80210623D01*
X80141281Y-80253781D01*
X80224643Y-80355357D01*
X80347369Y-80456076D01*
X80369376Y-80474137D01*
X80534498Y-80562396D01*
X80624084Y-80589571D01*
X80713669Y-80616747D01*
X80806703Y-80625910D01*
X80899999Y-80635099D01*
X80899999Y-80635098D01*
X80900000Y-80635099D01*
X81086331Y-80616747D01*
X81265501Y-80562396D01*
X81430625Y-80474136D01*
X81575357Y-80355357D01*
X81694136Y-80210625D01*
X81782396Y-80045501D01*
X81836747Y-79866331D01*
X81855099Y-79680000D01*
X81836747Y-79493669D01*
X81782396Y-79314499D01*
X81782396Y-79314498D01*
X81694137Y-79149376D01*
X81636476Y-79079117D01*
X81575357Y-79004643D01*
X81430625Y-78885864D01*
X81430626Y-78885864D01*
X81430623Y-78885862D01*
X81265501Y-78797603D01*
X81086329Y-78743252D01*
X80899999Y-78724900D01*
X80713670Y-78743252D01*
X80534498Y-78797603D01*
X80369376Y-78885862D01*
X80224643Y-79004643D01*
X80105862Y-79149376D01*
X80017603Y-79314498D01*
X79963252Y-79493670D01*
X79944900Y-79680000D01*
X74547500Y-79680000D01*
X74547500Y-77140000D01*
X79944900Y-77140000D01*
X79963252Y-77326329D01*
X80017603Y-77505501D01*
X80105862Y-77670623D01*
X80141983Y-77714636D01*
X80224643Y-77815357D01*
X80312352Y-77887338D01*
X80369376Y-77934137D01*
X80534498Y-78022396D01*
X80553625Y-78028198D01*
X80713669Y-78076747D01*
X80900000Y-78095099D01*
X81086331Y-78076747D01*
X81265501Y-78022396D01*
X81430625Y-77934136D01*
X81575357Y-77815357D01*
X81694136Y-77670625D01*
X81774737Y-77519830D01*
X81818841Y-77477425D01*
X81862046Y-77467500D01*
X83373338Y-77467500D01*
X83431529Y-77486407D01*
X83443342Y-77496496D01*
X88483504Y-82536658D01*
X88511281Y-82591175D01*
X88512500Y-82606662D01*
X88512500Y-94841382D01*
X88512123Y-94850012D01*
X88508712Y-94888984D01*
X88518839Y-94926778D01*
X88520708Y-94935207D01*
X88527502Y-94973737D01*
X88528303Y-94975124D01*
X88538192Y-94998999D01*
X88538605Y-95000543D01*
X88561045Y-95032589D01*
X88565680Y-95039864D01*
X88575219Y-95056386D01*
X88585250Y-95073761D01*
X88615223Y-95098911D01*
X88621591Y-95104745D01*
X97445253Y-103928407D01*
X97451087Y-103934774D01*
X97476240Y-103964750D01*
X97510127Y-103984315D01*
X97517409Y-103988955D01*
X97549454Y-104011393D01*
X97549456Y-104011393D01*
X97549457Y-104011394D01*
X97550991Y-104011805D01*
X97550995Y-104011806D01*
X97574873Y-104021696D01*
X97576261Y-104022497D01*
X97600589Y-104026786D01*
X97614788Y-104029290D01*
X97623224Y-104031160D01*
X97661015Y-104041287D01*
X97661015Y-104041286D01*
X97661016Y-104041287D01*
X97699988Y-104037876D01*
X97708618Y-104037500D01*
X134901382Y-104037500D01*
X134910012Y-104037877D01*
X134948982Y-104041287D01*
X134948982Y-104041286D01*
X134948984Y-104041287D01*
X134986785Y-104031157D01*
X134995211Y-104029290D01*
X135033736Y-104022498D01*
X135033737Y-104022497D01*
X135033739Y-104022497D01*
X135035116Y-104021701D01*
X135059003Y-104011806D01*
X135060543Y-104011394D01*
X135092591Y-103988952D01*
X135099876Y-103984312D01*
X135133760Y-103964750D01*
X135158916Y-103934768D01*
X135164730Y-103928422D01*
X138838423Y-100254730D01*
X138844782Y-100248905D01*
X138874750Y-100223760D01*
X138894311Y-100189877D01*
X138898948Y-100182597D01*
X138921394Y-100150543D01*
X138921806Y-100149003D01*
X138931701Y-100125116D01*
X138932497Y-100123739D01*
X138939296Y-100085171D01*
X138941152Y-100076800D01*
X138951286Y-100038984D01*
X138947877Y-100000019D01*
X138947500Y-99991390D01*
X138947500Y-88218617D01*
X138947877Y-88209987D01*
X138951287Y-88171015D01*
X138941160Y-88133224D01*
X138939290Y-88124788D01*
X138932497Y-88086262D01*
X138932497Y-88086261D01*
X138931696Y-88084873D01*
X138921806Y-88060995D01*
X138921393Y-88059454D01*
X138898955Y-88027409D01*
X138894315Y-88020127D01*
X138874750Y-87986240D01*
X138844774Y-87961087D01*
X138838407Y-87955253D01*
X130454745Y-79571591D01*
X130448911Y-79565223D01*
X130423761Y-79535250D01*
X130407861Y-79526070D01*
X130389864Y-79515680D01*
X130382589Y-79511045D01*
X130350543Y-79488605D01*
X130348999Y-79488192D01*
X130325126Y-79478303D01*
X130323739Y-79477503D01*
X130323738Y-79477502D01*
X130323737Y-79477502D01*
X130285207Y-79470708D01*
X130276778Y-79468839D01*
X130238984Y-79458712D01*
X130200012Y-79462123D01*
X130191382Y-79462500D01*
X125368740Y-79462500D01*
X125310549Y-79443593D01*
X125281430Y-79410168D01*
X125185911Y-79231462D01*
X125118543Y-79149376D01*
X125060883Y-79079117D01*
X124908538Y-78954090D01*
X124908539Y-78954090D01*
X124908536Y-78954088D01*
X124734727Y-78861185D01*
X124546130Y-78803975D01*
X124350000Y-78784658D01*
X124153869Y-78803975D01*
X123965272Y-78861185D01*
X123791463Y-78954088D01*
X123639117Y-79079117D01*
X123514088Y-79231463D01*
X123421185Y-79405272D01*
X123363975Y-79593869D01*
X123344658Y-79789999D01*
X123363975Y-79986130D01*
X123421185Y-80174727D01*
X123514088Y-80348536D01*
X123514089Y-80348537D01*
X123514090Y-80348538D01*
X123639117Y-80500883D01*
X123768298Y-80606900D01*
X123791463Y-80625911D01*
X123965272Y-80718814D01*
X124059570Y-80747419D01*
X124153868Y-80776024D01*
X124350000Y-80795341D01*
X124546132Y-80776024D01*
X124734727Y-80718814D01*
X124908538Y-80625910D01*
X125060883Y-80500883D01*
X125185910Y-80348538D01*
X125185912Y-80348536D01*
X125281430Y-80169832D01*
X125325535Y-80127425D01*
X125368740Y-80117500D01*
X130033338Y-80117500D01*
X130091529Y-80136407D01*
X130103342Y-80146496D01*
X138263504Y-88306658D01*
X138291281Y-88361175D01*
X138292500Y-88376662D01*
X138292500Y-99833337D01*
X138273593Y-99891528D01*
X138263504Y-99903341D01*
X134813342Y-103353504D01*
X134758825Y-103381281D01*
X134743338Y-103382500D01*
X107837775Y-103382500D01*
X107779584Y-103363593D01*
X107743620Y-103314093D01*
X107743620Y-103252907D01*
X107779584Y-103203407D01*
X107824853Y-103185347D01*
X107842335Y-103183045D01*
X107891802Y-103176533D01*
X108033259Y-103117940D01*
X108124231Y-103048135D01*
X108124234Y-103048131D01*
X108154731Y-103024731D01*
X108174182Y-102999378D01*
X108182706Y-102989657D01*
X111199651Y-99972712D01*
X111209371Y-99964189D01*
X111234731Y-99944731D01*
X111261690Y-99909595D01*
X111327940Y-99823259D01*
X111386533Y-99681802D01*
X111406518Y-99530000D01*
X111402347Y-99498316D01*
X111401500Y-99485395D01*
X111401500Y-96831144D01*
X111420407Y-96772953D01*
X111437695Y-96754616D01*
X111523883Y-96683883D01*
X111644162Y-96537324D01*
X111727719Y-96381000D01*
X111733537Y-96370116D01*
X111761054Y-96279399D01*
X111788573Y-96188683D01*
X111807157Y-96000000D01*
X111807157Y-95999999D01*
X114952842Y-95999999D01*
X114971426Y-96188682D01*
X115026462Y-96370116D01*
X115115835Y-96537319D01*
X115115838Y-96537324D01*
X115236117Y-96683883D01*
X115382676Y-96804162D01*
X115382680Y-96804164D01*
X115549883Y-96893537D01*
X115729695Y-96948081D01*
X115731317Y-96948573D01*
X115920000Y-96967157D01*
X116108683Y-96948573D01*
X116199398Y-96921054D01*
X116290116Y-96893537D01*
X116364156Y-96853960D01*
X116457324Y-96804162D01*
X116603883Y-96683883D01*
X116724162Y-96537324D01*
X116807719Y-96381000D01*
X116813537Y-96370116D01*
X116841054Y-96279399D01*
X116868573Y-96188683D01*
X116887157Y-96000000D01*
X120033344Y-96000000D01*
X120051918Y-96188583D01*
X120106926Y-96369921D01*
X120166001Y-96480443D01*
X120615096Y-96031347D01*
X120615051Y-96031898D01*
X120646266Y-96155162D01*
X120715813Y-96261612D01*
X120816157Y-96339713D01*
X120936422Y-96381000D01*
X120972552Y-96381000D01*
X120519555Y-96833997D01*
X120630078Y-96893074D01*
X120811416Y-96948081D01*
X121000000Y-96966655D01*
X121188583Y-96948081D01*
X121369921Y-96893074D01*
X121480443Y-96833997D01*
X121027446Y-96381000D01*
X121031569Y-96381000D01*
X121125421Y-96365339D01*
X121237251Y-96304820D01*
X121323371Y-96211269D01*
X121374448Y-96094823D01*
X121380105Y-96026551D01*
X121833997Y-96480443D01*
X121893074Y-96369921D01*
X121948081Y-96188583D01*
X121966655Y-96000000D01*
X125113344Y-96000000D01*
X125131918Y-96188583D01*
X125186926Y-96369921D01*
X125246001Y-96480443D01*
X125695096Y-96031347D01*
X125695051Y-96031898D01*
X125726266Y-96155162D01*
X125795813Y-96261612D01*
X125896157Y-96339713D01*
X126016422Y-96381000D01*
X126052552Y-96381000D01*
X125599555Y-96833997D01*
X125710078Y-96893074D01*
X125891416Y-96948081D01*
X126079999Y-96966655D01*
X126268583Y-96948081D01*
X126449921Y-96893074D01*
X126560443Y-96833997D01*
X126107446Y-96381000D01*
X126111569Y-96381000D01*
X126205421Y-96365339D01*
X126317251Y-96304820D01*
X126403371Y-96211269D01*
X126454448Y-96094823D01*
X126460105Y-96026551D01*
X126913997Y-96480443D01*
X126973074Y-96369921D01*
X127028081Y-96188583D01*
X127046655Y-96000000D01*
X130192842Y-96000000D01*
X130211426Y-96188682D01*
X130266462Y-96370116D01*
X130355835Y-96537319D01*
X130355838Y-96537324D01*
X130476117Y-96683883D01*
X130622676Y-96804162D01*
X130622680Y-96804164D01*
X130789883Y-96893537D01*
X130969695Y-96948081D01*
X130971317Y-96948573D01*
X131160000Y-96967157D01*
X131348683Y-96948573D01*
X131439398Y-96921054D01*
X131530116Y-96893537D01*
X131604156Y-96853960D01*
X131697324Y-96804162D01*
X131843883Y-96683883D01*
X131964162Y-96537324D01*
X132047719Y-96381000D01*
X132053537Y-96370116D01*
X132081054Y-96279399D01*
X132108573Y-96188683D01*
X132127157Y-96000000D01*
X132108573Y-95811317D01*
X132086451Y-95738388D01*
X132053537Y-95629883D01*
X131964164Y-95462680D01*
X131964162Y-95462676D01*
X131843883Y-95316117D01*
X131697324Y-95195838D01*
X131697320Y-95195835D01*
X131697319Y-95195835D01*
X131530116Y-95106462D01*
X131348682Y-95051426D01*
X131159999Y-95032842D01*
X130971317Y-95051426D01*
X130789883Y-95106462D01*
X130622680Y-95195835D01*
X130622676Y-95195837D01*
X130622676Y-95195838D01*
X130578501Y-95232092D01*
X130476117Y-95316117D01*
X130355835Y-95462680D01*
X130266462Y-95629883D01*
X130211426Y-95811317D01*
X130192842Y-96000000D01*
X127046655Y-96000000D01*
X127028081Y-95811416D01*
X126973074Y-95630078D01*
X126913997Y-95519555D01*
X126464903Y-95968648D01*
X126464949Y-95968102D01*
X126433734Y-95844838D01*
X126364187Y-95738388D01*
X126263843Y-95660287D01*
X126143578Y-95619000D01*
X126107444Y-95619000D01*
X126560443Y-95166001D01*
X126449921Y-95106926D01*
X126268583Y-95051918D01*
X126080000Y-95033344D01*
X125891416Y-95051918D01*
X125710076Y-95106926D01*
X125599555Y-95166001D01*
X126052554Y-95619000D01*
X126048431Y-95619000D01*
X125954579Y-95634661D01*
X125842749Y-95695180D01*
X125756629Y-95788731D01*
X125705552Y-95905177D01*
X125699894Y-95973448D01*
X125246002Y-95519556D01*
X125186926Y-95630078D01*
X125131918Y-95811416D01*
X125113344Y-96000000D01*
X121966655Y-96000000D01*
X121948081Y-95811416D01*
X121893074Y-95630078D01*
X121833997Y-95519555D01*
X121384903Y-95968648D01*
X121384949Y-95968102D01*
X121353734Y-95844838D01*
X121284187Y-95738388D01*
X121183843Y-95660287D01*
X121063578Y-95619000D01*
X121027444Y-95619000D01*
X121480443Y-95166001D01*
X121369921Y-95106926D01*
X121188583Y-95051918D01*
X121000000Y-95033344D01*
X120811416Y-95051918D01*
X120630076Y-95106926D01*
X120519555Y-95166001D01*
X120972554Y-95619000D01*
X120968431Y-95619000D01*
X120874579Y-95634661D01*
X120762749Y-95695180D01*
X120676629Y-95788731D01*
X120625552Y-95905177D01*
X120619894Y-95973448D01*
X120166001Y-95519555D01*
X120106926Y-95630076D01*
X120051918Y-95811416D01*
X120033344Y-96000000D01*
X116887157Y-96000000D01*
X116868573Y-95811317D01*
X116846451Y-95738388D01*
X116813537Y-95629883D01*
X116724164Y-95462680D01*
X116724162Y-95462676D01*
X116603883Y-95316117D01*
X116457324Y-95195838D01*
X116457320Y-95195835D01*
X116457319Y-95195835D01*
X116290116Y-95106462D01*
X116108682Y-95051426D01*
X115920000Y-95032842D01*
X115731317Y-95051426D01*
X115549883Y-95106462D01*
X115382680Y-95195835D01*
X115382676Y-95195837D01*
X115382676Y-95195838D01*
X115338501Y-95232092D01*
X115236117Y-95316117D01*
X115115835Y-95462680D01*
X115026462Y-95629883D01*
X114971426Y-95811317D01*
X114952842Y-95999999D01*
X111807157Y-95999999D01*
X111788573Y-95811317D01*
X111766451Y-95738388D01*
X111733537Y-95629883D01*
X111644164Y-95462680D01*
X111644162Y-95462676D01*
X111523883Y-95316117D01*
X111377324Y-95195838D01*
X111377320Y-95195835D01*
X111377319Y-95195835D01*
X111210116Y-95106462D01*
X111028682Y-95051426D01*
X110840000Y-95032842D01*
X110651317Y-95051426D01*
X110469883Y-95106462D01*
X110302680Y-95195835D01*
X110302676Y-95195837D01*
X110302676Y-95195838D01*
X110258501Y-95232092D01*
X110156117Y-95316117D01*
X110035835Y-95462680D01*
X109946462Y-95629883D01*
X109891426Y-95811317D01*
X109872842Y-96000000D01*
X109891426Y-96188682D01*
X109946462Y-96370116D01*
X110035835Y-96537319D01*
X110035838Y-96537324D01*
X110156117Y-96683883D01*
X110178838Y-96702529D01*
X110202305Y-96721789D01*
X110235292Y-96773320D01*
X110238499Y-96798316D01*
X110238500Y-99248126D01*
X110219593Y-99306317D01*
X110209504Y-99318130D01*
X107528130Y-101999504D01*
X107473613Y-102027281D01*
X107458126Y-102028500D01*
X101561873Y-102028500D01*
X101503682Y-102009593D01*
X101491869Y-101999504D01*
X99492365Y-100000000D01*
X102944900Y-100000000D01*
X102963252Y-100186329D01*
X103017603Y-100365501D01*
X103105862Y-100530623D01*
X103105864Y-100530625D01*
X103224643Y-100675357D01*
X103347369Y-100776076D01*
X103369376Y-100794137D01*
X103534498Y-100882396D01*
X103624084Y-100909571D01*
X103713669Y-100936747D01*
X103806834Y-100945923D01*
X103899999Y-100955099D01*
X103899999Y-100955098D01*
X103900000Y-100955099D01*
X104086331Y-100936747D01*
X104265501Y-100882396D01*
X104430625Y-100794136D01*
X104575357Y-100675357D01*
X104694136Y-100530625D01*
X104782396Y-100365501D01*
X104836747Y-100186331D01*
X104855099Y-100000000D01*
X104836747Y-99813669D01*
X104782396Y-99634499D01*
X104782396Y-99634498D01*
X104694137Y-99469376D01*
X104676076Y-99447369D01*
X104575357Y-99324643D01*
X104430625Y-99205864D01*
X104430626Y-99205864D01*
X104430623Y-99205862D01*
X104265501Y-99117603D01*
X104086329Y-99063252D01*
X103900000Y-99044900D01*
X103713670Y-99063252D01*
X103534498Y-99117603D01*
X103369376Y-99205862D01*
X103224643Y-99324643D01*
X103105862Y-99469376D01*
X103017603Y-99634498D01*
X102963252Y-99813670D01*
X102944900Y-100000000D01*
X99492365Y-100000000D01*
X96952366Y-97460000D01*
X102944900Y-97460000D01*
X102963252Y-97646329D01*
X103017603Y-97825501D01*
X103105862Y-97990623D01*
X103105864Y-97990625D01*
X103224643Y-98135357D01*
X103328385Y-98220496D01*
X103369376Y-98254137D01*
X103534498Y-98342396D01*
X103624084Y-98369571D01*
X103713669Y-98396747D01*
X103806834Y-98405923D01*
X103899999Y-98415099D01*
X103899999Y-98415098D01*
X103900000Y-98415099D01*
X104086331Y-98396747D01*
X104265501Y-98342396D01*
X104430625Y-98254136D01*
X104575357Y-98135357D01*
X104694136Y-97990625D01*
X104782396Y-97825501D01*
X104836747Y-97646331D01*
X104855099Y-97460000D01*
X104836747Y-97273669D01*
X104805864Y-97171861D01*
X104782396Y-97094498D01*
X104694137Y-96929376D01*
X104664344Y-96893074D01*
X104575357Y-96784643D01*
X104452584Y-96683885D01*
X104430623Y-96665862D01*
X104265501Y-96577603D01*
X104086329Y-96523252D01*
X103899999Y-96504900D01*
X103713670Y-96523252D01*
X103534498Y-96577603D01*
X103369376Y-96665862D01*
X103224643Y-96784643D01*
X103105862Y-96929376D01*
X103017603Y-97094498D01*
X102963252Y-97273670D01*
X102944900Y-97460000D01*
X96952366Y-97460000D01*
X96722715Y-97230349D01*
X96714176Y-97220611D01*
X96694730Y-97195268D01*
X96664235Y-97171869D01*
X96664226Y-97171861D01*
X96573259Y-97102060D01*
X96431801Y-97043466D01*
X96299983Y-97026112D01*
X96280000Y-97023482D01*
X96279999Y-97023482D01*
X96248318Y-97027653D01*
X96235396Y-97028500D01*
X94474604Y-97028500D01*
X94461682Y-97027653D01*
X94430000Y-97023482D01*
X94278198Y-97043466D01*
X94136740Y-97102061D01*
X94015268Y-97195268D01*
X93922061Y-97316740D01*
X93863466Y-97458198D01*
X93843482Y-97610000D01*
X93863466Y-97761801D01*
X93922061Y-97903259D01*
X94015268Y-98024731D01*
X94108476Y-98096250D01*
X94136741Y-98117939D01*
X94278198Y-98176533D01*
X94430000Y-98196518D01*
X94461682Y-98192346D01*
X94474604Y-98191500D01*
X95998126Y-98191500D01*
X96056317Y-98210407D01*
X96068130Y-98220496D01*
X100837280Y-102989645D01*
X100845812Y-102999374D01*
X100865269Y-103024731D01*
X100895770Y-103048135D01*
X100986741Y-103117940D01*
X101086765Y-103159371D01*
X101128198Y-103176533D01*
X101195147Y-103185347D01*
X101250372Y-103211688D01*
X101279567Y-103265458D01*
X101271581Y-103326120D01*
X101229464Y-103370503D01*
X101182225Y-103382500D01*
X97866662Y-103382500D01*
X97808471Y-103363593D01*
X97796658Y-103353504D01*
X89363153Y-94919999D01*
X102944900Y-94919999D01*
X102963252Y-95106329D01*
X103017603Y-95285501D01*
X103105862Y-95450623D01*
X103105864Y-95450625D01*
X103224643Y-95595357D01*
X103346277Y-95695180D01*
X103369376Y-95714137D01*
X103534498Y-95802396D01*
X103624084Y-95829571D01*
X103713669Y-95856747D01*
X103806834Y-95865923D01*
X103899999Y-95875099D01*
X103899999Y-95875098D01*
X103900000Y-95875099D01*
X104086331Y-95856747D01*
X104265501Y-95802396D01*
X104430625Y-95714136D01*
X104575357Y-95595357D01*
X104694136Y-95450625D01*
X104782396Y-95285501D01*
X104836747Y-95106331D01*
X104855099Y-94920000D01*
X104836747Y-94733669D01*
X104782396Y-94554499D01*
X104782396Y-94554498D01*
X104694137Y-94389376D01*
X104659592Y-94347283D01*
X104575357Y-94244643D01*
X104430625Y-94125864D01*
X104430626Y-94125864D01*
X104430623Y-94125862D01*
X104265501Y-94037603D01*
X104086329Y-93983252D01*
X103899999Y-93964900D01*
X103713670Y-93983252D01*
X103534498Y-94037603D01*
X103369376Y-94125862D01*
X103224643Y-94244643D01*
X103105862Y-94389376D01*
X103017603Y-94554498D01*
X102963252Y-94733670D01*
X102944900Y-94919999D01*
X89363153Y-94919999D01*
X89196496Y-94753342D01*
X89168719Y-94698825D01*
X89167500Y-94683338D01*
X89167500Y-92379999D01*
X102944900Y-92379999D01*
X102963252Y-92566329D01*
X103017603Y-92745501D01*
X103105862Y-92910623D01*
X103105864Y-92910625D01*
X103224643Y-93055357D01*
X103323556Y-93136533D01*
X103369376Y-93174137D01*
X103534498Y-93262396D01*
X103624084Y-93289571D01*
X103713669Y-93316747D01*
X103806834Y-93325923D01*
X103899999Y-93335099D01*
X103899999Y-93335098D01*
X103900000Y-93335099D01*
X104086331Y-93316747D01*
X104265501Y-93262396D01*
X104430625Y-93174136D01*
X104575357Y-93055357D01*
X104694136Y-92910625D01*
X104782396Y-92745501D01*
X104836747Y-92566331D01*
X104837371Y-92560000D01*
X117014352Y-92560000D01*
X117034834Y-92702455D01*
X117034835Y-92702457D01*
X117094623Y-92833373D01*
X117161560Y-92910623D01*
X117188874Y-92942145D01*
X117309945Y-93019952D01*
X117309947Y-93019953D01*
X117448039Y-93060500D01*
X117591961Y-93060500D01*
X117730053Y-93019953D01*
X117851128Y-92942143D01*
X117945377Y-92833373D01*
X118005165Y-92702457D01*
X118025647Y-92560000D01*
X118027673Y-92545910D01*
X118031754Y-92546496D01*
X118037786Y-92511620D01*
X118055343Y-92487809D01*
X118848422Y-91694730D01*
X118854768Y-91688916D01*
X118884750Y-91663760D01*
X118904313Y-91629873D01*
X118908954Y-91622589D01*
X118931393Y-91590544D01*
X118931392Y-91590544D01*
X118931394Y-91590543D01*
X118931806Y-91589003D01*
X118941701Y-91565116D01*
X118942497Y-91563739D01*
X118949290Y-91525211D01*
X118951157Y-91516785D01*
X118961287Y-91478984D01*
X118957876Y-91440011D01*
X118957500Y-91431382D01*
X118957500Y-90370623D01*
X118957500Y-89077808D01*
X118976406Y-89019621D01*
X118982730Y-89013702D01*
X118981806Y-89012901D01*
X118992848Y-89000158D01*
X119085377Y-88893373D01*
X119145165Y-88762457D01*
X119165647Y-88620000D01*
X119145165Y-88477543D01*
X119085377Y-88346627D01*
X118991128Y-88237857D01*
X118991127Y-88237856D01*
X118991125Y-88237854D01*
X118870054Y-88160047D01*
X118731961Y-88119500D01*
X118588039Y-88119500D01*
X118449945Y-88160047D01*
X118328874Y-88237854D01*
X118234622Y-88346628D01*
X118174834Y-88477544D01*
X118154352Y-88619999D01*
X118174834Y-88762455D01*
X118228702Y-88880407D01*
X118234623Y-88893373D01*
X118278320Y-88943802D01*
X118302137Y-89000158D01*
X118302500Y-89008631D01*
X118302500Y-91273337D01*
X118283593Y-91331528D01*
X118273504Y-91343341D01*
X117586342Y-92030504D01*
X117531825Y-92058281D01*
X117516338Y-92059500D01*
X117448039Y-92059500D01*
X117309945Y-92100047D01*
X117188874Y-92177854D01*
X117094622Y-92286628D01*
X117034834Y-92417544D01*
X117014352Y-92560000D01*
X104837371Y-92560000D01*
X104855099Y-92380000D01*
X104836747Y-92193669D01*
X104782396Y-92014499D01*
X104782396Y-92014498D01*
X104694137Y-91849376D01*
X104676076Y-91827369D01*
X104575357Y-91704643D01*
X104436328Y-91590544D01*
X104430623Y-91585862D01*
X104265501Y-91497603D01*
X104086329Y-91443252D01*
X103899999Y-91424900D01*
X103713670Y-91443252D01*
X103534498Y-91497603D01*
X103369376Y-91585862D01*
X103224643Y-91704643D01*
X103105862Y-91849376D01*
X103017603Y-92014498D01*
X102963252Y-92193670D01*
X102944900Y-92379999D01*
X89167500Y-92379999D01*
X89167500Y-89839999D01*
X102944900Y-89839999D01*
X102963252Y-90026329D01*
X103017603Y-90205501D01*
X103105862Y-90370623D01*
X103105864Y-90370625D01*
X103224643Y-90515357D01*
X103347369Y-90616076D01*
X103369376Y-90634137D01*
X103534498Y-90722396D01*
X103624084Y-90749571D01*
X103713669Y-90776747D01*
X103900000Y-90795099D01*
X104086331Y-90776747D01*
X104265501Y-90722396D01*
X104430625Y-90634136D01*
X104575357Y-90515357D01*
X104694136Y-90370625D01*
X104782396Y-90205501D01*
X104836747Y-90026331D01*
X104855099Y-89840000D01*
X104836747Y-89653669D01*
X104782396Y-89474499D01*
X104782396Y-89474498D01*
X104694137Y-89309376D01*
X104676076Y-89287369D01*
X104575357Y-89164643D01*
X104430625Y-89045864D01*
X104430626Y-89045864D01*
X104430623Y-89045862D01*
X104265501Y-88957603D01*
X104086329Y-88903252D01*
X103900000Y-88884900D01*
X103713670Y-88903252D01*
X103534498Y-88957603D01*
X103369376Y-89045862D01*
X103224643Y-89164643D01*
X103105862Y-89309376D01*
X103017603Y-89474498D01*
X102963252Y-89653670D01*
X102944900Y-89839999D01*
X89167500Y-89839999D01*
X89167500Y-87300000D01*
X102944900Y-87300000D01*
X102963252Y-87486329D01*
X103017603Y-87665501D01*
X103105862Y-87830623D01*
X103134295Y-87865268D01*
X103224643Y-87975357D01*
X103327115Y-88059454D01*
X103369376Y-88094137D01*
X103534498Y-88182396D01*
X103624084Y-88209571D01*
X103713669Y-88236747D01*
X103806834Y-88245923D01*
X103899999Y-88255099D01*
X103899999Y-88255098D01*
X103900000Y-88255099D01*
X104086331Y-88236747D01*
X104265501Y-88182396D01*
X104430625Y-88094136D01*
X104575357Y-87975357D01*
X104694136Y-87830625D01*
X104782396Y-87665501D01*
X104836747Y-87486331D01*
X104855099Y-87300000D01*
X104836747Y-87113669D01*
X104803377Y-87003664D01*
X104782396Y-86934498D01*
X104694137Y-86769376D01*
X104676076Y-86747369D01*
X104575357Y-86624643D01*
X104430625Y-86505864D01*
X104430626Y-86505864D01*
X104430623Y-86505862D01*
X104265501Y-86417603D01*
X104086329Y-86363252D01*
X103899999Y-86344900D01*
X103713670Y-86363252D01*
X103534498Y-86417603D01*
X103369376Y-86505862D01*
X103224643Y-86624643D01*
X103105862Y-86769376D01*
X103017603Y-86934498D01*
X102963252Y-87113670D01*
X102944900Y-87300000D01*
X89167500Y-87300000D01*
X89167500Y-84760000D01*
X102944900Y-84760000D01*
X102963252Y-84946329D01*
X103017603Y-85125501D01*
X103105862Y-85290623D01*
X103105864Y-85290625D01*
X103224643Y-85435357D01*
X103337682Y-85528126D01*
X103369376Y-85554137D01*
X103534498Y-85642396D01*
X103624084Y-85669571D01*
X103713669Y-85696747D01*
X103802489Y-85705495D01*
X103899999Y-85715099D01*
X103899999Y-85715098D01*
X103900000Y-85715099D01*
X104086331Y-85696747D01*
X104265501Y-85642396D01*
X104430625Y-85554136D01*
X104575357Y-85435357D01*
X104694136Y-85290625D01*
X104782396Y-85125501D01*
X104784065Y-85120000D01*
X115760838Y-85120000D01*
X115801649Y-85254535D01*
X115894504Y-85428254D01*
X116019472Y-85580527D01*
X116171745Y-85705495D01*
X116345463Y-85798350D01*
X116479999Y-85839160D01*
X116480000Y-85839160D01*
X116480000Y-85185686D01*
X116491955Y-85197641D01*
X116604852Y-85255165D01*
X116698519Y-85270000D01*
X116761481Y-85270000D01*
X116855148Y-85255165D01*
X116968045Y-85197641D01*
X116980000Y-85185685D01*
X116980000Y-85839160D01*
X117076133Y-85809999D01*
X119503482Y-85809999D01*
X119523466Y-85961801D01*
X119582060Y-86103259D01*
X119651865Y-86194231D01*
X119651869Y-86194235D01*
X119675268Y-86224731D01*
X119700612Y-86244177D01*
X119710350Y-86252716D01*
X122117279Y-88659644D01*
X122125818Y-88669382D01*
X122145269Y-88694731D01*
X122266741Y-88787939D01*
X122408198Y-88846533D01*
X122521884Y-88861500D01*
X122521885Y-88861500D01*
X122526902Y-88862160D01*
X122560000Y-88866518D01*
X122591680Y-88862347D01*
X122604603Y-88861500D01*
X124038126Y-88861500D01*
X124096317Y-88880407D01*
X124108130Y-88890496D01*
X128167283Y-92949649D01*
X128175822Y-92959387D01*
X128195269Y-92984731D01*
X128225765Y-93008131D01*
X128225769Y-93008135D01*
X128287311Y-93055357D01*
X128316741Y-93077939D01*
X128458198Y-93136533D01*
X128571884Y-93151500D01*
X128571885Y-93151500D01*
X128576902Y-93152160D01*
X128610000Y-93156518D01*
X128641680Y-93152347D01*
X128654603Y-93151500D01*
X133738126Y-93151500D01*
X133796317Y-93170407D01*
X133808130Y-93180496D01*
X135629504Y-95001869D01*
X135657281Y-95056386D01*
X135658500Y-95071873D01*
X135658500Y-95185268D01*
X135639593Y-95243459D01*
X135622306Y-95261795D01*
X135556120Y-95316114D01*
X135556118Y-95316115D01*
X135556117Y-95316117D01*
X135445730Y-95450623D01*
X135435835Y-95462680D01*
X135346462Y-95629883D01*
X135291426Y-95811317D01*
X135272842Y-96000000D01*
X135291426Y-96188682D01*
X135346462Y-96370116D01*
X135435835Y-96537319D01*
X135435838Y-96537324D01*
X135556117Y-96683883D01*
X135702676Y-96804162D01*
X135702680Y-96804164D01*
X135869883Y-96893537D01*
X136051317Y-96948573D01*
X136239999Y-96967157D01*
X136239999Y-96967156D01*
X136240000Y-96967157D01*
X136428683Y-96948573D01*
X136519398Y-96921054D01*
X136610116Y-96893537D01*
X136684156Y-96853960D01*
X136777324Y-96804162D01*
X136923883Y-96683883D01*
X137044162Y-96537324D01*
X137127719Y-96381000D01*
X137133537Y-96370116D01*
X137161054Y-96279399D01*
X137188573Y-96188683D01*
X137207157Y-96000000D01*
X137188573Y-95811317D01*
X137166451Y-95738388D01*
X137133537Y-95629883D01*
X137044164Y-95462680D01*
X137044162Y-95462676D01*
X136923883Y-95316117D01*
X136910892Y-95305456D01*
X136857694Y-95261795D01*
X136824707Y-95210263D01*
X136821500Y-95185268D01*
X136821500Y-94834602D01*
X136822347Y-94821680D01*
X136822433Y-94821020D01*
X136826518Y-94790000D01*
X136819102Y-94733669D01*
X136806533Y-94638198D01*
X136747939Y-94496741D01*
X136747938Y-94496740D01*
X136747433Y-94495520D01*
X136743988Y-94491592D01*
X136678135Y-94405769D01*
X136679569Y-94407504D01*
X136678119Y-94405749D01*
X136654732Y-94375269D01*
X136629387Y-94355822D01*
X136619649Y-94347283D01*
X134462715Y-92190349D01*
X134454176Y-92180611D01*
X134434730Y-92155268D01*
X134404235Y-92131869D01*
X134404226Y-92131861D01*
X134313259Y-92062060D01*
X134171801Y-92003466D01*
X134039984Y-91986112D01*
X134020000Y-91983482D01*
X134019999Y-91983482D01*
X133988318Y-91987653D01*
X133975396Y-91988500D01*
X128891874Y-91988500D01*
X128833683Y-91969593D01*
X128821870Y-91959504D01*
X124762715Y-87900349D01*
X124754176Y-87890611D01*
X124734730Y-87865268D01*
X124704235Y-87841869D01*
X124704226Y-87841861D01*
X124613259Y-87772060D01*
X124471801Y-87713466D01*
X124339984Y-87696112D01*
X124320000Y-87693482D01*
X124319999Y-87693482D01*
X124288318Y-87697653D01*
X124275396Y-87698500D01*
X122841873Y-87698500D01*
X122783682Y-87679593D01*
X122771869Y-87669504D01*
X121765736Y-86663371D01*
X120700493Y-85598127D01*
X120672718Y-85543613D01*
X120671499Y-85528138D01*
X120671499Y-84870000D01*
X123344658Y-84870000D01*
X123363975Y-85066130D01*
X123421185Y-85254727D01*
X123514088Y-85428536D01*
X123514090Y-85428538D01*
X123639117Y-85580883D01*
X123768298Y-85686900D01*
X123791463Y-85705911D01*
X123965272Y-85798814D01*
X124059570Y-85827419D01*
X124153868Y-85856024D01*
X124350000Y-85875341D01*
X124546132Y-85856024D01*
X124734727Y-85798814D01*
X124908538Y-85705910D01*
X125060883Y-85580883D01*
X125185910Y-85428538D01*
X125278814Y-85254727D01*
X125336024Y-85066132D01*
X125355341Y-84870000D01*
X125336024Y-84673868D01*
X125278814Y-84485273D01*
X125278814Y-84485272D01*
X125185911Y-84311463D01*
X125131539Y-84245211D01*
X125060883Y-84159117D01*
X124929786Y-84051528D01*
X124908536Y-84034088D01*
X124734727Y-83941185D01*
X124546130Y-83883975D01*
X124350000Y-83864658D01*
X124153869Y-83883975D01*
X123965272Y-83941185D01*
X123791463Y-84034088D01*
X123639117Y-84159117D01*
X123514088Y-84311463D01*
X123421185Y-84485272D01*
X123363975Y-84673869D01*
X123344658Y-84870000D01*
X120671499Y-84870000D01*
X120671499Y-82329999D01*
X123344658Y-82329999D01*
X123363975Y-82526130D01*
X123421185Y-82714727D01*
X123514088Y-82888536D01*
X123514090Y-82888538D01*
X123639117Y-83040883D01*
X123768298Y-83146900D01*
X123791463Y-83165911D01*
X123965272Y-83258814D01*
X124059570Y-83287418D01*
X124153868Y-83316024D01*
X124350000Y-83335341D01*
X124546132Y-83316024D01*
X124734727Y-83258814D01*
X124908538Y-83165910D01*
X125060883Y-83040883D01*
X125185910Y-82888538D01*
X125278814Y-82714727D01*
X125336024Y-82526132D01*
X125355341Y-82330000D01*
X125336024Y-82133868D01*
X125299590Y-82013761D01*
X125278814Y-81945272D01*
X125185911Y-81771463D01*
X125118543Y-81689376D01*
X125060883Y-81619117D01*
X124908538Y-81494090D01*
X124908539Y-81494090D01*
X124908536Y-81494088D01*
X124734727Y-81401185D01*
X124546130Y-81343975D01*
X124350000Y-81324658D01*
X124153869Y-81343975D01*
X123965272Y-81401185D01*
X123791463Y-81494088D01*
X123639117Y-81619117D01*
X123514088Y-81771463D01*
X123421185Y-81945272D01*
X123363975Y-82133869D01*
X123344658Y-82329999D01*
X120671499Y-82329999D01*
X120671499Y-78461872D01*
X120690406Y-78403682D01*
X120700495Y-78391869D01*
X121231869Y-77860496D01*
X121286386Y-77832719D01*
X121301873Y-77831500D01*
X123486112Y-77831500D01*
X123544303Y-77850407D01*
X123562637Y-77867692D01*
X123639117Y-77960883D01*
X123768298Y-78066900D01*
X123791463Y-78085911D01*
X123965272Y-78178814D01*
X124059570Y-78207418D01*
X124153868Y-78236024D01*
X124223246Y-78242857D01*
X124349999Y-78255341D01*
X124349999Y-78255340D01*
X124350000Y-78255341D01*
X124546132Y-78236024D01*
X124734727Y-78178814D01*
X124908538Y-78085910D01*
X125060883Y-77960883D01*
X125185910Y-77808538D01*
X125278814Y-77634727D01*
X125319683Y-77500000D01*
X131294422Y-77500000D01*
X131294558Y-77502594D01*
X131314585Y-77884741D01*
X131314586Y-77884757D01*
X131314722Y-77887338D01*
X131315127Y-77889898D01*
X131315128Y-77889903D01*
X131374990Y-78267863D01*
X131374993Y-78267880D01*
X131375398Y-78270433D01*
X131376068Y-78272936D01*
X131376070Y-78272942D01*
X131475114Y-78642582D01*
X131475118Y-78642595D01*
X131475786Y-78645087D01*
X131476717Y-78647514D01*
X131476718Y-78647515D01*
X131613806Y-79004643D01*
X131614786Y-79007194D01*
X131790875Y-79352789D01*
X132002124Y-79678084D01*
X132246219Y-79979516D01*
X132520484Y-80253781D01*
X132821916Y-80497876D01*
X133147211Y-80709125D01*
X133492806Y-80885214D01*
X133854913Y-81024214D01*
X134229567Y-81124602D01*
X134232133Y-81125008D01*
X134232136Y-81125009D01*
X134292792Y-81134615D01*
X134612662Y-81185278D01*
X135000000Y-81205578D01*
X135387338Y-81185278D01*
X135770433Y-81124602D01*
X136145087Y-81024214D01*
X136507194Y-80885214D01*
X136852789Y-80709125D01*
X137178084Y-80497876D01*
X137479516Y-80253781D01*
X137753781Y-79979516D01*
X137997876Y-79678084D01*
X138209125Y-79352789D01*
X138385214Y-79007194D01*
X138524214Y-78645087D01*
X138624602Y-78270433D01*
X138685278Y-77887338D01*
X138705578Y-77500000D01*
X138685278Y-77112662D01*
X138634615Y-76792792D01*
X138625009Y-76732136D01*
X138625008Y-76732133D01*
X138624602Y-76729567D01*
X138524214Y-76354913D01*
X138385214Y-75992806D01*
X138209125Y-75647211D01*
X137997876Y-75321916D01*
X137753781Y-75020484D01*
X137479516Y-74746219D01*
X137178084Y-74502124D01*
X136852789Y-74290875D01*
X136507194Y-74114786D01*
X136504782Y-74113860D01*
X136504775Y-74113857D01*
X136147515Y-73976718D01*
X136147514Y-73976717D01*
X136145087Y-73975786D01*
X136142595Y-73975118D01*
X136142582Y-73975114D01*
X135772942Y-73876070D01*
X135772936Y-73876068D01*
X135770433Y-73875398D01*
X135767880Y-73874993D01*
X135767863Y-73874990D01*
X135389903Y-73815128D01*
X135389898Y-73815127D01*
X135387338Y-73814722D01*
X135384757Y-73814586D01*
X135384741Y-73814585D01*
X135002595Y-73794558D01*
X135000000Y-73794422D01*
X134997405Y-73794558D01*
X134615258Y-73814585D01*
X134615240Y-73814586D01*
X134612662Y-73814722D01*
X134610103Y-73815127D01*
X134610096Y-73815128D01*
X134232136Y-73874990D01*
X134232115Y-73874994D01*
X134229567Y-73875398D01*
X134227066Y-73876067D01*
X134227057Y-73876070D01*
X133857417Y-73975114D01*
X133857398Y-73975120D01*
X133854913Y-73975786D01*
X133852490Y-73976715D01*
X133852484Y-73976718D01*
X133495224Y-74113857D01*
X133495210Y-74113862D01*
X133492806Y-74114786D01*
X133490511Y-74115955D01*
X133490505Y-74115958D01*
X133149518Y-74289699D01*
X133149510Y-74289703D01*
X133147211Y-74290875D01*
X133145038Y-74292285D01*
X133145033Y-74292289D01*
X132824097Y-74500707D01*
X132824088Y-74500713D01*
X132821916Y-74502124D01*
X132819905Y-74503752D01*
X132819896Y-74503759D01*
X132522500Y-74744586D01*
X132522494Y-74744590D01*
X132520484Y-74746219D01*
X132518664Y-74748038D01*
X132518654Y-74748048D01*
X132248048Y-75018654D01*
X132248038Y-75018664D01*
X132246219Y-75020484D01*
X132244590Y-75022494D01*
X132244586Y-75022500D01*
X132003759Y-75319896D01*
X132003752Y-75319905D01*
X132002124Y-75321916D01*
X132000713Y-75324088D01*
X132000707Y-75324097D01*
X131955223Y-75394137D01*
X131790875Y-75647211D01*
X131789703Y-75649510D01*
X131789699Y-75649518D01*
X131615958Y-75990505D01*
X131614786Y-75992806D01*
X131613862Y-75995210D01*
X131613857Y-75995224D01*
X131476718Y-76352484D01*
X131475786Y-76354913D01*
X131475120Y-76357398D01*
X131475114Y-76357417D01*
X131376070Y-76727057D01*
X131376067Y-76727066D01*
X131375398Y-76729567D01*
X131374994Y-76732115D01*
X131374990Y-76732136D01*
X131315128Y-77110096D01*
X131314722Y-77112662D01*
X131314586Y-77115240D01*
X131314585Y-77115258D01*
X131297245Y-77446130D01*
X131294422Y-77500000D01*
X125319683Y-77500000D01*
X125336024Y-77446132D01*
X125355341Y-77250000D01*
X125336024Y-77053868D01*
X125280355Y-76870352D01*
X125278814Y-76865272D01*
X125185911Y-76691463D01*
X125118543Y-76609376D01*
X125060883Y-76539117D01*
X124928233Y-76430253D01*
X124908536Y-76414088D01*
X124734727Y-76321185D01*
X124546130Y-76263975D01*
X124350000Y-76244658D01*
X124153869Y-76263975D01*
X123965272Y-76321185D01*
X123791463Y-76414088D01*
X123639116Y-76539117D01*
X123639117Y-76539117D01*
X123581461Y-76609372D01*
X123562640Y-76632305D01*
X123511109Y-76665292D01*
X123486112Y-76668500D01*
X121064604Y-76668500D01*
X121051682Y-76667653D01*
X121019998Y-76663481D01*
X120981968Y-76668487D01*
X120981884Y-76668500D01*
X120868197Y-76683466D01*
X120848896Y-76691462D01*
X120726740Y-76742060D01*
X120640403Y-76808309D01*
X120605267Y-76835270D01*
X120585815Y-76860619D01*
X120577280Y-76870352D01*
X119710351Y-77737281D01*
X119700617Y-77745817D01*
X119675270Y-77765267D01*
X119667117Y-77775892D01*
X119651868Y-77795765D01*
X119651865Y-77795769D01*
X119584365Y-77883737D01*
X119582060Y-77886741D01*
X119523466Y-78028198D01*
X119503482Y-78179999D01*
X119507653Y-78211681D01*
X119508500Y-78224603D01*
X119508500Y-85765395D01*
X119507653Y-85778316D01*
X119503482Y-85809999D01*
X117076133Y-85809999D01*
X117114536Y-85798350D01*
X117288254Y-85705495D01*
X117440527Y-85580527D01*
X117565495Y-85428254D01*
X117658350Y-85254535D01*
X117699161Y-85120000D01*
X117045686Y-85120000D01*
X117057641Y-85108045D01*
X117115165Y-84995148D01*
X117134986Y-84870000D01*
X117115165Y-84744852D01*
X117057641Y-84631955D01*
X117045686Y-84620000D01*
X117699162Y-84620000D01*
X117699161Y-84619999D01*
X117658350Y-84485464D01*
X117565495Y-84311745D01*
X117440527Y-84159472D01*
X117288254Y-84034504D01*
X117114535Y-83941649D01*
X116980000Y-83900838D01*
X116979999Y-84554313D01*
X116968045Y-84542359D01*
X116855148Y-84484835D01*
X116761481Y-84470000D01*
X116698519Y-84470000D01*
X116604852Y-84484835D01*
X116491955Y-84542359D01*
X116480000Y-84554314D01*
X116480000Y-83900838D01*
X116479999Y-83900838D01*
X116345464Y-83941649D01*
X116171745Y-84034504D01*
X116019472Y-84159472D01*
X115894504Y-84311745D01*
X115801649Y-84485464D01*
X115760838Y-84619999D01*
X115760838Y-84620000D01*
X116414314Y-84620000D01*
X116402359Y-84631955D01*
X116344835Y-84744852D01*
X116325014Y-84870000D01*
X116344835Y-84995148D01*
X116402359Y-85108045D01*
X116414314Y-85120000D01*
X115760838Y-85120000D01*
X104784065Y-85120000D01*
X104836747Y-84946331D01*
X104855099Y-84760000D01*
X104836747Y-84573669D01*
X104805299Y-84470000D01*
X104782396Y-84394498D01*
X104694137Y-84229376D01*
X104637211Y-84160012D01*
X104575357Y-84084643D01*
X104430625Y-83965864D01*
X104430626Y-83965864D01*
X104430623Y-83965862D01*
X104265501Y-83877603D01*
X104086329Y-83823252D01*
X103899999Y-83804900D01*
X103713670Y-83823252D01*
X103534498Y-83877603D01*
X103369376Y-83965862D01*
X103224643Y-84084643D01*
X103105862Y-84229376D01*
X103017603Y-84394498D01*
X102963252Y-84573670D01*
X102944900Y-84760000D01*
X89167500Y-84760000D01*
X89167500Y-82448617D01*
X89167877Y-82439987D01*
X89168262Y-82435593D01*
X89171287Y-82401016D01*
X89161157Y-82363214D01*
X89159289Y-82354785D01*
X89152497Y-82316262D01*
X89152497Y-82316261D01*
X89151697Y-82314875D01*
X89141808Y-82291001D01*
X89141395Y-82289457D01*
X89118945Y-82257397D01*
X89114310Y-82250120D01*
X89096921Y-82219999D01*
X102944900Y-82219999D01*
X102963252Y-82406329D01*
X103017603Y-82585501D01*
X103105862Y-82750623D01*
X103141983Y-82794636D01*
X103224643Y-82895357D01*
X103297318Y-82955000D01*
X103369376Y-83014137D01*
X103534498Y-83102396D01*
X103624084Y-83129571D01*
X103713669Y-83156747D01*
X103806703Y-83165910D01*
X103899999Y-83175099D01*
X103899999Y-83175098D01*
X103900000Y-83175099D01*
X104086331Y-83156747D01*
X104265501Y-83102396D01*
X104430625Y-83014136D01*
X104575357Y-82895357D01*
X104694136Y-82750625D01*
X104774737Y-82599830D01*
X104818841Y-82557425D01*
X104862046Y-82547500D01*
X106341382Y-82547500D01*
X106350012Y-82547877D01*
X106388982Y-82551287D01*
X106388982Y-82551286D01*
X106388984Y-82551287D01*
X106426785Y-82541157D01*
X106435211Y-82539290D01*
X106473736Y-82532498D01*
X106473737Y-82532497D01*
X106473739Y-82532497D01*
X106475116Y-82531701D01*
X106499003Y-82521806D01*
X106500543Y-82521394D01*
X106532591Y-82498952D01*
X106539876Y-82494312D01*
X106573760Y-82474750D01*
X106598916Y-82444768D01*
X106604730Y-82438422D01*
X106713153Y-82329999D01*
X115724658Y-82329999D01*
X115743975Y-82526130D01*
X115801185Y-82714727D01*
X115894088Y-82888536D01*
X115894090Y-82888538D01*
X116019117Y-83040883D01*
X116148298Y-83146900D01*
X116171463Y-83165911D01*
X116345272Y-83258814D01*
X116439570Y-83287418D01*
X116533868Y-83316024D01*
X116631934Y-83325682D01*
X116729999Y-83335341D01*
X116729999Y-83335340D01*
X116730000Y-83335341D01*
X116926132Y-83316024D01*
X117114727Y-83258814D01*
X117288538Y-83165910D01*
X117440883Y-83040883D01*
X117565910Y-82888538D01*
X117658814Y-82714727D01*
X117716024Y-82526132D01*
X117735341Y-82330000D01*
X117716024Y-82133868D01*
X117679590Y-82013761D01*
X117658814Y-81945272D01*
X117565911Y-81771463D01*
X117498543Y-81689376D01*
X117440883Y-81619117D01*
X117288538Y-81494090D01*
X117288539Y-81494090D01*
X117288536Y-81494088D01*
X117114727Y-81401185D01*
X116926130Y-81343975D01*
X116729999Y-81324658D01*
X116533869Y-81343975D01*
X116345272Y-81401185D01*
X116171463Y-81494088D01*
X116019117Y-81619117D01*
X115894088Y-81771463D01*
X115801185Y-81945272D01*
X115743975Y-82133869D01*
X115724658Y-82329999D01*
X106713153Y-82329999D01*
X109253153Y-79790000D01*
X115724658Y-79790000D01*
X115743975Y-79986130D01*
X115801185Y-80174727D01*
X115894088Y-80348536D01*
X115894089Y-80348537D01*
X115894090Y-80348538D01*
X116019117Y-80500883D01*
X116148298Y-80606900D01*
X116171463Y-80625911D01*
X116345272Y-80718814D01*
X116439570Y-80747419D01*
X116533868Y-80776024D01*
X116730000Y-80795341D01*
X116926132Y-80776024D01*
X117114727Y-80718814D01*
X117288538Y-80625910D01*
X117440883Y-80500883D01*
X117565910Y-80348538D01*
X117658814Y-80174727D01*
X117716024Y-79986132D01*
X117735341Y-79790000D01*
X117716024Y-79593868D01*
X117658814Y-79405273D01*
X117658814Y-79405272D01*
X117565911Y-79231463D01*
X117498543Y-79149376D01*
X117440883Y-79079117D01*
X117288538Y-78954090D01*
X117288539Y-78954090D01*
X117288536Y-78954088D01*
X117114727Y-78861185D01*
X116926130Y-78803975D01*
X116729999Y-78784658D01*
X116533869Y-78803975D01*
X116345272Y-78861185D01*
X116171463Y-78954088D01*
X116019117Y-79079117D01*
X115894088Y-79231463D01*
X115801185Y-79405272D01*
X115743975Y-79593869D01*
X115724658Y-79790000D01*
X109253153Y-79790000D01*
X110973405Y-78069748D01*
X115729500Y-78069748D01*
X115732715Y-78085910D01*
X115741133Y-78128231D01*
X115785447Y-78194552D01*
X115811083Y-78211681D01*
X115851769Y-78238867D01*
X115910252Y-78250500D01*
X115910253Y-78250500D01*
X117549747Y-78250500D01*
X117549748Y-78250500D01*
X117608231Y-78238867D01*
X117674552Y-78194552D01*
X117718867Y-78128231D01*
X117730500Y-78069748D01*
X117730500Y-76430252D01*
X117718867Y-76371769D01*
X117685068Y-76321186D01*
X117674552Y-76305447D01*
X117608231Y-76261133D01*
X117608231Y-76261132D01*
X117549748Y-76249500D01*
X115910252Y-76249500D01*
X115881010Y-76255316D01*
X115851768Y-76261133D01*
X115785447Y-76305447D01*
X115741133Y-76371768D01*
X115741132Y-76371769D01*
X115741133Y-76371769D01*
X115729500Y-76430252D01*
X115729500Y-78069748D01*
X110973405Y-78069748D01*
X115136658Y-73906496D01*
X115191176Y-73878719D01*
X115206663Y-73877500D01*
X124301382Y-73877500D01*
X124310012Y-73877877D01*
X124348982Y-73881287D01*
X124348982Y-73881286D01*
X124348984Y-73881287D01*
X124386785Y-73871157D01*
X124395211Y-73869290D01*
X124433736Y-73862498D01*
X124433737Y-73862497D01*
X124433739Y-73862497D01*
X124435116Y-73861701D01*
X124459003Y-73851806D01*
X124460543Y-73851394D01*
X124492591Y-73828952D01*
X124499876Y-73824312D01*
X124533760Y-73804750D01*
X124558916Y-73774768D01*
X124564730Y-73768422D01*
X127083658Y-71249496D01*
X127138176Y-71221719D01*
X127153663Y-71220500D01*
X127211961Y-71220500D01*
X127350053Y-71179953D01*
X127450816Y-71115196D01*
X127471125Y-71102145D01*
X127471125Y-71102144D01*
X127471128Y-71102143D01*
X127565377Y-70993373D01*
X127625165Y-70862457D01*
X127645647Y-70720000D01*
X127625165Y-70577543D01*
X127565377Y-70446627D01*
X127471128Y-70337857D01*
X127471127Y-70337856D01*
X127471125Y-70337854D01*
X127350054Y-70260047D01*
X127211961Y-70219500D01*
X127068039Y-70219500D01*
X126929945Y-70260047D01*
X126808874Y-70337854D01*
X126714622Y-70446628D01*
X126654834Y-70577544D01*
X126632327Y-70734089D01*
X126630948Y-70733890D01*
X126623463Y-70777132D01*
X126605910Y-70800933D01*
X124213342Y-73193504D01*
X124158825Y-73221281D01*
X124143338Y-73222500D01*
X115048621Y-73222500D01*
X115039993Y-73222123D01*
X115037349Y-73221891D01*
X115001016Y-73218712D01*
X114963219Y-73228840D01*
X114954790Y-73230709D01*
X114916258Y-73237503D01*
X114914865Y-73238308D01*
X114891009Y-73248188D01*
X114889459Y-73248603D01*
X114857403Y-73271049D01*
X114850122Y-73275687D01*
X114816240Y-73295249D01*
X114791092Y-73325218D01*
X114785260Y-73331583D01*
X106253342Y-81863504D01*
X106198825Y-81891281D01*
X106183338Y-81892500D01*
X104862046Y-81892500D01*
X104803855Y-81873593D01*
X104774737Y-81840170D01*
X104694136Y-81689375D01*
X104673594Y-81664345D01*
X104636476Y-81619117D01*
X104575357Y-81544643D01*
X104430625Y-81425864D01*
X104430626Y-81425864D01*
X104430623Y-81425862D01*
X104265501Y-81337603D01*
X104086329Y-81283252D01*
X103899999Y-81264900D01*
X103713670Y-81283252D01*
X103534498Y-81337603D01*
X103369376Y-81425862D01*
X103224643Y-81544643D01*
X103105862Y-81689376D01*
X103017603Y-81854498D01*
X102963252Y-82033670D01*
X102944900Y-82219999D01*
X89096921Y-82219999D01*
X89094751Y-82216241D01*
X89094750Y-82216240D01*
X89064775Y-82191088D01*
X89058419Y-82185264D01*
X86553155Y-79680000D01*
X102944900Y-79680000D01*
X102963252Y-79866329D01*
X103017603Y-80045501D01*
X103105862Y-80210623D01*
X103141281Y-80253781D01*
X103224643Y-80355357D01*
X103347369Y-80456076D01*
X103369376Y-80474137D01*
X103534498Y-80562396D01*
X103624084Y-80589571D01*
X103713669Y-80616747D01*
X103900000Y-80635099D01*
X104086331Y-80616747D01*
X104265501Y-80562396D01*
X104430625Y-80474136D01*
X104575357Y-80355357D01*
X104694136Y-80210625D01*
X104782396Y-80045501D01*
X104836747Y-79866331D01*
X104855099Y-79680000D01*
X104836747Y-79493669D01*
X104782396Y-79314499D01*
X104782396Y-79314498D01*
X104694137Y-79149376D01*
X104636476Y-79079117D01*
X104575357Y-79004643D01*
X104430625Y-78885864D01*
X104430626Y-78885864D01*
X104430623Y-78885862D01*
X104265501Y-78797603D01*
X104086329Y-78743252D01*
X103900000Y-78724900D01*
X103713670Y-78743252D01*
X103534498Y-78797603D01*
X103369376Y-78885862D01*
X103224643Y-79004643D01*
X103105862Y-79149376D01*
X103017603Y-79314498D01*
X102963252Y-79493670D01*
X102944900Y-79680000D01*
X86553155Y-79680000D01*
X84013153Y-77139999D01*
X102944900Y-77139999D01*
X102963252Y-77326329D01*
X103017603Y-77505501D01*
X103105862Y-77670623D01*
X103141983Y-77714636D01*
X103224643Y-77815357D01*
X103312352Y-77887338D01*
X103369376Y-77934137D01*
X103534498Y-78022396D01*
X103553625Y-78028198D01*
X103713669Y-78076747D01*
X103806703Y-78085910D01*
X103899999Y-78095099D01*
X103899999Y-78095098D01*
X103900000Y-78095099D01*
X104086331Y-78076747D01*
X104265501Y-78022396D01*
X104430625Y-77934136D01*
X104575357Y-77815357D01*
X104694136Y-77670625D01*
X104782396Y-77505501D01*
X104836747Y-77326331D01*
X104855099Y-77140000D01*
X104836747Y-76953669D01*
X104801843Y-76838606D01*
X104782396Y-76774498D01*
X104694137Y-76609376D01*
X104636476Y-76539117D01*
X104575357Y-76464643D01*
X104462189Y-76371768D01*
X104430623Y-76345862D01*
X104265501Y-76257603D01*
X104086329Y-76203252D01*
X103899999Y-76184900D01*
X103713670Y-76203252D01*
X103534498Y-76257603D01*
X103369376Y-76345862D01*
X103224643Y-76464643D01*
X103105862Y-76609376D01*
X103017603Y-76774498D01*
X102963252Y-76953670D01*
X102944900Y-77139999D01*
X84013153Y-77139999D01*
X83794745Y-76921591D01*
X83788911Y-76915223D01*
X83763761Y-76885250D01*
X83747861Y-76876070D01*
X83729864Y-76865680D01*
X83722589Y-76861045D01*
X83690543Y-76838605D01*
X83688999Y-76838192D01*
X83665126Y-76828303D01*
X83663739Y-76827503D01*
X83663738Y-76827502D01*
X83663737Y-76827502D01*
X83625207Y-76820708D01*
X83616778Y-76818839D01*
X83578984Y-76808712D01*
X83540012Y-76812123D01*
X83531382Y-76812500D01*
X81862046Y-76812500D01*
X81803855Y-76793593D01*
X81774737Y-76760170D01*
X81694136Y-76609375D01*
X81575357Y-76464643D01*
X81462189Y-76371768D01*
X81430623Y-76345862D01*
X81265501Y-76257603D01*
X81086329Y-76203252D01*
X80900000Y-76184900D01*
X80713670Y-76203252D01*
X80534498Y-76257603D01*
X80369376Y-76345862D01*
X80224643Y-76464643D01*
X80105862Y-76609376D01*
X80017603Y-76774498D01*
X79963252Y-76953670D01*
X79944900Y-77140000D01*
X74547500Y-77140000D01*
X74547500Y-74686662D01*
X74566407Y-74628471D01*
X74576496Y-74616658D01*
X74593154Y-74600000D01*
X79944900Y-74600000D01*
X79963252Y-74786329D01*
X80017603Y-74965501D01*
X80105862Y-75130623D01*
X80105864Y-75130625D01*
X80224643Y-75275357D01*
X80284033Y-75324097D01*
X80369376Y-75394137D01*
X80534498Y-75482396D01*
X80624084Y-75509571D01*
X80713669Y-75536747D01*
X80900000Y-75555099D01*
X81086331Y-75536747D01*
X81265501Y-75482396D01*
X81430625Y-75394136D01*
X81575357Y-75275357D01*
X81694136Y-75130625D01*
X81782396Y-74965501D01*
X81836747Y-74786331D01*
X81855099Y-74600000D01*
X102944900Y-74600000D01*
X102963252Y-74786329D01*
X103017603Y-74965501D01*
X103105862Y-75130623D01*
X103105864Y-75130625D01*
X103224643Y-75275357D01*
X103284033Y-75324097D01*
X103369376Y-75394137D01*
X103534498Y-75482396D01*
X103624084Y-75509571D01*
X103713669Y-75536747D01*
X103806834Y-75545923D01*
X103899999Y-75555099D01*
X103899999Y-75555098D01*
X103900000Y-75555099D01*
X104086331Y-75536747D01*
X104265501Y-75482396D01*
X104430625Y-75394136D01*
X104575357Y-75275357D01*
X104694136Y-75130625D01*
X104782396Y-74965501D01*
X104836747Y-74786331D01*
X104855099Y-74600000D01*
X104836747Y-74413669D01*
X104782396Y-74234499D01*
X104782396Y-74234498D01*
X104694137Y-74069376D01*
X104676076Y-74047369D01*
X104575357Y-73924643D01*
X104441913Y-73815128D01*
X104430623Y-73805862D01*
X104265501Y-73717603D01*
X104086329Y-73663252D01*
X103899999Y-73644900D01*
X103713670Y-73663252D01*
X103534498Y-73717603D01*
X103369376Y-73805862D01*
X103224643Y-73924643D01*
X103105862Y-74069376D01*
X103017603Y-74234498D01*
X102963252Y-74413670D01*
X102944900Y-74600000D01*
X81855099Y-74600000D01*
X81836747Y-74413669D01*
X81782396Y-74234499D01*
X81782396Y-74234498D01*
X81694137Y-74069376D01*
X81676076Y-74047369D01*
X81575357Y-73924643D01*
X81441913Y-73815128D01*
X81430623Y-73805862D01*
X81265501Y-73717603D01*
X81086329Y-73663252D01*
X80900000Y-73644900D01*
X80713670Y-73663252D01*
X80534498Y-73717603D01*
X80369376Y-73805862D01*
X80224643Y-73924643D01*
X80105862Y-74069376D01*
X80017603Y-74234498D01*
X79963252Y-74413670D01*
X79944900Y-74600000D01*
X74593154Y-74600000D01*
X77133156Y-72059999D01*
X79944900Y-72059999D01*
X79963252Y-72246329D01*
X80017603Y-72425501D01*
X80105862Y-72590623D01*
X80105864Y-72590625D01*
X80224643Y-72735357D01*
X80347369Y-72836076D01*
X80369376Y-72854137D01*
X80534498Y-72942396D01*
X80609831Y-72965248D01*
X80713669Y-72996747D01*
X80900000Y-73015099D01*
X81086331Y-72996747D01*
X81265501Y-72942396D01*
X81430625Y-72854136D01*
X81575357Y-72735357D01*
X81694136Y-72590625D01*
X81782396Y-72425501D01*
X81836747Y-72246331D01*
X81855099Y-72060000D01*
X102944900Y-72060000D01*
X102963252Y-72246329D01*
X103017603Y-72425501D01*
X103105862Y-72590623D01*
X103105864Y-72590625D01*
X103224643Y-72735357D01*
X103347369Y-72836076D01*
X103369376Y-72854137D01*
X103534498Y-72942396D01*
X103609831Y-72965248D01*
X103713669Y-72996747D01*
X103806834Y-73005923D01*
X103899999Y-73015099D01*
X103899999Y-73015098D01*
X103900000Y-73015099D01*
X104086331Y-72996747D01*
X104265501Y-72942396D01*
X104430625Y-72854136D01*
X104575357Y-72735357D01*
X104694136Y-72590625D01*
X104782396Y-72425501D01*
X104836747Y-72246331D01*
X104855099Y-72060000D01*
X104836747Y-71873669D01*
X104782396Y-71694499D01*
X104782396Y-71694498D01*
X104694137Y-71529376D01*
X104676076Y-71507369D01*
X104575357Y-71384643D01*
X104430625Y-71265864D01*
X104430626Y-71265864D01*
X104430623Y-71265862D01*
X104265501Y-71177603D01*
X104086329Y-71123252D01*
X103899999Y-71104900D01*
X103713670Y-71123252D01*
X103534498Y-71177603D01*
X103369376Y-71265862D01*
X103224643Y-71384643D01*
X103105862Y-71529376D01*
X103017603Y-71694498D01*
X102963252Y-71873670D01*
X102944900Y-72060000D01*
X81855099Y-72060000D01*
X81836747Y-71873669D01*
X81782396Y-71694499D01*
X81782396Y-71694498D01*
X81694137Y-71529376D01*
X81676076Y-71507369D01*
X81575357Y-71384643D01*
X81430625Y-71265864D01*
X81430626Y-71265864D01*
X81430623Y-71265862D01*
X81265501Y-71177603D01*
X81086329Y-71123252D01*
X80900000Y-71104900D01*
X80713670Y-71123252D01*
X80534498Y-71177603D01*
X80369376Y-71265862D01*
X80224643Y-71384643D01*
X80105862Y-71529376D01*
X80017603Y-71694498D01*
X79963252Y-71873670D01*
X79944900Y-72059999D01*
X77133156Y-72059999D01*
X79316659Y-69876496D01*
X79371176Y-69848719D01*
X79386663Y-69847500D01*
X79937954Y-69847500D01*
X79996145Y-69866407D01*
X80025262Y-69899829D01*
X80074302Y-69991576D01*
X80105865Y-70050627D01*
X80157970Y-70114116D01*
X80224643Y-70195357D01*
X80303468Y-70260047D01*
X80369376Y-70314137D01*
X80534498Y-70402396D01*
X80624084Y-70429571D01*
X80713669Y-70456747D01*
X80806834Y-70465923D01*
X80899999Y-70475099D01*
X80899999Y-70475098D01*
X80900000Y-70475099D01*
X81086331Y-70456747D01*
X81265501Y-70402396D01*
X81430625Y-70314136D01*
X81575357Y-70195357D01*
X81694136Y-70050625D01*
X81782396Y-69885501D01*
X81836747Y-69706331D01*
X81855099Y-69520000D01*
X102945402Y-69520000D01*
X102963744Y-69706231D01*
X103018065Y-69885306D01*
X103074868Y-69991576D01*
X103455549Y-69610894D01*
X103456327Y-69621265D01*
X103505887Y-69747541D01*
X103590465Y-69853599D01*
X103702547Y-69930016D01*
X103810299Y-69963252D01*
X103428422Y-70345130D01*
X103534693Y-70401934D01*
X103713768Y-70456255D01*
X103900000Y-70474597D01*
X104086230Y-70456256D01*
X104265307Y-70401932D01*
X104371576Y-70345130D01*
X103988230Y-69961784D01*
X104034138Y-69954865D01*
X104156357Y-69896007D01*
X104255798Y-69803740D01*
X104323625Y-69686260D01*
X104341499Y-69607945D01*
X104725130Y-69991576D01*
X104781932Y-69885307D01*
X104836256Y-69706230D01*
X104854597Y-69520000D01*
X104836255Y-69333768D01*
X104781934Y-69154693D01*
X104725130Y-69048422D01*
X104344449Y-69429102D01*
X104343673Y-69418735D01*
X104294113Y-69292459D01*
X104209535Y-69186401D01*
X104097453Y-69109984D01*
X103989697Y-69076746D01*
X104371576Y-68694868D01*
X104265306Y-68638065D01*
X104086231Y-68583744D01*
X103900000Y-68565402D01*
X103713768Y-68583744D01*
X103534691Y-68638066D01*
X103428422Y-68694868D01*
X103811769Y-69078215D01*
X103765862Y-69085135D01*
X103643643Y-69143993D01*
X103544202Y-69236260D01*
X103476375Y-69353740D01*
X103458500Y-69432054D01*
X103074868Y-69048422D01*
X103018066Y-69154691D01*
X102963744Y-69333768D01*
X102945402Y-69520000D01*
X81855099Y-69520000D01*
X81836747Y-69333669D01*
X81807198Y-69236260D01*
X81782396Y-69154498D01*
X81694137Y-68989376D01*
X81676076Y-68967369D01*
X81575357Y-68844643D01*
X81430625Y-68725864D01*
X81430626Y-68725864D01*
X81430623Y-68725862D01*
X81265501Y-68637603D01*
X81086329Y-68583252D01*
X80899999Y-68564900D01*
X80713670Y-68583252D01*
X80534498Y-68637603D01*
X80369376Y-68725862D01*
X80224643Y-68844643D01*
X80105865Y-68989372D01*
X80105863Y-68989376D01*
X80025262Y-69140169D01*
X79981159Y-69182575D01*
X79937954Y-69192500D01*
X79228618Y-69192500D01*
X79219988Y-69192123D01*
X79181015Y-69188712D01*
X79143219Y-69198840D01*
X79134790Y-69200709D01*
X79096258Y-69207503D01*
X79094865Y-69208308D01*
X79071009Y-69218188D01*
X79069459Y-69218603D01*
X79037403Y-69241049D01*
X79030122Y-69245687D01*
X78996240Y-69265249D01*
X78971092Y-69295218D01*
X78965260Y-69301583D01*
X74001589Y-74265255D01*
X73995223Y-74271088D01*
X73965249Y-74296240D01*
X73945683Y-74330128D01*
X73941045Y-74337409D01*
X73918604Y-74369457D01*
X73918190Y-74371006D01*
X73908305Y-74394870D01*
X73907503Y-74396258D01*
X73900708Y-74434794D01*
X73898839Y-74443223D01*
X73888712Y-74481015D01*
X73892123Y-74519987D01*
X73892500Y-74528617D01*
X73892500Y-87049825D01*
X73873593Y-87108016D01*
X73868320Y-87114656D01*
X73814620Y-87176629D01*
X73754834Y-87307542D01*
X73734352Y-87450000D01*
X50500500Y-87450000D01*
X50500500Y-86390000D01*
X70514352Y-86390000D01*
X70534834Y-86532455D01*
X70534835Y-86532457D01*
X70594623Y-86663373D01*
X70688872Y-86772143D01*
X70688874Y-86772145D01*
X70809945Y-86849952D01*
X70809947Y-86849953D01*
X70948039Y-86890500D01*
X71091961Y-86890500D01*
X71230053Y-86849953D01*
X71351128Y-86772143D01*
X71445377Y-86663373D01*
X71505165Y-86532457D01*
X71525647Y-86390000D01*
X71527673Y-86375911D01*
X71529051Y-86376109D01*
X71536534Y-86332867D01*
X71554086Y-86309066D01*
X73448423Y-84414730D01*
X73454781Y-84408906D01*
X73471952Y-84394498D01*
X73484750Y-84383760D01*
X73504315Y-84349871D01*
X73508943Y-84342605D01*
X73531394Y-84310543D01*
X73531806Y-84309004D01*
X73541698Y-84285121D01*
X73542497Y-84283739D01*
X73549290Y-84245211D01*
X73551157Y-84236785D01*
X73561287Y-84198984D01*
X73557876Y-84160011D01*
X73557500Y-84151382D01*
X73557500Y-73386661D01*
X73576407Y-73328470D01*
X73586497Y-73316657D01*
X73803659Y-73099496D01*
X73858175Y-73071719D01*
X73873662Y-73070500D01*
X73941961Y-73070500D01*
X74080053Y-73029953D01*
X74201128Y-72952143D01*
X74295377Y-72843373D01*
X74355165Y-72712457D01*
X74375647Y-72570000D01*
X74355165Y-72427543D01*
X74295377Y-72296627D01*
X74201128Y-72187857D01*
X74201127Y-72187856D01*
X74201125Y-72187854D01*
X74080054Y-72110047D01*
X73941961Y-72069500D01*
X73798039Y-72069500D01*
X73659945Y-72110047D01*
X73538874Y-72187854D01*
X73444622Y-72296628D01*
X73384834Y-72427544D01*
X73362327Y-72584089D01*
X73358245Y-72583502D01*
X73352199Y-72618404D01*
X73334653Y-72642190D01*
X73011596Y-72965248D01*
X73005230Y-72971082D01*
X72975249Y-72996240D01*
X72955683Y-73030128D01*
X72951045Y-73037409D01*
X72928604Y-73069457D01*
X72928190Y-73071006D01*
X72918305Y-73094870D01*
X72917503Y-73096258D01*
X72910708Y-73134794D01*
X72908839Y-73143223D01*
X72898712Y-73181015D01*
X72902123Y-73219987D01*
X72902500Y-73228617D01*
X72902500Y-83993337D01*
X72883593Y-84051528D01*
X72873504Y-84063341D01*
X71076342Y-85860504D01*
X71021825Y-85888281D01*
X71006338Y-85889500D01*
X70948039Y-85889500D01*
X70809945Y-85930047D01*
X70688874Y-86007854D01*
X70594622Y-86116628D01*
X70534834Y-86247544D01*
X70514352Y-86390000D01*
X50500500Y-86390000D01*
X50500500Y-77500000D01*
X51294422Y-77500000D01*
X51294558Y-77502594D01*
X51314585Y-77884741D01*
X51314586Y-77884757D01*
X51314722Y-77887338D01*
X51315127Y-77889898D01*
X51315128Y-77889903D01*
X51374990Y-78267863D01*
X51374993Y-78267880D01*
X51375398Y-78270433D01*
X51376068Y-78272936D01*
X51376070Y-78272942D01*
X51475114Y-78642582D01*
X51475118Y-78642595D01*
X51475786Y-78645087D01*
X51476717Y-78647514D01*
X51476718Y-78647515D01*
X51613806Y-79004643D01*
X51614786Y-79007194D01*
X51790875Y-79352789D01*
X52002124Y-79678084D01*
X52246219Y-79979516D01*
X52520484Y-80253781D01*
X52821916Y-80497876D01*
X53147211Y-80709125D01*
X53492806Y-80885214D01*
X53854913Y-81024214D01*
X54229567Y-81124602D01*
X54232133Y-81125008D01*
X54232136Y-81125009D01*
X54292792Y-81134615D01*
X54612662Y-81185278D01*
X55000000Y-81205578D01*
X55387338Y-81185278D01*
X55770433Y-81124602D01*
X56145087Y-81024214D01*
X56507194Y-80885214D01*
X56852789Y-80709125D01*
X57178084Y-80497876D01*
X57479516Y-80253781D01*
X57753781Y-79979516D01*
X57997876Y-79678084D01*
X58209125Y-79352789D01*
X58385214Y-79007194D01*
X58524214Y-78645087D01*
X58624602Y-78270433D01*
X58685278Y-77887338D01*
X58705578Y-77500000D01*
X58685278Y-77112662D01*
X58634615Y-76792792D01*
X58625009Y-76732136D01*
X58625008Y-76732133D01*
X58624602Y-76729567D01*
X58524214Y-76354913D01*
X58385214Y-75992806D01*
X58209125Y-75647211D01*
X57997876Y-75321916D01*
X57753781Y-75020484D01*
X57479516Y-74746219D01*
X57178084Y-74502124D01*
X56852789Y-74290875D01*
X56507194Y-74114786D01*
X56504782Y-74113860D01*
X56504775Y-74113857D01*
X56147515Y-73976718D01*
X56147514Y-73976717D01*
X56145087Y-73975786D01*
X56142595Y-73975118D01*
X56142582Y-73975114D01*
X55772942Y-73876070D01*
X55772936Y-73876068D01*
X55770433Y-73875398D01*
X55767880Y-73874993D01*
X55767863Y-73874990D01*
X55389903Y-73815128D01*
X55389898Y-73815127D01*
X55387338Y-73814722D01*
X55384757Y-73814586D01*
X55384741Y-73814585D01*
X55002595Y-73794558D01*
X55000000Y-73794422D01*
X54997405Y-73794558D01*
X54615258Y-73814585D01*
X54615240Y-73814586D01*
X54612662Y-73814722D01*
X54610103Y-73815127D01*
X54610096Y-73815128D01*
X54232136Y-73874990D01*
X54232115Y-73874994D01*
X54229567Y-73875398D01*
X54227066Y-73876067D01*
X54227057Y-73876070D01*
X53857417Y-73975114D01*
X53857398Y-73975120D01*
X53854913Y-73975786D01*
X53852490Y-73976715D01*
X53852484Y-73976718D01*
X53495224Y-74113857D01*
X53495210Y-74113862D01*
X53492806Y-74114786D01*
X53490511Y-74115955D01*
X53490505Y-74115958D01*
X53149518Y-74289699D01*
X53149510Y-74289703D01*
X53147211Y-74290875D01*
X53145038Y-74292285D01*
X53145033Y-74292289D01*
X52824097Y-74500707D01*
X52824088Y-74500713D01*
X52821916Y-74502124D01*
X52819905Y-74503752D01*
X52819896Y-74503759D01*
X52522500Y-74744586D01*
X52522494Y-74744590D01*
X52520484Y-74746219D01*
X52518664Y-74748038D01*
X52518654Y-74748048D01*
X52248048Y-75018654D01*
X52248038Y-75018664D01*
X52246219Y-75020484D01*
X52244590Y-75022494D01*
X52244586Y-75022500D01*
X52003759Y-75319896D01*
X52003752Y-75319905D01*
X52002124Y-75321916D01*
X52000713Y-75324088D01*
X52000707Y-75324097D01*
X51955223Y-75394137D01*
X51790875Y-75647211D01*
X51789703Y-75649510D01*
X51789699Y-75649518D01*
X51615958Y-75990505D01*
X51614786Y-75992806D01*
X51613862Y-75995210D01*
X51613857Y-75995224D01*
X51476718Y-76352484D01*
X51475786Y-76354913D01*
X51475120Y-76357398D01*
X51475114Y-76357417D01*
X51376070Y-76727057D01*
X51376067Y-76727066D01*
X51375398Y-76729567D01*
X51374994Y-76732115D01*
X51374990Y-76732136D01*
X51315128Y-77110096D01*
X51314722Y-77112662D01*
X51314586Y-77115240D01*
X51314585Y-77115258D01*
X51297245Y-77446130D01*
X51294422Y-77500000D01*
X50500500Y-77500000D01*
X50500500Y-56000000D01*
X55764785Y-56000000D01*
X55783603Y-56203083D01*
X55811915Y-56302589D01*
X55839419Y-56399252D01*
X55930325Y-56581818D01*
X55930326Y-56581819D01*
X55930327Y-56581821D01*
X56053236Y-56744579D01*
X56203959Y-56881981D01*
X56377363Y-56989348D01*
X56518933Y-57044192D01*
X56567546Y-57063025D01*
X56768022Y-57100500D01*
X56768024Y-57100500D01*
X56971978Y-57100500D01*
X57172453Y-57063025D01*
X57172456Y-57063024D01*
X57362637Y-56989348D01*
X57475127Y-56919697D01*
X58310000Y-56919697D01*
X58321604Y-56978036D01*
X58365807Y-57044192D01*
X58431963Y-57088395D01*
X58490303Y-57100000D01*
X59159999Y-57100000D01*
X59160000Y-57099998D01*
X59160000Y-56545881D01*
X59253369Y-56584556D01*
X59370677Y-56600000D01*
X59449323Y-56600000D01*
X59566631Y-56584556D01*
X59660000Y-56545881D01*
X59660000Y-57099998D01*
X59660001Y-57100000D01*
X60329697Y-57100000D01*
X60388036Y-57088395D01*
X60454192Y-57044192D01*
X60498395Y-56978036D01*
X60510000Y-56919697D01*
X60510000Y-56250001D01*
X60509999Y-56250000D01*
X59955882Y-56250000D01*
X59994556Y-56156631D01*
X60015177Y-56000000D01*
X64915287Y-56000000D01*
X64934097Y-56202989D01*
X64989887Y-56399070D01*
X65080754Y-56581557D01*
X65082532Y-56583913D01*
X65457226Y-56209218D01*
X65495901Y-56302588D01*
X65592075Y-56427925D01*
X65717412Y-56524099D01*
X65810779Y-56562772D01*
X65439311Y-56934241D01*
X65527584Y-56988897D01*
X65717684Y-57062542D01*
X65918068Y-57100000D01*
X66121932Y-57100000D01*
X66322315Y-57062542D01*
X66512415Y-56988897D01*
X66600687Y-56934241D01*
X66229219Y-56562773D01*
X66322588Y-56524099D01*
X66447925Y-56427925D01*
X66544099Y-56302589D01*
X66582773Y-56209219D01*
X66957466Y-56583912D01*
X66959247Y-56581554D01*
X67050112Y-56399070D01*
X67105902Y-56202989D01*
X67124712Y-56000000D01*
X67454785Y-56000000D01*
X67473603Y-56203083D01*
X67501915Y-56302589D01*
X67529419Y-56399252D01*
X67620325Y-56581818D01*
X67620326Y-56581819D01*
X67620327Y-56581821D01*
X67743236Y-56744579D01*
X67893959Y-56881981D01*
X67893961Y-56881982D01*
X68067359Y-56989346D01*
X68067363Y-56989348D01*
X68111197Y-57006329D01*
X68169262Y-57028823D01*
X68216694Y-57067474D01*
X68232500Y-57121138D01*
X68232500Y-81781382D01*
X68232123Y-81790012D01*
X68228712Y-81828984D01*
X68238839Y-81866778D01*
X68240708Y-81875207D01*
X68247502Y-81913737D01*
X68248303Y-81915124D01*
X68258192Y-81938999D01*
X68258605Y-81940543D01*
X68281045Y-81972589D01*
X68285680Y-81979864D01*
X68296070Y-81997861D01*
X68305250Y-82013761D01*
X68335223Y-82038911D01*
X68341591Y-82044745D01*
X69179653Y-82882808D01*
X69207430Y-82937325D01*
X69207463Y-82941858D01*
X69229834Y-83097455D01*
X69229835Y-83097457D01*
X69289623Y-83228373D01*
X69382311Y-83335341D01*
X69383874Y-83337145D01*
X69504945Y-83414952D01*
X69504947Y-83414953D01*
X69643039Y-83455500D01*
X69786961Y-83455500D01*
X69925053Y-83414953D01*
X70046128Y-83337143D01*
X70140377Y-83228373D01*
X70200165Y-83097457D01*
X70220647Y-82955000D01*
X70200165Y-82812543D01*
X70140377Y-82681627D01*
X70046128Y-82572857D01*
X70046127Y-82572856D01*
X70046125Y-82572854D01*
X69925054Y-82495047D01*
X69786961Y-82454500D01*
X69718663Y-82454500D01*
X69660472Y-82435593D01*
X69648659Y-82425504D01*
X68916496Y-81693341D01*
X68888719Y-81638824D01*
X68887500Y-81623337D01*
X68887500Y-57121138D01*
X68906407Y-57062947D01*
X68950738Y-57028823D01*
X69052637Y-56989348D01*
X69226041Y-56881981D01*
X69376764Y-56744579D01*
X69499673Y-56581821D01*
X69590582Y-56399250D01*
X69646397Y-56203083D01*
X69665215Y-56000000D01*
X69994785Y-56000000D01*
X70013603Y-56203083D01*
X70041915Y-56302589D01*
X70069419Y-56399252D01*
X70160325Y-56581818D01*
X70160326Y-56581819D01*
X70160327Y-56581821D01*
X70283236Y-56744579D01*
X70433959Y-56881981D01*
X70433961Y-56881982D01*
X70607359Y-56989346D01*
X70607363Y-56989348D01*
X70651197Y-57006329D01*
X70709262Y-57028823D01*
X70756694Y-57067474D01*
X70772500Y-57121138D01*
X70772500Y-77751382D01*
X70772123Y-77760012D01*
X70768712Y-77798984D01*
X70778839Y-77836778D01*
X70780708Y-77845207D01*
X70787502Y-77883737D01*
X70787502Y-77883738D01*
X70787503Y-77883739D01*
X70788081Y-77884741D01*
X70788303Y-77885124D01*
X70798192Y-77908999D01*
X70798605Y-77910543D01*
X70821045Y-77942589D01*
X70825680Y-77949864D01*
X70832042Y-77960883D01*
X70845250Y-77983761D01*
X70875223Y-78008911D01*
X70881591Y-78014745D01*
X71419653Y-78552808D01*
X71447430Y-78607325D01*
X71447463Y-78611858D01*
X71469834Y-78767455D01*
X71477691Y-78784658D01*
X71529623Y-78898373D01*
X71577900Y-78954088D01*
X71623874Y-79007145D01*
X71744945Y-79084952D01*
X71744947Y-79084953D01*
X71883039Y-79125500D01*
X72026961Y-79125500D01*
X72165053Y-79084953D01*
X72286128Y-79007143D01*
X72380377Y-78898373D01*
X72440165Y-78767457D01*
X72460647Y-78625000D01*
X72458757Y-78611858D01*
X72440165Y-78482544D01*
X72380377Y-78351628D01*
X72380377Y-78351627D01*
X72286128Y-78242857D01*
X72286127Y-78242856D01*
X72286125Y-78242854D01*
X72165054Y-78165047D01*
X72026961Y-78124500D01*
X71958663Y-78124500D01*
X71900472Y-78105593D01*
X71888659Y-78095504D01*
X71456496Y-77663341D01*
X71428719Y-77608824D01*
X71427500Y-77593337D01*
X71427500Y-66980000D01*
X79944900Y-66980000D01*
X79963252Y-67166329D01*
X80017603Y-67345501D01*
X80105862Y-67510623D01*
X80105864Y-67510625D01*
X80224643Y-67655357D01*
X80347369Y-67756076D01*
X80369376Y-67774137D01*
X80534498Y-67862396D01*
X80624084Y-67889571D01*
X80713669Y-67916747D01*
X80900000Y-67935099D01*
X81086331Y-67916747D01*
X81265501Y-67862396D01*
X81430625Y-67774136D01*
X81575357Y-67655357D01*
X81694136Y-67510625D01*
X81782396Y-67345501D01*
X81836747Y-67166331D01*
X81855099Y-66980000D01*
X102944900Y-66980000D01*
X102963252Y-67166329D01*
X103017603Y-67345501D01*
X103105862Y-67510623D01*
X103105864Y-67510625D01*
X103224643Y-67655357D01*
X103347369Y-67756076D01*
X103369376Y-67774137D01*
X103534498Y-67862396D01*
X103624084Y-67889571D01*
X103713669Y-67916747D01*
X103806834Y-67925923D01*
X103899999Y-67935099D01*
X103899999Y-67935098D01*
X103900000Y-67935099D01*
X104086331Y-67916747D01*
X104265501Y-67862396D01*
X104430625Y-67774136D01*
X104575357Y-67655357D01*
X104694136Y-67510625D01*
X104782396Y-67345501D01*
X104836747Y-67166331D01*
X104855099Y-66980000D01*
X104836747Y-66793669D01*
X104782396Y-66614499D01*
X104782396Y-66614498D01*
X104694137Y-66449376D01*
X104676076Y-66427369D01*
X104575357Y-66304643D01*
X104430625Y-66185864D01*
X104430626Y-66185864D01*
X104430623Y-66185862D01*
X104265501Y-66097603D01*
X104086329Y-66043252D01*
X103899999Y-66024900D01*
X103713670Y-66043252D01*
X103534498Y-66097603D01*
X103369376Y-66185862D01*
X103224643Y-66304643D01*
X103105862Y-66449376D01*
X103017603Y-66614498D01*
X102963252Y-66793670D01*
X102944900Y-66980000D01*
X81855099Y-66980000D01*
X81836747Y-66793669D01*
X81782396Y-66614499D01*
X81782396Y-66614498D01*
X81694137Y-66449376D01*
X81676076Y-66427369D01*
X81575357Y-66304643D01*
X81430625Y-66185864D01*
X81430626Y-66185864D01*
X81430623Y-66185862D01*
X81265501Y-66097603D01*
X81086329Y-66043252D01*
X80900000Y-66024900D01*
X80713670Y-66043252D01*
X80534498Y-66097603D01*
X80369376Y-66185862D01*
X80224643Y-66304643D01*
X80105862Y-66449376D01*
X80017603Y-66614498D01*
X79963252Y-66793670D01*
X79944900Y-66980000D01*
X71427500Y-66980000D01*
X71427500Y-64439999D01*
X79944900Y-64439999D01*
X79963252Y-64626329D01*
X80017603Y-64805501D01*
X80105862Y-64970623D01*
X80109671Y-64975264D01*
X80224643Y-65115357D01*
X80316835Y-65191017D01*
X80369376Y-65234137D01*
X80534498Y-65322396D01*
X80624084Y-65349571D01*
X80713669Y-65376747D01*
X80900000Y-65395099D01*
X81086331Y-65376747D01*
X81265501Y-65322396D01*
X81430625Y-65234136D01*
X81575357Y-65115357D01*
X81694136Y-64970625D01*
X81774737Y-64819830D01*
X81818841Y-64777425D01*
X81862046Y-64767500D01*
X84381382Y-64767500D01*
X84390012Y-64767877D01*
X84428982Y-64771287D01*
X84428982Y-64771286D01*
X84428984Y-64771287D01*
X84466785Y-64761157D01*
X84475211Y-64759290D01*
X84513736Y-64752498D01*
X84513737Y-64752497D01*
X84513739Y-64752497D01*
X84515116Y-64751701D01*
X84539003Y-64741806D01*
X84540543Y-64741394D01*
X84572591Y-64718952D01*
X84579876Y-64714312D01*
X84613760Y-64694750D01*
X84638916Y-64664768D01*
X84644730Y-64658422D01*
X84863153Y-64439999D01*
X102944900Y-64439999D01*
X102963252Y-64626329D01*
X103017603Y-64805501D01*
X103105862Y-64970623D01*
X103109671Y-64975264D01*
X103224643Y-65115357D01*
X103316835Y-65191017D01*
X103369376Y-65234137D01*
X103534498Y-65322396D01*
X103624083Y-65349571D01*
X103713669Y-65376747D01*
X103806834Y-65385923D01*
X103899999Y-65395099D01*
X103899999Y-65395098D01*
X103900000Y-65395099D01*
X104086331Y-65376747D01*
X104265501Y-65322396D01*
X104430625Y-65234136D01*
X104575357Y-65115357D01*
X104694136Y-64970625D01*
X104782396Y-64805501D01*
X104836747Y-64626331D01*
X104855099Y-64440000D01*
X104836747Y-64253669D01*
X104782396Y-64074499D01*
X104782396Y-64074498D01*
X104694137Y-63909376D01*
X104676076Y-63887369D01*
X104575357Y-63764643D01*
X104449640Y-63661469D01*
X104430623Y-63645862D01*
X104265501Y-63557603D01*
X104086329Y-63503252D01*
X103899999Y-63484900D01*
X103713670Y-63503252D01*
X103534498Y-63557603D01*
X103369376Y-63645862D01*
X103224643Y-63764643D01*
X103105862Y-63909376D01*
X103017603Y-64074498D01*
X102963252Y-64253670D01*
X102944900Y-64439999D01*
X84863153Y-64439999D01*
X87403154Y-61899999D01*
X102944900Y-61899999D01*
X102963252Y-62086329D01*
X103017603Y-62265501D01*
X103105862Y-62430623D01*
X103105864Y-62430625D01*
X103224643Y-62575357D01*
X103347369Y-62676076D01*
X103369376Y-62694137D01*
X103534498Y-62782396D01*
X103624083Y-62809571D01*
X103713669Y-62836747D01*
X103806834Y-62845923D01*
X103899999Y-62855099D01*
X103899999Y-62855098D01*
X103900000Y-62855099D01*
X104086331Y-62836747D01*
X104265501Y-62782396D01*
X104430625Y-62694136D01*
X104575357Y-62575357D01*
X104694136Y-62430625D01*
X104782396Y-62265501D01*
X104836747Y-62086331D01*
X104855099Y-61900000D01*
X104836747Y-61713669D01*
X104782396Y-61534499D01*
X104782396Y-61534498D01*
X104694137Y-61369376D01*
X104669135Y-61338911D01*
X104575357Y-61224643D01*
X104430625Y-61105864D01*
X104430626Y-61105864D01*
X104430623Y-61105862D01*
X104265501Y-61017603D01*
X104086329Y-60963252D01*
X103899999Y-60944900D01*
X103713670Y-60963252D01*
X103534498Y-61017603D01*
X103369376Y-61105862D01*
X103224643Y-61224643D01*
X103105862Y-61369376D01*
X103017603Y-61534498D01*
X102963252Y-61713670D01*
X102944900Y-61899999D01*
X87403154Y-61899999D01*
X89943153Y-59360000D01*
X102944900Y-59360000D01*
X102963252Y-59546329D01*
X103017603Y-59725501D01*
X103105862Y-59890623D01*
X103105864Y-59890625D01*
X103224643Y-60035357D01*
X103347369Y-60136076D01*
X103369376Y-60154137D01*
X103534498Y-60242396D01*
X103624083Y-60269571D01*
X103713669Y-60296747D01*
X103900000Y-60315099D01*
X104086331Y-60296747D01*
X104265501Y-60242396D01*
X104430625Y-60154136D01*
X104575357Y-60035357D01*
X104694136Y-59890625D01*
X104782396Y-59725501D01*
X104836747Y-59546331D01*
X104855099Y-59360000D01*
X104836747Y-59173669D01*
X104782396Y-58994499D01*
X104782396Y-58994498D01*
X104694137Y-58829376D01*
X104676076Y-58807369D01*
X104575357Y-58684643D01*
X104430625Y-58565864D01*
X104430626Y-58565864D01*
X104430623Y-58565862D01*
X104265501Y-58477603D01*
X104086329Y-58423252D01*
X103900000Y-58404900D01*
X103713670Y-58423252D01*
X103534498Y-58477603D01*
X103369376Y-58565862D01*
X103224643Y-58684643D01*
X103105862Y-58829376D01*
X103017603Y-58994498D01*
X102963252Y-59173670D01*
X102944900Y-59360000D01*
X89943153Y-59360000D01*
X92483153Y-56820000D01*
X102944900Y-56820000D01*
X102963252Y-57006329D01*
X103017603Y-57185501D01*
X103105862Y-57350623D01*
X103105864Y-57350625D01*
X103224643Y-57495357D01*
X103347369Y-57596076D01*
X103369376Y-57614137D01*
X103534498Y-57702396D01*
X103624083Y-57729571D01*
X103713669Y-57756747D01*
X103900000Y-57775099D01*
X104086331Y-57756747D01*
X104265501Y-57702396D01*
X104430625Y-57614136D01*
X104575357Y-57495357D01*
X104694136Y-57350625D01*
X104782396Y-57185501D01*
X104836747Y-57006331D01*
X104855099Y-56820000D01*
X104836747Y-56633669D01*
X104782396Y-56454499D01*
X104782396Y-56454498D01*
X104694137Y-56289376D01*
X104661822Y-56250001D01*
X104575357Y-56144643D01*
X104430625Y-56025864D01*
X104430626Y-56025864D01*
X104430623Y-56025862D01*
X104265501Y-55937603D01*
X104086329Y-55883252D01*
X103900000Y-55864900D01*
X103713670Y-55883252D01*
X103534498Y-55937603D01*
X103369376Y-56025862D01*
X103224643Y-56144643D01*
X103105862Y-56289376D01*
X103017603Y-56454498D01*
X102963252Y-56633670D01*
X102944900Y-56820000D01*
X92483153Y-56820000D01*
X95023154Y-54280000D01*
X102945402Y-54280000D01*
X102963744Y-54466231D01*
X103018065Y-54645306D01*
X103074868Y-54751576D01*
X103455549Y-54370894D01*
X103456327Y-54381265D01*
X103505887Y-54507541D01*
X103590465Y-54613599D01*
X103702547Y-54690016D01*
X103810299Y-54723252D01*
X103428422Y-55105130D01*
X103534693Y-55161934D01*
X103713768Y-55216255D01*
X103900000Y-55234597D01*
X104086230Y-55216256D01*
X104265307Y-55161932D01*
X104371576Y-55105130D01*
X103988230Y-54721784D01*
X104034138Y-54714865D01*
X104156357Y-54656007D01*
X104255798Y-54563740D01*
X104323625Y-54446260D01*
X104341499Y-54367945D01*
X104725130Y-54751576D01*
X104781932Y-54645307D01*
X104836256Y-54466230D01*
X104854597Y-54279999D01*
X104836255Y-54093768D01*
X104781934Y-53914693D01*
X104725130Y-53808422D01*
X104344449Y-54189102D01*
X104343673Y-54178735D01*
X104294113Y-54052459D01*
X104209535Y-53946401D01*
X104097453Y-53869984D01*
X103989697Y-53836746D01*
X104371576Y-53454868D01*
X104265306Y-53398065D01*
X104086231Y-53343744D01*
X103900000Y-53325402D01*
X103713768Y-53343744D01*
X103534691Y-53398066D01*
X103428422Y-53454868D01*
X103811769Y-53838215D01*
X103765862Y-53845135D01*
X103643643Y-53903993D01*
X103544202Y-53996260D01*
X103476375Y-54113740D01*
X103458500Y-54192053D01*
X103074868Y-53808421D01*
X103018066Y-53914691D01*
X102963744Y-54093768D01*
X102945402Y-54280000D01*
X95023154Y-54280000D01*
X97296658Y-52006496D01*
X97351176Y-51978719D01*
X97366663Y-51977500D01*
X105353338Y-51977500D01*
X105411529Y-51996407D01*
X105423342Y-52006496D01*
X106283504Y-52866657D01*
X106311281Y-52921174D01*
X106312500Y-52936661D01*
X106312500Y-61081382D01*
X106312123Y-61090012D01*
X106308712Y-61128984D01*
X106318839Y-61166778D01*
X106320708Y-61175207D01*
X106327502Y-61213737D01*
X106328303Y-61215124D01*
X106338192Y-61238999D01*
X106338605Y-61240543D01*
X106361045Y-61272589D01*
X106365680Y-61279864D01*
X106376070Y-61297861D01*
X106385250Y-61313761D01*
X106415223Y-61338911D01*
X106421591Y-61344745D01*
X108735264Y-63658419D01*
X108741088Y-63664775D01*
X108766240Y-63694750D01*
X108766241Y-63694751D01*
X108800120Y-63714310D01*
X108807397Y-63718945D01*
X108839457Y-63741395D01*
X108841001Y-63741808D01*
X108864875Y-63751697D01*
X108866261Y-63752497D01*
X108904787Y-63759289D01*
X108913214Y-63761157D01*
X108951016Y-63771287D01*
X108989988Y-63767876D01*
X108998618Y-63767500D01*
X116843338Y-63767500D01*
X116901529Y-63786407D01*
X116913342Y-63796496D01*
X118443504Y-65326658D01*
X118471281Y-65381175D01*
X118472500Y-65396662D01*
X118472499Y-66456745D01*
X118453592Y-66514936D01*
X118448319Y-66521575D01*
X118374623Y-66606626D01*
X118314834Y-66737544D01*
X118294352Y-66880000D01*
X118314834Y-67022455D01*
X118314835Y-67022457D01*
X118374623Y-67153373D01*
X118468872Y-67262143D01*
X118468874Y-67262145D01*
X118589945Y-67339952D01*
X118589947Y-67339953D01*
X118728039Y-67380500D01*
X118871961Y-67380500D01*
X119010053Y-67339953D01*
X119131128Y-67262143D01*
X119225377Y-67153373D01*
X119285165Y-67022457D01*
X119305647Y-66880000D01*
X119285165Y-66737543D01*
X119225377Y-66606627D01*
X119151679Y-66521574D01*
X119127863Y-66465216D01*
X119127500Y-66456745D01*
X119127500Y-65238609D01*
X119127877Y-65229980D01*
X119131286Y-65191017D01*
X119131286Y-65191016D01*
X119121155Y-65153211D01*
X119119291Y-65144797D01*
X119112497Y-65106261D01*
X119111694Y-65104871D01*
X119101807Y-65080999D01*
X119101394Y-65079457D01*
X119101392Y-65079454D01*
X119078950Y-65047403D01*
X119074309Y-65040118D01*
X119054751Y-65006241D01*
X119054750Y-65006240D01*
X119024775Y-64981088D01*
X119018419Y-64975264D01*
X117264745Y-63221591D01*
X117258911Y-63215223D01*
X117233761Y-63185250D01*
X117217861Y-63176070D01*
X117199864Y-63165680D01*
X117192589Y-63161045D01*
X117160543Y-63138605D01*
X117158999Y-63138192D01*
X117135126Y-63128303D01*
X117133739Y-63127503D01*
X117133738Y-63127502D01*
X117133737Y-63127502D01*
X117095207Y-63120708D01*
X117086778Y-63118839D01*
X117048984Y-63108712D01*
X117010012Y-63112123D01*
X117001382Y-63112500D01*
X109156663Y-63112500D01*
X109098472Y-63093593D01*
X109086659Y-63083504D01*
X106996496Y-60993341D01*
X106968719Y-60938824D01*
X106967500Y-60923337D01*
X106967500Y-56000000D01*
X109355287Y-56000000D01*
X109374097Y-56202989D01*
X109429887Y-56399070D01*
X109520754Y-56581557D01*
X109522532Y-56583913D01*
X109897226Y-56209218D01*
X109935901Y-56302588D01*
X110032075Y-56427925D01*
X110157412Y-56524099D01*
X110250779Y-56562772D01*
X109879311Y-56934241D01*
X109967584Y-56988897D01*
X110157684Y-57062542D01*
X110358068Y-57100000D01*
X110561932Y-57100000D01*
X110762315Y-57062542D01*
X110952415Y-56988897D01*
X111040687Y-56934241D01*
X111026192Y-56919746D01*
X111899500Y-56919746D01*
X111911133Y-56978231D01*
X111955447Y-57044552D01*
X111999761Y-57074162D01*
X112021769Y-57088867D01*
X112080252Y-57100500D01*
X112080253Y-57100500D01*
X113919747Y-57100500D01*
X113919748Y-57100500D01*
X113978231Y-57088867D01*
X114044552Y-57044552D01*
X114088867Y-56978231D01*
X114100500Y-56919748D01*
X114100500Y-56000000D01*
X120355287Y-56000000D01*
X120374097Y-56202989D01*
X120429887Y-56399070D01*
X120520754Y-56581557D01*
X120522532Y-56583913D01*
X120522533Y-56583913D01*
X120897226Y-56209218D01*
X120935901Y-56302588D01*
X121032075Y-56427925D01*
X121157412Y-56524099D01*
X121250779Y-56562772D01*
X120879311Y-56934241D01*
X120967584Y-56988897D01*
X121157684Y-57062542D01*
X121358068Y-57100000D01*
X121561932Y-57100000D01*
X121762315Y-57062542D01*
X121952415Y-56988897D01*
X122040687Y-56934241D01*
X122026192Y-56919746D01*
X122899500Y-56919746D01*
X122911133Y-56978231D01*
X122955447Y-57044552D01*
X122999761Y-57074162D01*
X123021769Y-57088867D01*
X123080252Y-57100500D01*
X123080253Y-57100500D01*
X124919747Y-57100500D01*
X124919748Y-57100500D01*
X124978231Y-57088867D01*
X125044552Y-57044552D01*
X125088867Y-56978231D01*
X125100500Y-56919748D01*
X125100500Y-56000000D01*
X131355287Y-56000000D01*
X131374097Y-56202989D01*
X131429887Y-56399070D01*
X131520754Y-56581557D01*
X131522532Y-56583913D01*
X131897226Y-56209218D01*
X131935901Y-56302588D01*
X132032075Y-56427925D01*
X132157412Y-56524099D01*
X132250779Y-56562772D01*
X131879311Y-56934241D01*
X131967584Y-56988897D01*
X132157684Y-57062542D01*
X132358068Y-57100000D01*
X132561932Y-57100000D01*
X132762315Y-57062542D01*
X132952415Y-56988897D01*
X133040687Y-56934241D01*
X133026192Y-56919746D01*
X133899500Y-56919746D01*
X133911133Y-56978231D01*
X133955447Y-57044552D01*
X133999761Y-57074162D01*
X134021769Y-57088867D01*
X134080252Y-57100500D01*
X134080253Y-57100500D01*
X135919747Y-57100500D01*
X135919748Y-57100500D01*
X135978231Y-57088867D01*
X136044552Y-57044552D01*
X136088867Y-56978231D01*
X136100500Y-56919748D01*
X136100500Y-55080252D01*
X136088867Y-55021769D01*
X136074162Y-54999762D01*
X136044552Y-54955447D01*
X135978231Y-54911133D01*
X135978230Y-54911132D01*
X135919748Y-54899500D01*
X134080252Y-54899500D01*
X134051010Y-54905316D01*
X134021768Y-54911133D01*
X133955447Y-54955447D01*
X133911133Y-55021768D01*
X133911132Y-55021769D01*
X133911133Y-55021769D01*
X133900717Y-55074137D01*
X133899500Y-55080253D01*
X133899500Y-56919746D01*
X133026192Y-56919746D01*
X132669219Y-56562773D01*
X132762588Y-56524099D01*
X132887925Y-56427925D01*
X132984099Y-56302589D01*
X133022773Y-56209219D01*
X133397466Y-56583912D01*
X133399247Y-56581554D01*
X133490112Y-56399070D01*
X133545902Y-56202989D01*
X133564712Y-56000000D01*
X133545902Y-55797010D01*
X133490112Y-55600929D01*
X133399246Y-55418444D01*
X133397466Y-55416086D01*
X133022772Y-55790779D01*
X132984099Y-55697412D01*
X132887925Y-55572075D01*
X132762588Y-55475901D01*
X132669217Y-55437226D01*
X133040687Y-55065757D01*
X132952414Y-55011101D01*
X132762315Y-54937457D01*
X132561932Y-54900000D01*
X132358068Y-54900000D01*
X132157684Y-54937457D01*
X131967585Y-55011101D01*
X131879311Y-55065757D01*
X132250780Y-55437226D01*
X132157412Y-55475901D01*
X132032075Y-55572075D01*
X131935901Y-55697411D01*
X131897226Y-55790780D01*
X131522532Y-55416086D01*
X131520753Y-55418445D01*
X131429887Y-55600929D01*
X131374097Y-55797010D01*
X131355287Y-56000000D01*
X125100500Y-56000000D01*
X125100500Y-55080252D01*
X125088867Y-55021769D01*
X125074162Y-54999761D01*
X125044552Y-54955447D01*
X124978231Y-54911133D01*
X124978230Y-54911132D01*
X124919748Y-54899500D01*
X123080252Y-54899500D01*
X123051010Y-54905316D01*
X123021768Y-54911133D01*
X122955447Y-54955447D01*
X122911133Y-55021768D01*
X122911132Y-55021769D01*
X122911133Y-55021769D01*
X122900717Y-55074137D01*
X122899500Y-55080253D01*
X122899500Y-56919746D01*
X122026192Y-56919746D01*
X121669219Y-56562773D01*
X121762588Y-56524099D01*
X121887925Y-56427925D01*
X121984099Y-56302589D01*
X122022773Y-56209219D01*
X122397466Y-56583912D01*
X122399247Y-56581554D01*
X122490112Y-56399070D01*
X122545902Y-56202989D01*
X122564712Y-56000000D01*
X122545902Y-55797010D01*
X122490112Y-55600929D01*
X122399246Y-55418444D01*
X122397466Y-55416086D01*
X122022772Y-55790779D01*
X121984099Y-55697412D01*
X121887925Y-55572075D01*
X121762588Y-55475901D01*
X121669217Y-55437226D01*
X122040687Y-55065757D01*
X121952414Y-55011101D01*
X121762315Y-54937457D01*
X121561932Y-54900000D01*
X121358068Y-54900000D01*
X121157684Y-54937457D01*
X120967585Y-55011101D01*
X120879311Y-55065757D01*
X121250780Y-55437226D01*
X121157412Y-55475901D01*
X121032075Y-55572075D01*
X120935901Y-55697411D01*
X120897226Y-55790780D01*
X120522532Y-55416086D01*
X120520753Y-55418445D01*
X120429887Y-55600929D01*
X120374097Y-55797010D01*
X120355287Y-56000000D01*
X114100500Y-56000000D01*
X114100500Y-55080252D01*
X114088867Y-55021769D01*
X114074162Y-54999762D01*
X114044552Y-54955447D01*
X113978231Y-54911133D01*
X113978230Y-54911132D01*
X113919748Y-54899500D01*
X112080252Y-54899500D01*
X112051010Y-54905316D01*
X112021768Y-54911133D01*
X111955447Y-54955447D01*
X111911133Y-55021768D01*
X111911132Y-55021769D01*
X111911133Y-55021769D01*
X111900717Y-55074137D01*
X111899500Y-55080253D01*
X111899500Y-56919746D01*
X111026192Y-56919746D01*
X110669219Y-56562773D01*
X110762588Y-56524099D01*
X110887925Y-56427925D01*
X110984099Y-56302589D01*
X111022773Y-56209219D01*
X111397466Y-56583912D01*
X111399247Y-56581554D01*
X111490112Y-56399070D01*
X111545902Y-56202989D01*
X111564712Y-56000000D01*
X111545902Y-55797010D01*
X111490112Y-55600929D01*
X111399246Y-55418444D01*
X111397466Y-55416086D01*
X111022772Y-55790779D01*
X110984099Y-55697412D01*
X110887925Y-55572075D01*
X110762588Y-55475901D01*
X110669217Y-55437226D01*
X111040687Y-55065757D01*
X110952414Y-55011101D01*
X110762315Y-54937457D01*
X110561932Y-54900000D01*
X110358068Y-54900000D01*
X110157684Y-54937457D01*
X109967585Y-55011101D01*
X109879311Y-55065757D01*
X110250780Y-55437226D01*
X110157412Y-55475901D01*
X110032075Y-55572075D01*
X109935901Y-55697411D01*
X109897226Y-55790780D01*
X109522532Y-55416086D01*
X109520753Y-55418445D01*
X109429887Y-55600929D01*
X109374097Y-55797010D01*
X109355287Y-56000000D01*
X106967500Y-56000000D01*
X106967500Y-52778617D01*
X106967877Y-52769987D01*
X106971287Y-52731015D01*
X106961160Y-52693224D01*
X106959290Y-52684788D01*
X106952497Y-52646262D01*
X106952497Y-52646261D01*
X106951696Y-52644873D01*
X106941806Y-52620995D01*
X106941393Y-52619454D01*
X106918955Y-52587409D01*
X106914315Y-52580127D01*
X106894750Y-52546240D01*
X106864774Y-52521087D01*
X106858407Y-52515253D01*
X105774745Y-51431591D01*
X105768911Y-51425223D01*
X105743761Y-51395250D01*
X105727861Y-51386070D01*
X105709864Y-51375680D01*
X105702589Y-51371045D01*
X105670543Y-51348605D01*
X105668999Y-51348192D01*
X105645126Y-51338303D01*
X105643739Y-51337503D01*
X105643738Y-51337502D01*
X105643737Y-51337502D01*
X105605207Y-51330708D01*
X105596778Y-51328839D01*
X105558984Y-51318712D01*
X105520012Y-51322123D01*
X105511382Y-51322500D01*
X97208608Y-51322500D01*
X97199981Y-51322123D01*
X97193478Y-51321554D01*
X97161013Y-51318713D01*
X97123229Y-51328837D01*
X97114802Y-51330705D01*
X97076261Y-51337501D01*
X97074870Y-51338305D01*
X97051006Y-51348190D01*
X97049457Y-51348604D01*
X97017406Y-51371047D01*
X97010125Y-51375685D01*
X96976240Y-51395249D01*
X96951092Y-51425218D01*
X96945260Y-51431583D01*
X84293342Y-64083504D01*
X84238825Y-64111281D01*
X84223338Y-64112500D01*
X81862046Y-64112500D01*
X81803855Y-64093593D01*
X81774737Y-64060170D01*
X81694136Y-63909375D01*
X81575357Y-63764643D01*
X81449640Y-63661469D01*
X81430623Y-63645862D01*
X81265501Y-63557603D01*
X81086329Y-63503252D01*
X80900000Y-63484900D01*
X80713670Y-63503252D01*
X80534498Y-63557603D01*
X80369376Y-63645862D01*
X80224643Y-63764643D01*
X80105862Y-63909376D01*
X80017603Y-64074498D01*
X79963252Y-64253670D01*
X79944900Y-64439999D01*
X71427500Y-64439999D01*
X71427500Y-61899999D01*
X79944900Y-61899999D01*
X79963252Y-62086329D01*
X80017603Y-62265501D01*
X80105862Y-62430623D01*
X80105864Y-62430625D01*
X80224643Y-62575357D01*
X80347369Y-62676076D01*
X80369376Y-62694137D01*
X80534498Y-62782396D01*
X80624084Y-62809571D01*
X80713669Y-62836747D01*
X80900000Y-62855099D01*
X81086331Y-62836747D01*
X81265501Y-62782396D01*
X81430625Y-62694136D01*
X81575357Y-62575357D01*
X81694136Y-62430625D01*
X81782396Y-62265501D01*
X81836747Y-62086331D01*
X81855099Y-61900000D01*
X81836747Y-61713669D01*
X81782396Y-61534499D01*
X81782396Y-61534498D01*
X81694137Y-61369376D01*
X81669135Y-61338911D01*
X81575357Y-61224643D01*
X81430625Y-61105864D01*
X81430626Y-61105864D01*
X81430623Y-61105862D01*
X81265501Y-61017603D01*
X81086329Y-60963252D01*
X80899999Y-60944900D01*
X80713670Y-60963252D01*
X80534498Y-61017603D01*
X80369376Y-61105862D01*
X80224643Y-61224643D01*
X80105862Y-61369376D01*
X80017603Y-61534498D01*
X79963252Y-61713670D01*
X79944900Y-61899999D01*
X71427500Y-61899999D01*
X71427500Y-59360000D01*
X79944900Y-59360000D01*
X79963252Y-59546329D01*
X80017603Y-59725501D01*
X80105862Y-59890623D01*
X80105864Y-59890625D01*
X80224643Y-60035357D01*
X80347369Y-60136076D01*
X80369376Y-60154137D01*
X80534498Y-60242396D01*
X80624083Y-60269571D01*
X80713669Y-60296747D01*
X80806834Y-60305923D01*
X80899999Y-60315099D01*
X80899999Y-60315098D01*
X80900000Y-60315099D01*
X81086331Y-60296747D01*
X81265501Y-60242396D01*
X81430625Y-60154136D01*
X81575357Y-60035357D01*
X81694136Y-59890625D01*
X81782396Y-59725501D01*
X81836747Y-59546331D01*
X81855099Y-59360000D01*
X81836747Y-59173669D01*
X81782396Y-58994499D01*
X81782396Y-58994498D01*
X81694137Y-58829376D01*
X81676076Y-58807369D01*
X81575357Y-58684643D01*
X81430625Y-58565864D01*
X81430626Y-58565864D01*
X81430623Y-58565862D01*
X81265501Y-58477603D01*
X81086329Y-58423252D01*
X80899999Y-58404900D01*
X80713670Y-58423252D01*
X80534498Y-58477603D01*
X80369376Y-58565862D01*
X80224643Y-58684643D01*
X80105862Y-58829376D01*
X80017603Y-58994498D01*
X79963252Y-59173670D01*
X79944900Y-59360000D01*
X71427500Y-59360000D01*
X71427500Y-57121138D01*
X71446407Y-57062947D01*
X71490738Y-57028823D01*
X71592637Y-56989348D01*
X71705048Y-56919746D01*
X72539500Y-56919746D01*
X72551133Y-56978231D01*
X72595447Y-57044552D01*
X72639761Y-57074162D01*
X72661769Y-57088867D01*
X72720252Y-57100500D01*
X72720253Y-57100500D01*
X74559747Y-57100500D01*
X74559748Y-57100500D01*
X74618231Y-57088867D01*
X74684552Y-57044552D01*
X74728867Y-56978231D01*
X74740500Y-56919748D01*
X74740500Y-56820000D01*
X79944900Y-56820000D01*
X79963252Y-57006329D01*
X80017603Y-57185501D01*
X80105862Y-57350623D01*
X80105864Y-57350625D01*
X80224643Y-57495357D01*
X80347369Y-57596076D01*
X80369376Y-57614137D01*
X80534498Y-57702396D01*
X80624083Y-57729571D01*
X80713669Y-57756747D01*
X80900000Y-57775099D01*
X81086331Y-57756747D01*
X81265501Y-57702396D01*
X81430625Y-57614136D01*
X81575357Y-57495357D01*
X81694136Y-57350625D01*
X81782396Y-57185501D01*
X81836747Y-57006331D01*
X81855099Y-56820000D01*
X81836747Y-56633669D01*
X81782396Y-56454499D01*
X81782396Y-56454498D01*
X81694137Y-56289376D01*
X81661822Y-56250001D01*
X81575357Y-56144643D01*
X81430625Y-56025864D01*
X81430626Y-56025864D01*
X81430623Y-56025862D01*
X81265501Y-55937603D01*
X81086329Y-55883252D01*
X80900000Y-55864900D01*
X80713670Y-55883252D01*
X80534498Y-55937603D01*
X80369376Y-56025862D01*
X80224643Y-56144643D01*
X80105862Y-56289376D01*
X80017603Y-56454498D01*
X79963252Y-56633670D01*
X79944900Y-56820000D01*
X74740500Y-56820000D01*
X74740500Y-55080252D01*
X74728867Y-55021769D01*
X74714162Y-54999762D01*
X74684552Y-54955447D01*
X74618231Y-54911133D01*
X74618230Y-54911132D01*
X74559748Y-54899500D01*
X72720252Y-54899500D01*
X72691010Y-54905316D01*
X72661768Y-54911133D01*
X72595447Y-54955447D01*
X72551133Y-55021768D01*
X72551132Y-55021769D01*
X72551133Y-55021769D01*
X72540717Y-55074137D01*
X72539500Y-55080253D01*
X72539500Y-56919746D01*
X71705048Y-56919746D01*
X71766041Y-56881981D01*
X71916764Y-56744579D01*
X72039673Y-56581821D01*
X72130582Y-56399250D01*
X72186397Y-56203083D01*
X72205215Y-56000000D01*
X72186397Y-55796917D01*
X72130582Y-55600750D01*
X72039673Y-55418179D01*
X71916764Y-55255421D01*
X71766041Y-55118019D01*
X71695169Y-55074137D01*
X71592639Y-55010653D01*
X71592637Y-55010652D01*
X71552347Y-54995043D01*
X71402453Y-54936974D01*
X71201978Y-54899500D01*
X71201976Y-54899500D01*
X70998024Y-54899500D01*
X70998022Y-54899500D01*
X70797546Y-54936974D01*
X70607360Y-55010653D01*
X70433961Y-55118017D01*
X70283237Y-55255420D01*
X70160325Y-55418181D01*
X70083696Y-55572075D01*
X70069418Y-55600750D01*
X70013603Y-55796917D01*
X69994785Y-56000000D01*
X69665215Y-56000000D01*
X69646397Y-55796917D01*
X69590582Y-55600750D01*
X69499673Y-55418179D01*
X69376764Y-55255421D01*
X69226041Y-55118019D01*
X69155169Y-55074137D01*
X69052639Y-55010653D01*
X69052637Y-55010652D01*
X69012347Y-54995043D01*
X68862453Y-54936974D01*
X68661978Y-54899500D01*
X68661976Y-54899500D01*
X68458024Y-54899500D01*
X68458022Y-54899500D01*
X68257546Y-54936974D01*
X68067360Y-55010653D01*
X67893961Y-55118017D01*
X67743237Y-55255420D01*
X67620325Y-55418181D01*
X67543696Y-55572075D01*
X67529418Y-55600750D01*
X67473603Y-55796917D01*
X67454785Y-56000000D01*
X67124712Y-56000000D01*
X67105902Y-55797010D01*
X67050112Y-55600929D01*
X66959246Y-55418444D01*
X66957466Y-55416086D01*
X66582772Y-55790779D01*
X66544099Y-55697412D01*
X66447925Y-55572075D01*
X66322588Y-55475901D01*
X66229217Y-55437226D01*
X66600687Y-55065757D01*
X66512414Y-55011101D01*
X66322315Y-54937457D01*
X66121932Y-54900000D01*
X65918068Y-54900000D01*
X65717684Y-54937457D01*
X65527585Y-55011101D01*
X65439311Y-55065757D01*
X65810780Y-55437226D01*
X65717412Y-55475901D01*
X65592075Y-55572075D01*
X65495901Y-55697411D01*
X65457226Y-55790780D01*
X65082532Y-55416086D01*
X65080753Y-55418445D01*
X64989887Y-55600929D01*
X64934097Y-55797010D01*
X64915287Y-56000000D01*
X60015177Y-56000000D01*
X59994556Y-55843369D01*
X59955882Y-55750000D01*
X60509999Y-55750000D01*
X60510000Y-55749998D01*
X60510000Y-55080302D01*
X60498395Y-55021963D01*
X60454192Y-54955807D01*
X60388036Y-54911604D01*
X60329697Y-54900000D01*
X59660000Y-54900000D01*
X59660000Y-55454118D01*
X59566631Y-55415444D01*
X59449323Y-55400000D01*
X59370677Y-55400000D01*
X59253369Y-55415444D01*
X59160000Y-55454118D01*
X59160000Y-54900000D01*
X58490303Y-54900000D01*
X58431963Y-54911604D01*
X58365807Y-54955807D01*
X58321604Y-55021963D01*
X58310000Y-55080302D01*
X58310000Y-55749999D01*
X58310001Y-55750000D01*
X58864118Y-55750000D01*
X58825444Y-55843369D01*
X58804823Y-56000000D01*
X58825444Y-56156631D01*
X58864118Y-56250000D01*
X58310000Y-56250000D01*
X58310000Y-56919697D01*
X57475127Y-56919697D01*
X57536041Y-56881981D01*
X57686764Y-56744579D01*
X57809673Y-56581821D01*
X57900582Y-56399250D01*
X57956397Y-56203083D01*
X57975215Y-56000000D01*
X57956397Y-55796917D01*
X57900582Y-55600750D01*
X57809673Y-55418179D01*
X57686764Y-55255421D01*
X57536041Y-55118019D01*
X57465169Y-55074137D01*
X57362639Y-55010653D01*
X57362637Y-55010652D01*
X57322347Y-54995043D01*
X57172453Y-54936974D01*
X56971978Y-54899500D01*
X56971976Y-54899500D01*
X56768024Y-54899500D01*
X56768022Y-54899500D01*
X56567546Y-54936974D01*
X56377360Y-55010653D01*
X56203961Y-55118017D01*
X56053237Y-55255420D01*
X55930325Y-55418181D01*
X55853696Y-55572075D01*
X55839418Y-55600750D01*
X55783603Y-55796917D01*
X55764785Y-56000000D01*
X50500500Y-56000000D01*
X50500500Y-54280000D01*
X79944900Y-54280000D01*
X79963252Y-54466329D01*
X80017603Y-54645501D01*
X80105862Y-54810623D01*
X80105864Y-54810625D01*
X80224643Y-54955357D01*
X80347369Y-55056076D01*
X80369376Y-55074137D01*
X80534498Y-55162396D01*
X80624083Y-55189571D01*
X80713669Y-55216747D01*
X80900000Y-55235099D01*
X81086331Y-55216747D01*
X81265501Y-55162396D01*
X81430625Y-55074136D01*
X81575357Y-54955357D01*
X81694136Y-54810625D01*
X81782396Y-54645501D01*
X81836747Y-54466331D01*
X81855099Y-54280000D01*
X81836747Y-54093669D01*
X81807198Y-53996260D01*
X81782396Y-53914498D01*
X81694137Y-53749376D01*
X81676076Y-53727369D01*
X81575357Y-53604643D01*
X81430625Y-53485864D01*
X81430626Y-53485864D01*
X81430623Y-53485862D01*
X81265501Y-53397603D01*
X81086329Y-53343252D01*
X80900000Y-53324900D01*
X80713670Y-53343252D01*
X80534498Y-53397603D01*
X80369376Y-53485862D01*
X80224643Y-53604643D01*
X80105862Y-53749376D01*
X80017603Y-53914498D01*
X79963252Y-54093670D01*
X79944900Y-54280000D01*
X50500500Y-54280000D01*
X50500500Y-51005555D01*
X50501121Y-50994488D01*
X50511776Y-50899924D01*
X50516704Y-50878332D01*
X50546285Y-50793794D01*
X50555897Y-50773834D01*
X50603541Y-50698010D01*
X50617357Y-50680684D01*
X50680684Y-50617357D01*
X50698012Y-50603540D01*
X50773834Y-50555897D01*
X50793794Y-50546285D01*
X50878332Y-50516704D01*
X50899924Y-50511776D01*
X50994487Y-50501121D01*
X51005556Y-50500500D01*
X51065892Y-50500500D01*
X138934108Y-50500500D01*
X138994444Y-50500500D01*
X139005512Y-50501121D01*
G37*
%TD.AperFunction*%
%TD*%
M02*
