%TF.GenerationSoftware,KiCad,Pcbnew,7.0.2*%
%TF.CreationDate,2023-06-22T14:29:26-03:00*%
%TF.ProjectId,Belliz_IOT,42656c6c-697a-45f4-994f-542e6b696361,rev?*%
%TF.SameCoordinates,Original*%
%TF.FileFunction,Soldermask,Top*%
%TF.FilePolarity,Negative*%
%FSLAX46Y46*%
G04 Gerber Fmt 4.6, Leading zero omitted, Abs format (unit mm)*
G04 Created by KiCad (PCBNEW 7.0.2) date 2023-06-22 14:29:26*
%MOMM*%
%LPD*%
G01*
G04 APERTURE LIST*
G04 Aperture macros list*
%AMRoundRect*
0 Rectangle with rounded corners*
0 $1 Rounding radius*
0 $2 $3 $4 $5 $6 $7 $8 $9 X,Y pos of 4 corners*
0 Add a 4 corners polygon primitive as box body*
4,1,4,$2,$3,$4,$5,$6,$7,$8,$9,$2,$3,0*
0 Add four circle primitives for the rounded corners*
1,1,$1+$1,$2,$3*
1,1,$1+$1,$4,$5*
1,1,$1+$1,$6,$7*
1,1,$1+$1,$8,$9*
0 Add four rect primitives between the rounded corners*
20,1,$1+$1,$2,$3,$4,$5,0*
20,1,$1+$1,$4,$5,$6,$7,0*
20,1,$1+$1,$6,$7,$8,$9,0*
20,1,$1+$1,$8,$9,$2,$3,0*%
G04 Aperture macros list end*
%ADD10C,0.800000*%
%ADD11C,7.000000*%
%ADD12R,1.800000X1.800000*%
%ADD13C,1.800000*%
%ADD14RoundRect,0.250000X0.450000X-0.262500X0.450000X0.262500X-0.450000X0.262500X-0.450000X-0.262500X0*%
%ADD15C,1.500000*%
%ADD16R,1.600000X1.600000*%
%ADD17O,1.600000X1.600000*%
%ADD18RoundRect,0.250000X-0.262500X-0.450000X0.262500X-0.450000X0.262500X0.450000X-0.262500X0.450000X0*%
%ADD19C,1.524000*%
%ADD20RoundRect,0.250000X-0.475000X0.250000X-0.475000X-0.250000X0.475000X-0.250000X0.475000X0.250000X0*%
%ADD21RoundRect,0.250000X0.262500X0.450000X-0.262500X0.450000X-0.262500X-0.450000X0.262500X-0.450000X0*%
G04 APERTURE END LIST*
D10*
%TO.C,REF\u002A\u002A*%
X135000000Y-80125000D03*
X137625000Y-77500000D03*
D11*
X135000000Y-77500000D03*
D10*
X135000000Y-74875000D03*
X133143845Y-79356155D03*
X133143845Y-75643845D03*
X136856155Y-79356155D03*
X132375000Y-77500000D03*
X136856155Y-75643845D03*
%TD*%
%TO.C,REF\u002A\u002A*%
X56856155Y-75643845D03*
X52375000Y-77500000D03*
X56856155Y-79356155D03*
X53143845Y-75643845D03*
X53143845Y-79356155D03*
X55000000Y-74875000D03*
D11*
X55000000Y-77500000D03*
D10*
X57625000Y-77500000D03*
X55000000Y-80125000D03*
%TD*%
D12*
%TO.C,J3*%
X124000000Y-56000000D03*
D13*
X121460000Y-56000000D03*
%TD*%
D12*
%TO.C,J2*%
X113000000Y-56000000D03*
D13*
X110460000Y-56000000D03*
%TD*%
D14*
%TO.C,R8*%
X109820000Y-67512500D03*
X109820000Y-65687500D03*
%TD*%
%TO.C,R9*%
X113680000Y-67452500D03*
X113680000Y-65627500D03*
%TD*%
D15*
%TO.C,J9*%
X80900000Y-100000000D03*
X80900000Y-97460000D03*
X80900000Y-94920000D03*
X80900000Y-92380000D03*
X80900000Y-89840000D03*
X80900000Y-87300000D03*
X80900000Y-84760000D03*
X80900000Y-82220000D03*
X80900000Y-79680000D03*
X80900000Y-77140000D03*
X80900000Y-74600000D03*
X80900000Y-72060000D03*
X80900000Y-69520000D03*
X80900000Y-66980000D03*
X80900000Y-64440000D03*
X80900000Y-61900000D03*
X80900000Y-59360000D03*
X80900000Y-56820000D03*
X80900000Y-54280000D03*
%TD*%
%TO.C,J8*%
X103900000Y-100000000D03*
X103900000Y-97460000D03*
X103900000Y-94920000D03*
X103900000Y-92380000D03*
X103900000Y-89840000D03*
X103900000Y-87300000D03*
X103900000Y-84760000D03*
X103900000Y-82220000D03*
X103900000Y-79680000D03*
X103900000Y-77140000D03*
X103900000Y-74600000D03*
X103900000Y-72060000D03*
X103900000Y-69520000D03*
X103900000Y-66980000D03*
X103900000Y-64440000D03*
X103900000Y-61900000D03*
X103900000Y-59360000D03*
X103900000Y-56820000D03*
X103900000Y-54280000D03*
%TD*%
D16*
%TO.C,U1*%
X116730000Y-77250000D03*
D17*
X116730000Y-79790000D03*
X116730000Y-82330000D03*
X116730000Y-84870000D03*
X124350000Y-84870000D03*
X124350000Y-82330000D03*
X124350000Y-79790000D03*
X124350000Y-77250000D03*
%TD*%
D18*
%TO.C,R4*%
X127707500Y-82540000D03*
X129532500Y-82540000D03*
%TD*%
D12*
%TO.C,J1*%
X59410000Y-56000000D03*
D13*
X56870000Y-56000000D03*
%TD*%
D12*
%TO.C,J6*%
X73640000Y-56000000D03*
D13*
X71100000Y-56000000D03*
X68560000Y-56000000D03*
X66020000Y-56000000D03*
%TD*%
D14*
%TO.C,R3*%
X131740000Y-87732500D03*
X131740000Y-85907500D03*
%TD*%
D18*
%TO.C,R5*%
X109887500Y-86960000D03*
X111712500Y-86960000D03*
%TD*%
D19*
%TO.C,J10*%
X136240000Y-96000000D03*
X131160000Y-96000000D03*
X126080000Y-96000000D03*
X121000000Y-96000000D03*
X115920000Y-96000000D03*
X110840000Y-96000000D03*
%TD*%
%TO.C,J5*%
X74240000Y-96000000D03*
X69160000Y-96000000D03*
X64080000Y-96000000D03*
X59000000Y-96000000D03*
X53920000Y-96000000D03*
%TD*%
D12*
%TO.C,J4*%
X135000000Y-56000000D03*
D13*
X132460000Y-56000000D03*
%TD*%
D14*
%TO.C,R7*%
X115670000Y-73232500D03*
X115670000Y-71407500D03*
%TD*%
D20*
%TO.C,C1*%
X121450000Y-69940000D03*
X121450000Y-71840000D03*
%TD*%
D14*
%TO.C,R10*%
X135030000Y-64747500D03*
X135030000Y-66572500D03*
%TD*%
D21*
%TO.C,R6*%
X111772500Y-82440000D03*
X109947500Y-82440000D03*
%TD*%
D20*
%TO.C,C2*%
X130690000Y-64820000D03*
X130690000Y-66720000D03*
%TD*%
M02*
