%TF.GenerationSoftware,KiCad,Pcbnew,7.0.2*%
%TF.CreationDate,2023-06-22T14:29:23-03:00*%
%TF.ProjectId,Belliz_IOT,42656c6c-697a-45f4-994f-542e6b696361,rev?*%
%TF.SameCoordinates,Original*%
%TF.FileFunction,Drillmap*%
%TF.FilePolarity,Positive*%
%FSLAX45Y45*%
G04 Gerber Fmt 4.5, Leading zero omitted, Abs format (unit mm)*
G04 Created by KiCad (PCBNEW 7.0.2) date 2023-06-22 14:29:23*
%MOMM*%
%LPD*%
G01*
G04 APERTURE LIST*
%ADD10C,0.050000*%
%ADD11C,0.200000*%
%ADD12C,0.030000*%
%ADD13C,0.076200*%
%ADD14C,0.080000*%
%ADD15C,0.090000*%
%ADD16C,0.120000*%
%ADD17C,0.350000*%
G04 APERTURE END LIST*
D10*
X14000000Y-5100000D02*
G75*
G03*
X13900000Y-5000000I-100000J0D01*
G01*
X13900000Y-10500000D02*
G75*
G03*
X14000000Y-10400000I0J100000D01*
G01*
X5000000Y-10400000D02*
G75*
G03*
X5100000Y-10500000I100000J0D01*
G01*
X5100000Y-5000000D02*
G75*
G03*
X5000000Y-5100000I0J-100000D01*
G01*
X5000000Y-10400000D02*
X5000000Y-5100000D01*
X13900000Y-10500000D02*
X5100000Y-10500000D01*
X14000000Y-5100000D02*
X14000000Y-10400000D01*
X5100000Y-5000000D02*
X13900000Y-5000000D01*
D11*
D12*
X6956500Y-8280500D02*
X6986500Y-8310500D01*
X6986500Y-8280500D02*
X6956500Y-8310500D01*
X7087000Y-8624000D02*
X7117000Y-8654000D01*
X7117000Y-8624000D02*
X7087000Y-8654000D01*
X7180500Y-7847500D02*
X7210500Y-7877500D01*
X7210500Y-7847500D02*
X7180500Y-7877500D01*
X7372000Y-7242000D02*
X7402000Y-7272000D01*
X7402000Y-7242000D02*
X7372000Y-7272000D01*
X7409000Y-8730000D02*
X7439000Y-8760000D01*
X7439000Y-8730000D02*
X7409000Y-8760000D01*
X9110000Y-10065000D02*
X9140000Y-10095000D01*
X9140000Y-10065000D02*
X9110000Y-10095000D01*
X9428000Y-9746000D02*
X9458000Y-9776000D01*
X9458000Y-9746000D02*
X9428000Y-9776000D01*
X11737000Y-9241000D02*
X11767000Y-9271000D01*
X11767000Y-9241000D02*
X11737000Y-9271000D01*
X11851000Y-8847000D02*
X11881000Y-8877000D01*
X11881000Y-8847000D02*
X11851000Y-8877000D01*
X11865000Y-6673000D02*
X11895000Y-6703000D01*
X11895000Y-6673000D02*
X11865000Y-6703000D01*
X12699000Y-7057000D02*
X12729000Y-7087000D01*
X12729000Y-7057000D02*
X12699000Y-7087000D01*
D10*
X5262500Y-7750000D02*
G75*
G03*
X5262500Y-7750000I-25000J0D01*
G01*
X5339385Y-7564384D02*
G75*
G03*
X5339385Y-7564384I-25000J0D01*
G01*
X5339385Y-7935615D02*
G75*
G03*
X5339385Y-7935615I-25000J0D01*
G01*
X5525000Y-7487500D02*
G75*
G03*
X5525000Y-7487500I-25000J0D01*
G01*
X5525000Y-8012500D02*
G75*
G03*
X5525000Y-8012500I-25000J0D01*
G01*
X5710615Y-7564384D02*
G75*
G03*
X5710615Y-7564384I-25000J0D01*
G01*
X5710615Y-7935615D02*
G75*
G03*
X5710615Y-7935615I-25000J0D01*
G01*
X5787500Y-7750000D02*
G75*
G03*
X5787500Y-7750000I-25000J0D01*
G01*
X13262500Y-7750000D02*
G75*
G03*
X13262500Y-7750000I-25000J0D01*
G01*
X13339384Y-7564384D02*
G75*
G03*
X13339384Y-7564384I-25000J0D01*
G01*
X13339384Y-7935615D02*
G75*
G03*
X13339384Y-7935615I-25000J0D01*
G01*
X13525000Y-7487500D02*
G75*
G03*
X13525000Y-7487500I-25000J0D01*
G01*
X13525000Y-8012500D02*
G75*
G03*
X13525000Y-8012500I-25000J0D01*
G01*
X13710615Y-7564384D02*
G75*
G03*
X13710615Y-7564384I-25000J0D01*
G01*
X13710615Y-7935615D02*
G75*
G03*
X13710615Y-7935615I-25000J0D01*
G01*
X13787500Y-7750000D02*
G75*
G03*
X13787500Y-7750000I-25000J0D01*
G01*
D13*
X5392000Y-9561900D02*
X5392000Y-9638100D01*
X5353900Y-9600000D02*
X5430100Y-9600000D01*
X5900000Y-9561900D02*
X5900000Y-9638100D01*
X5861900Y-9600000D02*
X5938100Y-9600000D01*
X6408000Y-9561900D02*
X6408000Y-9638100D01*
X6369900Y-9600000D02*
X6446100Y-9600000D01*
X6916000Y-9561900D02*
X6916000Y-9638100D01*
X6877900Y-9600000D02*
X6954100Y-9600000D01*
X7424000Y-9561900D02*
X7424000Y-9638100D01*
X7385900Y-9600000D02*
X7462100Y-9600000D01*
X11084000Y-9561900D02*
X11084000Y-9638100D01*
X11045900Y-9600000D02*
X11122100Y-9600000D01*
X11592000Y-9561900D02*
X11592000Y-9638100D01*
X11553900Y-9600000D02*
X11630100Y-9600000D01*
X12100000Y-9561900D02*
X12100000Y-9638100D01*
X12061900Y-9600000D02*
X12138100Y-9600000D01*
X12608000Y-9561900D02*
X12608000Y-9638100D01*
X12569900Y-9600000D02*
X12646100Y-9600000D01*
X13116000Y-9561900D02*
X13116000Y-9638100D01*
X13077900Y-9600000D02*
X13154100Y-9600000D01*
X13624000Y-9561900D02*
X13624000Y-9638100D01*
X13585900Y-9600000D02*
X13662100Y-9600000D01*
D14*
X11701284Y-7753284D02*
X11701284Y-7696715D01*
X11644715Y-7696715D01*
X11644715Y-7753284D01*
X11701284Y-7753284D01*
X11701284Y-8007284D02*
X11701284Y-7950715D01*
X11644715Y-7950715D01*
X11644715Y-8007284D01*
X11701284Y-8007284D01*
X11701284Y-8261284D02*
X11701284Y-8204715D01*
X11644715Y-8204715D01*
X11644715Y-8261284D01*
X11701284Y-8261284D01*
X11701284Y-8515285D02*
X11701284Y-8458716D01*
X11644715Y-8458716D01*
X11644715Y-8515285D01*
X11701284Y-8515285D01*
X12463284Y-7753284D02*
X12463284Y-7696715D01*
X12406715Y-7696715D01*
X12406715Y-7753284D01*
X12463284Y-7753284D01*
X12463284Y-8007284D02*
X12463284Y-7950715D01*
X12406715Y-7950715D01*
X12406715Y-8007284D01*
X12463284Y-8007284D01*
X12463284Y-8261284D02*
X12463284Y-8204715D01*
X12406715Y-8204715D01*
X12406715Y-8261284D01*
X12463284Y-8261284D01*
X12463284Y-8515285D02*
X12463284Y-8458716D01*
X12406715Y-8458716D01*
X12406715Y-8515285D01*
X12463284Y-8515285D01*
D15*
X8090000Y-5473000D02*
X8135000Y-5428000D01*
X8090000Y-5383000D01*
X8045000Y-5428000D01*
X8090000Y-5473000D01*
X8090000Y-5727000D02*
X8135000Y-5682000D01*
X8090000Y-5637000D01*
X8045000Y-5682000D01*
X8090000Y-5727000D01*
X8090000Y-5981000D02*
X8135000Y-5936000D01*
X8090000Y-5891000D01*
X8045000Y-5936000D01*
X8090000Y-5981000D01*
X8090000Y-6235000D02*
X8135000Y-6190000D01*
X8090000Y-6145000D01*
X8045000Y-6190000D01*
X8090000Y-6235000D01*
X8090000Y-6489000D02*
X8135000Y-6444000D01*
X8090000Y-6399000D01*
X8045000Y-6444000D01*
X8090000Y-6489000D01*
X8090000Y-6743000D02*
X8135000Y-6698000D01*
X8090000Y-6653000D01*
X8045000Y-6698000D01*
X8090000Y-6743000D01*
X8090000Y-6997000D02*
X8135000Y-6952000D01*
X8090000Y-6907000D01*
X8045000Y-6952000D01*
X8090000Y-6997000D01*
X8090000Y-7251000D02*
X8135000Y-7206000D01*
X8090000Y-7161000D01*
X8045000Y-7206000D01*
X8090000Y-7251000D01*
X8090000Y-7505000D02*
X8135000Y-7460000D01*
X8090000Y-7415000D01*
X8045000Y-7460000D01*
X8090000Y-7505000D01*
X8090000Y-7759000D02*
X8135000Y-7714000D01*
X8090000Y-7669000D01*
X8045000Y-7714000D01*
X8090000Y-7759000D01*
X8090000Y-8013000D02*
X8135000Y-7968000D01*
X8090000Y-7923000D01*
X8045000Y-7968000D01*
X8090000Y-8013000D01*
X8090000Y-8267000D02*
X8135000Y-8222000D01*
X8090000Y-8177000D01*
X8045000Y-8222000D01*
X8090000Y-8267000D01*
X8090000Y-8521000D02*
X8135000Y-8476000D01*
X8090000Y-8431000D01*
X8045000Y-8476000D01*
X8090000Y-8521000D01*
X8090000Y-8775000D02*
X8135000Y-8730000D01*
X8090000Y-8685000D01*
X8045000Y-8730000D01*
X8090000Y-8775000D01*
X8090000Y-9029000D02*
X8135000Y-8984000D01*
X8090000Y-8939000D01*
X8045000Y-8984000D01*
X8090000Y-9029000D01*
X8090000Y-9283000D02*
X8135000Y-9238000D01*
X8090000Y-9193000D01*
X8045000Y-9238000D01*
X8090000Y-9283000D01*
X8090000Y-9537000D02*
X8135000Y-9492000D01*
X8090000Y-9447000D01*
X8045000Y-9492000D01*
X8090000Y-9537000D01*
X8090000Y-9791000D02*
X8135000Y-9746000D01*
X8090000Y-9701000D01*
X8045000Y-9746000D01*
X8090000Y-9791000D01*
X8090000Y-10045000D02*
X8135000Y-10000000D01*
X8090000Y-9955000D01*
X8045000Y-10000000D01*
X8090000Y-10045000D01*
X10390000Y-5473000D02*
X10435000Y-5428000D01*
X10390000Y-5383000D01*
X10345000Y-5428000D01*
X10390000Y-5473000D01*
X10390000Y-5727000D02*
X10435000Y-5682000D01*
X10390000Y-5637000D01*
X10345000Y-5682000D01*
X10390000Y-5727000D01*
X10390000Y-5981000D02*
X10435000Y-5936000D01*
X10390000Y-5891000D01*
X10345000Y-5936000D01*
X10390000Y-5981000D01*
X10390000Y-6235000D02*
X10435000Y-6190000D01*
X10390000Y-6145000D01*
X10345000Y-6190000D01*
X10390000Y-6235000D01*
X10390000Y-6489000D02*
X10435000Y-6444000D01*
X10390000Y-6399000D01*
X10345000Y-6444000D01*
X10390000Y-6489000D01*
X10390000Y-6743000D02*
X10435000Y-6698000D01*
X10390000Y-6653000D01*
X10345000Y-6698000D01*
X10390000Y-6743000D01*
X10390000Y-6997000D02*
X10435000Y-6952000D01*
X10390000Y-6907000D01*
X10345000Y-6952000D01*
X10390000Y-6997000D01*
X10390000Y-7251000D02*
X10435000Y-7206000D01*
X10390000Y-7161000D01*
X10345000Y-7206000D01*
X10390000Y-7251000D01*
X10390000Y-7505000D02*
X10435000Y-7460000D01*
X10390000Y-7415000D01*
X10345000Y-7460000D01*
X10390000Y-7505000D01*
X10390000Y-7759000D02*
X10435000Y-7714000D01*
X10390000Y-7669000D01*
X10345000Y-7714000D01*
X10390000Y-7759000D01*
X10390000Y-8013000D02*
X10435000Y-7968000D01*
X10390000Y-7923000D01*
X10345000Y-7968000D01*
X10390000Y-8013000D01*
X10390000Y-8267000D02*
X10435000Y-8222000D01*
X10390000Y-8177000D01*
X10345000Y-8222000D01*
X10390000Y-8267000D01*
X10390000Y-8521000D02*
X10435000Y-8476000D01*
X10390000Y-8431000D01*
X10345000Y-8476000D01*
X10390000Y-8521000D01*
X10390000Y-8775000D02*
X10435000Y-8730000D01*
X10390000Y-8685000D01*
X10345000Y-8730000D01*
X10390000Y-8775000D01*
X10390000Y-9029000D02*
X10435000Y-8984000D01*
X10390000Y-8939000D01*
X10345000Y-8984000D01*
X10390000Y-9029000D01*
X10390000Y-9283000D02*
X10435000Y-9238000D01*
X10390000Y-9193000D01*
X10345000Y-9238000D01*
X10390000Y-9283000D01*
X10390000Y-9537000D02*
X10435000Y-9492000D01*
X10390000Y-9447000D01*
X10345000Y-9492000D01*
X10390000Y-9537000D01*
X10390000Y-9791000D02*
X10435000Y-9746000D01*
X10390000Y-9701000D01*
X10345000Y-9746000D01*
X10390000Y-9791000D01*
X10390000Y-10045000D02*
X10435000Y-10000000D01*
X10390000Y-9955000D01*
X10345000Y-10000000D01*
X10390000Y-10045000D01*
D16*
X5627000Y-5540000D02*
X5747000Y-5660000D01*
X5747000Y-5540000D02*
X5627000Y-5660000D01*
X5747000Y-5600000D02*
G75*
G03*
X5747000Y-5600000I-60000J0D01*
G01*
X5881000Y-5540000D02*
X6001000Y-5660000D01*
X6001000Y-5540000D02*
X5881000Y-5660000D01*
X6001000Y-5600000D02*
G75*
G03*
X6001000Y-5600000I-60000J0D01*
G01*
X6542000Y-5540000D02*
X6662000Y-5660000D01*
X6662000Y-5540000D02*
X6542000Y-5660000D01*
X6662000Y-5600000D02*
G75*
G03*
X6662000Y-5600000I-60000J0D01*
G01*
X6796000Y-5540000D02*
X6916000Y-5660000D01*
X6916000Y-5540000D02*
X6796000Y-5660000D01*
X6916000Y-5600000D02*
G75*
G03*
X6916000Y-5600000I-60000J0D01*
G01*
X7050000Y-5540000D02*
X7170000Y-5660000D01*
X7170000Y-5540000D02*
X7050000Y-5660000D01*
X7170000Y-5600000D02*
G75*
G03*
X7170000Y-5600000I-60000J0D01*
G01*
X7304000Y-5540000D02*
X7424000Y-5660000D01*
X7424000Y-5540000D02*
X7304000Y-5660000D01*
X7424000Y-5600000D02*
G75*
G03*
X7424000Y-5600000I-60000J0D01*
G01*
X10986000Y-5540000D02*
X11106000Y-5660000D01*
X11106000Y-5540000D02*
X10986000Y-5660000D01*
X11106000Y-5600000D02*
G75*
G03*
X11106000Y-5600000I-60000J0D01*
G01*
X11240000Y-5540000D02*
X11360000Y-5660000D01*
X11360000Y-5540000D02*
X11240000Y-5660000D01*
X11360000Y-5600000D02*
G75*
G03*
X11360000Y-5600000I-60000J0D01*
G01*
X12086000Y-5540000D02*
X12206000Y-5660000D01*
X12206000Y-5540000D02*
X12086000Y-5660000D01*
X12206000Y-5600000D02*
G75*
G03*
X12206000Y-5600000I-60000J0D01*
G01*
X12340000Y-5540000D02*
X12460000Y-5660000D01*
X12460000Y-5540000D02*
X12340000Y-5660000D01*
X12460000Y-5600000D02*
G75*
G03*
X12460000Y-5600000I-60000J0D01*
G01*
X13186000Y-5540000D02*
X13306000Y-5660000D01*
X13306000Y-5540000D02*
X13186000Y-5660000D01*
X13306000Y-5600000D02*
G75*
G03*
X13306000Y-5600000I-60000J0D01*
G01*
X13440000Y-5540000D02*
X13560000Y-5660000D01*
X13560000Y-5540000D02*
X13440000Y-5660000D01*
X13560000Y-5600000D02*
G75*
G03*
X13560000Y-5600000I-60000J0D01*
G01*
D17*
X5325000Y-7575000D02*
X5675000Y-7925000D01*
X5675000Y-7575000D02*
X5325000Y-7925000D01*
X5500000Y-7575000D02*
X5500000Y-7925000D01*
X5325000Y-7750000D02*
X5675000Y-7750000D01*
X13325000Y-7575000D02*
X13675000Y-7925000D01*
X13675000Y-7575000D02*
X13325000Y-7925000D01*
X13500000Y-7575000D02*
X13500000Y-7925000D01*
X13325000Y-7750000D02*
X13675000Y-7750000D01*
D11*
X5245119Y-10815024D02*
X5245119Y-10615024D01*
X5245119Y-10615024D02*
X5292738Y-10615024D01*
X5292738Y-10615024D02*
X5321310Y-10624548D01*
X5321310Y-10624548D02*
X5340357Y-10643595D01*
X5340357Y-10643595D02*
X5349881Y-10662643D01*
X5349881Y-10662643D02*
X5359405Y-10700738D01*
X5359405Y-10700738D02*
X5359405Y-10729310D01*
X5359405Y-10729310D02*
X5349881Y-10767405D01*
X5349881Y-10767405D02*
X5340357Y-10786452D01*
X5340357Y-10786452D02*
X5321310Y-10805500D01*
X5321310Y-10805500D02*
X5292738Y-10815024D01*
X5292738Y-10815024D02*
X5245119Y-10815024D01*
X5445119Y-10815024D02*
X5445119Y-10681690D01*
X5445119Y-10719786D02*
X5454643Y-10700738D01*
X5454643Y-10700738D02*
X5464167Y-10691214D01*
X5464167Y-10691214D02*
X5483214Y-10681690D01*
X5483214Y-10681690D02*
X5502262Y-10681690D01*
X5568929Y-10815024D02*
X5568929Y-10681690D01*
X5568929Y-10615024D02*
X5559405Y-10624548D01*
X5559405Y-10624548D02*
X5568929Y-10634071D01*
X5568929Y-10634071D02*
X5578452Y-10624548D01*
X5578452Y-10624548D02*
X5568929Y-10615024D01*
X5568929Y-10615024D02*
X5568929Y-10634071D01*
X5692738Y-10815024D02*
X5673690Y-10805500D01*
X5673690Y-10805500D02*
X5664167Y-10786452D01*
X5664167Y-10786452D02*
X5664167Y-10615024D01*
X5797500Y-10815024D02*
X5778452Y-10805500D01*
X5778452Y-10805500D02*
X5768928Y-10786452D01*
X5768928Y-10786452D02*
X5768928Y-10615024D01*
X6026071Y-10815024D02*
X6026071Y-10615024D01*
X6026071Y-10615024D02*
X6092738Y-10757881D01*
X6092738Y-10757881D02*
X6159405Y-10615024D01*
X6159405Y-10615024D02*
X6159405Y-10815024D01*
X6340357Y-10815024D02*
X6340357Y-10710262D01*
X6340357Y-10710262D02*
X6330833Y-10691214D01*
X6330833Y-10691214D02*
X6311786Y-10681690D01*
X6311786Y-10681690D02*
X6273690Y-10681690D01*
X6273690Y-10681690D02*
X6254643Y-10691214D01*
X6340357Y-10805500D02*
X6321309Y-10815024D01*
X6321309Y-10815024D02*
X6273690Y-10815024D01*
X6273690Y-10815024D02*
X6254643Y-10805500D01*
X6254643Y-10805500D02*
X6245119Y-10786452D01*
X6245119Y-10786452D02*
X6245119Y-10767405D01*
X6245119Y-10767405D02*
X6254643Y-10748357D01*
X6254643Y-10748357D02*
X6273690Y-10738833D01*
X6273690Y-10738833D02*
X6321309Y-10738833D01*
X6321309Y-10738833D02*
X6340357Y-10729310D01*
X6435595Y-10681690D02*
X6435595Y-10881690D01*
X6435595Y-10691214D02*
X6454643Y-10681690D01*
X6454643Y-10681690D02*
X6492738Y-10681690D01*
X6492738Y-10681690D02*
X6511786Y-10691214D01*
X6511786Y-10691214D02*
X6521309Y-10700738D01*
X6521309Y-10700738D02*
X6530833Y-10719786D01*
X6530833Y-10719786D02*
X6530833Y-10776929D01*
X6530833Y-10776929D02*
X6521309Y-10795976D01*
X6521309Y-10795976D02*
X6511786Y-10805500D01*
X6511786Y-10805500D02*
X6492738Y-10815024D01*
X6492738Y-10815024D02*
X6454643Y-10815024D01*
X6454643Y-10815024D02*
X6435595Y-10805500D01*
X6616548Y-10795976D02*
X6626071Y-10805500D01*
X6626071Y-10805500D02*
X6616548Y-10815024D01*
X6616548Y-10815024D02*
X6607024Y-10805500D01*
X6607024Y-10805500D02*
X6616548Y-10795976D01*
X6616548Y-10795976D02*
X6616548Y-10815024D01*
X6616548Y-10691214D02*
X6626071Y-10700738D01*
X6626071Y-10700738D02*
X6616548Y-10710262D01*
X6616548Y-10710262D02*
X6607024Y-10700738D01*
X6607024Y-10700738D02*
X6616548Y-10691214D01*
X6616548Y-10691214D02*
X6616548Y-10710262D01*
D12*
X4967500Y-11127500D02*
X4997500Y-11157500D01*
X4997500Y-11127500D02*
X4967500Y-11157500D01*
D11*
X5283214Y-11035024D02*
X5302262Y-11035024D01*
X5302262Y-11035024D02*
X5321310Y-11044548D01*
X5321310Y-11044548D02*
X5330833Y-11054071D01*
X5330833Y-11054071D02*
X5340357Y-11073119D01*
X5340357Y-11073119D02*
X5349881Y-11111214D01*
X5349881Y-11111214D02*
X5349881Y-11158833D01*
X5349881Y-11158833D02*
X5340357Y-11196928D01*
X5340357Y-11196928D02*
X5330833Y-11215976D01*
X5330833Y-11215976D02*
X5321310Y-11225500D01*
X5321310Y-11225500D02*
X5302262Y-11235024D01*
X5302262Y-11235024D02*
X5283214Y-11235024D01*
X5283214Y-11235024D02*
X5264167Y-11225500D01*
X5264167Y-11225500D02*
X5254643Y-11215976D01*
X5254643Y-11215976D02*
X5245119Y-11196928D01*
X5245119Y-11196928D02*
X5235595Y-11158833D01*
X5235595Y-11158833D02*
X5235595Y-11111214D01*
X5235595Y-11111214D02*
X5245119Y-11073119D01*
X5245119Y-11073119D02*
X5254643Y-11054071D01*
X5254643Y-11054071D02*
X5264167Y-11044548D01*
X5264167Y-11044548D02*
X5283214Y-11035024D01*
X5435595Y-11215976D02*
X5445119Y-11225500D01*
X5445119Y-11225500D02*
X5435595Y-11235024D01*
X5435595Y-11235024D02*
X5426071Y-11225500D01*
X5426071Y-11225500D02*
X5435595Y-11215976D01*
X5435595Y-11215976D02*
X5435595Y-11235024D01*
X5511786Y-11035024D02*
X5635595Y-11035024D01*
X5635595Y-11035024D02*
X5568929Y-11111214D01*
X5568929Y-11111214D02*
X5597500Y-11111214D01*
X5597500Y-11111214D02*
X5616548Y-11120738D01*
X5616548Y-11120738D02*
X5626071Y-11130262D01*
X5626071Y-11130262D02*
X5635595Y-11149310D01*
X5635595Y-11149310D02*
X5635595Y-11196928D01*
X5635595Y-11196928D02*
X5626071Y-11215976D01*
X5626071Y-11215976D02*
X5616548Y-11225500D01*
X5616548Y-11225500D02*
X5597500Y-11235024D01*
X5597500Y-11235024D02*
X5540357Y-11235024D01*
X5540357Y-11235024D02*
X5521310Y-11225500D01*
X5521310Y-11225500D02*
X5511786Y-11215976D01*
X5759405Y-11035024D02*
X5778452Y-11035024D01*
X5778452Y-11035024D02*
X5797500Y-11044548D01*
X5797500Y-11044548D02*
X5807024Y-11054071D01*
X5807024Y-11054071D02*
X5816548Y-11073119D01*
X5816548Y-11073119D02*
X5826071Y-11111214D01*
X5826071Y-11111214D02*
X5826071Y-11158833D01*
X5826071Y-11158833D02*
X5816548Y-11196928D01*
X5816548Y-11196928D02*
X5807024Y-11215976D01*
X5807024Y-11215976D02*
X5797500Y-11225500D01*
X5797500Y-11225500D02*
X5778452Y-11235024D01*
X5778452Y-11235024D02*
X5759405Y-11235024D01*
X5759405Y-11235024D02*
X5740357Y-11225500D01*
X5740357Y-11225500D02*
X5730833Y-11215976D01*
X5730833Y-11215976D02*
X5721309Y-11196928D01*
X5721309Y-11196928D02*
X5711786Y-11158833D01*
X5711786Y-11158833D02*
X5711786Y-11111214D01*
X5711786Y-11111214D02*
X5721309Y-11073119D01*
X5721309Y-11073119D02*
X5730833Y-11054071D01*
X5730833Y-11054071D02*
X5740357Y-11044548D01*
X5740357Y-11044548D02*
X5759405Y-11035024D01*
X5949881Y-11035024D02*
X5968929Y-11035024D01*
X5968929Y-11035024D02*
X5987976Y-11044548D01*
X5987976Y-11044548D02*
X5997500Y-11054071D01*
X5997500Y-11054071D02*
X6007024Y-11073119D01*
X6007024Y-11073119D02*
X6016548Y-11111214D01*
X6016548Y-11111214D02*
X6016548Y-11158833D01*
X6016548Y-11158833D02*
X6007024Y-11196928D01*
X6007024Y-11196928D02*
X5997500Y-11215976D01*
X5997500Y-11215976D02*
X5987976Y-11225500D01*
X5987976Y-11225500D02*
X5968929Y-11235024D01*
X5968929Y-11235024D02*
X5949881Y-11235024D01*
X5949881Y-11235024D02*
X5930833Y-11225500D01*
X5930833Y-11225500D02*
X5921309Y-11215976D01*
X5921309Y-11215976D02*
X5911786Y-11196928D01*
X5911786Y-11196928D02*
X5902262Y-11158833D01*
X5902262Y-11158833D02*
X5902262Y-11111214D01*
X5902262Y-11111214D02*
X5911786Y-11073119D01*
X5911786Y-11073119D02*
X5921309Y-11054071D01*
X5921309Y-11054071D02*
X5930833Y-11044548D01*
X5930833Y-11044548D02*
X5949881Y-11035024D01*
X6102262Y-11235024D02*
X6102262Y-11101690D01*
X6102262Y-11120738D02*
X6111786Y-11111214D01*
X6111786Y-11111214D02*
X6130833Y-11101690D01*
X6130833Y-11101690D02*
X6159405Y-11101690D01*
X6159405Y-11101690D02*
X6178452Y-11111214D01*
X6178452Y-11111214D02*
X6187976Y-11130262D01*
X6187976Y-11130262D02*
X6187976Y-11235024D01*
X6187976Y-11130262D02*
X6197500Y-11111214D01*
X6197500Y-11111214D02*
X6216548Y-11101690D01*
X6216548Y-11101690D02*
X6245119Y-11101690D01*
X6245119Y-11101690D02*
X6264167Y-11111214D01*
X6264167Y-11111214D02*
X6273690Y-11130262D01*
X6273690Y-11130262D02*
X6273690Y-11235024D01*
X6368929Y-11235024D02*
X6368929Y-11101690D01*
X6368929Y-11120738D02*
X6378452Y-11111214D01*
X6378452Y-11111214D02*
X6397500Y-11101690D01*
X6397500Y-11101690D02*
X6426071Y-11101690D01*
X6426071Y-11101690D02*
X6445119Y-11111214D01*
X6445119Y-11111214D02*
X6454643Y-11130262D01*
X6454643Y-11130262D02*
X6454643Y-11235024D01*
X6454643Y-11130262D02*
X6464167Y-11111214D01*
X6464167Y-11111214D02*
X6483214Y-11101690D01*
X6483214Y-11101690D02*
X6511786Y-11101690D01*
X6511786Y-11101690D02*
X6530833Y-11111214D01*
X6530833Y-11111214D02*
X6540357Y-11130262D01*
X6540357Y-11130262D02*
X6540357Y-11235024D01*
X6930833Y-11025500D02*
X6759405Y-11282643D01*
X7187976Y-11035024D02*
X7207024Y-11035024D01*
X7207024Y-11035024D02*
X7226072Y-11044548D01*
X7226072Y-11044548D02*
X7235595Y-11054071D01*
X7235595Y-11054071D02*
X7245119Y-11073119D01*
X7245119Y-11073119D02*
X7254643Y-11111214D01*
X7254643Y-11111214D02*
X7254643Y-11158833D01*
X7254643Y-11158833D02*
X7245119Y-11196928D01*
X7245119Y-11196928D02*
X7235595Y-11215976D01*
X7235595Y-11215976D02*
X7226072Y-11225500D01*
X7226072Y-11225500D02*
X7207024Y-11235024D01*
X7207024Y-11235024D02*
X7187976Y-11235024D01*
X7187976Y-11235024D02*
X7168929Y-11225500D01*
X7168929Y-11225500D02*
X7159405Y-11215976D01*
X7159405Y-11215976D02*
X7149881Y-11196928D01*
X7149881Y-11196928D02*
X7140357Y-11158833D01*
X7140357Y-11158833D02*
X7140357Y-11111214D01*
X7140357Y-11111214D02*
X7149881Y-11073119D01*
X7149881Y-11073119D02*
X7159405Y-11054071D01*
X7159405Y-11054071D02*
X7168929Y-11044548D01*
X7168929Y-11044548D02*
X7187976Y-11035024D01*
X7340357Y-11215976D02*
X7349881Y-11225500D01*
X7349881Y-11225500D02*
X7340357Y-11235024D01*
X7340357Y-11235024D02*
X7330833Y-11225500D01*
X7330833Y-11225500D02*
X7340357Y-11215976D01*
X7340357Y-11215976D02*
X7340357Y-11235024D01*
X7473691Y-11035024D02*
X7492738Y-11035024D01*
X7492738Y-11035024D02*
X7511786Y-11044548D01*
X7511786Y-11044548D02*
X7521310Y-11054071D01*
X7521310Y-11054071D02*
X7530833Y-11073119D01*
X7530833Y-11073119D02*
X7540357Y-11111214D01*
X7540357Y-11111214D02*
X7540357Y-11158833D01*
X7540357Y-11158833D02*
X7530833Y-11196928D01*
X7530833Y-11196928D02*
X7521310Y-11215976D01*
X7521310Y-11215976D02*
X7511786Y-11225500D01*
X7511786Y-11225500D02*
X7492738Y-11235024D01*
X7492738Y-11235024D02*
X7473691Y-11235024D01*
X7473691Y-11235024D02*
X7454643Y-11225500D01*
X7454643Y-11225500D02*
X7445119Y-11215976D01*
X7445119Y-11215976D02*
X7435595Y-11196928D01*
X7435595Y-11196928D02*
X7426072Y-11158833D01*
X7426072Y-11158833D02*
X7426072Y-11111214D01*
X7426072Y-11111214D02*
X7435595Y-11073119D01*
X7435595Y-11073119D02*
X7445119Y-11054071D01*
X7445119Y-11054071D02*
X7454643Y-11044548D01*
X7454643Y-11044548D02*
X7473691Y-11035024D01*
X7730833Y-11235024D02*
X7616548Y-11235024D01*
X7673691Y-11235024D02*
X7673691Y-11035024D01*
X7673691Y-11035024D02*
X7654643Y-11063595D01*
X7654643Y-11063595D02*
X7635595Y-11082643D01*
X7635595Y-11082643D02*
X7616548Y-11092167D01*
X7921310Y-11235024D02*
X7807024Y-11235024D01*
X7864167Y-11235024D02*
X7864167Y-11035024D01*
X7864167Y-11035024D02*
X7845119Y-11063595D01*
X7845119Y-11063595D02*
X7826072Y-11082643D01*
X7826072Y-11082643D02*
X7807024Y-11092167D01*
X8035595Y-11120738D02*
X8016548Y-11111214D01*
X8016548Y-11111214D02*
X8007024Y-11101690D01*
X8007024Y-11101690D02*
X7997500Y-11082643D01*
X7997500Y-11082643D02*
X7997500Y-11073119D01*
X7997500Y-11073119D02*
X8007024Y-11054071D01*
X8007024Y-11054071D02*
X8016548Y-11044548D01*
X8016548Y-11044548D02*
X8035595Y-11035024D01*
X8035595Y-11035024D02*
X8073691Y-11035024D01*
X8073691Y-11035024D02*
X8092738Y-11044548D01*
X8092738Y-11044548D02*
X8102262Y-11054071D01*
X8102262Y-11054071D02*
X8111786Y-11073119D01*
X8111786Y-11073119D02*
X8111786Y-11082643D01*
X8111786Y-11082643D02*
X8102262Y-11101690D01*
X8102262Y-11101690D02*
X8092738Y-11111214D01*
X8092738Y-11111214D02*
X8073691Y-11120738D01*
X8073691Y-11120738D02*
X8035595Y-11120738D01*
X8035595Y-11120738D02*
X8016548Y-11130262D01*
X8016548Y-11130262D02*
X8007024Y-11139786D01*
X8007024Y-11139786D02*
X7997500Y-11158833D01*
X7997500Y-11158833D02*
X7997500Y-11196928D01*
X7997500Y-11196928D02*
X8007024Y-11215976D01*
X8007024Y-11215976D02*
X8016548Y-11225500D01*
X8016548Y-11225500D02*
X8035595Y-11235024D01*
X8035595Y-11235024D02*
X8073691Y-11235024D01*
X8073691Y-11235024D02*
X8092738Y-11225500D01*
X8092738Y-11225500D02*
X8102262Y-11215976D01*
X8102262Y-11215976D02*
X8111786Y-11196928D01*
X8111786Y-11196928D02*
X8111786Y-11158833D01*
X8111786Y-11158833D02*
X8102262Y-11139786D01*
X8102262Y-11139786D02*
X8092738Y-11130262D01*
X8092738Y-11130262D02*
X8073691Y-11120738D01*
X8187976Y-11035024D02*
X8187976Y-11073119D01*
X8264167Y-11035024D02*
X8264167Y-11073119D01*
X8559405Y-11311214D02*
X8549881Y-11301690D01*
X8549881Y-11301690D02*
X8530834Y-11273119D01*
X8530834Y-11273119D02*
X8521310Y-11254071D01*
X8521310Y-11254071D02*
X8511786Y-11225500D01*
X8511786Y-11225500D02*
X8502262Y-11177881D01*
X8502262Y-11177881D02*
X8502262Y-11139786D01*
X8502262Y-11139786D02*
X8511786Y-11092167D01*
X8511786Y-11092167D02*
X8521310Y-11063595D01*
X8521310Y-11063595D02*
X8530834Y-11044548D01*
X8530834Y-11044548D02*
X8549881Y-11015976D01*
X8549881Y-11015976D02*
X8559405Y-11006452D01*
X8740357Y-11235024D02*
X8626072Y-11235024D01*
X8683215Y-11235024D02*
X8683215Y-11035024D01*
X8683215Y-11035024D02*
X8664167Y-11063595D01*
X8664167Y-11063595D02*
X8645119Y-11082643D01*
X8645119Y-11082643D02*
X8626072Y-11092167D01*
X8930834Y-11235024D02*
X8816548Y-11235024D01*
X8873691Y-11235024D02*
X8873691Y-11035024D01*
X8873691Y-11035024D02*
X8854643Y-11063595D01*
X8854643Y-11063595D02*
X8835596Y-11082643D01*
X8835596Y-11082643D02*
X8816548Y-11092167D01*
X9168929Y-11235024D02*
X9168929Y-11035024D01*
X9254643Y-11235024D02*
X9254643Y-11130262D01*
X9254643Y-11130262D02*
X9245119Y-11111214D01*
X9245119Y-11111214D02*
X9226072Y-11101690D01*
X9226072Y-11101690D02*
X9197500Y-11101690D01*
X9197500Y-11101690D02*
X9178453Y-11111214D01*
X9178453Y-11111214D02*
X9168929Y-11120738D01*
X9378453Y-11235024D02*
X9359405Y-11225500D01*
X9359405Y-11225500D02*
X9349881Y-11215976D01*
X9349881Y-11215976D02*
X9340358Y-11196928D01*
X9340358Y-11196928D02*
X9340358Y-11139786D01*
X9340358Y-11139786D02*
X9349881Y-11120738D01*
X9349881Y-11120738D02*
X9359405Y-11111214D01*
X9359405Y-11111214D02*
X9378453Y-11101690D01*
X9378453Y-11101690D02*
X9407024Y-11101690D01*
X9407024Y-11101690D02*
X9426072Y-11111214D01*
X9426072Y-11111214D02*
X9435596Y-11120738D01*
X9435596Y-11120738D02*
X9445119Y-11139786D01*
X9445119Y-11139786D02*
X9445119Y-11196928D01*
X9445119Y-11196928D02*
X9435596Y-11215976D01*
X9435596Y-11215976D02*
X9426072Y-11225500D01*
X9426072Y-11225500D02*
X9407024Y-11235024D01*
X9407024Y-11235024D02*
X9378453Y-11235024D01*
X9559405Y-11235024D02*
X9540358Y-11225500D01*
X9540358Y-11225500D02*
X9530834Y-11206452D01*
X9530834Y-11206452D02*
X9530834Y-11035024D01*
X9711786Y-11225500D02*
X9692739Y-11235024D01*
X9692739Y-11235024D02*
X9654643Y-11235024D01*
X9654643Y-11235024D02*
X9635596Y-11225500D01*
X9635596Y-11225500D02*
X9626072Y-11206452D01*
X9626072Y-11206452D02*
X9626072Y-11130262D01*
X9626072Y-11130262D02*
X9635596Y-11111214D01*
X9635596Y-11111214D02*
X9654643Y-11101690D01*
X9654643Y-11101690D02*
X9692739Y-11101690D01*
X9692739Y-11101690D02*
X9711786Y-11111214D01*
X9711786Y-11111214D02*
X9721310Y-11130262D01*
X9721310Y-11130262D02*
X9721310Y-11149310D01*
X9721310Y-11149310D02*
X9626072Y-11168357D01*
X9797500Y-11225500D02*
X9816548Y-11235024D01*
X9816548Y-11235024D02*
X9854643Y-11235024D01*
X9854643Y-11235024D02*
X9873691Y-11225500D01*
X9873691Y-11225500D02*
X9883215Y-11206452D01*
X9883215Y-11206452D02*
X9883215Y-11196928D01*
X9883215Y-11196928D02*
X9873691Y-11177881D01*
X9873691Y-11177881D02*
X9854643Y-11168357D01*
X9854643Y-11168357D02*
X9826072Y-11168357D01*
X9826072Y-11168357D02*
X9807024Y-11158833D01*
X9807024Y-11158833D02*
X9797500Y-11139786D01*
X9797500Y-11139786D02*
X9797500Y-11130262D01*
X9797500Y-11130262D02*
X9807024Y-11111214D01*
X9807024Y-11111214D02*
X9826072Y-11101690D01*
X9826072Y-11101690D02*
X9854643Y-11101690D01*
X9854643Y-11101690D02*
X9873691Y-11111214D01*
X9949881Y-11311214D02*
X9959405Y-11301690D01*
X9959405Y-11301690D02*
X9978453Y-11273119D01*
X9978453Y-11273119D02*
X9987977Y-11254071D01*
X9987977Y-11254071D02*
X9997500Y-11225500D01*
X9997500Y-11225500D02*
X10007024Y-11177881D01*
X10007024Y-11177881D02*
X10007024Y-11139786D01*
X10007024Y-11139786D02*
X9997500Y-11092167D01*
X9997500Y-11092167D02*
X9987977Y-11063595D01*
X9987977Y-11063595D02*
X9978453Y-11044548D01*
X9978453Y-11044548D02*
X9959405Y-11015976D01*
X9959405Y-11015976D02*
X9949881Y-11006452D01*
D10*
X4997500Y-11406500D02*
G75*
G03*
X4997500Y-11406500I-25000J0D01*
G01*
D11*
X5283214Y-11299024D02*
X5302262Y-11299024D01*
X5302262Y-11299024D02*
X5321310Y-11308548D01*
X5321310Y-11308548D02*
X5330833Y-11318071D01*
X5330833Y-11318071D02*
X5340357Y-11337119D01*
X5340357Y-11337119D02*
X5349881Y-11375214D01*
X5349881Y-11375214D02*
X5349881Y-11422833D01*
X5349881Y-11422833D02*
X5340357Y-11460928D01*
X5340357Y-11460928D02*
X5330833Y-11479976D01*
X5330833Y-11479976D02*
X5321310Y-11489500D01*
X5321310Y-11489500D02*
X5302262Y-11499024D01*
X5302262Y-11499024D02*
X5283214Y-11499024D01*
X5283214Y-11499024D02*
X5264167Y-11489500D01*
X5264167Y-11489500D02*
X5254643Y-11479976D01*
X5254643Y-11479976D02*
X5245119Y-11460928D01*
X5245119Y-11460928D02*
X5235595Y-11422833D01*
X5235595Y-11422833D02*
X5235595Y-11375214D01*
X5235595Y-11375214D02*
X5245119Y-11337119D01*
X5245119Y-11337119D02*
X5254643Y-11318071D01*
X5254643Y-11318071D02*
X5264167Y-11308548D01*
X5264167Y-11308548D02*
X5283214Y-11299024D01*
X5435595Y-11479976D02*
X5445119Y-11489500D01*
X5445119Y-11489500D02*
X5435595Y-11499024D01*
X5435595Y-11499024D02*
X5426071Y-11489500D01*
X5426071Y-11489500D02*
X5435595Y-11479976D01*
X5435595Y-11479976D02*
X5435595Y-11499024D01*
X5626071Y-11299024D02*
X5530833Y-11299024D01*
X5530833Y-11299024D02*
X5521310Y-11394262D01*
X5521310Y-11394262D02*
X5530833Y-11384738D01*
X5530833Y-11384738D02*
X5549881Y-11375214D01*
X5549881Y-11375214D02*
X5597500Y-11375214D01*
X5597500Y-11375214D02*
X5616548Y-11384738D01*
X5616548Y-11384738D02*
X5626071Y-11394262D01*
X5626071Y-11394262D02*
X5635595Y-11413309D01*
X5635595Y-11413309D02*
X5635595Y-11460928D01*
X5635595Y-11460928D02*
X5626071Y-11479976D01*
X5626071Y-11479976D02*
X5616548Y-11489500D01*
X5616548Y-11489500D02*
X5597500Y-11499024D01*
X5597500Y-11499024D02*
X5549881Y-11499024D01*
X5549881Y-11499024D02*
X5530833Y-11489500D01*
X5530833Y-11489500D02*
X5521310Y-11479976D01*
X5759405Y-11299024D02*
X5778452Y-11299024D01*
X5778452Y-11299024D02*
X5797500Y-11308548D01*
X5797500Y-11308548D02*
X5807024Y-11318071D01*
X5807024Y-11318071D02*
X5816548Y-11337119D01*
X5816548Y-11337119D02*
X5826071Y-11375214D01*
X5826071Y-11375214D02*
X5826071Y-11422833D01*
X5826071Y-11422833D02*
X5816548Y-11460928D01*
X5816548Y-11460928D02*
X5807024Y-11479976D01*
X5807024Y-11479976D02*
X5797500Y-11489500D01*
X5797500Y-11489500D02*
X5778452Y-11499024D01*
X5778452Y-11499024D02*
X5759405Y-11499024D01*
X5759405Y-11499024D02*
X5740357Y-11489500D01*
X5740357Y-11489500D02*
X5730833Y-11479976D01*
X5730833Y-11479976D02*
X5721309Y-11460928D01*
X5721309Y-11460928D02*
X5711786Y-11422833D01*
X5711786Y-11422833D02*
X5711786Y-11375214D01*
X5711786Y-11375214D02*
X5721309Y-11337119D01*
X5721309Y-11337119D02*
X5730833Y-11318071D01*
X5730833Y-11318071D02*
X5740357Y-11308548D01*
X5740357Y-11308548D02*
X5759405Y-11299024D01*
X5949881Y-11299024D02*
X5968929Y-11299024D01*
X5968929Y-11299024D02*
X5987976Y-11308548D01*
X5987976Y-11308548D02*
X5997500Y-11318071D01*
X5997500Y-11318071D02*
X6007024Y-11337119D01*
X6007024Y-11337119D02*
X6016548Y-11375214D01*
X6016548Y-11375214D02*
X6016548Y-11422833D01*
X6016548Y-11422833D02*
X6007024Y-11460928D01*
X6007024Y-11460928D02*
X5997500Y-11479976D01*
X5997500Y-11479976D02*
X5987976Y-11489500D01*
X5987976Y-11489500D02*
X5968929Y-11499024D01*
X5968929Y-11499024D02*
X5949881Y-11499024D01*
X5949881Y-11499024D02*
X5930833Y-11489500D01*
X5930833Y-11489500D02*
X5921309Y-11479976D01*
X5921309Y-11479976D02*
X5911786Y-11460928D01*
X5911786Y-11460928D02*
X5902262Y-11422833D01*
X5902262Y-11422833D02*
X5902262Y-11375214D01*
X5902262Y-11375214D02*
X5911786Y-11337119D01*
X5911786Y-11337119D02*
X5921309Y-11318071D01*
X5921309Y-11318071D02*
X5930833Y-11308548D01*
X5930833Y-11308548D02*
X5949881Y-11299024D01*
X6102262Y-11499024D02*
X6102262Y-11365690D01*
X6102262Y-11384738D02*
X6111786Y-11375214D01*
X6111786Y-11375214D02*
X6130833Y-11365690D01*
X6130833Y-11365690D02*
X6159405Y-11365690D01*
X6159405Y-11365690D02*
X6178452Y-11375214D01*
X6178452Y-11375214D02*
X6187976Y-11394262D01*
X6187976Y-11394262D02*
X6187976Y-11499024D01*
X6187976Y-11394262D02*
X6197500Y-11375214D01*
X6197500Y-11375214D02*
X6216548Y-11365690D01*
X6216548Y-11365690D02*
X6245119Y-11365690D01*
X6245119Y-11365690D02*
X6264167Y-11375214D01*
X6264167Y-11375214D02*
X6273690Y-11394262D01*
X6273690Y-11394262D02*
X6273690Y-11499024D01*
X6368929Y-11499024D02*
X6368929Y-11365690D01*
X6368929Y-11384738D02*
X6378452Y-11375214D01*
X6378452Y-11375214D02*
X6397500Y-11365690D01*
X6397500Y-11365690D02*
X6426071Y-11365690D01*
X6426071Y-11365690D02*
X6445119Y-11375214D01*
X6445119Y-11375214D02*
X6454643Y-11394262D01*
X6454643Y-11394262D02*
X6454643Y-11499024D01*
X6454643Y-11394262D02*
X6464167Y-11375214D01*
X6464167Y-11375214D02*
X6483214Y-11365690D01*
X6483214Y-11365690D02*
X6511786Y-11365690D01*
X6511786Y-11365690D02*
X6530833Y-11375214D01*
X6530833Y-11375214D02*
X6540357Y-11394262D01*
X6540357Y-11394262D02*
X6540357Y-11499024D01*
X6930833Y-11289500D02*
X6759405Y-11546643D01*
X7187976Y-11299024D02*
X7207024Y-11299024D01*
X7207024Y-11299024D02*
X7226072Y-11308548D01*
X7226072Y-11308548D02*
X7235595Y-11318071D01*
X7235595Y-11318071D02*
X7245119Y-11337119D01*
X7245119Y-11337119D02*
X7254643Y-11375214D01*
X7254643Y-11375214D02*
X7254643Y-11422833D01*
X7254643Y-11422833D02*
X7245119Y-11460928D01*
X7245119Y-11460928D02*
X7235595Y-11479976D01*
X7235595Y-11479976D02*
X7226072Y-11489500D01*
X7226072Y-11489500D02*
X7207024Y-11499024D01*
X7207024Y-11499024D02*
X7187976Y-11499024D01*
X7187976Y-11499024D02*
X7168929Y-11489500D01*
X7168929Y-11489500D02*
X7159405Y-11479976D01*
X7159405Y-11479976D02*
X7149881Y-11460928D01*
X7149881Y-11460928D02*
X7140357Y-11422833D01*
X7140357Y-11422833D02*
X7140357Y-11375214D01*
X7140357Y-11375214D02*
X7149881Y-11337119D01*
X7149881Y-11337119D02*
X7159405Y-11318071D01*
X7159405Y-11318071D02*
X7168929Y-11308548D01*
X7168929Y-11308548D02*
X7187976Y-11299024D01*
X7340357Y-11479976D02*
X7349881Y-11489500D01*
X7349881Y-11489500D02*
X7340357Y-11499024D01*
X7340357Y-11499024D02*
X7330833Y-11489500D01*
X7330833Y-11489500D02*
X7340357Y-11479976D01*
X7340357Y-11479976D02*
X7340357Y-11499024D01*
X7473691Y-11299024D02*
X7492738Y-11299024D01*
X7492738Y-11299024D02*
X7511786Y-11308548D01*
X7511786Y-11308548D02*
X7521310Y-11318071D01*
X7521310Y-11318071D02*
X7530833Y-11337119D01*
X7530833Y-11337119D02*
X7540357Y-11375214D01*
X7540357Y-11375214D02*
X7540357Y-11422833D01*
X7540357Y-11422833D02*
X7530833Y-11460928D01*
X7530833Y-11460928D02*
X7521310Y-11479976D01*
X7521310Y-11479976D02*
X7511786Y-11489500D01*
X7511786Y-11489500D02*
X7492738Y-11499024D01*
X7492738Y-11499024D02*
X7473691Y-11499024D01*
X7473691Y-11499024D02*
X7454643Y-11489500D01*
X7454643Y-11489500D02*
X7445119Y-11479976D01*
X7445119Y-11479976D02*
X7435595Y-11460928D01*
X7435595Y-11460928D02*
X7426072Y-11422833D01*
X7426072Y-11422833D02*
X7426072Y-11375214D01*
X7426072Y-11375214D02*
X7435595Y-11337119D01*
X7435595Y-11337119D02*
X7445119Y-11318071D01*
X7445119Y-11318071D02*
X7454643Y-11308548D01*
X7454643Y-11308548D02*
X7473691Y-11299024D01*
X7730833Y-11499024D02*
X7616548Y-11499024D01*
X7673691Y-11499024D02*
X7673691Y-11299024D01*
X7673691Y-11299024D02*
X7654643Y-11327595D01*
X7654643Y-11327595D02*
X7635595Y-11346643D01*
X7635595Y-11346643D02*
X7616548Y-11356167D01*
X7826072Y-11499024D02*
X7864167Y-11499024D01*
X7864167Y-11499024D02*
X7883214Y-11489500D01*
X7883214Y-11489500D02*
X7892738Y-11479976D01*
X7892738Y-11479976D02*
X7911786Y-11451405D01*
X7911786Y-11451405D02*
X7921310Y-11413309D01*
X7921310Y-11413309D02*
X7921310Y-11337119D01*
X7921310Y-11337119D02*
X7911786Y-11318071D01*
X7911786Y-11318071D02*
X7902262Y-11308548D01*
X7902262Y-11308548D02*
X7883214Y-11299024D01*
X7883214Y-11299024D02*
X7845119Y-11299024D01*
X7845119Y-11299024D02*
X7826072Y-11308548D01*
X7826072Y-11308548D02*
X7816548Y-11318071D01*
X7816548Y-11318071D02*
X7807024Y-11337119D01*
X7807024Y-11337119D02*
X7807024Y-11384738D01*
X7807024Y-11384738D02*
X7816548Y-11403786D01*
X7816548Y-11403786D02*
X7826072Y-11413309D01*
X7826072Y-11413309D02*
X7845119Y-11422833D01*
X7845119Y-11422833D02*
X7883214Y-11422833D01*
X7883214Y-11422833D02*
X7902262Y-11413309D01*
X7902262Y-11413309D02*
X7911786Y-11403786D01*
X7911786Y-11403786D02*
X7921310Y-11384738D01*
X7987976Y-11299024D02*
X8121310Y-11299024D01*
X8121310Y-11299024D02*
X8035595Y-11499024D01*
X8187976Y-11299024D02*
X8187976Y-11337119D01*
X8264167Y-11299024D02*
X8264167Y-11337119D01*
X8559405Y-11575214D02*
X8549881Y-11565690D01*
X8549881Y-11565690D02*
X8530834Y-11537119D01*
X8530834Y-11537119D02*
X8521310Y-11518071D01*
X8521310Y-11518071D02*
X8511786Y-11489500D01*
X8511786Y-11489500D02*
X8502262Y-11441881D01*
X8502262Y-11441881D02*
X8502262Y-11403786D01*
X8502262Y-11403786D02*
X8511786Y-11356167D01*
X8511786Y-11356167D02*
X8521310Y-11327595D01*
X8521310Y-11327595D02*
X8530834Y-11308548D01*
X8530834Y-11308548D02*
X8549881Y-11279976D01*
X8549881Y-11279976D02*
X8559405Y-11270452D01*
X8740357Y-11499024D02*
X8626072Y-11499024D01*
X8683215Y-11499024D02*
X8683215Y-11299024D01*
X8683215Y-11299024D02*
X8664167Y-11327595D01*
X8664167Y-11327595D02*
X8645119Y-11346643D01*
X8645119Y-11346643D02*
X8626072Y-11356167D01*
X8911786Y-11299024D02*
X8873691Y-11299024D01*
X8873691Y-11299024D02*
X8854643Y-11308548D01*
X8854643Y-11308548D02*
X8845119Y-11318071D01*
X8845119Y-11318071D02*
X8826072Y-11346643D01*
X8826072Y-11346643D02*
X8816548Y-11384738D01*
X8816548Y-11384738D02*
X8816548Y-11460928D01*
X8816548Y-11460928D02*
X8826072Y-11479976D01*
X8826072Y-11479976D02*
X8835596Y-11489500D01*
X8835596Y-11489500D02*
X8854643Y-11499024D01*
X8854643Y-11499024D02*
X8892738Y-11499024D01*
X8892738Y-11499024D02*
X8911786Y-11489500D01*
X8911786Y-11489500D02*
X8921310Y-11479976D01*
X8921310Y-11479976D02*
X8930834Y-11460928D01*
X8930834Y-11460928D02*
X8930834Y-11413309D01*
X8930834Y-11413309D02*
X8921310Y-11394262D01*
X8921310Y-11394262D02*
X8911786Y-11384738D01*
X8911786Y-11384738D02*
X8892738Y-11375214D01*
X8892738Y-11375214D02*
X8854643Y-11375214D01*
X8854643Y-11375214D02*
X8835596Y-11384738D01*
X8835596Y-11384738D02*
X8826072Y-11394262D01*
X8826072Y-11394262D02*
X8816548Y-11413309D01*
X9168929Y-11499024D02*
X9168929Y-11299024D01*
X9254643Y-11499024D02*
X9254643Y-11394262D01*
X9254643Y-11394262D02*
X9245119Y-11375214D01*
X9245119Y-11375214D02*
X9226072Y-11365690D01*
X9226072Y-11365690D02*
X9197500Y-11365690D01*
X9197500Y-11365690D02*
X9178453Y-11375214D01*
X9178453Y-11375214D02*
X9168929Y-11384738D01*
X9378453Y-11499024D02*
X9359405Y-11489500D01*
X9359405Y-11489500D02*
X9349881Y-11479976D01*
X9349881Y-11479976D02*
X9340358Y-11460928D01*
X9340358Y-11460928D02*
X9340358Y-11403786D01*
X9340358Y-11403786D02*
X9349881Y-11384738D01*
X9349881Y-11384738D02*
X9359405Y-11375214D01*
X9359405Y-11375214D02*
X9378453Y-11365690D01*
X9378453Y-11365690D02*
X9407024Y-11365690D01*
X9407024Y-11365690D02*
X9426072Y-11375214D01*
X9426072Y-11375214D02*
X9435596Y-11384738D01*
X9435596Y-11384738D02*
X9445119Y-11403786D01*
X9445119Y-11403786D02*
X9445119Y-11460928D01*
X9445119Y-11460928D02*
X9435596Y-11479976D01*
X9435596Y-11479976D02*
X9426072Y-11489500D01*
X9426072Y-11489500D02*
X9407024Y-11499024D01*
X9407024Y-11499024D02*
X9378453Y-11499024D01*
X9559405Y-11499024D02*
X9540358Y-11489500D01*
X9540358Y-11489500D02*
X9530834Y-11470452D01*
X9530834Y-11470452D02*
X9530834Y-11299024D01*
X9711786Y-11489500D02*
X9692739Y-11499024D01*
X9692739Y-11499024D02*
X9654643Y-11499024D01*
X9654643Y-11499024D02*
X9635596Y-11489500D01*
X9635596Y-11489500D02*
X9626072Y-11470452D01*
X9626072Y-11470452D02*
X9626072Y-11394262D01*
X9626072Y-11394262D02*
X9635596Y-11375214D01*
X9635596Y-11375214D02*
X9654643Y-11365690D01*
X9654643Y-11365690D02*
X9692739Y-11365690D01*
X9692739Y-11365690D02*
X9711786Y-11375214D01*
X9711786Y-11375214D02*
X9721310Y-11394262D01*
X9721310Y-11394262D02*
X9721310Y-11413309D01*
X9721310Y-11413309D02*
X9626072Y-11432357D01*
X9797500Y-11489500D02*
X9816548Y-11499024D01*
X9816548Y-11499024D02*
X9854643Y-11499024D01*
X9854643Y-11499024D02*
X9873691Y-11489500D01*
X9873691Y-11489500D02*
X9883215Y-11470452D01*
X9883215Y-11470452D02*
X9883215Y-11460928D01*
X9883215Y-11460928D02*
X9873691Y-11441881D01*
X9873691Y-11441881D02*
X9854643Y-11432357D01*
X9854643Y-11432357D02*
X9826072Y-11432357D01*
X9826072Y-11432357D02*
X9807024Y-11422833D01*
X9807024Y-11422833D02*
X9797500Y-11403786D01*
X9797500Y-11403786D02*
X9797500Y-11394262D01*
X9797500Y-11394262D02*
X9807024Y-11375214D01*
X9807024Y-11375214D02*
X9826072Y-11365690D01*
X9826072Y-11365690D02*
X9854643Y-11365690D01*
X9854643Y-11365690D02*
X9873691Y-11375214D01*
X9949881Y-11575214D02*
X9959405Y-11565690D01*
X9959405Y-11565690D02*
X9978453Y-11537119D01*
X9978453Y-11537119D02*
X9987977Y-11518071D01*
X9987977Y-11518071D02*
X9997500Y-11489500D01*
X9997500Y-11489500D02*
X10007024Y-11441881D01*
X10007024Y-11441881D02*
X10007024Y-11403786D01*
X10007024Y-11403786D02*
X9997500Y-11356167D01*
X9997500Y-11356167D02*
X9987977Y-11327595D01*
X9987977Y-11327595D02*
X9978453Y-11308548D01*
X9978453Y-11308548D02*
X9959405Y-11279976D01*
X9959405Y-11279976D02*
X9949881Y-11270452D01*
D13*
X4959400Y-11632400D02*
X4959400Y-11708600D01*
X4921300Y-11670500D02*
X4997500Y-11670500D01*
D11*
X5283214Y-11563024D02*
X5302262Y-11563024D01*
X5302262Y-11563024D02*
X5321310Y-11572548D01*
X5321310Y-11572548D02*
X5330833Y-11582071D01*
X5330833Y-11582071D02*
X5340357Y-11601119D01*
X5340357Y-11601119D02*
X5349881Y-11639214D01*
X5349881Y-11639214D02*
X5349881Y-11686833D01*
X5349881Y-11686833D02*
X5340357Y-11724928D01*
X5340357Y-11724928D02*
X5330833Y-11743976D01*
X5330833Y-11743976D02*
X5321310Y-11753500D01*
X5321310Y-11753500D02*
X5302262Y-11763024D01*
X5302262Y-11763024D02*
X5283214Y-11763024D01*
X5283214Y-11763024D02*
X5264167Y-11753500D01*
X5264167Y-11753500D02*
X5254643Y-11743976D01*
X5254643Y-11743976D02*
X5245119Y-11724928D01*
X5245119Y-11724928D02*
X5235595Y-11686833D01*
X5235595Y-11686833D02*
X5235595Y-11639214D01*
X5235595Y-11639214D02*
X5245119Y-11601119D01*
X5245119Y-11601119D02*
X5254643Y-11582071D01*
X5254643Y-11582071D02*
X5264167Y-11572548D01*
X5264167Y-11572548D02*
X5283214Y-11563024D01*
X5435595Y-11743976D02*
X5445119Y-11753500D01*
X5445119Y-11753500D02*
X5435595Y-11763024D01*
X5435595Y-11763024D02*
X5426071Y-11753500D01*
X5426071Y-11753500D02*
X5435595Y-11743976D01*
X5435595Y-11743976D02*
X5435595Y-11763024D01*
X5511786Y-11563024D02*
X5645119Y-11563024D01*
X5645119Y-11563024D02*
X5559405Y-11763024D01*
X5807024Y-11563024D02*
X5768928Y-11563024D01*
X5768928Y-11563024D02*
X5749881Y-11572548D01*
X5749881Y-11572548D02*
X5740357Y-11582071D01*
X5740357Y-11582071D02*
X5721309Y-11610643D01*
X5721309Y-11610643D02*
X5711786Y-11648738D01*
X5711786Y-11648738D02*
X5711786Y-11724928D01*
X5711786Y-11724928D02*
X5721309Y-11743976D01*
X5721309Y-11743976D02*
X5730833Y-11753500D01*
X5730833Y-11753500D02*
X5749881Y-11763024D01*
X5749881Y-11763024D02*
X5787976Y-11763024D01*
X5787976Y-11763024D02*
X5807024Y-11753500D01*
X5807024Y-11753500D02*
X5816548Y-11743976D01*
X5816548Y-11743976D02*
X5826071Y-11724928D01*
X5826071Y-11724928D02*
X5826071Y-11677309D01*
X5826071Y-11677309D02*
X5816548Y-11658262D01*
X5816548Y-11658262D02*
X5807024Y-11648738D01*
X5807024Y-11648738D02*
X5787976Y-11639214D01*
X5787976Y-11639214D02*
X5749881Y-11639214D01*
X5749881Y-11639214D02*
X5730833Y-11648738D01*
X5730833Y-11648738D02*
X5721309Y-11658262D01*
X5721309Y-11658262D02*
X5711786Y-11677309D01*
X5902262Y-11582071D02*
X5911786Y-11572548D01*
X5911786Y-11572548D02*
X5930833Y-11563024D01*
X5930833Y-11563024D02*
X5978452Y-11563024D01*
X5978452Y-11563024D02*
X5997500Y-11572548D01*
X5997500Y-11572548D02*
X6007024Y-11582071D01*
X6007024Y-11582071D02*
X6016548Y-11601119D01*
X6016548Y-11601119D02*
X6016548Y-11620167D01*
X6016548Y-11620167D02*
X6007024Y-11648738D01*
X6007024Y-11648738D02*
X5892738Y-11763024D01*
X5892738Y-11763024D02*
X6016548Y-11763024D01*
X6102262Y-11763024D02*
X6102262Y-11629690D01*
X6102262Y-11648738D02*
X6111786Y-11639214D01*
X6111786Y-11639214D02*
X6130833Y-11629690D01*
X6130833Y-11629690D02*
X6159405Y-11629690D01*
X6159405Y-11629690D02*
X6178452Y-11639214D01*
X6178452Y-11639214D02*
X6187976Y-11658262D01*
X6187976Y-11658262D02*
X6187976Y-11763024D01*
X6187976Y-11658262D02*
X6197500Y-11639214D01*
X6197500Y-11639214D02*
X6216548Y-11629690D01*
X6216548Y-11629690D02*
X6245119Y-11629690D01*
X6245119Y-11629690D02*
X6264167Y-11639214D01*
X6264167Y-11639214D02*
X6273690Y-11658262D01*
X6273690Y-11658262D02*
X6273690Y-11763024D01*
X6368929Y-11763024D02*
X6368929Y-11629690D01*
X6368929Y-11648738D02*
X6378452Y-11639214D01*
X6378452Y-11639214D02*
X6397500Y-11629690D01*
X6397500Y-11629690D02*
X6426071Y-11629690D01*
X6426071Y-11629690D02*
X6445119Y-11639214D01*
X6445119Y-11639214D02*
X6454643Y-11658262D01*
X6454643Y-11658262D02*
X6454643Y-11763024D01*
X6454643Y-11658262D02*
X6464167Y-11639214D01*
X6464167Y-11639214D02*
X6483214Y-11629690D01*
X6483214Y-11629690D02*
X6511786Y-11629690D01*
X6511786Y-11629690D02*
X6530833Y-11639214D01*
X6530833Y-11639214D02*
X6540357Y-11658262D01*
X6540357Y-11658262D02*
X6540357Y-11763024D01*
X6930833Y-11553500D02*
X6759405Y-11810643D01*
X7187976Y-11563024D02*
X7207024Y-11563024D01*
X7207024Y-11563024D02*
X7226072Y-11572548D01*
X7226072Y-11572548D02*
X7235595Y-11582071D01*
X7235595Y-11582071D02*
X7245119Y-11601119D01*
X7245119Y-11601119D02*
X7254643Y-11639214D01*
X7254643Y-11639214D02*
X7254643Y-11686833D01*
X7254643Y-11686833D02*
X7245119Y-11724928D01*
X7245119Y-11724928D02*
X7235595Y-11743976D01*
X7235595Y-11743976D02*
X7226072Y-11753500D01*
X7226072Y-11753500D02*
X7207024Y-11763024D01*
X7207024Y-11763024D02*
X7187976Y-11763024D01*
X7187976Y-11763024D02*
X7168929Y-11753500D01*
X7168929Y-11753500D02*
X7159405Y-11743976D01*
X7159405Y-11743976D02*
X7149881Y-11724928D01*
X7149881Y-11724928D02*
X7140357Y-11686833D01*
X7140357Y-11686833D02*
X7140357Y-11639214D01*
X7140357Y-11639214D02*
X7149881Y-11601119D01*
X7149881Y-11601119D02*
X7159405Y-11582071D01*
X7159405Y-11582071D02*
X7168929Y-11572548D01*
X7168929Y-11572548D02*
X7187976Y-11563024D01*
X7340357Y-11743976D02*
X7349881Y-11753500D01*
X7349881Y-11753500D02*
X7340357Y-11763024D01*
X7340357Y-11763024D02*
X7330833Y-11753500D01*
X7330833Y-11753500D02*
X7340357Y-11743976D01*
X7340357Y-11743976D02*
X7340357Y-11763024D01*
X7473691Y-11563024D02*
X7492738Y-11563024D01*
X7492738Y-11563024D02*
X7511786Y-11572548D01*
X7511786Y-11572548D02*
X7521310Y-11582071D01*
X7521310Y-11582071D02*
X7530833Y-11601119D01*
X7530833Y-11601119D02*
X7540357Y-11639214D01*
X7540357Y-11639214D02*
X7540357Y-11686833D01*
X7540357Y-11686833D02*
X7530833Y-11724928D01*
X7530833Y-11724928D02*
X7521310Y-11743976D01*
X7521310Y-11743976D02*
X7511786Y-11753500D01*
X7511786Y-11753500D02*
X7492738Y-11763024D01*
X7492738Y-11763024D02*
X7473691Y-11763024D01*
X7473691Y-11763024D02*
X7454643Y-11753500D01*
X7454643Y-11753500D02*
X7445119Y-11743976D01*
X7445119Y-11743976D02*
X7435595Y-11724928D01*
X7435595Y-11724928D02*
X7426072Y-11686833D01*
X7426072Y-11686833D02*
X7426072Y-11639214D01*
X7426072Y-11639214D02*
X7435595Y-11601119D01*
X7435595Y-11601119D02*
X7445119Y-11582071D01*
X7445119Y-11582071D02*
X7454643Y-11572548D01*
X7454643Y-11572548D02*
X7473691Y-11563024D01*
X7607024Y-11563024D02*
X7730833Y-11563024D01*
X7730833Y-11563024D02*
X7664167Y-11639214D01*
X7664167Y-11639214D02*
X7692738Y-11639214D01*
X7692738Y-11639214D02*
X7711786Y-11648738D01*
X7711786Y-11648738D02*
X7721310Y-11658262D01*
X7721310Y-11658262D02*
X7730833Y-11677309D01*
X7730833Y-11677309D02*
X7730833Y-11724928D01*
X7730833Y-11724928D02*
X7721310Y-11743976D01*
X7721310Y-11743976D02*
X7711786Y-11753500D01*
X7711786Y-11753500D02*
X7692738Y-11763024D01*
X7692738Y-11763024D02*
X7635595Y-11763024D01*
X7635595Y-11763024D02*
X7616548Y-11753500D01*
X7616548Y-11753500D02*
X7607024Y-11743976D01*
X7854643Y-11563024D02*
X7873691Y-11563024D01*
X7873691Y-11563024D02*
X7892738Y-11572548D01*
X7892738Y-11572548D02*
X7902262Y-11582071D01*
X7902262Y-11582071D02*
X7911786Y-11601119D01*
X7911786Y-11601119D02*
X7921310Y-11639214D01*
X7921310Y-11639214D02*
X7921310Y-11686833D01*
X7921310Y-11686833D02*
X7911786Y-11724928D01*
X7911786Y-11724928D02*
X7902262Y-11743976D01*
X7902262Y-11743976D02*
X7892738Y-11753500D01*
X7892738Y-11753500D02*
X7873691Y-11763024D01*
X7873691Y-11763024D02*
X7854643Y-11763024D01*
X7854643Y-11763024D02*
X7835595Y-11753500D01*
X7835595Y-11753500D02*
X7826072Y-11743976D01*
X7826072Y-11743976D02*
X7816548Y-11724928D01*
X7816548Y-11724928D02*
X7807024Y-11686833D01*
X7807024Y-11686833D02*
X7807024Y-11639214D01*
X7807024Y-11639214D02*
X7816548Y-11601119D01*
X7816548Y-11601119D02*
X7826072Y-11582071D01*
X7826072Y-11582071D02*
X7835595Y-11572548D01*
X7835595Y-11572548D02*
X7854643Y-11563024D01*
X8045119Y-11563024D02*
X8064167Y-11563024D01*
X8064167Y-11563024D02*
X8083214Y-11572548D01*
X8083214Y-11572548D02*
X8092738Y-11582071D01*
X8092738Y-11582071D02*
X8102262Y-11601119D01*
X8102262Y-11601119D02*
X8111786Y-11639214D01*
X8111786Y-11639214D02*
X8111786Y-11686833D01*
X8111786Y-11686833D02*
X8102262Y-11724928D01*
X8102262Y-11724928D02*
X8092738Y-11743976D01*
X8092738Y-11743976D02*
X8083214Y-11753500D01*
X8083214Y-11753500D02*
X8064167Y-11763024D01*
X8064167Y-11763024D02*
X8045119Y-11763024D01*
X8045119Y-11763024D02*
X8026072Y-11753500D01*
X8026072Y-11753500D02*
X8016548Y-11743976D01*
X8016548Y-11743976D02*
X8007024Y-11724928D01*
X8007024Y-11724928D02*
X7997500Y-11686833D01*
X7997500Y-11686833D02*
X7997500Y-11639214D01*
X7997500Y-11639214D02*
X8007024Y-11601119D01*
X8007024Y-11601119D02*
X8016548Y-11582071D01*
X8016548Y-11582071D02*
X8026072Y-11572548D01*
X8026072Y-11572548D02*
X8045119Y-11563024D01*
X8187976Y-11563024D02*
X8187976Y-11601119D01*
X8264167Y-11563024D02*
X8264167Y-11601119D01*
X8559405Y-11839214D02*
X8549881Y-11829690D01*
X8549881Y-11829690D02*
X8530834Y-11801119D01*
X8530834Y-11801119D02*
X8521310Y-11782071D01*
X8521310Y-11782071D02*
X8511786Y-11753500D01*
X8511786Y-11753500D02*
X8502262Y-11705881D01*
X8502262Y-11705881D02*
X8502262Y-11667786D01*
X8502262Y-11667786D02*
X8511786Y-11620167D01*
X8511786Y-11620167D02*
X8521310Y-11591595D01*
X8521310Y-11591595D02*
X8530834Y-11572548D01*
X8530834Y-11572548D02*
X8549881Y-11543976D01*
X8549881Y-11543976D02*
X8559405Y-11534452D01*
X8740357Y-11763024D02*
X8626072Y-11763024D01*
X8683215Y-11763024D02*
X8683215Y-11563024D01*
X8683215Y-11563024D02*
X8664167Y-11591595D01*
X8664167Y-11591595D02*
X8645119Y-11610643D01*
X8645119Y-11610643D02*
X8626072Y-11620167D01*
X8930834Y-11763024D02*
X8816548Y-11763024D01*
X8873691Y-11763024D02*
X8873691Y-11563024D01*
X8873691Y-11563024D02*
X8854643Y-11591595D01*
X8854643Y-11591595D02*
X8835596Y-11610643D01*
X8835596Y-11610643D02*
X8816548Y-11620167D01*
X9168929Y-11763024D02*
X9168929Y-11563024D01*
X9254643Y-11763024D02*
X9254643Y-11658262D01*
X9254643Y-11658262D02*
X9245119Y-11639214D01*
X9245119Y-11639214D02*
X9226072Y-11629690D01*
X9226072Y-11629690D02*
X9197500Y-11629690D01*
X9197500Y-11629690D02*
X9178453Y-11639214D01*
X9178453Y-11639214D02*
X9168929Y-11648738D01*
X9378453Y-11763024D02*
X9359405Y-11753500D01*
X9359405Y-11753500D02*
X9349881Y-11743976D01*
X9349881Y-11743976D02*
X9340358Y-11724928D01*
X9340358Y-11724928D02*
X9340358Y-11667786D01*
X9340358Y-11667786D02*
X9349881Y-11648738D01*
X9349881Y-11648738D02*
X9359405Y-11639214D01*
X9359405Y-11639214D02*
X9378453Y-11629690D01*
X9378453Y-11629690D02*
X9407024Y-11629690D01*
X9407024Y-11629690D02*
X9426072Y-11639214D01*
X9426072Y-11639214D02*
X9435596Y-11648738D01*
X9435596Y-11648738D02*
X9445119Y-11667786D01*
X9445119Y-11667786D02*
X9445119Y-11724928D01*
X9445119Y-11724928D02*
X9435596Y-11743976D01*
X9435596Y-11743976D02*
X9426072Y-11753500D01*
X9426072Y-11753500D02*
X9407024Y-11763024D01*
X9407024Y-11763024D02*
X9378453Y-11763024D01*
X9559405Y-11763024D02*
X9540358Y-11753500D01*
X9540358Y-11753500D02*
X9530834Y-11734452D01*
X9530834Y-11734452D02*
X9530834Y-11563024D01*
X9711786Y-11753500D02*
X9692739Y-11763024D01*
X9692739Y-11763024D02*
X9654643Y-11763024D01*
X9654643Y-11763024D02*
X9635596Y-11753500D01*
X9635596Y-11753500D02*
X9626072Y-11734452D01*
X9626072Y-11734452D02*
X9626072Y-11658262D01*
X9626072Y-11658262D02*
X9635596Y-11639214D01*
X9635596Y-11639214D02*
X9654643Y-11629690D01*
X9654643Y-11629690D02*
X9692739Y-11629690D01*
X9692739Y-11629690D02*
X9711786Y-11639214D01*
X9711786Y-11639214D02*
X9721310Y-11658262D01*
X9721310Y-11658262D02*
X9721310Y-11677309D01*
X9721310Y-11677309D02*
X9626072Y-11696357D01*
X9797500Y-11753500D02*
X9816548Y-11763024D01*
X9816548Y-11763024D02*
X9854643Y-11763024D01*
X9854643Y-11763024D02*
X9873691Y-11753500D01*
X9873691Y-11753500D02*
X9883215Y-11734452D01*
X9883215Y-11734452D02*
X9883215Y-11724928D01*
X9883215Y-11724928D02*
X9873691Y-11705881D01*
X9873691Y-11705881D02*
X9854643Y-11696357D01*
X9854643Y-11696357D02*
X9826072Y-11696357D01*
X9826072Y-11696357D02*
X9807024Y-11686833D01*
X9807024Y-11686833D02*
X9797500Y-11667786D01*
X9797500Y-11667786D02*
X9797500Y-11658262D01*
X9797500Y-11658262D02*
X9807024Y-11639214D01*
X9807024Y-11639214D02*
X9826072Y-11629690D01*
X9826072Y-11629690D02*
X9854643Y-11629690D01*
X9854643Y-11629690D02*
X9873691Y-11639214D01*
X9949881Y-11839214D02*
X9959405Y-11829690D01*
X9959405Y-11829690D02*
X9978453Y-11801119D01*
X9978453Y-11801119D02*
X9987977Y-11782071D01*
X9987977Y-11782071D02*
X9997500Y-11753500D01*
X9997500Y-11753500D02*
X10007024Y-11705881D01*
X10007024Y-11705881D02*
X10007024Y-11667786D01*
X10007024Y-11667786D02*
X9997500Y-11620167D01*
X9997500Y-11620167D02*
X9987977Y-11591595D01*
X9987977Y-11591595D02*
X9978453Y-11572548D01*
X9978453Y-11572548D02*
X9959405Y-11543976D01*
X9959405Y-11543976D02*
X9949881Y-11534452D01*
D14*
X4985785Y-11962784D02*
X4985785Y-11906215D01*
X4929216Y-11906215D01*
X4929216Y-11962784D01*
X4985785Y-11962784D01*
D11*
X5283214Y-11827024D02*
X5302262Y-11827024D01*
X5302262Y-11827024D02*
X5321310Y-11836548D01*
X5321310Y-11836548D02*
X5330833Y-11846071D01*
X5330833Y-11846071D02*
X5340357Y-11865119D01*
X5340357Y-11865119D02*
X5349881Y-11903214D01*
X5349881Y-11903214D02*
X5349881Y-11950833D01*
X5349881Y-11950833D02*
X5340357Y-11988928D01*
X5340357Y-11988928D02*
X5330833Y-12007976D01*
X5330833Y-12007976D02*
X5321310Y-12017500D01*
X5321310Y-12017500D02*
X5302262Y-12027024D01*
X5302262Y-12027024D02*
X5283214Y-12027024D01*
X5283214Y-12027024D02*
X5264167Y-12017500D01*
X5264167Y-12017500D02*
X5254643Y-12007976D01*
X5254643Y-12007976D02*
X5245119Y-11988928D01*
X5245119Y-11988928D02*
X5235595Y-11950833D01*
X5235595Y-11950833D02*
X5235595Y-11903214D01*
X5235595Y-11903214D02*
X5245119Y-11865119D01*
X5245119Y-11865119D02*
X5254643Y-11846071D01*
X5254643Y-11846071D02*
X5264167Y-11836548D01*
X5264167Y-11836548D02*
X5283214Y-11827024D01*
X5435595Y-12007976D02*
X5445119Y-12017500D01*
X5445119Y-12017500D02*
X5435595Y-12027024D01*
X5435595Y-12027024D02*
X5426071Y-12017500D01*
X5426071Y-12017500D02*
X5435595Y-12007976D01*
X5435595Y-12007976D02*
X5435595Y-12027024D01*
X5559405Y-11912738D02*
X5540357Y-11903214D01*
X5540357Y-11903214D02*
X5530833Y-11893690D01*
X5530833Y-11893690D02*
X5521310Y-11874643D01*
X5521310Y-11874643D02*
X5521310Y-11865119D01*
X5521310Y-11865119D02*
X5530833Y-11846071D01*
X5530833Y-11846071D02*
X5540357Y-11836548D01*
X5540357Y-11836548D02*
X5559405Y-11827024D01*
X5559405Y-11827024D02*
X5597500Y-11827024D01*
X5597500Y-11827024D02*
X5616548Y-11836548D01*
X5616548Y-11836548D02*
X5626071Y-11846071D01*
X5626071Y-11846071D02*
X5635595Y-11865119D01*
X5635595Y-11865119D02*
X5635595Y-11874643D01*
X5635595Y-11874643D02*
X5626071Y-11893690D01*
X5626071Y-11893690D02*
X5616548Y-11903214D01*
X5616548Y-11903214D02*
X5597500Y-11912738D01*
X5597500Y-11912738D02*
X5559405Y-11912738D01*
X5559405Y-11912738D02*
X5540357Y-11922262D01*
X5540357Y-11922262D02*
X5530833Y-11931786D01*
X5530833Y-11931786D02*
X5521310Y-11950833D01*
X5521310Y-11950833D02*
X5521310Y-11988928D01*
X5521310Y-11988928D02*
X5530833Y-12007976D01*
X5530833Y-12007976D02*
X5540357Y-12017500D01*
X5540357Y-12017500D02*
X5559405Y-12027024D01*
X5559405Y-12027024D02*
X5597500Y-12027024D01*
X5597500Y-12027024D02*
X5616548Y-12017500D01*
X5616548Y-12017500D02*
X5626071Y-12007976D01*
X5626071Y-12007976D02*
X5635595Y-11988928D01*
X5635595Y-11988928D02*
X5635595Y-11950833D01*
X5635595Y-11950833D02*
X5626071Y-11931786D01*
X5626071Y-11931786D02*
X5616548Y-11922262D01*
X5616548Y-11922262D02*
X5597500Y-11912738D01*
X5759405Y-11827024D02*
X5778452Y-11827024D01*
X5778452Y-11827024D02*
X5797500Y-11836548D01*
X5797500Y-11836548D02*
X5807024Y-11846071D01*
X5807024Y-11846071D02*
X5816548Y-11865119D01*
X5816548Y-11865119D02*
X5826071Y-11903214D01*
X5826071Y-11903214D02*
X5826071Y-11950833D01*
X5826071Y-11950833D02*
X5816548Y-11988928D01*
X5816548Y-11988928D02*
X5807024Y-12007976D01*
X5807024Y-12007976D02*
X5797500Y-12017500D01*
X5797500Y-12017500D02*
X5778452Y-12027024D01*
X5778452Y-12027024D02*
X5759405Y-12027024D01*
X5759405Y-12027024D02*
X5740357Y-12017500D01*
X5740357Y-12017500D02*
X5730833Y-12007976D01*
X5730833Y-12007976D02*
X5721309Y-11988928D01*
X5721309Y-11988928D02*
X5711786Y-11950833D01*
X5711786Y-11950833D02*
X5711786Y-11903214D01*
X5711786Y-11903214D02*
X5721309Y-11865119D01*
X5721309Y-11865119D02*
X5730833Y-11846071D01*
X5730833Y-11846071D02*
X5740357Y-11836548D01*
X5740357Y-11836548D02*
X5759405Y-11827024D01*
X5949881Y-11827024D02*
X5968929Y-11827024D01*
X5968929Y-11827024D02*
X5987976Y-11836548D01*
X5987976Y-11836548D02*
X5997500Y-11846071D01*
X5997500Y-11846071D02*
X6007024Y-11865119D01*
X6007024Y-11865119D02*
X6016548Y-11903214D01*
X6016548Y-11903214D02*
X6016548Y-11950833D01*
X6016548Y-11950833D02*
X6007024Y-11988928D01*
X6007024Y-11988928D02*
X5997500Y-12007976D01*
X5997500Y-12007976D02*
X5987976Y-12017500D01*
X5987976Y-12017500D02*
X5968929Y-12027024D01*
X5968929Y-12027024D02*
X5949881Y-12027024D01*
X5949881Y-12027024D02*
X5930833Y-12017500D01*
X5930833Y-12017500D02*
X5921309Y-12007976D01*
X5921309Y-12007976D02*
X5911786Y-11988928D01*
X5911786Y-11988928D02*
X5902262Y-11950833D01*
X5902262Y-11950833D02*
X5902262Y-11903214D01*
X5902262Y-11903214D02*
X5911786Y-11865119D01*
X5911786Y-11865119D02*
X5921309Y-11846071D01*
X5921309Y-11846071D02*
X5930833Y-11836548D01*
X5930833Y-11836548D02*
X5949881Y-11827024D01*
X6102262Y-12027024D02*
X6102262Y-11893690D01*
X6102262Y-11912738D02*
X6111786Y-11903214D01*
X6111786Y-11903214D02*
X6130833Y-11893690D01*
X6130833Y-11893690D02*
X6159405Y-11893690D01*
X6159405Y-11893690D02*
X6178452Y-11903214D01*
X6178452Y-11903214D02*
X6187976Y-11922262D01*
X6187976Y-11922262D02*
X6187976Y-12027024D01*
X6187976Y-11922262D02*
X6197500Y-11903214D01*
X6197500Y-11903214D02*
X6216548Y-11893690D01*
X6216548Y-11893690D02*
X6245119Y-11893690D01*
X6245119Y-11893690D02*
X6264167Y-11903214D01*
X6264167Y-11903214D02*
X6273690Y-11922262D01*
X6273690Y-11922262D02*
X6273690Y-12027024D01*
X6368929Y-12027024D02*
X6368929Y-11893690D01*
X6368929Y-11912738D02*
X6378452Y-11903214D01*
X6378452Y-11903214D02*
X6397500Y-11893690D01*
X6397500Y-11893690D02*
X6426071Y-11893690D01*
X6426071Y-11893690D02*
X6445119Y-11903214D01*
X6445119Y-11903214D02*
X6454643Y-11922262D01*
X6454643Y-11922262D02*
X6454643Y-12027024D01*
X6454643Y-11922262D02*
X6464167Y-11903214D01*
X6464167Y-11903214D02*
X6483214Y-11893690D01*
X6483214Y-11893690D02*
X6511786Y-11893690D01*
X6511786Y-11893690D02*
X6530833Y-11903214D01*
X6530833Y-11903214D02*
X6540357Y-11922262D01*
X6540357Y-11922262D02*
X6540357Y-12027024D01*
X6930833Y-11817500D02*
X6759405Y-12074643D01*
X7187976Y-11827024D02*
X7207024Y-11827024D01*
X7207024Y-11827024D02*
X7226072Y-11836548D01*
X7226072Y-11836548D02*
X7235595Y-11846071D01*
X7235595Y-11846071D02*
X7245119Y-11865119D01*
X7245119Y-11865119D02*
X7254643Y-11903214D01*
X7254643Y-11903214D02*
X7254643Y-11950833D01*
X7254643Y-11950833D02*
X7245119Y-11988928D01*
X7245119Y-11988928D02*
X7235595Y-12007976D01*
X7235595Y-12007976D02*
X7226072Y-12017500D01*
X7226072Y-12017500D02*
X7207024Y-12027024D01*
X7207024Y-12027024D02*
X7187976Y-12027024D01*
X7187976Y-12027024D02*
X7168929Y-12017500D01*
X7168929Y-12017500D02*
X7159405Y-12007976D01*
X7159405Y-12007976D02*
X7149881Y-11988928D01*
X7149881Y-11988928D02*
X7140357Y-11950833D01*
X7140357Y-11950833D02*
X7140357Y-11903214D01*
X7140357Y-11903214D02*
X7149881Y-11865119D01*
X7149881Y-11865119D02*
X7159405Y-11846071D01*
X7159405Y-11846071D02*
X7168929Y-11836548D01*
X7168929Y-11836548D02*
X7187976Y-11827024D01*
X7340357Y-12007976D02*
X7349881Y-12017500D01*
X7349881Y-12017500D02*
X7340357Y-12027024D01*
X7340357Y-12027024D02*
X7330833Y-12017500D01*
X7330833Y-12017500D02*
X7340357Y-12007976D01*
X7340357Y-12007976D02*
X7340357Y-12027024D01*
X7473691Y-11827024D02*
X7492738Y-11827024D01*
X7492738Y-11827024D02*
X7511786Y-11836548D01*
X7511786Y-11836548D02*
X7521310Y-11846071D01*
X7521310Y-11846071D02*
X7530833Y-11865119D01*
X7530833Y-11865119D02*
X7540357Y-11903214D01*
X7540357Y-11903214D02*
X7540357Y-11950833D01*
X7540357Y-11950833D02*
X7530833Y-11988928D01*
X7530833Y-11988928D02*
X7521310Y-12007976D01*
X7521310Y-12007976D02*
X7511786Y-12017500D01*
X7511786Y-12017500D02*
X7492738Y-12027024D01*
X7492738Y-12027024D02*
X7473691Y-12027024D01*
X7473691Y-12027024D02*
X7454643Y-12017500D01*
X7454643Y-12017500D02*
X7445119Y-12007976D01*
X7445119Y-12007976D02*
X7435595Y-11988928D01*
X7435595Y-11988928D02*
X7426072Y-11950833D01*
X7426072Y-11950833D02*
X7426072Y-11903214D01*
X7426072Y-11903214D02*
X7435595Y-11865119D01*
X7435595Y-11865119D02*
X7445119Y-11846071D01*
X7445119Y-11846071D02*
X7454643Y-11836548D01*
X7454643Y-11836548D02*
X7473691Y-11827024D01*
X7607024Y-11827024D02*
X7730833Y-11827024D01*
X7730833Y-11827024D02*
X7664167Y-11903214D01*
X7664167Y-11903214D02*
X7692738Y-11903214D01*
X7692738Y-11903214D02*
X7711786Y-11912738D01*
X7711786Y-11912738D02*
X7721310Y-11922262D01*
X7721310Y-11922262D02*
X7730833Y-11941309D01*
X7730833Y-11941309D02*
X7730833Y-11988928D01*
X7730833Y-11988928D02*
X7721310Y-12007976D01*
X7721310Y-12007976D02*
X7711786Y-12017500D01*
X7711786Y-12017500D02*
X7692738Y-12027024D01*
X7692738Y-12027024D02*
X7635595Y-12027024D01*
X7635595Y-12027024D02*
X7616548Y-12017500D01*
X7616548Y-12017500D02*
X7607024Y-12007976D01*
X7921310Y-12027024D02*
X7807024Y-12027024D01*
X7864167Y-12027024D02*
X7864167Y-11827024D01*
X7864167Y-11827024D02*
X7845119Y-11855595D01*
X7845119Y-11855595D02*
X7826072Y-11874643D01*
X7826072Y-11874643D02*
X7807024Y-11884167D01*
X8102262Y-11827024D02*
X8007024Y-11827024D01*
X8007024Y-11827024D02*
X7997500Y-11922262D01*
X7997500Y-11922262D02*
X8007024Y-11912738D01*
X8007024Y-11912738D02*
X8026072Y-11903214D01*
X8026072Y-11903214D02*
X8073691Y-11903214D01*
X8073691Y-11903214D02*
X8092738Y-11912738D01*
X8092738Y-11912738D02*
X8102262Y-11922262D01*
X8102262Y-11922262D02*
X8111786Y-11941309D01*
X8111786Y-11941309D02*
X8111786Y-11988928D01*
X8111786Y-11988928D02*
X8102262Y-12007976D01*
X8102262Y-12007976D02*
X8092738Y-12017500D01*
X8092738Y-12017500D02*
X8073691Y-12027024D01*
X8073691Y-12027024D02*
X8026072Y-12027024D01*
X8026072Y-12027024D02*
X8007024Y-12017500D01*
X8007024Y-12017500D02*
X7997500Y-12007976D01*
X8187976Y-11827024D02*
X8187976Y-11865119D01*
X8264167Y-11827024D02*
X8264167Y-11865119D01*
X8559405Y-12103214D02*
X8549881Y-12093690D01*
X8549881Y-12093690D02*
X8530834Y-12065119D01*
X8530834Y-12065119D02*
X8521310Y-12046071D01*
X8521310Y-12046071D02*
X8511786Y-12017500D01*
X8511786Y-12017500D02*
X8502262Y-11969881D01*
X8502262Y-11969881D02*
X8502262Y-11931786D01*
X8502262Y-11931786D02*
X8511786Y-11884167D01*
X8511786Y-11884167D02*
X8521310Y-11855595D01*
X8521310Y-11855595D02*
X8530834Y-11836548D01*
X8530834Y-11836548D02*
X8549881Y-11807976D01*
X8549881Y-11807976D02*
X8559405Y-11798452D01*
X8664167Y-11912738D02*
X8645119Y-11903214D01*
X8645119Y-11903214D02*
X8635596Y-11893690D01*
X8635596Y-11893690D02*
X8626072Y-11874643D01*
X8626072Y-11874643D02*
X8626072Y-11865119D01*
X8626072Y-11865119D02*
X8635596Y-11846071D01*
X8635596Y-11846071D02*
X8645119Y-11836548D01*
X8645119Y-11836548D02*
X8664167Y-11827024D01*
X8664167Y-11827024D02*
X8702262Y-11827024D01*
X8702262Y-11827024D02*
X8721310Y-11836548D01*
X8721310Y-11836548D02*
X8730834Y-11846071D01*
X8730834Y-11846071D02*
X8740357Y-11865119D01*
X8740357Y-11865119D02*
X8740357Y-11874643D01*
X8740357Y-11874643D02*
X8730834Y-11893690D01*
X8730834Y-11893690D02*
X8721310Y-11903214D01*
X8721310Y-11903214D02*
X8702262Y-11912738D01*
X8702262Y-11912738D02*
X8664167Y-11912738D01*
X8664167Y-11912738D02*
X8645119Y-11922262D01*
X8645119Y-11922262D02*
X8635596Y-11931786D01*
X8635596Y-11931786D02*
X8626072Y-11950833D01*
X8626072Y-11950833D02*
X8626072Y-11988928D01*
X8626072Y-11988928D02*
X8635596Y-12007976D01*
X8635596Y-12007976D02*
X8645119Y-12017500D01*
X8645119Y-12017500D02*
X8664167Y-12027024D01*
X8664167Y-12027024D02*
X8702262Y-12027024D01*
X8702262Y-12027024D02*
X8721310Y-12017500D01*
X8721310Y-12017500D02*
X8730834Y-12007976D01*
X8730834Y-12007976D02*
X8740357Y-11988928D01*
X8740357Y-11988928D02*
X8740357Y-11950833D01*
X8740357Y-11950833D02*
X8730834Y-11931786D01*
X8730834Y-11931786D02*
X8721310Y-11922262D01*
X8721310Y-11922262D02*
X8702262Y-11912738D01*
X8978453Y-12027024D02*
X8978453Y-11827024D01*
X9064167Y-12027024D02*
X9064167Y-11922262D01*
X9064167Y-11922262D02*
X9054643Y-11903214D01*
X9054643Y-11903214D02*
X9035596Y-11893690D01*
X9035596Y-11893690D02*
X9007024Y-11893690D01*
X9007024Y-11893690D02*
X8987977Y-11903214D01*
X8987977Y-11903214D02*
X8978453Y-11912738D01*
X9187977Y-12027024D02*
X9168929Y-12017500D01*
X9168929Y-12017500D02*
X9159405Y-12007976D01*
X9159405Y-12007976D02*
X9149881Y-11988928D01*
X9149881Y-11988928D02*
X9149881Y-11931786D01*
X9149881Y-11931786D02*
X9159405Y-11912738D01*
X9159405Y-11912738D02*
X9168929Y-11903214D01*
X9168929Y-11903214D02*
X9187977Y-11893690D01*
X9187977Y-11893690D02*
X9216548Y-11893690D01*
X9216548Y-11893690D02*
X9235596Y-11903214D01*
X9235596Y-11903214D02*
X9245119Y-11912738D01*
X9245119Y-11912738D02*
X9254643Y-11931786D01*
X9254643Y-11931786D02*
X9254643Y-11988928D01*
X9254643Y-11988928D02*
X9245119Y-12007976D01*
X9245119Y-12007976D02*
X9235596Y-12017500D01*
X9235596Y-12017500D02*
X9216548Y-12027024D01*
X9216548Y-12027024D02*
X9187977Y-12027024D01*
X9368929Y-12027024D02*
X9349881Y-12017500D01*
X9349881Y-12017500D02*
X9340358Y-11998452D01*
X9340358Y-11998452D02*
X9340358Y-11827024D01*
X9521310Y-12017500D02*
X9502262Y-12027024D01*
X9502262Y-12027024D02*
X9464167Y-12027024D01*
X9464167Y-12027024D02*
X9445119Y-12017500D01*
X9445119Y-12017500D02*
X9435596Y-11998452D01*
X9435596Y-11998452D02*
X9435596Y-11922262D01*
X9435596Y-11922262D02*
X9445119Y-11903214D01*
X9445119Y-11903214D02*
X9464167Y-11893690D01*
X9464167Y-11893690D02*
X9502262Y-11893690D01*
X9502262Y-11893690D02*
X9521310Y-11903214D01*
X9521310Y-11903214D02*
X9530834Y-11922262D01*
X9530834Y-11922262D02*
X9530834Y-11941309D01*
X9530834Y-11941309D02*
X9435596Y-11960357D01*
X9607024Y-12017500D02*
X9626072Y-12027024D01*
X9626072Y-12027024D02*
X9664167Y-12027024D01*
X9664167Y-12027024D02*
X9683215Y-12017500D01*
X9683215Y-12017500D02*
X9692739Y-11998452D01*
X9692739Y-11998452D02*
X9692739Y-11988928D01*
X9692739Y-11988928D02*
X9683215Y-11969881D01*
X9683215Y-11969881D02*
X9664167Y-11960357D01*
X9664167Y-11960357D02*
X9635596Y-11960357D01*
X9635596Y-11960357D02*
X9616548Y-11950833D01*
X9616548Y-11950833D02*
X9607024Y-11931786D01*
X9607024Y-11931786D02*
X9607024Y-11922262D01*
X9607024Y-11922262D02*
X9616548Y-11903214D01*
X9616548Y-11903214D02*
X9635596Y-11893690D01*
X9635596Y-11893690D02*
X9664167Y-11893690D01*
X9664167Y-11893690D02*
X9683215Y-11903214D01*
X9759405Y-12103214D02*
X9768929Y-12093690D01*
X9768929Y-12093690D02*
X9787977Y-12065119D01*
X9787977Y-12065119D02*
X9797500Y-12046071D01*
X9797500Y-12046071D02*
X9807024Y-12017500D01*
X9807024Y-12017500D02*
X9816548Y-11969881D01*
X9816548Y-11969881D02*
X9816548Y-11931786D01*
X9816548Y-11931786D02*
X9807024Y-11884167D01*
X9807024Y-11884167D02*
X9797500Y-11855595D01*
X9797500Y-11855595D02*
X9787977Y-11836548D01*
X9787977Y-11836548D02*
X9768929Y-11807976D01*
X9768929Y-11807976D02*
X9759405Y-11798452D01*
D15*
X4952500Y-12243500D02*
X4997500Y-12198500D01*
X4952500Y-12153500D01*
X4907500Y-12198500D01*
X4952500Y-12243500D01*
D11*
X5283214Y-12091024D02*
X5302262Y-12091024D01*
X5302262Y-12091024D02*
X5321310Y-12100548D01*
X5321310Y-12100548D02*
X5330833Y-12110071D01*
X5330833Y-12110071D02*
X5340357Y-12129119D01*
X5340357Y-12129119D02*
X5349881Y-12167214D01*
X5349881Y-12167214D02*
X5349881Y-12214833D01*
X5349881Y-12214833D02*
X5340357Y-12252928D01*
X5340357Y-12252928D02*
X5330833Y-12271976D01*
X5330833Y-12271976D02*
X5321310Y-12281500D01*
X5321310Y-12281500D02*
X5302262Y-12291024D01*
X5302262Y-12291024D02*
X5283214Y-12291024D01*
X5283214Y-12291024D02*
X5264167Y-12281500D01*
X5264167Y-12281500D02*
X5254643Y-12271976D01*
X5254643Y-12271976D02*
X5245119Y-12252928D01*
X5245119Y-12252928D02*
X5235595Y-12214833D01*
X5235595Y-12214833D02*
X5235595Y-12167214D01*
X5235595Y-12167214D02*
X5245119Y-12129119D01*
X5245119Y-12129119D02*
X5254643Y-12110071D01*
X5254643Y-12110071D02*
X5264167Y-12100548D01*
X5264167Y-12100548D02*
X5283214Y-12091024D01*
X5435595Y-12271976D02*
X5445119Y-12281500D01*
X5445119Y-12281500D02*
X5435595Y-12291024D01*
X5435595Y-12291024D02*
X5426071Y-12281500D01*
X5426071Y-12281500D02*
X5435595Y-12271976D01*
X5435595Y-12271976D02*
X5435595Y-12291024D01*
X5540357Y-12291024D02*
X5578452Y-12291024D01*
X5578452Y-12291024D02*
X5597500Y-12281500D01*
X5597500Y-12281500D02*
X5607024Y-12271976D01*
X5607024Y-12271976D02*
X5626071Y-12243405D01*
X5626071Y-12243405D02*
X5635595Y-12205309D01*
X5635595Y-12205309D02*
X5635595Y-12129119D01*
X5635595Y-12129119D02*
X5626071Y-12110071D01*
X5626071Y-12110071D02*
X5616548Y-12100548D01*
X5616548Y-12100548D02*
X5597500Y-12091024D01*
X5597500Y-12091024D02*
X5559405Y-12091024D01*
X5559405Y-12091024D02*
X5540357Y-12100548D01*
X5540357Y-12100548D02*
X5530833Y-12110071D01*
X5530833Y-12110071D02*
X5521310Y-12129119D01*
X5521310Y-12129119D02*
X5521310Y-12176738D01*
X5521310Y-12176738D02*
X5530833Y-12195786D01*
X5530833Y-12195786D02*
X5540357Y-12205309D01*
X5540357Y-12205309D02*
X5559405Y-12214833D01*
X5559405Y-12214833D02*
X5597500Y-12214833D01*
X5597500Y-12214833D02*
X5616548Y-12205309D01*
X5616548Y-12205309D02*
X5626071Y-12195786D01*
X5626071Y-12195786D02*
X5635595Y-12176738D01*
X5759405Y-12091024D02*
X5778452Y-12091024D01*
X5778452Y-12091024D02*
X5797500Y-12100548D01*
X5797500Y-12100548D02*
X5807024Y-12110071D01*
X5807024Y-12110071D02*
X5816548Y-12129119D01*
X5816548Y-12129119D02*
X5826071Y-12167214D01*
X5826071Y-12167214D02*
X5826071Y-12214833D01*
X5826071Y-12214833D02*
X5816548Y-12252928D01*
X5816548Y-12252928D02*
X5807024Y-12271976D01*
X5807024Y-12271976D02*
X5797500Y-12281500D01*
X5797500Y-12281500D02*
X5778452Y-12291024D01*
X5778452Y-12291024D02*
X5759405Y-12291024D01*
X5759405Y-12291024D02*
X5740357Y-12281500D01*
X5740357Y-12281500D02*
X5730833Y-12271976D01*
X5730833Y-12271976D02*
X5721309Y-12252928D01*
X5721309Y-12252928D02*
X5711786Y-12214833D01*
X5711786Y-12214833D02*
X5711786Y-12167214D01*
X5711786Y-12167214D02*
X5721309Y-12129119D01*
X5721309Y-12129119D02*
X5730833Y-12110071D01*
X5730833Y-12110071D02*
X5740357Y-12100548D01*
X5740357Y-12100548D02*
X5759405Y-12091024D01*
X5949881Y-12091024D02*
X5968929Y-12091024D01*
X5968929Y-12091024D02*
X5987976Y-12100548D01*
X5987976Y-12100548D02*
X5997500Y-12110071D01*
X5997500Y-12110071D02*
X6007024Y-12129119D01*
X6007024Y-12129119D02*
X6016548Y-12167214D01*
X6016548Y-12167214D02*
X6016548Y-12214833D01*
X6016548Y-12214833D02*
X6007024Y-12252928D01*
X6007024Y-12252928D02*
X5997500Y-12271976D01*
X5997500Y-12271976D02*
X5987976Y-12281500D01*
X5987976Y-12281500D02*
X5968929Y-12291024D01*
X5968929Y-12291024D02*
X5949881Y-12291024D01*
X5949881Y-12291024D02*
X5930833Y-12281500D01*
X5930833Y-12281500D02*
X5921309Y-12271976D01*
X5921309Y-12271976D02*
X5911786Y-12252928D01*
X5911786Y-12252928D02*
X5902262Y-12214833D01*
X5902262Y-12214833D02*
X5902262Y-12167214D01*
X5902262Y-12167214D02*
X5911786Y-12129119D01*
X5911786Y-12129119D02*
X5921309Y-12110071D01*
X5921309Y-12110071D02*
X5930833Y-12100548D01*
X5930833Y-12100548D02*
X5949881Y-12091024D01*
X6102262Y-12291024D02*
X6102262Y-12157690D01*
X6102262Y-12176738D02*
X6111786Y-12167214D01*
X6111786Y-12167214D02*
X6130833Y-12157690D01*
X6130833Y-12157690D02*
X6159405Y-12157690D01*
X6159405Y-12157690D02*
X6178452Y-12167214D01*
X6178452Y-12167214D02*
X6187976Y-12186262D01*
X6187976Y-12186262D02*
X6187976Y-12291024D01*
X6187976Y-12186262D02*
X6197500Y-12167214D01*
X6197500Y-12167214D02*
X6216548Y-12157690D01*
X6216548Y-12157690D02*
X6245119Y-12157690D01*
X6245119Y-12157690D02*
X6264167Y-12167214D01*
X6264167Y-12167214D02*
X6273690Y-12186262D01*
X6273690Y-12186262D02*
X6273690Y-12291024D01*
X6368929Y-12291024D02*
X6368929Y-12157690D01*
X6368929Y-12176738D02*
X6378452Y-12167214D01*
X6378452Y-12167214D02*
X6397500Y-12157690D01*
X6397500Y-12157690D02*
X6426071Y-12157690D01*
X6426071Y-12157690D02*
X6445119Y-12167214D01*
X6445119Y-12167214D02*
X6454643Y-12186262D01*
X6454643Y-12186262D02*
X6454643Y-12291024D01*
X6454643Y-12186262D02*
X6464167Y-12167214D01*
X6464167Y-12167214D02*
X6483214Y-12157690D01*
X6483214Y-12157690D02*
X6511786Y-12157690D01*
X6511786Y-12157690D02*
X6530833Y-12167214D01*
X6530833Y-12167214D02*
X6540357Y-12186262D01*
X6540357Y-12186262D02*
X6540357Y-12291024D01*
X6930833Y-12081500D02*
X6759405Y-12338643D01*
X7187976Y-12091024D02*
X7207024Y-12091024D01*
X7207024Y-12091024D02*
X7226072Y-12100548D01*
X7226072Y-12100548D02*
X7235595Y-12110071D01*
X7235595Y-12110071D02*
X7245119Y-12129119D01*
X7245119Y-12129119D02*
X7254643Y-12167214D01*
X7254643Y-12167214D02*
X7254643Y-12214833D01*
X7254643Y-12214833D02*
X7245119Y-12252928D01*
X7245119Y-12252928D02*
X7235595Y-12271976D01*
X7235595Y-12271976D02*
X7226072Y-12281500D01*
X7226072Y-12281500D02*
X7207024Y-12291024D01*
X7207024Y-12291024D02*
X7187976Y-12291024D01*
X7187976Y-12291024D02*
X7168929Y-12281500D01*
X7168929Y-12281500D02*
X7159405Y-12271976D01*
X7159405Y-12271976D02*
X7149881Y-12252928D01*
X7149881Y-12252928D02*
X7140357Y-12214833D01*
X7140357Y-12214833D02*
X7140357Y-12167214D01*
X7140357Y-12167214D02*
X7149881Y-12129119D01*
X7149881Y-12129119D02*
X7159405Y-12110071D01*
X7159405Y-12110071D02*
X7168929Y-12100548D01*
X7168929Y-12100548D02*
X7187976Y-12091024D01*
X7340357Y-12271976D02*
X7349881Y-12281500D01*
X7349881Y-12281500D02*
X7340357Y-12291024D01*
X7340357Y-12291024D02*
X7330833Y-12281500D01*
X7330833Y-12281500D02*
X7340357Y-12271976D01*
X7340357Y-12271976D02*
X7340357Y-12291024D01*
X7473691Y-12091024D02*
X7492738Y-12091024D01*
X7492738Y-12091024D02*
X7511786Y-12100548D01*
X7511786Y-12100548D02*
X7521310Y-12110071D01*
X7521310Y-12110071D02*
X7530833Y-12129119D01*
X7530833Y-12129119D02*
X7540357Y-12167214D01*
X7540357Y-12167214D02*
X7540357Y-12214833D01*
X7540357Y-12214833D02*
X7530833Y-12252928D01*
X7530833Y-12252928D02*
X7521310Y-12271976D01*
X7521310Y-12271976D02*
X7511786Y-12281500D01*
X7511786Y-12281500D02*
X7492738Y-12291024D01*
X7492738Y-12291024D02*
X7473691Y-12291024D01*
X7473691Y-12291024D02*
X7454643Y-12281500D01*
X7454643Y-12281500D02*
X7445119Y-12271976D01*
X7445119Y-12271976D02*
X7435595Y-12252928D01*
X7435595Y-12252928D02*
X7426072Y-12214833D01*
X7426072Y-12214833D02*
X7426072Y-12167214D01*
X7426072Y-12167214D02*
X7435595Y-12129119D01*
X7435595Y-12129119D02*
X7445119Y-12110071D01*
X7445119Y-12110071D02*
X7454643Y-12100548D01*
X7454643Y-12100548D02*
X7473691Y-12091024D01*
X7607024Y-12091024D02*
X7730833Y-12091024D01*
X7730833Y-12091024D02*
X7664167Y-12167214D01*
X7664167Y-12167214D02*
X7692738Y-12167214D01*
X7692738Y-12167214D02*
X7711786Y-12176738D01*
X7711786Y-12176738D02*
X7721310Y-12186262D01*
X7721310Y-12186262D02*
X7730833Y-12205309D01*
X7730833Y-12205309D02*
X7730833Y-12252928D01*
X7730833Y-12252928D02*
X7721310Y-12271976D01*
X7721310Y-12271976D02*
X7711786Y-12281500D01*
X7711786Y-12281500D02*
X7692738Y-12291024D01*
X7692738Y-12291024D02*
X7635595Y-12291024D01*
X7635595Y-12291024D02*
X7616548Y-12281500D01*
X7616548Y-12281500D02*
X7607024Y-12271976D01*
X7911786Y-12091024D02*
X7816548Y-12091024D01*
X7816548Y-12091024D02*
X7807024Y-12186262D01*
X7807024Y-12186262D02*
X7816548Y-12176738D01*
X7816548Y-12176738D02*
X7835595Y-12167214D01*
X7835595Y-12167214D02*
X7883214Y-12167214D01*
X7883214Y-12167214D02*
X7902262Y-12176738D01*
X7902262Y-12176738D02*
X7911786Y-12186262D01*
X7911786Y-12186262D02*
X7921310Y-12205309D01*
X7921310Y-12205309D02*
X7921310Y-12252928D01*
X7921310Y-12252928D02*
X7911786Y-12271976D01*
X7911786Y-12271976D02*
X7902262Y-12281500D01*
X7902262Y-12281500D02*
X7883214Y-12291024D01*
X7883214Y-12291024D02*
X7835595Y-12291024D01*
X7835595Y-12291024D02*
X7816548Y-12281500D01*
X7816548Y-12281500D02*
X7807024Y-12271976D01*
X8092738Y-12157690D02*
X8092738Y-12291024D01*
X8045119Y-12081500D02*
X7997500Y-12224357D01*
X7997500Y-12224357D02*
X8121310Y-12224357D01*
X8187976Y-12091024D02*
X8187976Y-12129119D01*
X8264167Y-12091024D02*
X8264167Y-12129119D01*
X8559405Y-12367214D02*
X8549881Y-12357690D01*
X8549881Y-12357690D02*
X8530834Y-12329119D01*
X8530834Y-12329119D02*
X8521310Y-12310071D01*
X8521310Y-12310071D02*
X8511786Y-12281500D01*
X8511786Y-12281500D02*
X8502262Y-12233881D01*
X8502262Y-12233881D02*
X8502262Y-12195786D01*
X8502262Y-12195786D02*
X8511786Y-12148167D01*
X8511786Y-12148167D02*
X8521310Y-12119595D01*
X8521310Y-12119595D02*
X8530834Y-12100548D01*
X8530834Y-12100548D02*
X8549881Y-12071976D01*
X8549881Y-12071976D02*
X8559405Y-12062452D01*
X8616548Y-12091024D02*
X8740357Y-12091024D01*
X8740357Y-12091024D02*
X8673691Y-12167214D01*
X8673691Y-12167214D02*
X8702262Y-12167214D01*
X8702262Y-12167214D02*
X8721310Y-12176738D01*
X8721310Y-12176738D02*
X8730834Y-12186262D01*
X8730834Y-12186262D02*
X8740357Y-12205309D01*
X8740357Y-12205309D02*
X8740357Y-12252928D01*
X8740357Y-12252928D02*
X8730834Y-12271976D01*
X8730834Y-12271976D02*
X8721310Y-12281500D01*
X8721310Y-12281500D02*
X8702262Y-12291024D01*
X8702262Y-12291024D02*
X8645119Y-12291024D01*
X8645119Y-12291024D02*
X8626072Y-12281500D01*
X8626072Y-12281500D02*
X8616548Y-12271976D01*
X8854643Y-12176738D02*
X8835596Y-12167214D01*
X8835596Y-12167214D02*
X8826072Y-12157690D01*
X8826072Y-12157690D02*
X8816548Y-12138643D01*
X8816548Y-12138643D02*
X8816548Y-12129119D01*
X8816548Y-12129119D02*
X8826072Y-12110071D01*
X8826072Y-12110071D02*
X8835596Y-12100548D01*
X8835596Y-12100548D02*
X8854643Y-12091024D01*
X8854643Y-12091024D02*
X8892738Y-12091024D01*
X8892738Y-12091024D02*
X8911786Y-12100548D01*
X8911786Y-12100548D02*
X8921310Y-12110071D01*
X8921310Y-12110071D02*
X8930834Y-12129119D01*
X8930834Y-12129119D02*
X8930834Y-12138643D01*
X8930834Y-12138643D02*
X8921310Y-12157690D01*
X8921310Y-12157690D02*
X8911786Y-12167214D01*
X8911786Y-12167214D02*
X8892738Y-12176738D01*
X8892738Y-12176738D02*
X8854643Y-12176738D01*
X8854643Y-12176738D02*
X8835596Y-12186262D01*
X8835596Y-12186262D02*
X8826072Y-12195786D01*
X8826072Y-12195786D02*
X8816548Y-12214833D01*
X8816548Y-12214833D02*
X8816548Y-12252928D01*
X8816548Y-12252928D02*
X8826072Y-12271976D01*
X8826072Y-12271976D02*
X8835596Y-12281500D01*
X8835596Y-12281500D02*
X8854643Y-12291024D01*
X8854643Y-12291024D02*
X8892738Y-12291024D01*
X8892738Y-12291024D02*
X8911786Y-12281500D01*
X8911786Y-12281500D02*
X8921310Y-12271976D01*
X8921310Y-12271976D02*
X8930834Y-12252928D01*
X8930834Y-12252928D02*
X8930834Y-12214833D01*
X8930834Y-12214833D02*
X8921310Y-12195786D01*
X8921310Y-12195786D02*
X8911786Y-12186262D01*
X8911786Y-12186262D02*
X8892738Y-12176738D01*
X9168929Y-12291024D02*
X9168929Y-12091024D01*
X9254643Y-12291024D02*
X9254643Y-12186262D01*
X9254643Y-12186262D02*
X9245119Y-12167214D01*
X9245119Y-12167214D02*
X9226072Y-12157690D01*
X9226072Y-12157690D02*
X9197500Y-12157690D01*
X9197500Y-12157690D02*
X9178453Y-12167214D01*
X9178453Y-12167214D02*
X9168929Y-12176738D01*
X9378453Y-12291024D02*
X9359405Y-12281500D01*
X9359405Y-12281500D02*
X9349881Y-12271976D01*
X9349881Y-12271976D02*
X9340358Y-12252928D01*
X9340358Y-12252928D02*
X9340358Y-12195786D01*
X9340358Y-12195786D02*
X9349881Y-12176738D01*
X9349881Y-12176738D02*
X9359405Y-12167214D01*
X9359405Y-12167214D02*
X9378453Y-12157690D01*
X9378453Y-12157690D02*
X9407024Y-12157690D01*
X9407024Y-12157690D02*
X9426072Y-12167214D01*
X9426072Y-12167214D02*
X9435596Y-12176738D01*
X9435596Y-12176738D02*
X9445119Y-12195786D01*
X9445119Y-12195786D02*
X9445119Y-12252928D01*
X9445119Y-12252928D02*
X9435596Y-12271976D01*
X9435596Y-12271976D02*
X9426072Y-12281500D01*
X9426072Y-12281500D02*
X9407024Y-12291024D01*
X9407024Y-12291024D02*
X9378453Y-12291024D01*
X9559405Y-12291024D02*
X9540358Y-12281500D01*
X9540358Y-12281500D02*
X9530834Y-12262452D01*
X9530834Y-12262452D02*
X9530834Y-12091024D01*
X9711786Y-12281500D02*
X9692739Y-12291024D01*
X9692739Y-12291024D02*
X9654643Y-12291024D01*
X9654643Y-12291024D02*
X9635596Y-12281500D01*
X9635596Y-12281500D02*
X9626072Y-12262452D01*
X9626072Y-12262452D02*
X9626072Y-12186262D01*
X9626072Y-12186262D02*
X9635596Y-12167214D01*
X9635596Y-12167214D02*
X9654643Y-12157690D01*
X9654643Y-12157690D02*
X9692739Y-12157690D01*
X9692739Y-12157690D02*
X9711786Y-12167214D01*
X9711786Y-12167214D02*
X9721310Y-12186262D01*
X9721310Y-12186262D02*
X9721310Y-12205309D01*
X9721310Y-12205309D02*
X9626072Y-12224357D01*
X9797500Y-12281500D02*
X9816548Y-12291024D01*
X9816548Y-12291024D02*
X9854643Y-12291024D01*
X9854643Y-12291024D02*
X9873691Y-12281500D01*
X9873691Y-12281500D02*
X9883215Y-12262452D01*
X9883215Y-12262452D02*
X9883215Y-12252928D01*
X9883215Y-12252928D02*
X9873691Y-12233881D01*
X9873691Y-12233881D02*
X9854643Y-12224357D01*
X9854643Y-12224357D02*
X9826072Y-12224357D01*
X9826072Y-12224357D02*
X9807024Y-12214833D01*
X9807024Y-12214833D02*
X9797500Y-12195786D01*
X9797500Y-12195786D02*
X9797500Y-12186262D01*
X9797500Y-12186262D02*
X9807024Y-12167214D01*
X9807024Y-12167214D02*
X9826072Y-12157690D01*
X9826072Y-12157690D02*
X9854643Y-12157690D01*
X9854643Y-12157690D02*
X9873691Y-12167214D01*
X9949881Y-12367214D02*
X9959405Y-12357690D01*
X9959405Y-12357690D02*
X9978453Y-12329119D01*
X9978453Y-12329119D02*
X9987977Y-12310071D01*
X9987977Y-12310071D02*
X9997500Y-12281500D01*
X9997500Y-12281500D02*
X10007024Y-12233881D01*
X10007024Y-12233881D02*
X10007024Y-12195786D01*
X10007024Y-12195786D02*
X9997500Y-12148167D01*
X9997500Y-12148167D02*
X9987977Y-12119595D01*
X9987977Y-12119595D02*
X9978453Y-12100548D01*
X9978453Y-12100548D02*
X9959405Y-12071976D01*
X9959405Y-12071976D02*
X9949881Y-12062452D01*
D16*
X4877500Y-12402500D02*
X4997500Y-12522500D01*
X4997500Y-12402500D02*
X4877500Y-12522500D01*
X4997500Y-12462500D02*
G75*
G03*
X4997500Y-12462500I-60000J0D01*
G01*
D11*
X5349881Y-12555024D02*
X5235595Y-12555024D01*
X5292738Y-12555024D02*
X5292738Y-12355024D01*
X5292738Y-12355024D02*
X5273690Y-12383595D01*
X5273690Y-12383595D02*
X5254643Y-12402643D01*
X5254643Y-12402643D02*
X5235595Y-12412167D01*
X5435595Y-12535976D02*
X5445119Y-12545500D01*
X5445119Y-12545500D02*
X5435595Y-12555024D01*
X5435595Y-12555024D02*
X5426071Y-12545500D01*
X5426071Y-12545500D02*
X5435595Y-12535976D01*
X5435595Y-12535976D02*
X5435595Y-12555024D01*
X5521310Y-12374071D02*
X5530833Y-12364548D01*
X5530833Y-12364548D02*
X5549881Y-12355024D01*
X5549881Y-12355024D02*
X5597500Y-12355024D01*
X5597500Y-12355024D02*
X5616548Y-12364548D01*
X5616548Y-12364548D02*
X5626071Y-12374071D01*
X5626071Y-12374071D02*
X5635595Y-12393119D01*
X5635595Y-12393119D02*
X5635595Y-12412167D01*
X5635595Y-12412167D02*
X5626071Y-12440738D01*
X5626071Y-12440738D02*
X5511786Y-12555024D01*
X5511786Y-12555024D02*
X5635595Y-12555024D01*
X5759405Y-12355024D02*
X5778452Y-12355024D01*
X5778452Y-12355024D02*
X5797500Y-12364548D01*
X5797500Y-12364548D02*
X5807024Y-12374071D01*
X5807024Y-12374071D02*
X5816548Y-12393119D01*
X5816548Y-12393119D02*
X5826071Y-12431214D01*
X5826071Y-12431214D02*
X5826071Y-12478833D01*
X5826071Y-12478833D02*
X5816548Y-12516928D01*
X5816548Y-12516928D02*
X5807024Y-12535976D01*
X5807024Y-12535976D02*
X5797500Y-12545500D01*
X5797500Y-12545500D02*
X5778452Y-12555024D01*
X5778452Y-12555024D02*
X5759405Y-12555024D01*
X5759405Y-12555024D02*
X5740357Y-12545500D01*
X5740357Y-12545500D02*
X5730833Y-12535976D01*
X5730833Y-12535976D02*
X5721309Y-12516928D01*
X5721309Y-12516928D02*
X5711786Y-12478833D01*
X5711786Y-12478833D02*
X5711786Y-12431214D01*
X5711786Y-12431214D02*
X5721309Y-12393119D01*
X5721309Y-12393119D02*
X5730833Y-12374071D01*
X5730833Y-12374071D02*
X5740357Y-12364548D01*
X5740357Y-12364548D02*
X5759405Y-12355024D01*
X5949881Y-12355024D02*
X5968929Y-12355024D01*
X5968929Y-12355024D02*
X5987976Y-12364548D01*
X5987976Y-12364548D02*
X5997500Y-12374071D01*
X5997500Y-12374071D02*
X6007024Y-12393119D01*
X6007024Y-12393119D02*
X6016548Y-12431214D01*
X6016548Y-12431214D02*
X6016548Y-12478833D01*
X6016548Y-12478833D02*
X6007024Y-12516928D01*
X6007024Y-12516928D02*
X5997500Y-12535976D01*
X5997500Y-12535976D02*
X5987976Y-12545500D01*
X5987976Y-12545500D02*
X5968929Y-12555024D01*
X5968929Y-12555024D02*
X5949881Y-12555024D01*
X5949881Y-12555024D02*
X5930833Y-12545500D01*
X5930833Y-12545500D02*
X5921309Y-12535976D01*
X5921309Y-12535976D02*
X5911786Y-12516928D01*
X5911786Y-12516928D02*
X5902262Y-12478833D01*
X5902262Y-12478833D02*
X5902262Y-12431214D01*
X5902262Y-12431214D02*
X5911786Y-12393119D01*
X5911786Y-12393119D02*
X5921309Y-12374071D01*
X5921309Y-12374071D02*
X5930833Y-12364548D01*
X5930833Y-12364548D02*
X5949881Y-12355024D01*
X6102262Y-12555024D02*
X6102262Y-12421690D01*
X6102262Y-12440738D02*
X6111786Y-12431214D01*
X6111786Y-12431214D02*
X6130833Y-12421690D01*
X6130833Y-12421690D02*
X6159405Y-12421690D01*
X6159405Y-12421690D02*
X6178452Y-12431214D01*
X6178452Y-12431214D02*
X6187976Y-12450262D01*
X6187976Y-12450262D02*
X6187976Y-12555024D01*
X6187976Y-12450262D02*
X6197500Y-12431214D01*
X6197500Y-12431214D02*
X6216548Y-12421690D01*
X6216548Y-12421690D02*
X6245119Y-12421690D01*
X6245119Y-12421690D02*
X6264167Y-12431214D01*
X6264167Y-12431214D02*
X6273690Y-12450262D01*
X6273690Y-12450262D02*
X6273690Y-12555024D01*
X6368929Y-12555024D02*
X6368929Y-12421690D01*
X6368929Y-12440738D02*
X6378452Y-12431214D01*
X6378452Y-12431214D02*
X6397500Y-12421690D01*
X6397500Y-12421690D02*
X6426071Y-12421690D01*
X6426071Y-12421690D02*
X6445119Y-12431214D01*
X6445119Y-12431214D02*
X6454643Y-12450262D01*
X6454643Y-12450262D02*
X6454643Y-12555024D01*
X6454643Y-12450262D02*
X6464167Y-12431214D01*
X6464167Y-12431214D02*
X6483214Y-12421690D01*
X6483214Y-12421690D02*
X6511786Y-12421690D01*
X6511786Y-12421690D02*
X6530833Y-12431214D01*
X6530833Y-12431214D02*
X6540357Y-12450262D01*
X6540357Y-12450262D02*
X6540357Y-12555024D01*
X6930833Y-12345500D02*
X6759405Y-12602643D01*
X7187976Y-12355024D02*
X7207024Y-12355024D01*
X7207024Y-12355024D02*
X7226072Y-12364548D01*
X7226072Y-12364548D02*
X7235595Y-12374071D01*
X7235595Y-12374071D02*
X7245119Y-12393119D01*
X7245119Y-12393119D02*
X7254643Y-12431214D01*
X7254643Y-12431214D02*
X7254643Y-12478833D01*
X7254643Y-12478833D02*
X7245119Y-12516928D01*
X7245119Y-12516928D02*
X7235595Y-12535976D01*
X7235595Y-12535976D02*
X7226072Y-12545500D01*
X7226072Y-12545500D02*
X7207024Y-12555024D01*
X7207024Y-12555024D02*
X7187976Y-12555024D01*
X7187976Y-12555024D02*
X7168929Y-12545500D01*
X7168929Y-12545500D02*
X7159405Y-12535976D01*
X7159405Y-12535976D02*
X7149881Y-12516928D01*
X7149881Y-12516928D02*
X7140357Y-12478833D01*
X7140357Y-12478833D02*
X7140357Y-12431214D01*
X7140357Y-12431214D02*
X7149881Y-12393119D01*
X7149881Y-12393119D02*
X7159405Y-12374071D01*
X7159405Y-12374071D02*
X7168929Y-12364548D01*
X7168929Y-12364548D02*
X7187976Y-12355024D01*
X7340357Y-12535976D02*
X7349881Y-12545500D01*
X7349881Y-12545500D02*
X7340357Y-12555024D01*
X7340357Y-12555024D02*
X7330833Y-12545500D01*
X7330833Y-12545500D02*
X7340357Y-12535976D01*
X7340357Y-12535976D02*
X7340357Y-12555024D01*
X7473691Y-12355024D02*
X7492738Y-12355024D01*
X7492738Y-12355024D02*
X7511786Y-12364548D01*
X7511786Y-12364548D02*
X7521310Y-12374071D01*
X7521310Y-12374071D02*
X7530833Y-12393119D01*
X7530833Y-12393119D02*
X7540357Y-12431214D01*
X7540357Y-12431214D02*
X7540357Y-12478833D01*
X7540357Y-12478833D02*
X7530833Y-12516928D01*
X7530833Y-12516928D02*
X7521310Y-12535976D01*
X7521310Y-12535976D02*
X7511786Y-12545500D01*
X7511786Y-12545500D02*
X7492738Y-12555024D01*
X7492738Y-12555024D02*
X7473691Y-12555024D01*
X7473691Y-12555024D02*
X7454643Y-12545500D01*
X7454643Y-12545500D02*
X7445119Y-12535976D01*
X7445119Y-12535976D02*
X7435595Y-12516928D01*
X7435595Y-12516928D02*
X7426072Y-12478833D01*
X7426072Y-12478833D02*
X7426072Y-12431214D01*
X7426072Y-12431214D02*
X7435595Y-12393119D01*
X7435595Y-12393119D02*
X7445119Y-12374071D01*
X7445119Y-12374071D02*
X7454643Y-12364548D01*
X7454643Y-12364548D02*
X7473691Y-12355024D01*
X7711786Y-12421690D02*
X7711786Y-12555024D01*
X7664167Y-12345500D02*
X7616548Y-12488357D01*
X7616548Y-12488357D02*
X7740357Y-12488357D01*
X7797500Y-12355024D02*
X7930833Y-12355024D01*
X7930833Y-12355024D02*
X7845119Y-12555024D01*
X7997500Y-12374071D02*
X8007024Y-12364548D01*
X8007024Y-12364548D02*
X8026072Y-12355024D01*
X8026072Y-12355024D02*
X8073691Y-12355024D01*
X8073691Y-12355024D02*
X8092738Y-12364548D01*
X8092738Y-12364548D02*
X8102262Y-12374071D01*
X8102262Y-12374071D02*
X8111786Y-12393119D01*
X8111786Y-12393119D02*
X8111786Y-12412167D01*
X8111786Y-12412167D02*
X8102262Y-12440738D01*
X8102262Y-12440738D02*
X7987976Y-12555024D01*
X7987976Y-12555024D02*
X8111786Y-12555024D01*
X8187976Y-12355024D02*
X8187976Y-12393119D01*
X8264167Y-12355024D02*
X8264167Y-12393119D01*
X8559405Y-12631214D02*
X8549881Y-12621690D01*
X8549881Y-12621690D02*
X8530834Y-12593119D01*
X8530834Y-12593119D02*
X8521310Y-12574071D01*
X8521310Y-12574071D02*
X8511786Y-12545500D01*
X8511786Y-12545500D02*
X8502262Y-12497881D01*
X8502262Y-12497881D02*
X8502262Y-12459786D01*
X8502262Y-12459786D02*
X8511786Y-12412167D01*
X8511786Y-12412167D02*
X8521310Y-12383595D01*
X8521310Y-12383595D02*
X8530834Y-12364548D01*
X8530834Y-12364548D02*
X8549881Y-12335976D01*
X8549881Y-12335976D02*
X8559405Y-12326452D01*
X8740357Y-12555024D02*
X8626072Y-12555024D01*
X8683215Y-12555024D02*
X8683215Y-12355024D01*
X8683215Y-12355024D02*
X8664167Y-12383595D01*
X8664167Y-12383595D02*
X8645119Y-12402643D01*
X8645119Y-12402643D02*
X8626072Y-12412167D01*
X8816548Y-12374071D02*
X8826072Y-12364548D01*
X8826072Y-12364548D02*
X8845119Y-12355024D01*
X8845119Y-12355024D02*
X8892738Y-12355024D01*
X8892738Y-12355024D02*
X8911786Y-12364548D01*
X8911786Y-12364548D02*
X8921310Y-12374071D01*
X8921310Y-12374071D02*
X8930834Y-12393119D01*
X8930834Y-12393119D02*
X8930834Y-12412167D01*
X8930834Y-12412167D02*
X8921310Y-12440738D01*
X8921310Y-12440738D02*
X8807024Y-12555024D01*
X8807024Y-12555024D02*
X8930834Y-12555024D01*
X9168929Y-12555024D02*
X9168929Y-12355024D01*
X9254643Y-12555024D02*
X9254643Y-12450262D01*
X9254643Y-12450262D02*
X9245119Y-12431214D01*
X9245119Y-12431214D02*
X9226072Y-12421690D01*
X9226072Y-12421690D02*
X9197500Y-12421690D01*
X9197500Y-12421690D02*
X9178453Y-12431214D01*
X9178453Y-12431214D02*
X9168929Y-12440738D01*
X9378453Y-12555024D02*
X9359405Y-12545500D01*
X9359405Y-12545500D02*
X9349881Y-12535976D01*
X9349881Y-12535976D02*
X9340358Y-12516928D01*
X9340358Y-12516928D02*
X9340358Y-12459786D01*
X9340358Y-12459786D02*
X9349881Y-12440738D01*
X9349881Y-12440738D02*
X9359405Y-12431214D01*
X9359405Y-12431214D02*
X9378453Y-12421690D01*
X9378453Y-12421690D02*
X9407024Y-12421690D01*
X9407024Y-12421690D02*
X9426072Y-12431214D01*
X9426072Y-12431214D02*
X9435596Y-12440738D01*
X9435596Y-12440738D02*
X9445119Y-12459786D01*
X9445119Y-12459786D02*
X9445119Y-12516928D01*
X9445119Y-12516928D02*
X9435596Y-12535976D01*
X9435596Y-12535976D02*
X9426072Y-12545500D01*
X9426072Y-12545500D02*
X9407024Y-12555024D01*
X9407024Y-12555024D02*
X9378453Y-12555024D01*
X9559405Y-12555024D02*
X9540358Y-12545500D01*
X9540358Y-12545500D02*
X9530834Y-12526452D01*
X9530834Y-12526452D02*
X9530834Y-12355024D01*
X9711786Y-12545500D02*
X9692739Y-12555024D01*
X9692739Y-12555024D02*
X9654643Y-12555024D01*
X9654643Y-12555024D02*
X9635596Y-12545500D01*
X9635596Y-12545500D02*
X9626072Y-12526452D01*
X9626072Y-12526452D02*
X9626072Y-12450262D01*
X9626072Y-12450262D02*
X9635596Y-12431214D01*
X9635596Y-12431214D02*
X9654643Y-12421690D01*
X9654643Y-12421690D02*
X9692739Y-12421690D01*
X9692739Y-12421690D02*
X9711786Y-12431214D01*
X9711786Y-12431214D02*
X9721310Y-12450262D01*
X9721310Y-12450262D02*
X9721310Y-12469309D01*
X9721310Y-12469309D02*
X9626072Y-12488357D01*
X9797500Y-12545500D02*
X9816548Y-12555024D01*
X9816548Y-12555024D02*
X9854643Y-12555024D01*
X9854643Y-12555024D02*
X9873691Y-12545500D01*
X9873691Y-12545500D02*
X9883215Y-12526452D01*
X9883215Y-12526452D02*
X9883215Y-12516928D01*
X9883215Y-12516928D02*
X9873691Y-12497881D01*
X9873691Y-12497881D02*
X9854643Y-12488357D01*
X9854643Y-12488357D02*
X9826072Y-12488357D01*
X9826072Y-12488357D02*
X9807024Y-12478833D01*
X9807024Y-12478833D02*
X9797500Y-12459786D01*
X9797500Y-12459786D02*
X9797500Y-12450262D01*
X9797500Y-12450262D02*
X9807024Y-12431214D01*
X9807024Y-12431214D02*
X9826072Y-12421690D01*
X9826072Y-12421690D02*
X9854643Y-12421690D01*
X9854643Y-12421690D02*
X9873691Y-12431214D01*
X9949881Y-12631214D02*
X9959405Y-12621690D01*
X9959405Y-12621690D02*
X9978453Y-12593119D01*
X9978453Y-12593119D02*
X9987977Y-12574071D01*
X9987977Y-12574071D02*
X9997500Y-12545500D01*
X9997500Y-12545500D02*
X10007024Y-12497881D01*
X10007024Y-12497881D02*
X10007024Y-12459786D01*
X10007024Y-12459786D02*
X9997500Y-12412167D01*
X9997500Y-12412167D02*
X9987977Y-12383595D01*
X9987977Y-12383595D02*
X9978453Y-12364548D01*
X9978453Y-12364548D02*
X9959405Y-12335976D01*
X9959405Y-12335976D02*
X9949881Y-12326452D01*
X4797500Y-12626500D02*
X4997500Y-12826500D01*
X4997500Y-12626500D02*
X4797500Y-12826500D01*
X4897500Y-12626500D02*
X4897500Y-12826500D01*
X4797500Y-12726500D02*
X4997500Y-12726500D01*
X5226071Y-12619024D02*
X5349881Y-12619024D01*
X5349881Y-12619024D02*
X5283214Y-12695214D01*
X5283214Y-12695214D02*
X5311786Y-12695214D01*
X5311786Y-12695214D02*
X5330833Y-12704738D01*
X5330833Y-12704738D02*
X5340357Y-12714262D01*
X5340357Y-12714262D02*
X5349881Y-12733309D01*
X5349881Y-12733309D02*
X5349881Y-12780928D01*
X5349881Y-12780928D02*
X5340357Y-12799976D01*
X5340357Y-12799976D02*
X5330833Y-12809500D01*
X5330833Y-12809500D02*
X5311786Y-12819024D01*
X5311786Y-12819024D02*
X5254643Y-12819024D01*
X5254643Y-12819024D02*
X5235595Y-12809500D01*
X5235595Y-12809500D02*
X5226071Y-12799976D01*
X5435595Y-12799976D02*
X5445119Y-12809500D01*
X5445119Y-12809500D02*
X5435595Y-12819024D01*
X5435595Y-12819024D02*
X5426071Y-12809500D01*
X5426071Y-12809500D02*
X5435595Y-12799976D01*
X5435595Y-12799976D02*
X5435595Y-12819024D01*
X5626071Y-12619024D02*
X5530833Y-12619024D01*
X5530833Y-12619024D02*
X5521310Y-12714262D01*
X5521310Y-12714262D02*
X5530833Y-12704738D01*
X5530833Y-12704738D02*
X5549881Y-12695214D01*
X5549881Y-12695214D02*
X5597500Y-12695214D01*
X5597500Y-12695214D02*
X5616548Y-12704738D01*
X5616548Y-12704738D02*
X5626071Y-12714262D01*
X5626071Y-12714262D02*
X5635595Y-12733309D01*
X5635595Y-12733309D02*
X5635595Y-12780928D01*
X5635595Y-12780928D02*
X5626071Y-12799976D01*
X5626071Y-12799976D02*
X5616548Y-12809500D01*
X5616548Y-12809500D02*
X5597500Y-12819024D01*
X5597500Y-12819024D02*
X5549881Y-12819024D01*
X5549881Y-12819024D02*
X5530833Y-12809500D01*
X5530833Y-12809500D02*
X5521310Y-12799976D01*
X5759405Y-12619024D02*
X5778452Y-12619024D01*
X5778452Y-12619024D02*
X5797500Y-12628548D01*
X5797500Y-12628548D02*
X5807024Y-12638071D01*
X5807024Y-12638071D02*
X5816548Y-12657119D01*
X5816548Y-12657119D02*
X5826071Y-12695214D01*
X5826071Y-12695214D02*
X5826071Y-12742833D01*
X5826071Y-12742833D02*
X5816548Y-12780928D01*
X5816548Y-12780928D02*
X5807024Y-12799976D01*
X5807024Y-12799976D02*
X5797500Y-12809500D01*
X5797500Y-12809500D02*
X5778452Y-12819024D01*
X5778452Y-12819024D02*
X5759405Y-12819024D01*
X5759405Y-12819024D02*
X5740357Y-12809500D01*
X5740357Y-12809500D02*
X5730833Y-12799976D01*
X5730833Y-12799976D02*
X5721309Y-12780928D01*
X5721309Y-12780928D02*
X5711786Y-12742833D01*
X5711786Y-12742833D02*
X5711786Y-12695214D01*
X5711786Y-12695214D02*
X5721309Y-12657119D01*
X5721309Y-12657119D02*
X5730833Y-12638071D01*
X5730833Y-12638071D02*
X5740357Y-12628548D01*
X5740357Y-12628548D02*
X5759405Y-12619024D01*
X5949881Y-12619024D02*
X5968929Y-12619024D01*
X5968929Y-12619024D02*
X5987976Y-12628548D01*
X5987976Y-12628548D02*
X5997500Y-12638071D01*
X5997500Y-12638071D02*
X6007024Y-12657119D01*
X6007024Y-12657119D02*
X6016548Y-12695214D01*
X6016548Y-12695214D02*
X6016548Y-12742833D01*
X6016548Y-12742833D02*
X6007024Y-12780928D01*
X6007024Y-12780928D02*
X5997500Y-12799976D01*
X5997500Y-12799976D02*
X5987976Y-12809500D01*
X5987976Y-12809500D02*
X5968929Y-12819024D01*
X5968929Y-12819024D02*
X5949881Y-12819024D01*
X5949881Y-12819024D02*
X5930833Y-12809500D01*
X5930833Y-12809500D02*
X5921309Y-12799976D01*
X5921309Y-12799976D02*
X5911786Y-12780928D01*
X5911786Y-12780928D02*
X5902262Y-12742833D01*
X5902262Y-12742833D02*
X5902262Y-12695214D01*
X5902262Y-12695214D02*
X5911786Y-12657119D01*
X5911786Y-12657119D02*
X5921309Y-12638071D01*
X5921309Y-12638071D02*
X5930833Y-12628548D01*
X5930833Y-12628548D02*
X5949881Y-12619024D01*
X6102262Y-12819024D02*
X6102262Y-12685690D01*
X6102262Y-12704738D02*
X6111786Y-12695214D01*
X6111786Y-12695214D02*
X6130833Y-12685690D01*
X6130833Y-12685690D02*
X6159405Y-12685690D01*
X6159405Y-12685690D02*
X6178452Y-12695214D01*
X6178452Y-12695214D02*
X6187976Y-12714262D01*
X6187976Y-12714262D02*
X6187976Y-12819024D01*
X6187976Y-12714262D02*
X6197500Y-12695214D01*
X6197500Y-12695214D02*
X6216548Y-12685690D01*
X6216548Y-12685690D02*
X6245119Y-12685690D01*
X6245119Y-12685690D02*
X6264167Y-12695214D01*
X6264167Y-12695214D02*
X6273690Y-12714262D01*
X6273690Y-12714262D02*
X6273690Y-12819024D01*
X6368929Y-12819024D02*
X6368929Y-12685690D01*
X6368929Y-12704738D02*
X6378452Y-12695214D01*
X6378452Y-12695214D02*
X6397500Y-12685690D01*
X6397500Y-12685690D02*
X6426071Y-12685690D01*
X6426071Y-12685690D02*
X6445119Y-12695214D01*
X6445119Y-12695214D02*
X6454643Y-12714262D01*
X6454643Y-12714262D02*
X6454643Y-12819024D01*
X6454643Y-12714262D02*
X6464167Y-12695214D01*
X6464167Y-12695214D02*
X6483214Y-12685690D01*
X6483214Y-12685690D02*
X6511786Y-12685690D01*
X6511786Y-12685690D02*
X6530833Y-12695214D01*
X6530833Y-12695214D02*
X6540357Y-12714262D01*
X6540357Y-12714262D02*
X6540357Y-12819024D01*
X6930833Y-12609500D02*
X6759405Y-12866643D01*
X7187976Y-12619024D02*
X7207024Y-12619024D01*
X7207024Y-12619024D02*
X7226072Y-12628548D01*
X7226072Y-12628548D02*
X7235595Y-12638071D01*
X7235595Y-12638071D02*
X7245119Y-12657119D01*
X7245119Y-12657119D02*
X7254643Y-12695214D01*
X7254643Y-12695214D02*
X7254643Y-12742833D01*
X7254643Y-12742833D02*
X7245119Y-12780928D01*
X7245119Y-12780928D02*
X7235595Y-12799976D01*
X7235595Y-12799976D02*
X7226072Y-12809500D01*
X7226072Y-12809500D02*
X7207024Y-12819024D01*
X7207024Y-12819024D02*
X7187976Y-12819024D01*
X7187976Y-12819024D02*
X7168929Y-12809500D01*
X7168929Y-12809500D02*
X7159405Y-12799976D01*
X7159405Y-12799976D02*
X7149881Y-12780928D01*
X7149881Y-12780928D02*
X7140357Y-12742833D01*
X7140357Y-12742833D02*
X7140357Y-12695214D01*
X7140357Y-12695214D02*
X7149881Y-12657119D01*
X7149881Y-12657119D02*
X7159405Y-12638071D01*
X7159405Y-12638071D02*
X7168929Y-12628548D01*
X7168929Y-12628548D02*
X7187976Y-12619024D01*
X7340357Y-12799976D02*
X7349881Y-12809500D01*
X7349881Y-12809500D02*
X7340357Y-12819024D01*
X7340357Y-12819024D02*
X7330833Y-12809500D01*
X7330833Y-12809500D02*
X7340357Y-12799976D01*
X7340357Y-12799976D02*
X7340357Y-12819024D01*
X7540357Y-12819024D02*
X7426072Y-12819024D01*
X7483214Y-12819024D02*
X7483214Y-12619024D01*
X7483214Y-12619024D02*
X7464167Y-12647595D01*
X7464167Y-12647595D02*
X7445119Y-12666643D01*
X7445119Y-12666643D02*
X7426072Y-12676167D01*
X7607024Y-12619024D02*
X7730833Y-12619024D01*
X7730833Y-12619024D02*
X7664167Y-12695214D01*
X7664167Y-12695214D02*
X7692738Y-12695214D01*
X7692738Y-12695214D02*
X7711786Y-12704738D01*
X7711786Y-12704738D02*
X7721310Y-12714262D01*
X7721310Y-12714262D02*
X7730833Y-12733309D01*
X7730833Y-12733309D02*
X7730833Y-12780928D01*
X7730833Y-12780928D02*
X7721310Y-12799976D01*
X7721310Y-12799976D02*
X7711786Y-12809500D01*
X7711786Y-12809500D02*
X7692738Y-12819024D01*
X7692738Y-12819024D02*
X7635595Y-12819024D01*
X7635595Y-12819024D02*
X7616548Y-12809500D01*
X7616548Y-12809500D02*
X7607024Y-12799976D01*
X7797500Y-12619024D02*
X7930833Y-12619024D01*
X7930833Y-12619024D02*
X7845119Y-12819024D01*
X8035595Y-12704738D02*
X8016548Y-12695214D01*
X8016548Y-12695214D02*
X8007024Y-12685690D01*
X8007024Y-12685690D02*
X7997500Y-12666643D01*
X7997500Y-12666643D02*
X7997500Y-12657119D01*
X7997500Y-12657119D02*
X8007024Y-12638071D01*
X8007024Y-12638071D02*
X8016548Y-12628548D01*
X8016548Y-12628548D02*
X8035595Y-12619024D01*
X8035595Y-12619024D02*
X8073691Y-12619024D01*
X8073691Y-12619024D02*
X8092738Y-12628548D01*
X8092738Y-12628548D02*
X8102262Y-12638071D01*
X8102262Y-12638071D02*
X8111786Y-12657119D01*
X8111786Y-12657119D02*
X8111786Y-12666643D01*
X8111786Y-12666643D02*
X8102262Y-12685690D01*
X8102262Y-12685690D02*
X8092738Y-12695214D01*
X8092738Y-12695214D02*
X8073691Y-12704738D01*
X8073691Y-12704738D02*
X8035595Y-12704738D01*
X8035595Y-12704738D02*
X8016548Y-12714262D01*
X8016548Y-12714262D02*
X8007024Y-12723786D01*
X8007024Y-12723786D02*
X7997500Y-12742833D01*
X7997500Y-12742833D02*
X7997500Y-12780928D01*
X7997500Y-12780928D02*
X8007024Y-12799976D01*
X8007024Y-12799976D02*
X8016548Y-12809500D01*
X8016548Y-12809500D02*
X8035595Y-12819024D01*
X8035595Y-12819024D02*
X8073691Y-12819024D01*
X8073691Y-12819024D02*
X8092738Y-12809500D01*
X8092738Y-12809500D02*
X8102262Y-12799976D01*
X8102262Y-12799976D02*
X8111786Y-12780928D01*
X8111786Y-12780928D02*
X8111786Y-12742833D01*
X8111786Y-12742833D02*
X8102262Y-12723786D01*
X8102262Y-12723786D02*
X8092738Y-12714262D01*
X8092738Y-12714262D02*
X8073691Y-12704738D01*
X8187976Y-12619024D02*
X8187976Y-12657119D01*
X8264167Y-12619024D02*
X8264167Y-12657119D01*
X8559405Y-12895214D02*
X8549881Y-12885690D01*
X8549881Y-12885690D02*
X8530834Y-12857119D01*
X8530834Y-12857119D02*
X8521310Y-12838071D01*
X8521310Y-12838071D02*
X8511786Y-12809500D01*
X8511786Y-12809500D02*
X8502262Y-12761881D01*
X8502262Y-12761881D02*
X8502262Y-12723786D01*
X8502262Y-12723786D02*
X8511786Y-12676167D01*
X8511786Y-12676167D02*
X8521310Y-12647595D01*
X8521310Y-12647595D02*
X8530834Y-12628548D01*
X8530834Y-12628548D02*
X8549881Y-12599976D01*
X8549881Y-12599976D02*
X8559405Y-12590452D01*
X8626072Y-12638071D02*
X8635596Y-12628548D01*
X8635596Y-12628548D02*
X8654643Y-12619024D01*
X8654643Y-12619024D02*
X8702262Y-12619024D01*
X8702262Y-12619024D02*
X8721310Y-12628548D01*
X8721310Y-12628548D02*
X8730834Y-12638071D01*
X8730834Y-12638071D02*
X8740357Y-12657119D01*
X8740357Y-12657119D02*
X8740357Y-12676167D01*
X8740357Y-12676167D02*
X8730834Y-12704738D01*
X8730834Y-12704738D02*
X8616548Y-12819024D01*
X8616548Y-12819024D02*
X8740357Y-12819024D01*
X8978453Y-12819024D02*
X8978453Y-12619024D01*
X9064167Y-12819024D02*
X9064167Y-12714262D01*
X9064167Y-12714262D02*
X9054643Y-12695214D01*
X9054643Y-12695214D02*
X9035596Y-12685690D01*
X9035596Y-12685690D02*
X9007024Y-12685690D01*
X9007024Y-12685690D02*
X8987977Y-12695214D01*
X8987977Y-12695214D02*
X8978453Y-12704738D01*
X9187977Y-12819024D02*
X9168929Y-12809500D01*
X9168929Y-12809500D02*
X9159405Y-12799976D01*
X9159405Y-12799976D02*
X9149881Y-12780928D01*
X9149881Y-12780928D02*
X9149881Y-12723786D01*
X9149881Y-12723786D02*
X9159405Y-12704738D01*
X9159405Y-12704738D02*
X9168929Y-12695214D01*
X9168929Y-12695214D02*
X9187977Y-12685690D01*
X9187977Y-12685690D02*
X9216548Y-12685690D01*
X9216548Y-12685690D02*
X9235596Y-12695214D01*
X9235596Y-12695214D02*
X9245119Y-12704738D01*
X9245119Y-12704738D02*
X9254643Y-12723786D01*
X9254643Y-12723786D02*
X9254643Y-12780928D01*
X9254643Y-12780928D02*
X9245119Y-12799976D01*
X9245119Y-12799976D02*
X9235596Y-12809500D01*
X9235596Y-12809500D02*
X9216548Y-12819024D01*
X9216548Y-12819024D02*
X9187977Y-12819024D01*
X9368929Y-12819024D02*
X9349881Y-12809500D01*
X9349881Y-12809500D02*
X9340358Y-12790452D01*
X9340358Y-12790452D02*
X9340358Y-12619024D01*
X9521310Y-12809500D02*
X9502262Y-12819024D01*
X9502262Y-12819024D02*
X9464167Y-12819024D01*
X9464167Y-12819024D02*
X9445119Y-12809500D01*
X9445119Y-12809500D02*
X9435596Y-12790452D01*
X9435596Y-12790452D02*
X9435596Y-12714262D01*
X9435596Y-12714262D02*
X9445119Y-12695214D01*
X9445119Y-12695214D02*
X9464167Y-12685690D01*
X9464167Y-12685690D02*
X9502262Y-12685690D01*
X9502262Y-12685690D02*
X9521310Y-12695214D01*
X9521310Y-12695214D02*
X9530834Y-12714262D01*
X9530834Y-12714262D02*
X9530834Y-12733309D01*
X9530834Y-12733309D02*
X9435596Y-12752357D01*
X9607024Y-12809500D02*
X9626072Y-12819024D01*
X9626072Y-12819024D02*
X9664167Y-12819024D01*
X9664167Y-12819024D02*
X9683215Y-12809500D01*
X9683215Y-12809500D02*
X9692739Y-12790452D01*
X9692739Y-12790452D02*
X9692739Y-12780928D01*
X9692739Y-12780928D02*
X9683215Y-12761881D01*
X9683215Y-12761881D02*
X9664167Y-12752357D01*
X9664167Y-12752357D02*
X9635596Y-12752357D01*
X9635596Y-12752357D02*
X9616548Y-12742833D01*
X9616548Y-12742833D02*
X9607024Y-12723786D01*
X9607024Y-12723786D02*
X9607024Y-12714262D01*
X9607024Y-12714262D02*
X9616548Y-12695214D01*
X9616548Y-12695214D02*
X9635596Y-12685690D01*
X9635596Y-12685690D02*
X9664167Y-12685690D01*
X9664167Y-12685690D02*
X9683215Y-12695214D01*
X9759405Y-12895214D02*
X9768929Y-12885690D01*
X9768929Y-12885690D02*
X9787977Y-12857119D01*
X9787977Y-12857119D02*
X9797500Y-12838071D01*
X9797500Y-12838071D02*
X9807024Y-12809500D01*
X9807024Y-12809500D02*
X9816548Y-12761881D01*
X9816548Y-12761881D02*
X9816548Y-12723786D01*
X9816548Y-12723786D02*
X9807024Y-12676167D01*
X9807024Y-12676167D02*
X9797500Y-12647595D01*
X9797500Y-12647595D02*
X9787977Y-12628548D01*
X9787977Y-12628548D02*
X9768929Y-12599976D01*
X9768929Y-12599976D02*
X9759405Y-12590452D01*
M02*
