%TF.GenerationSoftware,KiCad,Pcbnew,7.0.2*%
%TF.CreationDate,2023-08-09T10:06:04-03:00*%
%TF.ProjectId,PCB_Incendio,5043425f-496e-4636-956e-64696f2e6b69,rev?*%
%TF.SameCoordinates,Original*%
%TF.FileFunction,Soldermask,Bot*%
%TF.FilePolarity,Negative*%
%FSLAX46Y46*%
G04 Gerber Fmt 4.6, Leading zero omitted, Abs format (unit mm)*
G04 Created by KiCad (PCBNEW 7.0.2) date 2023-08-09 10:06:04*
%MOMM*%
%LPD*%
G01*
G04 APERTURE LIST*
%ADD10C,2.200000*%
%ADD11C,0.800000*%
%ADD12C,7.000000*%
%ADD13C,2.100000*%
%ADD14C,2.300000*%
%ADD15R,2.300000X2.300000*%
G04 APERTURE END LIST*
D10*
%TO.C,J5*%
X218860000Y-86420000D03*
X213780000Y-86420000D03*
X208700000Y-86420000D03*
%TD*%
D11*
%TO.C,REF\u002A\u002A*%
X152905000Y-75000000D03*
X152136155Y-76856155D03*
X152136155Y-73143845D03*
X150280000Y-77625000D03*
D12*
X150280000Y-75000000D03*
D11*
X150280000Y-72375000D03*
X148423845Y-76856155D03*
X148423845Y-73143845D03*
X147655000Y-75000000D03*
%TD*%
D10*
%TO.C,J3*%
X176860000Y-86420000D03*
X171780000Y-86420000D03*
X166700000Y-86420000D03*
%TD*%
D11*
%TO.C,REF\u002A\u002A*%
X232905000Y-75000000D03*
X232136155Y-76856155D03*
X232136155Y-73143845D03*
X230280000Y-77625000D03*
D12*
X230280000Y-75000000D03*
D11*
X230280000Y-72375000D03*
X228423845Y-76856155D03*
X228423845Y-73143845D03*
X227655000Y-75000000D03*
%TD*%
D10*
%TO.C,J1*%
X230820000Y-86293000D03*
D13*
X225740000Y-86293000D03*
%TD*%
%TO.C,J6*%
X183740000Y-86293000D03*
D10*
X188820000Y-86293000D03*
%TD*%
%TO.C,J2*%
X201320000Y-86293000D03*
D13*
X196240000Y-86293000D03*
%TD*%
D10*
%TO.C,J4*%
X159760000Y-86520000D03*
X154680000Y-86520000D03*
X149600000Y-86520000D03*
%TD*%
D14*
%TO.C,K2*%
X196280000Y-74420000D03*
D15*
X190280000Y-76420000D03*
D14*
X184280000Y-62220000D03*
X196280000Y-62220000D03*
X184280000Y-74420000D03*
%TD*%
%TO.C,K3*%
X169280000Y-74420000D03*
D15*
X163280000Y-76420000D03*
D14*
X157280000Y-62220000D03*
X169280000Y-62220000D03*
X157280000Y-74420000D03*
%TD*%
%TO.C,K1*%
X223280000Y-74420000D03*
D15*
X217280000Y-76420000D03*
D14*
X211280000Y-62220000D03*
X223280000Y-62220000D03*
X211280000Y-74420000D03*
%TD*%
M02*
